<?xml version="1.0" standalone="no"?>
<!DOCTYPE svg PUBLIC "-//W3C//DTD SVG 1.1//EN" "http://www.w3.org/Graphics/SVG/1.1/DTD/svg11.dtd" >
<svg>
<metadata>
Created by FontForge 20090914 at Fri Nov 20 12:58:07 2015
 By www-data
Copyright (c) 2013 by Style-7. All rights reserved. http://www.styleseven.com
</metadata>
<defs>
<font id="ThinPixel-7" horiz-adv-x="300" >
  <font-face 
    font-family="Thin Pixel-7"
    font-weight="400"
    font-stretch="normal"
    units-per-em="1000"
    panose-1="2 0 0 0 0 0 0 0 0 0"
    ascent="750"
    descent="-250"
    x-height="250"
    cap-height="350"
    bbox="0 -100 550 500"
    underline-thickness="50"
    underline-position="-50"
    unicode-range="U+0020-U+2122"
  />
<missing-glyph 
 />
    <glyph glyph-name=".notdef" 
 />
    <glyph glyph-name="space" unicode=" " 
 />
    <glyph glyph-name="space" unicode="&#xa0;" 
 />
    <glyph glyph-name="exclam" unicode="!" horiz-adv-x="100" 
d="M0 350h50v-250h-50v250zM0 50h50v-50h-50v50z" />
    <glyph glyph-name="quotedbl" unicode="&#x22;" horiz-adv-x="200" 
d="M0 350h50v-150h-50v150zM100 350h50v-150h-50v150z" />
    <glyph glyph-name="numbersign" unicode="#" 
d="M0 300h50v50h50v-50h50v50h50v-50h50v-50h-50v-150h50v-50h-50v-50h-50v50h-50v-50h-50v50h-50v50h50v150h-50v50zM150 250h-50v-150h50v150z" />
    <glyph glyph-name="dollar" unicode="$" 
d="M0 300h50v50h50v50h50v-50h100v-50h-100v-100h50v-50h50v-100h-50v-50h-50v-50h-50v50h-100v50h100v100h-50v50h-50v100zM50 200h50v100h-50v-100zM200 150h-50v-100h50v100z" />
    <glyph glyph-name="percent" unicode="%" horiz-adv-x="350" 
d="M0 50h50v50h50v50h50v50h50v50h50v50h50v-50h-50v-50h-50v-50h-50v-50h-50v-50h-50v-50h-50v50zM0 300h100v-100h-100v100zM200 100h100v-100h-100v100z" />
    <glyph glyph-name="ampersand" unicode="&#x26;" horiz-adv-x="350" 
d="M0 300h50v50h100v-50h50v-100h100v-50h-100v-100h100v-50h-100v50h-50v-50h-100v50h-50v100h50v50h-50v100zM50 150v-100h100v100h-100zM50 300v-100h100v99zM150 150h50v50l-50 -1v-49z" />
    <glyph glyph-name="quotesingle" unicode="'" horiz-adv-x="100" 
d="M0 350h50v-150h-50v150z" />
    <glyph glyph-name="parenleft" unicode="(" horiz-adv-x="200" 
d="M0 300h50v50h100v-50h-100v-250h100v-50h-100v50h-50v250z" />
    <glyph glyph-name="parenright" unicode=")" horiz-adv-x="200" 
d="M0 350h100v-50h50v-250h-50v-50h-100v50h100v250h-100v50z" />
    <glyph glyph-name="asterisk" unicode="*" 
d="M50 300h50v-50h50v50h50v-50h-50v-50h100v-50h-100v-50h50v-50h-50v50h-50v-50h-50v50h50v50h-100v50h100v50h-50v50z" />
    <glyph glyph-name="plus" unicode="+" 
d="M0 200h100v100h50v-100h100v-50h-100v-100h-50v100h-100v50z" />
    <glyph glyph-name="comma" unicode="," horiz-adv-x="150" 
d="M0 100h100v-150h-50v-50h-50v50h50v100h-50v50z" />
    <glyph glyph-name="hyphen" unicode="-" 
d="M0 200h250v-50h-250v50z" />
    <glyph glyph-name="period" unicode="." horiz-adv-x="100" 
d="M0 50h50v-50h-50v50z" />
    <glyph glyph-name="slash" unicode="/" horiz-adv-x="350" 
d="M0 50h50v50h50v50h50v50h50v50h50v50h50v-50h-50v-50h-50v-50h-50v-50h-50v-50h-50v-50h-50v50z" />
    <glyph glyph-name="zero" unicode="0" 
d="M0 300h50v50h150v-50h50v-250h-50v-50h-150v50h-50v250zM50 150h50v50h50v50h50v50h-150v-150zM200 200h-50v-50h-50v-50h-50v-50h150v150z" />
    <glyph glyph-name="one" unicode="1" 
d="M0 250h50v50h50v50h50v-300h100v-50h-250v50h100v200h-50v-50h-50v50z" />
    <glyph glyph-name="two" unicode="2" 
d="M0 150h50v50h150v100h-150v-50h-50v50h50v50h150v-50h50v-100h-50v-50h-150v-100h200v-50h-250v150z" />
    <glyph glyph-name="three" unicode="3" 
d="M100 200h100v100h-150v-50h-50v50h50v50h150v-50h50v-100h-50v-50h50v-100h-50v-50h-150v50h-50v50h50v-50h150v100h-100v50z" />
    <glyph glyph-name="four" unicode="4" 
d="M0 200h50v50h50v50h50v50h100v-350h-50v100h-200v100zM200 300h-50v-50h-50v-50h-50v-50h150v150z" />
    <glyph glyph-name="five" unicode="5" 
d="M0 350h250v-50h-200v-50h150v-50h50v-150h-50v-50h-150v50h-50v50h50v-50h150v150h-150v-50h-50v200z" />
    <glyph glyph-name="six" unicode="6" 
d="M0 300h50v50h150v-50h50v-50h-50v50h-150v-100h150v-50h50v-100h-50v-50h-150v50h-50v250zM50 150v-100l150 -1v100z" />
    <glyph glyph-name="seven" unicode="7" 
d="M0 350h250v-150h-50v-50h-50v-150h-50v150h50v50h50v100h-200v50z" />
    <glyph glyph-name="eight" unicode="8" 
d="M0 300h50v50h150v-50h50v-100h-50v-50h50v-100h-50v-50h-150v50h-50v100h50v50h-50v100zM50 50h150v100h-150v-100zM50 200h150v100h-150v-100z" />
    <glyph glyph-name="nine" unicode="9" 
d="M0 300h50v50h150v-50h50v-250h-50v-50h-150v50h-50v50h50v-50h150v100h-150v50h-50v100zM50 200h150v100h-150v-100z" />
    <glyph glyph-name="colon" unicode=":" horiz-adv-x="100" 
d="M0 250h50v-50h-50v50zM0 150h50v-50h-50v50z" />
    <glyph glyph-name="semicolon" unicode=";" horiz-adv-x="151" 
d="M0 100h100v-150h-50v-50h-50v50h50v100h-50v50zM0 250h50v-50h-50v50z" />
    <glyph glyph-name="less" unicode="&#x3c;" horiz-adv-x="200" 
d="M0 200h50v50h50v50h50v-50h-50v-50h-50v-50h50v-50h50v-50h-50v50h-50v50h-50v50z" />
    <glyph glyph-name="equal" unicode="=" 
d="M0 250h250v-50h-250v50zM0 150h250v-50h-250v50z" />
    <glyph glyph-name="greater" unicode="&#x3e;" horiz-adv-x="200" 
d="M0 300h50v-50h50v-50h50v-50h-50v-50h-50v-50h-50v50h50v50h50v50h-50v50h-50v50z" />
    <glyph glyph-name="question" unicode="?" 
d="M100 200h100v100h-150v-50h-50v50h50v50h150v-50h50v-100h-50v-50h-50v-50h-50v100zM100 50h50v-50h-50v50z" />
    <glyph glyph-name="at" unicode="@" 
d="M100 250h100v50h-150v-250h200v-50h-200v50h-50v250h50v50h150v-50h50v-200h-150v150zM150 150h50v50h-50v-50z" />
    <glyph glyph-name="A" unicode="A" 
d="M0 300h50v50h150v-50h50v-300h-50v150h-150v-150h-50v300zM50 200h150v100h-150v-100z" />
    <glyph glyph-name="B" unicode="B" 
d="M0 350h200v-50h50v-100h-50v-50h50v-100h-50v-50h-200v350zM50 200h150v100h-150v-100zM50 50h150v100h-150v-100z" />
    <glyph glyph-name="C" unicode="C" 
d="M200 300h-150v-250h150v50h50v-50h-50v-50h-150v50h-50v250h50v50h150v-50h50v-50h-50v50z" />
    <glyph glyph-name="D" unicode="D" 
d="M0 350h200v-50h50v-250h-50v-50h-200v350zM50 50h150v250h-150v-250z" />
    <glyph glyph-name="E" unicode="E" 
d="M0 350h250v-50h-200v-100h150v-50h-150v-100h200v-50h-250v350z" />
    <glyph glyph-name="F" unicode="F" 
d="M0 350h250v-50h-200v-100h150v-50h-150v-150h-50v350z" />
    <glyph glyph-name="G" unicode="G" 
d="M0 300h50v50h150v-50h50v-50h-50v50h-150v-250h150v50h-50v50h100v-100h-50v-50h-150v50h-50v250z" />
    <glyph glyph-name="H" unicode="H" 
d="M0 350h50v-150h150v150h50v-350h-50v150h-150v-150h-50v350z" />
    <glyph glyph-name="I" unicode="I" 
d="M0 350h250v-50h-100v-250h100v-50h-250v50h100v250h-100v50z" />
    <glyph glyph-name="J" unicode="J" 
d="M0 350h250v-300h-50v-50h-150v50h-50v100h50v-100h150v250h-150v-50h-50v100z" />
    <glyph glyph-name="K" unicode="K" 
d="M0 350h50v-150h100v50h50v100h50v-100h-50v-50h-50v-50h50v-50h50v-100h-50v100h-50v50h-100v-150h-50v350z" />
    <glyph glyph-name="L" unicode="L" 
d="M0 350h50v-300h200v-50h-250v350z" />
    <glyph glyph-name="M" unicode="M" 
d="M0 350h50v-100h50v-50h50v50h50v100h50v-350h-50v200h-50v-100h-50v100h-50v-200h-50v350z" />
    <glyph glyph-name="N" unicode="N" 
d="M0 350h50v-100h50v-50h50v-50h50v200h50v-350h-50v100h-50v50h-50v50h-50v-200h-50v350z" />
    <glyph glyph-name="O" unicode="O" 
d="M0 300h50v50h150v-50h50v-250h-50v-50h-150v50h-50v250zM50 50h150v250h-150v-250z" />
    <glyph glyph-name="P" unicode="P" 
d="M0 350h200v-50h50v-100h-50v-50h-150v-150h-50v350zM50 300v-100h150v99z" />
    <glyph glyph-name="Q" unicode="Q" 
d="M0 300h50v50h150v-50h50v-250h-50v-50h50v-50h-50v50h-150v50h-50v250zM50 50h150v250h-150v-250z" />
    <glyph glyph-name="R" unicode="R" 
d="M0 350h200v-50h50v-100h-50v-50h-50v-50h50v-50h50v-50h-50v50h-50v50h-50v50h-50v-150h-50v350zM50 200h150v100h-150v-100z" />
    <glyph glyph-name="S" unicode="S" 
d="M0 300h50v50h200v-50h-200v-100h150v-50h50v-100h-50v-50h-200v50h200v100h-150v50h-50v100z" />
    <glyph glyph-name="T" unicode="T" 
d="M0 350h250v-50h-100v-300h-50v300h-100v50z" />
    <glyph glyph-name="U" unicode="U" 
d="M0 350h50v-300h150v300h50v-300h-50v-50h-150v50h-50v300z" />
    <glyph glyph-name="V" unicode="V" 
d="M0 350h50v-250h50v-50h50v50h50v250h50v-250h-50v-50h-50v-50h-50v50h-50v50h-50v250z" />
    <glyph glyph-name="W" unicode="W" 
d="M0 350h50v-300h50v200h50v-200h50v300h50v-300h-50v-50h-50v50h-50v-50h-50v50h-50v300z" />
    <glyph glyph-name="X" unicode="X" 
d="M0 350h50v-100h50v-50h50v50h50v100h50v-100h-50v-50h-50v-50h50v-50h50v-100h-50v100h-50v50h-50v-50h-50v-100h-50v100h50v50h50v50h-50v50h-50v100z" />
    <glyph glyph-name="Y" unicode="Y" 
d="M0 350h50v-100h50v-50h50v50h50v100h50v-100h-50v-50h-50v-200h-50v200h-50v50h-50v100z" />
    <glyph glyph-name="Z" unicode="Z" 
d="M0 100h50v50h50v50h50v50h50v50h-200v50h250v-100h-50v-50h-50v-50h-50v-50h-50v-50h200v-50h-250v100z" />
    <glyph glyph-name="bracketleft" unicode="[" horiz-adv-x="200" 
d="M0 350h150v-50h-100v-250h100v-50h-150v350z" />
    <glyph glyph-name="backslash" unicode="\" horiz-adv-x="350" 
d="M0 300h50v-50h50v-50h50v-50h50v-50h50v-50h50v-50h-50v50h-50v50h-50v50h-50v50h-50v50h-50v50z" />
    <glyph glyph-name="bracketright" unicode="]" horiz-adv-x="200" 
d="M0 350h150v-350h-150v50h100v250h-100v50z" />
    <glyph glyph-name="asciicircum" unicode="^" 
d="M0 250h50v50h50v50h50v-50h50v-50h50v-50h-50v50h-50v50h-50v-50h-50v-50h-50v50z" />
    <glyph glyph-name="underscore" unicode="_" 
d="M0 50h250v-50h-250v50z" />
    <glyph glyph-name="grave" unicode="`" horiz-adv-x="150" 
d="M0 350h50v-50h50v-50h-50v50h-50v50z" />
    <glyph glyph-name="a" unicode="a" horiz-adv-x="250" 
d="M50 250h100v-50h50v-200h-150v50h-50v50h50v50h100v50h-100v50zM50 50h100v50h-100v-50z" />
    <glyph glyph-name="b" unicode="b" horiz-adv-x="250" 
d="M0 350h50v-100h100v-50h50v-150h-50v-50h-150v350zM50 50h100v150h-100v-150z" />
    <glyph glyph-name="c" unicode="c" horiz-adv-x="250" 
d="M0 200h50v50h150v-50h-150v-150h150v-50h-150v50h-50v150z" />
    <glyph glyph-name="d" unicode="d" horiz-adv-x="250" 
d="M0 200h50v50h100v100h50v-350h-150v50h-50v150zM50 50h100v150h-100v-150z" />
    <glyph glyph-name="e" unicode="e" horiz-adv-x="250" 
d="M0 200h50v50h100v-50h50v-100h-150v-50h150v-50h-150v50h-50v150zM50 150h100v50h-100v-50z" />
    <glyph glyph-name="f" unicode="f" horiz-adv-x="250" 
d="M0 250h50v50h50v50h100v-50h-100v-50h50v-50h-50v-200h-50v200h-50v50z" />
    <glyph glyph-name="g" unicode="g" horiz-adv-x="250" 
d="M0 200h50v50h150v-300h-50v-50h-100v50h100v50h-100v50h-50v150zM50 50h100v150h-100v-150z" />
    <glyph glyph-name="h" unicode="h" horiz-adv-x="250" 
d="M0 350h50v-100h100v-50h50v-200h-50v200h-100v-200h-50v350z" />
    <glyph glyph-name="i" unicode="i" horiz-adv-x="200" 
d="M0 250h100v-200h50v-50h-150v50h50v150h-50v50zM50 350h50v-50h-50v50z" />
    <glyph glyph-name="j" unicode="j" horiz-adv-x="200" 
d="M0 -50h100v250h-100v50h150v-300h-50v-50h-100v50zM50 350h50v-50h-50v50z" />
    <glyph glyph-name="k" unicode="k" horiz-adv-x="250" 
d="M0 350h50v-200h50v50h50v50h50v-50h-50v-50h-50v-50h50v-50h50v-50h-50v50h-50v50h-50v-100h-50v350z" />
    <glyph glyph-name="l" unicode="l" horiz-adv-x="200" 
d="M0 350h100v-300h50v-50h-150v50h50v250h-50v50z" />
    <glyph glyph-name="m" unicode="m" horiz-adv-x="301" 
d="M0 250h200v-50h50v-200h-50v200h-50v-200h-50v200h-50v-200h-50v250z" />
    <glyph glyph-name="n" unicode="n" horiz-adv-x="250" 
d="M0 250h150v-50h50v-200h-50v200h-100v-200h-50v250z" />
    <glyph glyph-name="o" unicode="o" horiz-adv-x="250" 
d="M0 200h50v50h100v-50h50v-150h-50v-50h-100v50h-50v150zM50 50h100v150h-100v-150z" />
    <glyph glyph-name="p" unicode="p" horiz-adv-x="250" 
d="M0 250h150v-50h50v-150h-50v-50h-100v-100h-50v350zM150 200h-100v-150h100v150z" />
    <glyph glyph-name="q" unicode="q" horiz-adv-x="250" 
d="M0 200h50v50h150v-350h-50v100h-100v50h-50v150zM50 50h100v150h-100v-150z" />
    <glyph glyph-name="r" unicode="r" horiz-adv-x="250" 
d="M0 250h150v-50h50v-50h-50v50h-100v-200h-50v250z" />
    <glyph glyph-name="s" unicode="s" horiz-adv-x="250" 
d="M0 200h50v50h150v-50h-150v-50h100v-50h50v-50h-50v-50h-150v50h150v50h-100v50h-50v50z" />
    <glyph glyph-name="t" unicode="t" horiz-adv-x="250" 
d="M0 250h50v100h50v-100h50v-50h-50v-150h100v-50h-100v50h-50v150h-50v50z" />
    <glyph glyph-name="u" unicode="u" horiz-adv-x="250" 
d="M0 250h50v-200h100v200h50v-200h-50v-50h-100v50h-50v200z" />
    <glyph glyph-name="v" unicode="v" 
d="M0 250h50v-150h50v-50h50v200h50v-200h-50v-50h-50v50h-50v50h-50v150z" />
    <glyph glyph-name="w" unicode="w" 
d="M0 250h50v-200h50v150h50v-150h50v200h50v-200h-50v-50h-50v50h-50v-50h-50v50h-50v200z" />
    <glyph glyph-name="x" unicode="x" horiz-adv-x="251" 
d="M0 250h50v-100h100v100h50v-100h-50v-50h50v-100h-50v100h-100v-100h-50v100h50v50h-50v100z" />
    <glyph glyph-name="y" unicode="y" horiz-adv-x="250" 
d="M0 250h50v-200h100v200h50v-300h-50v-50h-100v50h100v50h-100v50h-50v200z" />
    <glyph glyph-name="z" unicode="z" horiz-adv-x="251" 
d="M0 250h200v-100h-50v-50h-100v-50h150v-50h-200v100h50v50h100v50h-150v50z" />
    <glyph glyph-name="braceleft" unicode="{" horiz-adv-x="250" 
d="M0 200h50v150h150v-50h-100v-250h100v-50h-150v150h-50v50z" />
    <glyph glyph-name="bar" unicode="|" horiz-adv-x="100" 
d="M0 350h50v-350h-50v350z" />
    <glyph glyph-name="braceright" unicode="}" horiz-adv-x="250" 
d="M0 350h150v-150h50v-50h-50v-150h-150v50h100v250h-100v50z" />
    <glyph glyph-name="asciitilde" unicode="~" 
d="M0 200h50v50h50v-50h50v-50h50v100h50v-100h-50v-50h-50v50h-50v50h-50v-100h-50v100z" />
    <glyph glyph-name="exclamdown" unicode="&#xa1;" horiz-adv-x="100" 
d="M0 250h50v-250h-50v250zM0 350h50v-50h-50v50z" />
    <glyph glyph-name="cent" unicode="&#xa2;" 
d="M0 200h50v50h50v50h50v-50h100v-50h-100v-150h100v-50h-100v-50h-50v50h-50v50h-50v150zM50 50h50v150h-50v-150z" />
    <glyph glyph-name="sterling" unicode="&#xa3;" horiz-adv-x="250" 
d="M0 250h50v50h50v50h100v-50h-100v-50h50v-50h-50v-150h100v-50h-200v50h50v150h-50v50z" />
    <glyph glyph-name="currency" unicode="&#xa4;" horiz-adv-x="350" 
d="M50 250h50v50h100v-50h50v-100h-50v-50h-100v50h-50v100zM100 150h100v100h-100v-100zM250 350h50v-50h-50v50zM0 350h50v-50h-50v50zM0 100h50v-50h-50v50zM250 100h50v-50h-50v50z" />
    <glyph glyph-name="yen" unicode="&#xa5;" 
d="M0 350h50v-50h50v-50h50v50h50v50h50v-50h-50v-50h-50v-50h50v-50h-50v-50h50v-50h-50v-50h-50v50h-50v50h50v50h-50v50h50v50h-50v50h-50v50z" />
    <glyph glyph-name="brokenbar" unicode="&#xa6;" horiz-adv-x="100" 
d="M0 350h50v-150h-50v150zM0 150h50v-150h-50v150z" />
    <glyph glyph-name="section" unicode="&#xa7;" 
d="M0 300h50v50h200v-50h-200v-50h150v-50h50v-150h-50v-50h-200v50h200v50h-150v50h-50v150zM50 150h150v50h-150v-50z" />
    <glyph glyph-name="dieresis" unicode="&#xa8;" horiz-adv-x="200" 
d="M0 350h50v-50h-50v50zM100 350h50v-50h-50v50z" />
    <glyph glyph-name="copyright" unicode="&#xa9;" horiz-adv-x="400" 
d="M0 300h50v50h250v-50h50v-250h-50v-50h-250v50h-50v250zM50 50h250v250h-250v-250zM100 250h150v-50h-100v-50h100v-50h-150v150z" />
    <glyph glyph-name="ordfeminine" unicode="&#xaa;" horiz-adv-x="250" 
d="M50 350h100v-50h50v-200h-150v50h-50v50h50v50h100v50h-100v50zM50 150h100v50h-100v-50z" />
    <glyph glyph-name="guillemotleft" unicode="&#xab;" horiz-adv-x="350" 
d="M0 200h50v50h50v50h50v-50h-50v-50h-50v-50h50v-50h50v-50h-50v50h-50v50h-50v50zM150 200h50v50h50v50h50v-50h-50v-50h-50v-50h50v-50h50v-50h-50v50h-50v50h-50v50z" />
    <glyph glyph-name="logicalnot" unicode="&#xac;" 
d="M0 350h250v-150h-50v100h-200v50z" />
    <glyph glyph-name="uni00AD" unicode="&#xad;" horiz-adv-x="250" 
d="M0 200h200v-50h-200v50z" />
    <glyph glyph-name="registered" unicode="&#xae;" horiz-adv-x="400" 
d="M0 350h50v50h250v-50h50v-300h-50v-50h-250v50h-50v300zM50 50h250v300h-250v-300zM100 300h100v-50h50v-50h-50v-50h50v-50h-50v50h-50v-50h-50v200zM150 200h50v50h-50v-50z" />
    <glyph glyph-name="degree" unicode="&#xb0;" horiz-adv-x="250" 
d="M0 300h50v50h100v-50h50v-100h-50v-50h-100v50h-50v100zM50 200h100v100h-100v-100z" />
    <glyph glyph-name="plusminus" unicode="&#xb1;" 
d="M0 250h100v100h50v-100h100v-50h-100v-100h-50v100h-100v50zM0 50h250v-50h-250v50z" />
    <glyph glyph-name="twosuperior" unicode="&#xb2;" 
d="M0 350h150v-50h50v-50h-50v-50h-100v-50h150v-50h-200v100h50v50h100v50h-150v50z" />
    <glyph glyph-name="threesuperior" unicode="&#xb3;" horiz-adv-x="250" 
d="M50 250h100v50h-150v50h150v-50h50v-50h-50v-50h50v-50h-50v-50h-150v50h150v50h-100v50z" />
    <glyph glyph-name="acute" unicode="&#xb4;" horiz-adv-x="150" 
d="M0 300h50v50h50v-50h-50v-50h-50v50z" />
    <glyph glyph-name="mu" unicode="&#xb5;" 
d="M0 300h50v-200h50v-50h50v50h50v200h50v-300h-50v50h-50v-50h-50v50h-50v-150h-50v400z" />
    <glyph glyph-name="paragraph" unicode="&#xb6;" 
d="M0 300h50v50h200v-50h-50v-300h-50v300h-50v-300h-50v200h-50v100z" />
    <glyph glyph-name="periodcentered" unicode="&#xb7;" horiz-adv-x="100" 
d="M0 200h50v-50h-50v50z" />
    <glyph glyph-name="cedilla" unicode="&#xb8;" horiz-adv-x="200" 
d="M0 -50h100v50h50v-50h-50v-50h-100v50z" />
    <glyph glyph-name="onesuperior" unicode="&#xb9;" horiz-adv-x="200" 
d="M0 300h50v50h50v-200h50v-50h-150v50h50v100h-50v50z" />
    <glyph glyph-name="ordmasculine" unicode="&#xba;" horiz-adv-x="250" 
d="M0 300h50v50h100v-50h50v-150h-50v-50h-100v50h-50v150zM50 150h100v150h-100v-150z" />
    <glyph glyph-name="guillemotright" unicode="&#xbb;" horiz-adv-x="350" 
d="M0 300h50v-50h50v-50h50v-50h-50v-50h-50v-50h-50v50h50v50h50v50h-50v50h-50v50zM150 300h50v-50h50v-50h50v-50h-50v-50h-50v-50h-50v50h50v50h50v50h-50v50h-50v50z" />
    <glyph glyph-name="onequarter" unicode="&#xbc;" horiz-adv-x="600" 
d="M350 150h50v-100h100v100h50v-250h-50v100h-150v150zM0 400h50v50h50v-200h50v-50h-150v50h50v100h-50v50zM100 50h50v50h50v50h50v50h50v50h50v50h50v-50h-50v-50h-50v-50h-50v-50h-50v-50h-50v-50h-50v50z" />
    <glyph glyph-name="onehalf" unicode="&#xbd;" horiz-adv-x="600" 
d="M350 0h50v50h100v50h-150v50h150v-50h50v-100h-150v-50h150v-50h-200v100zM0 400h50v50h50v-200h50v-50h-150v50h50v100h-50v50zM100 50h50v50h50v50h50v50h50v50h50v50h50v-50h-50v-50h-50v-50h-50v-50h-50v-50h-50v-50h-50v50z" />
    <glyph glyph-name="threequarters" unicode="&#xbe;" horiz-adv-x="600" 
d="M50 350h100v50h-150v50h150v-50h50v-50h-50v-50h50v-50h-50v-50h-150v50h150v50h-100v50zM350 150h50v-100h100v100h50v-250h-50v100h-150v150zM100 50h50v50h50v50h50v50h50v50h50v50h50v-50h-50v-50h-50v-50h-50v-50h-50v-50h-50v-50h-50v50z" />
    <glyph glyph-name="questiondown" unicode="&#xbf;" 
d="M0 150h50v50h50v50h50v-100h-100v-100h150v50h50v-50h-50v-50h-150v50h-50v100zM100 350h50v-50h-50v50z" />
    <glyph glyph-name="Agrave" unicode="&#xc0;" 
d="M50 500h50v-50h50v-50h-50v50h-50v50zM0 300h50v50h150v-50h50v-300h-50v150h-150v-150h-50v300zM50 200h150v100h-150v-100z" />
    <glyph glyph-name="Aacute" unicode="&#xc1;" 
d="M0 300h50v50h150v-50h50v-300h-50v150h-150v-150h-50v300zM50 200h150v100h-150v-100zM100 450h50v50h50v-50h-50v-50h-50v50z" />
    <glyph glyph-name="Acircumflex" unicode="&#xc2;" 
d="M0 300h50v50h150v-50h50v-300h-50v150h-150v-150h-50v300zM50 200h150v100h-150v-100zM0 450h50v50h50v-50h-50v-50h-50v50zM150 500h50v-50h50v-50h-50v50h-50v50z" />
    <glyph glyph-name="Atilde" unicode="&#xc3;" 
d="M0 300h50v50h150v-50h50v-300h-50v150h-150v-150h-50v300zM50 200h150v100h-150v-100zM50 450h50v50h50v-50h50v50h50v-50h-50v-50h-50v50h-50v-50h-50v50z" />
    <glyph glyph-name="Adieresis" unicode="&#xc4;" 
d="M0 300h50v50h150v-50h50v-300h-50v150h-150v-150h-50v300zM50 200h150v100h-150v-100zM150 450h50v-50h-50v50zM50 450h50v-50h-50v50z" />
    <glyph glyph-name="Aring" unicode="&#xc5;" 
d="M50 450h50v50h50v-50h50v-50h-50v-50h50v-50h50v-300h-50v150h-150v-150h-50v300h50v50h50v50h-50v50zM50 200h150v100h-150v-100zM100 400h50v50h-50v-50z" />
    <glyph glyph-name="AE" unicode="&#xc6;" horiz-adv-x="400" 
d="M0 300h50v50h300v-50h-150v-100h100v-50h-100v-100h150v-50h-200v150h-100v-150h-50v300zM50 200h100v100h-100v-100z" />
    <glyph glyph-name="Ccedilla" unicode="&#xc7;" 
d="M0 300h50v50h150v-50h50v-50h-50v50h-150v-250h150v50h50v-50h-50v-50h-50v-50h-50v-50h-100v50h100v50h-50v50h-50v250z" />
    <glyph glyph-name="Egrave" unicode="&#xc8;" 
d="M0 350h250v-50h-200v-100h150v-50h-150v-100h200v-50h-250v350zM50 500h50v-50h50v-50h-50v50h-50v50z" />
    <glyph glyph-name="Eacute" unicode="&#xc9;" 
d="M0 350h250v-50h-200v-100h150v-50h-150v-100h200v-50h-250v350zM100 450h50v50h50v-50h-50v-50h-50v50z" />
    <glyph glyph-name="Ecircumflex" unicode="&#xca;" 
d="M0 350h250v-50h-200v-100h150v-50h-150v-100h200v-50h-250v350zM0 450h50v50h50v-50h-50v-50h-50v50zM150 500h50v-50h50v-50h-50v50h-50v50z" />
    <glyph glyph-name="Edieresis" unicode="&#xcb;" 
d="M0 350h250v-50h-200v-100h150v-50h-150v-100h200v-50h-250v350zM50 450h50v-50h-50v50zM150 450h50v-50h-50v50z" />
    <glyph glyph-name="Igrave" unicode="&#xcc;" 
d="M0 50h100v250h-100v50h250v-50h-100v-250h100v-50h-250v50zM50 500h50v-50h50v-50h-50v50h-50v50z" />
    <glyph glyph-name="Iacute" unicode="&#xcd;" 
d="M0 350h250v-50h-100v-250h100v-50h-250v50h100v250h-100v50zM100 450h50v50h50v-50h-50v-50h-50v50z" />
    <glyph glyph-name="Icircumflex" unicode="&#xce;" 
d="M0 350h250v-50h-100v-250h100v-50h-250v50h100v250h-100v50zM0 450h50v50h50v-50h-50v-50h-50v50zM150 500h50v-50h50v-50h-50v50h-50v50z" />
    <glyph glyph-name="Idieresis" unicode="&#xcf;" 
d="M0 50h100v250h-100v50h250v-50h-100v-250h100v-50h-250v50zM150 450h50v-50h-50v50zM50 450h50v-50h-50v50z" />
    <glyph glyph-name="Eth" unicode="&#xd0;" horiz-adv-x="350" 
d="M0 200h50v150h200v-50h50v-250h-50v-50h-200v150h-50v50zM100 200h100v-50h-100v-100h150v250h-150v-100z" />
    <glyph glyph-name="Ntilde" unicode="&#xd1;" 
d="M0 350h50v-100h50v-50h50v-50h50v200h50v-350h-50v100h-50v50h-50v50h-50v-200h-50v350zM50 450h50v50h50v-50h50v50h50v-50h-50v-50h-50v50h-50v-50h-50v50z" />
    <glyph glyph-name="Ograve" unicode="&#xd2;" 
d="M50 500h50v-50h50v-50h-50v50h-50v50zM0 300h50v50h150v-50h50v-250h-50v-50h-150v50h-50v250zM50 50h150v250h-150v-250z" />
    <glyph glyph-name="Oacute" unicode="&#xd3;" 
d="M0 300h50v50h150v-50h50v-250h-50v-50h-150v50h-50v250zM50 50h150v250h-150v-250zM100 450h50v50h50v-50h-50v-50h-50v50z" />
    <glyph glyph-name="Ocircumflex" unicode="&#xd4;" 
d="M0 300h50v50h150v-50h50v-250h-50v-50h-150v50h-50v250zM50 50h150v250h-150v-250zM0 450h50v50h50v-50h-50v-50h-50v50zM150 500h50v-50h50v-50h-50v50h-50v50z" />
    <glyph glyph-name="Otilde" unicode="&#xd5;" 
d="M0 300h50v50h150v-50h50v-250h-50v-50h-150v50h-50v250zM200 300h-150v-250h150v250zM50 450h50v50h50v-50h50v50h50v-50h-50v-50h-50v50h-50v-50h-50v50z" />
    <glyph glyph-name="Odieresis" unicode="&#xd6;" 
d="M0 300h50v50h150v-50h50v-250h-50v-50h-150v50h-50v250zM50 50h150v250h-150v-250zM150 450h50v-50h-50v50zM50 450h50v-50h-50v50z" />
    <glyph glyph-name="multiply" unicode="&#xd7;" 
d="M0 300h50v-50h50v-50h50v50h50v50h50v-50h-50v-50h-50v-50h50v-50h50v-50h-50v50h-50v50h-50v-50h-50v-50h-50v50h50v50h50v50h-50v50h-50v50z" />
    <glyph glyph-name="Oslash" unicode="&#xd8;" 
d="M0 300h50v50h150v-50h50v-250h-50v-50h-150v50h-50v250zM50 150h50v50h50v50h50v50h-150v-150zM200 200h-50v-50h-50v-50h-50v-50h150v150z" />
    <glyph glyph-name="Ugrave" unicode="&#xd9;" 
d="M0 350h50v-300h150v300h50v-300h-50v-50h-150v50h-50v300zM50 500h50v-50h50v-50h-50v50h-50v50z" />
    <glyph glyph-name="Uacute" unicode="&#xda;" 
d="M0 350h50v-300h150v300h50v-300h-50v-50h-150v50h-50v300zM100 450h50v50h50v-50h-50v-50h-50v50z" />
    <glyph glyph-name="Ucircumflex" unicode="&#xdb;" 
d="M0 350h50v-300h150v300h50v-300h-50v-50h-150v50h-50v300zM0 450h50v50h50v-50h-50v-50h-50v50zM150 500h50v-50h50v-50h-50v50h-50v50z" />
    <glyph glyph-name="Udieresis" unicode="&#xdc;" 
d="M0 350h50v-300h150v300h50v-300h-50v-50h-150v50h-50v300zM50 450h50v-50h-50v50zM150 450h50v-50h-50v50z" />
    <glyph glyph-name="Yacute" unicode="&#xdd;" 
d="M0 350h50v-100h50v-50h50v50h50v100h50v-100h-50v-50h-50v-200h-50v200h-50v50h-50v100zM100 450h50v50h50v-50h-50v-50h-50v50z" />
    <glyph glyph-name="Thorn" unicode="&#xde;" 
d="M0 350h50v-50h150v-50h50v-150h-50v-50h-150v-50h-50v350zM50 100h150v150h-150v-150z" />
    <glyph glyph-name="germandbls" unicode="&#xdf;" 
d="M0 300h50v50h100v-50h50v-150h50v-100h-50v-50h-100v50h100v100h-150v-150h-50v300zM50 300v-100h100v99z" />
    <glyph glyph-name="agrave" unicode="&#xe0;" horiz-adv-x="250" 
d="M50 250h100v-50h50v-200h-150v50h-50v50h50v50h100v50h-100v50zM0 400h50v-50h50v-50h-50v50h-50v50zM50 50h100v50h-100v-50z" />
    <glyph glyph-name="aacute" unicode="&#xe1;" horiz-adv-x="250" 
d="M50 250h100v-50h50v-200h-150v50h-50v50h50v50h100v50h-100v50zM100 350h50v50h50v-50h-50v-50h-50v50zM50 100v-50h100v50h-100z" />
    <glyph glyph-name="acircumflex" unicode="&#xe2;" horiz-adv-x="250" 
d="M50 250h100v-50h50v-200h-150v50h-50v50h50v50h100v50h-100v50zM50 350h50v50h50v-50h50v-50h-50v50h-50v-50h-50v50zM50 50h100v50h-100v-50z" />
    <glyph glyph-name="atilde" unicode="&#xe3;" horiz-adv-x="250" 
d="M50 250h100v-50h50v-200h-150v50h-50v50h50v50h100v50h-100v50zM0 350h50v50h50v-50h50v50h50v-50h-50v-50h-50v50h-50v-50h-50v50zM50 50h100v50h-100v-50z" />
    <glyph glyph-name="adieresis" unicode="&#xe4;" horiz-adv-x="250" 
d="M50 250h100v-50h50v-200h-150v50h-50v50h50v50h100v50h-100v50zM50 100v-50h100v50h-100zM50 350h50v-50h-50v50zM150 350h50v-50h-50v50z" />
    <glyph glyph-name="aring" unicode="&#xe5;" horiz-adv-x="250" 
d="M50 250h100v-50h50v-200h-150v50h-50v50h50v50h100v50h-100v50zM50 400h50v50h50v-50h50v-50h-50v-50h-50v50h-50v50zM50 50h100v50h-100v-50zM100 350h50v50h-50v-50z" />
    <glyph glyph-name="ae" unicode="&#xe6;" horiz-adv-x="400" 
d="M50 250h100v-50h50v50h100v-50h50v-100h-150v-50h150v-50h-150v50h-50v-50h-100v50h-50v50h50v50h100v50h-100v50zM50 50h100v50h-100v-50zM200 150h100v50h-100v-50z" />
    <glyph glyph-name="ccedilla" unicode="&#xe7;" horiz-adv-x="250" 
d="M0 200h50v50h150v-50h-150v-150h150v-50h-50v-50h-50v-50h-100v50h100v50h-50v50h-50v150z" />
    <glyph glyph-name="egrave" unicode="&#xe8;" horiz-adv-x="250" 
d="M0 400h50v-50h50v-50h-50v50h-50v50zM0 200h50v50h100v-50h50v-100h-150v-50h150v-50h-150v50h-50v150zM50 150h100v50h-100v-50z" />
    <glyph glyph-name="eacute" unicode="&#xe9;" horiz-adv-x="250" 
d="M0 200h50v50h100v-50h50v-100h-150v-50h150v-50h-150v50h-50v150zM100 350h50v50h50v-50h-50v-50h-50v50zM50 150h100v50h-100v-50z" />
    <glyph glyph-name="ecircumflex" unicode="&#xea;" horiz-adv-x="250" 
d="M50 350h50v50h50v-50h50v-50h-50v50h-50v-50h-50v50zM0 200h50v50h100v-50h50v-100h-150v-50h150v-50h-150v50h-50v150zM50 150h100v50h-100v-50z" />
    <glyph glyph-name="edieresis" unicode="&#xeb;" horiz-adv-x="250" 
d="M0 200h50v50h100v-50h50v-100h-150v-50h150v-50h-150v50h-50v150zM50 150h100v50h-100v-50zM50 350h50v-50h-50v50zM150 350h50v-50h-50v50z" />
    <glyph glyph-name="igrave" unicode="&#xec;" horiz-adv-x="200" 
d="M0 250h100v-200h50v-50h-150v50h50v150h-50v50zM0 400h50v-50h50v-50h-50v50h-50v50z" />
    <glyph glyph-name="iacute" unicode="&#xed;" horiz-adv-x="200" 
d="M0 250h100v-200h50v-50h-150v50h50v150h-50v50zM50 350h50v50h50v-50h-50v-50h-50v50z" />
    <glyph glyph-name="icircumflex" unicode="&#xee;" horiz-adv-x="200" 
d="M0 250h100v-200h50v-50h-150v50h50v150h-50v50zM0 350h50v50h50v-50h50v-50h-50v50h-50v-50h-50v50z" />
    <glyph glyph-name="idieresis" unicode="&#xef;" horiz-adv-x="200" 
d="M0 250h100v-200h50v-50h-150v50h50v150h-50v50zM0 350h50v-50h-50v50zM100 350h50v-50h-50v50z" />
    <glyph glyph-name="eth" unicode="&#xf0;" horiz-adv-x="250" 
d="M100 350h50v-50h50v-250h-50v-50h-100v50h-50v150h50v50h100v50h-50v50zM50 50h100v150h-100v-150z" />
    <glyph glyph-name="ntilde" unicode="&#xf1;" horiz-adv-x="250" 
d="M0 250h150v-50h50v-200h-50v200h-100v-200h-50v250zM0 350h50v50h50v-50h50v50h50v-50h-50v-50h-50v50h-50v-50h-50v50z" />
    <glyph glyph-name="ograve" unicode="&#xf2;" horiz-adv-x="250" 
d="M0 200h50v50h100v-50h50v-150h-50v-50h-100v50h-50v150zM50 50h100v150h-100v-150zM0 400h50v-50h50v-50h-50v50h-50v50z" />
    <glyph glyph-name="oacute" unicode="&#xf3;" horiz-adv-x="250" 
d="M0 200h50v50h100v-50h50v-150h-50v-50h-100v50h-50v150zM50 50h100v150h-100v-150zM100 350h50v50h50v-50h-50v-50h-50v50z" />
    <glyph glyph-name="ocircumflex" unicode="&#xf4;" horiz-adv-x="250" 
d="M0 200h50v50h100v-50h50v-150h-50v-50h-100v50h-50v150zM50 50h100v150h-100v-150zM0 350h50v50h100v-50h50v-50h-50v50h-100v-50h-50v50z" />
    <glyph glyph-name="otilde" unicode="&#xf5;" horiz-adv-x="250" 
d="M0 200h50v50h100v-50h50v-150h-50v-50h-100v50h-50v150zM50 50h100v150h-100v-150zM0 350h50v50h50v-50h50v50h50v-50h-50v-50h-50v50h-50v-50h-50v50z" />
    <glyph glyph-name="odieresis" unicode="&#xf6;" horiz-adv-x="250" 
d="M0 200h50v50h100v-50h50v-150h-50v-50h-100v50h-50v150zM50 50h100v150h-100v-150zM150 350h50v-50h-50v50zM0 350h50v-50h-50v50z" />
    <glyph glyph-name="divide" unicode="&#xf7;" 
d="M0 200h250v-50h-250v50zM100 100h50v-50h-50v50zM100 300h50v-50h-50v50z" />
    <glyph glyph-name="oslash" unicode="&#xf8;" 
d="M0 200h50v50h150v-50h50v-150h-50v-50h-150v50h-50v150zM50 100h50v50h50v50h-100v-100zM100 100v-50h100v100h-50v-50h-50z" />
    <glyph glyph-name="ugrave" unicode="&#xf9;" horiz-adv-x="250" 
d="M0 250h50v-200h100v200h50v-200h-50v-50h-100v50h-50v200zM0 400h50v-50h50v-50h-50v50h-50v50z" />
    <glyph glyph-name="uacute" unicode="&#xfa;" horiz-adv-x="250" 
d="M0 250h50v-200h100v200h50v-200h-50v-50h-100v50h-50v200zM100 350h50v50h50v-50h-50v-50h-50v50z" />
    <glyph glyph-name="ucircumflex" unicode="&#xfb;" horiz-adv-x="250" 
d="M0 250h50v-200h100v200h50v-200h-50v-50h-100v50h-50v200zM0 350h50v50h100v-50h50v-50h-50v50h-100v-50h-50v50z" />
    <glyph glyph-name="udieresis" unicode="&#xfc;" horiz-adv-x="250" 
d="M0 250h50v-200h100v200h50v-200h-50v-50h-100v50h-50v200zM0 350h50v-50h-50v50zM150 350h50v-50h-50v50z" />
    <glyph glyph-name="yacute" unicode="&#xfd;" horiz-adv-x="250" 
d="M0 250h50v-200h100v200h50v-300h-50v-50h-100v50h100v50h-100v50h-50v200zM100 350h50v50h50v-50h-50v-50h-50v50z" />
    <glyph glyph-name="thorn" unicode="&#xfe;" horiz-adv-x="250" 
d="M0 350h50v-100h100v-50h50v-150h-50v-50h-100v-100h-50v450zM150 200h-100v-150h100v150z" />
    <glyph glyph-name="ydieresis" unicode="&#xff;" horiz-adv-x="250" 
d="M0 250h50v-200h100v200h50v-300h-50v-50h-100v50h100v50h-100v50h-50v200zM0 350h50v-50h-50v50zM150 350h50v-50h-50v50z" />
    <glyph glyph-name="OE" unicode="&#x152;" horiz-adv-x="400" 
d="M0 300h50v50h300v-50h-150v-100h100v-50h-100v-100h150v-50h-300v50h-50v250zM50 50h100v250h-100v-250z" />
    <glyph glyph-name="oe" unicode="&#x153;" horiz-adv-x="400" 
d="M0 200h50v50h100v-50h50v50h100v-50h50v-100h-150v-50h150v-50h-150v50h-50v-50h-100v50h-50v150zM50 50h100v150h-100v-150zM200 200v-50h100v49z" />
    <glyph glyph-name="Scaron" unicode="&#x160;" 
d="M0 300h50v50h200v-50h-200v-100h150v-50h50v-100h-50v-50h-200v50h200v100h-150v50h-50v100zM50 500h50v-50h50v50h50v-50h-50v-50h-50v50h-50v50z" />
    <glyph glyph-name="scaron" unicode="&#x161;" horiz-adv-x="250" 
d="M0 200h50v50h150v-50h-150v-50h100v-50h50v-50h-50v-50h-150v50h150v50h-100v50h-50v50zM50 400h50v-50h50v50h50v-50h-50v-50h-50v50h-50v50z" />
    <glyph glyph-name="Ydieresis" unicode="&#x178;" 
d="M0 350h50v-100h50v-50h50v50h50v100h50v-100h-50v-50h-50v-200h-50v200h-50v50h-50v100zM50 450h50v-50h-50v50zM150 450h50v-50h-50v50z" />
    <glyph glyph-name="Zcaron" unicode="&#x17d;" 
d="M0 350h250v-100h-50v-50h-50v-50h-50v-50h-50v-50h200v-50h-250v100h50v50h50v50h50v50h50v50h-200v50zM50 500h50v-50h50v50h50v-50h-50v-50h-50v50h-50v50z" />
    <glyph glyph-name="zcaron" unicode="&#x17e;" 
d="M0 250h200v-100h-50v-50h-100v-50h150v-50h-200v100h50v50h100v50h-150v50zM50 400h50v-50h50v50h50v-50h-50v-50h-50v50h-50v50z" />
    <glyph glyph-name="florin" unicode="&#x192;" horiz-adv-x="250" 
d="M0 250h50v50h50v50h100v-50h-100v-50h50v-50h-50v-250h-50v-50h-50v50h50v250h-50v50z" />
    <glyph glyph-name="circumflex" unicode="&#x2c6;" horiz-adv-x="200" 
d="M0 300h50v50h50v-50h50v-50h-50v50h-50v-50h-50v50z" />
    <glyph glyph-name="tilde" unicode="&#x2dc;" 
d="M0 300h50v50h50v-50h50v-50h50v100h50v-100h-50v-50h-50v50h-50v50h-50v-100h-50v100z" />
    <glyph glyph-name="afii10023" unicode="&#x401;" 
d="M0 350h250v-50h-200v-100h150v-50h-150v-100h200v-50h-250v350zM50 450h50v-50h-50v50zM150 450h50v-50h-50v50z" />
    <glyph glyph-name="afii10051" unicode="&#x402;" horiz-adv-x="350" 
d="M0 350h200v-50h-100v-50h150v-50h50v-150h-50v-50h-100v50h100v150h-150v-200h-50v300h-50v50z" />
    <glyph glyph-name="afii10052" unicode="&#x403;" 
d="M0 350h250v-50h-200v-300h-50v350zM100 450h50v50h50v-50h-50v-50h-50v50z" />
    <glyph glyph-name="afii10053" unicode="&#x404;" 
d="M0 300h50v50h150v-50h50v-50h-50v50h-150v-100h100v-50h-100v-100h150v50h50v-50h-50v-50h-150v50h-50v250z" />
    <glyph glyph-name="afii10054" unicode="&#x405;" 
d="M0 300h50v50h200v-50h-200v-100h150v-50h50v-100h-50v-50h-200v50h200v100h-150v50h-50v100z" />
    <glyph glyph-name="afii10055" unicode="&#x406;" 
d="M0 350h250v-50h-100v-250h100v-50h-250v50h100v250h-100v50z" />
    <glyph glyph-name="afii10056" unicode="&#x407;" 
d="M0 50h100v250h-100v50h250v-50h-100v-250h100v-50h-250v50zM150 450h50v-50h-50v50zM50 450h50v-50h-50v50z" />
    <glyph glyph-name="afii10057" unicode="&#x408;" 
d="M0 350h250v-300h-50v-50h-150v50h-50v100h50v-100h150v250h-150v-50h-50v100z" />
    <glyph glyph-name="afii10058" unicode="&#x409;" horiz-adv-x="400" 
d="M0 300h50v50h150v-150h100v-50h50v-100h-50v-50h-150v300h-100v-300h-50v300zM300 150h-100v-100h100v100z" />
    <glyph glyph-name="afii10059" unicode="&#x40a;" horiz-adv-x="400" 
d="M0 350h50v-150h100v150h50v-150h100v-50h50v-100h-50v-50h-150v150h-100v-150h-50v350zM200 50h100v100h-100v-100z" />
    <glyph glyph-name="afii10060" unicode="&#x40b;" horiz-adv-x="350" 
d="M0 350h200v-50h-100v-50h150v-50h50v-200h-50v200h-150v-200h-50v300h-50v50z" />
    <glyph glyph-name="afii10061" unicode="&#x40c;" 
d="M0 350h50v-150h100v50h50v100h50v-100h-50v-50h-50v-50h50v-50h50v-100h-50v100h-50v50h-100v-150h-50v350zM100 450h50v50h50v-50h-50v-50h-50v50z" />
    <glyph glyph-name="afii10062" unicode="&#x40e;" 
d="M0 350h50v-100h50v-50h50v50h50v100h50v-100h-50v-50h-50v-200h-50v200h-50v50h-50v100zM50 500h50v-50h50v50h50v-50h-50v-50h-50v50h-50v50z" />
    <glyph glyph-name="afii10145" unicode="&#x40f;" 
d="M0 350h50v-300h150v300h50v-350h-100v-100h-50v100h-100v350z" />
    <glyph glyph-name="afii10017" unicode="&#x410;" 
d="M0 300h50v50h150v-50h50v-300h-50v150h-150v-150h-50v300zM50 200h150v100h-150v-100z" />
    <glyph glyph-name="afii10018" unicode="&#x411;" 
d="M0 350h250v-50h-200v-100h150v-50h50v-100h-50v-50h-200v350zM50 50h150v100h-150v-100z" />
    <glyph glyph-name="afii10019" unicode="&#x412;" 
d="M0 350h200v-50h50v-100h-50v-50h50v-100h-50v-50h-200v350zM50 200h150v100h-150v-100zM50 50h150v100h-150v-100z" />
    <glyph glyph-name="afii10020" unicode="&#x413;" 
d="M0 350h250v-50h-200v-300h-50v350z" />
    <glyph glyph-name="afii10021" unicode="&#x414;" 
d="M0 50h50v250h50v50h100v-300h50v-100h-50v50h-150v-50h-50v100zM150 300h-50v-250h50v250z" />
    <glyph glyph-name="afii10022" unicode="&#x415;" 
d="M0 350h250v-50h-200v-100h150v-50h-150v-100h200v-50h-250v350z" />
    <glyph glyph-name="afii10024" unicode="&#x416;" 
d="M0 350h50v-150h50v150h50v-150h50v150h50v-150h-50v-50h50v-150h-50v150h-50v-150h-50v150h-50v-150h-50v150h50v50h-50v150z" />
    <glyph glyph-name="afii10025" unicode="&#x417;" 
d="M100 200h100v100h-150v-50h-50v50h50v50h150v-50h50v-100h-50v-50h50v-100h-50v-50h-150v50h-50v50h50v-50h150v100h-100v50z" />
    <glyph glyph-name="afii10026" unicode="&#x418;" 
d="M0 350h50v-200h50v50h50v50h50v100h50v-350h-50v200h-50v-50h-50v-50h-50v-100h-50v350z" />
    <glyph glyph-name="afii10027" unicode="&#x419;" 
d="M0 350h50v-200h50v50h50v50h50v100h50v-350h-50v200h-50v-50h-50v-50h-50v-100h-50v350zM50 500h50v-50h50v50h50v-50h-50v-50h-50v50h-50v50z" />
    <glyph glyph-name="afii10028" unicode="&#x41a;" 
d="M0 350h50v-150h100v50h50v100h50v-100h-50v-50h-50v-50h50v-50h50v-100h-50v100h-50v50h-100v-150h-50v350z" />
    <glyph glyph-name="afii10029" unicode="&#x41b;" 
d="M200 300h-100v-50h-50v-250h-50v250h50v50h50v50h150v-350h-50v300z" />
    <glyph glyph-name="afii10030" unicode="&#x41c;" 
d="M0 350h50v-100h50v-50h50v50h50v100h50v-350h-50v200h-50v-100h-50v100h-50v-200h-50v350z" />
    <glyph glyph-name="afii10031" unicode="&#x41d;" 
d="M0 350h50v-150h150v150h50v-350h-50v150h-150v-150h-50v350z" />
    <glyph glyph-name="afii10032" unicode="&#x41e;" 
d="M0 300h50v50h150v-50h50v-250h-50v-50h-150v50h-50v250zM50 50h150v250h-150v-250z" />
    <glyph glyph-name="afii10033" unicode="&#x41f;" 
d="M0 350h250v-350h-50v300h-150v-300h-50v350z" />
    <glyph glyph-name="afii10034" unicode="&#x420;" 
d="M0 350h200v-50h50v-100h-50v-50h-150v-150h-50v350zM50 300v-100h150v99z" />
    <glyph glyph-name="afii10035" unicode="&#x421;" 
d="M200 300h-150v-250h150v50h50v-50h-50v-50h-150v50h-50v250h50v50h150v-50h50v-50h-50v50z" />
    <glyph glyph-name="afii10036" unicode="&#x422;" 
d="M0 350h250v-50h-100v-300h-50v300h-100v50z" />
    <glyph glyph-name="afii10037" unicode="&#x423;" 
d="M0 350h50v-150h150v150h50v-300h-50v-50h-150v50h-50v50h50v-50h150v100h-150v50h-50v150z" />
    <glyph glyph-name="afii10038" unicode="&#x424;" 
d="M0 300h50v50h150v-50h50v-200h-50v-50h-50v-50h-50v50h-50v50h-50v200zM100 300h-50v-200h50v200zM150 100h50v200h-50v-200z" />
    <glyph glyph-name="afii10039" unicode="&#x425;" 
d="M0 350h50v-100h50v-50h50v50h50v100h50v-100h-50v-50h-50v-50h50v-50h50v-100h-50v100h-50v50h-50v-50h-50v-100h-50v100h50v50h50v50h-50v50h-50v100z" />
    <glyph glyph-name="afii10040" unicode="&#x426;" horiz-adv-x="350" 
d="M0 350h50v-300h150v300h50v-300h50v-100h-50v50h-250v350z" />
    <glyph glyph-name="afii10041" unicode="&#x427;" 
d="M0 350h50v-200h150v200h50v-350h-50v100h-150v50h-50v200z" />
    <glyph glyph-name="afii10042" unicode="&#x428;" 
d="M0 350h50v-300h50v300h50v-300h50v300h50v-350h-250v350z" />
    <glyph glyph-name="afii10043" unicode="&#x429;" horiz-adv-x="350" 
d="M0 350h50v-300h50v300h50v-300h50v300h50v-300h50v-100h-50v50h-250v350z" />
    <glyph glyph-name="afii10044" unicode="&#x42a;" horiz-adv-x="350" 
d="M0 350h100v-150h150v-50h50v-100h-50v-50h-200v300h-50v50zM100 50h150v100h-150v-100z" />
    <glyph glyph-name="afii10045" unicode="&#x42b;" horiz-adv-x="400" 
d="M0 350h50v-150h150v-50h50v-100h-50v-50h-200v350zM300 350h50v-350h-50v350zM200 150h-150v-100h150v100z" />
    <glyph glyph-name="afii10046" unicode="&#x42c;" 
d="M0 350h50v-150h150v-50h50v-100h-50v-50h-200v350zM50 50h150v100h-150v-100z" />
    <glyph glyph-name="afii10047" unicode="&#x42d;" 
d="M100 200h100v100h-150v-50h-50v50h50v50h150v-50h50v-250h-50v-50h-150v50h-50v50h50v-50h150v100h-100v50z" />
    <glyph glyph-name="afii10048" unicode="&#x42e;" horiz-adv-x="350" 
d="M0 350h50v-150h50v100h50v50h100v-50h50v-250h-50v-50h-100v50h-50v100h-50v-150h-50v350zM150 50h100v250h-100v-250z" />
    <glyph glyph-name="afii10049" unicode="&#x42f;" 
d="M0 300h50v50h200v-350h-50v150h-50v-50h-50v-50h-50v-50h-50v50h50v50h50v50h-50v50h-50v100zM50 200h150v100h-150v-100z" />
    <glyph glyph-name="afii10065" unicode="&#x430;" horiz-adv-x="250" 
d="M50 250h100v-50h50v-200h-150v50h-50v50h50v50h100v50h-100v50zM50 50h100v50h-100v-50z" />
    <glyph glyph-name="afii10066" unicode="&#x431;" horiz-adv-x="250" 
d="M0 300h50v50h100v50h50v-50h-50v-50h-100v-50h100v-50h50v-150h-50v-50h-100v50h-50v250zM50 50h100v150h-100v-150z" />
    <glyph glyph-name="afii10067" unicode="&#x432;" horiz-adv-x="250" 
d="M0 250h150v-50h50v-50h-50v-50h50v-50h-50v-50h-150v250zM50 200v-50h100v49zM50 50h100v50h-100v-50z" />
    <glyph glyph-name="afii10068" unicode="&#x433;" horiz-adv-x="250" 
d="M0 250h200v-50h-150v-200h-50v250z" />
    <glyph glyph-name="afii10069" unicode="&#x434;" 
d="M0 50h50v150h50v50h100v-200h50v-100h-50v50h-150v-50h-50v100zM150 200h-50v-150h50v150z" />
    <glyph glyph-name="afii10070" unicode="&#x435;" horiz-adv-x="250" 
d="M0 200h50v50h100v-50h50v-100h-150v-50h150v-50h-150v50h-50v150zM50 150h100v50h-100v-50z" />
    <glyph glyph-name="afii10072" unicode="&#x436;" 
d="M0 250h50v-100h50v100h50v-100h50v100h50v-100h-50v-50h50v-100h-50v100h-50v-100h-50v100h-50v-100h-50v100h50v50h-50v100z" />
    <glyph glyph-name="afii10073" unicode="&#x437;" horiz-adv-x="250" 
d="M50 150h100v50h-150v50h150v-50h50v-50h-50v-50h50v-50h-50v-50h-150v50h150v50h-100v50z" />
    <glyph glyph-name="afii10074" unicode="&#x438;" horiz-adv-x="250" 
d="M0 250h50v-150h50v50h50v100h50v-250h-50v100h-50v-50h-50v-50h-50v250z" />
    <glyph glyph-name="afii10075" unicode="&#x439;" horiz-adv-x="250" 
d="M0 250h50v-150h50v50h50v100h50v-250h-50v100h-50v-50h-50v-50h-50v250zM50 350h100v-50h-100v50z" />
    <glyph glyph-name="afii10076" unicode="&#x43a;" horiz-adv-x="250" 
d="M0 250h50v-100h50v50h50v50h50v-50h-50v-50h-50v-50h50v-50h50v-50h-50v50h-50v50h-50v-100h-50v250z" />
    <glyph glyph-name="afii10077" unicode="&#x43b;" horiz-adv-x="250" 
d="M0 150h50v50h50v50h100v-250h-50v200h-50v-50h-50v-150h-50v150z" />
    <glyph glyph-name="afii10078" unicode="&#x43c;" 
d="M0 250h50v-50h50v-50h50v50h50v50h50v-250h-50v150h-50v-50h-50v50h-50v-150h-50v250z" />
    <glyph glyph-name="afii10079" unicode="&#x43d;" horiz-adv-x="250" 
d="M0 250h50v-100h100v100h50v-250h-50v100h-100v-100h-50v250z" />
    <glyph glyph-name="afii10080" unicode="&#x43e;" horiz-adv-x="250" 
d="M0 200h50v50h100v-50h50v-150h-50v-50h-100v50h-50v150zM50 50h100v150h-100v-150z" />
    <glyph glyph-name="afii10081" unicode="&#x43f;" horiz-adv-x="250" 
d="M0 250h200v-250h-50v200h-100v-200h-50v250z" />
    <glyph glyph-name="afii10082" unicode="&#x440;" horiz-adv-x="250" 
d="M0 250h150v-50h50v-150h-50v-50h-100v-100h-50v350zM150 200h-100v-150h100v150z" />
    <glyph glyph-name="afii10083" unicode="&#x441;" horiz-adv-x="250" 
d="M0 200h50v50h150v-50h-150v-150h150v-50h-150v50h-50v150z" />
    <glyph glyph-name="afii10084" unicode="&#x442;" 
d="M0 250h250v-50h-100v-200h-50v200h-100v50z" />
    <glyph glyph-name="afii10085" unicode="&#x443;" horiz-adv-x="250" 
d="M0 250h50v-200h100v200h50v-300h-50v-50h-100v50h100v50h-100v50h-50v200z" />
    <glyph glyph-name="afii10086" unicode="&#x444;" 
d="M0 200h50v50h50v50h50v-50h50v-50h50v-150h-50v-50h-50v-50h-50v50h-50v50h-50v150zM200 200h-50v-150h50v150zM50 50h50v150h-50v-150z" />
    <glyph glyph-name="afii10087" unicode="&#x445;" horiz-adv-x="251" 
d="M0 250h50v-100h100v100h50v-100h-50v-50h50v-100h-50v100h-100v-100h-50v100h50v50h-50v100z" />
    <glyph glyph-name="afii10088" unicode="&#x446;" 
d="M0 250h50v-200h100v200h50v-200h50v-100h-50v50h-200v250z" />
    <glyph glyph-name="afii10089" unicode="&#x447;" horiz-adv-x="250" 
d="M0 250h50v-100h100v100h50v-250h-50v100h-100v50h-50v100z" />
    <glyph glyph-name="afii10090" unicode="&#x448;" 
d="M0 250h50v-200h50v200h50v-200h50v200h50v-250h-250v250z" />
    <glyph glyph-name="afii10091" unicode="&#x449;" horiz-adv-x="350" 
d="M0 250h50v-200h50v200h50v-200h50v200h50v-200h50v-100h-50v50h-250v250z" />
    <glyph glyph-name="afii10092" unicode="&#x44a;" 
d="M0 250h100v-100h100v-50h50v-50h-50v-50h-150v200h-50v50zM100 100v-50h100v49z" />
    <glyph glyph-name="afii10093" unicode="&#x44b;" horiz-adv-x="350" 
d="M0 250h50v-100h100v-50h50v-50h-50v-50h-150v250zM250 250h50v-250h-50v250zM50 50h100v50h-100v-50z" />
    <glyph glyph-name="afii10094" unicode="&#x44c;" horiz-adv-x="250" 
d="M0 250h50v-100h100v-50h50v-50h-50v-50h-150v250zM50 50h100v50h-100v-50z" />
    <glyph glyph-name="afii10095" unicode="&#x44d;" horiz-adv-x="250" 
d="M50 150h100v50h-150v50h150v-50h50v-150h-50v-50h-150v50h150v50h-100v50z" />
    <glyph glyph-name="afii10096" unicode="&#x44e;" horiz-adv-x="350" 
d="M0 250h50v-100h50v50h50v50h100v-50h50v-150h-50v-50h-100v50h-50v50h-50v-100h-50v250zM150 200v-150h100v149z" />
    <glyph glyph-name="afii10097" unicode="&#x44f;" horiz-adv-x="250" 
d="M0 200h50v50h150v-250h-50v100h-50v-50h-50v-50h-50v50h50v100h-50v50zM50 200v-50h100v50h-100z" />
    <glyph glyph-name="afii10071" unicode="&#x451;" horiz-adv-x="250" 
d="M0 200h50v50h100v-50h50v-100h-150v-50h150v-50h-150v50h-50v150zM50 150h100v50h-100v-50zM50 350h50v-50h-50v50zM150 350h50v-50h-50v50z" />
    <glyph glyph-name="afii10099" unicode="&#x452;" 
d="M0 300h50v50h50v-50h100v-50h-100v-50h100v-50h50v-200h-50v-50h-100v50h100v200h-100v-150h-50v250h-50v50z" />
    <glyph glyph-name="afii10100" unicode="&#x453;" horiz-adv-x="250" 
d="M0 250h200v-50h-150v-200h-50v250zM100 350h50v50h50v-50h-50v-50h-50v50z" />
    <glyph glyph-name="afii10101" unicode="&#x454;" horiz-adv-x="250" 
d="M0 200h50v50h150v-50h-150v-50h100v-50h-100v-50h150v-50h-150v50h-50v150z" />
    <glyph glyph-name="afii10102" unicode="&#x455;" horiz-adv-x="250" 
d="M0 200h50v50h150v-50h-150v-50h100v-50h50v-50h-50v-50h-150v50h150v50h-100v50h-50v50z" />
    <glyph glyph-name="afii10103" unicode="&#x456;" horiz-adv-x="200" 
d="M0 250h100v-200h50v-50h-150v50h50v150h-50v50zM50 350h50v-50h-50v50z" />
    <glyph glyph-name="afii10104" unicode="&#x457;" horiz-adv-x="200" 
d="M0 250h100v-200h50v-50h-150v50h50v150h-50v50zM0 350h50v-50h-50v50zM100 350h50v-50h-50v50z" />
    <glyph glyph-name="afii10105" unicode="&#x458;" horiz-adv-x="200" 
d="M0 -50h100v250h-100v50h150v-300h-50v-50h-100v50zM50 350h50v-50h-50v50z" />
    <glyph glyph-name="afii10106" unicode="&#x459;" horiz-adv-x="400" 
d="M0 200h50v50h150v-100h100v-50h50v-50h-50v-50h-150v200h-100v-200h-50v200zM200 100v-50h100v49z" />
    <glyph glyph-name="afii10107" unicode="&#x45a;" horiz-adv-x="400" 
d="M0 250h50v-100h100v100h50v-100h100v-50h50v-50h-50v-50h-150v100h-100v-100h-50v250zM200 50h100v50h-100v-50z" />
    <glyph glyph-name="afii10108" unicode="&#x45b;" 
d="M0 300h50v50h50v-50h100v-50h-100v-50h100v-50h50v-150h-50v150h-100v-150h-50v250h-50v50z" />
    <glyph glyph-name="afii10109" unicode="&#x45c;" horiz-adv-x="250" 
d="M0 250h50v-100h50v50h50v50h50v-50h-50v-50h-50v-50h50v-50h50v-50h-50v50h-50v50h-50v-100h-50v250zM100 350h50v50h50v-50h-50v-50h-50v50z" />
    <glyph glyph-name="afii10110" unicode="&#x45e;" horiz-adv-x="250" 
d="M0 250h50v-200h100v200h50v-300h-50v-50h-100v50h100v50h-100v50h-50v200zM50 350h100v-50h-100v50z" />
    <glyph glyph-name="afii10193" unicode="&#x45f;" 
d="M0 250h50v-200h150v200h50v-250h-100v-100h-50v100h-100v250z" />
    <glyph glyph-name="afii10050" unicode="&#x490;" 
d="M0 350h200v50h50v-100h-200v-300h-50v350z" />
    <glyph glyph-name="afii10098" unicode="&#x491;" horiz-adv-x="250" 
d="M0 250h150v50h50v-100h-150v-200h-50v250z" />
    <glyph glyph-name="endash" unicode="&#x2013;" 
d="M0 200h250v-50h-250v50z" />
    <glyph glyph-name="emdash" unicode="&#x2014;" horiz-adv-x="350" 
d="M0 200h300v-50h-300v50z" />
    <glyph glyph-name="quoteleft" unicode="&#x2018;" horiz-adv-x="150" 
d="M0 450h50v50h50v-50h-50v-100h50v-50h-100v150z" />
    <glyph glyph-name="quoteright" unicode="&#x2019;" horiz-adv-x="150" 
d="M0 350h100v-150h-50v-50h-50v50h50v100h-50v50z" />
    <glyph glyph-name="quotesinglbase" unicode="&#x201a;" horiz-adv-x="150" 
d="M0 100h100v-150h-50v-50h-50v50h50v100h-50v50z" />
    <glyph glyph-name="quotedblleft" unicode="&#x201c;" 
d="M0 450h50v50h50v-50h-50v-100h50v-50h-100v150zM150 450h50v50h50v-50h-50v-100h50v-50h-100v150z" />
    <glyph glyph-name="quotedblright" unicode="&#x201d;" 
d="M0 350h100v-150h-50v-50h-50v50h50v100h-50v50zM150 350h100v-150h-50v-50h-50v50h50v100h-50v50z" />
    <glyph glyph-name="quotedblbase" unicode="&#x201e;" 
d="M0 100h100v-150h-50v-50h-50v50h50v100h-50v50zM150 100h100v-150h-50v-50h-50v50h50v100h-50v50z" />
    <glyph glyph-name="dagger" unicode="&#x2020;" 
d="M0 250h100v100h50v-100h100v-50h-100v-200h-50v200h-100v50z" />
    <glyph glyph-name="daggerdbl" unicode="&#x2021;" 
d="M0 250h100v100h50v-100h100v-50h-100v-50h100v-50h-100v-100h-50v100h-100v50h100v50h-100v50z" />
    <glyph glyph-name="bullet" unicode="&#x2022;" horiz-adv-x="150" 
d="M0 250h100v-100h-100v100z" />
    <glyph glyph-name="ellipsis" unicode="&#x2026;" 
d="M0 50h50v-50h-50v50zM200 50h50v-50h-50v50zM100 50h50v-50h-50v50z" />
    <glyph glyph-name="perthousand" unicode="&#x2030;" horiz-adv-x="400" 
d="M0 50h50v50h50v50h50v50h50v50h50v50h50v-50h-50v-50h-50v-50h-50v-50h-50v-50h-50v-50h-50v50zM200 100h50v-100h-50v100zM300 100h50v-100h-50v100zM0 300h50v-100h-50v100z" />
    <glyph glyph-name="guilsinglleft" unicode="&#x2039;" horiz-adv-x="200" 
d="M0 200h50v50h50v50h50v-50h-50v-50h-50v-50h50v-50h50v-50h-50v50h-50v50h-50v50z" />
    <glyph glyph-name="guilsinglright" unicode="&#x203a;" horiz-adv-x="200" 
d="M0 300h50v-50h50v-50h50v-50h-50v-50h-50v-50h-50v50h50v50h50v50h-50v50h-50v50z" />
    <glyph glyph-name="Euro" unicode="&#x20ac;" 
d="M0 250h50v50h50v50h150v-50h-150v-50h100v-50h-100v-50h100v-50h-100v-50h150v-50h-150v50h-50v50h-50v50h50v50h-50v50z" />
    <glyph glyph-name="afii61352" unicode="&#x2116;" horiz-adv-x="400" 
d="M0 350h50v-100h50v-50h50v-50h50v200h50v-350h-50v100h-50v50h-50v50h-50v-200h-50v350zM300 350h50v-100h-50v100zM300 200h50v-50h-50v50z" />
    <glyph glyph-name="trademark" unicode="&#x2122;" horiz-adv-x="450" 
d="M0 300h200v-50h50v-50h50v50h50v50h50v-200h-50v100h-50v-50h-50v50h-50v-100h-50v150h-50v-150h-50v150h-50v50z" />
    <glyph glyph-name=".null" horiz-adv-x="0" 
 />
    <glyph glyph-name="nonmarkingreturn" 
 />
  </font>
</defs>
</svg>
