<svg id="Layer_1" xmlns="http://www.w3.org/2000/svg" viewBox="0 0 310 155" width="310" height="155"><style>.st0{fill:#231f20}</style><path class="st0" d="M20.9 78.7v2.1h-2.1v-2.1h2.1zm0-2.1v2.1h2v2.1h-2v2.1H23v-2.1h2v-2.1h-2v-2.1h-2.1zM12 89.1v2.1h2.1v-2.1H12zm6.2 2.1v-2.1h-2.1v2.1h-2v2.1h2v2h2.1v-2.1h-2v-2h2zM14 93.3h-2.1v2.1H14v-2.1zm.1-24.1h2v2.1h2.1v-2.1h-2v-2h2v-2.1h-2.1v2h-2v-2H12v2.1h2.1v2zm-.1.1h-2.1v2.1H14v-2.1zm117.4 8.3v2.1h-2v2.1h2v2h2.1v-2h2.1v-2.1h-2.1v2h-2v-2h2v-2.1h-2.1zm11-6.2v-2.1h-2.1v2.1h2.1zm-6.2-2.1v2.1h2.1v-2.1h2v-2.1h-2v-2.1h-2.1v2.1h2v2.1h-2zm4.2-2.1h2.1v-2.1h-2.1v2.1zm2 28.2v-2.1h-2.1v2.1h2.1zm-6.2-2.1v2.1h2.1v-2.1h2v-2.1h-2v-2.1h-2.1v2.1h2v2.1h-2zm4.2-2.1h2.1v-2.1h-2.1v2.1zM6.7 143h28.9v-1.4H6.7v1.4zm112.6 0h28.9v-1.4h-28.9v1.4zM45.8 21.8h.8v-5.6h-.8v2.4h-2.4v-2.4h-.8v5.6h.8v-2.4h2.4v2.4zm6-5.6h-2.4v.8h2.4v-.8zm-2.4 3.2h2.4v2.4h.8V17h-.8v1.6h-2.4V17h-.8v4.8h.8v-2.4zm5.2-3.2v5.6h.8v-2.4h2.4v-.8h-2.4V17h2.4v-.8h-3.2zm4 2.4V17h-.8v1.6h.8zm2-2.4v5.6h.8v-2.4h2.4v-.8h-2.4V17h2.4v-.8h-3.2zm4 2.4V17h-.8v1.6h.8zm5.2-.8H69v.8h.8v-.8zm-.8 4v-3.2h-.8v3.2h.8zm-.8-3.2v-.8h-.8v.8h.8zm2.4-2.4h-.8v1.6h.8v-1.6zm-4 0v1.6h.8v-1.6h-.8zm16 .8v-.8h-4v5.6h4V21h-3.2v-1.6h2.4v-.8h-2.4V17h3.2zm2.8 1.6V17h-.8v4.8h.8v-2.4h2.4v2.4h.8V17h-.8v1.6h-2.4zm0-2.4v.8h2.4v-.8h-2.4zm8.4 3.2v-.8h-2.4v.8h2.4zM90.6 17v1.6h.8V17h-.8zm4-.8h-3.2v.8h3.2v-.8zm-4 5.6h3.2V21h-3.2v.8zm4-.8v-1.6h-.8V21h.8zm4.4-4h1.6v-.8h-4v.8h1.6v4.8h.8V17zm7.6 0v-.8h-4v5.6h4V21h-3.2v-1.6h2.4v-.8h-2.4V17h3.2zm5.2 4v-.8h-.8v.8h.8zm.8-2.4V17h-.8v1.6h.8zm-4-2.4v5.6h.8v-2.4h.8v.8h.8v-.8h.8v-.8h-2.4V17h2.4v-.8h-3.2zm4 5.6V21h-.8v.8h.8zm29.5 107.6l-2.9 2.8-2.8-2.8-2.9 2.8-2.9-2.8-2.8 2.8-2.9-2.8-3.9 3.8 1 1 2.9-2.8 2.9 2.8 2.8-2.8 2.9 2.8 2.9-2.8 2.8 2.8 2.9-2.8 2.9 2.8 1-1-3.9-3.8zm-2.9 7.4l-2.8-2.8-2.9 2.8-2.9-2.8-2.8 2.8-2.9-2.8-3.9 3.8 1 1 2.9-2.8 2.9 2.8 2.8-2.8 2.9 2.8 2.9-2.8 2.8 2.8 2.9-2.8 2.9 2.8 1-1-3.9-3.8-2.9 2.8zm-126.9-5.4l1.8 1.8 1 1 2.9-2.8 2.9 2.8 2.8-2.8 2.9 2.8 2.9-2.8 2.9 2.8 1-1-3.9-3.8-2.9 2.8-2.9-2.8-2.8 2.8-2.9-2.8-2.9 2.8-2.8-2.8-3.9 3.8 1 1 2.9-2.8zm0 4.6l2.8 2.8L18 136l2.9 2.8 2.8-2.8 2.9 2.8 2.9-2.8 2.9 2.8 1-1-3.9-3.8-2.9 2.8-2.9-2.8-2.8 2.8L18 134l-2.9 2.8-2.8-2.8-3.9 3.8 1 1 2.9-2.8zm98.3-48.6c0 6.3-4 11.7-9.6 13.8 0 0 .1 0 .1.1.1.2.2.4.1.6l-6.1 19.6c-.1.3-.3.5-.6.5H59.2c-.3 0-.6-.2-.7-.5l-6.1-19.6c-.1-.2 0-.4.1-.6 0-.1.1-.1.1-.1-5.2-2.3-8.8-7.5-8.8-13.6 0-8.2 6.6-14.8 14.8-14.8 1.7 0 3.3.3 4.9.8.8-4.2 3.3-7.8 6.9-10v-.4h1.3v5.4h-1.3v-3.5c-3.1 2.2-5.2 5.6-5.7 9.4 0 .2-.2.4-.3.5-.2.1-.4.1-.6 0-1.6-.7-3.4-1-5.1-1-7.4 0-13.4 6-13.4 13.4s6 13.4 13.4 13.4H96.6c7.1-.4 12.6-6.3 12.6-13.4 0-7.4-6-13.4-13.4-13.4-1.2 0-2.3.2-3.5.5-.2.1-.4 0-.6-.1-.2-.1-.3-.3-.3-.5-.5-3.3-2.3-6.3-4.9-8.3v3h-1.3v-5.4h1.3v1.3c.2-.2.6-.2.9 0 2.7 2.1 4.5 5.1 5.2 8.5 1.1-.2 2.1-.4 3.2-.4 8.2 0 14.8 6.6 14.8 14.8zm-48.3 33.2l-4.4-18.2H54l5.7 18.2h2.6zm4.5 0l-2.9-18.2h-4.6l4.4 18.2h3.1zm4.7 0L70 102.4h-4.6l2.9 18.2h3.2zm4.6-18.2h-4.8l1.6 18.2h3.3v-18.2zm4.5 18.2l1.6-18.2h-4.6v18.2h3zm4.6 0l2.9-18.2h-4.6l-1.6 18.2h3.3zm4.5 0l4.4-18.2h-4.6l-2.9 18.2h3.1zm9.9-18.2h-4.1l-4.4 18.2H94l5.6-18.2zM81.1 57.9h-1.3v-5.4h-1.3v5.4h-2.7v1.3h5.3v-1.3zm-5.3 5.3h1.3v-1.3h-2.6v2.6h1.3v-1.3zm-2.3-4h-.4v1.3h-1.3v2.7h1.3v-2.7h2.7v-1.3h-2.3zm7.6-9.4h-1.3v2.6h1.3v-2.6zm2.7-1.4h-2.6v1.3h2.6v-1.3zm0 10.8h-2.6v1.3h2.6v-1.3zm1.4 1.7v-.4h-1.3v2.7h1.3v-2.3zm-4.1 13v-1.3h-5.3v1.3h5.3zm-6.7-2.6h-1.3v-2.7h-1.3v2.7h1.3v1.3h2.7v-1.3h-1.4zm9.5-1.3v1.3h1.3v-2.7h-1.3V70zm-2.7 1.3v1.3h2.6v-1.3h-2.6zm-22 7.9v-1.3h-4v1.3h4zm-4 4.1h1.3V82h-2.6v2.6h1.3v-1.3zm-4-2.3v2.3h1.3v-2.7h-1.3v.4zm3.6-.4h.4v-1.3h-2.7v1.3h2.3zm-5 6.7h1.3v-4h-1.3v4zm49.5 8.6h-2.6v1.3h2.6v-1.3zm4-1.7v-2.3H102v2.7h1.3v-.4zm-1.7 1.7h.4v-1.3h-2.7v1.3h2.3zm3.1-5.3v-1.4h-1.3v2.7h1.3v-1.3zM47.2 7.7H31v1.4h16.2V7.7zm46.1 0h-44v1.4h44V7.7zm39.1 0h-18.1v1.4h18.1V7.7zm-21 0h-16v1.4h16V7.7zm27.1 3.6h-13.3v1.4h12.4l-1.1 1.8h-8.3v1.4h7.4l-1.2 1.9h-4.9v1.4h4.8l1.4 2.2h-7.6v1.4h8.4l1.1 1.8H125V26h13.4l1.3 2h-39.3v1.4H141l.6-1.1-6.1-9.7 6.1-9.8-.6-1.1h-6v1.4h4.7l-1.2 2.2zM91 29.4h7.8V28H91v1.4zM89.4 28H43.8v1.4h45.6V28zm-72-2h13.7v-1.4H18.3l1.2-1.8h8.6v-1.4h-7.7l1.4-2.2h4.8v-1.4h-4.8l-1.2-1.9h7.5v-1.4h-8.5l-1.2-1.8H31v-1.4H17.5l-1.4-2.2h11.1V7.7H14.8l-.6 1.1 6.3 9.7-6.3 9.8.6 1.1h26.5V28H16.1l1.3-2zm53.8 121.3h1.4v-1.4h-1.4v1.4zm2.8 0h1.4v-1.4H74v1.4zm2.8 0h1.4v-1.4h-1.4v1.4zm-11.3 0h1.4v-1.4h-1.4v1.4zm31.2 0h1.4v-1.4h-1.4v1.4zm-28.4 0h1.4v-1.4h-1.4v1.4zm25.5 0h1.4v-1.4h-1.4v1.4zm-2.8 0h1.4v-1.4H91v1.4zm-8.5 0h1.4v-1.4h-1.4v1.4zm5.7 0h1.4v-1.4h-1.4v1.4zm-2.9 0h1.4v-1.4h-1.4v1.4zm-5.6 0h1.4v-1.4h-1.4v1.4zm-17 0h1.4v-1.4h-1.4v1.4zm-11.4 0h1.4v-1.4h-1.4v1.4zm5.7 0h1.4v-1.4H57v1.4zm-2.8 0h1.4v-1.4h-1.4v1.4zm5.6 0h1.4v-1.4h-1.4v1.4zm39.7 0h1.4v-1.4h-1.4v1.4zM86 139.9l-2.9-2.8-2.9 2.8-2.8-2.8-2.9 2.8-2.9-2.8-2.8 2.8-2.9-2.8-1 1 3.9 3.9 2.8-2.9 2.9 2.9 2.9-2.9 2.8 2.9 2.9-2.9L86 142l3.9-3.9-1-1-2.9 2.8zm87.8-61.2v2.1h2.1v-2.1h-2.1zm2.1-2.1v2.1h2v2.1h-2v2.1h2.1v-2.1h2v-2.1h-2v-2.1h-2.1zM167 89.1v2.1h2.1v-2.1H167zm6.2 2.1v-2.1h-2.1v2.1h-2v2.1h2v2h2.1v-2.1h-2v-2h2zm-4.2 2.1h-2.1v2.1h2.1v-2.1zm.1-24.1h2v2.1h2.1v-2.1h-2v-2h2v-2.1h-2.1v2h-2v-2H167v2.1h2.1v2zm-.1.1h-2.1v2.1h2.1v-2.1zm117.4 8.3v2.1h-2v2.1h2v2h2.1v-2h2.1v-2.1h-2.1v2h-2v-2h2v-2.1h-2.1zm4.8-8.3v2.1h2.1v-2.1h2v2.1h2.1v-2.1h-2.1v-2.1h-2v-2.1h-2.1v2.1h2v2.1h-2zm4.2-2.1h2.1v-2.1h-2.1v2.1zm-4.2 26.1v2.1h2.1v-2.1h2v2.1h2.1v-2.1h-2.1v-2.1h-2v-2.1h-2.1v2.1h2v2.1h-2zm4.2-2.1h2.1v-2.1h-2.1v2.1zM161.7 143h28.9v-1.4h-28.9v1.4zm112.6-1.4v1.4h28.9v-1.4h-28.9zM200.8 21.8h.8v-5.6h-.8v2.4h-2.4v-2.4h-.8v5.6h.8v-2.4h2.4v2.4zm6-5.6h-2.4v.8h2.4v-.8zm-2.4 3.2h2.4v2.4h.8V17h-.8v1.6h-2.4V17h-.8v4.8h.8v-2.4zm5.2-3.2v5.6h.8v-2.4h2.4v-.8h-2.4V17h2.4v-.8h-3.2zm4 2.4V17h-.8v1.6h.8zm2-2.4v5.6h.8v-2.4h2.4v-.8h-2.4V17h2.4v-.8h-3.2zm4 2.4V17h-.8v1.6h.8zm3.6 0v-.8h-.8v.8h.8zm-1.6-2.4v1.6h.8v-1.6h-.8zm3.2 1.6h-.8v.8h.8v-.8zm-.8 4v-3.2h-.8v3.2h.8zm1.6-5.6h-.8v1.6h.8v-1.6zm12 .8v-.8h-4v5.6h4V21h-3.2v-1.6h2.4v-.8h-2.4V17h3.2zm2.8-.8v.8h2.4v-.8h-2.4zm0 2.4V17h-.8v4.8h.8v-2.4h2.4v2.4h.8V17h-.8v1.6h-2.4zm6-1.6h3.2v-.8h-3.2v.8zm-.8 1.6h.8V17h-.8v1.6zm0 3.2h3.2V21h-3.2v.8zm3.2-2.4v-.8h-2.4v.8h2.4zm.8 1.6v-1.6h-.8V21h.8zm4.4-4h1.6v-.8h-4v.8h1.6v4.8h.8V17zm7.6 0v-.8h-4v5.6h4V21h-3.2v-1.6h2.4v-.8h-2.4V17h3.2zm5.2-.8v.8h.8v1.6h-.8v.8h-.8v.8h-.8v-.8h-.8v2.4h-.8v-5.6h3.2zm0 .8h-2.4v1.6h2.4V17zm0 4v-.8h-.8v.8h.8zm.8.8V21h-.8v.8h.8zm29.5 107.6l-2.9 2.8-2.8-2.8-2.9 2.8-2.9-2.8-2.8 2.8-2.9-2.8-3.9 3.8 1 1 2.9-2.8 2.9 2.8 2.8-2.8 2.9 2.8 2.9-2.8 2.8 2.8 2.9-2.8 2.9 2.8 1-1-3.9-3.8zm-2.9 7.4l-2.8-2.8-2.9 2.8-2.9-2.8-2.8 2.8-2.9-2.8-3.9 3.8 1 1 2.9-2.8 2.9 2.8 2.8-2.8 2.9 2.8 2.9-2.8 2.8 2.8 2.9-2.8 2.9 2.8 1-1-3.9-3.8-2.9 2.8zm-126.9-5.4l2.8 2.8 2.9-2.8 2.9 2.8 2.8-2.8 2.9 2.8 2.9-2.8 2.9 2.8 1-1-3.9-3.8-2.9 2.8-2.9-2.8-2.8 2.8-2.9-2.8-2.9 2.8-2.8-2.8-3.9 3.8 1 1 2.9-2.8zm0 4.6l2.8 2.8 2.9-2.8 2.9 2.8 2.8-2.8 2.9 2.8 2.9-2.8 2.9 2.8 1-1-3.9-3.8-2.9 2.8-2.9-2.8-2.8 2.8-2.9-2.8-2.9 2.8-2.8-2.8-3.9 3.8 1 1 2.9-2.8zm88.7-34.8c0 .1.1.1 0 0 .2.3.3.5.2.7l-6.1 19.6c-.1.3-.3.5-.6.5h-35.3c-.3 0-.6-.2-.7-.5l-6.1-19.6c-.1-.2 0-.4.1-.6 0-.1.1-.1.1-.1-5.2-2.3-8.8-7.5-8.8-13.6 0-8.2 6.6-14.8 14.8-14.8 1.7 0 3.3.3 4.9.8.8-4.2 3.3-7.8 6.9-10v-.4h1.3v5.4h-1.3v-3.5c-3.1 2.2-5.2 5.6-5.7 9.4 0 .2-.2.4-.3.5-.2.1-.4.1-.6 0-1.6-.7-3.4-1-5.1-1-7.4 0-13.4 6-13.4 13.4s6 13.4 13.4 13.4H251.6c7.1-.4 12.6-6.3 12.6-13.4 0-7.4-6-13.4-13.4-13.4-1.2 0-2.3.2-3.5.5-.2.1-.4 0-.6-.1-.2-.1-.3-.3-.3-.5-.5-3.3-2.3-6.3-4.9-8.3v3h-1.3v-5.4h1.3v1.3c.2-.2.6-.2.9 0 2.7 2.1 4.5 5.1 5.2 8.5 1.1-.2 2.1-.4 3.2-.4 8.2 0 14.8 6.6 14.8 14.8 0 6.3-4 11.7-9.6 13.8zm-38.7 19.4l-4.4-18.2H209l5.7 18.2h2.6zm4.5 0l-2.9-18.2h-4.6l4.4 18.2h3.1zm4.7 0l-1.6-18.2h-4.6l2.9 18.2h3.3zm4.6-18.2h-4.8l1.6 18.2h3.3v-18.2zm6 0h-4.6v18.2h3.1l1.5-18.2zm6 0h-4.6l-1.6 18.2h3.3l2.9-18.2zm6 0h-4.6l-2.9 18.2h3.1l4.4-18.2zm5.5 0h-4.1l-4.4 18.2h2.9l5.6-18.2zm-18.5-43.2v-1.3h-1.3v-5.4h-1.3v5.4h-2.7v1.3h5.3zm-6.6 2.7v2.6h1.3v-1.3h1.3v-1.3h-2.6zm-2.7 1.3h1.3v-2.7h-1.3v2.7zm1.3-4v1.3h2.7v-1.3h-2.7zm5.4-9.4h-1.3v2.6h1.3v-2.6zm-1.4-.1v-1.3h-2.6v1.3h2.6zm6.7 9.5h-2.6v1.3h2.6v-1.3zm1.4 1.3h-1.3v2.7h1.3v-2.7zm-4.1 13.4v-1.3h-5.3v1.3h5.3zm-5.3-1.3v-1.3h-2.7v1.3h2.7zm8.1-2.6v1.3h1.3v-2.7h-1.3V70zm-.1 2.6v-1.3h-2.6v1.3h2.6zm-10.7-4h-1.3v2.7h1.3v-2.7zm-13.9 10.6v-1.3h-4v1.3h4zm-4 4.1h1.3V82h-2.6v2.6h1.3v-1.3zm-4 0h1.3v-2.7h-1.3v2.7zm4-4h-2.7v1.3h2.7v-1.3zm-5.4 8h1.3v-4h-1.3v4zm49.5 8.6h-2.6v1.3h2.6v-1.3zm4-4H257v2.7h1.3v-2.7zm-1.3 4v-1.3h-2.7v1.3h2.7zm2.7-6.7h-1.3v2.7h1.3v-2.7zM202.2 7.7H186v1.4h16.2V7.7zm46.1 0h-44v1.4h44V7.7zm39.1 0h-18.1v1.4h18.1V7.7zm-21 0h-16v1.4h16V7.7zm27.1 3.6h-13.3v1.4h12.4l-1.1 1.8h-8.3v1.4h7.4l-1.2 1.9h-4.9v1.4h4.8l1.4 2.2h-7.6v1.4h8.4l1.1 1.8H280V26h13.4l1.3 2h-39.3v1.4H296l.6-1.1-6.1-9.7 6.1-9.8-.6-1.1h-6v1.4h4.7l-1.2 2.2zM246 29.4h7.8V28H246v1.4zm-1.6-1.4h-45.6v1.4h45.6V28zm-72-2h13.7v-1.4h-12.8l1.2-1.8h8.6v-1.4h-7.7l1.4-2.2h4.8v-1.4h-4.8l-1.2-1.9h7.5v-1.4h-8.5l-1.2-1.8H186v-1.4h-13.6L171 9.1h11.1V7.7h-12.4l-.6 1.1 6.3 9.7-6.3 9.8.6 1.1h26.5V28H171l1.4-2zM212 147.3h1.4v-1.4H212v1.4zm-2.8 0h1.4v-1.4h-1.4v1.4zm-2.9 0h1.4v-1.4h-1.4v1.4zm34 0h1.4v-1.4h-1.4v1.4zm2.9 0h1.4v-1.4h-1.4v1.4zm-8.5 0h1.4v-1.4h-1.4v1.4zm11.3 0h1.4v-1.4H246v1.4zm-8.5 0h1.4v-1.4h-1.4v1.4zm17 0h1.4v-1.4h-1.4v1.4zm-2.8 0h1.4v-1.4h-1.4v1.4zm-2.9 0h1.4v-1.4h-1.4v1.4zm-34 0h1.4v-1.4h-1.4v1.4zm11.4 0h1.4v-1.4h-1.4v1.4zm-2.9 0h1.4v-1.4h-1.4v1.4zm-5.6 0h1.4v-1.4h-1.4v1.4zm11.3 0h1.4v-1.4H229v1.4zm-8.5 0h1.4v-1.4h-1.4v1.4zm11.3 0h1.4v-1.4h-1.4v1.4zm9.2-7.4l-2.9-2.8-2.9 2.8-2.8-2.8-2.9 2.8-2.9-2.8-2.8 2.8-2.9-2.8-1 1 3.9 3.9 2.8-2.9 2.9 2.9 2.9-2.9 2.8 2.9 2.9-2.9 2.9 2.9 3.9-3.9-1-1-2.9 2.8zM204.8 59v1.2h3.6V59h-3.6zm7 0v1.2h3.6V59h-3.6zm-2.3 5.9h1.2v-3.6h-1.2v3.6zm1.2-10.6h-1.2v3.6h1.2v-3.6zm47.8-1.4v1.2h2.3v-1.2h-2.3zm5.9 1.2h2.4v-1.2h-2.4v1.2zm-2.4 3.6h1.2v-2.4H262v2.4zm1.2-8.4H262v2.4h1.2v-2.4zm-.1 56.5v1.2h3.6v3.5h1.2v-3.6h-1.2v-1.1h-3.6zm4.9 0v1.2h3.6v-1.2H268zm-1.3 0h1.2v-3.6h-1.2v3.6zm-74.9 2.3v1.2h3.6v-1.2h-3.6zm7 0v1.2h3.6v-1.2h-3.6zm-2.3 5.8h1.2v-3.5h-1.2v3.5zm0-6.9h1.2v-3.6h-1.2v3.6zM221 88.8V90h6v-1.2h-6zm15.4 1.2v-1.2h-6.1V90h6.1zm-8.3 7.1h1.2v-6h-1.2v6zm1.2-15.3h-1.2v5.9h1.2v-5.9z"/></svg>