<svg id="Layer_1" xmlns="http://www.w3.org/2000/svg" viewBox="0 0 310 155"><style>.st0{fill:#231f20}</style><path class="st0" d="M142.2 79.4h2.1v2.1h-2.1v2h-2.1v-2H138v-2.1h2.1v2h2.1v-2zm0-2.1h-2.1v2.1h2.1v-2.1zm-11 11.6V91h2.1v-2.1h-2.1zm6.2 2.1v-2.1h-2.1V91h-2v2.1h2v2.1h2.1v-2.1h-2V91h2zm-6.3 4.2h2.1v-2.1h-2.1v2.1zm.1-30.3V67h2.1v-2.1h-2.1zm6.2 2.1v-2.1h-2.1V67h-2v2.1h2v2.1h2.1v-2.1h-2V67h2zm-4.2 2.1h-2.1v2.1h2.1v-2.1zM12.9 78.7h2v-2.1h-2.1v2.1h-2v2.1h2v2.1h2.1v-2.1h-2v-2.1zm2 2.1H17v-2.1h-2.1v2.1zM17.6 65v2.1h2.1V65h-2.1zm0 4.1v2.1h2.1v-2h2v2h2.1v-2.1h-2v-2h-2.1v2h-2.1zm6.3-4.2h-2.1V67h2.1v-2.1zm-.1 30.3v-2.1h-2v-2h-2.1v2h-2.1v2.1h2.1v-2h2v2h2.1zM17.6 89v2.1h2.1V89h-2.1zm6.3-.1h-2.1V91h2.1v-2.1zm5.3 49.1h1.4v-1.4h-1.4v1.4zm-9 0h1.4v-1.4h-1.4v1.4zm6 0h1.4v-1.4h-1.4v1.4zm6 0h1.4v-1.4h-1.4v1.4zm-14.9 0h1.4v-1.4h-1.4v1.4zm5.9 0h1.4v-1.4h-1.4v1.4zm114.1 0h1.4v-1.4h-1.4v1.4zm2.8 0h1.4v-1.4h-1.4v1.4zm-11.3 0h1.4v-1.4h-1.4v1.4zm5.7 0h1.4v-1.4h-1.4v1.4zm-8.5 0h1.4v-1.4H126v1.4zm-2.9 0h1.4v-1.4h-1.4v1.4zm-2.8 0h1.4v-1.4h-1.4v1.4zm11.3 0h1.4v-1.4h-1.4v1.4zM60.7 22.6h3.2v-.8h-3.2v.8zm.8-3.2v.8h2.4v-.8h-2.4zm3.2-2.4h-3.2v.8h3.2V17zm0 4.8v-1.6h-.8v1.6h.8zm-4-4v1.6h.8v-1.6h-.8zm6-.8v5.6h.8v-2.4h2.4v2.4h.8V17h-.8v2.4h-2.4V17h-.8zm6.8 2.4v-1.6h-.8v4.8h.8v-2.4h2.4v2.4h.8v-4.8h-.8v1.6h-2.4zm0-2.4v.8h2.4V17h-2.4zm9.2 2.4v-1.6h-.8v1.6h.8zm-4-2.4v5.6h.8v-2.4h.8v.8h.8v-.8h.8v-.8h-2.4v-1.6h2.4V17h-3.2zm4 5.6v-.8h-.8v.8h.8zm-.8-.8V21h-.8v.8h.8zm6.8-4V17h-4v5.6h4v-.8h-3.2v-1.6h2.4v-.8h-2.4v-1.6h3.2zm6-.8h-3.2v.8h3.2V17zm-3.2 2.4v.8h2.4v-.8h-2.4zm-.8-1.6v1.6h.8v-1.6h-.8zm0 4.8h3.2v-.8h-3.2v.8zm4-.8v-1.6h-.8v1.6h.8zM58.2 136.9H60v-1.8h-1.8v1.8h-1.8v1.8h1.8v-1.8zm1.8-1.8h1.8v5.4h-5.4v-1.8h-1.8v3.6h7.2v3.6h1.8v-12.6H60v1.8zm12.6 3.6h-1.8v1.8h1.8v-1.8zm-3.6 7.2h5.4v-1.8H69v1.8zm1.8-3.6v-1.8H69v-5.4h-1.8v9H69v-1.8h1.8zm3.6-9H69v1.8h5.4v-1.8zm0 3.6h-1.8v1.8h1.8v5.4h1.8v-9h-1.8v1.8zm9 5.4v-1.8h-1.8v-5.4h-1.8v9h1.8v-1.8h1.8zm-1.8 3.6H87v-1.8h-5.4v1.8zm3.6-7.2h-1.8v1.8h1.8v-1.8zm-3.6-5.4v1.8H87v-1.8h-5.4zm5.4 3.6h-1.8v1.8H87v5.4h1.8v-9H87v1.8zm10.8 1.8h1.8v-1.8h-1.8v1.8zm-3.6-5.4h-1.8v12.6h1.8v-5.4h3.6v-1.8h-3.6v-5.4zm5.4 3.6h1.8v-3.6h-1.8v3.6zm1.8 9v-3.6h-1.8v3.6h1.8zm-1.8-3.6v-1.8h-1.8v1.8h1.8zM112 78.6c0 19.3-15.7 34.9-34.9 34.9S42.2 97.8 42.2 78.6s15.7-34.9 34.9-34.9S112 59.4 112 78.6zm-1.4.1c0-18.5-15.1-33.5-33.5-33.5-18.5 0-33.5 15-33.5 33.5s15 33.5 33.5 33.5 33.5-15 33.5-33.5zm5.3.6h1.4v-1.6h-1.4v1.6zM40 67.1l-1.4-.4-.4 1.4 1.4.4.4-1.4zm3.6-10.7l-.8 1.2 1.2.7.8-1.1-1.2-.8zm-5.1 17.5l.2-1.4-1.4-.2-.2 1.4c1.5.2 0 0 1.4.2zm4.4 25.9l.4.6.4.6 1.2-.8-.8-1.2-1.2.8zm-2.7-5l.3.6.3.7 1.3-.6-.6-1.3-1.3.6zm6 9.7l.5.5c.5.6 0 0 .4.6l1.1-.9-.9-1.1-1.1.9zM42 61.9l-1.3-.6-.3.7-.3.6 1.3.6.6-1.3zM38.3 78h-1.4v1.4h1.4V78zm1.4 10.9l-1.4.4.2.7.2.7 1.4-.4-.2-.7-.2-.7zm75.8-4.7l-.1.7 1.4.2.1-.7.1-.7-1.4-.2-.1.7zm-76.8 0l-.1-.7-1.4.2.1.7.1.7 1.4-.2-.1-.7zm27.7-44.3l-.7.2-.7.2c.4 1.3 0 0 .4 1.4l1.4-.4-.4-1.4zm11.2-1.5h-1.4v1.4h1.4v-1.4zm-5.7.3l-1.4.2.2 1.4 1.4-.2-.2-1.4zm11.5.2l-1.4-.2-.2 1.4.7.1.7.1.2-1.4zm32.2 34.8l1.4-.2-.1-.7-.1-.7-1.4.2.1.7.1.7zM55.8 44.4l-.6.4-.6.4.8 1.2 1.2-.8-.8-1.2zm4.3-.7l1.3-.6-.6-1.3-.6.3-.6.3c.6 1.3 0 0 .5 1.3zm-9.2 6.1l1.1-.9-.9-1.1-.5.5-.5.5c1 1 0 0 .8 1zm-3.8 2l-.9 1.1c1 .9 0 0 1.1.9l.9-1.1-1.1-.9zm41.5-10.2l.4-1.4-1.4-.4-.4 1.4.7.2c.7.1 0 0 .7.2zm-38.3 67l.5.5c.5.4 0 0 .6.4l.9-1.1-1.1-.9-.9 1.1zm62.3-45.5l1.3-.6-.6-1.3-1.3.6.3.6c.3.6 0 0 .3.7zM94.3 42.3l-1.3-.6-.6 1.3.7.3.6.3.6-1.3zm17.8 53.1l1.3.6.6-1.3-1.3-.6-.6 1.3zm2-28.5l.2.7c.2.6 0 0 .2.7l1.4-.4-.4-1.4-1.4.4zm0 23.3l1.4.4.2-.7.2-.7-1.4-.4-.4 1.4zm-2.9-32.9l-.8-1.2-1.2.8.4.6.4.6 1.2-.8zM99.3 45.1l-.6-.4-.6-.4-.8 1.2.6.4.6.4.8-1.2zm4.5 3.5l-.5-.5-.5-.5-.9 1.1.5.5.5.5.9-1.1zm4.1 4.1l-.5-.5-.5-.5-1.1.9.5.5.5.5 1.1-.9zm-2 51.9l1.1.9.9-1.1-1.1-.9-.9 1.1zm-12 9l-1.3.6.6 1.3 1.3-.6-.6-1.3zm5.6-1.5l-.8-1.2-1.2.8c.7 1.1 0 0 .8 1.2l1.2-.8zm2.5-3.7c.9 1.1 0 0 1 1.2l.5-.5.5-.5-.9-1.1-1.1.9zm-14.6 7.7c.4 1.3 0 0 .4 1.4l.7-.2.7-.2-.4-1.4-1.4.4zm21.9-15.9l1.2.8.4-.6.4-.6-1.2-.8-.8 1.2zm-48.2 15.3l.6-1.3-1.3-.6-.6 1.3.6.3.7.3zm4 1.5l.7.2.7.2.4-1.4-1.4-.4-.4 1.4zm18.4 1.3l-.2-1.4-1.4.2.2 1.4.7-.1.7-.1zm-11.2-1.1l-1.4-.2-.2 1.4.7.1.7.1.2-1.4zm4.1 1.7h1.4v-1.4h-1.4v1.4zm-19.6-7.2l-1.2-.8-.8 1.2.6.4.6.4.8-1.2zm81.1 16.3l-1-1-2.8 2.8-2.9-2.8-2.9 2.9-2.9-2.9-1 1 3.8 3.9.1-.1 2.8-2.9 2.8 2.9.1.1 3.9-3.9zm-109.6 1.8l-2.9-2.8-2.8 2.9-2.9-2.9-1 1 3.9 3.9 2.8-2.9 2.8 2.8.1.1 3.8-3.9-1-1-2.8 2.8zM41.2 10.5h76.1V9.1H41.2v1.4zm93.3 4.7H123v1.4h11.5v-1.4zm0 7H123v1.4h11.5v-1.4zm7.4-3.4h-17.4v1.4h17.4v-1.4zM22.6 16.6h11.5v-1.4H22.6v1.4zm0 7h11.5v-1.4H22.6v1.4zm10.1-4.8H15.3v1.4h17.4v-1.4zm8.5 10.3h76.1v-1.4H41.2v1.4zm36.2 46v-1.6h-3.2v1.6h3.2zm14.8-13.2h-1.6v1.6h1.6v-1.6zm-3.3 3.3h1.6v-1.6h-1.6v1.6zm3.3 26.3h-1.6v1.6h1.6v-1.6zm-1.7 1.7h-1.6v1.6h1.6v-1.6zM74.1 75.1h-1.6v1.6h1.6v-1.6zm-1.6 3.3v-1.6h-1.6V80h1.6v-1.6zm0-8.2v1.6h8.2v-1.6h-8.2zm0 16.4v1.6h8.2v-1.6h-8.2zm-3.3-11.5h-1.6v3.3h-5v-1.7H61v4.9h1.6V80h5v3.3h1.6v-8.2zm0-.1h1.6v-1.6h-1.6V75zm1.7-1.6h1.6v-1.6h-1.6v1.6zm1.6 11.5h-1.6v1.6h1.6v-1.6zm-3.3 0h1.6v-1.6h-1.6v1.6zm16.4-9.8H84v8.2h1.6v-8.2zm3.3-16.5v1.6h4.9v-1.6h-4.9zm6.6 8.2h1.6v-4.9h-1.6v4.9zm-1.6-6.5v1.6h1.6v-1.6h-1.6zm-5 0h-1.6v1.6h1.6v-1.6zm0 8.2v-1.6h-1.6v-5h-1.6v6.6H84v1.7h-1.6v1.6h-1.7v1.6h1.7V75H84v-3.2h1.6v-1.7h8.2v-1.6h-4.9zm6.6-1.6h-1.6v1.6h1.6v-1.6zm-37.8 9.8h-1.6v1.6h1.6v-1.6zM54.4 80H56v-1.6h-1.6V80zm0-6.6V75h4.9v-1.6h-4.9zm-3.3 8.2h1.6v-4.9h-1.6v4.9zm8.3-6.5v1.6H61v-1.6h-1.6zm-5 0h-1.6v1.6h1.6v-1.6zm0 8.2v1.6h4.9v-1.6h-4.9zm-1.6-1.6v1.6h1.6v-1.6h-1.6zm6.6 1.6H61v-1.6h-1.6v1.6zm26.2 4.9v-1.6H84v-3.3h-1.6v1.6h-1.7v1.6h1.7v1.7H84v1.6h1.7v6.6h1.6v-4.9h1.6v-1.7h4.9v-1.6h-8.2zm9.9 8.2h1.6v-4.9h-1.6v4.9zm-1.6-6.5v1.6h1.6v-1.6h-1.6zm-5 8.2v1.6h4.9v-1.6h-4.9zm0-.1v-1.6h-1.6V98h1.6zm5 0h1.6v-1.6h-1.6V98zm203.3-18.6v2h-2.1v-2H293v2.1h2.1v2h2.1v-2h2.1v-2.1h-2.1zm0-2.1h-2.1v2.1h2.1v-2.1zM292.4 91v-2.1h-2.1V91h-2v-2.1h-2.1V91h2.1v2.1h2v2.1h2.1v-2.1h-2V91h2zm-6.3 4.2h2.1v-2.1h-2.1v2.1zm6.3-28.2v-2.1h-2.1V67h-2v-2.1h-2.1V67h2.1v2.1h2v2.1h2.1v-2.1h-2V67h2zm-4.2 2.1h-2.1v2.1h2.1v-2.1zm-120.3 9.6h2v-2.1h-2.1v2.1h-2v2.1h2v2.1h2.1v-2.1h-2v-2.1zm2 2.1h2.1v-2.1h-2.1v2.1zm2.7-15.8v2.1h2.1V65h-2.1zm0 4.1v2.1h2.1v-2h2v2h2.1v-2.1h-2v-2h-2.1v2h-2.1zm6.3-4.2h-2.1V67h2.1v-2.1zm-.1 30.3v-2.1h-2v-2h-2.1v2h-2.1v2.1h2.1v-2h2v2h2.1zm-6.2-6.2v2.1h2.1V89h-2.1zm6.3-.1h-2.1V91h2.1v-2.1zm-6.6 49.1h1.4v-1.4h-1.4v1.4zm5.9 0h1.4v-1.4h-1.4v1.4zm3 0h1.4v-1.4h-1.4v1.4zm-6 0h1.4v-1.4h-1.4v1.4zm12 0h1.4v-1.4h-1.4v1.4zm-3 0h1.4v-1.4h-1.4v1.4zm99.6 0h1.4v-1.4h-1.4v1.4zm-2.8 0h1.4v-1.4H281v1.4zm-2.9 0h1.4v-1.4h-1.4v1.4zm8.5 0h1.4v-1.4h-1.4v1.4zm-11.3 0h1.4v-1.4h-1.4v1.4zm14.2 0h1.4v-1.4h-1.4v1.4zm5.6 0h1.4v-1.4h-1.4v1.4zm-2.8 0h1.4v-1.4h-1.4v1.4zM218.9 20.2v-.8h-2.4v.8h2.4zm.8 1.6v-1.6h-.8v1.6h.8zm-4 .8h3.2v-.8h-3.2v.8zm4-5.6h-3.2v.8h3.2V17zm-4 .8v1.6h.8v-1.6h-.8zm10 4.8V17h-.8v2.4h-2.4V17h-.8v5.6h.8v-2.4h2.4v2.4h.8zm6 0v-4.8h-.8v1.6h-2.4v-1.6h-.8v4.8h.8v-2.4h2.4v2.4h.8zm-.8-5.6h-2.4v.8h2.4V17zm6.8 5.6v-.8h-.8v.8h.8zm0-3.2v-1.6h-.8v1.6h.8zm-.8.8v-.8h-2.4v-1.6h2.4V17h-3.2v5.6h.8v-2.4h.8v.8h.8v-.8h.8zm0 1.6V21h-.8v.8h.8zm6.8-4V17h-4v5.6h4v-.8h-3.2v-1.6h2.4v-.8h-2.4v-1.6h3.2zm6 4v-1.6h-.8v1.6h.8zm0-4.8h-3.2v.8h3.2V17zm-.8 3.2v-.8h-2.4v.8h2.4zm-3.2-2.4v1.6h.8v-1.6h-.8zm0 4.8h3.2v-.8h-3.2v.8zM215 135.1h1.8v5.4h-5.4v-1.8h-1.8v3.6h7.2v3.6h1.8v-12.6H215v1.8zm-1.8 1.8h1.8v-1.8h-1.8v1.8h-1.8v1.8h1.8v-1.8zm14.4 1.8h-1.8v1.8h1.8v-1.8zm-3.6 7.2h5.4v-1.8H224v1.8zm5.4-12.6H224v1.8h5.4v-1.8zm0 3.6h-1.8v1.8h1.8v5.4h1.8v-9h-1.8v1.8zm-3.6 5.4v-1.8H224v-5.4h-1.8v9h1.8v-1.8h1.8zm16.2-9h-5.4v1.8h5.4v-1.8zm0 3.6h-1.8v1.8h1.8v5.4h1.8v-9H242v1.8zm-5.4 9h5.4v-1.8h-5.4v1.8zm0-10.8h-1.8v9h1.8v-1.8h1.8v-1.8h-1.8v-5.4zm1.8 5.4h1.8v-1.8h-1.8v1.8zm16.2 5.4h1.8v-3.6h-1.8v3.6zm-1.8-5.4v1.8h1.8v-1.8h-1.8zm1.8-3.6h-1.8v1.8h1.8v-1.8zm-5.4 1.8v-5.4h-1.8v12.6h1.8v-5.4h3.6v-1.8h-3.6zm5.4-1.8h1.8v-3.6h-1.8v3.6zM267 78.6c0 19.3-15.7 34.9-34.9 34.9s-34.9-15.7-34.9-34.9 15.7-34.9 34.9-34.9S267 59.4 267 78.6zm-1.4.1c0-18.5-15.1-33.5-33.5-33.5-18.5 0-33.5 15-33.5 33.5s15 33.5 33.5 33.5 33.5-15 33.5-33.5zm-71.3 8.2l-.2-.7-1.4.3.1.7c.1.7 0 0 .2.7l1.4-.3-.1-.7zm-.9-6.2l-1.4.1v.7c0 .7 0 0 .1.7l1.4-.1-.1-1.4zm2.1 10.8l-1.3.5.2.7.2.7 1.3-.5-.2-.7-.2-.7zm72.7 1.4l1.3.5.5-1.3-1.3-.5-.5 1.3zm-73.8-28.3l-.3.7c1.3.5 0 0 1.3.4l.5-1.3-1.3-.5-.2.7zm77.8 11.2l-.1-.9-1.4.1.1 1.6c1.5-.1 0 0 1.4-.1v-.7zm-9.5 26.7c1.1.9 0 0 1.2.8l.8-1.1-1.1-.8-.9 1.1zm3.1-43.1l.3.6c.3.6 0 0 .4.6l1.2-.7-.7-1.2-1.2.7zm-6.8 47.2l1 1 .5-.5.5-.5-1-1-1 1zm6.8-8.7c1.2.7 0 0 1.3.6l.3-.6.3-.6-1.2-.7-.7 1.3zm-31-58l.7.1.1-1.4-1.4-.1-.1 1.4h.7zm-6.4-1.3l.1 1.4 1.4-.1-.1-1.4h-.7l-.7.1zm17.8 3.9l.5-1.3-1.3-.5-.5 1.3.7.2c.7.3 0 0 .6.3zm-51.9 27.2l-1.4-.3-.3 1.4 1.4.3.3-1.4zM259 50.6l.5.5.5.5 1-1-.5-.5-.5-.5-1 1zm-4.3-3.5l.6.4c.5.5 0 0 .6.4l.8-1.1-.6-.4-.6-.4-.8 1.1zm-14.4-6.4l.7.1.3-1.4-1.4-.3-.3 1.4.7.2zm30.5 40.8l-.1.7 1.4.1.1-.7.1-.7-1.4-.1-.1.7zm-7.7-26.2c.4.6 0 0 .5.5l1.1-.9-.9-1.1-1.1.9.4.6zm6.7 32.3c1.4.3 0 0 1.3.3l.2-.7.2-.7-1.4-.3-.3 1.4zm-1.6-23.3l.2.7c.3.7 0 0 .3.6l1.3-.5-.5-1.3-1.3.5zm2 6.7l1.4-.3-.1-.7-.2-.7-1.4.3.1.7c.1.7 0 0 .2.7zM250 44.2l.6.3c.6.4 0 0 .6.3l.7-1.2-.6-.3-.6-.3-.7 1.2zm-42.6 66.2l.6.4c.5.4 0 0 .6.5l.8-1.1-1.1-.9-.9 1.1zm-4.3-3.8l.5.5.5.5 1-1-1-1-1 1zm-6.6-9.3l.3.6c.3.6 0 0 .4.6l1.2-.7-.7-1.2-1.2.7zm3 4.8l.4.6c.4.6 0 0 .5.5l1.1-.9-.9-1.1-1.1.9zm17.8 14l.7.2c.7.3 0 0 .6.3l.5-1.3-1.3-.5-.5 1.3zm18.3 2.6l-.1-1.4-1.4.1.1 1.4h.7l.7-.1zm-5.6-1.3l-1.4-.1-.1 1.4.7.1h.7l.1-1.4zm-5.8.6l.3-1.4-1.4-.3-.3 1.4.7.2c.7.2 0 0 .7.1zm-26.6-57.3l.7-1.2-1.2-.7-.7 1.2c1.3.7 0 0 1.2.7zm19.7-19.5c.5 1.3 0 0 .6 1.4l1.3-.5-.5-1.3-.7.2-.7.2zm-5.2 2.5c.7 1.2 0 0 .7 1.3l1.2-.7-.7-1.2-.6.3-.6.3zm11-2.8l1.4-.3-.3-1.4-1.4.3.3 1.4zM200.5 56l.8-1.1-1.1-.9-.8 1.1c1.2.9 0 0 1.1.9zm39.4 62l.7-.1.7-.1-.3-1.4-1.4.3c.3 1.4 0 0 .3 1.3zm-32.5-71.1c.8 1.1 0 0 1 1.2l1.1-.9-.9-1.1-.6.4-.6.4zm-4.3 3.8l1 1 1-1-1-1-.5.5-.5.5zm11 62.4l-1.2-.7-.7 1.2.6.3.6.4.7-1.2zm40.6-2.9c.9 1.1 0 0 .8 1.1l1.1-.9-.8-1.1-1.1.9zm-9.8 5.1c.5 1.3 0 0 .4 1.2l.7-.2.7-.2-.5-1.3-1.3.5zm-51.5-40.1l-1.4-.1-.1 1.4 1.4.1.1-1.4zm57.8 37.2l-1.2.7.7 1.2 1.2-.7-.7-1.2zm41.7 15.6l-1-1-2.8 2.8-2.9-2.8-2.9 2.9-2.9-2.9-1 1 3.8 3.9.1-.1 2.8-2.9 2.8 2.9.1.1 3.9-3.9zm-109.6 1.8l-2.9-2.8-2.8 2.9-2.9-2.9-1 1 3.9 3.9 2.8-2.9 2.9 2.9 3.8-3.9-1-1-2.8 2.8zm89-120.7h-76.1v1.4h76.1V9.1zm17.2 6.1H278v1.4h11.5v-1.4zm0 7H278v1.4h11.5v-1.4zm7.4-3.4h-17.4v1.4h17.4v-1.4zm-119.3-2.2h11.5v-1.4h-11.5v1.4zm0 7h11.5v-1.4h-11.5v1.4zm10.1-4.8h-17.4v1.4h17.4v-1.4zm84.6 8.9h-76.1v1.4h76.1v-1.4zm-43.1 45.8v1.6h3.2v-1.6h-3.2zm13.1-6.7h1.6v-1.6h-1.6v1.6zm0 .1h-1.6v1.6h1.6v-1.6zm3.3 24.6h1.6v-1.6h-1.6v1.6zm-1.7 1.6h1.6v-1.6h-1.6v1.6zm-16.4-16.4h1.6v-1.6h-1.6v1.6zm0 .1h-1.6V80h1.6v-3.2zm0 9.8v4.9h-1.6v1.6h3.2v-3.3h1.7v-1.6h4.9v-1.6h-8.2zm-3.3-4.9v-6.6h-1.6V80h-3.3v1.7H216v4.8h1.6v-3.2h3.3v-1.7h1.7v1.7h1.6v-1.6zm0-6.7h1.6v-1.6h-1.6V75zm1.7 11.5h1.6v-1.6h-1.6v1.6zm-1.7-1.6h1.6v-1.6h-1.6v1.6zm16.4-9.8H239v8.2h1.6v-8.2zm-3.2-1.7V75h1.6v-1.6h6.5v-1.6h-4.9v-1.6H239v1.6h-3.3v1.6h1.7zm4.8 14.8v-1.6h-1.6V85H239v-1.7h-1.6v1.6h-1.7v1.6h3.3v1.7h1.7v6.6h1.6v-5h1.6v-1.6h-1.7zm1.7-24.7h1.6v-1.6h-4.8v1.6h3.2zm-4.9 1.7h-1.6v4.9h1.6v-4.9zm8.2 1.7v3.2h1.6v-4.9h-1.6v1.7zm-1.6-3.3v1.6h1.6v-1.6h-1.6zm-5 0H239v1.6h1.6v-1.6zm6.6 6.6h-1.6v1.6h1.6v-1.6zm-34.5 11.5h-1.6v1.6h1.6v-1.6zm-3.3 1.6v1.6h1.6v-1.6h-1.6zm2.6-4.9h-2.6V80h4.9v-1.6H212zm-5.9 8.1h1.6v-4.8h-1.6v4.8zM216 80h-1.6v1.6h1.6V80zm-8.2 1.6h1.6V80h-1.6v1.6zm4.2 6.6h-2.6v1.6h4.9v-1.6H212zm-4.2-1.6v1.6h1.6v-1.6h-1.6zm6.6 1.6h1.6v-1.6h-1.6v1.6zm29.5-1.6v1.6h4.9v-1.6h-4.9zm6.6 8.2h1.6v-4.9h-1.6v4.9zm0-6.6h-1.6v1.6h1.6v-1.6zm-5.9 9.8h4.2v-1.6h-4.9V98h.7zm-.7-1.6v-1.6h-1.6v1.6h1.6zm5 0h1.6v-1.6h-1.6v1.6zm-21.4-1.6h-1.6v1.6h1.6v-1.6zm3.3 3.2h1.6v-3.2h-1.6V98zm-8.2 0h1.6v-3.2h-1.6V98zm6.6-4.8v1.6h1.6v-1.6h-1.6zm-5 1.6h1.6v-1.6h-1.6v1.6zm1.7 4.9v1.6h3.2v-1.6h-3.2zm-1.7 0h1.6v-1.6h-1.6v1.6zm5 0h1.6v-1.6h-1.6v1.6zm-3.3-26.3h1.6v-1.6h8.2v-1.6h-9.9v-1.7h-1.6v-4.9h-1.6v3.3h-3.3v1.6h3.3v1.6h1.6v1.7h1.7v1.6zm-3.4-9.8V62h-3.2v1.6h3.2zm-3.2 0h-1.6v3.2h1.6v-3.2z"/></svg>