<svg id="Layer_1" xmlns="http://www.w3.org/2000/svg" viewBox="0 0 310 155"><style>.st0{fill:#231f20}</style><path class="st0" d="M137.1 98.7v-1.4h1.4v1.4h-1.4zm-2.8 0v-1.4h1.4v1.4h-1.4zm-2.8 0v-1.4h1.4v1.4h-1.4zm-2.8 0v-1.4h1.4v1.4h-1.4zm-2.8 0v-1.4h1.4v1.4h-1.4zm-1.3-7.2h15.2v1.4h-15.2v-1.4zm-100 7.2v-1.4H26v1.4h-1.4zm-2.8 0v-1.4h1.4v1.4h-1.4zm-2.8 0v-1.4h1.4v1.4H19zm-2.9 0v-1.4h1.4v1.4h-1.4zm-2.8 0v-1.4h1.4v1.4h-1.4zM12 91.5h15.2v1.4H12v-1.4zm35-73.8h3.2v.8h.8v1.6h-.8v.8h-2.4v2.4H47v-5.6zm.8.8v1.6h2.4v-1.6h-2.4zm5.2 0h.8v-.8h2.4v.8h.8v4.8h-.8v-2.4h-2.4v2.4H53v-4.8zm.8 1.6h2.4v-1.6h-2.4v1.6zm5.2-1.6h.8v-.8h2.4v.8h.8v.8h-.8v-.8h-2.4v4h2.4v-.8h-.8v-.8H63v1.6h-.8v.8h-2.4v-.8H59v-4zm6-.8h4v.8h-3.2v1.6h2.4v.8h-2.4v1.6H69v.8h-4v-5.6zm12 0h.8v4.8H81v.8h-4v-5.6zm6 0h4v.8h-1.6v4H87v.8h-4v-.8h1.6v-4H83v-.8zm6 0h.8v2.4h1.6v-.8h.8v-1.6h.8v1.6h-.8v.8h-.8v.8h.8v.8h.8v1.6h-.8v-1.6h-.8v-.8h-1.6v2.4H89v-5.6zm6 0h4v.8h-3.2v1.6h2.4v.8h-2.4v1.6H99v.8h-4v-5.6zm6 .8h.8v-.8h3.2v.8h-3.2v1.6h2.4v.8h.8v1.6h-.8v.8H101v-.8h3.2v-1.6h-2.4v-.8h-.8v-1.6zm31.6 30.3h2.1v2.1h-2.1v-2.1zm0 4.2h2.1v2.1h-2.1V53zm2-2.1h2.1V53h-2.1v-2.1zm-4.1 0h2.1V53h-2.1v-2.1zm-114-2.1h2.1v2.1h-2.1v-2.1zm0 4.2h2.1v2.1h-2.1V53zm-2-2.1h2.1V53h-2.1v-2.1zm4.1 0h2.1V53h-2.1v-2.1zm20.2 94.4v-1.4h1.4v1.4h-1.4zm-2.8 0v-1.4h1.4v1.4H36zm-2.9 0v-1.4h1.4v1.4h-1.4zm-2.8 0v-1.4h1.4v1.4h-1.4zm-2.8 0v-1.4h1.4v1.4h-1.4zm-2.9 0v-1.4H26v1.4h-1.4zm-2.8 0v-1.4h1.4v1.4h-1.4zm-2.8 0v-1.4h1.4v1.4H19zm113.3 0v-1.4h1.4v1.4h-1.4zm-2.8 0v-1.4h1.4v1.4h-1.4zm-2.9 0v-1.4h1.4v1.4h-1.4zm-2.8 0v-1.4h1.4v1.4h-1.4zm-2.8 0v-1.4h1.4v1.4H121zm-2.9 0v-1.4h1.4v1.4h-1.4zm-2.8 0v-1.4h1.4v1.4h-1.4zm-2.8 0v-1.4h1.4v1.4h-1.4zm29.1-6h2.1v2.1h-2.1v-2.1zm0-4.1h2.1v2.1h-2.1v-2.1zm2.1 2.1h2.1v2.1h-2.1v-2.1zm-4.2 0h2.1v2.1h-2.1v-2.1zm-129.9 2h2.1v2.1H9.6v-2.1zm0-4.1h2.1v2.1H9.6v-2.1zm-2.1 2.1h2.1v2.1H7.5v-2.1zm4.2 0h2.1v2.1h-2.1v-2.1zm121 0l-1-1.1-2.8 2.9-2.2-2.1-.7-.8-2.9 2.9-1.8-1.8-1-1.1-2.9 2.9-2.9-2.8-1 1 3.9 3.8 2.9-2.8 2.8 2.8 2.9-2.8 2.9 2.8 3.8-3.8zm-93.4 0l-1.1-1.1-2.8 2.9-2.2-2.1-.7-.8-2.9 2.9-1.8-1.8-1-1.1-2.9 2.9-2.9-2.8-1 1 3.9 3.8 2.9-2.8 2.8 2.8 2.9-2.8 2.9 2.8 3.9-3.8zM146.2 11.1V9.7h1.4v1.4h-1.4zm-2.8 0V9.7h1.4v1.4h-1.4zm-2.8 0V9.7h1.4v1.4h-1.4zm-2.9 0V9.7h1.4v1.4h-1.4zm-2.8 0V9.7h1.4v1.4h-1.4zm-2.8 0V9.7h1.4v1.4h-1.4zm-2.9 0V9.7h1.4v1.4h-1.4zm-2.8 0V9.7h1.4v1.4h-1.4zm-2.8 0V9.7h1.4v1.4h-1.4zm-2.9 0V9.7h1.4v1.4h-1.4zm-2.8 0V9.7h1.4v1.4h-1.4zm-2.8 0V9.7h1.4v1.4h-1.4zm-2.9 0V9.7h1.4v1.4h-1.4zm-2.8 0V9.7h1.4v1.4h-1.4zm-2.8 0V9.7h1.4v1.4h-1.4zm-2.9 0V9.7h1.4v1.4h-1.4zm-2.8 0V9.7h1.4v1.4h-1.4zm-2.9 0V9.7h1.4v1.4H98zm-2.8 0V9.7h1.4v1.4h-1.4zm-2.8 0V9.7h1.4v1.4h-1.4zm-2.9 0V9.7H91v1.4h-1.5zm-2.8 0V9.7h1.4v1.4h-1.4zm-2.8 0V9.7h1.4v1.4h-1.4zm-2.9 0V9.7h1.4v1.4H81zm-2.8 0V9.7h1.4v1.4h-1.4zm-2.8 0V9.7h1.4v1.4h-1.4zm-2.9 0V9.7H74v1.4h-1.5zm-2.8 0V9.7h1.4v1.4h-1.4zm-2.8 0V9.7h1.4v1.4h-1.4zm-2.9 0V9.7h1.4v1.4H64zm-2.8 0V9.7h1.4v1.4h-1.4zm-2.8 0V9.7h1.4v1.4h-1.4zm-2.9 0V9.7h1.4v1.4h-1.4zm-2.8 0V9.7h1.4v1.4h-1.4zm-2.8 0V9.7h1.4v1.4h-1.4zm-2.9 0V9.7h1.4v1.4H47zm-2.8 0V9.7h1.4v1.4h-1.4zm-2.8 0V9.7h1.4v1.4h-1.4zm-2.9 0V9.7h1.4v1.4h-1.4zm-2.8 0V9.7h1.4v1.4h-1.4zm-2.8 0V9.7h1.4v1.4h-1.4zm-2.9 0V9.7h1.4v1.4H30zm-2.8 0V9.7h1.4v1.4h-1.4zm-2.9 0V9.7h1.4v1.4h-1.4zm-2.8 0V9.7h1.4v1.4h-1.4zm-2.8 0V9.7h1.4v1.4h-1.4zm-2.9 0V9.7h1.4v1.4h-1.4zm-2.8 0V9.7h1.4v1.4H13zm-2.8 0V9.7h1.4v1.4h-1.4zm-2.9 0V9.7h1.4v1.4H7.3zm138.9 18.7v-1.4h1.4v1.4h-1.4zm-2.8 0v-1.4h1.4v1.4h-1.4zm-2.8 0v-1.4h1.4v1.4h-1.4zm-2.9 0v-1.4h1.4v1.4h-1.4zm-2.8 0v-1.4h1.4v1.4h-1.4zm-2.8 0v-1.4h1.4v1.4h-1.4zm-2.9 0v-1.4h1.4v1.4h-1.4zm-2.8 0v-1.4h1.4v1.4h-1.4zm-2.8 0v-1.4h1.4v1.4h-1.4zm-2.9 0v-1.4h1.4v1.4h-1.4zm-2.8 0v-1.4h1.4v1.4h-1.4zm-2.8 0v-1.4h1.4v1.4h-1.4zm-2.9 0v-1.4h1.4v1.4h-1.4zm-2.8 0v-1.4h1.4v1.4h-1.4zm-2.8 0v-1.4h1.4v1.4h-1.4zm-2.9 0v-1.4h1.4v1.4h-1.4zm-2.8 0v-1.4h1.4v1.4h-1.4zm-2.9 0v-1.4h1.4v1.4H98zm-2.8 0v-1.4h1.4v1.4h-1.4zm-2.8 0v-1.4h1.4v1.4h-1.4zm-2.9 0v-1.4H91v1.4h-1.5zm-2.8 0v-1.4h1.4v1.4h-1.4zm-2.8 0v-1.4h1.4v1.4h-1.4zm-2.9 0v-1.4h1.4v1.4H81zm-2.8 0v-1.4h1.4v1.4h-1.4zm-2.8 0v-1.4h1.4v1.4h-1.4zm-2.9 0v-1.4H74v1.4h-1.5zm-2.8 0v-1.4h1.4v1.4h-1.4zm-2.8 0v-1.4h1.4v1.4h-1.4zm-2.9 0v-1.4h1.4v1.4H64zm-2.8 0v-1.4h1.4v1.4h-1.4zm-2.8 0v-1.4h1.4v1.4h-1.4zm-2.9 0v-1.4h1.4v1.4h-1.4zm-2.8 0v-1.4h1.4v1.4h-1.4zm-2.8 0v-1.4h1.4v1.4h-1.4zm-2.9 0v-1.4h1.4v1.4H47zm-2.8 0v-1.4h1.4v1.4h-1.4zm-2.8 0v-1.4h1.4v1.4h-1.4zm-2.9 0v-1.4h1.4v1.4h-1.4zm-2.8 0v-1.4h1.4v1.4h-1.4zm-2.8 0v-1.4h1.4v1.4h-1.4zm-2.9 0v-1.4h1.4v1.4H30zm-2.8 0v-1.4h1.4v1.4h-1.4zm-2.9 0v-1.4h1.4v1.4h-1.4zm-2.8 0v-1.4h1.4v1.4h-1.4zm-2.8 0v-1.4h1.4v1.4h-1.4zm-2.9 0v-1.4h1.4v1.4h-1.4zm-2.8 0v-1.4h1.4v1.4H13zm-2.8 0v-1.4h1.4v1.4h-1.4zm-2.9 0v-1.4h1.4v1.4H7.3zm117.9-13.9h11.5v1.4h-11.5v-1.4zm-107.7 0h10.7v1.4H17.5v-1.4zM125.2 23h11.5v1.4h-11.5V23zM17.5 23h10.7v1.4H17.5V23zm89 44.6h2.4V70h-2.4v-2.4zm-2.4-2.3h2.4v2.4h-2.4v-2.4zm0 4.7h2.4v2.4h-2.4V70zm-2.4-2.4h2.4V70h-2.4v-2.4zm-43.6-3.5h2.4v2.4h-2.4v-2.4zm-2.3-2.4h2.4v2.4h-2.4v-2.4zm0 4.7h2.4v2.4h-2.4v-2.4zm-2.4-2.3h2.4v2.4h-2.4v-2.4zm56.9 39.1h2.4v2.4h-2.4v-2.4zm-2.4-2.4h2.4v2.4h-2.4v-2.4zm0 4.8h2.4v2.4h-2.4v-2.4zm-2.3-2.4h2.4v2.4h-2.4v-2.4zm-16.7 11.9h2.4v2.4h-2.4v-2.4zm-2.4-2.4h2.4v2.4h-2.4v-2.4zm0 4.8h2.4v2.4h-2.4v-2.4zm-2.4-2.4h2.4v2.4h-2.4v-2.4zm10.4-63.4h2.4v2.4h-2.4v-2.4zm-2.4 2.4h2.4v2.4h-2.4v-2.4zm-2.3 2.4h2.4v2.4h-2.4v-2.4zm9.5 0h2.4v2.4h-2.4v-2.4zm-7.2 2.4h2.4v2.4h-2.4v-2.4zm4.8-4.8h2.4v2.4h-2.4v-2.4zm0 4.8h2.4v2.4h-2.4v-2.4zm-2.4 2.4h2.4v2.4h-2.4v-2.4zM74.6 90.5h2.3v-2.4h-2.4l.1 2.4h-2.4v2.4h2.4v-2.4zm-4.8 2.4v2.4h2.4v-2.4h-2.4zm9.5 2.4h2.4v-2.4h-2.4v2.4zm-4.7 0h-2.4v2.4h2.3v2.4h2.4v-2.4h-2.3v-2.4zm4.7-2.4v-2.4h-2.4v2.4h2.4zm-2.4 4.8h2.4v-2.4h-2.4v2.4zm-26.2-16h9.5v-2.4H45.9v2.4h4.8zm-4.8 19.1V86.2v-4.5h-2.4v23.9h2.4v-4.8zm16.7 0V86.2v-4.5h-2.4v23.9h2.4v-2.4H65v-2.4h-2.4zm4.8 2.4H65v2.4h4.8v-2.4h-2.4zm26.2 2.4H69.8v2.4h28.6v-2.4h-4.8zm4.8 0h2.4v-4.8h-2.4v4.8zm0-7.2h2.4v-4.8h-2.4v4.8zm-4.8-7.2v2.4h4.8v-2.4h-4.8zm4.8-2.3v2.3h2.4v-4.7h-2.4v2.4zm-4.8-4.8v2.4h4.8v-2.4h-4.8zm4.8-4.8v4.8h2.4v-4.8h-2.4zm-16.7-4.8v2.4h2.4v-4.8h-2.4v2.4zm2.4-7.1v4.7h2.4v-9.5h-2.4v4.8zm-2.4-4.8h2.4v-4.8h-2.4v4.8zM77 65v-7.2h4.7v-2.4h-4.8v2.4h-2.3v9.6H77V65zm-2.4 4.8v-2.4h-2.4v4.7h2.4v-2.3zm-2.4 4.7v-2.4h-2.4v4.8h2.4v-2.4zm-2.4 2.4h-2.4v2.4h2.4v-2.4zm-2.4 4.8v-2.4h-4.8v2.4h4.8zm19.1-2.4h11.9v-2.4H84.1v2.4h2.4zm7.1 19.1v2.4h4.8v-2.4h-4.8zm-35.8 7.2H45.9v2.4h14.3v-2.4h-2.4zm-6.4 31.6h1.8v-1.8H55v-1.8h1.8v-1.8h3.6v12.6h-1.8v-3.6h-7.2v-3.6zm7.2-3.6h-1.8v1.8H55v1.8h-1.8v1.8h5.4v-5.4zm5.4 0h1.8v-1.8h5.4v1.8H73v9h-1.8v1.8h-5.4v-1.8H64v-9zm1.8 5.4h1.8v-1.8h1.8v-1.8h1.8v-1.8h-5.4v5.4zm5.4-1.8h-1.8v1.8h-1.8v1.8h-1.8v1.8h5.4v-5.4zm5.4-3.6h1.8v-1.8h5.4v1.8h1.8v9h-1.8v1.8h-5.4v-1.8h-1.8v-9zm1.8 5.4h1.8v-1.8H82v-1.8h1.8v-1.8h-5.4v5.4zm5.4-1.8H82v1.8h-1.8v1.8h-1.8v1.8h5.4v-5.4zm5.4-5.4H91v5.4h3.6v-1.8h1.8v-3.6h1.8v3.6h-1.8v1.8h-1.8v1.8h1.8v1.8h1.8v3.6h-1.8v-3.6h-1.8V139H91v5.4h-1.8v-12.6zm202.9-33.1v-1.4h1.4v1.4h-1.4zm-2.8 0v-1.4h1.4v1.4h-1.4zm-2.8 0v-1.4h1.4v1.4h-1.4zm-2.8 0v-1.4h1.4v1.4h-1.4zm-2.8 0v-1.4h1.4v1.4h-1.4zm-1.3-7.2h15.2v1.4h-15.2v-1.4zm-100 7.2v-1.4h1.4v1.4h-1.4zm-2.8 0v-1.4h1.4v1.4h-1.4zm-2.8 0v-1.4h1.4v1.4H174zm-2.9 0v-1.4h1.4v1.4h-1.4zm-2.8 0v-1.4h1.4v1.4h-1.4zm-1.3-7.2h15.2v1.4H167v-1.4zm35-73.8h3.2v.8h.8v1.6h-.8v.8h-2.4v2.4h-.8v-5.6zm.8.8v1.6h2.4v-1.6h-2.4zm5.2 0h.8v-.8h2.4v.8h.8v4.8h-.8v-2.4h-2.4v2.4h-.8v-4.8zm.8 1.6h2.4v-1.6h-2.4v1.6zm5.2-1.6h.8v-.8h2.4v.8h.8v.8h-.8v-.8h-2.4v4h2.4v-.8h-.8v-.8h1.6v1.6h-.8v.8h-2.4v-.8h-.8v-4zm6-.8h4v.8h-3.2v1.6h2.4v.8h-2.4v1.6h3.2v.8h-4v-5.6zm12 0h.8v4.8h3.2v.8h-4v-5.6zm6 0h4v.8h-1.6v4h1.6v.8h-4v-.8h1.6v-4H238v-.8zm6 0h.8v2.4h1.6v-.8h.8v-1.6h.8v1.6h-.8v.8h-.8v.8h.8v.8h.8v1.6h-.8v-1.6h-.8v-.8h-1.6v2.4h-.8v-5.6zm6 0h4v.8h-3.2v1.6h2.4v.8h-2.4v1.6h3.2v.8h-4v-5.6zm6 .8h.8v-.8h3.2v.8h-3.2v1.6h2.4v.8h.8v1.6h-.8v.8H256v-.8h3.2v-1.6h-2.4v-.8h-.8v-1.6zm31.6 30.3h2.1v2.1h-2.1v-2.1zm0 4.2h2.1v2.1h-2.1V53zm2-2.1h2.1V53h-2.1v-2.1zm-4.1 0h2.1V53h-2.1v-2.1zm-114-2.1h2.1v2.1h-2.1v-2.1zm0 4.2h2.1v2.1h-2.1V53zm-2-2.1h2.1V53h-2.1v-2.1zm4.1 0h2.1V53h-2.1v-2.1zm20.2 94.4v-1.4h1.4v1.4h-1.4zm-2.8 0v-1.4h1.4v1.4H191zm-2.9 0v-1.4h1.4v1.4h-1.4zm-2.8 0v-1.4h1.4v1.4h-1.4zm-2.8 0v-1.4h1.4v1.4h-1.4zm-2.9 0v-1.4h1.4v1.4h-1.4zm-2.8 0v-1.4h1.4v1.4h-1.4zm-2.8 0v-1.4h1.4v1.4H174zm113.3 0v-1.4h1.4v1.4h-1.4zm-2.8 0v-1.4h1.4v1.4h-1.4zm-2.9 0v-1.4h1.4v1.4h-1.4zm-2.8 0v-1.4h1.4v1.4h-1.4zm-2.8 0v-1.4h1.4v1.4H276zm-2.9 0v-1.4h1.4v1.4h-1.4zm-2.8 0v-1.4h1.4v1.4h-1.4zm-2.8 0v-1.4h1.4v1.4h-1.4zm29.1-6h2.1v2.1h-2.1v-2.1zm0-4.1h2.1v2.1h-2.1v-2.1zm2.1 2.1h2.1v2.1h-2.1v-2.1zm-4.2 0h2.1v2.1h-2.1v-2.1zm-129.9 2h2.1v2.1h-2.1v-2.1zm0-4.1h2.1v2.1h-2.1v-2.1zm-2.1 2.1h2.1v2.1h-2.1v-2.1zm4.2 0h2.1v2.1h-2.1v-2.1zm121 0l-1-1.1-2.8 2.9-2.2-2.1-.7-.8-2.9 2.9-1.8-1.8-1-1.1-2.9 2.9-2.9-2.8-1 1 3.9 3.8 2.9-2.8 2.8 2.8 2.9-2.8 2.9 2.8 3.8-3.8zm-93.4 0l-1.1-1.1-2.8 2.9-2.2-2.1-.7-.8-2.9 2.9-1.8-1.8-1-1.1-2.9 2.9-2.9-2.8-1 1 3.9 3.8 2.9-2.8 2.8 2.8 2.9-2.8 2.9 2.8 3.9-3.8zM301.2 11.1V9.7h1.4v1.4h-1.4zm-2.8 0V9.7h1.4v1.4h-1.4zm-2.8 0V9.7h1.4v1.4h-1.4zm-2.9 0V9.7h1.4v1.4h-1.4zm-2.8 0V9.7h1.4v1.4h-1.4zm-2.8 0V9.7h1.4v1.4h-1.4zm-2.9 0V9.7h1.4v1.4h-1.4zm-2.8 0V9.7h1.4v1.4h-1.4zm-2.8 0V9.7h1.4v1.4h-1.4zm-2.9 0V9.7h1.4v1.4h-1.4zm-2.8 0V9.7h1.4v1.4h-1.4zm-2.8 0V9.7h1.4v1.4h-1.4zm-2.9 0V9.7h1.4v1.4h-1.4zm-2.8 0V9.7h1.4v1.4h-1.4zm-2.8 0V9.7h1.4v1.4h-1.4zm-2.9 0V9.7h1.4v1.4h-1.4zm-2.8 0V9.7h1.4v1.4h-1.4zm-2.9 0V9.7h1.4v1.4H253zm-2.8 0V9.7h1.4v1.4h-1.4zm-2.8 0V9.7h1.4v1.4h-1.4zm-2.9 0V9.7h1.4v1.4h-1.4zm-2.8 0V9.7h1.4v1.4h-1.4zm-2.8 0V9.7h1.4v1.4h-1.4zm-2.9 0V9.7h1.4v1.4H236zm-2.8 0V9.7h1.4v1.4h-1.4zm-2.8 0V9.7h1.4v1.4h-1.4zm-2.9 0V9.7h1.4v1.4h-1.4zm-2.8 0V9.7h1.4v1.4h-1.4zm-2.8 0V9.7h1.4v1.4h-1.4zm-2.9 0V9.7h1.4v1.4H219zm-2.8 0V9.7h1.4v1.4h-1.4zm-2.8 0V9.7h1.4v1.4h-1.4zm-2.9 0V9.7h1.4v1.4h-1.4zm-2.8 0V9.7h1.4v1.4h-1.4zm-2.8 0V9.7h1.4v1.4h-1.4zm-2.9 0V9.7h1.4v1.4H202zm-2.8 0V9.7h1.4v1.4h-1.4zm-2.8 0V9.7h1.4v1.4h-1.4zm-2.9 0V9.7h1.4v1.4h-1.4zm-2.8 0V9.7h1.4v1.4h-1.4zm-2.8 0V9.7h1.4v1.4h-1.4zm-2.9 0V9.7h1.4v1.4H185zm-2.8 0V9.7h1.4v1.4h-1.4zm-2.9 0V9.7h1.4v1.4h-1.4zm-2.8 0V9.7h1.4v1.4h-1.4zm-2.8 0V9.7h1.4v1.4h-1.4zm-2.9 0V9.7h1.4v1.4h-1.4zm-2.8 0V9.7h1.4v1.4H168zm-2.8 0V9.7h1.4v1.4h-1.4zm-2.9 0V9.7h1.4v1.4h-1.4zm138.9 18.7v-1.4h1.4v1.4h-1.4zm-2.8 0v-1.4h1.4v1.4h-1.4zm-2.8 0v-1.4h1.4v1.4h-1.4zm-2.9 0v-1.4h1.4v1.4h-1.4zm-2.8 0v-1.4h1.4v1.4h-1.4zm-2.8 0v-1.4h1.4v1.4h-1.4zm-2.9 0v-1.4h1.4v1.4h-1.4zm-2.8 0v-1.4h1.4v1.4h-1.4zm-2.8 0v-1.4h1.4v1.4h-1.4zm-2.9 0v-1.4h1.4v1.4h-1.4zm-2.8 0v-1.4h1.4v1.4h-1.4zm-2.8 0v-1.4h1.4v1.4h-1.4zm-2.9 0v-1.4h1.4v1.4h-1.4zm-2.8 0v-1.4h1.4v1.4h-1.4zm-2.8 0v-1.4h1.4v1.4h-1.4zm-2.9 0v-1.4h1.4v1.4h-1.4zm-2.8 0v-1.4h1.4v1.4h-1.4zm-2.9 0v-1.4h1.4v1.4H253zm-2.8 0v-1.4h1.4v1.4h-1.4zm-2.8 0v-1.4h1.4v1.4h-1.4zm-2.9 0v-1.4h1.4v1.4h-1.4zm-2.8 0v-1.4h1.4v1.4h-1.4zm-2.8 0v-1.4h1.4v1.4h-1.4zm-2.9 0v-1.4h1.4v1.4H236zm-2.8 0v-1.4h1.4v1.4h-1.4zm-2.8 0v-1.4h1.4v1.4h-1.4zm-2.9 0v-1.4h1.4v1.4h-1.4zm-2.8 0v-1.4h1.4v1.4h-1.4zm-2.8 0v-1.4h1.4v1.4h-1.4zm-2.9 0v-1.4h1.4v1.4H219zm-2.8 0v-1.4h1.4v1.4h-1.4zm-2.8 0v-1.4h1.4v1.4h-1.4zm-2.9 0v-1.4h1.4v1.4h-1.4zm-2.8 0v-1.4h1.4v1.4h-1.4zm-2.8 0v-1.4h1.4v1.4h-1.4zm-2.9 0v-1.4h1.4v1.4H202zm-2.8 0v-1.4h1.4v1.4h-1.4zm-2.8 0v-1.4h1.4v1.4h-1.4zm-2.9 0v-1.4h1.4v1.4h-1.4zm-2.8 0v-1.4h1.4v1.4h-1.4zm-2.8 0v-1.4h1.4v1.4h-1.4zm-2.9 0v-1.4h1.4v1.4H185zm-2.8 0v-1.4h1.4v1.4h-1.4zm-2.9 0v-1.4h1.4v1.4h-1.4zm-2.8 0v-1.4h1.4v1.4h-1.4zm-2.8 0v-1.4h1.4v1.4h-1.4zm-2.9 0v-1.4h1.4v1.4h-1.4zm-2.8 0v-1.4h1.4v1.4H168zm-2.8 0v-1.4h1.4v1.4h-1.4zm-2.9 0v-1.4h1.4v1.4h-1.4zm117.9-13.9h11.5v1.4h-11.5v-1.4zm-107.7 0h10.7v1.4h-10.7v-1.4zM280.2 23h11.5v1.4h-11.5V23zm-107.7 0h10.7v1.4h-10.7V23zm93 63.5h2.4v2.4h-2.4v-2.4zm-2.4-2.4h2.4v2.4h-2.4v-2.4zm0 4.8h2.4v2.4h-2.4v-2.4zm-2.4-2.4h2.4v2.4h-2.4v-2.4zm-55.2 28.7h2.4v2.4h-2.4v-2.4zm-2.4-2.4h2.4v2.4h-2.4v-2.4zm0 4.8h2.4v2.4h-2.4v-2.4zm-2.4-2.4h2.4v2.4h-2.4v-2.4zm64.8-2.4h2.4v2.4h-2.4v-2.4zm-2.4-2.4h2.4v2.4h-2.4v-2.4zm0 4.7h2.4v2.4h-2.4v-2.4zm-2.4-2.3h2.4v2.4h-2.4v-2.4zM251 62.6h2.4V65H251v-2.4zm-2.3 2.4h2.4v2.4h-2.4V65zm-2.4 2.4h2.4v2.4h-2.4v-2.4zm9.5 0h2.4v2.4h-2.4v-2.4zm-7.1 2.4h2.4v2.4h-2.4v-2.4zm4.7-4.8h2.4v2.4h-2.4V65zm0 4.8h2.4v2.4h-2.4v-2.4zm-2.4 2.3h2.4v2.4H251v-2.4zm-42.9-19.4h2.4v2.4h-2.4v-2.4zm-2.4 2.4h2.4v2.4h-2.4v-2.4zm-2.4 2.4h2.4v2.4h-2.4v-2.4zm9.6 0h2.4v2.4h-2.4v-2.4zm-7.2 2.4h2.4v2.4h-2.4v-2.4zm4.8-4.8h2.4v2.4h-2.4v-2.4zm0 4.8h2.4v2.4h-2.4v-2.4zm-2.4 2.4h2.4v2.4h-2.4v-2.4zm36.1 35.9v-2.4h-2.4v2.4h2.4zm-4.8-4.8v2.4h2.4v-2.4h-2.4zm0 7.2h2.4v-2.4h-2.4v2.4zm-2.4-4.8v2.4h2.4v-2.4H237zm-26.9-6.5h2.4v-2.4h-2.4v2.4zm-2.4-2.4h-2.4v2.4h2.4v-2.4l2.4.1v-2.4h-2.4v2.3zm2.4 4.8v-2.4h-2.4v2.4h2.4zm17.1 21.1h2.4v-2.4h-2.4v2.4zm9.6 0h2.4v-2.4h-2.4v2.4zm-7.2 0v2.4h2.4v-2.4h-2.4zm4.8-4.8v-2.3H232v2.3h-2.4v2.4h2.4v-2.3l2.4-.1v2.4h2.4V108h-2.4zm0 7.2h2.4v-2.4h-2.4v2.4zm-2.4 2.4h2.4v-2.4H232v2.4zm-26.3-35.9h9.5v-2.4h-14.3v2.4h4.8zm-4.8 19.1V86.2v-4.5h-2.4v23.9h2.4v-4.8zm16.7 0V86.2v-4.5h-2.4v23.9h2.4v-2.4h2.4v-2.4h-2.4zm4.8 2.4H220v2.4h4.8v-2.4h-2.4zm2.4 2.4v2.4h4.8v-2.4h-4.8zm23.8 0h-9.4v2.4h14.2v-2.4h-4.8zm4.8 0h2.4v-4.8h-2.4v4.8zm0-7.2h2.4v-4.8h-2.4v4.8zm-4.8-7.2v2.4h4.8v-2.4h-4.8zm4.8-2.3v2.3h2.4v-4.7h-2.4v2.4zm-4.8-4.8v2.4h4.8v-2.4h-4.8zm4.8-4.8v4.8h2.4v-4.8h-2.4zm-2.4-2.4h-11.9v2.4h14.3v-2.4H251zm-11.9-2.4v-2.4h-2.4v4.8h2.4v-2.4zm2.4-4.7v-7.2h-2.4v9.5h2.4v-2.3zm-4.8-7.2h2.4v-4.8h-2.4v4.8zM232 65v-7.2h4.7v-2.4h-4.8v2.4h-2.3v9.6h2.4V65zm-4.8 4.7v2.4h2.4v-4.7h-2.4v2.3zm-2.4 4.8v2.4h2.4v-4.8h-2.4v2.4zm-2.4 4.8h2.4v-2.4h-2.4v2.4zm-4.8 0v2.4h4.8v-2.4h-4.8zm31 19.1v2.4h4.8v-2.4h-4.8zm-35.8 7.2h-11.9v2.4h14.3v-2.4h-2.4zm-6.4 31.6h1.8v-1.8h1.8v-1.8h1.8v-1.8h3.6v12.6h-1.8v-3.6h-7.2v-3.6zm7.2-3.6h-1.8v1.8H210v1.8h-1.8v1.8h5.4v-5.4zm5.4 0h1.8v-1.8h5.4v1.8h1.8v9h-1.8v1.8h-5.4v-1.8H219v-9zm1.8 5.4h1.8v-1.8h1.8v-1.8h1.8v-1.8h-5.4v5.4zm5.4-1.8h-1.8v1.8h-1.8v1.8h-1.8v1.8h5.4v-5.4zm5.4-3.6h1.8v-1.8h5.4v1.8h1.8v9h-1.8v1.8h-5.4v-1.8h-1.8v-9zm1.8 5.4h1.8v-1.8h1.8v-1.8h1.8v-1.8h-5.4v5.4zm5.4-1.8H237v1.8h-1.8v1.8h-1.8v1.8h5.4v-5.4zm5.4-5.4h1.8v5.4h3.6v-1.8h1.8v-3.6h1.8v3.6h-1.8v1.8h-1.8v1.8h1.8v1.8h1.8v3.6h-1.8v-3.6h-1.8V139H246v5.4h-1.8v-12.6z"/></svg>