<svg id="Layer_1" xmlns="http://www.w3.org/2000/svg" viewBox="0 0 310 155"><style>.st0{fill:#231f20}</style><path class="st0" d="M19.1 16.6h.8v1.6h.8v.8h.8v-.8h.8v-1.6h.8v5.6h-.8V19h-.8v1.6h-.8V19h-.8v3.2h-.8v-5.6zm6 0h4v.8h-3.2V19h2.4v.8h-2.4v1.6h3.2v.8h-4v-5.6zm6 0h3.2v.8h.8v4h-.8v.8h-3.2v-5.6zm.8 4.8h2.4v-4h-2.4v4zm5.2-4.8h4v.8h-1.6v4h1.6v.8h-4v-.8h1.6v-4h-1.6v-.8zm6 .8h.8v-.8h2.4v.8h.8v4.8h-.8v-2.4h-2.4v2.4h-.8v-4.8zm.8 1.6h2.4v-1.6h-2.4V19zm12.8-1.6h-2.4v4h2.4v-.8h.8v.8h-.8v.8h-2.4v-.8h-.8v-4h.8v-.8h2.4v.8h.8v.8h-.8v-.8zm2.8 0h.8v-.8h2.4v.8h.8v4.8h-.8v-2.4h-2.4v2.4h-.8v-4.8zm.8 1.6h2.4v-1.6h-2.4V19zm5.2-2.4h.8v1.6h.8v.8h.8v-.8h.8v-1.6h.8v5.6h-.8V19h-.8v1.6h-.8V19h-.8v3.2h-.8v-5.6zm6 0h3.2v.8h.8V19h-.8v.8h-2.4v2.4h-.8v-5.6zm.8.8V19h2.4v-1.6h-2.4zm5.2 0h.8v-.8h2.4v.8h.8v4.8h-.8v-2.4h-2.4v2.4h-.8v-4.8zm.8 1.6h2.4v-1.6h-2.4V19zm5.2-2.4h4v.8h-1.6v4h1.6v.8h-4v-.8h1.6v-4h-1.6v-.8zm6 .8h.8v-.8h2.4v.8h.8v.8h-.8v-.8h-2.4v4h2.4v-.8h-.8v-.8h1.6v1.6h-.8v.8h-2.4v-.8h-.8v-4zm6-.8h.8v1.6h.8v.8h.8v.8h.8v-3.2h.8v5.6h-.8v-1.6h-.8v-.8h-.8V19h-.8v3.2h-.8v-5.6zm10.4 0h3.2v.8h.8V19h-.8v.8h-.8v.8h.8v.8h.8v.8h-.8v-.8h-.8v-.8h-.8v-.8h-.8v2.4h-.8v-5.6zm.8 2.4h2.4v-1.6h-2.4V19zm5.2-2.4h4v.8h-3.2V19h2.4v.8h-2.4v1.6h3.2v.8h-4v-5.6zm6 .8h.8v-.8h2.4v.8h.8v4.8h-.8v-2.4h-2.4v2.4h-.8v-4.8zm.8 1.6h2.4v-1.6h-2.4V19zm8.4-1.6h-2.4v4h2.4v-.8h.8v.8h-.8v.8h-2.4v-.8h-.8v-4h.8v-.8h2.4v.8h.8v.8h-.8v-.8zm2.8-.8h.8V19h2.4v-2.4h.8v5.6h-.8v-2.4h-2.4v2.4h-.8v-5.6zm-5.1 13.5v-1.4h1.4v1.4h-1.4zm-2.8 0v-1.4h1.4v1.4H122zm-2.9 0v-1.4h1.4v1.4h-1.4zm-2.8 0v-1.4h1.4v1.4h-1.4zm-2.9 0v-1.4h1.4v1.4h-1.4zm-2.8 0v-1.4h1.4v1.4h-1.4zm-2.8 0v-1.4h1.4v1.4h-1.4zm-2.9 0v-1.4h1.4v1.4h-1.4zm-2.8 0v-1.4h1.4v1.4h-1.4zm-2.8 0v-1.4h1.4v1.4h-1.4zm-2.9 0v-1.4h1.4v1.4h-1.4zm-2.8 0v-1.4H95v1.4h-1.4zm-2.8 0v-1.4h1.4v1.4h-1.4zm-2.9 0v-1.4h1.4v1.4h-1.4zm-2.8 0v-1.4h1.4v1.4h-1.4zm-2.8 0v-1.4h1.4v1.4h-1.4zm-2.9 0v-1.4h1.4v1.4h-1.4zm-2.8 0v-1.4H78v1.4h-1.4zm-2.8 0v-1.4h1.4v1.4h-1.4zm-2.9 0v-1.4h1.4v1.4h-1.4zm-2.8 0v-1.4h1.4v1.4h-1.4zm-2.8 0v-1.4h1.4v1.4h-1.4zm-2.9 0v-1.4h1.4v1.4h-1.4zm-2.8 0v-1.4H61v1.4h-1.4zm-2.8 0v-1.4h1.4v1.4h-1.4zm-2.9 0v-1.4h1.4v1.4h-1.4zm-2.8 0v-1.4h1.4v1.4h-1.4zm-2.8 0v-1.4h1.4v1.4h-1.4zm-2.9 0v-1.4h1.4v1.4h-1.4zm-2.8 0v-1.4H44v1.4h-1.4zm-2.9 0v-1.4h1.4v1.4h-1.4zm-2.8 0v-1.4h1.4v1.4h-1.4zm-2.8 0v-1.4h1.4v1.4h-1.4zm-2.9 0v-1.4h1.4v1.4h-1.4zm-2.8 0v-1.4h1.4v1.4h-1.4zm96.4-19.6V9h1.4v1.4c-1.4.1 0 .1-1.4.1zm-2.8 0V9h1.4v1.4c-1.4.1 0 .1-1.4.1zm-2.9 0V9h1.4v1.4c-1.4.1 0 .1-1.4.1zm-2.8 0V9h1.4v1.4c-1.4.1 0 .1-1.4.1zm-2.9 0V9h1.4v1.4c-1.4.1.1.1-1.4.1zm-2.8 0V9h1.4v1.4c-1.4.1 0 .1-1.4.1zm-2.8 0V9h1.4v1.4c-1.4.1 0 .1-1.4.1zm-2.9 0V9h1.4v1.4c-1.4.1.1.1-1.4.1zm-2.8 0V9h1.4v1.4c-1.4.1 0 .1-1.4.1zm-2.8 0V9h1.4v1.4c-1.4.1 0 .1-1.4.1zm-2.9 0V9h1.4v1.4c-1.4.1.1.1-1.4.1zm-2.8 0V9H95v1.4c-1.4.1 0 .1-1.4.1zm-2.8 0V9h1.4v1.4c-1.4.1 0 .1-1.4.1zm-2.9 0V9h1.4v1.4c-1.4.1.1.1-1.4.1zm-2.8 0V9h1.4v1.4c-1.4.1 0 .1-1.4.1zm-2.8 0V9h1.4v1.4c-1.4.1 0 .1-1.4.1zm-2.9 0V9h1.4v1.4c-1.4.1.1.1-1.4.1zm-2.8 0V9H78v1.4c-1.4.1 0 .1-1.4.1zm-2.8 0V9h1.4v1.4c-1.4.1 0 .1-1.4.1zm-2.9 0V9h1.4v1.4c-1.4.1 0 .1-1.4.1zm-2.8 0V9h1.4v1.4c-1.4.1 0 .1-1.4.1zm-2.8 0V9h1.4v1.4c-1.4.1 0 .1-1.4.1zm-2.9 0V9h1.4v1.4c-1.4.1 0 .1-1.4.1zm-2.8 0V9H61v1.4c-1.4.1 0 .1-1.4.1zm-2.8 0V9h1.4v1.4c-1.4.1 0 .1-1.4.1zm-2.9 0V9h1.4v1.4c-1.4.1 0 .1-1.4.1zm-2.8 0V9h1.4v1.4c-1.4.1 0 .1-1.4.1zm-2.8 0V9h1.4v1.4c-1.4.1 0 .1-1.4.1zm-2.9 0V9h1.4v1.4c-1.4.1 0 .1-1.4.1zm-2.8 0V9H44v1.4c-1.4.1 0 .1-1.4.1zm-2.9 0V9h1.4v1.4c-1.4.1.1.1-1.4.1zm-2.8 0V9h1.4v1.4c-1.4.1 0 .1-1.4.1zm-2.8 0V9h1.4v1.4c-1.4.1 0 .1-1.4.1zm-2.9 0V9h1.4v1.4c-1.4.1.1.1-1.4.1zm-2.8 0V9h1.4v1.4c-1.4.1 0 .1-1.4.1zm106 93.8v-1.4h1.4v1.4h-1.4zm0-2.8v-1.4h1.4v1.4h-1.4zm0-2.8v-1.4h1.4v1.4h-1.4zm0-2.9v-1.4h1.4v1.4h-1.4zm0-2.8v-1.4h1.4V93h-1.4zm0-2.9v-1.4h1.4v1.4h-1.4zm0-2.8v-1.4h1.4v1.4h-1.4zm0-2.8v-1.4h1.4v1.4h-1.4zm0-2.9v-1.4h1.4v1.4h-1.4zm0-2.8v-1.4h1.4v1.4h-1.4zm0-2.8v-1.4h1.4V76h-1.4zm-4 4.9h1.4v16.2h-1.4V80.9zm8.1 0h1.4v16.2h-1.4V80.9zM21.9 104.5v-1.4h1.4v1.4h-1.4zm0-2.8v-1.4h1.4v1.4h-1.4zm0-2.9v-1.4h1.4v1.4h-1.4zm0-2.8v-1.4h1.4V96h-1.4zm0-2.8v-1.4h1.4v1.4h-1.4zm0-2.9v-1.4h1.4v1.4h-1.4zm0-2.8v-1.4h1.4v1.4h-1.4zm0-2.8v-1.4h1.4v1.4h-1.4zm0-2.9v-1.4h1.4v1.4h-1.4zm0-2.8v-1.4h1.4V79h-1.4zm0-2.9v-1.4h1.4v1.4h-1.4zm-4 5h1.4v16.2h-1.4V81.1zm8.1 0h1.4v16.2H26V81.1zm-13.9 50.8h2v2h-2v-2zm2 2h2v2h-2v-2zm2 2h2v2h-2v-2zm0-4h2v2h-2v-2zm-4 4h2v2h-2v-2zm7.6 3h2v2h-2v-2zm2 2h2v2h-2v-2zm2 2.1h2v2h-2v-2zm0-4.1h2v2h-2v-2zm-4.1 4.1h2v2h-2v-2zm123.3-6.6h2v2h-2v-2zm-2-2h2v2h-2v-2zm-2-2h2v2h-2v-2zm0 4h2v2h-2v-2zm4-4h2v2h-2v-2zm-7.6 11.6h2v2h-2v-2zm-2-2.1h2v2h-2v-2zm-2-2h2v2h-2v-2zm0 4.1h2v2h-2v-2zm4.1-4.1h2v2h-2v-2zM146 20.6h2v2h-2v-2zm-2-2h2v2h-2v-2zm-2-2h2v2h-2v-2zm0 4h2v2h-2v-2zm4.1-4h2v2h-2v-2zM7 20.6h2v2H7v-2zm2-2h2v2H9v-2zm2-2h2v2h-2v-2zm0 4h2v2h-2v-2zm-4.1-4h2v2h-2v-2zm24.4 49.3l1-1 1 1-1 1-1-1zm2-2l1-1 1 1-1 1-1-1zm2-2l1-1 1 1-1 1-1-1zm2-2l1-1 1 1-1 1-1-1zm2-2l1-1 1 1-1 1-1-1zm2-2.1l1-1 1 1-1 1-1-1zm2-2l1-1 1 1-1 1-1-1zm2-2l1-1 1 1-1 1-1-1zm2-2l1-1 1 1-1 1-1-1zm2-2l1-1 1 1-1 1-1-1zm2-2l1-1 1 1-1 1-1-1zm2-2l1-1 1 1-1 1-1-1zm2-2l1-1 1 1-1 1-1-1zm65.9 23l1-1 1 1-1 1-1-1zm-2-2l1-1 1 1-1 1-1-1zm-2-2l1-1 1 1-1 1-1-1zm-2-2l1-1 1 1-1 1-1-1zm-2-2l1-1 1 1-1 1-1-1zm-2-2l1-1 1 1-1 1-1-1zm-2-2l1-1 1 1-1 1-1-1zm-2-2l1-1 1 1-1 1-1-1zm-2-2l1-1 1 1-1 1-1-1zm-2-2l1-1 1 1-1 1-1-1zm-2-2l1-1 1 1-1 1-1-1zm-2-2l1-1 1 1-1 1-1-1zm-2-2l1-1 1 1-1 1-1-1zm13.2 78.6l1-1 1 1-1 1-1-1zm2-2l1-1 1 1-1 1-1-1zm2-2l1-1 1 1-1 1-1-1zm2-2l1-1 1 1-1 1-1-1zm2-2l1-1 1 1-1 1-1-1zm2-2l1-1 1 1-1 1-1-1zm2-2l1-1 1 1-1 1-1-1zm-77 14.1l1-1 1 1-1 1-1-1zm-2-2l1-1 1 1-1 1-1-1zm-2-2l1-1 1 1-1 1-1-1zm-2-2l1-1 1 1-1 1-1-1zm-2-2l1-1 1 1-1 1-1-1zm-2-2l1-1 1 1-1 1-1-1zm-2-2l1-1 1 1-1 1-1-1zm-2-2l1-1 1 1-1 1-1-1zm14.2 23.7l-14.7-14.7 1-1 14.7 14.7-1 1zm65.4-.9l-1-1 14.1-14.1 1 1-14.1 14.1zm13-73.5l-16-16 1-1 16 16-1 1zm-92.1 0l-1-1 16-16.1 1 1-16 16.1zm45.9 62.5h2.7v2.7h-2.7v-2.7zm2.7-2.8h2.7v2.7h-2.7v-2.7zm2.7-2.7h2.7v2.7h-2.7v-2.7zm2.8-2.7h2.7v2.7H86v-2.7zm2.7-2.8h2.7v2.7h-2.7v-2.7zm2.7-2.7h2.7v2.7h-2.7v-2.7zm2.7-2.7h2.7v2.7h-2.7v-2.7zm2.8-2.8h2.7v2.7h-2.7v-2.7zm2.7-2.7h2.7v2.7h-2.7v-2.7zm2.7-2.7h2.7v2.7h-2.7v-2.7zm2.8-2.7h2.7v2.7h-2.7V92zm2.7-16.4v16.3h2.7V75.6h-2.7zm-2.7-2.7h2.7v2.7h-2.7v-2.7zm-2.8-2.8h2.7v2.7h-2.7v-2.7zm-2.7-2.7h2.7v2.7h-2.7v-2.7zm-8.2 0h8.2v-2.7H86v2.7h5.4zm5.4 5.5v-2.8h-8.1v2.7h2.7v2.8h5.5v2.7h2.7V81h2.7v-5.4h-2.7v-2.7h-2.8zm5.5 10.9h2.7v2.7h-2.7v-2.7zM75 116.5h2.7v2.7H75v-2.7zm-2.7-2.7H75v2.7h-2.7v-2.7zm-2.7-2.7h2.7v2.7h-2.7v-2.7zm-2.8-2.8h2.7v2.7h-2.7v-2.7zm-2.7-2.7h2.7v2.7h-2.7v-2.7zm-2.7-2.7h2.7v2.7h-2.7v-2.7zm-2.8-2.8h2.7v2.7h-2.7v-2.7zm-2.7-2.7h2.7v2.7h-2.7v-2.7zm-2.7-2.7h2.7v2.7h-2.7v-2.7zM94.1 92h-2.7v-2.8h-5.5V92h-8.2v-2.8H66.8v-2.7h-5.4v2.7h-5.5v2.7h2.7v2.8h2.8v2.7h2.7v2.7h2.7v2.7h2.8v2.8h2.7v2.7H75v2.7h2.8v2.8h2.7V111h2.7v-2.7h2.7v-2.7h2.8v-2.8h2.7v-2.7h2.7v-2.7h2.7v-2.7h-2.7V92zm-43.6 0h2.7v2.7h-2.7V92zm-2.8-13.7v13.6h2.7V75.6h-2.7v2.7zm2.8-5.4h2.7v2.7h-2.7v-2.7zm2.7-2.8h2.7v2.7h-2.7v-2.7zm2.7-2.7h2.7v2.7h-2.7v-2.7zm5.4 0h11v-2.7H58.6v2.7h2.7zm21.9 0h2.7v2.7h-2.7v-2.7zm-2.7 2.7h2.7v2.7h-2.7v-2.7zm-2.7 2.8h2.7v2.7h-2.7v-2.7zM75 70.1h2.7v2.7H75v-2.7zm-2.7-2.7H75v2.7h-2.7v-2.7zm-18.7 70h1.8v-1.8h5.4V132h-5.4v1.8h-1.8V132h1.8v-1.8h5.4v1.8h1.8v3.6h-1.8v1.8h-5.4v3.6h7.2v1.8h-9v-5.4zm16.2-1.8h3.6V132H68v1.8h-1.8V132H68v-1.8h5.4v1.8h1.8v3.6h-1.8v1.8h1.8v3.6h-1.8v1.8H68V141h-1.8v-1.8H68v1.8h5.4v-3.6h-3.6v-1.8zm9-1.8h1.8V132h1.8v-1.8h1.8V141h3.6v1.8h-9V141h3.6v-7.2h-1.8v1.8h-1.8v-1.8zm12.6 3.6h1.8v-1.8h5.4V132h-5.4v1.8h-1.8V132h1.8v-1.8h5.4v1.8h1.8v3.6h-1.8v1.8h-5.4v3.6h7.2v1.8h-9v-5.4zm85.9-115.2h.8v-5.6h-.8v1.6h-.8v.8h.8v3.2zm-1.6-3.2h.8v1.6h-.8V19zm-.8 0h.8v-.8h-.8v-1.6h-.8v5.6h.8V19zm9.2 2.4h-3.2v-1.6h2.4V19h-2.4v-1.6h3.2v-.8h-4v5.6h4v-.8zm5.2-4h.8v4h-.8v-4zm0 4h-2.4v-4h2.4v-.8h-3.2v5.6h3.2v-.8zm6.8-4v-.8h-4v.8h1.6v4h-1.6v.8h4v-.8h-1.6v-4h1.6zm2.8-.8h2.4v.8h-2.4v-.8zm3.2.8h-.8V19h-2.4v-1.6h-.8v4.8h.8v-2.4h2.4v2.4h.8v-4.8zm7.2-.8h2.4v.8h-2.4v-.8zm0 4.8h2.4v.8h-2.4v-.8zm2.4-4h.8v.8h-.8v-.8zm0 3.2h.8v.8h-.8v-.8zm-3.2-3.2h.8v4h-.8v-4zm6.8-.8h2.4v.8h-2.4v-.8zm0 3.2h2.4v2.4h.8v-4.8h-.8V19h-2.4v-1.6h-.8v4.8h.8v-2.4zm6.8-.8h.8v1.6h-.8V19zm-.8-.8v-1.6h-.8v5.6h.8V19h.8v-.8h-.8zm2.4 4h.8v-5.6h-.8v1.6h-.8v.8h.8v3.2zm3.6-4.8h2.4v-.8h-3.2v5.6h.8v-2.4h2.4V19h-2.4v-1.6zm2.4 0h.8V19h-.8v-1.6zm3.6-.8h2.4v.8h-2.4v-.8zm-.8 5.6h.8v-2.4h2.4v2.4h.8v-4.8h-.8V19h-2.4v-1.6h-.8v4.8zm6-4.8h1.6v4h-1.6v.8h4v-.8h-1.6v-4h1.6v-.8h-4v.8zm6 0h.8v4h-.8v-4zm.8 4h2.4v.8h-2.4v-.8zm3.2-1.6h-1.6v.8h.8v.8h.8v-1.6zm-.8-2.4h.8v.8h-.8v-.8zm-2.4-.8h2.4v.8h-2.4v-.8zm8.4 4v1.6h.8v-5.6h-.8v3.2h-.8v.8h.8zm-2.4-1.6h.8v-.8h-.8v-1.6h-.8v5.6h.8V19zm.8 0h.8v.8h-.8V19zm12 2.4h.8v.8h-.8v-.8zm0-4h.8V19h-.8v-1.6zm-2.4 0h2.4v-.8h-3.2v5.6h.8v-2.4h.8v.8h.8v-.8h.8V19h-2.4v-1.6zm1.6 3.2h.8v.8h-.8v-.8zm3.6 1.6h4v-.8h-3.2v-1.6h2.4V19h-2.4v-1.6h3.2v-.8h-4v5.6zm6.8-2.4h2.4v2.4h.8v-4.8h-.8V19h-2.4v-1.6h-.8v4.8h.8v-2.4zm0-3.2h2.4v.8h-2.4v-.8zm5.2.8h.8v4h-.8v-4zm3.2 0h.8v.8h-.8v-.8zm-2.4-.8h2.4v.8h-2.4v-.8zm0 4.8h2.4v.8h-2.4v-.8zm2.4-.8h.8v.8h-.8v-.8zm3.6-.8h2.4v2.4h.8v-5.6h-.8V19h-2.4v-2.4h-.8v5.6h.8v-2.4zm-96.6 10.3h1.4v-1.4h-1.4v1.4zm4.2-1.4h-1.4v1.4h1.4v-1.4zm80.8 0v1.4h1.4v-1.4h-1.4zm-4.3 1.4v-1.4h-1.4v1.4h1.4zm-62.3-1.4h-1.4v1.4h1.4v-1.4zm5.7 0h-1.4v1.4h1.4v-1.4zm51 0h-1.4v1.4h1.4v-1.4zm-68.8 1.4h.7v-1.4h-1.4v1.4h.7zm83-1.4H277v1.4h1.4v-1.4zm-73.7 0h-1.4v1.4h1.4v-1.4zm-5.7 0h-1.4v1.4h1.4v-1.4zm-12.1 1.4h.7v-1.4h-1.4v1.4h.7zm13.5 0h1.4v-1.4h-1.4v1.4zm38.3-1.4h-1.4v1.4h1.4v-1.4zm-8.5 0h-1.4v1.4h1.4v-1.4zm21.2 1.4h1.4v-1.4h-1.4v1.4zm-17 0h1.4v-1.4h-1.4v1.4zm12.8-1.4h-1.4v1.4h1.4v-1.4zm-38.3 0v1.4h1.4v-1.4h-1.4zm63.8 0h-1.4v1.4h1.4v-1.4zm-5.7 0h-1.4v1.4h1.4v-1.4zm-8.5 0h-1.4v1.4h1.4v-1.4zm2.1 1.4h.7v-1.4h-1.4v1.4h.7zm-19.1-1.4h-1.4v1.4h1.4v-1.4zm-24.1 1.4h1.4v-1.4h-1.4v1.4zm38.3-1.4h-1.4v1.4h1.4v-1.4zm-32.6 1.4h1.4v-1.4h-1.4v1.4zm-8.5 0h1.4v-1.4h-1.4v1.4zm7.1-1.4h-1.4v1.4h1.4v-1.4zm11.3 0h-1.4v1.4h1.4v-1.4zm17 0h-1.4v1.4h1.4v-1.4zm-6.4 1.4h.7v-1.4h-1.4v1.4h.7zm-16.3-1.4h-1.4v1.4h1.4v-1.4zm52.5 1.4h1.4v-1.4h-1.4v1.4zm-96.4 0h1.4v-1.4h-1.4v1.4zm38.3-19.7V9h-1.4v1.5c1.4 0 0 0 1.4-.1zm-38.3.1c1.4 0 0 0 1.4-.1V9h-1.4v1.5zm52.4-.1V9h-1.4v1.5c1.5 0 0 0 1.4-.1zm-11.3 0V9h-1.4v1.5c1.4 0 0 0 1.4-.1zm8.5 0V9h-1.4v1.5c1.4 0 0 0 1.4-.1zm-5.7 0V9h-1.4v1.5c1.4 0 0 0 1.4-.1zm2.9 0V9h-1.4v1.5c1.4 0 0 0 1.4-.1zm-14.2 0V9h-1.4v1.5c1.4 0 0 0 1.4-.1zm-14.2 0V9h-1.4v1.5c1.4 0 0 0 1.4-.1zm-2.8 0V9h-1.4v1.5c1.4 0 0 0 1.4-.1zm14.2 0V9h-1.4v1.5c1.4 0 0 0 1.4-.1zm-17.1 0V9h-1.4v1.5c1.5 0 0 0 1.4-.1zm8.6 0V9h-1.4v1.5c1.4 0 0 0 1.4-.1zm5.6 0V9h-1.4v1.5c1.4 0 0 0 1.4-.1zm-2.8 0V9h-1.4v1.5c1.4 0 0 0 1.4-.1zm68 0V9h-1.4v1.5c1.4 0 0 0 1.4-.1zm-8.5 0V9h-1.4v1.5c1.4 0 0 0 1.4-.1zm2.8 0V9h-1.4v1.5c1.5 0 0 0 1.4-.1zm2.9 0V9h-1.4v1.5c1.4 0 0 0 1.4-.1zm-8.5 0V9h-1.4v1.5c1.4 0 0 0 1.4-.1zm-25.5 0V9h-1.4v1.5c1.4 0 0 0 1.4-.1zm42.5 0V9h-1.4v1.5c1.4 0 0 0 1.4-.1zm-87.9 0V9h-1.4v1.5c1.4 0 0 0 1.4-.1zm85.1 0V9H277v1.5c1.4 0 0 0 1.4-.1zm-17.1 0V9h-1.4v1.5c1.5 0 0 0 1.4-.1zm-14.1 0V9h-1.4v1.5c1.4 0 0 0 1.4-.1zm-2.9 0V9h-1.4v1.5c1.5 0 0 0 1.4-.1zm-2.8 0V9h-1.4v1.5c1.4 0 0 0 1.4-.1zm8.5 0V9h-1.4v1.5c1.4 0 0 0 1.4-.1zm5.7 0V9h-1.4v1.5c1.4 0 0 0 1.4-.1zm-2.9 0V9h-1.4v1.5c1.5 0 0 0 1.4-.1zm5.7 0V9h-1.4v1.5c1.4 0 0 0 1.4-.1zm-39.7 0V9h-1.4v1.5c1.4 0 0 0 1.4-.1zm-28.3 0V9h-1.4v1.5c1.4 0 0 0 1.4-.1zm-2.9 0V9h-1.4v1.5c1.5 0 0 0 1.4-.1zm103.2 81.2h-1.4V93h1.4v-1.4zm0 5.7h-1.4v1.4h1.4v-1.4zm0-2.9h-1.4v1.4h1.4v-1.4zm0-14.2h-1.4v1.4h1.4v-1.4zm0-5.6h-1.4V76h1.4v-1.4zm0 8.5h-1.4v1.4h1.4v-1.4zm0 2.8h-1.4v1.4h1.4v-1.4zm0 2.8h-1.4v1.4h1.4v-1.4zm0-11.3h-1.4v1.4h1.4v-1.4zm0 22.7h-1.4v1.4h1.4v-1.4zm0 2.8h-1.4v1.4h1.4v-1.4zm-5.4-22h1.4v16.2h-1.4V80.9zm8.1 0h1.4v16.2h-1.4V80.9zm-115.2-6.2h-1.4v1.4h1.4v-1.4zm0 11.4h-1.4v1.4h1.4v-1.4zm-1.4 18.4h1.4v-1.4h-1.4v1.4zm1.4-4.2h-1.4v1.4h1.4v-1.4zm0-11.4h-1.4v1.4h1.4v-1.4zm0-5.6h-1.4v1.4h1.4v-1.4zm0 8.5h-1.4v1.4h1.4v-1.4zm0 2.8h-1.4V96h1.4v-1.4zm0-17h-1.4V79h1.4v-1.4zm0 19.8h-1.4v1.4h1.4v-1.4zm0-17h-1.4v1.4h1.4v-1.4zm-5.4.7h1.4v16.2h-1.4V81.1zm8.1 0h1.4v16.2H181V81.1zm-13.9 50.8h2v2h-2v-2zm2 2h2v2h-2v-2zm2 2h2v2h-2v-2zm0-4h2v2h-2v-2zm-4 4h2v2h-2v-2zm7.6 3h2v2h-2v-2zm2 2h2v2h-2v-2zm2 2.1h2v2h-2v-2zm0-4.1h2v2h-2v-2zm-4.1 4.1h2v2h-2v-2zm123.3-6.6h2v2h-2v-2zm-2-2h2v2h-2v-2zm-2-2h2v2h-2v-2zm0 4h2v2h-2v-2zm4-4h2v2h-2v-2zm-7.6 11.6h2v2h-2v-2zm-2-2.1h2v2h-2v-2zm-2-2h2v2h-2v-2zm0 4.1h2v2h-2v-2zm4.1-4.1h2v2h-2v-2zM301 20.6h2v2h-2v-2zm-2-2h2v2h-2v-2zm-2-2h2v2h-2v-2zm0 4h2v2h-2v-2zm4.1-4h2v2h-2v-2zm-139.1 4h2v2h-2v-2zm2-2h2v2h-2v-2zm2-2h2v2h-2v-2zm0 4h2v2h-2v-2zm-4.1-4h2v2h-2v-2zm43.4 32.2l1-1-1-1-1 1 1 1zm-11 11.1l-1-1-1 1 1 1 1-1zm9-9.1l1-1-1-1-1 1 1 1zm-13 13.1l-1-1-1 1 1 1 1-1zm-3 1l-1 1 1 1 1-1-1-1zm13-11.1l-1-1-1 1 1 1 1-1zm-4 4.1l-1-1-1 1 1 1 1-1zm-4 4l-1-1-1 1 1 1 1-1zm10-10.1l-1-1-1 1 1 1 1-1zm10-10l-1-1-1 1 1 1 1-1zm-14 14l-1-1-1 1 1 1 1-1zm12-12l-1-1-1 1 1 1 1-1zm-4 2l1 1 1-1-1-1-1 1zm55.9 5l1 1 1-1-1-1-1 1zm-9-9l1-1-1-1-1 1 1 1zm16 14l-1 1 1 1 1-1-1-1zm-9-7l1 1 1-1-1-1-1 1zm-4-4l1 1 1-1-1-1-1 1zm15 13l-1 1 1 1 1-1-1-1zm-5-5l-1-1-1 1 1 1 1-1zm-12-10l1 1 1-1-1-1-1 1zm23 21l-1 1 1 1 1-1-1-1zm-10-10l-1 1 1 1 1-1-1-1zm8 8l-1 1 1 1 1-1-1-1zm-2-2l-1 1 1 1 1-1-1-1zm-14-12l1-1-1-1-1 1 1 1zm10.2 67.6l1 1 1-1-1-1-1 1zm4-4l1 1 1-1-1-1-1 1zm2-2l1 1 1-1-1-1-1 1zm4-2l-1-1-1 1 1 1 1-1zm-12 10l1 1 1-1-1-1-1 1zm0 2l-1-1-1 1 1 1 1-1zm4-6l1 1 1-1-1-1-1 1zm-81-3.9l-1-1-1 1 1 1 1-1zm2 2l-1-1-1 1 1 1 1-1zm2 2l-1-1-1 1 1 1 1-1zm4 4l-1-1-1 1 1 1 1-1zm-2-2l-1-1-1 1 1 1 1-1zm4 4l-1-1-1 1 1 1 1-1zm-12-12l-1-1-1 1 1 1 1-1zm12 14l1 1 1-1-1-1-1 1zm.2 9.7l-14.7-14.7 1-1 14.7 14.7-1 1zm65.4-.9l-1-1 14.1-14.1 1 1-14.1 14.1zm-3-89.5l1-1 16 16.1-1 1-16-16.1zm-61.1-1.1l1 1-16 16.1-1-1 16-16.1zm30.9 79.6h2.7v2.7h-2.7v-2.7zm2.7-2.8h2.7v2.7h-2.7v-2.7zm2.7-2.7h2.7v2.7h-2.7v-2.7zm2.8-2.7h2.7v2.7H241v-2.7zm2.7-2.8h2.7v2.7h-2.7v-2.7zm2.7-2.7h2.7v2.7h-2.7v-2.7zm2.7-2.7h2.7v2.7h-2.7v-2.7zm2.8-2.8h2.7v2.7h-2.7v-2.7zm2.7-2.7h2.7v2.7h-2.7v-2.7zm2.7-2.7h2.7v2.7h-2.7v-2.7zm2.8-2.7h2.7v2.7h-2.7V92zm2.7-11v10.9h2.7V75.6h-2.7v-2.7h-2.7v2.7h2.7V81zm-5.5-13.6h-2.7v2.7h2.7v2.7h2.7v-2.7h-2.7v-2.7zm-4.5-2.7H241v2.7h13.6v-2.7h-1.8zm4.5 13.6v-2.7h-2.7v-2.7h-2.8v-2.8h-8.1v2.7h2.7v2.8h5.5v2.7h2.7V81h2.7v-2.7zm-8.2-5.5zm8.2 11h2.7v2.7h-2.7v-2.7zM230 116.5h2.7v2.7H230v-2.7zm-2.7-2.7h2.7v2.7h-2.7v-2.7zm-2.7-2.7h2.7v2.7h-2.7v-2.7zm-2.8-2.8h2.7v2.7h-2.7v-2.7zm-2.7-2.7h2.7v2.7h-2.7v-2.7zm-2.7-2.7h2.7v2.7h-2.7v-2.7zm-2.8-2.8h2.7v2.7h-2.7v-2.7zm-2.7-2.7h2.7v2.7h-2.7v-2.7zm-2.7-2.7h2.7v2.7h-2.7v-2.7zm49-5.5v-2.7h-5.4v2.7H241V92h-11v2.7h-5.5V92h-8.1v-2.8H211v-2.6h-2.7v2.7h2.6v2.6h2.7v2.8h2.8v2.7h2.7v2.7h2.7v2.7h2.8v2.8h2.7v2.7h2.7v2.7h2.8v2.8h2.7V111h2.7v-2.7h2.7v-2.7h2.8v-2.8h2.7v-2.7h2.7v-2.7h2.7v-2.7h2.7v-2.8h2.7v-2.7zM205.5 92h2.7v2.7h-2.7V92zm-2.8-13.7v13.6h2.7V75.6h-2.7v2.7zm2.8-5.4h2.7v2.7h-2.7v-2.7zm2.7-2.8h2.7v2.7h-2.7v-2.7zm2.7-2.7h2.7v2.7h-2.7v-2.7zm8.2 0h8.2v-2.7h-13.7v2.7h5.5zm19.1 0h2.7v2.7h-2.7v-2.7zm-2.7 2.7h2.7v2.7h-2.7v-2.7zm-2.7 2.8h2.7v2.7h-2.7v-2.7zm-2.8-2.8h2.7v2.7H230v-2.7zm-2.7-2.7h2.7v2.7h-2.7v-2.7zM208.6 132h1.8v1.8h-1.8V132zm1.8 5.4h-1.8v5.4h9V141h-7.2v-3.6h5.4v-1.8h-5.4v1.8zm5.4-5.4h1.8v3.6h-1.8V132zm-5.4-1.8h5.4v1.8h-5.4v-1.8zm10.8 9h1.8v1.8h-1.8v-1.8zm7.2-1.8h1.8v3.6h-1.8v-3.6zM223 141h5.4v1.8H223V141zm1.8-5.4h3.6v1.8h-3.6v-1.8zm-1.8-5.4h5.4v1.8H223v-1.8zm-1.8 1.8h1.8v1.8h-1.8V132zm7.2 0h1.8v3.6h-1.8V132zm10.8-1.8h-1.8v1.8h-1.8v1.8h1.8v7.2h-3.6v1.8h9V141h-3.6v-10.8zm-5.4 3.6h1.8v1.8h-1.8v-1.8zm12.6-1.8h1.8v1.8h-1.8V132zm7.2 0h1.8v3.6h-1.8V132zm-5.4 5.4h-1.8v5.4h9V141h-7.2v-3.6h5.4v-1.8h-5.4v1.8zm0-7.2h5.4v1.8h-5.4v-1.8z"/></svg>