<svg id="Layer_1" xmlns="http://www.w3.org/2000/svg" viewBox="0 0 310 155" width="310" height="155"><style>.st0{fill:#231f20}</style><path class="st0" d="M134.8 96.9h1.4v1.4h-.7-.7v-1.4zm0-1.5h1.4V94h-1.4v1.4zm0 14.2h1.4v-1.4h-1.4v1.4zm0-17h1.4v-1.4h-1.4v1.4zm0 11.3h1.4v-1.4h-1.4v1.4zm0-2.8h1.4v-1.4h-1.4v1.4zm0 5.7h1.4v-1.4h-1.4v1.4zm1.4-34.1v-1.4h-1.4v1.4h1.4zm-1.4 2.9h1.4v-1.4h-1.4v1.4zm0 2.8h1.4V77h-1.4v1.4zm0 5.7h1.4v-1.4h-1.4v1.4zm0 5.7h1.4v-1.4h-1.4v1.4zm0-8.5h1.4v-1.4h-1.4v1.4zm0 5.6h1.4v-1.4h-1.4v1.4zm-77.4 56.4h1.4v-1.4h-1.4v1.4zm2.9 0h1.4v-1.4h-1.4v1.4zm2.8 0h1.4v-1.4h-1.4v1.4zm25.5 0H90v-1.4h-1.4v1.4zm-22.7 0h1.4v-1.4h-1.4v1.4zm25.5 0h1.4v-1.4h-1.4v1.4zm-36.8 0H56v-1.4h-1.4v1.4zm25.5 0h1.4v-1.4h-1.4v1.4zm-8.5 0H73v-1.4h-1.4v1.4zm2.8 0h1.4v-1.4h-1.4v1.4zm22.7 0h1.4v-1.4h-1.4v1.4zm-28.3 0h1.4v-1.4h-1.4v1.4zm31.2 0h1.4v-1.4H100v1.4zm-22.7 0h1.4v-1.4h-1.4v1.4zm8.5 0h1.4v-1.4h-1.4v1.4zm-2.9 0h1.4v-1.4h-1.4v1.4zm11.4 0h1.4v-1.4h-1.4v1.4zm36.6-45.5h1.4V81.6h-1.4v16.2zm9.4-16.2h-1.4v16.2h1.4V81.6zm-118 5.5h1.4v-1.4h-1.4v1.4zm0-2.8h1.4v-1.4h-1.4v1.4zm0-2.8h1.4v-1.4h-1.4v1.4zm0-2.9h1.4v-1.4h-1.4v1.4zm0 19.9h1.4v-1.4h-1.4v1.4zm0 5.6h1.4v-1.4h-1.4v1.4zm0 2.9h1.4v-1.4h-1.4v1.4zm0 2.8h1.4v-1.4h-1.4v1.4zm0-34h1.4v-1.4h-1.4v1.4zm0 25.5h1.4v-1.4h-1.4v1.4zm0-28.3h1.4v-1.4h-1.4V73zm0 19.8h1.4v-1.4h-1.4v1.4zm0 2.8h1.4v-1.4h-1.4v1.4zm0-5.6h1.4v-1.4h-1.4V90zm-4 8h1.4V81.8h-1.4V98zm8.1 0h1.4V81.8h-1.4V98zm21.3-45.5l-1-1-1 1 1 1 1-1zm2-2l-1-1-1 1 1 1 1-1zm6-8l1 1 1-1-1-1-1 1zm-4 6l-1-1-1 1 1 1 1-1zm2-2l-1-1-1 1 1 1 1-1zm-8 8l-1-1-1 1 1 1 1-1zm-4 4l-1-1-1 1 1 1 1-1zm-6 6.1l-1-1-1 1 1 1 1-1zm2-2.1l-1-1-1 1 1 1 1-1zm2-2l-1-1-1 1 1 1 1-1zm4-4l-1-1-1 1 1 1 1-1zm12-12l-1-1-1 1 1 1 1-1zm-24 22.1l1 1 1-1-1-1-1 1zm77.9-15.1l-1-1-1 1 1 1 1-1zm13 13l-1 1 1 1 1-1-1-1zm-2-2l-1 1 1 1 1-1-1-1zm-17-15.1c1 1.1 0 0 1 1l1-1-1-1-1 1zm3 3.1l1-1-1-1-1 1 1 1zm12 10l-1 1 1 1 1-1-1-1zm-4-4l-1 1 1 1 1-1-1-1zm-4-4l-1 1 1 1 1-1-1-1zm-13-11.1l1 1 1-1-1-1-1 1zm15 13.1l-1 1 1 1 1-1-1-1zm-12-10.1l1-1-1-1-1 1 1 1zm16 14.1l-1 1 1 1 1-1-1-1zm-15-13.1l1 1 1-1-1-1-1 1zm11.1 72.7l1 1 1-1-1-1-1 1zm-2 4l-1-1-1 1 1 1 1-1zm0-2l1 1 1-1-1-1-1 1zm-11 11l-1 1 1 1 1-1-1-1zm3-3l1 1 1-1-1-1-1 1zm2-2l1 1 1-1-1-1-1 1zm-4 4l1 1 1-1-1-1-1 1zm16-16l1 1 1-1-1-1-1 1zm4-4l1 1 1-1-1-1-1 1zm-2 2l1 1 1-1-1-1-1 1zm-11 11l-1 1 1 1 1-1-1-1zm17-15l-1-1-1 1 1 1 1-1zm-10 8l1 1 1-1-1-1-1 1zm-57.9 15.1l-1-1-1 1 1 1 1-1zm-10-10.1l-1-1-1 1 1 1 1-1zm-12-12l-1-1-1 1 1 1 1-1zm13 15l1-1-1-1-1 1c1 1.1 0 0 1 1zm6 4.1l-1 1 1 1 1-1-1-1zm3 5l1 1 1-1-1-1-1 1zm-7-9l-1 1 1 1 1-1-1-1zm-5-5.1l-1-1-1 1 1 1 1-1zm7 7.1l-1 1 1 1 1-1-1-1zm-15-15.1l-1-1-1 1 1 1 1-1zm4 4l-1-1-1 1 1 1 1-1zm-2-2l-1-1-1 1 1 1 1-1zm4 4l-1-1-1 1 1 1 1-1zm-11.5 1.1l16.1 16.1 1-1-16.1-16.1-1 1zm77.1 15l1 1 16.1-16.1-1-1-16.1 16.1zm1-92.7l-1 1 16.1 16.1 1-1-16.1-16.1zm-61.1.9l-1-1-16 16.1 1 1 16-16.1zM110 10.7H44.9v1.4H110v-1.4zm-76.3 5.7h-.8v4h.8v-4zm2.4-.8h-2.4v.8h2.4v-.8zm.8 1.6v-.8h-.8v.8h.8zm-.8 4v-.8h-2.4v.8h2.4zm.8-1.6h-.8v.8h.8v-.8zm2.8 1.6h2.4v-.8h-2.4v.8zm3.2-.8v-4h-.8v4h.8zm-.8-4.8h-2.4v.8h2.4v-.8zm-2.4.8h-.8v4h.8v-4zm6 1.6h.8v-.8h-.8v-1.6h-.8v5.6h.8V18zm2.4 1.6v1.6h.8v-5.6h-.8v3.2h-.8v.8h.8zm-.8-.8V18h-.8v.8h.8zm7.6 0h-1.6v.8h.8v.8h.8v-1.6zm-.8 1.6h-2.4v.8h2.4v-.8zm0-4.8h-2.4v.8h2.4v-.8zm-3.2.8v4h.8v-4h-.8zm4 .8v-.8h-.8v.8h.8zm6 .8v-1.6h-.8V18h.8zm-.8 2.4v-.8h-.8v.8h.8zm-.8-.8v-.8h.8V18h-2.4v-1.6h2.4v-.8h-3.2v5.6h.8v-2.4h.8v.8h.8zm1.6 1.6v-.8h-.8v.8h.8zm2.8-5.6v.8h2.4v-.8h-2.4zm0 2.4v-1.6h-.8v4.8h.8v-2.4h2.4v2.4h.8v-4.8h-.8V18h-2.4zm9.2-2.4h-4v.8h1.6v4.8h.8v-4.8h1.6v-.8zm2 0v4.8h.8v-4.8h-.8zm4 0h-.8v4.8h.8v-4.8zm-.8 5.6v-.8h-2.4v.8h2.4zm2.8-5.6v5.6h4v-.8h-3.2v-4.8h-.8zm6.8 0v.8h2.4V18h-2.4v-1.6h-.8v4.8h.8v-2.4h2.4v2.4h.8v-4.8h-.8v-.8h-2.4zm5.2.8h1.6v4.8h.8v-4.8h1.6v-.8h-4v.8zm6 4v.8h4v-.8h-1.6v-4h1.6v-.8h-4v.8h1.6v4h-1.6zm6.8-4.8v.8h2.4v4h-2.4v.8h2.4v-.8h.8v-4h-.8v-.8h-2.4zm-.8.8v4h.8v-4h-.8zm6.8 1.6h.8v-.8h-.8v-1.6h-.8v5.6h.8V18zm1.6.8V18h-.8v.8h.8zm.8.8v1.6h.8v-5.6h-.8v3.2h-.8v.8h.8zm3.6-1.6v.8h2.4V18h-2.4zm2.4 2.4h-3.2v.8h3.2v-.8zm-3.2-4V18h.8v-1.6h-.8zm4 2.4h-.8v1.6h.8v-1.6zm0-3.2h-3.2v.8h3.2v-.8zm-3.2 8.1h-1.4v1.4h1.4v-1.4zm-59.5 0h-1.4v1.4h1.4v-1.4zm53.8 0h-1.4v1.4h1.4v-1.4zm-52.4 1.4H61v-1.4h-1.4v1.4zm29 0h.7v-1.4h-1.4v1.4h.7zm-23.3 0h1.4v-1.4h-1.4v1.4zm31.2 0h1.4v-1.4h-1.4v1.4zm11.3 0h1.4v-1.4h-1.4v1.4zm-70.9 0h1.4v-1.4h-1.4v1.4zm56.7 0H95v-1.4h-1.4v1.4zm5.7-1.4v1.4h1.4v-1.4h-1.4zm2.8 1.4h1.4v-1.4h-1.4v1.4zm11.4-1.4v1.4h1.4v-1.4h-1.4zm-22.7 1.4h1.4v-1.4h-1.4v1.4zm-41.1-1.4h-1.4v1.4h1.4v-1.4zm4.2 1.4h1.4v-1.4h-1.4v1.4zm-1.4-1.4h-1.4v1.4h1.4v-1.4zm9.9 1.4h1.4v-1.4h-1.4v1.4zm-17 0h1.4v-1.4h-1.4v1.4zm-2.8 0H44v-1.4h-1.4v1.4zm-1.4 0v-1.4h-1.4v1.4h1.4zm26.9 0h1.4v-1.4h-1.4v1.4zm9.9 0v-1.4h-1.4v1.4H78zm7.1-1.4v1.4h1.4v-1.4h-1.4zm-14.2 1.4h1.4v-1.4h-1.4v1.4zm12.8 0v-1.4h-1.4v1.4h1.4zm-9.9 0h1.4v-1.4h-1.4v1.4zm7 0v-1.4h-1.4v1.4h1.4zm24.2 0h1.4v-1.4H105v1.4zm-54.7 52h-2.2V88h2.2V77.1zm2.2 15.2V88h-2.2v4.4l2.2-.1-.1 2.2h2.2v-2.2h-2.1zm4.3 2.2h-2.2v2.2H59v-2.2h-2.2zm6.6 10.9v-8.7H59v2.2h2.2V112h2.2v-2.2h2.1v-2.2h-2.1v-2.2zm2.1 2.2h2.2v-2.2h-2.2v2.2zm4.4-4.4h-2.2v2.2h2.2v-2.2l2.2.1v-2.2h-2.2v2.1zm2.2-2.1h2.2v-2.2h-2.2v2.2zm15.2-2.2v-2.2H74.2v2.2h13.1zm0-30.5v-2.2H59v2.2h28.3zm4.4 26.1h-4.4v2.2h4.4v-2.2zm-2.2-26.1h-2.2v2.2h4.4v-2.2h-2.2zm4.4 24h2.2V88h-2.2v4.4l-2.2-.1v2.2h2.2v-2.1zm-2.2-21.8v2.2h2.2v-2.2h-2.2zm4.4 2.2h-2.2v4.3h2.2v-4.3zm2.2 13v-8.7h-2.2V88h2.2v-2.2zM59 68.4h-4.4v2.2H59v-2.2zM52.5 75v-2.2h2.1v-2.2h-2.2v2.2h-2.1v4.3h2.2V75zm56.7 15.2v-8.7H107v10.8h2.2v-2.1zm-2.2 4.3v-2.2h-2.2v4.4h2.2v-2.2zm-2.2 2.2h-2.2v2.2h2.2v-2.2zm-6.6 4.4h4.4v-2.2h-4.4v2.2c-1.4-.1-2.9-.1-4.3-.1v6.6h-2.2v2.2h2.2v2.2h2.2v-8.8h2.1v-2.1zm-8.7 4.3v2.2h2.2v-2.2h-2.2zm0 0v-2.2h-2.1V101h-8.8v2.2h8.7v2.2h2.2zm13.1-32.7h-4.4v2.2h4.4v-2.2zm0 2.2v2.2h2.2v-2.2h-2.2zm2.2 2.2v4.4h2.2v-4.4h-2.2zm-45.8 0v2.2h2.2v-2.2H59zm2.2 2.2v2.2h2.2v-2.2h-2.2zm2.2 8.7h2.2v-6.5h2.1v-2.2h-2.2v2.2h-2.1V88zm6.5-10.9h-2.2v2.2h2.2v-2.2zm4.3 6.5v-4.3H72v6.5h2.2v-2.2zm13.1-2.1v-4.4h-2.2v6.6h2.2v-2.2zM85.1 88h2.2v-2.2h-2.2V88zm-4.4-2.2h-6.5V88h6.6l-.1-2.2h2.2v-6.5h-2.1v-2.2h-6.6v2.2h6.5v6.5c-2.2 0 0 0 0 0zM11.9 17.1h-1.2v1.2h1.2v-1.2zm1.3-1.2H12v1.2h1.2v-1.2zm1.2-1.3h-1.2v1.2h1.2v-1.2zm1.2-1.2h-1.2v1.2h1.2v-1.2zm1.3-1.2h-1.2v1.2h1.2v-1.2zm-2.4 13.5h1.2v-1.2h-1.2v1.2zM12 24.5v2.4h2.4v-1.2h-1.2v-1.2H12zm1.2-.1h1.2V22h-1.2v2.4zm3.7-1.2h-1.2v1.2h1.2v-1.2zm1.2-1.2h-1.2v1.2h1.2V22zm1.2-1.2h-1.2V22h1.2v-1.2zm.1-.1h1.2v-1.2h-1.2v1.2zm-.1-8.6v-1.2h-2.4v1.2h1.2v1.3h1.2v-1.3zm-1.2 3.7v-2.4h-1.2v2.4h1.2zm1.3 1.3h-2.5v-1.2h-1.2v2.4h4.9v1.2h1.2v-2.4h-2.4zm-7.5 3.6h2.5V22h1.2v-2.5h-4.9v-1.2H9.5v2.4h2.4zm124.3 114H135v1.2h1.2v-1.2zm1.2-1.2h-1.2v1.2h1.2v-1.2zm.1 0h1.2v-1.2h-1.2v1.2zm1.2-1.2h1.2v-1.2h-1.2v1.2zm2.4-2.5h-1.2v1.2h1.2v-1.2zm.1 0h1.2v1.2h1.2v-2.4h-2.4v1.2zm-2.5 13.5h1.2v-1.2h-1.2v1.2zm-1.3-1.2h-1.2v2.5h2.5v-1.2h-1.3v-1.3zm.1-2.4v2.4h1.2v-2.4h-1.2zm2.4 2.4h1.2v-1.2h-1.2v1.2zm1.3-1.2h1.2v-1.2h-1.2v1.2zm1.2-1.3h1.2v-1.2h-1.2v1.2zm1.2-1.2h1.2v-1.2h-1.2v1.2zm-2.4-4.9h1.2v-2.4h-1.2v2.4zm-2.8 4.9h.3v1.2h1.2v-2.4H135V136h-1.2v2.4h4.6zm6.5-3.6h-3.8v-1.3h-1.2v2.5h5v1.2h1.2v-2.4h-1.2zm-8.7-114.7v-1.2H135v1.2h1.2zm1.2.1h-1.2v1.2h1.2v-1.2zm.1 1.2v1.2h1.2v-1.2h-1.2zm1.2 2.4h1.2v-1.2h-1.2v1.2zm2.4.1h-1.2v1.2h1.2v-1.2zm-1.2-11.2v-1.2h-1.2v1.2h1.2zm-2.5-1.2h1.3v-1.2h-2.5v2.4h1.2v-1.2zm1.3 1.3h-1.2v2.4h1.2v-2.4zm1.2 1.2h1.2v-1.2h-1.2V14zm2.5 0h-1.2v1.2h1.2V14zm1.2 2.4v-1.2h-1.2v1.2h1.2zm1.2.1h-1.2v1.2h1.2v-1.2zm.1 2.4h-5v2.5h1.2v-1.3h5v-2.4h-1.2v1.2zm-3.7 7.4h2.4v-2.4h-1.2v1.2h-1.2v1.2zm1.2-3.7v-1.2h-1.2v2.4h1.2v-1.2zm-7.4-4.9h4.9v-2.5h-1.2v1.3h-4.9v2.4h1.2v-1.2zM11.3 138.5v-1.2h-1.2v1.2h1.2zm1.2 1.2v-1.2h-1.2v1.2h1.2zm.1.1v1.2h1.2v-1.2h-1.2zm1.2 1.2v1.2H15V141h-1.2zm1.2 2.4h1.2v-1.2H15v1.2zm0-13.5h-1.2v1.2H15v-1.2zm-2.5-1.2h-1.2v2.4h1.2v-1.2h1.3v-1.2h-1.3zm1.3 3.7v-1.3h-1.2v2.5h1.2v-1.2zm2.5-1.3h-1.2v1.2h1.2v-1.2zm0 1.3v1.2h1.2v-1.2h-1.2zm1.2 1.2v1.2h1.2v-1.2h-1.2zm2.4 2.4v-1.2h-1.2v1.2h1.2zm.1 1.3h-5v2.4h1.2v-1.2h5v-2.4H20v1.2zm-2.5 6.2h-1.2v1.2h2.4v-2.5h-1.2v1.3zm-1.2-3.7v2.4h1.2v-2.4h-1.2zm-4.7-3.8H15v-2.4h-1.2v1.2H8.9v2.5h1.2V136h1.5zm278.2-43.4h1.4v-1.4h-1.4v1.4zm0-2.8h1.4v-1.4h-1.4v1.4zm0 5.6h1.4V94h-1.4v1.4zm0 2.9h1.4v-1.4h-1.4v1.4zm0-11.4h1.4v-1.4h-1.4v1.4zm0 17h1.4v-1.4h-1.4v1.4zm0 2.9h1.4v-1.4h-1.4v1.4zm0 2.8h1.4v-1.4h-1.4v1.4zm1.4-36.9v-1.4h-1.4v1.4h1.4zm-1.4 2.9h1.4v-1.4h-1.4v1.4zm0 2.8h1.4V77h-1.4v1.4zm0 5.7h1.4v-1.4h-1.4v1.4zm0-2.8h1.4v-1.4h-1.4v1.4zm0 19.8h1.4v-1.4h-1.4v1.4zm-51.9 42.2h1.4v-1.4h-1.4v1.4zm2.9 0h1.4v-1.4h-1.4v1.4zm2.8 0h1.4v-1.4h-1.4v1.4zm-8.5 0h1.4v-1.4h-1.4v1.4zm11.3 0h1.4v-1.4h-1.4v1.4zm5.7 0h1.4v-1.4h-1.4v1.4zm-2.8 0h1.4v-1.4h-1.4v1.4zm-17 0h1.4v-1.4h-1.4v1.4zm-8.5 0h1.4v-1.4h-1.4v1.4zm-14.2 0h1.4v-1.4h-1.4v1.4zm5.7 0h1.4v-1.4h-1.4v1.4zm-2.9 0h1.4v-1.4h-1.4v1.4zm17 0h1.4v-1.4h-1.4v1.4zm-2.8 0h1.4v-1.4h-1.4v1.4zm28.4 0h1.4v-1.4H255v1.4zm-34.1 0h1.4v-1.4h-1.4v1.4zm-2.8 0h1.4v-1.4h-1.4v1.4zm67.8-45.5h1.4V81.6h-1.4v16.2zm9.4-16.2h-1.4v16.2h1.4V81.6zm-118-5.8h1.4v-1.4h-1.4v1.4zm0 22.7h1.4v-1.4h-1.4v1.4zm0-25.5h1.4v-1.4h-1.4V73zm0 11.3h1.4v-1.4h-1.4v1.4zm0 11.3h1.4v-1.4h-1.4v1.4zm0-2.8h1.4v-1.4h-1.4v1.4zm0 17h1.4v-1.4h-1.4v1.4zm0-28.3h1.4v-1.4h-1.4v1.4zm0 5.6h1.4v-1.4h-1.4v1.4zm0 17h1.4v-1.4h-1.4v1.4zm0-14.1h1.4v-1.4h-1.4V90zm0 11.3h1.4v-1.4h-1.4v1.4zm0 5.7h1.4v-1.4h-1.4v1.4zm0-28.4h1.4v-1.4h-1.4v1.4zm-4 19.4h1.4V81.8h-1.4V98zm8.1 0h1.4V81.8h-1.4V98zm22.3-46.5l1-1-1-1-1 1 1 1zm1-3l1 1 1-1-1-1-1 1zm4-2l-1-1-1 1 1 1 1-1zm-12 12l-1-1-1 1 1 1 1-1zm4-6l1 1 1-1-1-1-1 1zm-4 4l1 1 1-1-1-1-1 1zm12-12l1 1 1-1-1-1-1 1zm-10 10l1 1 1-1-1-1-1 1zm12-12l1 1 1-1-1-1-1 1zm-19 19l-1 1 1 1 1-1-1-1zm-3 3.1l1 1 1-1-1-1-1 1zm-2 2l1 1 1-1-1-1-1 1zm8-6.1l-1-1-1 1 1 1 1-1zm80.9 2l-1 1 1 1 1-1-1-1zm-2-2l-1 1 1 1 1-1-1-1zm-12-10l1-1-1-1-1 1 1 1zm3 3l1 1 1-1-1-1-1 1zm-2-2l1 1 1-1-1-1-1 1zm6 6l1 1 1-1-1-1-1 1zm3 1l-1 1 1 1 1-1-1-1zm-16-14.1l1-1-1-1-1 1 1 1zm1 1l1 1 1-1-1-1-1 1zm-4-4l1 1 1-1-1-1-1 1zm25 23.1l-1 1 1 1 1-1-1-1zm-19-17.1c1 1.1 0 0 1 1l1-1-1-1-1 1zm8 8.1l1 1 1-1-1-1-1 1zm12.1 53.6l1-1-1-1-1 1 1 1zm-5 5l-1-1-1 1 1 1 1-1zm-8 6l1 1 1-1-1-1-1 1zm8-8l1 1 1-1-1-1-1 1zm-4 6l-1-1-1 1 1 1 1-1zm6-8l1 1 1-1-1-1-1 1zm-11 13l1-1-1-1-1 1 1 1zm6-6l1-1-1-1-1 1 1 1zm-16 14l-1 1 1 1 1-1-1-1zm3-3l1 1 1-1-1-1-1 1zm2-2l1 1 1-1-1-1-1 1zm-4 4l1 1 1-1-1-1-1 1zm7-7l-1 1 1 1 1-1-1-1zm-70.9-12l-1-1-1 1 1 1 1-1zm2 2l-1-1-1 1 1 1 1-1zm-4-4l-1-1-1 1 1 1 1-1zm6 6l-1-1-1 1 1 1 1-1zm15 17.1l1-1-1-1-1 1 1 1zm-8-8.1l1-1-1-1-1 1c1 1.1 0 0 1 1zm-3-5l-1-1-1 1 1 1 1-1zm-2-2l-1-1-1 1 1 1 1-1zm4 4l-1-1-1 1 1 1 1-1zm5 5.1l-1 1 1 1 1-1-1-1zm-2-2l-1 1 1 1 1-1-1-1zm7 9l1 1 1-1-1-1-1 1zm-3-5l-1 1 1 1 1-1-1-1zm-22.5-10l16.1 16.1 1-1-16.1-16.1-1 1zm77.1 15l1 1 16.1-16.1-1-1-16.1 16.1zm1-92.7l-1 1 16.1 16.1 1-1-16.1-16.1zm-61.1.9l-1-1-16 16.1 1 1 16-16.1zM265 10.7h-65.1v1.4H265v-1.4zm-73.9 10.5v-.8h-2.4v.8h2.4zm.8-1.6h-.8v.8h.8v-.8zm0-2.4v-.8h-.8v.8h.8zm-3.2-.8h-.8v4h.8v-4zm2.4-.8h-2.4v.8h2.4v-.8zm6 0h-2.4v.8h2.4v-.8zm-2.4.8h-.8v4h.8v-4zm0 4.8h2.4v-.8h-2.4v.8zm3.2-.8v-4h-.8v4h.8zm5.2-.8v1.6h.8v-5.6h-.8v3.2h-.8v.8h.8zm-.8-.8V18h-.8v.8h.8zm-1.6-.8h.8v-.8h-.8v-1.6h-.8v5.6h.8V18zm5.2 2.4h.8v-4h-.8v4zm.8-4.8v.8h2.4v-.8h-2.4zm3.2 3.2h-1.6v.8h.8v.8h.8v-1.6zm0-1.6v-.8h-.8v.8h.8zm-.8 4v-.8h-2.4v.8h2.4zm6.8-3.2v-1.6h-.8V18h.8zm0 3.2v-.8h-.8v.8h.8zm-.8-.8v-.8h-.8v.8h.8zm-3.2-4.8v5.6h.8v-2.4h.8v.8h.8v-.8h.8V18h-2.4v-1.6h2.4v-.8h-3.2zm6.8 2.4v-1.6h-.8v4.8h.8v-2.4h2.4v2.4h.8v-4.8h-.8V18h-2.4zm0-2.4v.8h2.4v-.8h-2.4zm9.2 0h-4v.8h1.6v4.8h.8v-4.8h1.6v-.8zm2 0v4.8h.8v-4.8h-.8zm4 0h-.8v4.8h.8v-4.8zm-.8 5.6v-.8h-2.4v.8h2.4zm2.8-5.6v5.6h4v-.8h-3.2v-4.8h-.8zm6.8 2.4v-1.6h-.8v4.8h.8v-2.4h2.4v2.4h.8v-4.8h-.8V18h-2.4zm0-2.4v.8h2.4v-.8h-2.4zm5.2.8h1.6v4.8h.8v-4.8h1.6v-.8h-4v.8zm6 4v.8h4v-.8h-1.6v-4h1.6v-.8h-4v.8h1.6v4h-1.6zm6.8-4h2.4v-.8h-2.4v.8zm2.4 0v4h.8v-4h-.8zm-3.2 4h.8v-4h-.8v4zm3.2.8v-.8h-2.4v.8h2.4zm6-1.6v1.6h.8v-5.6h-.8v3.2h-.8v.8h.8zm-.8-.8V18h-.8v.8h.8zm-1.6-.8h.8v-.8h-.8v-1.6h-.8v5.6h.8V18zm5.2-1.6V18h.8v-1.6h-.8zm4-.8h-3.2v.8h3.2v-.8zm0 3.2h-.8v1.6h.8v-1.6zm-.8 1.6h-3.2v.8h3.2v-.8zm-2.4-2.4v.8h2.4V18h-2.4zm-46.8 7.1h1.4v-1.4h-1.4v1.4zm34.1 0h1.4v-1.4H260v1.4zm8.5 0h1.4v-1.4h-1.4v1.4zm4.2-1.4h-1.4v1.4h1.4v-1.4zM233 25.1v-1.4h-1.4v1.4h1.4zm-4.2 0h1.4v-1.4h-1.4v1.4zm-17 0h1.4v-1.4h-1.4v1.4zm11.3 0h1.4v-1.4h-1.4v1.4zm-8.5 0h1.4v-1.4h-1.4v1.4zm-8.5-1.4v1.4h1.4v-1.4h-1.4zm48.2 0v1.4h1.4v-1.4h-1.4zm-51 1.4h1.4v-1.4h-1.4v1.4zm-7.1 0v-1.4h-1.4v1.4h1.4zm1.4 0h1.4v-1.4h-1.4v1.4zm-5.7 0h1.4v-1.4h-1.4v1.4zm75.1-1.4h-1.4v1.4h1.4v-1.4zm-23.4 1.4h.7v-1.4h-1.4v1.4h.7zm19.2 0h1.4v-1.4h-1.4v1.4zm-45.4 0h1.4v-1.4h-1.4v1.4zm22.7-1.4v1.4h1.4v-1.4h-1.4zm5.7 1.4h1.4v-1.4h-1.4v1.4zm-7.1 0v-1.4h-1.4v1.4h1.4zm12.8 0h1.4v-1.4h-1.4v1.4zm-15.7 0v-1.4h-1.4v1.4h1.4zm21.3 0h1.4v-1.4h-1.4v1.4zm-36.8 0h1.4v-1.4h-1.4v1.4zm-11.4 0h1.4v-1.4h-1.4v1.4zm-8.5 0h1.4v-1.4h-1.4v1.4zm48.2 0h1.4v-1.4h-1.4v1.4zm-81.7-8h-1.2v1.2h1.2v-1.2zm1.3-1.2H167v1.2h1.2v-1.2zm1.2-1.3h-1.2v1.2h1.2v-1.2zm1.2-1.2h-1.2v1.2h1.2v-1.2zm1.3-1.2h-1.2v1.2h1.2v-1.2zm-2.4 13.5h1.2v-1.2h-1.2v1.2zm-1.3-1.2H167v2.4h2.4v-1.2h-1.2v-1.2zm0-.1h1.2V22h-1.2v2.4zm2.5 0h1.2v-1.2h-1.2v1.2zm1.2-1.2h1.2V22h-1.2v1.2zm1.2-1.2h1.2v-1.2h-1.2V22zm1.3-1.3h1.2v-1.2h-1.2v1.2zm-1.3-7.3h1.2v-1.3-1.2h-2.4v1.2h1.2v1.3zm0 2.4v-2.4h-1.2v2.4h1.2zm-2.5 3.7h-4.9v-1.2h-1.2v2.4h4.9V22h1.2v-2.5zm6-2.4h-4.7v-1.2h-1.2v2.4h4.9v1.2h1.2v-2.4h-.2zm114.6 117.6H290v1.2h1.2v-1.2zm1.2-1.2h-1.2v1.2h1.2v-1.2zm.1 0h1.2v-1.2h-1.2v1.2zm1.2-1.2h1.2v-1.2h-1.2v1.2zm2.4-2.5h-1.2v1.2h1.2v-1.2zm-2.4 13.5h1.2v-1.2h-1.2v1.2zm-1.3 0v-1.2h-1.2v2.5h2.5v-1.2l-1.3-.1zm.1-3.6v2.4h1.2v-2.4h-1.2zm2.4 2.4h1.2v-1.2h-1.2v1.2zm1.3-1.2h1.2v-1.2h-1.2v1.2zm1.2-1.3h1.2v-1.2h-1.2v1.2zm1.2-1.2h1.2v-1.2h-1.2v1.2zm-2.4-8.6h1.2v1.2h1.2v-2.4h-2.4v1.2zm0 3.7h1.2v-2.4h-1.2v2.4zm-3.8 4.9h1.3v1.2h1.2v-2.4H290V136h-1.2v2.4h3.6zm7.5-3.6h-3.8v-1.3h-1.2v2.5h5v1.2h1.2v-2.4h-1.2zm-8.7-114.7v-1.2H290v1.2h1.2zm1.2.1h-1.2v1.2h1.2v-1.2zm.1 1.2v1.2h1.2v-1.2h-1.2zm1.2 2.4h1.2v-1.2h-1.2v1.2zm2.4.1h-1.2v1.2h1.2v-1.2zm-1.2-11.2v-1.2h-1.2v1.2h1.2zm-2.5-1.2h1.3v-1.2h-2.5v2.4h1.2v-1.2zm1.3 1.3h-1.2v2.4h1.2v-2.4zm1.2 1.2h1.2v-1.2h-1.2V14zm2.5 0h-1.2v1.2h1.2V14zm1.2 2.4v-1.2h-1.2v1.2h1.2zm0 1.3h1.2v-1.2h-1.2v1.2zm1.3 0v1.2h-5v2.5h1.2v-1.3h5v-2.4h-1.2zm-3.7 8.6h2.4v-2.4h-1.2v1.2h-1.2v1.2zm1.2-3.7v-1.2h-1.2v2.4h1.2v-1.2zm-7.4-4.9h4.9v-2.5h-1.2v1.3h-4.9v2.4h1.2v-1.2zM165.1 137.3v1.2h1.2v-1.2h-1.2zm1.2 2.4h1.2v-1.2h-1.2v1.2zm1.3.1v1.2h1.2v-1.2h-1.2zm1.2 1.2v1.2h1.2V141h-1.2zm1.2 2.4h1.2v-1.2H170v1.2zm0-13.5h-1.2v1.2h1.2v-1.2zm-2.5-1.2h-1.2v2.4h1.2v-1.2h1.3v-1.2h-1.3zm1.3 3.7v-1.3h-1.2v2.5h1.2v-1.2zm2.5-1.3h-1.2v1.2h1.2v-1.2zm0 1.3v1.2h1.2v-1.2h-1.2zm1.2 1.2v1.2h1.2v-1.2h-1.2zm2.4 2.4v-1.2h-1.2v1.2h1.2zm.1 1.3h-5v2.4h1.2v-1.2h5v-2.4H175v1.2zm-2.5 6.2h-1.2v1.2h2.4v-2.5h-1.2v1.3zm-1.2-3.7v2.4h1.2v-2.4h-1.2zm-2.8-3.8h1.5v-2.4h-1.2v1.2h-4.9v2.5h1.2V136h3.4zm69.7-48h4.4v-2.2H236V88h2.2zm-2.2-8.7h-2.2v6.5h2.2v-6.5zm6.6 0v-2.2H236v2.2h6.6zm0 6.5h2.2v-2.2h-2.2v2.2zm2.2-6.5h-2.2v2.2h2.2v-2.2zm15.6 8.7h2.2v-2.2h-2.2V88zm2.2-6.5v-4.4h-2.2v6.4h2.2v-2zm-11.1-2.2h6.6v-2.2H247V88h11.1v-2.2h-8.9v-2h6.6v-2.2h-6.6v-2.3h2.3zm-32.9 3.1v-5.3h-2.2v6.5h-2.2v2.2h2.2V88h2.2v-5.6zm-6.6-1v2.2h2.2v-2.2H212zm-4.4-4.3V88h2.2v-6.6h2.2v-2.2h-2.2v-2.1h-2.2zM226.1 88h5.6v-2.2h-4.4v-6.5h4.4v-2.2h-11v2.2h4.4v6.5h-4.4V88h5.4zm-29.2-8.7V88h2.2V77.1h-2.2v2.2zm4.4 13V88h-2.2v4.4l2.2-.1-.1 2.2h2.2v-2.2h-2.1zm4.3 2.2h-2.2v2.2h4.4v-2.2h-2.2zm12.8 2.2h-10.6v2.2h10.6v-2.2zm0 8.7v-7.5h-2.2V112h2.2v-2.2h2.1v-2.2h-2.1v-2.2zm2.1 2.2h2.2v-2.2h-2.2v2.2zm4.4-4.3h2.2v-2.2h-2.2v2.2l-2.2-.1v2.2h2.2v-2.1zm2.2-2.2h2.2v-2.2h-2.2v2.2zm24-4.4h-21.9v2.2h33.4v-2.2h-11.5zm-29-28.3h40.4v-2.2h-54.7v2.2h14.3zm40.5 26.1v2.2h4.4v-2.2h-4.4zm2.2-26.1h-2.2v2.2h4.4v-2.2h-2.2zm2.2 2.2v2.2h2.2v-2.2H267zm2.2 21.8h2.2V88h-2.2v4.4l-2.2-.1v2.2h2.2v-2.1zm2.2-19.6h-2.2v4.3h2.2v-4.3zm2.2 13v-8.7h-2.2V88h2.2v-2.2zm-67-15.2h1.2v-2.2h-4.4v2.2h3.2zm-5.4 2.2h-2.1v4.3h2.2c0-1.4 0-2.9-.1-4.3h2.2v-2.2h-2.2v2.2zm43.3 32.6v2.2h2.2v-2.2h-2.2zm0 0v-2.2h-2.1V101h-8.8v2.2h8.7v2.2h2.2zm8.8-2.2V101h-4.4v6.6h-2.2v2.2h2.2v2.2h2.2v-8.8h2.2zm-63.1-19.9h2.2v-2.2h-2.2v2.2zm90.1-2.2h-2.2v2.2h2.2v-2.2zM199 68.5h2.2v-2.2H199v2.2zm-.1 30.4h2.2v-2.2h-2.2v2.2zm70.6-30.4h2.2v-2.2h-2.2v2.2zm2.2 28.3h-2.2V99h2.2v-2.2zm-37.5-34.9h2.2v-2.2h-2.2v2.2z"/></svg>