<svg id="Layer_1" xmlns="http://www.w3.org/2000/svg" viewBox="0 0 310 155"><style>.st0{fill:#231f20}</style><path class="st0" d="M32.4 136.9h2.1v2.1h-2.1v-2.1zm4.1 0h2.1v2.1h-2.1v-2.1zm-2-2.1h2.1v2.1h-2.1v-2.1zm0 4.2h2.1v2.1h-2.1V139zm81.7-2.1h2.1v2.1h-2.1v-2.1zm4.2 0h2.1v2.1h-2.1v-2.1zm-2.1-2.1h2.1v2.1h-2.1v-2.1zm0 4.2h2.1v2.1h-2.1V139zm19.6-2.1h2.1v2.1h-2.1v-2.1zm4.1 0h2.1v2.1H142v-2.1zm-2-2.1h2.1v2.1H140v-2.1zm0 4.2h2.1v2.1H140V139zm-22.2-94.7h2.1v2.1h-2.1v-2.1zm4.1 0h2.1v2.1h-2.1v-2.1zm-2.1-2h2.1v2.1h-2.1v-2.1zm0 4.1h2.1v2.1h-2.1v-2.1zm-85.5-2.1h2.1v2.1h-2.1v-2.1zm4.2 0h2.1v2.1h-2.1v-2.1zm-2.1-2h2.1v2.1h-2.1v-2.1zm0 4.1h2.1v2.1h-2.1v-2.1zm97.1 92.3v-1.4h1.4v1.4h-1.4zm-2.8 0v-1.4h1.4v1.4h-1.4zm-2.8 0v-1.4h1.4v1.4h-1.4zm-2.9 0v-1.4h1.4v1.4H125zm15.3-8.9v-1.4h1.4v1.4h-1.4zm0-2.8v-1.4h1.4v1.4h-1.4zm0-2.9v-1.4h1.4v1.4h-1.4zm0-2.8v-1.4h1.4v1.4h-1.4zm0-2.8V117h1.4v1.4c-1.4.1 0 .1-1.4.1zm-11.2-2v-1.4h1.4v1.4h-1.4zm0-2.8v-1.4h1.4v1.4h-1.4zm0-2.9v-1.4h1.4v1.4h-1.4zm0-2.8v-1.4h1.4v1.4h-1.4zm0-2.8v-1.4h1.4v1.4h-1.4zm0-2.9v-1.4h1.4v1.4h-1.4zm0-2.8v-1.4h1.4v1.4h-1.4zm0-2.8v-1.4h1.4v1.4h-1.4zM23.8 116.5v-1.4h1.4v1.4h-1.4zm0-2.8v-1.4h1.4v1.4h-1.4zm0-2.9v-1.4h1.4v1.4h-1.4zm0-2.8v-1.4h1.4v1.4h-1.4zm0-2.8v-1.4h1.4v1.4h-1.4zm0-2.9v-1.4h1.4v1.4h-1.4zm0-2.8v-1.4h1.4v1.4h-1.4zm0-2.8v-1.4h1.4v1.4h-1.4zm-11.2 33.1v-1.4H14v1.4h-1.4zm0-2.8v-1.4H14v1.4h-1.4zm0-2.9v-1.4H14v1.4h-1.4zm0-2.8v-1.4H14v1.4h-1.4zm0-2.8V117H14v1.4c-1.4.1 0 .1-1.4.1zm-2.4 18.4h2.1v2.1h-2.1v-2.1zm4.1 0h2.1v2.1h-2.1v-2.1zm-2-2.1h2.1v2.1h-2.1v-2.1zm0 4.2h2.1v2.1h-2.1V139zm2-124.3h2.1v2.1h-2.1v-2.1zm-4.1 0h2.1v2.1h-2.1v-2.1zm2.1 2.1h2.1v2.1h-2.1v-2.1zm0-4.2h2.1v2.1h-2.1v-2.1zm.3 24v-1.4H14v1.4h-1.4zm0-2.8v-1.4H14v1.4h-1.4zm0-2.8v-1.4H14V31h-1.4zm0-2.9v-1.4H14v1.4h-1.4zm0-2.8v-1.4H14v1.4h-1.4zm127.7 11.3v-1.4h1.4v1.4h-1.4zm0-2.8v-1.4h1.4v1.4h-1.4zm0-2.8v-1.4h1.4V31h-1.4zm0-2.9v-1.4h1.4v1.4h-1.4zm0-2.8v-1.4h1.4v1.4h-1.4zm1.7-10.6h2.1v2.1H142v-2.1zm-4.1 0h2.1v2.1h-2.1v-2.1zm2.1 2.1h2.1v2.1H140v-2.1zm0-4.2h2.1v2.1H140v-2.1zM27.7 138.7v-1.4h1.4v1.4h-1.4zm-2.8 0v-1.4h1.4v1.4h-1.4zm-2.8 0v-1.4h1.4v1.4h-1.4zm-2.9 0v-1.4h1.4v1.4h-1.4zM45.6 17.9h3.2v.8h.8v1.6h-.8v.8h-2.4v2.4h-.8v-5.6zm.8.8v1.6h2.4v-1.6h-2.4zm5.2 0h.8v-.8h2.4v.8h.8v4.8h-.8v-2.4h-2.4v2.4h-.8v-4.8zm.8 1.6h2.4v-1.6h-2.4v1.6zm5.2-1.6h.8v-.8h2.4v.8h.8v.8h-.8v-.8h-2.4v4h2.4v-.8H60v-.8h1.6v1.6h-.8v.8h-2.4v-.8h-.8v-4zm6-.8h4v.8h-3.2v1.6h2.4v.8h-2.4v1.6h3.2v.8h-4v-5.6zm12 0h.8v4h.8v.8h.8v-.8h.8v-4h.8v4h-.8v.8H78v.8h-.8v-.8h-.8v-.8h-.8v-4zm6 0h4v.8H84v4h1.6v.8h-4v-.8h1.6v-4h-1.6v-.8zm6 .8h.8v-.8h3.2v.8h-3.2v1.6h2.4v.8h.8v1.6h-.8v.8h-3.2v-.8h3.2v-1.6h-2.4v-.8h-.8v-1.6zm6-.8h4v.8H96v4h1.6v.8h-4v-.8h1.6v-4h-1.6v-.8zm6 0h4v.8H102v4.8h-.8v-4.8h-1.6v-.8zm6 .8h.8v-.8h3.2v.8h-3.2v1.6h2.4v.8h.8v1.6h-.8v.8h-3.2v-.8h3.2v-1.6h-2.4v-.8h-.8v-1.6zM48.2 135.9H50v-1.8h1.8v-1.8h1.8v10.8h3.6v1.8h-9v-1.8h3.6v-7.2H50v1.8h-1.8v-1.8zm12.6-1.8h1.8v-1.8H68v1.8h1.8v3.6H68v1.8h1.8v3.6H68v1.8h-5.4v-1.8h-1.8v-3.6h1.8v-1.8h-1.8v-3.6zm1.8 3.6H68v-3.6h-5.4v3.6zm0 5.4H68v-3.6h-5.4v3.6zm14.4-5.4h3.6v-3.6h-5.4v1.8h-1.8v-1.8h1.8v-1.8h5.4v1.8h1.8v3.6h-1.8v1.8h1.8v3.6h-1.8v1.8h-5.4v-1.8h-1.8v-1.8h1.8v1.8h5.4v-3.6H77v-1.8zm9 0h1.8v-1.8h1.8v-1.8h1.8v-1.8H95v12.6h-1.8v-3.6H86v-3.6zm7.2-3.6h-1.8v1.8h-1.8v1.8h-1.8v1.8h5.4v-5.4zm5.4-1.8h9v5.4h-1.8v1.8H104v5.4h-1.8v-5.4h1.8v-1.8h1.8v-3.6h-7.2v-1.8zm35.1-5.7l-1-1-2.8 2.9-2.9-2.9-2.9 2.9-2.9-3-1 1 3 2.9-.1.1 1 1 2.9-2.9 1.9 1.9h-.1l1 1h.1l1-1 2.8-2.9zm-99.6 0l-1-1-2.8 2.9-2.9-2.9-2.8 2.8-2.9-2.8-1 1 2.9 2.8-.1.1 1 1 .1-.1v.1l1-1v-.1l1.8-1.8 1.9 1.9h-.1l1 1v-.1l.1.1 1-1-.1-.1 2.9-2.8zm5.7-97.8h6.6v1.4h-6.6v-1.4zm13.8 0h46.9v1.4H53.6v-1.4zm53.5 0h8.9v1.4h-8.9v-1.4zm21.9 1.4h-7v-1.4h5.6v-5h1.4v6.4zm0-13.1h-1.4v-5.6H122v-1.4h7v7zm-89.2-7H116v1.4H39.8v-1.4zm-12.7 7.7h-1.4v-7.7H34v1.4h-6.9v6.3zM34 30.2h-8.3v-7.9h1.4v6.5H34v1.4zM109 59.5v6.6H47.7v-6.6h-2.2V99h2.2V75.1v-6.8H109V99h2.2V83.6 68.3v-8.8H109zm-48.2 4.4H91.5v-2.2H56.4v2.2h4.4zM52 59.5H109v-2.2H47.7v2.2H52zM104.6 99v2.2h4.4V99h-4.4zm-54.7 2.2h17.5V99H47.7v2.2h2.2zm2.2-39.5h-2.2v2.2h2.2v-2.2zm54.7 0h-2.2v2.2h2.2v-2.2zm-4.3 0h-2.2v2.2h2.2v-2.2zm-4.4 0h-2.2v2.2h2.2v-2.2zM84.9 83.6v-2.2h-4.4v2.2h4.4zm0 4.4v8.8h2.2v-4.4h4.4v4.4h2.2v-4.4h2.2v-2.2h-8.8v-6.6h-2.2V88zm13.2 4.4h-2.2v4.4h2.2v-2.2h2.2v-2.2h-2.2zM78.3 99v2.2h2.2V87.8v-4.2h-2.2v13.2h-2.1V99h2.1zm-6.5-2.2h-2.2v4.4h2.2v-4.4zm4.4 6.6H74v4.4h2.2v-4.4zm6.5 8.8h-2.2v4.4h11v-2.2h-8.8v-2.2zm-8.7-8.8v-2.2h-2.2v2.2H74zm4.4 6.6v-2.2h-2.2v2.2h2.1v2.2h2.2V110h-2.1zm-2.2-13.2v-2.2h-4.4v2.2h4.4zm24.1 0v8.8h2.2v-11h-2.2v2.2zm-2.2 11v2.2h2.2v-4.4h-2.2v2.2zm-2.2-2.2v-4.4h-2.2v8.8h2.2v-4.4zm-6.6-3.2v7.6h2.2v-8.8h-2.2v1.2zm-4.4 0v7.6h2.2v-8.8h-2.2v1.2zm8.8 9.8h-2.2v2.2h2.2v-2.2zm2.2 0v2.2h-2.2v2.2h4.4V110h-2.2v2.2zM21.4 55.4c.3-.3.6-1 .7-1.3.1-.4.1-.8 0-1.2-.1-.6-.4-1-.8-1.5-.6-.7-1.6-1.7-1.8-2.6-.1-.3 0-.6-.2-.8-.4-.4-1.1-.2-1.3.3-.6 1.3 1.5 3.4 2.2 4.2s.5 1.6-.2 2.4c-.9 1.1-2.3 2.5-2 4.1s1.8 2.5 2.5 3.8c.7 1.2-1.2 2.7-1.8 3.6-1.2 1.8-.8 3.1.4 4.7.7 1 2 1.9 1.2 3.2-.8 1.3-2.1 2.2-2.4 3.8-.3 1.6 1.2 3.1 2.2 4.2.7.8.5 1.5-.1 2.3-.6.7-3.1 3.5-1.8 4.5.7.6 1-.2 1.1-.7.2-1 1-1.8 1.6-2.5.8-1 1.4-2.2.9-3.5s-2.1-2.4-2.4-3.8c-.3-1.3 1.3-2.2 2-3.1.8-1.1.8-2.6 0-3.7s-2.5-2.6-1.7-4.1 2.4-2.2 2.3-4-1.8-3.3-2.5-4.8c-.4-1.6 1.7-3.2 1.9-3.5zm121.7-.5h1.4v45h-1.4v-45zm-132.6 0h1.4v45h-1.4v-45zm123.2 27.4c.3-.4.7-.9.8-1 .6-.8 1.3-1.6 1.6-2.7.3-1.5-1-2.8-1.9-3.9-.6-.8-1-1.7-.4-2.5.9-1.2 2.1-2.2 2.4-3.7.2-1.4-1.3-3-2.2-4-.6-.5-.8-1.5-.2-2.1.9-1.1 2.1-2.2 2.4-3.7s-1.2-3-2.1-4.1c-.7-.7-.8-1.5-.1-2.3 1.1-1.3 2.2-2.5 2.2-4.2-.2-.7-1.2-.7-1.4 0-.1.4-.1.7-.3 1.1-.5.9-1.3 1.6-1.8 2.4-1 1.5-.5 3 .5 4.3.6.7 1.8 1.8 1.5 2.9-.3 1.1-1.4 1.8-2 2.7-.9 1.4-.7 2.9.3 4.1.6.7 1.8 1.8 1.8 2.8s-1.3 2.1-1.9 2.8c-1.1 1.3-1 2.9 0 4.2.6.7 1.9 1.9 1.8 2.9-.1 1.1-1.3 2.1-1.9 2.9-.9 1.2-1 2.8 0 4 .8.9 1.7 1.8 2 3 .1.5.2 1.1.9.8.4-.2.6-.7.5-1.1-.1-1.4-1.4-2.7-2.2-3.7-.6-.5-.6-1.5-.3-1.9zm53.7 54.6h2.1v2.1h-2.1v-2.1zm4.1 0h2.1v2.1h-2.1v-2.1zm-2-2.1h2.1v2.1h-2.1v-2.1zm0 4.2h2.1v2.1h-2.1V139zm81.7-2.1h2.1v2.1h-2.1v-2.1zm4.2 0h2.1v2.1h-2.1v-2.1zm-2.1-2.1h2.1v2.1h-2.1v-2.1zm0 4.2h2.1v2.1h-2.1V139zm19.6-2.1h2.1v2.1h-2.1v-2.1zm4.1 0h2.1v2.1H297v-2.1zm-2-2.1h2.1v2.1H295v-2.1zm0 4.2h2.1v2.1H295V139zm-22.2-94.7h2.1v2.1h-2.1v-2.1zm4.1 0h2.1v2.1h-2.1v-2.1zm-2.1-2h2.1v2.1h-2.1v-2.1zm0 4.1h2.1v2.1h-2.1v-2.1zm-85.5-2.1h2.1v2.1h-2.1v-2.1zm4.2 0h2.1v2.1h-2.1v-2.1zm-2.1-2h2.1v2.1h-2.1v-2.1zm0 4.1h2.1v2.1h-2.1v-2.1zm97.1 92.3v-1.4h1.4v1.4h-1.4zm-2.8 0v-1.4h1.4v1.4h-1.4zm-2.8 0v-1.4h1.4v1.4h-1.4zm-2.9 0v-1.4h1.4v1.4H280zm15.3-8.9v-1.4h1.4v1.4h-1.4zm0-2.8v-1.4h1.4v1.4h-1.4zm0-2.9v-1.4h1.4v1.4h-1.4zm0-2.8v-1.4h1.4v1.4h-1.4zm0-2.8V117h1.4v1.4c-1.4.1 0 .1-1.4.1zm-11.2-2v-1.4h1.4v1.4h-1.4zm0-2.8v-1.4h1.4v1.4h-1.4zm0-2.9v-1.4h1.4v1.4h-1.4zm0-2.8v-1.4h1.4v1.4h-1.4zm0-2.8v-1.4h1.4v1.4h-1.4zm0-2.9v-1.4h1.4v1.4h-1.4zm0-2.8v-1.4h1.4v1.4h-1.4zm0-2.8v-1.4h1.4v1.4h-1.4zm-105.3 19.8v-1.4h1.4v1.4h-1.4zm0-2.8v-1.4h1.4v1.4h-1.4zm0-2.9v-1.4h1.4v1.4h-1.4zm0-2.8v-1.4h1.4v1.4h-1.4zm0-2.8v-1.4h1.4v1.4h-1.4zm0-2.9v-1.4h1.4v1.4h-1.4zm0-2.8v-1.4h1.4v1.4h-1.4zm0-2.8v-1.4h1.4v1.4h-1.4zm-11.2 33.1v-1.4h1.4v1.4h-1.4zm0-2.8v-1.4h1.4v1.4h-1.4zm0-2.9v-1.4h1.4v1.4h-1.4zm0-2.8v-1.4h1.4v1.4h-1.4zm0-2.8V117h1.4v1.4c-1.4.1 0 .1-1.4.1zm-2.4 18.4h2.1v2.1h-2.1v-2.1zm4.1 0h2.1v2.1h-2.1v-2.1zm-2-2.1h2.1v2.1h-2.1v-2.1zm0 4.2h2.1v2.1h-2.1V139zm2-124.3h2.1v2.1h-2.1v-2.1zm-4.1 0h2.1v2.1h-2.1v-2.1zm2.1 2.1h2.1v2.1h-2.1v-2.1zm0-4.2h2.1v2.1h-2.1v-2.1zm.3 24v-1.4h1.4v1.4h-1.4zm0-2.8v-1.4h1.4v1.4h-1.4zm0-2.8v-1.4h1.4V31h-1.4zm0-2.9v-1.4h1.4v1.4h-1.4zm0-2.8v-1.4h1.4v1.4h-1.4zm127.7 11.3v-1.4h1.4v1.4h-1.4zm0-2.8v-1.4h1.4v1.4h-1.4zm0-2.8v-1.4h1.4V31h-1.4zm0-2.9v-1.4h1.4v1.4h-1.4zm0-2.8v-1.4h1.4v1.4h-1.4zm1.7-10.6h2.1v2.1H297v-2.1zm-4.1 0h2.1v2.1h-2.1v-2.1zm2.1 2.1h2.1v2.1H295v-2.1zm0-4.2h2.1v2.1H295v-2.1zM182.7 138.7v-1.4h1.4v1.4h-1.4zm-2.8 0v-1.4h1.4v1.4h-1.4zm-2.8 0v-1.4h1.4v1.4h-1.4zm-2.9 0v-1.4h1.4v1.4h-1.4zm26.4-120.8h3.2v.8h.8v1.6h-.8v.8h-2.4v2.4h-.8v-5.6zm.8.8v1.6h2.4v-1.6h-2.4zm5.2 0h.8v-.8h2.4v.8h.8v4.8h-.8v-2.4h-2.4v2.4h-.8v-4.8zm.8 1.6h2.4v-1.6h-2.4v1.6zm5.2-1.6h.8v-.8h2.4v.8h.8v.8h-.8v-.8h-2.4v4h2.4v-.8h-.8v-.8h1.6v1.6h-.8v.8h-2.4v-.8h-.8v-4zm6-.8h4v.8h-3.2v1.6h2.4v.8h-2.4v1.6h3.2v.8h-4v-5.6zm12 0h.8v4h.8v.8h.8v-.8h.8v-4h.8v4h-.8v.8h-.8v.8h-.8v-.8h-.8v-.8h-.8v-4zm6 0h4v.8H239v4h1.6v.8h-4v-.8h1.6v-4h-1.6v-.8zm6 .8h.8v-.8h3.2v.8h-3.2v1.6h2.4v.8h.8v1.6h-.8v.8h-3.2v-.8h3.2v-1.6h-2.4v-.8h-.8v-1.6zm6-.8h4v.8H251v4h1.6v.8h-4v-.8h1.6v-4h-1.6v-.8zm6 0h4v.8H257v4.8h-.8v-4.8h-1.6v-.8zm6 .8h.8v-.8h3.2v.8h-3.2v1.6h2.4v.8h.8v1.6h-.8v.8h-3.2v-.8h3.2v-1.6h-2.4v-.8h-.8v-1.6zm-57.4 117.2h1.8v-1.8h1.8v-1.8h1.8v10.8h3.6v1.8h-9v-1.8h3.6v-7.2H205v1.8h-1.8v-1.8zm12.6-1.8h1.8v-1.8h5.4v1.8h1.8v3.6H223v1.8h1.8v3.6H223v1.8h-5.4v-1.8h-1.8v-3.6h1.8v-1.8h-1.8v-3.6zm1.8 3.6h5.4v-3.6h-5.4v3.6zm0 5.4h5.4v-3.6h-5.4v3.6zm14.4-5.4h3.6v-3.6h-5.4v1.8h-1.8v-1.8h1.8v-1.8h5.4v1.8h1.8v3.6h-1.8v1.8h1.8v3.6h-1.8v1.8h-5.4v-1.8h-1.8v-1.8h1.8v1.8h5.4v-3.6H232v-1.8zm9 0h1.8v-1.8h1.8v-1.8h1.8v-1.8h3.6v12.6h-1.8v-3.6H241v-3.6zm7.2-3.6h-1.8v1.8h-1.8v1.8h-1.8v1.8h5.4v-5.4zm5.4-1.8h9v5.4h-1.8v1.8H259v5.4h-1.8v-5.4h1.8v-1.8h1.8v-3.6h-7.2v-1.8zm35.1-5.7l-1-1-2.8 2.9-2.9-2.9-2.9 2.9-2.9-3-1 1 3 2.9-.1.1 1 1 2.9-2.9 1.9 1.9h-.1l1 1h.1l1-1 2.8-2.9zm-99.6 0l-1-1-2.8 2.9-2.9-2.9-2.8 2.8-2.9-2.8-1 1 2.9 2.8-.1.1 1 1 .1-.1v.1l1-1v-.1l1.8-1.8 1.9 1.9h-.1l1 1v-.1l.1.1 1-1-.1-.1 2.9-2.8zm5.7-97.8h6.6v1.4h-6.6v-1.4zm13.8 0h46.9v1.4h-46.9v-1.4zm53.5 0h8.9v1.4h-8.9v-1.4zm21.9 1.4h-7v-1.4h5.6v-5h1.4v6.4zm0-13.1h-1.4v-5.6H277v-1.4h7v7zm-89.2-7H271v1.4h-76.2v-1.4zm-12.7 7.7h-1.4v-7.7h8.3v1.4h-6.9v6.3zm6.9 12.4h-8.3v-7.9h1.4v6.5h6.9v1.4zM217.7 85.9h-4.2v-2.1h-2.1V88h10.4v-4.2h-2.1v2.1h-2zm-2.1-6.2v-2.1h-2.1v-2h6.2v2h-2.1v2.1h2.1v-2h2.1v-4.2h-10.4v4.2h2.1v2h2v2h-2v2.1h2.1v-2h2v2h2.1v-2.1h-2.1v-2h-2zM264 59.5v6.6h-61.3v-6.6h-2.2V99h2.2V74.9v-6.6H264V99h2.2V83.6 68.3v-8.8H264zm-48.2 4.4H246.5v-2.2h-35.1v2.2h4.4zm-8.8-4.4h57v-2.2h-61.3v2.2h4.3zM261.8 99h-4.2v2.2h6.4V99h-2.2zm-56.9 2.2H226.7V99h-24v2.2h2.2zm2.2-39.5h-2.2v2.2h2.2v-2.2zm54.7 0h-2.2v2.2h2.2v-2.2zm-4.3 0h-2.2v2.2h2.2v-2.2zm-4.4 0h-2.2v2.2h2.2v-2.2zm-13.2 11h-4.4v2.2h4.4v-2.2zm10.9 8.8h-8.7v-6.6h-2.2v13.2h2.2v-4.4h4.3v4.4h2.2v-4.4h2.2v-2.2zm0 4.4v2.2h2.2v-2.2h2.2v-2.2h-4.4v2.2zm-15.3 6.6V79.1v-4.2h-2.2v13.2h-2.2v2.2h2.2v2.2h2.2zm-11-2.2v2.2h2.2v2.1h2.2v-2.2h-2.2v-4.3h-2.2v2.2zm4.4 8.7h2.2v-4.4h-2.2V99zm2.2.1v2.2h2.2v-2.2h-2.2zm-4.4-13.2v2.2h4.4v-2.2h-4.4zm28.5 2.2v8.7h2.2V85.9h-2.2v2.2zM253 99v2.2h2.2v-4.4H253V99zm-4.4-2.2v4.4h2.2v-8.8h-2.2v4.4zm-2.2 2.2v-6.6h-2.2v8.8h2.2V99zm-6.5 0v2.2h2.2v-8.8h-2.2V99zm6.5 6.6h-8.7v-2.2h-2.2v-2.1h-2.2v2.2h2.2v4.3h11l-.1-2.2h2.2v-2.2h-2.2v2.2zm4.4-2.2v2.2h-2.2v2.2h4.4v-6.5h-2.2v2.1zm-74.4-48c.3-.3.6-1 .7-1.3.1-.4.1-.8 0-1.2-.1-.6-.4-1-.8-1.5-.6-.7-1.6-1.7-1.8-2.6-.1-.3 0-.6-.2-.8-.4-.4-1.1-.2-1.3.3-.6 1.3 1.5 3.4 2.2 4.2s.5 1.6-.2 2.4c-.9 1.1-2.3 2.5-2 4.1s1.8 2.5 2.5 3.8c.7 1.2-1.2 2.7-1.8 3.6-1.2 1.8-.8 3.1.4 4.7.7 1 2 1.9 1.2 3.2-.8 1.3-2.1 2.2-2.4 3.8-.3 1.6 1.2 3.1 2.2 4.2.7.8.5 1.5-.1 2.3-.6.7-3.1 3.5-1.8 4.5.7.6 1-.2 1.1-.7.2-1 1-1.8 1.6-2.5.8-1 1.4-2.2.9-3.5s-2.1-2.4-2.4-3.8c-.3-1.3 1.3-2.2 2-3.1.8-1.1.8-2.6 0-3.7s-2.5-2.6-1.7-4.1 2.4-2.2 2.3-4-1.8-3.3-2.5-4.8c-.4-1.6 1.6-3.2 1.9-3.5zm121.7-.5h1.4v45h-1.4v-45zm-132.7 0h1.4v45h-1.4v-45zm123.3 27.4c.3-.4.7-.9.8-1 .6-.8 1.3-1.6 1.6-2.7.3-1.5-1-2.8-1.9-3.9-.6-.8-1-1.7-.4-2.5.9-1.2 2.1-2.2 2.4-3.7.2-1.4-1.3-3-2.2-4-.6-.5-.8-1.5-.2-2.1.9-1.1 2.1-2.2 2.4-3.7s-1.2-3-2.1-4.1c-.7-.7-.8-1.5-.1-2.3 1.1-1.3 2.2-2.5 2.2-4.2-.2-.7-1.2-.7-1.4 0-.1.4-.1.7-.3 1.1-.5.9-1.3 1.6-1.8 2.4-1 1.5-.5 3 .5 4.3.6.7 1.8 1.8 1.5 2.9-.3 1.1-1.4 1.8-2 2.7-.9 1.4-.7 2.9.3 4.1.6.7 1.8 1.8 1.8 2.8s-1.3 2.1-1.9 2.8c-1.1 1.3-1 2.9 0 4.2.6.7 1.9 1.9 1.8 2.9-.1 1.1-1.3 2.1-1.9 2.9-.9 1.2-1 2.8 0 4 .8.9 1.7 1.8 2 3 .1.5.2 1.1.9.8.4-.2.6-.7.5-1.1-.1-1.4-1.4-2.7-2.2-3.7-.6-.5-.6-1.5-.3-1.9z"/></svg>