<svg id="Layer_1" xmlns="http://www.w3.org/2000/svg" viewBox="0 0 310 155" width="310" height="155"><style>.st0{fill:#231f20}</style><path class="st0" d="M21.4 108.5H20V74.2h1.4v34.3zm-7.2-13.2h1.4v-1.4h-1.4v1.4zm0-2.8h1.4v-1.4h-1.4v1.4zm0 5.7h1.4v-1.4h-1.4v1.4zm0-11.4h1.4v-1.4h-1.4v1.4zm0 2.9h1.4v-1.4h-1.4v1.4zm1.4-5.7v-1.4h-1.4V84h1.4zm-1.4 17h1.4v-1.4h-1.4v1.4zm118.4 7.5h1.4V74.2h-1.4v34.3zm5.8-22.5h1.4v-1.4h-1.4V86zm1.4-4.2h-1.4v1.4h1.4v-1.4zm-1.4 7h1.4v-1.4h-1.4v1.4zm0 8.5h1.4v-1.4h-1.4v1.4zm0-5.6h1.4v-1.4h-1.4v1.4zm0 8.5h1.4v-1.4h-1.4v1.4zm0-5.7h1.4v-1.4h-1.4v1.4zm-78.6-64v-.8H59v.8h.8zm.8.8v-.8h-.8v.8h.8zm0-3.2v-1.6h-.8v1.6h.8zm-.8.8v-.8h-2.4v-1.6h2.4v-.8h-3.2v5.6h.8v-2.4h.8v.8h.8v-.8h.8zm6.8-2.4v-.8h-4v5.6h4v-.8h-3.2v-1.6h2.4v-.8h-2.4v-1.6h3.2zm3.6.8v3.2h.8v-3.2h-.8zm-1.6-1.6v4.8h.8v-4.8h-.8zm.8 5.6h.8v-.8h-.8v.8zm3.2-5.6h-.8v4.8h.8v-4.8zm-.8 5.6v-.8H71v.8h.8zm6-5.6h-2.4v.8h2.4v-.8zm.8 5.6v-4.8h-.8v1.6h-2.4v-1.6h-.8v4.8h.8v-2.4h2.4v2.4h.8zm6 0v-.8h-.8v.8h.8zm-.8-2.4v-.8h-2.4v-1.6h2.4v-.8h-3.2v5.6h.8v-2.4h.8v.8h.8v-.8h.8zm.8-.8v-1.6h-.8v1.6h.8zM83 29.7v.8h.8v-.8H83zm3.6-4v5.6h3.2v-.8h-2.4v-4h2.4v-.8h-3.2zm4 4.8v-4h-.8v4h.8zm2 .8h3.2v-.8h-3.2v.8zm0-4.8v1.6h.8v-1.6h-.8zm4-.8h-3.2v.8h3.2v-.8zm0 4.8v-1.6h-.8v1.6h.8zm-3.2-2.4v.8h2.4v-.8h-2.4zM54.3 140.3h1.4v-1.4h-1.4v1.4zm-5.6 0h1.4v-1.4h-1.4v1.4zm2.8 0h1.4v-1.4h-1.4v1.4zm5.7 0h1.4v-1.4h-1.4v1.4zm22.6 0h1.4v-1.4h-1.4v1.4zm11.4 0h1.4v-1.4h-1.4v1.4zm-5.7 0h1.4v-1.4h-1.4v1.4zm8.5 0h1.4v-1.4H94v1.4zm-5.7 0h1.4v-1.4h-1.4v1.4zm8.5 0h1.4v-1.4h-1.4v1.4zm8.5 0h1.4v-1.4h-1.4v1.4zm-2.8 0h1.4v-1.4h-1.4v1.4zm-2.8 0h1.4v-1.4h-1.4v1.4zm-34 0h1.4v-1.4h-1.4v1.4zm2.8 0h1.4v-1.4h-1.4v1.4zm-5.7 0h1.4v-1.4h-1.4v1.4zm-2.8 0h1.4v-1.4H60v1.4zm22.7 0h1.4v-1.4h-1.4v1.4zm-5.7 0h1.4v-1.4H77v1.4zm-2.8 0h1.4v-1.4h-1.4v1.4zm-2.9 0h1.4v-1.4h-1.4v1.4zm5.6-128.2h-1.4v1.4h1.4v-1.4zm2.9 0h-1.4v1.4h1.4v-1.4zm-5.7 0h-1.4v1.4h1.4v-1.4zm11.3 0H84v1.4h1.4v-1.4zm-2.8 0h-1.4v1.4h1.4v-1.4zm-14.2 0H67v1.4h1.4v-1.4zm2.9 0h-1.4v1.4h1.4v-1.4zm-11.4 0h-1.4v1.4h1.4v-1.4zm2.1 1.4h.7v-1.4h-1.4v1.4h.7zm3.6-1.4h-1.4v1.4h1.4v-1.4zm36.8 0H101v1.4h1.4v-1.4zm19.9 0h-1.4v1.4h1.4v-1.4zm-8.5 0h-1.4v1.4h1.4v-1.4zm11.3 0h-1.4v1.4h1.4v-1.4zm5.7 0h-1.4v1.4h1.4v-1.4zm-3.6 1.4h.7v-1.4h-1.4v1.4h.7zm-16.3-1.4h-1.4v1.4h1.4v-1.4zm22.7 0h-1.4v1.4h1.4v-1.4zm-17 0h-1.4v1.4h1.4v-1.4zm2.1 1.4h.7v-1.4H118v1.4h.7zm17 0h.7v-1.4H135v1.4h.7zm3.6-1.4h-1.4v1.4h1.4v-1.4zm-51 0h-1.4v1.4h1.4v-1.4zm11.3 0h-1.4v1.4h1.4v-1.4zm-8.5 0h-1.4v1.4h1.4v-1.4zm2.8 0h-1.4v1.4h1.4v-1.4zm14.2 0h-1.4v1.4h1.4v-1.4zm-2.8 0h-1.4v1.4h1.4v-1.4zm-8.5 0h-1.4v1.4h1.4v-1.4zM21.2 134.6l1.5 1.5-1.5 1.5-1.5-1.5-1.5 1.5-1.5-1.5 1.5-1.5-1.5-1.5 1.5-1.5 1.5 1.5 1.5-1.5 1.5 1.5-1.5 1.5zm0 0l-1.5-1.5-1.5 1.5 1.5 1.5 1.5-1.5zm-3.4-13.1l1.5 1.5 1.5-1.5-1.5-1.5-1.5 1.5zm-1.4 1.5l1.5-1.5-1.5-1.5-1.5 1.5-1.5-1.5-1.5 1.5 1.5 1.5 1.5-1.5 1.5 1.5-1.5 1.5 1.5 1.5 1.5-1.5-1.5-1.5zm-1.5-4.5l1.5 1.5 1.5-1.5-1.5-1.5-1.5 1.5zm19.9 20l-1.5-1.5-1.5 1.5-1.5-1.5-1.5 1.5 1.5 1.5 1.5-1.5 1.5 1.5-1.5 1.5 1.5 1.5 1.5-1.5-1.5-1.5 1.5-1.5 1.5 1.5 1.5-1.5-1.5-1.5-1.5 1.5zm-3-3l1.5 1.5 1.5-1.5-1.5-1.5-1.5 1.5zm104.7-.9l1.5 1.5-1.5 1.5-1.4-1.4-1.5 1.5-1.5-1.5 1.4-1.4-1.5-1.5 1.5-1.5 1.4 1.4 1.5-1.5 1.5 1.5-1.4 1.4zm-.1 0l-1.4-1.4-1.4 1.4 1.4 1.4 1.4-1.4zm.5-13.1l-1.5-1.5-1.5 1.5 1.5 1.5 1.5-1.5zm3 0l-1.4-1.4-1.5 1.5 1.5 1.5-1.4 1.4 1.5 1.5 1.5-1.5-1.5-1.5 1.3-1.5 1.5 1.5 1.5-1.5-1.5-1.5-1.5 1.5zm0-2.9l-1.5-1.5-1.5 1.5 1.5 1.5 1.5-1.5zm-17 19.9l-1.5-1.5-1.5 1.5-1.4-1.4-1.5 1.5 1.5 1.5 1.5-1.5 1.4 1.4-1.4 1.4 1.5 1.5 1.5-1.5-1.5-1.5 1.4-1.4 1.5 1.5 1.5-1.5-1.5-1.5-1.5 1.5zm-1.5-1.5l1.5-1.5-1.5-1.5-1.5 1.5 1.5 1.5zM79.3 48.4h-1.4v1.4h1.4v-1.4zm-20.2 6l1.3-.6-.6-1.3-1.3.6c.7 1.3 0 0 .6 1.3zm5.1-2.3l1.4-.5-.5-1.3-1.3.5c.5 1.3 0 0 .4 1.3zm-1.8-.8l-1.3.6.6 1.3 1.3-.6-.6-1.3zm14.2-1.5l-.1-1.4-1.4.1c0 1.4 0 0 .1 1.4l1.4-.1zm5.5.2l.1-1.4-1.4-.1-.1 1.4.7.1c.7.1 0 0 .7 0zm-8.3 0l-.2-1.4-1.4.2.2 1.4.7-.1.7-.1zm-5.5.9l-.4-1.4-1.4.4.4 1.4.7-.2.7-.2zm2.4-2l-1.4.3.3 1.4 1.4-.3-.3-1.4zM118 83.1l-1.4.2.1.7c0 .7 0 0 .1.7l1.4-.2-.1-.7-.1-.7zm0 11.8l.1-.7-1.4-.2-.2 1.4 1.4.2.1-.7zm-.4 2.9l.1-.7-1.4-.3-.3 1.4c1.4.3 0 0 1.5.3l.1-.7zm.7-5.7v-.7l-1.4-.1-.1 1.4 1.5.1v-.7zm-2.6-12.8l1.4-.4-.4-1.4-1.4.4.2.7.2.7zm1.2 8.2l1.4-.1V86l-1.4.1v.7c.1.7 0 0 0 .7zm1.5 1.7v-.7H117v1.4h1.4v-.7zm-.9-8.9l-1.4.3.1.7.1.7 1.4-.3-.1-.7-.1-.7zM87.6 51l.3-1.4-1.4-.3-.3 1.4.7.2c.7.2 0 0 .7.1zM115 76.5l1.3-.5-.5-1.3-1.3.5.2.7c.2.7 0 0 .3.6zM85.1 49.1l-1.4-.2-.2 1.4.7.1.7.1.2-1.4zM114 74l1.3-.7-.3-.6-.3-.6-1.3.6.3.6.3.7zm-9.6-13.5l1-1.1-.5-.5-.5-.5-1 1 .5.5c.6.5 0 0 .5.6zm1.1.8l.5.5c.4.6 0 0 .5.5l1-1-1-1-1 1zm2.7 3.2l1.1-.9-.9-1.1-1.1.9.5.5c.5.6 0 0 .4.6zm-5.9-5.9l.9-1.1-1.1-.9-.9 1.1.6.4c.6.5 0 0 .5.5zm10.6 12.8l1.2-.7-.7-1.2-1.2.7.3.6c.3.7 0 0 .4.6zm-1.4-2.3l1.2-.8-.4-.6-.4-.6-1.2.7.4.6c.3.6 0 0 .4.7zm-1.5-2.5l1.1-.8-.8-1.1-1.2.8.4.6c.4.6 0 0 .5.5zM99.6 56.5c.5.4 0 0 .6.4l.8-1.2-1.2-.8-.8 1.2.6.4zm-40.1 67.6l-.6-.3-.7 1.3.6.3.6.3.7-1.3-.6-.3zm1.3 2.2l.6.3.7.3.6-1.3-1.3-.6-.6 1.3zm-3.2-3.3l-1.2-.7-.7 1.2.6.4c.6.4 0 0 .5.3l.8-1.2zm5.8 4.5l.7.2c.7.2 0 0 .6.3l.5-1.3-1.3-.5-.5 1.3zM39.2 98l-1.4.3.2.7c.2.7 0 0 .1.7l1.4-.3-.3-1.4zm38.3 31.2v.7h1.4v-1.4h-1.4v.7zm-2.8.7h.7c.7 0 0 0 .7.1l.1-1.4-1.4-.1-.1 1.4zM69 129l.6.2c.7.1 0 0 .8.1l.3-1.4-1.4-.3-.3 1.4zm-14.6-6.3l.8-1.1-1.1-.8-.8 1.1.6.4c.6.5 0 0 .5.4zm17.4 6.8l.7.1.7.1.2-1.4-1.4-.2-.2 1.4zm-31-26.2l-1.3.5.3.7c.3.6 0 0 .2.6l1.3-.5-.5-1.3zm1.5 3.2l-.3-.6-1.3.6.3.6.3.6 1.3-.6-.3-.6zm-2.2-5.2l-.2-.7-1.3.4.2.7c.2.7 0 0 .1.7l1.4-.4-.2-.7zm3.5 7.6l-.4-.6-1.2.7.3.6.4.6 1.2-.7-.3-.6zm7.4 11.2l.6.5c.5.4 0 0 .6.4l.9-1.1-1.1-.9-1 1.1zm-1.1-2.9l-1 1 .5.5c.6.4 0 0 .5.5l1-1-.5-.5-.5-.5zm-1.4-1.6l-.5-.5-1.1 1 .5.5.5.5 1.1-1-.5-.5zm-3.8-4.9l-1.2.8.4.6.4.6 1.2-.8-.8-1.2zm2 2.8l-.4-.6-1.1.9.4.6c.4.5 0 0 .4.6l1.1-.9-.4-.6zm19.4 14.8l.7.2.7.2.4-1.4-1.4-.4-.4 1.4zm42.8-15.2l1.1.9.5-.5.4-.6-1.1-.9-.9 1.1zm2-2.8l-.4.6c1.2.7 0 0 1.2.8l.8-1.2-1.2-.8-.4.6zm-3.3 4.5l-.5.5c1.1.9 0 0 1.2 1l.9-1.1-1.1-.9-.5.5zm-1.9 2l-.5.5 1 1 .5-.5.5-.5-1-1-.5.5zm-2.6 2.4l.9 1.1 1.1-.9-.9-1.1-1.1.9zM90.7 50.5l-1.4-.4-.4 1.4.7.2c.6.2 0 0 .7.2l.4-1.4zm24.5 50.3l1.4.4.4-1.4-1.4-.4-.4 1.4zm-3 7.1l-.3.6c1.3.7 0 0 1.1.7l.7-1.2-1.2-.7-.3.6zm1-1.9c1.3.6 0 0 1.3.5l.3-.6.3-.6-1.3-.6-.6 1.3zm-22 20.2l.5 1.3 1.3-.5-.5-1.3-1.3.5zm-2.7.8l.4 1.4.7-.2.7-.2-.4-1.4-1.4.4zm-2.7.7c.3 1.4 0 0 .3 1.5l.7-.2.7-.2-.3-1.4-1.4.3zm-2.7.5l.2 1.4 1.4-.2-.2-1.4-1.4.2zm-2.8.3c.1 1.4 0 0 .1 1.5l.7-.1.7-.1-.1-1.4-1.4.1zm21.8-8.4l-.6.4-.6.4.9 1.1.6-.4.6-.4-.9-1.1zm-7.8 4.7l-.6.3.6 1.3.6-.3.6-.3-.6-1.3-.6.3zm2.3-70.2l.6.4c.6.4 0 0 .6.3l.7-1.2-1.2-.7-.7 1.2zm4 68.3l-.8-1.2-1.2.8.8 1.2.6-.4.6-.4zm-2.5 1.5l-.7-1.2-1.2.7.7 1.2 1.2-.7zm16.2-20.9l1.3.5.5-1.3-1.3-.5-.5 1.3zm-77.4-16v.7l1.4.1v-1.4l-1.4-.1v.7zm1.7 6.4l-.1-.7-.1-.7-1.4.1.1.7v.7l1.5-.1zm-.2-8.3l.2-1.4-1.4-.2-.2 1.4c1.4.1 0 0 1.4.2zM48.2 63l1-1-1-1-1 1c1.1.9 0 0 1 1zM37.5 96.8l1.4-.2-.2-1.4-1.4.2.1.7c.2.7 0 0 .1.7zm12.7-35.9l1-1-1-1-1 1 1 1zM36.9 90.4v.7h1.4v-1.4h-1.4v.7zm8.8-24.3l-1.2-.8-.8 1.2 1.2.8.8-1.2zm-8.1 15l-.2 1.4c1.4.3 0 0 1.3.3l.3-1.4-1.4-.3zM51.4 58c.9 1.1 0 0 .9 1.2l1.1-.9-.9-1.1-.6.4-.5.4zm-8.7 12.8l-1.3-.6-.6 1.3c1.3.7 0 0 1.3.6l.6-1.3zm1.5-2.3l-1.2-.7-.4.6-.4.6c1.2.7 0 0 1.3.7l.7-1.2zm-2.6 4.9l-1.3-.5-.6 1.3 1.3.5.6-1.3zm-1.8 5.3l-1.4-.4-.4 1.4 1.3.3.5-1.3zm.6-2.8l-1.3-.4-.2.7-.2.7c1.4.4 0 0 1.3.3l.4-1.3zm7-11.9l-1.1-.9-.9 1.1 1.1.9.9-1.1zm46-12.4l-.7-.3-.7-.3-.5 1.3.7.3c.6.3 0 0 .7.3l.5-1.3zm2.5 1.1l-.6-.3-.6-.3-.6 1.3.6.3.7.3.5-1.3zm-39.2 3.2l.6-.4.6-.4-.7-1.2-1.2.7c.8 1.2 0 0 .7 1.3zm-3 .3c.8 1.1 0 0 .8 1.2l1.2-.8-.8-1.2-.6.4-.6.4zm79.5-4.3h-2v2h2v-2zm2 2.1h-2v2h2v-2zm2 4v-2h-2v2h2zm-2-4.1h2v-2h-2v2zm-2.1 2.1h-2v2h2v-2zm5.6-11.6v2h2v-2h-2zm2 4h2v-2h-2v2zm4 2v-2h-2v2h2zm-2-4h2v-2h-2v2zm-2.1 2.1h-2v2h2v-2zm-124.2-4h-2v2h2v-2zm-2.1 2h-2v2h2v-2zm-2 2h-2v2h2v-2zm4.1 0h-2v2h2v-2zm-4.1-4.1h-2v2h2v-2zm9.6 9.6h2v-2h-2v2zm-2 2h2v-2h-2v2zm-2 2h2v-2h-2v2zm6 0v-2h-2v2h2zm-4.1-6.1h-2v2h2v-2zm77.3 14.8V71.4c0 2.7 0 3-1.5 4.5l-.3.3c-1.8 1.8-6.9 4.3-7.1 4.4-.1.1-.1.1-.2.1-1 3-3.3 5.5-6.3 6.6-.5.8-1.7 3.1 0 4.8h3.5c1.7 0 3.1 1.4 3.1 3.1v9.4h2.3c.4 0 .7.3.7.7v2h5.1c.4 0 .7.3.7.7v7.6c-.1.4-.4.7-.7.7h-37c-.4 0-.7-.3-.7-.7V108c0-.4.3-.7.7-.7h5v-2c0-.4.3-.7.7-.7h2.3v-9.4c0-1.7 1.4-3.1 3.1-3.1h3.6c1.9-1.9.1-4.4-.2-4.9-2.8-1.2-5.1-3.6-6-6.5-.1 0-.2 0-.3-.1-.2-.1-5.3-2.6-7.1-4.4l-.3-.3c-1.5-1.5-1.5-1.8-1.5-4.4v-4.8c0-1 .8-1.9 1.9-1.9h6.7V64c0-1.3 1-2.3 2.3-2.3h16.6c1.3 0 2.3 1 2.3 2.3v.7h6.6c1.1.1 2 .9 2 2zM67.5 79v-.2c-.1-.2-.1-.4-.1-.6v-1.4c-.1-.1-.3-.1-.4-.2-.1-.1-2.7-1.5-3.8-2.5L63 74c-.8-.7-.9-.9-.9-2.3v-2.2c0-.7.6-1.2 1.3-1.2h4v-2h-6.7c-.3 0-.6.3-.6.6v4.5c0 1.2 0 2 .1 2.4.1.4.4.6 1 1.2l.3.3c1.3 1.2 4.6 3 6 3.7zm-4.1-7.7v.3c0 .6 0 .9.1 1 0 .1.2.2.5.5l.2.2c.7.6 2.3 1.6 3.2 2.1v-5.7h-4v1.6zm27.3 37.4H60.1v6.3h35.7v-6.3h-5.1zM68.2 106h-2.3v1.3H90V106H68.2zm6.2-12.6h-3.8c-1 0-1.8.8-1.8 1.8v9.4h18.3v-9.4c0-1-.8-1.8-1.8-1.8H74.4zm5.7-5.6c-.7.1-1.4.2-2.1.2-.8 0-1.5-.1-2.2-.3.6 1.3.9 2.9 0 4.4h4.4c-.9-1.4-.6-3-.1-4.3zm7.1-23.7c0-.5-.4-1-1-1H69.7c-.5 0-1 .4-1 1v14.5c.5 3.5 2.8 6.3 6 7.5h.1c1 .4 2.1.6 3.2.6s2.2-.2 3.2-.6c.1-.1.3-.2.4-.2 3-1.3 5.2-4 5.6-7.4v-.1c0-.1.1-.2.1-.3v-14zm1.4 11.2c.9-.5 2.4-1.5 3.1-2l.2-.2c.3-.3.5-.4.5-.5.1-.2.1-.4.1-.9v-2.2h-3.8v5.8zm7.2-3.8v-4.7c0-.3-.3-.6-.6-.6h-6.6v1.9h3.8c.7 0 1.3.6 1.3 1.2v2.4c0 1.4-.1 1.6-.9 2.4l-.2.2c-1 .9-3.7 2.4-3.8 2.5-.1 0-.1.1-.2.1v1.5c0 .2 0 .4-.1.6v.2c1.5-.8 4.6-2.5 5.9-3.8l.3-.3c.7-.7.9-.8 1-1.2.1-.6.1-1.3.1-2.4zM72 95.1h11.8c.9 0 1.5.7 1.5 1.5v5.9c.1.4-.2.7-.6.7H71.2c-.4 0-.7-.3-.7-.7v-5.9c0-.9.7-1.5 1.5-1.5zm.1 1.3c-.1 0-.2.1-.2.2v5.3h12.2v-5.3c0-.1-.1-.2-.2-.2H72.1zm13.3-32.3h-4.5c-.4 0-.7.3-.7.7 0 .4.3.7.7.7h3.8v2.6c0 .4.3.7.7.7.3 0 .6-.3.7-.7v-3.3c0-.4-.3-.7-.7-.7zm0 7c-.4 0-.7.3-.7.7V74c0 .4.3.7.7.7.3 0 .6-.3.7-.7v-2.2c0-.4-.3-.7-.7-.7zm-8.9 6v-1.4l.1.1.7.7.7-.7-.7-.7-.7-.7-.7.7h-.1l-.7-.7-.7.7.7.7.4-.4v4.7h1v-1h1v-1h-1v-1zm0-5.4v1h1v-1h-1zm2-1.1h-1v1h1v-1zm0 3.1v-1h-1v1h1zm1-2h-1v1h1v-1zm-2 6.4h1.1V77h-1.1v1.1zm1.3-8.9l.7.7.7-.7-.7-.7-.7-.7-.7.7.7.7zm1.5 0l.7.7.7-.7-.7-.7-.7.7zm.7.8l-.7.7.7.7.7.7.7-.7-.7-.7-.7-.7zm.7 2.2l-.7.7-.7.7.7.7.7-.7.7-.7-.7-.7zm-1.4 2.9h-.1l-.7-.7-.7.7-.7.7.7.7.7-.7.1-.1V78h-1v1h1v1h1v-4.7l.4.4.7-.7-.7-.6-.7.7zm-5.3-.7l.7-.7-.7-.7-.7-.7-.7.7.7.7.7.7zm-.6-2.2l.7-.7.7-.7-.7-.7-.7.7-.7.7.7.7zm2.2-2.2l.7-.7.7-.7-.7-.7-.7.7-.7.7.7.7zm-.8-.7l-.7-.7-.7.7.7.7.7-.7zm41.7-32H113v1.5h4.5v-1.5zm15.1 1.6h-15.1v1.5h15.1v-1.5zm-12.1-6.1v-1.5h9.1v1.5h1.5v-1.5h1.5v-1.5h-12.1v-7.5H119v12h1.5v-1.5zm10.6 6v-1.5h-1.5v1.5h1.5zm-1.5-1.5v-1.5h-1.5v1.5h1.5zm-3-1.5h1.5v-1.5h-1.5v1.5zm1.5-1.5h1.5v-1.5h-1.5v1.5zM38.9 19.2h3v-1.5h-4.5v1.5h1.5zm-12.1-1.5h10.6v-1.5H22.3v1.5h1.5v1.5h1.5v-1.5h1.5zm7.6 9v7.6h1.5v-12h-1.5v2.9h-9.1v-1.5h-1.5v1.5h-1.5v1.5h12.1zm-9.1-7.5v1.5h1.5v-1.5h-1.5zm3 1.5h-1.5v1.5h1.5v-1.5zm-1.5 1.5h-1.5v1.5h1.5v-1.5zm10.6 13.6h74v1.5h1.5v-1.5h6.1v-1.5H35.8v1.5h1.6zm3-15.1h-4.5v1.5H118.9v-1.5H43.3v-1.5h-1.5v1.5h-1.4zm136 53.5H175v34.3h1.4V74.2zm-7.2 26.8h1.4v-1.4h-1.4v1.4zm0-5.7h1.4v-1.4h-1.4v1.4zm0-2.8h1.4v-1.4h-1.4v1.4zm0-2.8h1.4v-1.4h-1.4v1.4zm0-2.9h1.4v-1.4h-1.4v1.4zm1.4-2.8v-1.4h-1.4V84h1.4zm-1.4 14.2h1.4v-1.4h-1.4v1.4zm118.4 10.3h1.4V74.2h-1.4v34.3zm5.8-14h1.4v-1.4h-1.4v1.4zm0 2.8h1.4v-1.4h-1.4v1.4zm0-5.6h1.4v-1.4h-1.4v1.4zm0-5.7h1.4v-1.4h-1.4V86zm0 14.2h1.4v-1.4h-1.4v1.4zm1.4-18.4h-1.4v1.4h1.4v-1.4zm-1.4 7h1.4v-1.4h-1.4v1.4zm-78.6-59.9v-.8h-2.4v-1.6h2.4v-.8h-3.2v5.6h.8v-2.4h.8v.8h.8v-.8h.8zm.8-.8v-1.6h-.8v1.6h.8zm0 3.2v-.8h-.8v.8h.8zm-.8-.8v-.8h-.8v.8h.8zm6.8-4v-.8h-4v5.6h4v-.8h-3.2v-1.6h2.4v-.8h-2.4v-1.6h3.2zm2-.8v4.8h.8v-4.8h-.8zm.8 5.6h.8v-.8h-.8v.8zm3.2-5.6h-.8v4.8h.8v-4.8zm-2.4 1.6v3.2h.8v-3.2h-.8zm1.6 4v-.8h-.8v.8h.8zm6.8 0v-4.8h-.8v1.6h-2.4v-1.6h-.8v4.8h.8v-2.4h2.4v2.4h.8zm-.8-5.6h-2.4v.8h2.4v-.8zm6.8 5.6v-.8h-.8v.8h.8zm0-3.2v-1.6h-.8v1.6h.8zm-.8 2.4v-.8h-.8v.8h.8zm0-1.6v-.8h-2.4v-1.6h2.4v-.8h-3.2v5.6h.8v-2.4h.8v.8h.8v-.8h.8zm6.8 1.6v-4h-.8v4h.8zm-4-4.8v5.6h3.2v-.8h-2.4v-4h2.4v-.8h-3.2zm6 5.6h3.2v-.8h-3.2v.8zm3.2-2.4v-.8h-2.4v.8h2.4zm.8 1.6v-1.6h-.8v1.6h.8zm0-4.8h-3.2v.8h3.2v-.8zm-4 .8v1.6h.8v-1.6h-.8zm-43.9 113.8h1.4v-1.4h-1.4v1.4zm2.8 0h1.4v-1.4h-1.4v1.4zm2.8 0h1.4v-1.4h-1.4v1.4zm2.9 0h1.4v-1.4h-1.4v1.4zm17 0h1.4v-1.4h-1.4v1.4zm5.6 0h1.4v-1.4h-1.4v1.4zm2.9 0h1.4v-1.4h-1.4v1.4zm2.8 0h1.4v-1.4h-1.4v1.4zm-17 0h1.4v-1.4h-1.4v1.4zm8.5 0h1.4v-1.4H232v1.4zm28.3 0h1.4v-1.4h-1.4v1.4zm-34 0h1.4v-1.4h-1.4v1.4zm25.5 0h1.4v-1.4h-1.4v1.4zm2.9 0h1.4v-1.4h-1.4v1.4zm-8.5 0h1.4v-1.4h-1.4v1.4zm2.8 0h1.4v-1.4H249v1.4zm-5.7 0h1.4v-1.4h-1.4v1.4zm14.2 0h1.4v-1.4h-1.4v1.4zm-39.7 0h1.4v-1.4h-1.4v1.4zm-2.8 0h1.4v-1.4H215v1.4zm5.7 0h1.4v-1.4h-1.4v1.4zM217 13.5h.7v-1.4h-1.4v1.4h.7zm9.3-1.4h-1.4v1.4h1.4v-1.4zm39.6 0h-1.4v1.4h1.4v-1.4zm-42.5 0H222v1.4h1.4v-1.4zm39.7 0h-1.4v1.4h1.4v-1.4zm-5.7 0H256v1.4h1.4v-1.4zm-36.8 0h-1.4v1.4h1.4v-1.4zm34 0h-1.4v1.4h1.4v-1.4zm-25.5 0h-1.4v1.4h1.4v-1.4zm31.2 0h-1.4v1.4h1.4v-1.4zm-8.5 0h-1.4v1.4h1.4v-1.4zm-2.9 0h-1.4v1.4h1.4v-1.4zm-11.3 0h-1.4v1.4h1.4v-1.4zm8.5 0h-1.4v1.4h1.4v-1.4zm48.2 0h-1.4v1.4h1.4v-1.4zm-14.2 0h-1.4v1.4h1.4v-1.4zm-65.2 0h-1.4v1.4h1.4v-1.4zm58.8 1.4h.7v-1.4H273v1.4h.7zm-30.4-1.4h-1.4v1.4h1.4v-1.4zm34 0h-1.4v1.4h1.4v-1.4zm-8.5 0h-1.4v1.4h1.4v-1.4zm-34 0h-1.4v1.4h1.4v-1.4zm51 0h-1.4v1.4h1.4v-1.4zm-53.9 0h-1.4v1.4h1.4v-1.4zm56.7 0h-1.4v1.4h1.4v-1.4zm-17 0h-1.4v1.4h1.4v-1.4zm-31.2 0H239v1.4h1.4v-1.4zm50.3 1.4h.7v-1.4H290v1.4h.7zm-8.5 0h.7v-1.4h-1.4v1.4h.7zm-106 121.1l1.5 1.5-1.5 1.5-1.5-1.5-1.5 1.5-1.5-1.5 1.5-1.5-1.5-1.5 1.5-1.5 1.5 1.5 1.5-1.5 1.5 1.5-1.5 1.5zm0 0l-1.5-1.5-1.5 1.5 1.5 1.5 1.5-1.5zm-3.4-13.1l1.5 1.5 1.5-1.5-1.5-1.5-1.5 1.5zm-1.4 1.5l1.5-1.5-1.5-1.5-1.5 1.5-1.5-1.5-1.5 1.5 1.5 1.5 1.5-1.5 1.5 1.5-1.5 1.5 1.5 1.5 1.5-1.5-1.5-1.5zm-1.5-4.5l1.5 1.5 1.5-1.5-1.5-1.5-1.5 1.5zm19.9 20l-1.5-1.5-1.5 1.5-1.5-1.5-1.5 1.5 1.5 1.5 1.5-1.5 1.5 1.5-1.5 1.5 1.5 1.5 1.5-1.5-1.5-1.5 1.5-1.5 1.5 1.5 1.5-1.5-1.5-1.5-1.5 1.5zm-3-3l1.5 1.5 1.5-1.5-1.5-1.5-1.5 1.5zm104.7-.9l1.5 1.5-1.5 1.5-1.4-1.4-1.5 1.5-1.5-1.5 1.4-1.4-1.5-1.5 1.5-1.5 1.4 1.4 1.5-1.5 1.5 1.5-1.4 1.4zm-.1 0l-1.4-1.4-1.4 1.4 1.4 1.4 1.4-1.4zm.5-13.1l-1.5-1.5-1.5 1.5 1.5 1.5 1.5-1.5zm3 0l-1.4-1.4-1.5 1.5 1.5 1.5-1.4 1.4 1.5 1.5 1.5-1.5-1.5-1.5 1.3-1.5 1.5 1.5 1.5-1.5-1.5-1.5-1.5 1.5zm0-2.9l-1.5-1.5-1.5 1.5 1.5 1.5 1.5-1.5zm-17 19.9l-1.5-1.5-1.5 1.5-1.4-1.4-1.5 1.5 1.5 1.5 1.5-1.5 1.4 1.4-1.4 1.4 1.5 1.5 1.5-1.5-1.5-1.5 1.4-1.4 1.5 1.5 1.5-1.5-1.5-1.5-1.5 1.5zm-1.5-1.5l1.5-1.5-1.5-1.5-1.5 1.5 1.5 1.5zm-68.1-78.8l1.1-.9-.9-1.1-1.1.9.9 1.1zm-16.5 31.5h1.4v-1.4h-1.4v1.4zM206.1 60l1.1-.9-.9-1.1-1.1.9c1 1.1 0 0 .9 1.1zm-12.8 26.9l.1-1.4-1.4-.1-.1.7v.7c1.4.2 0 0 1.4.1zm79.4 10l.1-.7.1-.7-1.4-.2-.2 1.4c1.4.3 0 0 1.4.2zm.5-4.2l-1.4-.1-.1 1.4 1.4.1.1-1.4zm-4.8-20.1l1.3-.6-.3-.6-.3-.6-1.3.6.3.6c.3.7 0 0 .3.6zm-1.3-2.4l1.2-.7-.7-1.2-1.2.7.4.6.3.6zm2.4 5.1l1.3-.5-.3-.7-.3-.7-1.3.5.3.7c.2.6 0 0 .3.7zm3.9 12.4V87H272v1.4h1.4v-.7zm-7.7-19.9l1.2-.8-.8-1.2-1.2.8.4.6.4.6zm-13.5-14.5l-.6-.3-.6-.3-.7 1.3.6.3c.7.4 0 0 .6.3l.7-1.3zm20.9 31.5l-.1-.7-1.4.2.2 1.4c1.5-.2 0 0 1.4-.2l-.1-.7zm-2.7-6.9l1.3-.4-.2-.7-.2-.7-1.4.4.2.7c.2.7 0 0 .3.7zm-10-16.6l1-1-.5-.5-.5-.5-1 1 .5.5.5.5zm4 2.1l-1.1.9.4.6.4.6 1.1-.9-.4-.6-.4-.6zm8 16.5l-.2-.7-.2-.7-1.4.3.3 1.4c1.4-.4 0 0 1.5-.3zm-10.1-16.5l1-1-.9-1-1 .9.5.5c.5.5 0 0 .4.6zm-4.9-4.9l.5.5c.5.4 0 0 .6.4l.9-1.1-1.1-.9-.9 1.1zm-31.5-8.1l.7-.1.7-.1-.2-1.4-1.4.2.2 1.4zm29.8 6.9c.5.4 0 0 .6.4l.8-1.1-1.2-.8-.8 1.1.6.4zm-2.3-1.6c.6.4 0 0 .6.3l.7-1.2-1.2-.7-.7 1.2.6.4zM223.2 51l.7-.2c.7-.2 0 0 .7-.1l-.3-1.4-1.4.3.3 1.4zm5.5-1l.7-.1h.7l-.1-1.4-1.4.1.1 1.4zm-8.3 1.8l1.4-.4-.4-1.4-1.3.4c.4 1.3 0 0 .3 1.4zm-6.3 2.5l-.7-1.2-1.2.7c.7 1.3 0 0 .7 1.1l.6-.3.6-.3zm18.1-4.5h.7v-1.4h-1.4v1.4h.7zm-14.4 2.9l.7-.3.7-.3-.5-1.3-1.3.5c.5 1.3 0 0 .4 1.4zm-2.4 1.1l1.3-.6-.6-1.3-1.3.6.6 1.3zm30.4-1.7l.7.2.5-1.3-1.4-.4-.5 1.3.7.2zm-6-1.6l.7.1.7.1.3-1.4-.7-.1-.7-.1-.3 1.4zm3.4.7l.7.2.4-1.4-1.4-.4-.4 1.4.7.2zm-8.2-1.3c.7 0 0 0 .7.1l.1-1.4-1.4-.1-.1 1.4h.7zm14 3.5l.6-1.3-1.3-.6-.6 1.3.7.3c.7.3 0 0 .6.3zM237 50l.7.1.7.1.2-1.4-.7-.1-.7-.1-.2 1.4zm36.3 41.2l.1-1.4H272l-.1 1.4c1.5.1 0 0 1.4 0zm-40.7 37.4h-1.4v1.4h1.4v-1.4zm-2.9 1.2l.1-1.4-1.4-.1-.1 1.4.7.1c.7.1 0 0 .7 0zm-2.9-.3l.2-1.4-1.4-.2-.2 1.4.7.1c.7.2 0 0 .7.1zm-2.5-1.8l-.7-.2-.7-.2-.3 1.4.7.2.7.1.3-1.3zm-2.7-.8l-1.4-.4-.4 1.4.7.2.7.2.4-1.4zm16.7 2.6l-.2-1.4-1.4.2.2 1.4.7-.1c.7 0 0 0 .7-.1zm-37.9-17.6l-1.1.8.4.6c.4.6 0 0 .4.5l1.1-.8-.8-1.1zm18 15.5l.5-1.3-1.3-.5-.5 1.3.7.3.6.2zm17 2.4l-.1-1.4-1.4.1.1 1.4h.7c.8 0 0 0 .7-.1zm-20.9-4.1l.6.3.7.3.6-1.3-1.3-.6-.6 1.3zm-9.5-8.5l-.5-.5-.5-.5-1 1 .5.5.5.5 1-1zm.9.9l-.9 1.1.5.5.6.4.9-1.1-1.1-.9zm2.8 2.3l-.6-.4-.9 1.1.6.4c.5.4 0 0 .6.4l.9-1.1-.6-.4zm-6.1-5.7l-.5-.5-1.1.9.5.5.5.5 1.1-.9-.5-.5zm38.6 14.3l-.3-1.4-1.4.3.3 1.4.7-.1c.7-.1 0 0 .7-.2zm-28.5-5.8l-.7 1.2.6.3.6.3.7-1.2-.6-.3-.6-.3zm-2.4-1.6l-.8 1.2.6.4.6.4.8-1.2-.6-.4-.6-.4zm.3-65l1.2-.8-.8-1.2-1.2.8c.7 1.2 0 0 .8 1.2zm62.2 26.1l-.1-.7-.1-.7-1.4.2.3 1.4c1.4-.3 0 0 1.3-.2zm-6.2 26.4l-.4.6c1.3.7 0 0 1.2.7l.4-.6.4-.6-1.2-.7-.4.6zm-23 17.9l-1.4.4c.4 1.3 0 0 .4 1.4l1.4-.4-.4-1.4zm24.3-20.4l-.3.6 1.3.7.6-1.3-1.3-.6-.3.6zm-6.7 9.7c1 .9 0 0 1 1l.5-.5.5-.5-1-1-1 1zm2.2-2.7l-.4.6 1.1.9.4-.6.4-.6-1.1-.9-.4.6zm5.4-8.9c1.3.6 0 0 1.2.6l.3-.7.3-.7-1.3-.5-.5 1.3zm2.2-6.6l-.2.7-.2.7c1.4.3 0 0 1.4.4l.4-1.4-1.4-.4zm-1 3.3l-.2.7c1.4.5 0 0 1.4.4l.4-1.4-1.4-.4-.2.7zm-5.3 10.6l1.2.8.8-1.2-1.2-.8-.8 1.2zm-4.5 5.2l-1 1c1 1.1 0 0 1 1l1-1-1-1zm-11.4 7.8l-1.3.6.6 1.3 1.3-.6-.6-1.3zm-2.6 1.1l-1.3.5c.5 1.3 0 0 .4 1.2l.7-.2.7-.2-.5-1.3zm5.1-2.3l-1.3.7c.7 1.3 0 0 .7 1.2l.6-.3.6-.3-.6-1.3zm6.3-4.2l-.5.4.9 1.1.5-.4.5-.4-.9-1.1-.5.4zm-5.1 3.6c.7 1.2 0 0 .7 1.3l.6-.4.6-.4-.7-1.2-1.2.7zm2.3-1.5c.9 1.1 0 0 .8 1.2l1.2-.8-.8-1.2-1.2.8zm-56.4-51.9l-1.2-.7-.7 1.2 1.2.7.7-1.2zm6.3-8.4l.5-.5-1-1-1 1 1 1 .5-.5zm-11 33.9l-.2-1.4-1.4.2.2 1.4 1.4-.2zm1.4-18l-1.4-.4-.2.7-.2.7 1.4.4.4-1.4zm4.2 32.9l-.4-.6-1.2.7.4.6.4.6 1.2-.7-.4-.6zm-6.9-27.6l-.2 1.4 1.4.2.2-1.4-1.4-.2zm1.9-2.6l-1.4-.3-.3 1.4 1.4.3.3-1.4zm1.7-5.2l-1.3-.5-.5 1.3 1.3.5.5-1.3zm-2.6 17.7l-.1-1.4-1.4.1.1 1.4 1.4-.1zm5.7-23.9l.8-1.2-1.2-.8-.8 1.2c1.2.7 0 0 1.2.8zm1.5-2.5l.8-1.1-1.1-.8-.4.6-.4.6c1.1.8 0 0 1.1.7zm2.8-3.1l-1.1-.9-.5.5-.5.5c1 .9 0 0 1.2 1l.9-1.1zm-7 41.6l-1.3.6.3.6.3.7 1.3-.6-.6-1.3zm.7-32.4l-1.3-.6-.6 1.3 1.3.6.6-1.3zm-1.5 30.5l-.2-.7-1.3.5.2.7c.3.6 0 0 .2.7l1.3-.5-.2-.7zm-1-3.4l-1.4.4.2.7.2.7 1.4-.4-.4-1.4zm-.4-1.3l-.1-.7-.1-.7-1.4.3.1.7.2.7c1.4-.3 0 0 1.3-.3zm3.4 9.1l-1.2.7.3.6.3.6 1.3-.6-.7-1.3zm90.6-55.2h-2v2h2v-2zm2 2.1h-2v2h2v-2zm2 4v-2h-2v2h2zm-2-4.1h2v-2h-2v2zm-2.1 2.1h-2v2h2v-2zm5.6-11.6v2h2v-2h-2zm2 2v2h2v-2h-2zm4 4v-2h-2v2h2zm0-6h-2v2h2v-2zm-4.1 4.1h-2v2h2v-2zm-124.2-4h-2v2h2v-2zm-2.1 2h-2v2h2v-2zm-2 2h-2v2h2v-2zm4.1 0h-2v2h2v-2zm-4.1-4.1h-2v2h2v-2zm9.6 9.6h2v-2h-2v2zm-2 2h2v-2h-2v2zm-2 2h2v-2h-2v2zm6 0v-2h-2v2h2zm-4.1-6.1h-2v2h2v-2zm97.7-14.6H268v1.5h4.5v-1.5zm0 1.6v1.5h15.1v-1.5h-1.5v-1.6h-1.5v1.6h-12.1zm3-6.1v-1.5h9.1v1.5h1.5v-1.5h1.5v-1.5h-12.1v-7.5H274v12h1.5v-1.5zm9.1 4.5v-1.5h-1.5v1.5h1.5zm-3-1.5h1.5v-1.5h-1.5v1.5zm1.5-1.5h1.5v-1.5h-1.5v1.5zm-89.2-15.1h3v-1.5h-4.5v1.5h1.5zm-12.1-1.5h10.6v-1.5h-15.1v1.5h1.5v1.5h1.5v-1.5h1.5zm7.6 9v7.6h1.5v-12h-1.5v2.9h-9.1v-1.5h-1.5v1.5h-1.5v1.5h12.1zm-9.1-7.5v1.5h1.5v-1.5h-1.5zm3 1.5h-1.5v1.5h1.5v-1.5zm-1.5 1.5h-1.5v1.5h1.5v-1.5zm10.6 13.6h74.1v1.5h1.5v-1.5h6.1v-1.5H191v1.5h1.4zm3-15.1h-4.5v1.5H274v-1.5h-75.6v-1.5h-1.5v1.5h-1.5zm23 60.6h-1v2h1v-2zm-1 4.1v1h1v-2h-1v1zm-2.1-2.1v1h2v-1h-2zm4.1 1h1v-1h-2v1h1zm33 2.7v-2h-1v3h1v-1zm-1 5.2v2h1v-3h-1v1zm-4.1-3.1v1h3v-1h-3zm9.2 1v-1H253.4v1h3.1zm-41.4 6.3v-2.1h-1v3.1h1v-1zm-1 5.2v2h1v-3h-1v1zm-2-2.1h1v-1H210v1h2.1zm5.1-1h-1v1h3.1v-1h-2.1zm34.9-31.8V71.4c0 2.7 0 3-1.5 4.5l-.3.3c-1.8 1.8-6.9 4.3-7.1 4.4-.1.1-.1.1-.2.1-1 3-3.3 5.5-6.3 6.6-.5.8-1.7 3.1 0 4.8h3.5c1.7 0 3.1 1.4 3.1 3.1v9.4h2.3c.4 0 .7.3.7.7v2h5.1c.4 0 .7.3.7.7v7.6c-.1.4-.4.7-.7.7h-37c-.4 0-.7-.3-.7-.7V108c0-.4.3-.7.7-.7h5v-2c0-.4.3-.7.7-.7h2.3v-9.4c0-1.7 1.4-3.1 3.1-3.1h3.6c1.9-1.9.1-4.4-.2-4.9-2.8-1.2-5.1-3.6-6-6.5-.1 0-.2 0-.3-.1-.2-.1-5.3-2.6-7.1-4.4l-.3-.3c-1.5-1.5-1.5-1.8-1.5-4.4v-4.8c0-1 .8-1.9 1.9-1.9h6.7V64c0-1.3 1-2.3 2.3-2.3h16.6c1.3 0 2.3 1 2.3 2.3v.7h6.6c1.1.1 2 .9 2 2zM222.5 79v-.2c-.1-.2-.1-.4-.1-.6v-1.4c-.1-.1-.3-.1-.4-.2-.1-.1-2.7-1.5-3.8-2.5l-.2-.1c-.8-.7-.9-.9-.9-2.3v-2.2c0-.7.6-1.2 1.3-1.2h4v-2h-6.7c-.3 0-.6.3-.6.6v4.5c0 1.2 0 2 .1 2.4.1.4.4.6 1 1.2l.3.3c1.3 1.2 4.6 3 6 3.7zm-4.1-7.7v.3c0 .6 0 .9.1 1 0 .1.2.2.5.5l.2.2c.7.6 2.3 1.6 3.2 2.1v-5.7h-4v1.6zm27.3 37.4h-30.6v6.3h35.7v-6.3h-5.1zm-22.5-2.7h-2.3v1.3H245V106h-21.8zm6.2-12.6h-3.8c-1 0-1.8.8-1.8 1.8v9.4h18.3v-9.4c0-1-.8-1.8-1.8-1.8H229.4zm5.7-5.6c-.7.1-1.4.2-2.1.2-.8 0-1.5-.1-2.2-.3.6 1.3.9 2.9 0 4.4h4.4c-.9-1.4-.6-3-.1-4.3zm7.1-23.7c0-.5-.4-1-1-1h-16.5c-.5 0-1 .4-1 1v14.5c.5 3.5 2.8 6.3 6 7.5h.1c1 .4 2.1.6 3.2.6s2.2-.2 3.2-.6c.1-.1.3-.2.4-.2 3-1.3 5.2-4 5.6-7.4v-.1c0-.1.1-.2.1-.3v-14zm1.4 11.2c.9-.5 2.4-1.5 3.1-2l.2-.2c.3-.3.5-.4.5-.5.1-.2.1-.4.1-.9v-2.2h-3.8v5.8zm7.2-3.8v-4.7c0-.3-.3-.6-.6-.6h-6.6v1.9h3.8c.7 0 1.3.6 1.3 1.2v2.4c0 1.4-.1 1.6-.9 2.4l-.2.2c-1 .9-3.7 2.4-3.8 2.5-.1 0-.1.1-.2.1v1.5c0 .2 0 .4-.1.6v.2c1.5-.8 4.6-2.5 5.9-3.8l.3-.3c.7-.7.9-.8 1-1.2.1-.6.1-1.3.1-2.4zM227 95.1h11.8c.9 0 1.5.7 1.5 1.5v5.9c.1.4-.2.7-.6.7h-13.5c-.4 0-.7-.3-.7-.7v-5.9c0-.9.7-1.5 1.5-1.5zm.1 1.3c-.1 0-.2.1-.2.2v5.3h12.2v-5.3c0-.1-.1-.2-.2-.2h-11.8zm13.3-32.3h-4.5c-.4 0-.7.3-.7.7 0 .4.3.7.7.7h3.8v2.6c0 .4.3.7.7.7.3 0 .6-.3.7-.7v-3.3c0-.4-.3-.7-.7-.7zm0 7c-.4 0-.7.3-.7.7V74c0 .4.3.7.7.7.3 0 .6-.3.7-.7v-2.2c0-.4-.3-.7-.7-.7zm-8.9 6v-1.4l.1.1.7.7.7-.7-.7-.7-.7-.7-.7.7h-.1l-.7-.7-.7.7.7.7.4-.4v4.7h1v-1h1v-1h-1v-1zm0-5.4v1h1v-1h-1zm2-1.1h-1v1h1v-1zm0 3.1v-1h-1v1h1zm1-2h-1v1h1v-1zm-2 6.4h1.1V77h-1.1v1.1zm1.3-8.9l.7.7.7-.7-.7-.7-.7-.7-.7.7.7.7zm1.5 0l.7.7.7-.7-.7-.7-.7.7zm.7.8l-.7.7.7.7.7.7.7-.7-.7-.7-.7-.7zm.7 2.2l-.7.7-.7.7.7.7.7-.7.7-.7-.7-.7zm-1.4 2.9h-.1l-.7-.7-.7.7-.7.7.7.7.7-.7.1-.1V78h-1v1h1v1h1v-4.7l.4.4.7-.7-.7-.7-.7.8zm-5.3-.7l.7-.7-.7-.7-.7-.7-.7.7.7.7.7.7zm-.6-2.2l.7-.7.7-.7-.7-.7-.7.7-.7.7.7.7zm2.2-2.2l.7-.7.7-.7-.7-.7-.7.7-.7.7.7.7zm-.8-.7l-.7-.7-.7.7.7.7.7-.7z"/></svg>