<svg id="Layer_1" xmlns="http://www.w3.org/2000/svg" viewBox="0 155 310 155" width="310" height="155"><style>.st0{fill:#231f20}</style><path class="st0" d="M31.5 183.4h-1.6v-.8h4v.8h-1.6v4.8h-.8v-4.8zm5.2 2.4h2.4v2.4h.8v-5.6h-.8v2.4h-2.4v-2.4h-.8v5.6h.8v-2.4zm6 0h2.4v2.4h.8v-4.8h-.8v1.6h-2.4v-1.6h-.8v4.8h.8v-2.4zm2.4-3.2h-2.4v.8h2.4v-.8zm3.6 2.4h.8v-.8h-.8v-1.6h-.8v5.6h.8V185zm1.6.8v-.8h-.8v.8h.8zm.8.8v1.6h.8v-5.6h-.8v3.2h-.8v.8h.8zm6 0v-.8h-.8v.8h.8zm-2.4-.8h1.6v-.8h-1.6v-2.4h-.8v5.6h.8v-2.4zm3.2-3.2h-.8v1.6h.8v-1.6zm-.8 1.6h-.8v.8h.8v-.8zm.8 4v-1.6h-.8v1.6h.8zm2-4.8v1.6h.8v-1.6h-.8zm.8 1.6v.8h2.4v-.8h-2.4zm2.4 2.4h-3.2v.8h3.2v-.8zm.8-1.6h-.8v1.6h.8v-1.6zm0-3.2h-3.2v.8h3.2v-.8zm8.8 3.2h2.4v-.8h-2.4v-1.6h3.2v-.8h-4v5.6h.8v-2.4zm6-2.4h-.8v4h.8v-4zm2.4 4h-2.4v.8h2.4v-.8h.8v-4h-.8v-.8h-2.4v.8h2.4v4zm3.6-1.6h.8v.8h.8v-.8h.8v-.8h-2.4v-1.6h2.4v-.8h-3.2v5.6h.8v-2.4zm3.2 2.4v-.8h-.8v.8h.8zm-.8-.8v-.8h-.8v.8h.8zm.8-2.4v-1.6h-.8v1.6h.8zm8.8-2.4h-.8v4h.8v-4zm3.2 0h-.8v4h.8v-4zm-2.4 4.8v-.8h-.8v.8h.8zm.8.8v-.8h-.8v.8h.8zm.8-1.6h-.8v.8h.8v-.8zm6.8.8h-1.6v-4h1.6v-.8h-4v.8h1.6v4h-1.6v.8h4v-.8zm5.2 0h-3.2v.8h3.2v-.8zm-3.2-4v1.6h.8v-1.6h-.8zm4-.8h-3.2v.8h3.2v-.8zm0 3.2h-.8v1.6h.8v-1.6zm-3.2-.8v.8h2.4v-.8h-2.4zm9.2 2.4h-1.6v-4h1.6v-.8h-4v.8h1.6v4h-1.6v.8h4v-.8zm3.6.8h.8v-4.8h1.6v-.8h-4v.8h1.6v4.8zm4.7 93.2c-.1.4-.4.7-.8.7H36.1c-.4 0-.7-.3-.7-.7s.3-.7.7-.7h9.8v-11.8h4.6v-1.2h1.3v-8h-7.9v1.3h-1.3v-1.3h-1.3v-1.3h10.5v-38.2h-1.3v-1.3h4v1.3h-1.3v48.7h5.9v11.8h4.8v-28.4h3.5v4.7h3.1v-4.7h2.7v-19h3.5v4.7H80v-4.7h6.4v4.7h3.1v-4.7h6.4v4.7h3.2v-4.7h3.4v19h3.1v4.7h3.8v-4.7h3.5V280.7h12.6c.4 0 .7.3.7.7zm-68.4-9.9h-1.3v-1.3h-8v1.3h-1.3v7.9h1.3v1.3h8v-1.3h1.3v-7.9zm16.8-28.1h3.9V241h6v2.4h7.2V241h6v2.4h3.4v-8.7h-.7v4.7h-6v-4.7h-3.6v4.7h-5.9v-4.7h-3.6v4.7h-5.9v-4.7h-.8v8.7zm23.1 1.4v2.6h3.4v-2.6h-3.4zm-4.6-2.5v7.6h3.3v-7.6h-3.3zm-8.6 2.5v2.6h7.2v-2.6h-7.2zm-4.7-2.5v7.6h3.3v-7.6h-3.3zm-5.2 5.1h3.9v-2.6h-3.9v2.6zm0 4.9h2.3v4.7H80v-4.7h6.4v4.7h3.3v-4.7h6.4v4.7h3.1v-4.7h1.9v-3.5h-3.4v2.5h-6v-2.5h-7.2v2.5h-6v-2.5h-3.9v3.5zm7.5 25.3H65.3v3.1h16.8v-3.1zm0-4.4H65.3v3h16.8v-3zm0-4H65.3v2.6h16.8v-2.6zm.1-1.4c.2-1.3.9-2.5 1.8-3.4H65.3v3.4h16.9zm8.2 1.4c0-1.4-1.1-2.5-2.5-2.5s-2.5 1.1-2.5 2.5v11.5h5v-11.5zm1.9-.5c0-2.1-1.5-3.9-3.5-4.3H87c-2 .4-3.5 2.2-3.5 4.3v12h.5v-11.5c0-2.1 1.7-3.8 3.8-3.8 2.1 0 3.8 1.7 3.8 3.8v11.5h.7v-12zm19.2 8.9H93.7v3.1h17.8v-3.1zm0-4.4H93.7v3h17.8v-3zm0-4H93.7v2.6h17.8v-2.6zm0-4.8H91.8c1 .9 1.6 2.1 1.8 3.4h17.9v-3.4zm0-4.3H65.3v2.9h21.5c.3-.1.7-.1 1.1-.1s.7 0 1.1.1h22.5v-2.9zm0-6.4h-.8v4.7h-6.6v-4.7h-3.6v4.7h-5.9v-4.7H91v4.7h-6v-4.7h-3.6v4.7h-5.9v-4.7H72v4.7h-5.9v-4.7h-.8v5h46.2v-5zm33.7 34.7h-2.1v2h-2v2.1h2v2.1h2.1v-2.1h-2v-2h2v2h2.1v-2.1h-2.1v-2zm-8 12.1h-2v-2h2v-2.1h-2.1v2.1h-2v2.1h2v2h2.1v-2.1l2.1.1v-2.1h-2.1v2zM11.1 288.4H9v2H6.9v2.1H9v-2h2v2H9v2.1h2.1v-2.1h2v-2.1h-2v-2zm8 8H17v2.1h2v2h-2v-2h-2.1v2.1H17v2h2.1v-2h2v-2.1h-2v-2.1zm120.1-96.6h2v-2.1h-2v-2h-2.1v2H135v2.1h2.1v-2h2l.1 2h-2.1v2.1h2.1v-2.1zm8-37.4h-2.1v2.1h2v2h-2v-2H143v2.1h2.1v2h2.1v-2h2v-2.1h-2v-2.1zM15.9 195.7v2h-2.1v2.1h2.1v-2h2v2h-2v2.1H18v-2.1h2v-2.1h-2v-2h-2.1zm-8-27.1H10v-2h2v-2.1h-2v-2.1H7.9v2.1h2v2h-2v-2H5.8v2.1h2.1v2zm65.3.4h-1.4v1.4h1.4V169zm-2.8 0H69v1.4h1.4V169zm39.7 0h-1.4v1.4h1.4V169zM42 169h-1.4v1.4H42V169zm39.7 0h-1.4v1.4h1.4V169zm-36.8 0h-1.4v1.4h1.4V169zm30.4 1.4h.7V169h-1.4v1.4h.7zm3.6-1.4h-1.4v1.4h1.4V169zm-25.5 0H52v1.4h1.4V169zm4.9 1.4h.7V169h-1.4v1.4h.7zm8.5 0h.7V169h-1.4v1.4h.7zm-4.9-1.4h-1.4v1.4h1.4V169zm-14.2 0h-1.4v1.4h1.4V169zm2.1 1.4h.7V169h-1.4v1.4h.7zm34 0h.7V169h-1.4v1.4h.7zM56.2 169h-1.4v1.4h1.4V169zm59.5 0h-1.4v1.4h1.4V169zm-19.8 0h-1.4v1.4h1.4V169zm17 0h-1.4v1.4h1.4V169zm-11.3 0h-1.4v1.4h1.4V169zm-2.9 0h-1.4v1.4h1.4V169zm5.7 0H103v1.4h1.4V169zm2.8 0h-1.4v1.4h1.4V169zm-14.1 0h-1.4v1.4h1.4V169zm-28.4 0h-1.4v1.4h1.4V169zm22.7 0H86v1.4h1.4V169zm2.8 0h-1.4v1.4h1.4V169zm-9.9 126.2h1.4v-1.4h-1.4v1.4zm-2.8 0h1.4v-1.4h-1.4v1.4zm-2.9 0H76v-1.4h-1.4v1.4zm-2.8 0h1.4v-1.4h-1.4v1.4zm-25.5 0h1.4v-1.4h-1.4v1.4zm39.7 0h1.4v-1.4H86v1.4zm-22.7 0h1.4v-1.4h-1.4v1.4zm-2.8 0h1.4v-1.4h-1.4v1.4zm-2.9 0H59v-1.4h-1.4v1.4zm8.5 0h1.4v-1.4h-1.4v1.4zm48.2 0h1.4v-1.4h-1.4v1.4zm-65.2 0h1.4v-1.4h-1.4v1.4zm34 0h1.4v-1.4h-1.4v1.4zm-42.5 0H42v-1.4h-1.4v1.4zm2.9 0h1.4v-1.4h-1.4v1.4zm68 0h1.4v-1.4h-1.4v1.4zm-59.5 0h1.4v-1.4H52v1.4zm2.8 0h1.4v-1.4h-1.4v1.4zm39.7 0h1.4v-1.4h-1.4v1.4zm5.7 0h1.4v-1.4h-1.4v1.4zm-2.9 0h1.4v-1.4h-1.4v1.4zm-8.5 0h1.4v-1.4h-1.4v1.4zm2.9 0h1.4v-1.4h-1.4v1.4zm-22.7 0h1.4v-1.4H69v1.4zm36.8 0h1.4v-1.4h-1.4v1.4zm2.9 0h1.4v-1.4h-1.4v1.4zm-5.7 0h1.4v-1.4H103v1.4zm35.2-52.2h-1.4v1.4h1.4V243zm0 2.8h-1.4v1.4h1.4v-1.4zm0-5.7h-1.4v1.4h1.4v-1.4zm0 19.9h-1.4v1.4h1.4V260zm-1.4 7.1h1.4v-1.4h-1.4v1.4zm1.4-4.3h-1.4v1.4h1.4v-1.4zm0-28.3h-1.4v1.4h1.4v-1.4zm0 22.7h-1.4v1.4h1.4v-1.4zm0-5.7h-1.4v1.4h1.4v-1.4zm0-2.9h-1.4v1.4h1.4v-1.4zm0 5.7h-1.4v1.4h1.4v-1.4zm0-17h-1.4v1.4h1.4v-1.4zm0-8.5h-1.4v1.4h1.4v-1.4zm0 2.8h-1.4v1.4h1.4v-1.4zm0-5.6h-1.4v1.4h1.4V226zm5.9-8.2h-1.4v56.1h1.4v-56.1zM131 245h1.4v-23.2H131V245zm-115.4-2h-1.4v1.4h1.4V243zm0-8.5h-1.4v1.4h1.4v-1.4zm0 5.6h-1.4v1.4h1.4v-1.4zm-.7 27h.7v-1.4h-1.4v1.4h.7zm.7-35.5h-1.4v1.4h1.4v-1.4zm0-2.8h-1.4v1.4h1.4v-1.4zm0 8.5h-1.4v1.4h1.4v-1.4zm0 8.5h-1.4v1.4h1.4v-1.4zm0 14.2h-1.4v1.4h1.4V260zm0-2.8h-1.4v1.4h1.4v-1.4zm-1.4 7h1.4v-1.4h-1.4v1.4zm1.4-15.6h-1.4v1.4h1.4v-1.4zm0 2.9h-1.4v1.4h1.4v-1.4zm0 2.8h-1.4v1.4h1.4v-1.4zm0-28.3h-1.4v1.4h1.4V226zm-5.9 47.9v-56.1H8.3v56.1h1.4zM20.1 245h1.4v-23.2h-1.4V245zm78.5-37.8v2.1h2.1v-2.1h-2.1zm0 6.3h2.1v-2.1h-2.1v2.1zm4.2-2.1v-2.1h-2.1v2.1h2.1zm-6.3-2.1v2.1h2.1v-2.1h-2.1zm11.7 11h2.1v-2.1h-2.1v2.1zm4.2-2.1v-2h2v-2.1h-2.1v2h-2v-2h-2.1v2.1h2.1v2h2.1zm0 2.2h2.1v-2.1h-2.1v2.1zm-28.2-2.2v2.1h2.1v-2.1h2v-2h2.1v-2.1h-2.1v2h-2v-2h-2.1v2.1h2v2h-2zm4.2 2.2h2.1v-2.1h-2.1v2.1zm-39.8 59h1.3v-1.3h-1.3v1.3zm0-7.9v1.3h1.3v-1.3h-1.3zm2.6 1.3h4v5.3h-5.3v-5.3h1.3zm2.7 1.3h-2.7v2.7h2.7v-2.7zm1.3 4v1.3h1.3v-1.3h-1.3zm-9.9-15.7v1.3h1.3v-1.3h-1.3zm2.6 2.6v-1.3h-1.3v1.3h1.3zm1.3 1.3V265h-1.3v1.3h1.3zm1.3 1.3v-1.3h-1.3v1.3h1.3zm-6.6-6.5v1.3h1.3v-1.3h-1.3zm11.3 11.7h1.3v-1.3h-1.3v1.3zm-.7-61.8h-4v1.3h4V211zm-5.3 2.6h-1.3v4h1.3v-1.7-2.3zm6.6 4h1.3v-4h-1.3v4zm0-4v-1.3h-1.3v1.3h1.3zm-5.3-1.3h-1.3v1.3h1.3v-1.3zm-1.3 5.3v1.3h1.3v-1.3h-1.3zm5.3 1.3h1.3v-1.3h-1.3v1.3zm-30.1-39.7h-1.8v5.4h-5.3v-1.8H19V181h-1.8v1.8h-1.7v1.8h-1.8v1.8h8.9v5.3h1.8v-12.5zm0-1.8v1.8H131.7v-1.8h-1.8v-1.8h-1.8v1.8H28v-1.8h-1.8v1.8h-1.8zm-5.4-1.8h7.2v-1.8H13.7v1.8h1.8v1.8h1.8v-1.8H19zm1.8 3.6h-1.7v-1.8h-1.8v1.8H19v1.8h1.8v-1.8zm110.9 12.5H24.4v1.8H131.7v-1.8zm7.1-16.1v1.8h-1.7v1.8h1.8v-1.8h1.7v-1.8h1.8v-1.8h-12.5v1.8h8.9zm-3.5 5.4h1.8v-1.8h-1.8v1.8zm3.5 1.8v1.8h-5.3v-5.4h-1.8v12.5h1.8v-5.3h8.9v-1.8h-1.8v-1.8h-1.8l.1-1.8h-1.8v1.8h1.7zm47.7 5.4h.8v-4.8h1.6v-.8h-4v.8h1.6v4.8zm5.2-2.4h2.4v2.4h.8v-5.6h-.8v2.4h-2.4v-2.4h-.8v5.6h.8v-2.4zm6 0h2.4v2.4h.8v-4.8h-.8v1.6h-2.4v-1.6h-.8v4.8h.8v-2.4zm2.4-3.2h-2.4v.8h2.4v-.8zm3.6 2.4h.8v-.8h-.8v-1.6h-.8v5.6h.8V185zm1.6.8v-.8h-.8v.8h.8zm.8.8v1.6h.8v-5.6h-.8v3.2h-.8v.8h.8zm6 0v-.8h-.8v.8h.8zm-2.4-.8h1.6v-.8h-1.6v-2.4h-.8v5.6h.8v-2.4zm3.2-3.2h-.8v1.6h.8v-1.6zm-.8 1.6h-.8v.8h.8v-.8zm.8 4v-1.6h-.8v1.6h.8zm6-2.4h-.8v1.6h.8v-1.6zm-3.2-.8v.8h2.4v-.8h-2.4zm2.4 2.4h-3.2v.8h3.2v-.8zm.8-4.8h-3.2v.8h3.2v-.8zm-4 .8v1.6h.8v-1.6h-.8zm12.8 2.4h2.4v-.8h-2.4v-1.6h3.2v-.8h-4v5.6h.8v-2.4zm8.4-3.2h-2.4v.8h2.4v-.8zm.8 4.8v-4h-.8v4h.8zm-3.2-4h-.8v4h.8v-4zm0 4.8h2.4v-.8h-2.4v.8zm8.4-.8v-.8h-.8v.8h.8zm.8.8v-.8h-.8v.8h.8zm0-3.2v-1.6h-.8v1.6h.8zm-3.2.8h.8v.8h.8v-.8h.8v-.8h-2.4v-1.6h2.4v-.8h-3.2v5.6h.8v-2.4zm12.8 1.6v-.8h-.8v.8h.8zm2.4-4.8h-.8v4h.8v-4zm-1.6 5.6v-.8h-.8v.8h.8zm.8-1.6h-.8v.8h.8v-.8zm-2.4-4h-.8v4h.8v-4zm9.2 4.8h-1.6v-4h1.6v-.8h-4v.8h1.6v4h-1.6v.8h4v-.8zm2.8-2.4v.8h2.4v-.8h-2.4zm3.2-2.4h-3.2v.8h3.2v-.8zm0 3.2h-.8v1.6h.8v-1.6zm-4-2.4v1.6h.8v-1.6h-.8zm3.2 4h-3.2v.8h3.2v-.8zm6.8 0h-1.6v-4h1.6v-.8h-4v.8h1.6v4h-1.6v.8h4v-.8zm3.6.8h.8v-4.8h1.6v-.8h-4v.8h1.6v4.8zm23.7 100.2h-2.1v2h-2v2.1h2v2.1h2.1v-2.1h-2v-2h2v2h2.1v-2.1h-2.1v-2zm-8 12.1h-2v-2h2v-2.1h-2.1v2.1h-2v2.1h2v2h2.1v-2.1l2.1.1v-2.1h-2.1v2zm-126.1-12.1H164v2h-2.1v2.1h2.1v-2h2v2h-2v2.1h2.1v-2.1h2v-2.1h-2v-2zm8 8H172v2.1h2v2h-2v-2h-2.1v2.1h2.1v2h2.1v-2h2v-2.1h-2v-2.1zm120.1-96.6h2v-2.1h-2v-2h-2.1v2H290v2.1h2.1v-2h2l.1 2h-2.1v2.1h2.1v-2.1zm8-35.3v-2.1h-2.1v2.1h2.1l-.1 2h-2v-2H298v2.1h2.1v2h2.1v-2h2v-2.1h-2zm-131.3 31.2v2h-2.1v2.1h2.1v-2h2v2h-2v2.1h2.1v-2.1h2v-2.1h-2v-2h-2.1zm-8-27.1h2.1v-2h2v-2.1h-2v-2.1h-2.1v2.1h2v2h-2v-2h-2.1v2.1h2.1v2zm62.5.4H224v1.4h1.4V169zm-5.7 0h-1.4v1.4h1.4V169zm-22.7 0h-1.4v1.4h1.4V169zm24.8 1.4h.7V169h-1.4v1.4h.7zm-21.9-1.4h-1.4v1.4h1.4V169zm17 0h-1.4v1.4h1.4V169zm-12.1 1.4h.7V169h-1.4v1.4h.7zm-2.1-1.4h-1.4v1.4h1.4V169zm25.5 0h-1.4v1.4h1.4V169zm-14.9 1.4h.7V169h-1.4v1.4h.7zm-4.9-1.4H207v1.4h1.4V169zm2.8 0h-1.4v1.4h1.4V169zm48.2 0H258v1.4h1.4V169zm-2.8 0h-1.4v1.4h1.4V169zm-17.8 1.4h.7V169h-1.4v1.4h.7zm14.9-1.4h-1.4v1.4h1.4V169zm-11.3 0H241v1.4h1.4V169zm-12.1 1.4h.7V169h-1.4v1.4h.7zm14.9-1.4h-1.4v1.4h1.4V169zm5.7 0h-1.4v1.4h1.4V169zm-2.8 0h-1.4v1.4h1.4V169zm-11.4 0h-1.4v1.4h1.4V169zm34 0h-1.4v1.4h1.4V169zm-8.5 0h-1.4v1.4h1.4V169zm-28.3 0h-1.4v1.4h1.4V169zm31.2 0h-1.4v1.4h1.4V169zm2.8 0h-1.4v1.4h1.4V169zm-29.8 126.2h1.4v-1.4h-1.4v1.4zm5.7 0h1.4v-1.4h-1.4v1.4zm-2.8 0h1.4v-1.4H241v1.4zm-5.7 0h1.4v-1.4h-1.4v1.4zm11.4 0h1.4v-1.4h-1.4v1.4zm-22.7 0h1.4v-1.4H224v1.4zm8.5 0h1.4v-1.4h-1.4v1.4zm-5.7 0h1.4v-1.4h-1.4v1.4zm42.5 0h1.4v-1.4h-1.4v1.4zm-8.5 0h1.4v-1.4h-1.4v1.4zm5.7 0h1.4v-1.4h-1.4v1.4zm-2.8 0h1.4v-1.4h-1.4v1.4zm-42.6 0h1.4v-1.4h-1.4v1.4zm31.2 0h1.4v-1.4h-1.4v1.4zm-2.8 0h1.4v-1.4h-1.4v1.4zm5.7 0h1.4v-1.4h-1.4v1.4zm2.8 0h1.4v-1.4H258v1.4zm-28.4 0h1.4v-1.4h-1.4v1.4zm-31.1 0h1.4v-1.4h-1.4v1.4zm2.8 0h1.4v-1.4h-1.4v1.4zm-5.7 0h1.4v-1.4h-1.4v1.4zm8.5 0h1.4v-1.4h-1.4v1.4zm14.2 0h1.4v-1.4h-1.4v1.4zm-5.7 0h1.4v-1.4h-1.4v1.4zm-5.6 0h1.4v-1.4H207v1.4zm8.5 0h1.4v-1.4h-1.4v1.4zm-5.7 0h1.4v-1.4h-1.4v1.4zm82-28.1h1.4v-1.4h-1.4v1.4zm1.4-29.8h-1.4v1.4h1.4v-1.4zm0-11.3h-1.4v1.4h1.4V226zm0 2.8h-1.4v1.4h1.4v-1.4zm0 5.7h-1.4v1.4h1.4v-1.4zm0-2.9h-1.4v1.4h1.4v-1.4zm0 8.5h-1.4v1.4h1.4v-1.4zm0 19.9h-1.4v1.4h1.4V260zm0-11.4h-1.4v1.4h1.4v-1.4zm0 2.9h-1.4v1.4h1.4v-1.4zm0-5.7h-1.4v1.4h1.4v-1.4zm0-2.8h-1.4v1.4h1.4V243zm0 11.3h-1.4v1.4h1.4v-1.4zm0 2.9h-1.4v1.4h1.4v-1.4zm0 5.6h-1.4v1.4h1.4v-1.4zm5.9-45h-1.4v56.1h1.4v-56.1zM286 245h1.4v-23.2H286V245zm-115.4-2h-1.4v1.4h1.4V243zm0 5.6h-1.4v1.4h1.4v-1.4zm0-8.5h-1.4v1.4h1.4v-1.4zm-1.4 24.1h1.4v-1.4h-1.4v1.4zm1.4-26.9h-1.4v1.4h1.4v-1.4zm0 17h-1.4v1.4h1.4v-1.4zm0-8.5h-1.4v1.4h1.4v-1.4zm-.7 21.3h.7v-1.4h-1.4v1.4h.7zm.7-15.6h-1.4v1.4h1.4v-1.4zm0-25.5h-1.4v1.4h1.4V226zm0 31.2h-1.4v1.4h1.4v-1.4zm0-28.4h-1.4v1.4h1.4v-1.4zm0 5.7h-1.4v1.4h1.4v-1.4zm0-2.9h-1.4v1.4h1.4v-1.4zm0 28.4h-1.4v1.4h1.4V260zm-5.9 13.9v-56.1h-1.4v56.1h1.4zm10.4-28.9h1.4v-23.2h-1.4V245zm28.5 34.4h1.3v-1.3h-1.3v1.3zm0-7.9v1.3h1.3v-1.3h-1.3zm2.6 1.3h4v5.3h-5.3v-5.3h1.3zm2.7 1.3h-2.7v2.7h2.7v-2.7zm1.3 4v1.3h1.3v-1.3h-1.3zm0-5.3h1.3v-1.3h-1.3v1.3zm-.7-60.5V211h-4v1.3h4zm-5.3 1.3h-1.3v4h1.3v-1.7-2.3zm6.6 4h1.3v-4h-1.3v4zm0-4v-1.3h-1.3v1.3h1.3zm-5.3-1.3h-1.3v1.3h1.3v-1.3zm-1.3 5.3v1.3h1.3v-1.3h-1.3zm5.3 1.3h1.3v-1.3h-1.3v1.3zm-7.9 44.8h2.7v-1.3h-2.7v1.3zM199 261v1.3h2.6V261H199zm-19.6-81.8h-1.8v5.4h-5.3v-1.8h1.7V181h-1.8v1.8h-1.7v1.8h-1.8v1.8h8.9v5.3h1.8v-3.6-8.9zm-5.4-3.6h7.2v-1.8h-12.5v1.8h1.8v1.8h1.8v-1.8h1.7zm1.8 3.6h-1.7v-1.8h-1.8v1.8h1.7v1.8h1.8v-1.8zm112.7 12.5v-5.3h8.9v-1.8h-1.8v-1.8h-1.7V181h-1.8v1.8h1.7v1.8h-5.3v-5.4h-1.8v12.5h1.8zm-1.8 0H179.4v1.8h107.3v-1.8zm1.8-16.1h5.3v1.8h-1.7v1.8h1.8v-1.8h1.7v-1.8h1.8v-1.8h-12.5v1.8h3.6zm-107.9 1.8h-1.2v1.8h107.3v-1.8h-1.8v-1.8h-1.8v1.8H183v-1.8h-1.8v1.8h-.6zm111.5 3.6v-1.8h-1.8v1.8h1.8zm-22.8 59.8h-1.4v1.5h1.4v-1.5zm0 3h-1.4v1.4h1.4v-1.4zm0 2.9h-1.4v1.4h1.4v-1.4zm-1.4 4.1h1.4v-1.4h-1.4v1.4zm1.4-12.8h-1.4v1.4h1.4V238zm0-2.8h-1.4v1.4h1.4v-1.4zm0-4.4h-1.4v1.5c1.4 0 0 0 1.4-.1v-1.4zm1.4 11.5v1.4h1.4v-1.4h-1.4zm2.8 2.8v-1.4h-1.4v1.4h1.4zm0-2.8h1.4v-1.4h-1.4v1.4zm2.9 0h1.4v-1.4h-1.4v1.4zm-5.7-1.5h1.4v-1.4h-1.4v1.4zm4.2-4.1h-1.4v1.3h-1.4v1.4h1.4v-1.3h1.4v-1.4zm1.3-1.4h1.4v-1.4h-1.4v1.4zm-9.7 5.5v-1.4h-1.4v1.4h1.4zm-2.8-2.8v1.4h1.4V238h-1.4zm-.1 0v-1.4h-1.4v1.4h1.4zm-4.2-2.8h1.4v-1.4h-1.4v1.4zm7.1 7.1h-1.4v1.4h1.4v-1.4zm-2.8 2.8h1.4v-1.4h-1.4v1.4zm-1.5 1.5h-1.4v1.4h1.4v-1.4zM275 248h1.4v-1.4H275v1.4zm-12.8-5.7h1.4v-1.4h-1.4v1.4zm-1.4-1.4h-1.4v1.4h1.4v-1.4zm20.4 40.5c-.1.4-.4.7-.8.7h-89.3c-.4 0-.7-.3-.7-.7s.3-.7.7-.7h9.8v-11.8h4.6v-2.5h-1.2v-2.6h1.3v2.6h1.2v-6.7h-7.9v1.3h-1.3v-1.3h-1.3v-1.3h10.5v-38.2h-1.3v-1.3h4v1.3h-1.3v48.7h5.9v11.8h4.8v-28.4h3.5v4.7h3.1v-4.7h2.7v-19h3.5v4.7h3.3v-4.7h6.4v4.7h3.1v-4.7h6.4v4.7h3.2v-4.7h3.4v19h3.1v4.7h3.8v-4.7h3.5V280.7h12.6c.4 0 .7.3.7.7zm-68.4-9.9h-1.3v-1.3h-8v1.3h-1.3v7.9h1.3v1.3h8v-1.3h1.3v-7.9zm16.8-28.1h3.9V241h6v2.4h7.2V241h6v2.4h3.4v-8.7h-.7v4.7h-6v-4.7h-3.6v4.7h-5.9v-4.7h-3.6v4.7h-5.9v-4.7h-.8v8.7zm23.1 1.4v2.6h3.4v-2.6h-3.4zm-4.6-2.5v7.6h3.3v-7.6h-3.3zm-8.6 2.5v2.6h7.2v-2.6h-7.2zm-4.7-2.5v7.6h3.3v-7.6h-3.3zm-5.2 5.1h3.9v-2.6h-3.9v2.6zm0 4.9h2.3v4.7h3.1v-4.7h6.4v4.7h3.3v-4.7h6.4v4.7h3.1v-4.7h1.9v-3.5h-3.4v2.5h-6v-2.5h-7.2v2.5h-6v-2.5h-3.9v3.5zm7.5 25.3h-16.8v3.1h16.8v-3.1zm0-4.4h-16.8v3h16.8v-3zm0-4h-16.8v2.6h16.8v-2.6zm.1-1.4c.2-1.3.9-2.5 1.8-3.4h-18.7v3.4h16.9zm8.2 1.4c0-1.4-1.1-2.5-2.5-2.5s-2.5 1.1-2.5 2.5v11.5h5v-11.5zm1.9-.5c0-2.1-1.5-3.9-3.5-4.3H242c-2 .4-3.5 2.2-3.5 4.3v12h.5v-11.5c0-2.1 1.7-3.8 3.8-3.8s3.8 1.7 3.8 3.8v11.5h.7v-12zm19.2 8.9h-17.8v3.1h17.8v-3.1zm0-4.4h-17.8v3h17.8v-3zm0-4h-17.8v2.6h17.8v-2.6zm0-4.8h-19.7c1 .9 1.6 2.1 1.8 3.4h17.9v-3.4zm0-4.3h-46.2v2.9h21.5c.3-.1.7-.1 1.1-.1s.7 0 1.1.1h22.5v-2.9zm0-6.4h-.8v4.7h-6.6v-4.7h-3.6v4.7h-5.9v-4.7H246v4.7h-6v-4.7h-3.6v4.7h-5.9v-4.7H227v4.7h-5.9v-4.7h-.8v5h46.2v-5zm-34.7-31.5h-1.4v-1.4h1.4v1.4zm2.9 0h-1.4v-1.4h1.4v1.4zm2.8 0h-1.4v-1.4h1.4v1.4zm-8.6 0h-1.4v-1.4h1.4v1.4zm-2.8 0h-1.4v-1.4h1.4v1.4zm-4.3 0h-1.4v-1.4h1.4v1.4zm11.5-2.8h-1.4V218h1.4v1.4zm1.4-1.3h-1.4v-1.4h1.4v1.4zm-2.8-1.4h-1.4v-1.4h1.4v1.4zm0-2.9h-1.4v-1.4h1.4v1.4zm-1.5 5.6H229V218h1.4v1.4zm-1.4-1.3h-1.4v-1.4h1.4v1.4zm-2.8-2.9h-1.4v-1.4h1.4v1.4zm-1.5 2.9h-1.4v-1.4h1.4v1.4zm12.8-2.9h-1.4v-1.4h1.4v1.4zm-7.1 9.9H229v-1.4h1.4v1.4zm-1.4 1.3h-1.4V225h1.4v1.4zm-2.8 3h-1.4V228h1.4v1.4zm-1.5-2.8h-1.4v-1.4h1.4v1.4zm14.2 0h-1.4v-1.4h1.4v1.4zm-5.6-1.5h-1.4v-1.4h1.4v1.4zm1.4 1.5h-1.4v-1.4h1.4v1.4zm2.8 2.8h-1.4V228h1.4v1.4zm-5.7-1.5h-1.4v-1.4h1.4v1.4zm0 2.9h-1.4v-1.4h1.4v1.4zm9.5-16.7h2.1v2.1h-2.1v-2.1zm0 4.2h2.1v2.1h-2.1v-2.1zm2.1-2.1h2.1v2.1h-2.1v-2.1zm-4.2 0h2.1v2.1h-2.1v-2.1zm26.1-2.1h2.1v2.1h-2.1v-2.1zm0 4.2h2.1v2.1h-2.1v-2.1zm2.1-2.1h2.1v2.1h-2.1v-2.1zm-4.2 0h2.1v2.1h-2.1v-2.1zm-11.7-4.9h2.1v2.1h-2.1v-2.1zm2-2.1h2.1v2.1h-2.1v-2.1zm2.1-2h2.1v2.1h-2.1v-2.1zm-4.1 0h2.1v2.1h-2.1v-2.1zm4.1 4.1h2.1v2.1h-2.1v-2.1z"/></svg>