<svg id="Layer_1" xmlns="http://www.w3.org/2000/svg" viewBox="0 0 310 155"><style>.st0{fill:#231f20}</style><path class="st0" d="M131.3 128.3h2v2.1h-2v2h-2.1v-2h-2.1v-2.1h2.1v2h2l.1-2h-2.1v-2.1h2.1v2.1zm13.8-112.8H143v2h-2.1v2.1h2.1v-2h2.1v2h2.1v-2.1h-2.1v-2zm-2.1 6.2h2.1v-2.1H143v2.1zM11.6 15.5H9.5v2h-2v2.1h2v2.1h2.1v-2.1h-2v-2h2v2h2.1v-2.1h-2.1v-2zm13.9 110.7h-2.1v2.1h2.1v-2.1zm0 4.1h-2.1v-2h-2.1v2.1h2.1v2h2.1v-2h2.1v-2.1h-2.1v2zm7.8-83.1h-2.1v2h-2.1v2.1h2.1v-2h2v2h-2v2.1h2.1v-2.1h2v-2.1h-2v-2zm91.3 0h-2.1v2h-2v2.1h2v2.1h2.1v-2.1h-2v-2h2v2h2.1v-2.1h-2.1v-2zm-78.4-4.8h-2v2.1h2v2.1h2.1v-2.1h-2l-.1-2.1 2.1.1v-2.1h-2.1v2zm-4.1 4.2h2.1v-2.1h-2.1v2.1zm2-6.3H42v2.1h2.1v-2.1zm66.2 2.1h-2.1v2.1h2.1v-2.1l2.1.1v-2.1h-2.1v2zm-4.2 4.2h2.1v-2.1h-2.1v2.1zm6.3 0v-2.1h-2.1v2.1h2.1zm-6.3-6.3v2.1h2.1v-2.1h-2.1zm28.7-31l-3.3 8.9 3.3 8.9H20.2l3.3-8.9-3.3-8.9h114.6zm-4.8 8.9l2.7-7.5H22.2l2.7 7.5-2.7 7.5h110.5l-2.7-7.5zM16.2 137.7h1.4v-1.4h-1.4v1.4zm9 0h1.4v-1.4h-1.4v1.4zm6 0h1.4v-1.4h-1.4v1.4zm-3 0h1.4v-1.4h-1.4v1.4zm-9 0h1.4v-1.4h-1.4v1.4zm3 0h1.4v-1.4h-1.4v1.4zm102.7 0h1.4v-1.4h-1.4v1.4zm-5.6 0h1.4v-1.4h-1.4v1.4zm2.8 0h1.4v-1.4h-1.4v1.4zm17 0h1.4v-1.4h-1.4v1.4zm-2.8 0h1.4v-1.4h-1.4v1.4zm-2.9 0h1.4v-1.4h-1.4v1.4zm-5.6 0h1.4v-1.4h-1.4v1.4zm2.8 0h1.4v-1.4h-1.4v1.4zm10.3-127.4h-1.4v1.4h1.4v-1.4zm5.6 0h-1.4v1.4h1.4v-1.4zm-2.8 0h-1.4v1.4h1.4v-1.4zm4.3 1.4h1.4v-1.4H148v1.4zm-142.4 0H7v-1.4H5.6v1.4zm4.3-1.4H8.5v1.4h1.4v-1.4zm2.8 0h-1.4v1.4h1.4v-1.4zm1.4 1.4h1.4v-1.4h-1.4v1.4zm128.2 14.4h1.4v-1.4h-1.4v1.4zm2.8 0h1.4v-1.4h-1.4v1.4zm2.9 0h1.4v-1.4H148v1.4zm-8.5 0h1.4v-1.4h-1.4v1.4zm-131 0h1.4v-1.4H8.5v1.4zm-2.9 0H7v-1.4H5.6v1.4zm8.5 0h1.4v-1.4h-1.4v1.4zm-2.8 0h1.4v-1.4h-1.4v1.4zm34.4-7.6h.8v-1.6h-.8v1.6zm-2.4-1.6h2.4v-.8h-3.2v5.6h.8v-2.4h2.4v-.8h-2.4v-1.6zm6 0h2.4v-.8h-3.2v5.6h.8v-2.4h.8v.8h.8v-.8h.8v-.8h-2.4v-1.6zm2.4 4v-.8h-.8v.8h.8zm0-2.4h.8v-1.6h-.8v1.6zm.8 3.2v-.8h-.8v.8h.8zm2-4.8h1.6v4h-1.6v.8h4v-.8h-1.6v-4h1.6v-.8h-4v.8zm6.8 3.2h.8v-.8h-.8v.8zm-.8 1.6h4v-.8h-3.2v-.8h-.8v1.6zm2.4-3.2h.8v-.8h-.8v.8zm-.8.8h.8v-.8h-.8v.8zm-1.6-2.4h3.2v.8h.8v-1.6h-4v.8zm6 4.8h4v-.8h-3.2v-1.6h2.4v-.8h-2.4v-1.6h3.2v-.8h-4v5.6zm7.6-4v3.2h.8v-3.2h-.8zm-1.6-1.6v4.8h.8v-4.8h-.8zm2.4 5.6h.8v-.8h-.8v.8zm-1.6 0h.8v-.8h-.8v.8zm2.4-.8h.8v-4.8h-.8v4.8zm2.8-4h1.6v4h-1.6v.8h4v-.8h-1.6v-4h1.6v-.8h-4v.8zm9.2 2.4h-.8v.8h.8v1.6h.8v-5.6h-.8v3.2zm-1.6-.8v.8h.8v-.8h-.8zm-.8-.8v-1.6h-.8v5.6h.8v-3.2h.8v-.8h-.8zm6.8.8v.8h.8v-.8h-.8zm1.6.8h-.8v.8h.8v1.6h.8v-5.6h-.8v3.2zm-2.4-1.6v-1.6h-.8v5.6h.8v-3.2h.8v-.8h-.8zm5.2 4h4v-.8h-3.2v-1.6h2.4v-.8h-2.4v-1.6h3.2v-.8h-4v5.6zm9.2-3.2h.8v-1.6h-.8v1.6zm0 2.4v-.8h-.8v.8h.8zm.8.8v-.8h-.8v.8h.8zm-3.2-4.8h2.4v-.8h-3.2v5.6h.8v-2.4h.8v.8h.8v-.8h.8v-.8h-2.4v-1.6zm9.2 4v-1.6h-.8v1.6h.8zm-4-2.4h.8v-1.6h-.8v1.6zm.8-1.6h3.2v-.8h-3.2v.8zm2.4 2.4v-.8h-2.4v.8h2.4zm-3.2 2.4h3.2v-.8h-3.2v.8zm-54.9 124h9v-1.8h-7.2v-3.6h-1.8v5.4zm7.2-7.2h1.8v-3.6h-1.8v3.6zm-5.4 1.8h5.4v-1.8h-5.4v1.8zm0-7.2v1.8h5.4v-1.8h-5.4zm-1.8 3.6h1.8v-1.8h-1.8v1.8zm14.4 9h5.4v-1.8H68v1.8zm5.4-12.6H68v1.8h5.4v-1.8zm0 5.4H68v1.8h5.4v3.6h1.8v-9h-1.8v3.6zm-7.2 3.6v1.8H68v-1.8h-1.8zm0-7.2v3.6H68v-3.6h-1.8zm18 0H86v5.4h-5.4v-1.8h-1.8v3.6H86v3.6h1.8v-12.6h-3.6v1.8zm-3.6 3.6h1.8v-1.8h-1.8v1.8zm1.8-1.8h1.8v-1.8h-1.8v1.8zm9 7.2h1.8v-3.6h5.4v3.6h-5.4v1.8h5.4v-1.8h1.8v-3.6h-1.8v-1.8h-5.4v-3.6h-1.8v9zm1.8-10.8v1.8h5.4v-1.8h-5.4zm5.4 3.6h1.8v-1.8h-1.8v1.8zm41.2-34.2h-1.4v1.4h1.4v-1.4zm0-19.8h-1.4v1.4h1.4v-1.4zm0-11.4h-1.4v1.4h1.4v-1.4zm0 2.9h-1.4v1.4h1.4v-1.4zm0 2.8h-1.4v1.4h1.4V77zm0-11.3h-1.4v1.4h1.4v-1.4zm0-2.9h-1.4v1.4h1.4v-1.4zm0 36.9h-1.4v1.4h1.4v-1.4zm0-19.9h-1.4v1.4h1.4v-1.4zm0-11.3h-1.4v1.4h1.4v-1.4zm0 22.7h-1.4v1.4h1.4v-1.4zm0 2.8h-1.4v1.4h1.4V94zm0-8.5h-1.4v1.4h1.4v-1.4zm0 11.3h-1.4v1.4h1.4v-1.4zm0-8.5h-1.4v1.4h1.4v-1.4zm4.5 23h1.4V55.2h-1.4v56.1zM16.7 98h.7v-1.4H16V98h.7zm0-22.6h.7V74H16v1.4h.7zm0 5.6h.7v-1.4H16V81h.7zm0-11.3h.7v-1.4H16v1.4h.7zm0 31.2h.7v-1.4H16v1.4h.7zm0-28.4h.7v-1.4H16v1.4h.7zm0 31.2h.7v-1.4H16v1.4h.7zm0-36.8h.7v-1.4H16v1.4h.7zm0-2.9h.7v-1.4H16V64h.7zm0 14.2h.7v-1.4H16v1.4h.7zm0 17h.7v-1.4H16v1.4h.7zm0-11.3h.7v-1.4H16v1.4h.7zm0 8.5h.7V91H16v1.4h.7zm0-2.9h.7v-1.4H16v1.4h.7zm0-2.8h.7v-1.4H16v1.4h.7zm-6.3 24.6h1.4V55.2h-1.4v56.1zm13.2-39.6h-1.4v23.2h1.4V71.7zm110.4 0h-1.4v23.2h1.4V71.7zm-55.1-2.5h.3V68h-2.5v1.2h2.2zm-2.2 2.3v-2.2h-1.2v2.4h1.2v-.2zm-5 .2h1.2v-1.2h-1.2v1.2zm2.5 1.3h1.2v-1.2h-1.2V73zm-5-1.3v-2.4H68V73h1.2v-1.3zm2.5-2.5h3.7V68h-6.2v1.2h2.5zm1.3 5.1h1.2v-1.2h-5v1.2H73zm13.7-4.5V73h1.2v-3.7h-1.2v.5zm-3.8-.6h3.8V68h-6.2v1.2h2.4zm-2.5 1.3v-1.2h-1.2v2.4h1.2v-1.2zm1.3 1.3h-1.2V73h1.2v-1.2zm2.5-1.3H83v1.2h1.2v-1.2zm1.3 2.6h-3.8v1.2h5v-1.2h-1.2zm-6.1 4.6c-1.3.6-2.8 0-2.8 0-.3-.2-.7 0-.8.3-.2.3 0 .7.3.8.1.1.9.4 2 .4.5 0 1.1-.1 1.8-.4.3-.1.4-.5.3-.8-.1-.3-.5-.4-.8-.3zm-.6 8.5c.2 0 .4-.1.5-.3.2-.3 0-.7-.3-.8-.1 0-.8-.3-1.6 0-.3.1-.4.5-.3.8.1.3.5.4.8.3.3-.1.6 0 .7 0h.2zm-.9-2.2c-1.9 0-3.4-2.2-3.7-2.6-.2 0-.5-.1-.7-.1-.2 0-.4 0-.5-.1-.3 0-.5-.1-.6-.4-.1-.3.1-.7.4-.7h.9c1.4.2 5.1.6 9.2 0 .3-.1.6.2.7.5 0 .3-.2.6-.5.7-.5.1-1 .1-1.5.1-.4.6-1.9 2.6-3.7 2.6zm0-1.2c.8 0 1.6-.6 2.1-1.3-.6 0-1.2.1-1.7.1-.9 0-1.8 0-2.6-.1.6.6 1.4 1.3 2.2 1.3zm-11.7 24.9c0-.3-.3-.6-.6-.6s-.6.3-.6.6v4.2c0 .3.3.6.6.6.4 0 .6-.3.6-.6v-4.2zm25.6 4.2v-4.2c0-.3-.3-.6-.6-.6s-.6.3-.6.6v4.2c0 .3.3.6.6.6s.6-.3.6-.6zm-14.2-12h1.2v-1.2h-1.2v1.2zm-1.2 1.3v2.4h1.2v-3.7h-1.2v1.3zm-1.3 2.7v3.5h1.2v-3.7h-1.2v.2zm5-1.5v-2.5h-1.2v3.7h1.2v-1.2zm0 1.5v3.5h1.2v-3.7h-1.2v.2zm0-6.5h-1.2v1.2h1.2v-1.2zm-2.5 0h-1.2v1.2h1.2v-1.2zm12.2-.9c.1 2-.5 4.2-.5 4.3-.1.2-.2.3-.4.4l-1 .4 1.2 1.6c.1.2.1.4.1.5 0 .1-.9 2.5-2.5 5.3-2.3 3.7-4.9 6.1-7.7 7-.1 0-.1 0-.2.1h-1.4c-2.8-.9-5.4-3.3-7.7-7-1.7-2.7-2.5-5.2-2.5-5.3-.1-.2 0-.4.1-.5l1.2-1.6-1-.4c-.2-.1-.3-.2-.4-.4 0-.1-.6-2.2-.5-4.3 0-1 .3-1.9.5-2.6-2.1 1-3.7 1.9-4.8 2.7-1.7 1.2-2.6 2.3-2.8 2.6v12.5c0 .4-.3.7-.6.7s-.6-.3-.6-.6V99.2c0-.1 0-.2.1-.3.1-.2 3.2-5 14.4-8.1.1 0 .1-.1.2-.1v-3.5c-.6-.4-1.1-.9-1.6-1.5-2.2-2.9-3.9-6.9-4.1-8.3-.1-.5-.1-.9-.1-1.2H67c-.9-.3-1.6-1.5-2.1-3.6-.7-2.9-.7-3.9-.5-4.5-.1-.1-.2-.2-.3-.4-.1-.4-1.4-8.9 3.5-12.5 3.3-6.1 18.8-6.7 19.4-6.8.3 0 .6.2.6.6 0 .2-.1.3-.2.4-.4.9-1.1 3.1-.4 4.2.3.4.7.6 1.5.6.1 0 .2 0 .3.1 5.1 3.6 3.3 13.1 3.2 13.5.1.1 0 .2-.1.3.3.5.2 1.6-.5 4.5-.5 2.1-1.2 3.3-2.1 3.6h-.2c0 .3 0 .7-.1 1.2-.2 1.4-1.9 5.4-4.1 8.3-.4.5-.9 1-1.4 1.3V90.8c.1 0 .3 0 .4.2 11 3 14.1 7.8 14.2 8 .1.1.1.2.1.3V112c0 .2-.3.5-.6.5s-.6-.3-.6-.6V99.4c-.4-.6-2.5-3-7.6-5.3.2.7.4 1.5.4 2.4zm-9-1.2l4.1 3c.2-1.3.3-3.8-1.4-6-.1 1.3-1.2 2.5-2.7 3zm1.5-3.6v-4c-2 .9-4 .9-4.2.9-.5 0-2.2 0-3.9-.8v4.1c0 1.4 1.9 2.7 4.1 2.7 2.2 0 4-1.2 4.1-2.6-.1-.1-.1-.2-.1-.3zM65.4 67.4c.1 0 .2 0 .3.1 0-1.2.6-2.7 1.8-4.8.3-.4.3-.7.3-1.3 0-.6 0-1.5.6-2.9.3-.8.8-1.3 1.5-1.6 1.6-.7 4 .2 5.1.6 1.6.6 3 .7 3 .7.1 0 .2 0 .2.1.3-.1.9-.2 1.5-.6.7-.5 1.8-1.2 2.9-.8.8.3 1.4 1.2 1.7 2.7.2-.5.3-1.1.2-1.7-.1-1.3-1-2.7-2.4-3.8-.3-.2-.3-.6-.1-.8.2-.3.6-.3.8-.1 1.7 1.3 2.5 2.7 2.7 3.8.1-.1.3-.1.5 0 .8.3 1.3.9 1.6 1.7.5 1.4.6 2.3.6 2.9 0 .5 0 .8.3 1.3l.1.2c.7 1.1 1.7 2.8 1.7 4.7.3-.3.5-.4.7-.3 0-.1 1.7-8.9-2.6-12.2-1 0-1.8-.4-2.3-1.1-.5-.8-.6-2-.3-3.5.1-.4.2-.7.3-1-1.4.1-4.3.4-7.4.9-5.5 1.1-9 2.9-10.2 5.2 0 .1-.1.2-.2.2-4.5 3.1-3.1 11.3-3.1 11.4v.1c.1-.1.1-.1.2-.1zm6.9 17.5c2 2.6 5.8 2.5 5.9 2.5 0 0 3.9.1 5.9-2.5 2.1-2.7 3.7-6.5 3.9-7.7.2-1 0-1.5 0-1.5-.1-.3 0-.6.2-.7.2-.2.5-.1.7.1h.1c.1 0 .7-.4 1.3-2.8.5-2.2.6-3.1.6-3.5-.1.1-.1.2-.2.3l-.3.3c-.6.7-.9 1.8-.9 1.8-.1.3-.4.5-.7.5-.3-.1-.5-.4-.5-.7 0-.1.2-.9.7-1.8h-1V68h.9c.2-1.6-.9-3.3-1.5-4.4l-.1-.2c-.4-.7-.4-1.2-.4-1.8 0-.6 0-1.3-.5-2.5-.2-.4-.4-.7-.7-.9 0 1.3-.4 2.5-1.3 3.5.1 0-.1.1-.3.1h-.2c-.2-.1-.4-.3-.4-.5-.3-2.6-.9-3.2-1.3-3.3-.4-.2-.9 0-1.7.6-1.3 1-2.6.9-2.6.9-.1 0-.2-.1-.3-.1-.6-.1-1.7-.2-3-.7-1-.4-3-1.1-4.2-.6-.4.2-.7.5-.9 1-.5 1.2-.5 1.9-.5 2.5 0 .6 0 1.1-.4 1.8-1.7 2.8-1.7 4.1-1.6 4.6h.9v1.2h-.5c.4.7.5 1.2.5 1.3.1.3-.1.6-.4.7h-.1c-.3 0-.5-.2-.6-.4-.1-.4-.6-1.5-1.3-2 0 .4 0 1.3.6 3.5.6 2.4 1.2 2.7 1.3 2.8h.1c.2-.2.5-.2.7-.1.2.2.3.5.2.7 0 0-.1.5 0 1.5.2 1.2 1.8 5 3.9 7.7 2 2.6-2.1-2.7 0 0zm-.7 13.4l4.2-3c-1.5-.6-2.6-1.8-2.7-3.1-1.7 2.1-1.7 4.7-1.5 6.1zm17-1.8c-.1-1.3-.5-2.5-.7-3-.9-.3-1.8-.7-2.9-1 1.8 3.3.8 6.9.8 7.1l-3 9.6c0 .1-.1.2-.2.3v1.7h-1.2v-3.7h.6l2.5-7.9-3.2-2.3v.2h-1.2v-1.1l-.8-.6c-.3 0-.7.1-1 .1-.4 0-.8 0-1.1-.1l-.9.6v1h-1.2v-.2l-3.2 2.3 2.5 7.8h.7v3.7h-1.2v-1.9l-.3-.3-3-9.3v-.4c-.2-.9-.7-4 .9-6.9-1.1.3-2 .7-2.9 1.1-.2.5-.7 1.8-.8 3.2-.1 1.4.2 3 .4 3.6l1.5.6c.2.1.3.2.4.4.1.2 0 .4-.1.5l-1.4 2c.5 1.3 2.7 6.7 6.5 9.7v-1-1.2h1.2v2.4h-.9c.3.2.7.5 1 .7v-.6h1.2v1.1c.1 0 .1 0 .2.1h.6c.2-.1.3-.1.5-.2v-1h1.2v.4c.3-.2.5-.3.8-.5h-.8v-2.4h1.2v2.1c3.7-3 5.9-8.4 6.5-9.7l-1.4-2c-.1-.2-.1-.3-.1-.5.1-.2.2-.3.4-.4l1.5-.6c.2-.5.5-2 .4-3.5zm197.7 29.7h-2.1v2.1h2v2h-2v-2h-2.1v2.1h2.1v2h2.1v-2h2v-2.1h-2v-2.1zm13.8-110.7H298v2h-2.1v2.1h2.1v-2h2.1v2h2.1v-2.1h-2.1v-2zm-2.1 6.2h2.1v-2.1H298v2.1zm-131.4-6.2h-2.1v2h-2v2.1h2v2.1h2.1v-2.1h-2v-2h2v2h2.1v-2.1h-2.1v-2zm13.9 110.7h-2.1v2.1h2.1v-2.1zm0 4.1h-2.1v-2h-2.1v2.1h2.1v2h2.1v-2h2.1v-2.1h-2.1v2zm7.8-83.1h-2.1v2h-2.1v2.1h2.1v-2h2v2h-2v2.1h2.1v-2.1h2v-2.1h-2v-2zm91.3 0h-2.1v2h-2v2.1h2v2.1h2.1v-2.1h-2v-2h2v2h2.1v-2.1h-2.1v-2zm-80.4-2.7h-2.1v2.1h2.1v-2.1zm2 2.1h2.1v-2.1h-2v-2h2v-2.1h-2.1v2h-2v2.1h2v2.1zm-2.1-6.3H197v2.1h2.1v-2.1zm66.2 4.2v2.1h2.1v-2.1h-2.1v-2h2.1v-2.1h-2.1v2h-2.1v2.1h2.1zm-4.2 2.1h2.1v-2.1h-2.1v2.1zm0-6.3v2.1h2.1v-2.1h-2.1zm28.7-31l-3.3 8.9 3.3 8.9H175.2l3.3-8.9-3.3-8.9h114.6zm-4.8 8.9l2.7-7.5H177.2l2.7 7.5-2.7 7.5h110.5l-2.7-7.5zM174.2 137.7h1.4v-1.4h-1.4v1.4zm3 0h1.4v-1.4h-1.4v1.4zm-6 0h1.4v-1.4h-1.4v1.4zm9 0h1.4v-1.4h-1.4v1.4zm6 0h1.4v-1.4h-1.4v1.4zm-3 0h1.4v-1.4h-1.4v1.4zm108.1 0h1.4v-1.4h-1.4v1.4zm2.8 0h1.4v-1.4h-1.4v1.4zm-14.2 0h1.4v-1.4h-1.4v1.4zm2.9 0h1.4v-1.4h-1.4v1.4zm-8.5 0h1.4v-1.4h-1.4v1.4zm11.3 0h1.4v-1.4h-1.4v1.4zm2.8 0h1.4v-1.4h-1.4v1.4zm-11.3 0h1.4v-1.4h-1.4v1.4zm21.6-127.4h-1.4v1.4h1.4v-1.4zm-2.8 0h-1.4v1.4h1.4v-1.4zm7.1 0v1.4h1.4v-1.4H303zm-1.5 0h-1.4v1.4h1.4v-1.4zm-140.9 1.4h1.4v-1.4h-1.4v1.4zm8.5 0h1.4v-1.4h-1.4v1.4zm-4.2-1.4h-1.4v1.4h1.4v-1.4zm2.8 0h-1.4v1.4h1.4v-1.4zM303 26.1h1.4v-1.4H303v1.4zm-2.9 0h1.4v-1.4h-1.4v1.4zm-2.8 0h1.4v-1.4h-1.4v1.4zm-2.8 0h1.4v-1.4h-1.4v1.4zm-128.2 0h1.4v-1.4h-1.4v1.4zm-2.8 0h1.4v-1.4h-1.4v1.4zm-2.9 0h1.4v-1.4h-1.4v1.4zm8.5 0h1.4v-1.4h-1.4v1.4zm29.2-9.2h2.4v-.8h-3.2v5.6h.8v-2.4h2.4v-.8h-2.4v-1.6zm2.4 1.6h.8v-1.6h-.8v1.6zm6 0h.8v-1.6h-.8v1.6zm0 2.4v-.8h-.8v.8h.8zm-2.4-4h2.4v-.8h-3.2v5.6h.8v-2.4h.8v.8h.8v-.8h.8v-.8h-2.4v-1.6zm3.2 4.8v-.8h-.8v.8h.8zm2-4.8h1.6v4h-1.6v.8h4v-.8h-1.6v-4h1.6v-.8h-4v.8zm6 4.8h4v-.8h-3.2v-.8h-.8v1.6zm.8-1.6h.8v-.8h-.8v.8zm-.8-3.2h3.2v.8h.8v-1.6h-4v.8zm1.6 2.4h.8v-.8h-.8v.8zm.8-.8h.8v-.8h-.8v.8zm3.6 3.2h4v-.8h-3.2v-1.6h2.4v-.8h-2.4v-1.6h3.2v-.8h-4v5.6zm7.6-4v3.2h.8v-3.2h-.8zm.8 4h.8v-.8h-.8v.8zm-2.4-5.6v4.8h.8v-4.8h-.8zm3.2 4.8h.8v-4.8h-.8v4.8zm-2.4.8h.8v-.8h-.8v.8zm5.2-4.8h1.6v4h-1.6v.8h4v-.8h-1.6v-4h1.6v-.8h-4v.8zm7.6 1.6v.8h.8v-.8h-.8zm-.8-.8v-1.6h-.8v5.6h.8v-3.2h.8v-.8h-.8zm2.4 1.6h-.8v.8h.8v1.6h.8v-5.6h-.8v3.2zm4.4-.8v.8h.8v-.8h-.8zm-.8-.8v-1.6h-.8v5.6h.8v-3.2h.8v-.8h-.8zm2.4 1.6h-.8v.8h.8v1.6h.8v-5.6h-.8v3.2zm2.8 2.4h4v-.8h-3.2v-1.6h2.4v-.8h-2.4v-1.6h3.2v-.8h-4v5.6zm9.2-.8v-.8h-.8v.8h.8zm-2.4-4h2.4v-.8h-3.2v5.6h.8v-2.4h.8v.8h.8v-.8h.8v-.8h-2.4v-1.6zm3.2 4.8v-.8h-.8v.8h.8zm-.8-3.2h.8v-1.6h-.8v1.6zm2.8 3.2h3.2v-.8h-3.2v.8zm4-.8v-1.6h-.8v1.6h.8zm-.8-1.6v-.8h-2.4v.8h2.4zm-2.4-2.4h3.2v-.8h-3.2v.8zm-.8 1.6h.8v-1.6h-.8v1.6zm-47.7 120h1.8v-3.6h-1.8v3.6zm-7.2-1.8h1.8v-1.8h-1.8v1.8zm1.8-3.6v1.8h5.4v-1.8h-5.4zm0 7.2h5.4v-1.8h-5.4v1.8zm-1.8 5.4h9v-1.8h-7.2v-3.6h-1.8v5.4zm19.8-12.6H223v1.8h5.4v-1.8zm0 5.4H223v1.8h5.4v3.6h1.8v-9h-1.8v3.6zm-7.2-3.6v3.6h1.8v-3.6h-1.8zm0 7.2v1.8h1.8v-1.8h-1.8zm1.8 3.6h5.4v-1.8H223v1.8zm14.4-9h1.8v-1.8h-1.8v1.8zm1.8-1.8h1.8v5.4h-5.4v-1.8h-1.8v3.6h7.2v3.6h1.8v-12.6h-3.6v1.8zm-3.6 3.6h1.8v-1.8h-1.8v1.8zm18-1.8h1.8v-1.8h-1.8v1.8zm1.8 7.2v-3.6h-1.8v3.6h1.8zm-7.2-10.8v1.8h5.4v-1.8h-5.4zm-1.8 10.8h1.8v-3.6h5.4v-1.8h-5.4v-3.6h-1.8v9zm1.8 1.8h5.4v-1.8h-5.4v1.8zm46.6-46h-1.4v1.4h1.4v-1.4zm0-19.9h-1.4v1.4h1.4v-1.4zm0 14.2h-1.4v1.4h1.4V94zm0-5.7h-1.4v1.4h1.4v-1.4zm0 8.5h-1.4v1.4h1.4v-1.4zm0-19.8h-1.4v1.4h1.4V77zm0 8.5h-1.4v1.4h1.4v-1.4zm0-2.8h-1.4v1.4h1.4v-1.4zm0-14.2h-1.4v1.4h1.4v-1.4zm0-2.8h-1.4v1.4h1.4v-1.4zm0-2.9h-1.4v1.4h1.4v-1.4zm0 39.7h-1.4v1.4h1.4v-1.4zm0-11.3h-1.4v1.4h1.4v-1.4zm0-19.9h-1.4v1.4h1.4v-1.4zm0 2.9h-1.4v1.4h1.4v-1.4zm4.5 37.1h1.4V55.2h-1.4v56.1zM171.7 89.5h.7v-1.4H171v1.4h.7zm0 5.7h.7v-1.4H171v1.4h.7zm0-11.3h.7v-1.4H171v1.4h.7zm0 2.8h.7v-1.4H171v1.4h.7zm0 5.7h.7V91H171v1.4h.7zm0-14.2h.7v-1.4H171v1.4h.7zm0 2.8h.7v-1.4H171V81h.7zm0 17h.7v-1.4H171V98h.7zm0 2.9h.7v-1.4H171v1.4h.7zm0-25.5h.7V74H171v1.4h.7zm0-11.4h.7v-1.4H171V64h.7zm0 8.5h.7v-1.4H171v1.4h.7zm0 31.2h.7v-1.4H171v1.4h.7zm0-36.8h.7v-1.4H171v1.4h.7zm0 2.8h.7v-1.4H171v1.4h.7zm-6.3 41.6h1.4V55.2h-1.4v56.1zm13.2-39.6h-1.4v23.2h1.4V71.7zm110.4 0h-1.4v23.2h1.4V71.7zm-55.1-2.5h.3V68h-2.5v1.2h2.2zm-2.2 1.3v-1.2h-1.2v2.4h1.2v-1.2zm-2.5 0h-2.5v1.2h2.5v-1.2zm1.2 1.3h-1.2V73h1.2v-1.2zm-6.2-.1v-2.4H223V73h1.2v-1.3zm2.5-2.5h3.7V68h-6.2v1.2h2.5zm2.5 3.9h-5v1.2h5v-1.2zm12.5-3.3V73h1.2v-3.7h-1.2v.5zm-3.8-.6h3.8V68h-6.2v1.2h2.4zm-2.5 1.3v-1.2h-1.2v2.4h1.2v-1.2zm1.3 1.3h-1.2V73h1.2v-1.2zm2.5-.1v-1.2h-2.5v1.2h2.5zm1.3 1.4h-3.8v1.2h5v-1.2h-1.2zm-6.1 4.6c-1.3.6-2.8 0-2.8 0-.3-.2-.7 0-.8.3-.2.3 0 .7.3.8.1.1.9.4 2 .4.5 0 1.1-.1 1.8-.4.3-.1.4-.5.3-.8-.1-.3-.5-.4-.8-.3zm-.6 7.7c.2 0 .4-.2.5-.3.2-.3 0-.7-.3-.8-.1 0-.8-.3-1.6 0-.3.1-.4.5-.3.8.1.3.5.4.8.3.3-.1.6 0 .7 0h.2zm-12.6 22.3c0-.3-.3-.6-.6-.6s-.6.3-.6.6v4.2c0 .3.3.6.6.6.4 0 .6-.3.6-.6v-4.2zm25.6 4.2v-4.2c0-.3-.3-.6-.6-.6s-.6.3-.6.6v4.2c0 .3.3.6.6.6s.6-.3.6-.6zm-14.2-12h1.2v-1.2h-1.2v1.2zm-1.2 1.3v3.7h1.2v-5h-1.2v1.3zm-1.3 5v2.4h1.2v-3.7h-1.2v1.3zm3.8-5v2.4h1.2v-3.7h-1.2v1.3zm1.2 2.7v2.2h1.2v-2.4h-1.2v.2zm-1.2-5.3h1.2v-1.2h-1.2v1.2zm-2.5 0h1.2v-1.2h-1.2v1.2zm13.4-2.1c.1 2-.5 4.2-.5 4.3-.1.2-.2.3-.4.4l-1 .4 1.2 1.6c.1.2.1.4.1.5 0 .1-.9 2.5-2.5 5.3-2.3 3.7-4.9 6.1-7.7 7-.1 0-.1 0-.2.1h-1.4c-2.8-.9-5.4-3.3-7.7-7-1.7-2.7-2.5-5.2-2.5-5.3-.1-.2 0-.4.1-.5l1.2-1.6-1-.4c-.2-.1-.3-.2-.4-.4 0-.1-.6-2.2-.5-4.3 0-1 .3-1.9.5-2.6-2.1 1-3.7 1.9-4.8 2.7-1.7 1.2-2.6 2.3-2.8 2.6v12.5c0 .4-.3.7-.6.7s-.6-.3-.6-.6V99.2c0-.1 0-.2.1-.3.1-.2 3.2-5 14.4-8.1.1 0 .1-.1.2-.1v-3.5c-.6-.4-1.1-.9-1.6-1.5-2.2-2.9-3.9-6.9-4.1-8.3-.1-.5-.1-.9-.1-1.2h-.2c-.9-.3-1.6-1.5-2.1-3.6-.7-2.9-.7-3.9-.5-4.5-.1-.1-.2-.2-.3-.4-.1-.4-1.4-8.9 3.5-12.5 3.3-6.1 18.8-6.7 19.4-6.8.3 0 .6.2.6.6 0 .2-.1.3-.2.4-.4.9-1.1 3.1-.4 4.2.3.4.7.6 1.5.6.1 0 .2 0 .3.1 5.1 3.6 3.3 13.1 3.2 13.5.1.1 0 .2-.1.3.3.5.2 1.6-.5 4.5-.5 2.1-1.2 3.3-2.1 3.6h-.2c0 .3 0 .7-.1 1.2-.2 1.4-1.9 5.4-4.1 8.3-.4.5-.9 1-1.4 1.3V90.8c.1 0 .3 0 .4.2 11 3.1 14.1 7.9 14.2 8.1.1.1.1.2.1.3V112c0 .2-.3.5-.6.5s-.6-.3-.6-.6V99.4c-.4-.6-2.5-3-7.6-5.3.2.7.4 1.5.4 2.4zm-9-1.2l4.1 3c.2-1.3.3-3.8-1.4-6-.1 1.3-1.2 2.5-2.7 3zm-2.7-6.7c-.5 0-2.2 0-3.9-.8v4.1c0 1.4 1.9 2.7 4.1 2.7 2.2 0 4-1.2 4.1-2.6-.1-.1-.1-.2-.1-.3v-4c-2 .9-4 .9-4.2.9zm-12.7-21.2c.1 0 .2 0 .3.1 0-1.2.6-2.7 1.8-4.8.3-.4.3-.7.3-1.3 0-.6 0-1.5.6-2.9.3-.8.8-1.3 1.5-1.6 1.6-.7 4 .2 5.1.6 1.6.6 3 .7 3 .7.1 0 .2 0 .2.1.3-.1.9-.2 1.5-.6.7-.5 1.8-1.2 2.9-.8.8.3 1.4 1.2 1.7 2.7.2-.5.3-1.1.2-1.7-.1-1.3-1-2.7-2.4-3.8-.3-.2-.3-.6-.1-.8.2-.3.6-.3.8-.1 1.7 1.3 2.5 2.7 2.7 3.8.1-.1.3-.1.5 0 .8.3 1.3.9 1.6 1.7.5 1.4.6 2.3.6 2.9 0 .5 0 .8.3 1.3l.1.2c.7 1.1 1.7 2.8 1.7 4.7.3-.3.5-.4.7-.3 0-.1 1.7-8.9-2.6-12.2-1 0-1.8-.4-2.3-1.1-.5-.8-.6-2-.3-3.5.1-.4.2-.7.3-1-1.4.1-4.3.4-7.4.9-5.5 1.1-9 2.9-10.2 5.2 0 .1-.1.2-.2.2-4.5 3.1-3.1 11.3-3.1 11.4v.1c.1-.1.1-.1.2-.1zm6.9 17.5c2 2.6 5.8 2.5 5.9 2.5 0 0 3.9.1 5.9-2.5 2.1-2.7 3.7-6.5 3.9-7.7.2-1 0-1.5 0-1.5-.1-.3 0-.6.2-.7.2-.2.5-.1.7.1h.1c.1 0 .7-.4 1.3-2.8.5-2.2.6-3.1.6-3.5-.1.1-.1.2-.2.3l-.3.3c-.6.7-.9 1.8-.9 1.8-.1.3-.4.5-.7.5-.3-.1-.5-.4-.5-.7 0-.1.2-.9.7-1.8h-1V68h.9c.2-1.6-.9-3.3-1.5-4.4l-.1-.2c-.4-.7-.4-1.2-.4-1.8 0-.6 0-1.3-.5-2.5-.2-.4-.4-.7-.7-.9 0 1.3-.4 2.5-1.3 3.5.1 0-.1.1-.3.1h-.2c-.2-.1-.4-.3-.4-.5-.3-2.6-.9-3.2-1.3-3.3-.4-.2-.9 0-1.7.6-1.3 1-2.6.9-2.6.9-.1 0-.2-.1-.3-.1-.6-.1-1.7-.2-3-.7-1-.4-3-1.1-4.2-.6-.4.2-.7.5-.9 1-.5 1.2-.5 1.9-.5 2.5 0 .6 0 1.1-.4 1.8-1.7 2.8-1.7 4.1-1.6 4.6h.9v1.2h-.5c.4.7.5 1.2.5 1.3.1.3-.1.6-.4.7h-.1c-.3 0-.5-.2-.6-.4-.1-.4-.6-1.5-1.3-2 0 .4 0 1.3.6 3.5.6 2.4 1.2 2.7 1.3 2.8h.1c.2-.2.5-.2.7-.1.2.2.3.5.2.7 0 0-.1.5 0 1.5.2 1.2 1.8 5 3.9 7.7 2 2.6-2.1-2.7 0 0zm-.7 13.4l4.2-3c-1.5-.6-2.6-1.8-2.7-3.1-1.7 2.1-1.7 4.7-1.5 6.1zm17-1.8c-.1-1.3-.5-2.5-.7-3-.9-.3-1.8-.7-2.9-1 1.8 3.3.8 6.9.8 7.1l-3 9.6c0 .1-.1.2-.2.3v1.7h-1.2v-4.9h1l2.1-6.7-3.2-2.3v.2h-1.2v-1.1l-.8-.6c-.3 0-.7.1-1 .1-.4 0-.8 0-1.1-.1l-.9.6v1h-1.2v-.2l-3.2 2.3 2.9 8.9v.2h.3v2.4h-1.2v-1.9l-.3-.3-3-9.3v-.4c-.2-.9-.7-4 .9-6.9-1.1.3-2 .7-2.9 1.1-.2.5-.7 1.8-.8 3.2-.1 1.4.2 3 .4 3.6l1.5.6c.2.1.3.2.4.4.1.2 0 .4-.1.5l-1.4 2c.5 1.3 2.7 6.7 6.5 9.7v-1-1.2h1.2v2.4h-.9c.3.2.7.5 1 .7v-.6h1.2v1.1c.1 0 .1 0 .2.1h.6c.2-.1.3-.1.5-.2v-1h1.2v.4c.3-.2.5-.3.8-.5h-.8v-2.4h1.2v2.1c3.7-3 5.9-8.4 6.5-9.7l-1.4-2c-.1-.2-.1-.3-.1-.5.1-.2.2-.3.4-.4l1.5-.6c.2-.5.5-2 .4-3.5zM261 98h-1.2v1.2h3.6V98H261zm7 0h-1.2v1.2h3.6V98H268zm-3.5 3.5v2.4h1.2v-3.6h-1.2v1.2zm0-7v2.4h1.2v-3.6h-1.2v1.2zm-61.7-31.2h-1.1v1.2h2.3v-1.2h-1.2zm7.2 1.2v-1.2h-2.4v1.2h2.4zm-4.8 2.4v1.2h1.2v-2.4h-1.2v1.2zm0-6v1.2h1.2v-2.4h-1.2v1.2zm-7.1 45.8h-.2v1.2h3.6v3.5h1.2v-3.6h-1.2v-1.1h-3.4zm5.9 0h-1.2v1.2h3.6v-1.2H204zm-2.5-2.4v2.4h1.2v-3.6h-1.2v1.2zM256 72.5h-1.2v1.2h3.6v-1.2H256zm9.4 0h-3.6v1.2h3.6v-1.2zm-5.9 3.5v2.3h1.2v-3.5h-1.2V76zm1.2-5.8v-2.4h-1.2v3.6h1.2v-1.2zm-50.2 17h2.4V86h-4.8v1.2h2.4zm9.4 0h1.2V86h-4.8v1.2h3.6zm-5.9 2.3V93h1.2v-4.7H214v1.2zm1.2-5.8v-3.6H214v4.8h1.2v-1.2zm21.7-2.1c.3-.2.4-.5.2-.8-.2-.3-.5-.4-.8-.2 0 0-1.4.7-3.2.7-1.8 0-3.3-.7-3.3-.7-.3-.1-.7 0-.8.3-.1.3 0 .7.3.8.1 0 1.8.9 3.9.9 2-.1 3.6-.9 3.7-1z"/></svg>