<svg id="Layer_1" xmlns="http://www.w3.org/2000/svg" viewBox="0 0 310 155"><style>.st0{fill:#231f20}</style><path class="st0" d="M28.6 140.2H30v1.4h-1.4v-1.4zm3 1.4H33v-1.4h-1.4v1.4zm-12 0H21v-1.4h-1.4v1.4zm3 0H24v-1.4h-1.4v1.4zm-6 0H18v-1.4h-1.4v1.4zm9 0H27v-1.4h-1.4v1.4zm106.7 0h1.4v-1.4h-1.4v1.4zm-2.7 0h1.4v-1.4h-1.4v1.4zm-2.7 0h1.4v-1.4h-1.4v1.4zm10.8 0h1.4v-1.4h-1.4v1.4zm-2.7 0h1.4v-1.4H135v1.4zm-10.8 0h1.4v-1.4h-1.4v1.4zm-2.7 0h1.4v-1.4h-1.4v1.4zm-6.8-60.5v2.1h2.1v-2.1h-2.1zm4.2 4.2v-2.1h2v-2.1h-2V79h-2.1v2.1h2v2.1h-2v2.1h2.1zm4.7 6.8h2.1v2h2.1v-2h2V90h-2v-2.1h-2.1V90h2v2h-2v-2h-2.1v2.1zm2.1-22v2h-2.1v2.1h2.1v-2h2v2h-2v2.1h2.1v-2.1h2v-2.1h-2v-2h-2.1zm10.7 10h1.4v-1.4h-1.4v1.4zm0 2.7h1.4v-1.4h-1.4v1.4zm0 5.4h1.4v-1.4h-1.4v1.4zm0 2.7h1.4v-1.4h-1.4v1.4zm0-5.4h1.4v-1.4h-1.4v1.4zm1.4-12.2h-1.4v1.4h1.4v-1.4zm-1.4 4.1h1.4V76h-1.4v1.4zM25.1 69.7v2.1h-2v2.1h2V76h2.1v-2.1h-2v-2.1h2v-2.1h-2.1zm4.2 4.2v-2.1h-2.1v2.1h2.1zm0 18.5v-2.1h-2.1v2.1h2.1zm-6.2 0h2v2.1h2.1v-2.1h-2v-2.1h2v-2.1h-2.1v2.1h-2v2.1zm11-11.7h2v-2.1H34l.1 2.1H32v2.1h2v2.1h2.1v-2.1h-2v-2.1zm2 2.1h2.1v-2.1h-2.1v2.1zM15 88.9h1.4v-1.4H15v1.4zm0-8.1h1.4v-1.4H15v1.4zm1.4-6.8H15v1.4h1.4V74zM15 78.1h1.4v-1.4H15v1.4zm0 13.4h1.4v-1.4H15v1.4zm0-5.3h1.4v-1.4H15v1.4zm0-2.7c1.4 0 0 0 1.4-.1V82H15v1.5zm27.9-61.1v.8h2.4v-.8h-2.4zm0 2.4v-1.6h-.8V28h.8v-2.4h2.4V28h.8v-4.8h-.8v1.6h-2.4zm8.4 1.6h-.8v.8h.8v-.8zm-.8 1.6v-.8h-.8v.8h.8zm-2.4-5.6v4h.8v-4h-.8zm1.6 4.8v-.8h-.8v.8h.8zm2.4-4.8h-.8v4h.8v-4zm2 5.6h4v-.8h-3.2v-1.6h2.4v-.8h-2.4v-1.6h3.2v-.8h-4V28zm10 0v-.8h-.8v.8h.8zm0-3.2v-1.6h-.8v1.6h.8zm-4-2.4V28h.8v-2.4h.8v.8h.8v-.8h.8v-.8h-2.4v-1.6h2.4v-.8h-3.2zm3.2 4.8v-.8h-.8v.8h.8zm3.6-2.4v-1.6h-.8V28h.8v-2.4h2.4V28h.8v-4.8h-.8v1.6h-2.4zm0-2.4v.8h2.4v-.8h-2.4zm8.4 5.6v-.8h-2.4v.8h2.4zm.8-4v-.8h-.8v.8h.8zm-4 3.2h.8v-4h-.8v4zm4-1.6h-1.6v.8h.8v.8h.8v-1.6zm-3.2-3.2v.8h2.4v-.8h-2.4zm5.2 5.6h4v-.8h-3.2v-1.6h2.4v-.8h-2.4v-1.6h3.2v-.8h-4V28zm12-4.8h1.6V28h.8v-4.8h1.6v-.8h-4v.8zm6 4v.8h4v-.8h-1.6v-4h1.6v-.8h-4v.8h1.6v4h-1.6zm6-4.8V28h.8v-3.2h.8V24h-.8v-1.6h-.8zm3.2 5.6h.8v-5.6h-.8V24h-.8v.8h.8V28zm-.8-1.6v-1.6h-.8v1.6h.8zm7.6-3.2v-.8h-4V28h4v-.8h-3.2v-1.6h2.4v-.8h-2.4v-1.6h3.2zM57.9 36h2.4v-.8h-2.4v.8zm3.2-.8v-4h-.8v4h.8zm-3.2-4h2.4v-.8h-2.4v.8zm-.8 0v4h.8v-4h-.8zm8.4 2.4v-.8h-.8v.8h.8zM63.9 32v-1.6h-.8V36h.8v-3.2h.8V32h-.8zm2.4 2.4V36h.8v-5.6h-.8v3.2h-.8v.8h.8zm8.8 1.6h.8v-2.4h2.4v-.8h-2.4v-1.6h2.4v-.8h-3.2V36zm4-3.2v-1.6h-.8v1.6h.8zm2.8-2.4v.8h2.4v-.8h-2.4zm0 2.4v-1.6h-.8V36h.8v-2.4h2.4V36h.8v-4.8h-.8v1.6h-2.4zm5.2 2.4h.8v-4h-.8v4zm.8-4h2.4v-.8h-2.4v.8zm2.4 4.8v-.8h-2.4v.8h2.4zm.8-2.4h-1.6v.8h.8v.8h.8v-1.6zm0-1.6v-.8h-.8v.8h.8zm2 4h4v-.8h-3.2v-1.6h2.4v-.8h-2.4v-1.6h3.2v-.8h-4V36zM53 145.5h9v-1.8h-7.2v-3.6H53v5.4zm1.8-5.4h5.4v-1.8h-5.4v1.8zm5.4-1.8H62v-3.6h-1.8v3.6zm-7.2-1.8h1.8v-1.8H53v1.8zm1.8-3.6v1.8h5.4v-1.8h-5.4zm10.8 3.6h1.8v-1.8h-1.8v1.8zm7.2 1.8h1.8v-3.6h-1.8v3.6zm-5.4 7.2h5.4v-1.8h-5.4v1.8zm1.8-5.4h3.6v-1.8h-3.6v1.8zm-1.8-7.2v1.8h5.4v-1.8h-5.4zm-1.8 9v1.8h1.8v-1.8h-1.8zm9 1.8v-3.6h-1.8v3.6h1.8zm3.6-1.8v1.8H80v-1.8h-1.8zm1.8 3.6h5.4v-1.8H80v1.8zm7.2-1.8v-5.4h-1.8v5.4h1.8zm-9-3.6H80v-1.8h5.4v-1.8H80v-1.8h7.2v-1.8h-9v7.2zm16.2-3.6h1.8v-1.8h-1.8v1.8zm1.8-1.8H98v5.4h-5.4v-1.8h-1.8v3.6H98v3.6h1.8v-12.6h-3.6v1.8zm-3.6 3.6h1.8v-1.8h-1.8v1.8zm43.1-4l-2.9-2.8-2.9 2.9-2.9-2.9-2.8 2.9-2.9-2.9-3.9 3.9 1 1 2.9-2.9 2.9 2.9 2.8-2.9 2.9 2.9 2.9-2.9 2.8 2.9 2.8-2.9 2.9 2.9 1-1-3.9-3.9-2.7 2.8zm-105.2.1l-2.8-2.9-2.9 2.9-2.9-2.9-2.8 2.9-2.9-2.9-3.9 3.9 1 1 2.9-2.9 2.9 2.9 2.8-2.9 2.9 2.9 2.9-2.9 2.8 2.9 2.9-2.9 2.9 2.9 1-1-3.9-3.9-2.9 2.9zM118 9.7h-1.4v1.4h1.4V9.7zm2.8 0h-1.4v1.4h1.4V9.7zm-5.7 0h-1.4v1.4h1.4V9.7zm-8.5 0h-1.4v1.4h1.4V9.7zm-2.8 0h-1.4v1.4h1.4V9.7zm8.5 0h-1.4v1.4h1.4V9.7zm-11.3 0h-1.4v1.4h1.4V9.7zm8.5 0h-1.4v1.4h1.4V9.7zM94.2 110.3H63.1 63s-.1 0-.1-.1c-.2-.1-.3-.3-.3-.5s.1-.3.2-.4c.4-1.2 1.5-2.9 3.7-3.4-1.2-.9-3.3-3.1-3.3-7.7 0-3.1 1.3-5.8 3.9-7.8v-8.3c-.5-.2-.9-.8-.9-1.4 0-.6.4-1.1.9-1.4v-7.8c-2.6-2-3.9-4.7-3.9-7.8 0-4.5 2-6.7 3.2-7.6-2.4-.5-3.6-2.6-3.8-3.8-.1-.3.1-.6.4-.7h31.3c.3 0 .6.3.6.6-.1.2-.2.4-.3.5-.4 1.2-1.4 2.8-3.3 3.3 1.2.9 3.2 3.1 3.2 7.6 0 3.1-1.3 5.8-3.9 7.8l-.1.1-.2.2v7.7c.5.2.9.8.9 1.4 0 .6-.4 1.1-.9 1.4v8l.1.1c2.6 2 3.9 4.7 3.9 7.8 0 4.8-2.2 7-3.4 7.8 2.3.5 3.5 2.3 3.9 3.5.1.1.2.3.2.4 0 .1-.1.2-.1.3-.1.1-.2.2-.4.3-.2-.1-.3-.1-.3-.1zm-3.9-18.7v13.3c.9-.7 2.9-2.6 2.9-6.9 0-3.5-1.8-5.4-2.9-6.4zm2.1-32h-2.1v10.5c1.1-1 2.9-2.9 2.9-6.4 0-1.7-.3-3.1-.8-4.1zm-2.1-2.8v1.6h1.5c-.5-.8-1.1-1.3-1.5-1.6zM67.6 55h22.1c2.2 0 3.2-1.3 3.6-2.2H64c.5.9 1.5 2.2 3.6 2.2zm20.6 25.7c0-.6.4-1.1.9-1.4v-6.9c-.9.7-2.3 1.6-3.5 2.7v4.1c.5.2.9.8.9 1.4.1.6-.3 1.2-.9 1.4v4.5c1.3 1.1 2.6 2.1 3.5 2.7V82c-.5-.2-.9-.7-.9-1.3zm.9-9.6V59.6H68.3v11.3c.1.1.3.2.5.4C71 72.8 77 76.9 77 81c-.1.1-.1.2-.2.2-.2 4.1-5.9 8-8.2 9.5-.1.1-.2.1-.3.2v14.8h20.8V90.6c-.1 0-.1-.1-.2-.1-.9-.6-2.4-1.6-3.9-2.9-.3 0-.6-.3-.6-.6-1.9-1.8-3.6-3.9-3.7-6.1v-.1-.1-.1c.1-4.1 5.9-8.1 8.2-9.5.1.1.1 0 .2 0zm-5.6 9.6c0-.6.4-1.1.9-1.4v-3c-1.3 1.4-2.3 2.9-2.3 4.4-.1.2-.1.3-.2.4.1 1.5 1.2 3 2.5 4.3V82c-.5-.2-.9-.7-.9-1.3zm-14.3 0c0 .6-.4 1.1-.9 1.4v7.5c.9-.6 2.3-1.6 3.6-2.8v-4.7c-.5-.2-.9-.8-.9-1.4 0-.6.4-1.1.9-1.4v-4-.1c-1.3-1.2-2.7-2.2-3.6-2.8v7c.5.2.9.7.9 1.3zm4.8 0c0 .6-.4 1.1-.9 1.4v3.6c1.4-1.4 2.5-3.1 2.5-4.6 0-1.6-1.1-3.2-2.5-4.6v3.1c.5 0 .9.5.9 1.1zm15.1-22.3v-2.2H68.3v2.2h20.8zm-23.1 0h1.1v-1.2c-.3.2-.7.6-1.1 1.2zm1.1 11.5V59.6h-1.8c-.5 1-.8 2.4-.8 4.2 0 3.2 1.5 5.1 2.6 6.1zm0 35.1V91.9c-1.1 1-2.8 3-2.8 6.3 0 4.2 1.8 6.1 2.8 6.8zm26.2 4.1c-.5-.9-1.5-2.2-3.6-2.2H67.8c-2.2 0-3.2 1.3-3.6 2.2h29.1zM78.1 76.9h1.1v-1.1h-1.1v1.1zm0 2.3h1.1v-1.1h-1.1v1.1zm0 3.4h1.1v-1.1h-1.1v1.1zm0 3.3h1.1v-1.1h-1.1v1.1zm0 2.2h1.1V87h-1.1v1.1zm1.1-12.3h1.1v-1.1h-1.1v1.1zm1.2-1.1h1.1v-1.1h-1.1v1.1zm-3.4 0v1.1h1.1v-1.1H77zm2.2-1.2h1.1v-1.1h-1.1v1.1zm2.3 0h1.1v-1.1h-1.1v1.1zm-5.7-1.1h-1.1v1.1h1.1v-1.1zm1.2 1.1h1.1v-1.1H77v1.1zm-1.2 1.2h1.1v-1.1h-1.1v1.1zm3.4-1.1h-1.1v1.1h1.1v-1.1zm1.2-2.3v1.1h1.1v-1.1h-1.1zm2.3 1.1h1.1v-1.1h-1.1v1.1zm1.1-1.2h1.1v-1.1h-1.1v1.1zm-2.3 0h1.1v-1.1h-1.1v1.1zm-3.4.1v1.1h1.1v-1.1h-1.1zm2.3 33.1h1.1v-1.1h-1.1v1.1zm-4.6 0h1.1v-1.1h-1.1v1.1zm2.3 0h1.1v-1.1h-1.1v1.1zm-1.1-2.2v1.1h1.1v-1.1H77zM33.1 17.8v-6.7h-1.7V9.5H8.5v1.6h1.6v1.6h1.6v-1.6h18.1v1.6h1.7v5.1h-5v-1.7h-1.6v1.7h-1.7v1.6h108.5v-1.6H33.1zm-19.8-5h-1.6v1.6h1.6v-1.6zm.1 6.5H15v-1.6h-1.6v1.6zm3.2-3.2H15v1.6h1.6v-1.6zM15 14.4h-1.6V16H15v-1.6zm-1.7 5h-1.6V21h1.6v-1.6zm8.3 1.6v1.7h-9.9V21h-1.6v1.7H8.5v1.6h13.1v14.5h1.6V19.4h-1.6V21zm4.9-6.6V16h1.6v-1.6h-1.6zm1.7-1.6v1.6h1.6v-1.6h-1.6zM133.4 34V19.4h-1.7v19.4h1.7v-3.2h9.9v1.6h1.6v-1.6h1.6V34h-13.1zm11.5 11.5h-1.6v1.6h-18.2v-1.6h-1.6v-5h5v1.6h1.6v-1.6h1.6v-1.6H23.3v1.6h98.6v6.6h1.6v1.6h23v-1.6h-1.6v-1.6zm-1.7-.1v-1.6h-1.6v1.6h1.6zm-1.6-6.5H140v1.6h1.6v-1.6zm-3.3 1.6v1.6h1.6v-1.6h-1.6zm1.7 3.3h1.6v-1.6H140v1.6zm3.2-6.6h-1.6v1.6h1.6v-1.6zm-14.8 6.6v-1.6h-1.6v1.6h1.6zm-3.2 1.6h1.6v-1.6h-1.6v1.6zm52.4 96.2h1.4v-1.4h-1.4v1.4zm6 0h1.4v-1.4h-1.4v1.4zm3 0h1.4v-1.4h-1.4v1.4zm-6 0h1.4v-1.4h-1.4v1.4zm-9 0h1.4v-1.4h-1.4v1.4zm3 0h1.4v-1.4h-1.4v1.4zm115.4 0h1.4v-1.4H290v1.4zm-10.8 0h1.4v-1.4h-1.4v1.4zm-2.7 0h1.4v-1.4h-1.4v1.4zm10.8 0h1.4v-1.4h-1.4v1.4zm-5.4 0h1.4v-1.4h-1.4v1.4zm10.8 0h1.4v-1.4h-1.4v1.4zm-8.1 0h1.4v-1.4h-1.4v1.4zm-12.8-56.3v-2.1h-2.1v-2.1h2.1V79h2.1v2.1h2v2.1h-2v2.1h-2.1zm0-2.1h2v-2.1h-2v2.1zm6.8 8.9h2.1v2h2.1v-2h2V90h-2v-2.1h-2.1V90h2v2h-2v-2h-2.1v2.1zm2.1-22v2h-2.1v2.1h2.1v-2h2v2h-2v2.1h2.1v-2.1h2v-2.1h-2v-2h-2.1zm12.1 3.2h-1.4v1.4h1.4v-1.4zm-1.4 4.1h1.4V76h-1.4v1.4zm0 10.8h1.4v-1.4h-1.4v1.4zm0-8.1h1.4v-1.4h-1.4v1.4zm0 2.7h1.4v-1.4h-1.4v1.4zm0 8.1h1.4v-1.4h-1.4v1.4zm0-5.4h1.4v-1.4h-1.4v1.4zM180.1 69.7v2.1h-2v2.1h2V76h2.1v-2.1h-2v-2.1h2v-2.1h-2.1zm4.2 4.2v-2.1h-2.1v2.1h2.1zm0 18.5v-2.1h-2.1v2.1h2.1zm-6.2 0h2v2.1h2.1v-2.1h-2v-2.1h2v-2.1h-2.1v2.1h-2v2.1zm11-11.7h2v-2.1H189v2.1h-2v2.1h2v2.1h2.1v-2.1h-2v-2.1zm2 2.1h2.1v-2.1h-2.1v2.1zm-21.1.7c1.4 0 0 0 1.4-.1V82H170v1.5zm0 5.4h1.4v-1.4H170v1.4zm0-2.7h1.4v-1.4H170v1.4zm0 5.3h1.4v-1.4H170v1.4zm0-10.7h1.4v-1.4H170v1.4zm0-2.7h1.4v-1.4H170v1.4zm1.4-4.1H170v1.4h1.4V74zm26.5-49.2v-1.6h-.8V28h.8v-2.4h2.4V28h.8v-4.8h-.8v1.6h-2.4zm0-2.4v.8h2.4v-.8h-2.4zm7.6 5.6v-.8h-.8v.8h.8zm-2.4-5.6v4h.8v-4h-.8zm4 0h-.8v4h.8v-4zm-.8 4h-.8v.8h.8v-.8zm-1.6.8v-.8h-.8v.8h.8zm4.4.8h4v-.8h-3.2v-1.6h2.4v-.8h-2.4v-1.6h3.2v-.8h-4V28zm9.2-.8v-.8h-.8v.8h.8zm-3.2-4.8V28h.8v-2.4h.8v.8h.8v-.8h.8v-.8h-2.4v-1.6h2.4v-.8h-3.2zm4 5.6v-.8h-.8v.8h.8zm0-3.2v-1.6h-.8v1.6h.8zm2.8 0v-1.6h-.8V28h.8v-2.4h2.4V28h.8v-4.8h-.8v1.6h-2.4zm0-2.4v.8h2.4v-.8h-2.4zm9.2 1.6v-.8h-.8v.8h.8zm-.8 4v-.8h-2.4v.8h2.4zm.8-2.4h-1.6v.8h.8v.8h.8v-1.6zm-4 1.6h.8v-4h-.8v4zm.8-4.8v.8h2.4v-.8h-2.4zm5.2 5.6h4v-.8h-3.2v-1.6h2.4v-.8h-2.4v-1.6h3.2v-.8h-4V28zm12-4.8h1.6V28h.8v-4.8h1.6v-.8h-4v.8zm6 4v.8h4v-.8h-1.6v-4h1.6v-.8h-4v.8h1.6v4h-1.6zm8.4-.8v-1.6h-.8v1.6h.8zm.8 1.6h.8v-5.6h-.8V24h-.8v.8h.8V28zm-3.2-5.6V28h.8v-3.2h.8V24h-.8v-1.6h-.8zm10 .8v-.8h-4V28h4v-.8h-3.2v-1.6h2.4v-.8h-2.4v-1.6h3.2zm-55 8v4h.8v-4h-.8zm.8 4.8h2.4v-.8h-2.4v.8zm0-4.8h2.4v-.8h-2.4v.8zm3.2 4v-4h-.8v4h.8zm4.4-1.6v-.8h-.8v.8h.8zm.8.8V36h.8v-5.6h-.8v3.2h-.8v.8h.8zm-2.4-2.4v-1.6h-.8V36h.8v-3.2h.8V32h-.8zm15.2.8v-1.6h-.8v1.6h.8zm-4 3.2h.8v-2.4h2.4v-.8h-2.4v-1.6h2.4v-.8h-3.2V36zm6.8-3.2v-1.6h-.8V36h.8v-2.4h2.4V36h.8v-4.8h-.8v1.6h-2.4zm0-2.4v.8h2.4v-.8h-2.4zm9.2 1.6v-.8h-.8v.8h.8zm-3.2-.8h2.4v-.8h-2.4v.8zm3.2 2.4h-1.6v.8h.8v.8h.8v-1.6zm-4 1.6h.8v-4h-.8v4zm3.2.8v-.8h-2.4v.8h2.4zm2.8 0h4v-.8h-3.2v-1.6h2.4v-.8h-2.4v-1.6h3.2v-.8h-4V36zm-38.3 104.1h5.4v-1.8h-5.4v1.8zm-1.8-3.6h1.8v-1.8H208v1.8zm7.2 1.8h1.8v-3.6h-1.8v3.6zm-5.4-5.4v1.8h5.4v-1.8h-5.4zm-1.8 12.6h9v-1.8h-7.2v-3.6H208v5.4zm16.2-5.4h3.6v-1.8h-3.6v1.8zm3.6-1.8h1.8v-3.6h-1.8v3.6zm-7.2-1.8h1.8v-1.8h-1.8v1.8zm9 7.2v-3.6h-1.8v3.6h1.8zm-7.2-10.8v1.8h5.4v-1.8h-5.4zm-1.8 9v1.8h1.8v-1.8h-1.8zm1.8 3.6h5.4v-1.8h-5.4v1.8zm10.8-3.6v1.8h1.8v-1.8h-1.8zm0-1.8h1.8v-1.8h5.4v-1.8H235v-1.8h7.2v-1.8h-9v7.2zm1.8 5.4h5.4v-1.8H235v1.8zm7.2-1.8v-5.4h-1.8v5.4h1.8zm9-9h1.8v5.4h-5.4v-1.8h-1.8v3.6h7.2v3.6h1.8v-12.6h-3.6v1.8zm-1.8 1.8h1.8v-1.8h-1.8v1.8zm-1.8 1.8h1.8v-1.8h-1.8v1.8zm43.1-4l-2.9-2.8-2.9 2.9-2.9-2.9-2.8 2.9-2.9-2.9-3.9 3.9 1 1 2.9-2.9 2.9 2.9 2.8-2.9 2.9 2.9 2.9-2.9 2.8 2.9 2.8-2.9 2.9 2.9 1-1-3.9-3.9-2.7 2.8zm-105.2.1l-2.8-2.9-2.9 2.9-2.9-2.9-2.8 2.9-2.9-2.9-3.9 3.9 1 1 2.9-2.9 2.9 2.9 2.8-2.9 2.9 2.9 2.9-2.9 2.8 2.9 2.9-2.9 2.9 2.9 1-1-3.9-3.9-2.9 2.9zM270.1 9.7h-1.4v1.4h1.4V9.7zm-5.6 0h-1.4v1.4h1.4V9.7zm-5.7 0h-1.4v1.4h1.4V9.7zm8.5 0h-1.4v1.4h1.4V9.7zm5.7 0h-1.4v1.4h1.4V9.7zm2.8 0h-1.4v1.4h1.4V9.7zm-19.8 0h-1.4v1.4h1.4V9.7zm5.6 0h-1.4v1.4h1.4V9.7zm-12.4 100.6h-31.1c-.3 0-.6-.3-.6-.6 0-.2.1-.4.3-.5.4-1.2 1.5-2.8 3.7-3.3-1.2-.9-3.3-3.1-3.3-7.7 0-3.1 1.3-5.8 3.9-7.8v-8.3c-.5-.2-.9-.8-.9-1.4 0-.6.4-1.1.9-1.4v-7.8c-2.6-2-3.9-4.7-3.9-7.8 0-4.5 2-6.7 3.2-7.6-2.2-.5-3.4-2.2-3.7-3.5-.1-.1-.2-.3-.2-.4 0-.2.1-.4.3-.5 0 0 .1 0 .1-.1h31.5s.1 0 .1.1c.2.1.3.3.3.5s-.1.4-.2.5c-.4 1.2-1.4 2.8-3.3 3.3 1.2.9 3.2 3.1 3.2 7.6 0 3.1-1.3 5.8-3.9 7.8l-.1.1-.2.2v7.7c.5.2.9.8.9 1.4 0 .6-.4 1.1-.9 1.4v8l.1.1c2.6 2 3.9 4.7 3.9 7.8 0 4.8-2.2 7-3.4 7.8 2.5.5 3.7 2.6 3.9 3.8.1.3-.1.6-.4.7-.1-.1-.2-.1-.2-.1zm-3.9-18.7v13.3c.9-.7 2.9-2.6 2.9-6.9 0-3.5-1.8-5.4-2.9-6.4zm2.1-32h-2.1v10.5c1.1-1 2.9-2.9 2.9-6.4 0-1.7-.3-3.1-.8-4.1zm-2.1-2.8v1.6h1.5c-.5-.8-1.1-1.3-1.5-1.6zM222.6 55h22.1c2.2 0 3.2-1.3 3.6-2.2H219c.5.9 1.5 2.2 3.6 2.2zm20.6 25.7c0-.6.4-1.1.9-1.4v-6.9c-.9.7-2.3 1.6-3.5 2.7v4.1c.5.2.9.8.9 1.4.1.6-.3 1.2-.9 1.4v4.5c1.3 1.1 2.6 2.1 3.5 2.7V82c-.5-.2-.9-.7-.9-1.3zm.9-9.6V59.6h-20.8v11.3c.1.1.3.2.5.4 2.2 1.5 8.2 5.6 8.2 9.7-.1.1-.1.2-.2.2-.2 4.1-5.9 8-8.2 9.5-.1.1-.2.1-.3.2v14.8h20.8V90.6c-.1 0-.1-.1-.2-.1-.9-.6-2.4-1.6-3.9-2.9-.3 0-.6-.3-.6-.6-1.9-1.8-3.6-3.9-3.7-6.1v-.1-.1-.1c.1-4.1 5.9-8.1 8.2-9.5.1.1.1 0 .2 0zm-5.6 9.6c0-.6.4-1.1.9-1.4v-3c-1.3 1.4-2.3 2.9-2.3 4.4-.1.1-.1.2-.2.3.1 1.5 1.2 3 2.5 4.3v-3.4c-.5-.1-.9-.6-.9-1.2zm-14.3 0c0 .6-.4 1.1-.9 1.4v7.5c.9-.6 2.3-1.6 3.6-2.8v-4.7c-.5-.2-.9-.8-.9-1.4 0-.6.4-1.1.9-1.4v-4-.1c-1.3-1.2-2.7-2.2-3.6-2.8v7c.5.2.9.7.9 1.3zm4.8 0c0 .6-.4 1.1-.9 1.4v3.6c1.4-1.4 2.5-3.1 2.5-4.6V81c0-1.6-1.1-3.2-2.5-4.6v3.1c.5.1.9.6.9 1.2zm15.1-22.3v-2.2h-20.8v2.2h20.8zm-23.1 0h1.1v-1.2c-.3.2-.7.6-1.1 1.2zm1.1 11.5V59.6h-1.8c-.5 1-.8 2.4-.8 4.2 0 3.2 1.5 5.1 2.6 6.1zm0 35.1V91.9c-1.1 1-2.8 3-2.8 6.3 0 4.2 1.8 6.1 2.8 6.8zm26.2 4.1c-.5-.9-1.5-2.2-3.6-2.2h-21.9c-2.2 0-3.2 1.3-3.6 2.2h29.1zm-15.2-32.2h1.1v-1.1h-1.1v1.1zm0 3.5h1.1v-1.1h-1.1v1.1zm0 3.4h1.1v-1.1h-1.1v1.1zm0 3.2h1.1v-1.1h-1.1V87zm0 3.4h1.1v-1.1h-1.1v1.1zm0 9.5h1.1v-1.1h-1.1v1.1zm2.2-25.2h-1.1v1.1h1.1v-1.1zm-3.3 0v1.1h1.1v-1.1H232zm-1.2 0h1.1v-1.1h-1.1v1.1zm3.4-1.1h-1.1v1.1h1.1v-1.1zm1.2 30.8h1.1v-1.1h-1.1v1.1zm-3.5 0v-1.1h-1.1v1.1h1.1zm2.3 0v-1.1h-1.1v1.1h1.1zm.1-2.2v1.1h1.1v-1.1h-1.1zm-2.3 1.1h1.1v-1.1H232v1.1zm2.3-3.3v1.1h1.1V100h-1.1zm-2.3 1h1.1v-1.1H232v1.1zm9 3.4v-1.1h-1.1v1.1h1.1zm-2.2-1.1h-1.1v1.1h1.1v-1.1zm1.1-1.1h-1.1v1.1h1.1v-1.1zm-2.3 1.1v-1.1h-1.1v1.1h1.1zm-9 1.1h1.1v-1.1h-1.1v1.1zm6.8-2.2h1.1v-1.1h-1.1v1.1zm-4.6 0h1.1v-1.1h-1.1v1.1zm2.3 0h1.1v-1.1h-1.1v1.1zm-6.8 2.2h1.1v-1.1h-1.1v1.1zm1.2-2.2v1.1h1.1v-1.1h-1.1zm2.2 1.1h1.1v-1.1h-1.1v1.1zm-41.6-85.5v-6.7h-1.7V9.5h-22.9v1.6h1.6v1.6h1.6v-1.6H184.8v1.6h1.7v5.1h-5v-1.7h-1.6v1.7h-1.7v1.6h108.5v-1.6h-98.6zm-19.8-5h-1.6v1.6h1.6v-1.6zm.1 6.5h1.6v-1.6h-1.6v1.6zm3.2-3.2H170v1.6h1.6v-1.6zm-1.6-1.7h-1.6V16h1.6v-1.6zm-1.7 5h-1.6V21h1.6v-1.6zm8.3 1.6v1.7h-9.9V21h-1.6v1.7h-1.6v1.6h13.1v14.5h1.6V24v-4.6h-1.6V21zm4.9-6.6V16h1.6v-1.6h-1.6zm1.7-1.6v1.6h1.6v-1.6h-1.6zM299.9 34h-11.5V19.4h-1.7v19.4h1.7v-3.2h9.9v1.6h1.6v-1.6h1.6V34h-1.6zm0 11.5h-1.6v1.6h-18.2v-1.6h-1.6v-5h5v1.6h1.6v-1.6h1.6v-1.6H178.3v1.6h98.6v6.6h1.6v1.6h23v-1.6h-1.6v-1.6zm-1.7-.1v-1.6h-1.6v1.6h1.6zm-1.6-6.5H295v1.6h1.6v-1.6zm-3.3 1.6v1.6h1.6v-1.6h-1.6zm1.7 3.3h1.6v-1.6H295v1.6zm3.2-6.6h-1.6v1.6h1.6v-1.6zm-18 6.6v1.6h1.6v-1.6h1.6v-1.6h-1.6v1.6h-1.6zm-45.6 23.6v-1.2H231v1.2h3.6zm3.4-1.2v1.2h3.6v-1.2H238zm-2.3 5.9h1.2v-3.5h-1.2v3.5zm0-6.9h1.2v-3.7h-1.2v3.7zm22.1-5.6v-1.2h-2.3v1.2h2.3zm6-1.2h-2.4v1.2h2.4v-1.2zm-4.8 4.8h1.2v-2.4H259v2.4zm1.2-8.4H259v2.4h1.2v-2.4zM256.4 96v1.2h3.6v3.5h1.2v-3.6H260V96h-3.6zm4.9 0v1.2h3.6V96h-3.6zm-1.3 0h1.2v-3.6H260V96zm-58.4-32.5v1.2h3.6v3.5h1.2v-3.6h-1.2v-1.1h-3.6zm4.9 0v1.2h3.6v-1.2h-3.6zm-1.3 0h1.2v-3.6h-1.2v3.6zm-2.4 40v1.2h3.6v-1.2h-3.6zm7 1.2h3.6v-1.2h-3.6v1.2zm-1.1 1.1h-1.2v3.5h1.2v-3.5zm-1.2-3.4h1.2v-3.6h-1.2v3.6z"/></svg>