<svg id="Layer_1" xmlns="http://www.w3.org/2000/svg" viewBox="0 0 310 155" width="310" height="155"><style>.st0{fill:#231f20}</style><path class="st0" d="M20.2 77.1v2.1h-2.1v2.4h2.1v2.1h2.4v-2.1h2v-2.4h-2v-2.1h-2.4zm2 4.2h-1.7v-1.8h1.7v1.8zm-8.8 12.5V92h-2.1v-2.4h2.4v2.1h1.8v-2.1h2.4V92h-2.1v1.8h2.1v2.4h-2.4v-2.1h-1.9v2.1h-2.4v-2.4h2.2zm0-24V68h-2.1v-2.4h2.4v2.1h1.8v-2.1h2.4V68h-2.1v1.7h2.1v2.4h-2.4v-2h-1.9v2.1h-2.4v-2.4h2.2zm117.3 8.3v2.1h-2v2.4h2v2.1h2.4v-2.1h2.1v-2.4h-2.1v-2.1h-2.4zm2.1 4.2h-1.7v-1.8h1.7v1.8zm4.7-12.5v-1.7h-2v-2.3h2.4v2h1.8v-2.2h2.4V68h-2.2v1.8h2.1v2.4h-2.4v-2.1h-1.7v2.1h-2.4v-2.4h2zm0 24v-1.7h-2v-2.3h2.4v2h1.8v-2.2h2.4V92h-2.2v1.8h2.1v2.4h-2.4v-2h-1.7v2h-2.4v-2.4h2zM6.1 142.2h29.2v1.7H6.1v-1.7zm112.6 0h29.2v1.7h-29.2v-1.7zm-91-125.6v-.8h-2.1v3.7h2.1v-.7h1.1v1H28v.8h-2.7v-.8h-.8v-4.3h.8v-.7H28v.7h.8v1.1h-1.1zm5.9 4v-.8h.8v-4.3h-.8v-.8h-2.7v.8h-.8v4.3h.8v.8h2.7zM31.2 16h2.1v3.7h-2.1V16zm7.7 4.6v-3.1h-.5V19h-1.1v-1.5h-.5v3.1h-1.1v-5.8h1.1v1.5h.8v.8h.5v-.8h.8v-1.5H40v5.8h-1.1zm3.5-2.4h2.4v-.8h.8v-1.9h-.8v-.8h-3.5v5.9h1.1v-2.4zm0-2.4h2.1v1.3h-2.1v-1.3zm5.6 0v1.3h2.4v1.1H48v1.3h3.2v1.1h-4.3v-5.8h4.3v1H48zm6.1 4.8v-4.8h-1.6v-1h4.3v1h-1.6v4.8h-1.1zm5.6-1.1v-3.7h-1.6v-1h4.3v1h-1.6v3.7h1.6v1.1h-4.3v-1.1h1.6zm5.6 1.1v-4.8h-1.6v-1H68v1h-1.6v4.8h-1.1zm4.8-5.8v.8h-.8v4.3h.8v.8h2.7v-.8h.8v-4.3h-.8v-.8h-2.7zm2.4 4.8h-2.1V16h2.1v3.6zm2.4-4.9v6H76v-2.4h.5v.7h.8v.8h.8v.8h1.1v-1.1h-.8v-.8h-.8v-.5h.8v-.8h.8v-1.9h-.8v-.8h-3.5zm3.2 2.4H76v-1.3h2.1v1.3zm8.8-2.3v.8h-.8v5.1h1.1v-2.4h2.1v2.4h1.1v-5.1h-.8v-.8h-2.7zm2.4 2.3h-2.1v-1.3h2.1v1.3zm5.9-2.3v.7h.8v1.1h-1.1v-.8h-2.1v3.7h2.1v-.7H96v1h-.8v.8h-2.7v-.8h-.8v-4.3h.8v-.7h2.7zm4.8 5.8h-1.1v-4.8h-1.6v-1h4.3v1H100v4.8zm5.6-4.8v3.7h1.6v1.1h-4.3v-1.1h1.6v-3.7h-1.6v-1h4.3v1h-1.6zm5.3 3h.8v-4h1.1V19h-.8v.8h-.8v.8h-1.1v-.8h-.8V19h-.8v-4.2h1.1v4h.8v.7h.5v-.7zm5.9-3v3.7h1.6v1.1h-4.3v-1.1h1.6v-3.7h-1.6v-1h4.3v1h-1.6zm4.5 4.8v-4.8h-1.6v-1h4.3v1h-1.6v4.8h-1.1zm5.6 0v-3.1h-.8v-.9h-.8v-1.8h1.1v1.5h.8v.8h.5v-.8h.8v-1.5h1.1v1.8h-.8v.9h-.8v3.1h-1.1zm.3 112.2l2.9-2.9.1.1 2.8 2.8 2.9-2.9.1.1 2.8 2.8 2.8-2.9.1.1 4 4-1.2 1.2-2.9-2.9-1.6 1.7-1.2 1.2h-.1l-1.2-1.2h.1l-1.7-1.7-1.7 1.7-1.2 1.2-1.2-1.2-1.7-1.7-1.6 1.7-1.2 1.2h-.1L126 134l-1.6-1.7-2.9 2.9-1.2-1.2.1-.1 4-4 .1.1 2.7 2.8zm-6.9 5.8l.1-.1 4-4 .1.1 2.7 2.8 2.9-2.9.1.1 2.8 2.8 2.9-2.9.1.1 2.8 2.8 2.8-2.9.1.1 4 4-1.2 1.2-2.9-2.8-1.6 1.6-1.2 1.2h-.1l-1.2-1.2h.1l-1.7-1.6-2.9 2.8-1.2-1.2-1.7-1.6-1.6 1.6-1.2 1.2h-.1l-1.2-1.2-1.6-1.6-2.9 2.8-1.2-1.2zM7.7 134l4.1-4.1 2.9 2.9 2.8-2.9 2.9 2.9 2.9-2.9 2.9 2.9 2.8-2.9 4.1 4.1-1.2 1.2-2.9-2.9-1.6 1.7-1.2 1.2h-.1l-1.2-1.2h.1l-1.7-1.7-1.7 1.7-1.2 1.2-1.2-1.2-1.7-1.7-1.6 1.7-1.2 1.2h-.1l-1.2-1.2h.1l-1.7-1.7-2.9 2.9-1.2-1.2zm0 4.6l4.1-4.1 2.9 2.9 2.8-2.9 2.9 2.9 2.9-2.9 2.9 2.9 2.8-2.9 4.1 4.1-1.2 1.2L29 137l-1.6 1.6-1.2 1.2h-.1l-1.2-1.2h.1l-1.7-1.6-1.7 1.6-1.2 1.2-2.9-2.8-1.6 1.6-1.2 1.2h-.1l-1.2-1.2h.1l-1.7-1.6-2.9 2.8-1.2-1.2zM46.8 8.5H20.4V6.8h26.5l-.1 1.7zm46.1 0H48.6V6.8h44.3v1.7zm49.1 0h-28.4V6.8H142v1.7zm-31 0H94.7V6.8H111v1.7zm40.5 19l-.8 1.3H99.9v-1.7h49.2l-1.1-1.6h-13.5v-1.7H147l-1-1.7h-8.5v-1.6h7.5l-1.2-1.9H139V17h4.9l1-1.7h-7.4v-1.7h8.5l.9-1.5h-12.4v-1.6H148l1.1-1.9h-4.6V6.8h6.2l.7 1.2-6 9.8 6.1 9.7zm-61.1-.4h8.1v1.7h-8.1v-1.7zm-47.3 0H89v1.7H43.1v-1.7zM5.9 27H41v1.8H4.2l-.7-1.3 6.3-9.7L3.5 8l.7-1.2h12.7v1.7h-11l1.3 2h13.5v1.6H8.3l1 1.5h8.4v1.7h-7.3l1.1 1.7h4.8v1.6h-4.9l-1.2 1.9h7.5v1.6H9.1l-1 1.7h12.6v1.7H6.9l-1 1.5zm47.6 119.5h1.7v1.7h-1.7v-1.7zm34 0h1.7v1.7h-1.7v-1.7zm2.8 0H92v1.7h-1.7v-1.7zm-11.3 0h1.7v1.7H79v-1.7zm-28.3 0h1.7v1.7h-1.7v-1.7zm34 0h1.7v1.7h-1.7v-1.7zm14.2 0h1.7v1.7h-1.7v-1.7zm-5.7 0h1.7v1.7h-1.7v-1.7zm2.8 0h1.7v1.7H96v-1.7zm-14.2 0h1.7v1.7h-1.7v-1.7zm-17 0h1.7v1.7h-1.7v-1.7zm-2.8 0h1.7v1.7H62v-1.7zm-2.8 0h1.7v1.7h-1.7v-1.7zm17 0h1.7v1.7h-1.7v-1.7zm-19.9 0H58v1.7h-1.7v-1.7zm17 0H75v1.7h-1.7v-1.7zm-2.8 0h1.7v1.7h-1.7v-1.7zm-2.8 0h1.7v1.7h-1.7v-1.7zm20.7-8.9l1.2 1.2-.1.2-4 3.9-.1-.1-2.8-2.8-2.9 2.9-.1-.1-2.8-2.7-2.8 2.8-2.8-2.8-2.9 2.8-4.1-4.1 1.2-1.2 2.9 2.9 1.7-1.6-.1-.1 1.2-1.2.1.1v-.1l1.2 1.2v.1l1.6 1.6 1.7-1.6-.1-.1 1.2-1.2.1.1v-.1l1.2 1.2-.1.1 1.7 1.6 2.9-2.9 1.2 1.2 1.7 1.7 2.9-2.9zm3.2-61.4V71c0-.6.5-1 1-1 .6 0 1 .5 1 1v5.2c0 .6-.5 1-1 1s-1-.5-1-1zM63.3 71v5.2c0 .6-.5 1-1 1-.6 0-1-.5-1-1V71c0-.6.5-1 1-1s1 .5 1 1zm12.5 18.9c.6 0 1.2-.2 1.7-.6.5.4 1.1.6 1.7.6 1.3 0 2.7-1.1 2.7-3.1 0-1.3-1.3-2.8-1.9-3.3-1-1-1.9-1.5-2.5-1.5-.8 0-1.8.8-2.5 1.5-.6.6-1.9 2.1-1.9 3.4 0 1.9 1.3 3 2.7 3zm1.7-6c.7.4 2.4 2.1 2.4 2.8 0 .8-.4 1.1-.7 1.1s-.6-.3-.8-.7c-.2-.4-.5-.6-.9-.6s-.8.2-.9.6c-.2.4-.5.7-.8.7s-.7-.3-.7-1.1c0-.6 1.7-2.4 2.4-2.8zm-7.6-2.1h-2.1v-2.1h1.9v-1.6h-1.8V76H70v1.8h1.5V76h2.1v2.1h-1.8v1.5h1.8v2.1h-2.1V80h-1.6v1.8zm13.5.1h-2.1v-2.1h1.9v-1.6h-1.8v-2.1h2.1v1.8H85v-1.8h2.1v2.1h-1.8v1.5h1.8v2.1H85V80h-1.6v1.9zM50.3 53.6l-1.9-1.9 1.9-1.9 1.9 1.9-1.9 1.9zm-8.7 1.5l1.7-1.7-1.7-1.7 1.7-1.7-1.7-1.7 1.9-1.9 1.7 1.7 1.5-1.5-1.7-1.7 1.9-1.9 1.7 1.7 1.7-1.7 1.7 1.7 1.7-1.7 1.9 1.9-1.7 1.7 1.7 1.7-1.9 1.9-1.9-1.9 1.7-1.7-1.5-1.5-1.7 1.7-1.7-1.7-1.5 1.5 1.7 1.7-1.9 1.9-1.7-1.7-1.5 1.5 1.7 1.7-1.7 1.7 1.5 1.5 1.7-1.7 1.9 1.9-1.9 1.9-1.7-1.7-1.7 1.7-1.9-1.9zm63.2 49.1l1.9 1.9-1.9 1.9-1.9-1.9 1.9-1.9zm7 3.7l1.7 1.7-1.9 1.9-1.7-1.7-1.5 1.5 1.7 1.7-1.9 1.9-1.7-1.7-1.7 1.7-1.7-1.7-1.7 1.7-1.9-1.9 1.7-1.7-1.7-1.7 1.9-1.9 1.9 1.9-1.7 1.7 1.5 1.5 1.7-1.7 1.7 1.7 1.5-1.5-1.7-1.7 1.9-1.9 1.7 1.7 1.5-1.5-1.7-1.7 1.7-1.7-1.5-1.5-1.7 1.7-1.9-1.9 1.9-1.9 1.7 1.7 1.7-1.7 1.9 1.9-1.7 1.7 1.7 1.7-1.7 1.7zM95.1 91.7l11.3 11.3-1.4 1.4-.1-.1L93.6 93l1.5-1.3zm-36-33.2l-7-7 1.4-1.4 7 7-1.4 1.4zm42.3 49.2l-9.1-9.1 1.4-1.4.1.1 9.1 9.1-1.5 1.3zM56.7 62.9l-8.1-8.1 1.4-1.4 8.1 8.1-1.4 1.4zm49.9-11.2l-1.9 1.9-1.9-1.9 1.9-1.9 1.9 1.9zm3.4-6.8l-1.7 1.7 1.5 1.5 1.7-1.7 1.9 1.9-1.7 1.7 1.7 1.7-1.7 1.7 1.7 1.7-1.9 1.9-1.7-1.7-1.7 1.7-1.9-1.9 1.9-1.9 1.7 1.7 1.5-1.5-1.7-1.7 1.7-1.7-1.5-1.5-1.7 1.7-1.9-1.9 1.7-1.7-1.5-1.5-1.7 1.7-1.7-1.7-1.5 1.5 1.7 1.7-1.9 1.9-1.9-1.9 1.7-1.7-1.7-1.7 1.9-1.9 1.7 1.7 1.7-1.7 1.7 1.7 1.7-1.7 1.9 1.9zm-61.7 61.3l1.9-1.9 1.9 1.9-1.9 1.9-1.9-1.9zm7.3 3.4l-1.7 1.7 1.7 1.7-1.9 1.9-1.7-1.7-1.7 1.7-1.7-1.7-1.7 1.7L45 113l1.7-1.7-1.5-1.5-1.7 1.7-1.9-1.9 1.7-1.7-1.7-1.7 1.7-1.7-1.7-1.7 1.9-1.9 1.7 1.7 1.7-1.7 1.9 1.9-1.9 1.9-1.7-1.7-1.5 1.5 1.7 1.7-1.7 1.7 1.5 1.5 1.7-1.7 1.9 1.9-1.7 1.7 1.5 1.5 1.7-1.7 1.7 1.7 1.5-1.5-1.7-1.7 1.9-1.9 1.9 1.9zm-6.9-6.8L60 91.6l1.4 1.4-.1.1L50 104.4l-1.4-1.4.1-.2zM101.5 50l1.5 1.4-.1.1-6.9 6.9-1.4-1.4.1-.1 6.8-6.9zm-48 57.8l-1.4-1.4 9.2-9.2 1.4 1.4-.1.1-9.1 9.1zM97 61.4l8-8 1.5 1.4-.1.1-8 8-1.4-1.5zm-23.4 43.5h7.7c5.7 0 10.3-4.6 10.3-10.3v-4.1c3.3-.9 5.5-3.9 5.5-7.4V71.9c0-10.9-8.8-19.7-19.7-19.7S57.7 61 57.7 71.9v11.3c0 3.4 2.3 6.4 5.5 7.4v4.1c.1 5.6 4.8 10.2 10.4 10.2zm16-10.3c0 4.5-3.7 8.2-8.2 8.2h-7.7c-4.5 0-8.2-3.7-8.2-8.2v-3.8H67v2.7c0 4.2 3.4 7.7 7.7 7.7h5.8c4.2 0 7.7-3.4 7.7-7.7v-2.7h1.4s-.1 0 0 0v3.8zM59.8 83.2V71.9c0-9.7 7.9-17.7 17.6-17.7 1.7 0 3.3.2 5 .7L80 57.5c-.3.3-.4.8-.1 1.2l1.2 2.2-1.3 2.5c-.1.2-.1.5-.1.8.1.3.3.5.5.6.5.3 1.1 0 1.4-.5l1.5-3c.2-.3.1-.7 0-1l-1.1-2 2.5-2.7c6.5 2.8 10.6 9.2 10.6 16.2v11.3c0 2.3-1.4 4.3-3.5 5.2v-5.2c0-.6-.5-1-1-1-.6 0-1 .5-1 1v5.6H88v-1.6c0-.6-.5-1-1-1-.6 0-1 .5-1 1v6.4c0 2-1.1 3.8-2.8 4.8v-3.7c0-.6-.5-1-1-1-.6 0-1 .5-1 1V99c-.3 0-.5.1-.8.1h-1.8v-4.4c0-.6-.5-1-1-1-.6 0-1 .5-1 1v4.4h-2.5v-4.4c0-.6-.5-1-1-1-.6 0-1 .5-1 1v3.8c-1.8-1-3-2.9-3-4.9v-6.4c0-.6-.5-1-1-1-.6 0-1 .5-1 1v1.6h-1.4-.1v-5.6c0-.6-.5-1-1-1-.6 0-1 .5-1 1v5.2c-2.4-.9-3.8-3-3.8-5.2zm101.3 59h29.2v1.7h-29.2v-1.7zm112.6 0h29.2v1.7h-29.2v-1.7zm-91-125.6v-.8h-2.1v3.7h2.1v-.7h1.1v1h-.8v.8h-2.7v-.8h-.8v-4.3h.8v-.7h2.7v.7h.8v1.1h-1.1zm5.9 4v-.8h.8v-4.3h-.8v-.8h-2.7v.8h-.8v4.3h.8v.8h2.7zm-2.4-4.6h2.1v3.7h-2.1V16zm7.7 4.6v-3.1h-.5V19h-1.1v-1.5h-.5v3.1h-1.1v-5.8h1.1v1.5h.8v.8h.5v-.8h.8v-1.5h1.1v5.8h-1.1zm3.5-2.4h2.4v-.8h.8v-1.9h-.8v-.8h-3.5v5.9h1.1v-2.4zm0-2.4h2.1v1.3h-2.1v-1.3zm5.6 0v1.3h2.4v1.1H203v1.3h3.2v1.1h-4.3v-5.8h4.3v1H203zm6.1 4.8v-4.8h-1.6v-1h4.3v1h-1.6v4.8h-1.1zm5.6-1.1v-3.7h-1.6v-1h4.3v1h-1.6v3.7h1.6v1.1h-4.3v-1.1h1.6zm5.6 1.1v-4.8h-1.6v-1h4.3v1h-1.6v4.8h-1.1zm4.8-5.8v.8h-.8v4.3h.8v.8h2.7v-.8h.8v-4.3h-.8v-.8h-2.7zm2.4 4.8h-2.1V16h2.1v3.6zm2.4-4.9v6h1.1v-2.4h.5v.7h.8v.8h.8v.8h1.1v-1.1h-.8v-.8h-.8v-.5h.8v-.8h.8v-1.9h-.8v-.8h-3.5zm3.2 2.4H231v-1.3h2.1v1.3zm8.8-2.3v.8h-.8v5.1h1.1v-2.4h2.1v2.4h1.1v-5.1h-.8v-.8h-2.7zm2.4 2.3h-2.1v-1.3h2.1v1.3zm5.9-2.3v.7h.8v1.1h-1.1v-.8h-2.1v3.7h2.1v-.7h1.1v1h-.8v.8h-2.7v-.8h-.8v-4.3h.8v-.7h2.7zm4.8 5.8h-1.1v-4.8h-1.6v-1h4.3v1H255v4.8zm5.6-4.8v3.7h1.6v1.1h-4.3v-1.1h1.6v-3.7h-1.6v-1h4.3v1h-1.6zm5.3 3h.8v-4h1.1V19h-.8v.8h-.8v.8h-1.1v-.8h-.8V19h-.8v-4.2h1.1v4h.8v.7h.5v-.7zm5.9-3v3.7h1.6v1.1h-4.3v-1.1h1.6v-3.7h-1.6v-1h4.3v1h-1.6zm4.5 4.8v-4.8h-1.6v-1h4.3v1h-1.6v4.8h-1.1zm5.6 0v-3.1h-.8v-.9h-.8v-1.8h1.1v1.5h.8v.8h.5v-.8h.8v-1.5h1.1v1.8h-.8v.9h-.8v3.1h-1.1zm.3 112.2l2.9-2.9.1.1 2.8 2.8 2.9-2.9.1.1 2.8 2.8 2.8-2.9.1.1 4 4-1.2 1.2-2.9-2.9-1.6 1.7-1.2 1.2h-.1l-1.2-1.2h.1l-1.7-1.7-1.7 1.7-1.2 1.2-1.2-1.2-1.7-1.7-1.6 1.7-1.2 1.2h-.1L281 134l-1.6-1.7-2.9 2.9-1.2-1.2.1-.1 4-4 .1.1 2.7 2.8zm-6.9 5.8l.1-.1 4-4 .1.1 2.7 2.8 2.9-2.9.1.1 2.8 2.8 2.9-2.9.1.1 2.8 2.8 2.8-2.9.1.1 4 4-1.2 1.2-2.9-2.8-1.6 1.6-1.2 1.2h-.1l-1.2-1.2h.1l-1.7-1.6-2.9 2.8-1.2-1.2-1.7-1.6-1.6 1.6-1.2 1.2h-.1l-1.2-1.2-1.6-1.6-2.9 2.8-1.2-1.2zM162.7 134l4.1-4.1 2.9 2.9 2.8-2.9 2.9 2.9 2.9-2.9 2.9 2.9 2.8-2.9 4.1 4.1-1.2 1.2-2.9-2.9-1.6 1.7-1.2 1.2h-.1l-1.2-1.2h.1l-1.7-1.7-1.7 1.7-1.2 1.2-1.2-1.2-1.7-1.7-1.6 1.7-1.2 1.2h-.1l-1.2-1.2h.1l-1.7-1.7-2.9 2.9-1.2-1.2zm0 4.6l4.1-4.1 2.9 2.9 2.8-2.9 2.9 2.9 2.9-2.9 2.9 2.9 2.8-2.9 4.1 4.1-1.2 1.2-2.9-2.8-1.6 1.6-1.2 1.2h-.1l-1.2-1.2h.1l-1.7-1.6-1.7 1.6-1.2 1.2-2.9-2.8-1.6 1.6-1.2 1.2h-.1l-1.2-1.2h.1l-1.7-1.6-2.9 2.8-1.2-1.2zM201.8 8.5h-26.4V6.8h26.5v1.7h-.1zm46.1 0h-44.3V6.8h44.3v1.7zm49.1 0h-28.4V6.8H297v1.7zm-31 0h-16.3V6.8H266v1.7zm40.5 19l-.8 1.3h-50.8v-1.7h49.2l-1.1-1.6h-13.5v-1.7H302l-1-1.7h-8.5v-1.6h7.5l-1.2-1.9H294V17h4.9l1-1.7h-7.4v-1.7h8.5l.9-1.5h-12.4v-1.6H303l1.1-1.9h-4.6V6.8h6.2l.7 1.2-6 9.8 6.1 9.7zm-61.1-.4h8.1v1.7h-8.1v-1.7zm-47.3 0H244v1.7h-45.9v-1.7zm-37.2-.1H196v1.8H159.2l-.7-1.3 6.3-9.7-6.3-9.8.7-1.2h12.7v1.7h-11l1.3 2h13.5v1.6h-12.4l1 1.5h8.4v1.7h-7.3l1.1 1.7h4.8v1.6h-4.9l-1.2 1.9h7.5v1.6h-8.6l-1 1.7h12.6v1.7h-13.8l-1 1.5zm47.6 119.5h1.7v1.7h-1.7v-1.7zm34 0h1.7v1.7h-1.7v-1.7zm2.8 0h1.7v1.7h-1.7v-1.7zm-11.3 0h1.7v1.7H234v-1.7zm-28.3 0h1.7v1.7h-1.7v-1.7zm34 0h1.7v1.7h-1.7v-1.7zm14.2 0h1.7v1.7h-1.7v-1.7zm-5.7 0h1.7v1.7h-1.7v-1.7zm2.8 0h1.7v1.7H251v-1.7zm-14.2 0h1.7v1.7h-1.7v-1.7zm-17 0h1.7v1.7h-1.7v-1.7zm-2.8 0h1.7v1.7H217v-1.7zm-2.8 0h1.7v1.7h-1.7v-1.7zm17 0h1.7v1.7h-1.7v-1.7zm-19.9 0h1.7v1.7h-1.7v-1.7zm17 0h1.7v1.7h-1.7v-1.7zm-2.8 0h1.7v1.7h-1.7v-1.7zm-2.8 0h1.7v1.7h-1.7v-1.7zm20.7-8.9l1.2 1.2-.1.2-4 3.9-.1-.1-2.8-2.8-2.9 2.9-.1-.1-2.8-2.7-2.8 2.8-2.8-2.8-2.9 2.8-4.1-4.1 1.2-1.2 2.9 2.9 1.7-1.6-.1-.1 1.2-1.2.1.1v-.1l1.2 1.2v.1l1.6 1.6 1.7-1.6-.1-.1 1.2-1.2.1.1v-.1l1.2 1.2-.1.1 1.7 1.6 2.9-2.9 1.2 1.2 1.7 1.7 2.9-2.9zm3.2-60.4V72c0-.6.5-1 1-1 .6 0 1 .5 1 1v5.2c0 .6-.5 1-1 1s-1-.5-1-1zM218.3 72v5.2c0 .6-.5 1-1 1-.6 0-1-.5-1-1V72c0-.6.5-1 1-1s1 .5 1 1zm12.5 16.9c.6 0 1.2-.2 1.7-.6.5.4 1.1.6 1.7.6 1.3 0 2.7-1.1 2.7-3.1 0-1.3-1.3-2.8-1.9-3.3-1-1-1.9-1.5-2.5-1.5-.8 0-1.8.8-2.5 1.5-.6.6-1.9 2.1-1.9 3.4 0 1.9 1.3 3 2.7 3zm1.7-6c.7.4 2.4 2.1 2.4 2.8 0 .8-.4 1.1-.7 1.1s-.6-.3-.8-.7c-.2-.4-.5-.6-.9-.6s-.8.2-.9.6c-.2.4-.5.7-.8.7s-.7-.3-.7-1.1c0-.6 1.7-2.4 2.4-2.8zm-7.6-2.1h-2.1v-2.1h1.9v-1.6h-1.8V75h2.1v1.8h1.5V75h2.1v2.1h-1.8v1.5h1.8v2.1h-2.1V79h-1.6v1.8zm13.5.1h-2.1v-2.1h1.9v-1.6h-1.8v-2.1h2.1v1.8h1.5v-1.8h2.1v2.1h-1.8v1.5h1.8v2.1H240V79h-1.6v1.9zm-34.8-29l-1.9-1.9 1.9-1.9 1.9 1.9-1.9 1.9zm-8.7 1.5l1.7-1.7-1.7-1.7 1.7-1.7-1.7-1.7 1.9-1.9 1.7 1.7 1.5-1.5-1.7-1.7 1.9-1.9 1.7 1.7 1.7-1.7 1.7 1.7 1.7-1.7 1.9 1.9-1.7 1.7 1.7 1.7-1.9 1.9-1.9-1.9 1.7-1.7-1.5-1.5-1.7 1.7-1.7-1.7-1.5 1.5 1.7 1.7-1.9 1.9-1.7-1.7-1.5 1.5 1.7 1.7-1.7 1.7 1.5 1.5 1.7-1.7 1.9 1.9-1.9 1.9-1.7-1.7-1.7 1.7-1.9-1.9zm66.6 52.5l1.9 1.9-1.9 1.9-1.9-1.9 1.9-1.9zm7 3.7l1.7 1.7-1.9 1.9-1.7-1.7-1.5 1.5 1.7 1.7-1.9 1.9-1.7-1.7-1.7 1.7-1.7-1.7-1.7 1.7-1.9-1.9 1.7-1.7-1.7-1.7 1.9-1.9 1.9 1.9-1.7 1.7 1.5 1.5 1.7-1.7 1.7 1.7 1.5-1.5-1.7-1.7 1.9-1.9 1.7 1.7 1.5-1.5-1.7-1.7 1.7-1.7-1.5-1.5-1.7 1.7-1.9-1.9 1.9-1.9 1.7 1.7 1.7-1.7 1.9 1.9-1.7 1.7 1.7 1.7-1.7 1.7zm-16.7-16.2l11.3 11.3-1.4 1.4-.1-.1-11.3-11.3 1.4-1.4.1.1zm-39.4-36.6l-7-7 1.4-1.4 7 7-1.4 1.4zm45.7 52.6l-9.1-9.1 1.4-1.4.1.1 9.1 9.1-1.4 1.4-.1-.1zM210 61.2l-8.1-8.1 1.4-1.4 8.1 8.1-1.4 1.4zM263.3 50l-1.9 1.9-1.9-1.9 1.9-1.9 1.9 1.9zm3.4-6.8l-1.7 1.7 1.5 1.5 1.7-1.7 1.9 1.9-1.7 1.7 1.7 1.7-1.7 1.7 1.7 1.7-1.9 1.9-1.7-1.7-1.7 1.7-1.9-1.9 1.9-1.9 1.7 1.7 1.5-1.5-1.7-1.7 1.7-1.7-1.5-1.5-1.7 1.7-1.9-1.9 1.7-1.7-1.5-1.5-1.7 1.7-1.7-1.7-1.5 1.5 1.7 1.7-1.9 1.9-1.9-1.9 1.7-1.7-1.7-1.7 1.9-1.9 1.7 1.7 1.7-1.7 1.7 1.7 1.7-1.7 1.9 1.9zm-65.1 64.7l1.9-1.9 1.9 1.9-1.9 1.9-1.9-1.9zm7.3 3.4l-1.7 1.7 1.7 1.7-1.9 1.9-1.7-1.7-1.7 1.7-1.7-1.7-1.7 1.7-1.9-1.9 1.7-1.7-1.5-1.5-1.7 1.7-1.9-1.9 1.7-1.7-1.7-1.7 1.7-1.7-1.7-1.7 1.9-1.9 1.7 1.7 1.7-1.7 1.9 1.9-1.9 1.9-1.7-1.7-1.5 1.5 1.7 1.7-1.7 1.7 1.5 1.5 1.7-1.7 1.9 1.9-1.7 1.7 1.5 1.5 1.7-1.7 1.7 1.7 1.5-1.5-1.7-1.7 1.9-1.9 1.9 1.9zm-6.9-6.8l11.3-11.2 1.4 1.4-.1.1-11.3 11.3-1.4-1.4.1-.2zm56.2-56.2l1.5 1.4-.1.1-6.9 6.9-1.4-1.4.1-.1 6.8-6.9zm-51.4 61.2l-1.4-1.4 9.2-9.2 1.4 1.4-.1.1-9.1 9.1zm46.9-49.8l8-8 1.5 1.4-.1.1-8 8-1.4-1.5zm-25.1 46.2h7.7c5.7 0 10.3-4.6 10.3-10.3v-6.1c3.3-.9 5.5-3.9 5.5-7.4V71.9c0-10.9-8.8-19.7-19.7-19.7s-19.7 8.8-19.7 19.7v10.3c0 3.4 2.3 6.4 5.5 7.4v6.1c.1 5.6 4.8 10.2 10.4 10.2zm16-10.3c0 4.5-3.7 8.2-8.2 8.2h-7.7c-4.5 0-8.2-3.7-8.2-8.2v-5.8h1.5v1.7c0 4.2 3.4 7.7 7.7 7.7h5.8c4.2 0 7.7-3.4 7.7-7.7v-1.7h1.4s-.1 0 0 0v5.8zm-29.8-13.4V71.9c0-9.7 7.9-17.7 17.6-17.7 1.7 0 3.3.2 5 .7l-2.4 2.6c-.3.3-.4.8-.1 1.2l1.2 2.2-1.3 2.5c-.1.2-.1.5-.1.8.1.3.3.5.5.6.5.3 1.1 0 1.4-.5l1.5-3c.2-.3.1-.7 0-1l-1.1-2 2.5-2.7c6.5 2.8 10.6 9.2 10.6 16.2v10.3c0 2.3-1.4 4.3-3.5 5.2v-3.2c0-.6-.5-1-1-1-.6 0-1 .5-1 1v3.6H243v-1.6c0-.6-.5-1-1-1-.6 0-1 .5-1 1v5.4c0 2-1.1 3.8-2.8 4.8v-3.7c0-.6-.5-1-1-1-.6 0-1 .5-1 1V97c-.3 0-.5.1-.8.1h-1.8v-4.4c0-.6-.5-1-1-1-.6 0-1 .5-1 1v4.4h-2.5v-4.4c0-.6-.5-1-1-1-.6 0-1 .5-1 1v3.8c-1.8-1-3-2.9-3-4.9v-5.4c0-.6-.5-1-1-1-.6 0-1 .5-1 1v1.6h-1.4-.1v-3.6c0-.6-.5-1-1-1-.6 0-1 .5-1 1v3.2c-2.4-.9-3.8-3-3.8-5.2zm-39.6-5.1v2.1h-2.1v2.4h2.1v2.1h2.4v-2.1h2v-2.4h-2v-2.1h-2.4zm2 4.2h-1.7v-1.8h1.7v1.8zm-8.8 12.5V92h-2.1v-2.4h2.4v2.1h1.8v-2.1h2.4V92h-2.1v1.8h2.1v2.4h-2.4v-2.1h-1.9v2.1h-2.4v-2.4h2.2zm0-24V68h-2.1v-2.4h2.4v2.1h1.8v-2.1h2.4V68h-2.1v1.7h2.1v2.4h-2.4v-2h-1.9v2.1h-2.4v-2.4h2.2zm117.3 8.3v2.1h-2v2.4h2v2.1h2.4v-2.1h2.1v-2.4h-2.1v-2.1h-2.4zm2.1 4.2h-1.7v-1.8h1.7v1.8zm4.7-12.5v-1.7h-2v-2.3h2.4v2h1.8v-2.2h2.4V68h-2.2v1.8h2.1v2.4h-2.4v-2.1h-1.7v2.1h-2.4v-2.4h2zm0 24v-1.7h-2v-2.3h2.4v2h1.8v-2.2h2.4V92h-2.2v1.8h2.1v2.4h-2.4v-2h-1.7v2h-2.4v-2.4h2z"/></svg>