<svg id="Layer_1" xmlns="http://www.w3.org/2000/svg" viewBox="0 0 310 155" width="310" height="155"><style>.st0{fill:#231f20}</style><path class="st0" d="M41 88.8h-2v2.1h-2.1v-2.1h2v-2h-2v2h-2.1v-2.1h2.1v-2H39v2h2v2.1zm5.2 17.1h-2.1v-2H42v2h-2v2.1h2v2.1h2.1V108h-2v-2h2v2h2.1v-2.1zM49.8 72v-2.1h-2v-2h2v2h2.1v-2.1h-2.1v-2h-2.1v2h-2v2.1h2V72h2.1zm81.5 56.9h-2.1v2h-2.1v2.1h2.1v-2h2v2h-2v2.1h2.1V133h2v-2.1h-2v-2zm13.8-110.8H143v2.1h2.1v-2.1zm-2.1 6.3h2.1v-2.1H143v2.1zm2.1-2.1h2.1v-2.1h-2.1v2.1zm-4.2-2.1v2.1h2.1v-2.1h-2.1zM11.6 22.3h2.1v-2.1h-2.1v2.1zm-2-2.1h2v-2.1H9.5l.1 2.1H7.5v2.1h2v2.1h2.1v-2.1h-2v-2.1zm15.9 108.7h-2.1v2h-2.1v2.1h2.1v-2h2.1v2h2.1v-2.1h-2.1v-2zm-2.1 6.2h2.1V133h-2.1v2.1zM108.6 73v-2h2.1v-2.1h-2.1v2h-2v-2h2v-2.1h-2.1v2.1h-2V71h2v2h2.1zm-82.1 44.1v-2h2.1V113h-2.1v2h-2v-2h2v-2.1h-2.1v2.1h-2v2.1h2v2h2.1zm90.4-25.7h-2v-2h2v-2.1h-2.1v2.1h-2v2.1h2v2h2.1v-2.1l2.1.1v-2.1h-2.1v2zm13.3 20.7V110h-2v-2h2v2h2.1v-2.1h-2.1v-2h-2.1v2h-2v2.1h2v2.1h2.1zm-15.3-.2h-2.1v2.1h2v2.1h-2v2.1h2.1v-2.1h2V114h-2v-2.1zm-4.2 2.1v2.1h2.1V114h-2.1zM39 49.2h-2.1v2.1H39v-2.1zm-2.1 2.1h-2.1v2.1h2.1v-2.1zm-2.1 2.1h-2.1v2.1h2.1v-2.1zm4.2 2.1v-2.1h-2.1v2.1H39zm-6.3-6.3v2.1h2.1v-2.1h-2.1zm86.3 6.3h2.1v-2.1H119v2.1zm4.1 0h2.1v-2.1h-2v-2h2v-2.1h-2.1v2h-2v2.1h2v2.1zm-2.1-4.2v-2.1h-2.1v2.1h2.1zm12.8-21.6H21.2l-.7-1 2.9-7.9-2.9-7.9.7-1h112.5l.7 1-2.9 7.9 2.9 7.9-.6 1zm-1.1-1.4l-2.6-7.2v-.5l2.6-7.2H22.2l2.6 7.2v.5l-2.6 7.2h110.5zM16.2 140.4h1.4V139h-1.4v1.4zm6 0h1.4V139h-1.4v1.4zm9 0h1.4V139h-1.4v1.4zm-12 0h1.4V139h-1.4v1.4zm6 0h1.4V139h-1.4v1.4zm3 0h1.4V139h-1.4v1.4zm108.1 0h1.4V139h-1.4v1.4zm-14.2 0h1.4V139h-1.4v1.4zm17 0h1.4V139h-1.4v1.4zm-14.2 0h1.4V139h-1.4v1.4zm-5.6 0h1.4V139h-1.4v1.4zm8.5 0h1.4V139h-1.4v1.4zm2.8 0h1.4V139h-1.4v1.4zm2.8 0h1.4V139h-1.4v1.4zM143.7 13h-1.4v1.4h1.4V13zm4.3 1.4h1.4V13H148v1.4zm-7.1-1.4h-1.4v1.4h1.4V13zm5.6 0h-1.4v1.4h1.4V13zM14.1 14.4h1.4V13h-1.4v1.4zM9.9 13H8.5v1.4h1.4V13zm-4.3 1.4H7V13H5.6v1.4zm7.1-1.4h-1.4v1.4h1.4V13zm132.4 15.7h1.4v-1.4h-1.4v1.4zm-2.8 0h1.4v-1.4h-1.4v1.4zm5.7 0h1.4v-1.4H148v1.4zm-8.5 0h1.4v-1.4h-1.4v1.4zm-133.9 0H7v-1.4H5.6v1.4zm2.9 0h1.4v-1.4H8.5v1.4zm2.8 0h1.4v-1.4h-1.4v1.4zm2.8 0h1.4v-1.4h-1.4v1.4zm24.2-7.6h-2.4v-2.4h-.8v5.6h.8v-2.4h2.4v2.4h.8v-5.6h-.8v2.4zm6-2.4h-2.4v.8h2.4v-.8zm0 2.4h-2.4v-1.6h-.8v4.8h.8v-2.4h2.4v2.4h.8v-4.8h-.8v1.6zm6 0h.8v-1.6h-.8v1.6zm-2.4-1.6h2.4v-.8h-3.2v5.6h.8v-2.4h2.4v-.8h-2.4v-1.6zm6 0h2.4v-.8h-3.2v5.6h.8v-2.4h2.4v-.8h-2.4v-1.6zm2.4 1.6h.8v-1.6h-.8v1.6zm6-.8h.8v-1.6h-.8v1.6zm-2.4 0v.8h.8v-.8h-.8zm1.6.8h.8v-.8h-.8v.8zm-2.4-2.4v1.6h.8v-1.6h-.8zm1.6 5.6h.8v-3.2h-.8v3.2zm13.6-2.4h-.8v.8h.8v1.6h.8v-5.6h-.8v3.2zm-1.6-.8v.8h.8v-.8h-.8zm-.8-.8v-1.6h-.8v5.6h.8v-3.2h.8v-.8h-.8zm5.2 4h4v-.8h-3.2v-1.6h2.4v-.8h-2.4v-1.6h3.2v-.8h-4v5.6zm9.2-.8h.8v-4.8h-.8v4.8zm-1.6-3.2v3.2h.8v-3.2h-.8zm.8 4h.8v-.8h-.8v.8zm-2.4-5.6v4.8h.8v-4.8h-.8zm.8 5.6h.8v-.8h-.8v.8zm14.4-4h.8v-1.6h-.8v1.6zm-.8.8h.8v-.8h-.8v.8zm-2.4-2.4v1.6h.8v-1.6h-.8zm.8 1.6v.8h.8v-.8h-.8zm.8 4h.8v-3.2h-.8v3.2zm4.4 0h4v-.8h-3.2v-1.6h2.4v-.8h-2.4v-1.6h3.2v-.8h-4v5.6zm9.2-5.6h-2.4v.8h2.4v-.8zm0 2.4h-2.4v-1.6h-.8v4.8h.8v-2.4h2.4v2.4h.8v-4.8h-.8v1.6zm6.8 3.2v-.8h-.8v.8h.8zm-.8-.8v-.8h-.8v.8h.8zm0-2.4h.8v-1.6h-.8v1.6zm-2.4-1.6h2.4v-.8h-3.2v5.6h.8v-2.4h.8v.8h.8v-.8h.8v-.8h-2.4v-1.6zm5.2 4.8h.8v-.8h-.8v.8zm0-1.6h.8v-4h-.8v4zm20.7 65.5h-1.4v1.4h1.4v-1.4zm0 2.8h-1.4v1.4h1.4V91zm0 2.8h-1.4v1.4h1.4v-1.4zm0-11.3h-1.4v1.4h1.4v-1.4zm0-5.7h-1.4v1.4h1.4v-1.4zm0 2.9h-1.4v1.4h1.4v-1.4zm0 5.6h-1.4v1.4h1.4v-1.4zm0 11.4h-1.4v1.4h1.4v-1.4zm0-28.4h-1.4v1.4h1.4v-1.4zm0 31.2h-1.4v1.4h1.4v-1.4zm0-25.5h-1.4v1.4h1.4V74zm0-8.5h-1.4v1.4h1.4v-1.4zm0 39.7h-1.4v1.4h1.4v-1.4zm0-34h-1.4v1.4h1.4v-1.4zm0 31.1h-1.4v1.4h1.4v-1.4zm4.5 11.6h1.4V57.8h-1.4v56.1zM16.7 72.4h.7V71H16v1.4h.7zm0 31.1h.7v-1.4H16v1.4h.7zm0-17h.7v-1.4H16v1.4h.7zm0 5.7h.7v-1.4H16v1.4h.7zm0-8.5h.7v-1.4H16v1.4h.7zm0 5.7h.7V88H16v1.4h.7zm0-14.2h.7v-1.4H16v1.4h.7zm0 5.7h.7v-1.4H16v1.4h.7zm0-14.2h.7v-1.4H16v1.4h.7zm0 11.3h.7v-1.4H16V78h.7zm0 17h.7v-1.4H16V95h.7zm0-25.5h.7v-1.4H16v1.4h.7zm0 36.9h.7V105H16v1.4h.7zm0-5.7h.7v-1.4H16v1.4h.7zm0-2.8h.7v-1.4H16v1.4h.7zm-6.3 16h1.4V57.8h-1.4v56.1zm13.2-39.6h-1.4v23.2h1.4V74.3zm109 23.2h1.4V74.3h-1.4v23.2zm70.4-1.4V94h-2v-2h2v2h2.1v-2.1H203v-2h-2.1v2h-2V94h2v2.1h2.1zm-13-41.6h-2.1v2h-2v2.1h2v2.1h2.1v-2.1h-2v-2h2v2h2.1v-2.1H190v-2zm-2.5 50.3h-2v-2h2v-2.1h-2.1v2.1h-2v2.1h2v2h2.1v-2h2.1v-2.1h-2.1v2zm15.2-57.1h2.1v-2.1h-2.1v2.1zm2.1-6.3h-2.1v2.1h2.1v-2.1zm-4.2 2.1v2.1h2.1v-2.1h-2.1zm6.3 0h-2.1v2.1h2.1v-2.1zm79.4 85.4h-2.1v2h-2.1v2.1h2.1v-2h2v2h-2v2.1h2.1V133h2v-2.1h-2v-2zm13.8-110.8H298v2.1h2.1v-2.1zm-2.1 6.3h2.1v-2.1H298v2.1zm2.1-2.1h2.1v-2.1h-2.1v2.1zm-4.2-2.1v2.1h2.1v-2.1h-2.1zm-129.3 2.1h2.1v-2.1h-2.1v2.1zm-2-2.1h2v-2.1h-2.1v2.1h-2v2.1h2v2.1h2.1v-2.1h-2v-2.1zm15.9 108.7h-2.1v2h-2.1v2.1h2.1v-2h2.1v2h2.1v-2.1h-2.1v-2zm-2.1 6.2h2.1V133h-2.1v2.1zM281 94.6v-2.1h-2v-2h2v2h2.1v-2.1H281v-2h-2.1v2h-2v2.1h2v2.1h2.1zm-17.4-43.4h-2v-2h2v-2.1h-2.1v2.1h-2v2.1h2v2h2.1v-2.1l2.1.1v-2.1h-2.1v2zm13.6 10v2h-2.1v2.1h2.1v-2h2v2h-2v2.1h2.1v-2.1h2v-2.1h-2v-2h-2.1zm-6.9 40.4h-2.1v2.1h2v2.1h-2v2.1h2.1v-2.1h2v-2.1h-2v-2.1zm-4.2 2.1v2.1h2.1v-2.1h-2.1zm-64.7-31.3h-2.1v2.1h2.1v-2.1zm-6.3 6.2h2.1v-2h2.1v2h2.1v-2.1h-2.1v-2h-2.1v2h-2.1v2.1zm2.1-6.3h-2.1v2.1h2.1v-2.1zm-.2 46.5h2.1v-2.1H197v2.1zm-2.1 2h-2v2.1h2.1v-2h2v2h2.1v-2.1H197v-2h-2.1v2zm0-4.2h-2.1v2.1h2.1v-2.1zM263 77.7h-2v2.1h2v2.1h2.1v-2.1h-2v-2.1h2v-2.1H263v2.1zm-4.1 4.2h2.1v-2.1h-2.1v2.1zm2-6.3h-2.1v2.1h2.1v-2.1zM283 117h-2.1v2.1h2.1V117zm-2.1 6.2h2.1v-2.1h-2.1v-2h-2.1v2h-2.1v2.1h2.1v-2h2.1v2zm-2.1-6.3h-2.1v2.1h2.1v-2.1zm10-87.2H176.2l-.7-1 2.9-7.9-2.9-7.9.7-1h112.5l.7 1-2.9 7.9 2.9 7.9-.6 1zm-1.1-1.4l-2.6-7.2v-.5l2.6-7.2H177.2l2.6 7.2v.5l-2.6 7.2h110.5zM174.2 140.4h1.4V139h-1.4v1.4zm-3 0h1.4V139h-1.4v1.4zm6 0h1.4V139h-1.4v1.4zm3 0h1.4V139h-1.4v1.4zm3 0h1.4V139h-1.4v1.4zm3 0h1.4V139h-1.4v1.4zm90.9 0h1.4V139h-1.4v1.4zm-2.8 0h1.4V139h-1.4v1.4zm17 0h1.4V139h-1.4v1.4zm-8.5 0h1.4V139h-1.4v1.4zm11.3 0h1.4V139h-1.4v1.4zm-14.2 0h1.4V139h-1.4v1.4zm8.5 0h1.4V139h-1.4v1.4zm-2.8 0h1.4V139h-1.4v1.4zM298.7 13h-1.4v1.4h1.4V13zm4.3 0v1.4h1.4V13H303zm-7.1 0h-1.4v1.4h1.4V13zm5.6 0h-1.4v1.4h1.4V13zm-140.9 1.4h1.4V13h-1.4v1.4zm4.3-1.4h-1.4v1.4h1.4V13zm4.2 1.4h1.4V13h-1.4v1.4zm-1.4-1.4h-1.4v1.4h1.4V13zm132.4 15.7h1.4v-1.4h-1.4v1.4zm2.9 0h1.4v-1.4H303v1.4zm-8.5 0h1.4v-1.4h-1.4v1.4zm2.8 0h1.4v-1.4h-1.4v1.4zm-133.8 0h1.4v-1.4h-1.4v1.4zm-2.9 0h1.4v-1.4h-1.4v1.4zm8.5 0h1.4v-1.4h-1.4v1.4zm-2.8 0h1.4v-1.4h-1.4v1.4zm27-7.6h-2.4v-2.4h-.8v5.6h.8v-2.4h2.4v2.4h.8v-5.6h-.8v2.4zm6 0h-2.4v-1.6h-.8v4.8h.8v-2.4h2.4v2.4h.8v-4.8h-.8v1.6zm0-2.4h-2.4v.8h2.4v-.8zm3.6.8h2.4v-.8h-3.2v5.6h.8v-2.4h2.4v-.8h-2.4v-1.6zm2.4 1.6h.8v-1.6h-.8v1.6zm3.6-1.6h2.4v-.8h-3.2v5.6h.8v-2.4h2.4v-.8h-2.4v-1.6zm2.4 1.6h.8v-1.6h-.8v1.6zm2.8-2.4v1.6h.8v-1.6h-.8zm1.6 5.6h.8v-3.2h-.8v3.2zm-.8-4v.8h.8v-.8h-.8zm1.6.8h.8v-.8h-.8v.8zm.8-.8h.8v-1.6h-.8v1.6zm9.6 0v-1.6h-.8v5.6h.8v-3.2h.8v-.8h-.8zm.8.8v.8h.8v-.8h-.8zm1.6.8h-.8v.8h.8v1.6h.8v-5.6h-.8v3.2zm2.8 2.4h4v-.8h-3.2v-1.6h2.4v-.8h-2.4v-1.6h3.2v-.8h-4v5.6zm7.6-4v3.2h.8v-3.2h-.8zm1.6 3.2h.8v-4.8h-.8v4.8zm-.8.8h.8v-.8h-.8v.8zm-1.6 0h.8v-.8h-.8v.8zm-.8-5.6v4.8h.8v-4.8h-.8zm12.8 1.6v.8h.8v-.8h-.8zm1.6.8h.8v-.8h-.8v.8zm.8-.8h.8v-1.6h-.8v1.6zm-3.2-1.6v1.6h.8v-1.6h-.8zm1.6 5.6h.8v-3.2h-.8v3.2zm4.4 0h4v-.8h-3.2v-1.6h2.4v-.8h-2.4v-1.6h3.2v-.8h-4v5.6zm9.2-5.6h-2.4v.8h2.4v-.8zm0 2.4h-2.4v-1.6h-.8v4.8h.8v-2.4h2.4v2.4h.8v-4.8h-.8v1.6zm6 2.4v-.8h-.8v.8h.8zm0-4h.8v1.6h-.8v.8h-.8v.8h-.8v-.8h-.8v2.4h-.8v-5.6h3.2v.8zm0 0h-2.4v1.6h2.4v-1.6zm.8 4.8v-.8h-.8v.8h.8zm2 0h.8v-.8h-.8v.8zm0-1.6h.8v-4h-.8v4zm20.7 74h-1.4v1.4h1.4v-1.4zm0-14.2h-1.4v1.4h1.4v-1.4zm0 8.5h-1.4v1.4h1.4V91zm0-2.8h-1.4v1.4h1.4v-1.4zm0 5.6h-1.4v1.4h1.4v-1.4zm0-8.5h-1.4v1.4h1.4v-1.4zm0 17h-1.4v1.4h1.4v-1.4zm0 2.9h-1.4v1.4h1.4v-1.4zm0-34h-1.4v1.4h1.4v-1.4zm0 28.3h-1.4v1.4h1.4v-1.4zm0-19.8h-1.4v1.4h1.4v-1.4zm0-2.9h-1.4v1.4h1.4v-1.4zm0-11.3h-1.4v1.4h1.4v-1.4zm0 8.5h-1.4v1.4h1.4V74zm0-5.7h-1.4v1.4h1.4v-1.4zm4.5 45.6h1.4V57.8h-1.4v56.1zm-127.6-33h.7v-1.4H171v1.4h.7zm0 22.6h.7v-1.4H171v1.4h.7zm0-14.1h.7V88H171v1.4h.7zm0-2.9h.7v-1.4H171v1.4h.7zm0-8.5h.7v-1.4H171V78h.7zm0 5.7h.7v-1.4H171v1.4h.7zm0-14.2h.7v-1.4H171v1.4h.7zm0 2.9h.7V71H171v1.4h.7zm0 2.8h.7v-1.4H171v1.4h.7zm0 31.2h.7V105H171v1.4h.7zm0-14.2h.7v-1.4H171v1.4h.7zm0-25.5h.7v-1.4H171v1.4h.7zm0 34h.7v-1.4H171v1.4h.7zm0-2.8h.7v-1.4H171v1.4h.7zm0-2.9h.7v-1.4H171V95h.7zm-6.3 18.9h1.4V57.8h-1.4v56.1zm13.2-16.4V74.3h-1.4v23.2h1.4zm109 0h1.4V74.3h-1.4v23.2zm-55.8-55.8h2.1v-2.1h-2.1v2.1zm2.1-6.3h-2.1v2.1h2.1v-2.1zm-12.8 13.8H219v2.1h2.1v-2.1zm-4 2.1v-2.1H215v2.1h2.1zm29.8-2.2h-2.1v2.1h2.1v-2.1zm4.1 2.1v-2.1h-2.1v2.1h2.1zm-6.7 11.9h-2.1v2.1h2.1v-2.1zm2.1 2.2h-2.1v2.1h2.1v-2.1zm-24.7-.1h2v-2.1h-2.1l.1 2.1h-2.1v2.1h2.1v-2.1zM77.2 94.3c-.3-.4-2.8-3.7-2.5-6 .2-2.1 2.1-3.5 4.1-3.3 1 .1 1.9.6 2.5 1.4.6.8.9 1.7.8 2.7v.1c-.3 2.3-3.4 4.9-3.8 5.2-.2.2-.3.2-.5.2-.3 0-.4-.1-.6-.3zm-1.1-5.9c-.1 1.2 1 3.3 1.8 4.5 1-1 2.6-2.6 2.7-3.8V89c.1-.6-.1-1.2-.5-1.7s-.9-.8-1.5-.9h-.2c-1.1 0-2.1.9-2.3 2zm2.6-3.8c.6.1 1-.3 1.1-.8 0-.5-.4-1-.9-1.2-.6 0-1 .4-1.1.9 0 .6.4 1 .9 1.1zm9.7 30.7c.5-.2.7-.9.4-1.4-.3-.5-.9-.7-1.4-.4-.5.2-.6.9-.4 1.4s.9.7 1.4.4zm-3.5 5.3c-.2-1.1 0-2.1.6-3 .6-.9 1.5-1.5 2.6-1.7.3-.1.5-.1.8-.1 1.9 0 3.6 1.4 4 3.3.4 2.2-1 4.3-3.2 4.8-.3-.1-.6 0-.8 0-1.9 0-3.6-1.4-4-3.3zm1.4-.3c.3 1.4 1.6 2.4 3.1 2.1 1.4-.3 2.4-1.7 2.1-3.1-.3-1.2-1.4-2.1-2.6-2.1h-.5c-.7.1-1.3.5-1.7 1.1-.4.6-.5 1.3-.4 2zm-18.9-5.5c-.1-.2-.1-.4 0-.5.3-.7.9-1.3 1.6-1.5-.3-.7-.3-1.4-.1-2.2l2.7-6.4c.3-.7.9-1.3 1.6-1.5v-.1c-.3-.7-.3-1.4 0-2.1.2-.4.6-.5.9-.4l3.7 1.6c.2.1.3.2.4.4.1.2.1.4 0 .5-.2.7-.8 1.3-1.6 1.6.3.7.3 1.4.1 2.1l-1.3 3c0 .1-.1.3-.2.4l-.8 2c0 .2-.1.3-.2.5l-.2.5c-.3.8-.9 1.3-1.5 1.5v.1c.3.7.3 1.4 0 2.1-.2.4-.4.5-.7.5-.1 0-.2 0-.3-.1l-3.7-1.6c-.2-.1-.3-.2-.4-.4zm7.1-13c0 .1 0 .2.1.3.1.2.2.4.4.6h.2c.1 0 .2.1.3.2.4.1.8 0 1.1-.2l-2.1-.9zm-1.8 3.8l1.9 2.3.9-2.1c.3-.7 0-1.5-.7-1.7-.1-.1-.3-.1-.5-.1-.5 0-1 .3-1.2.8l-.4.8zm-1.1 2.4l1.9 2.3.4-.9-1.9-2.3-.4.9zm-.9 4.7c.1 0 .2.1.3.1.1 0 .2.1.3.2.6.1 1.2-.2 1.4-.8l.2-.5-1.9-2.3-.7 1.7c-.2.7-.1 1.3.4 1.6zm-1.5 1.6l2.1.9c0-.1 0-.2-.1-.3-.1-.3-.3-.5-.6-.6-.1 0-.1 0-.2-.1h-.1c-.4-.2-.8-.1-1.1.1zm32.6.6v-2.1h-2.1v2.1h2.1zm-4.2-6.2h-2.1v2.1h2.1v2h2.1v-2h4.2v-2.1h-2.1v-2.1h-2.1v2.1h-2.1zm-4.1-14.5v-2.1h-2.1v2.1h2.1zm2 2.1v2h-4.1v2.1h2.1v2.1h2v2.1h2.1v2h2.1v-2.1h-2.1v-2h-2v-2.1h4.1v-2.1h-2.1v-2h-2.1l.1-2.1h-2.1v2.1h2zM89.4 88h-2.1v2.1h2v2h2.1v-2h4.2V88h-2.1v-2.1h-2.1V88h-2zm-.1-4.1v2h2.1v-2.1h-2v-2h-2.1v2.1h2zm-4.1-6.3h-2.1v2.1h2.1v2.1h2.1v-2.1h4.1v-2.1h-2v-2h-2.1v2h-2.1zm2.1-2v-2.1h-2.1v2.1h2.1zm-6.2-12.4v2h2v2.1H79v2.1h2.1v2.1h2v2h2.1v-2.1h-2v-2h4.1v-2.1h-2.1v-2.1h-2v-2.1h-2.1v-2H79v2.1h2.1zm27.9 64.1h1.1v2.1H83.7v1.9h4.5c.4 0 .7.3.7.7v2.1c0 .4-.4.7-.7.7h-1.8v7.5c0 .4-.4.7-.8.7H70.2c-.4 0-.7-.3-.7-.7v-7.5h-1.8c-.4 0-.7-.3-.7-.7V132c0-.4.3-.7.7-.7h4.5v-1.9H45.9v-2.1h2v-2.1H50v-2h2.1v2.1H50v2h55.9v-2h-2.1v-2.1h-2v-2.1h-2.1V119h4.1v-2h-2v-2.1h2.1v2.1h2v2h2.1v2.1h-4.1v2.1h2v2h2.1v2.1h1zm-35.4 4h8.7v-1.9h-8.7v1.9zm11.3 3.5h-14v6.8h14v-6.8zm-16.5-2v.6h19.1v-.6H68.4zm-14.2-11.7h2V119h-4.1v-2H50v2h-2.1v2.1h4.2v2.1h2.1v-2.1zm0-6.2h2v-2.1h-2.1v2.1h-2v2.1h2.1v-2.1zm4.1-4.1h2.1v-2.1h-4.2v-2.1h-2.1v2.1h-2v2.1h4.1v2h2.1v-2zm0-6.2h2.1v-2.1h-2.1v2.1l-2.1-.1v2.1h2.1v-2zm4.2-4.2h2v-2.1h-4.1v-2h-2.1v2h-2.1v2.1h4.2v2.1h2.1v-2.1zm0-6.2h2v-2.1h-2.1l.1 2.1h-2.1v2.1h2.1v-2.1zm4.1-4.1h2.1V88h-4.2v-2.1h-2.1V88h-2v2.1h4.1v2h2.1v-2zm0-6.2h2.1v-2.1h2v-2.1h2.1v-2.1h-4.1v-2h2v-2.1h-2.1v2.1h-2v2h-2.1v2.1h4.1v2.1h-2v2h-2.1v2.1h2.1v-2zm6.2-12.4h2.1v-2.1h2v-2.1h-4.1v-2.1h-2.1v2.1h-2.1v2.1h4.2v2.1l-2.1-.1v2.1h2.1v-2zm2.1-8.3h2v-2.1h-2.1v2h-2v2.1h2.1v-2zm4.1-2.1h-2.1V60l-4.2 2-1.2-.9.7-5.8-4-4.2.5-1.4 5.7-1.1 2.8-5.1h1.5l2.8 5.1 5.7 1.1.5 1.4-4 4.2.7 5.8-1.2.9-4.2-2v1.1zm-.7-3.4l4.3 2-.6-4.6.2-.7 3.2-3.4-4.6-.9-.6-.4-2.3-4.1-2.3 4.1-.6.4-4.5.9 3.2 3.4.2.7-.6 4.6 4.3-2h.7zm153.9 36.6c-.3-.4-2.8-3.7-2.5-6 .2-2.1 2.1-3.5 4.1-3.3 1 .1 1.9.6 2.5 1.4.6.8.9 1.7.8 2.7v.1c-.3 2.3-3.4 4.9-3.8 5.2-.2.2-.3.2-.5.2-.3 0-.4-.1-.6-.3zm-1.1-5.9c-.1 1.2 1 3.3 1.8 4.5 1-1 2.6-2.6 2.7-3.8V89c.1-.6-.1-1.2-.5-1.7s-.9-.8-1.5-.9h-.2c-1.1 0-2.1.9-2.3 2zm2.6-3.8c.6.1 1-.3 1.1-.8 0-.5-.4-1-.9-1.2-.6 0-1 .4-1.1.9 0 .6.4 1 .9 1.1zm9.7 30.7c.5-.2.7-.9.4-1.4-.3-.5-.9-.7-1.4-.4-.5.2-.6.9-.4 1.4s.9.7 1.4.4zm-3.5 5.3c-.2-1.1 0-2.1.6-3 .6-.9 1.5-1.5 2.6-1.7.3-.1.5-.1.8-.1 1.9 0 3.6 1.4 4 3.3.4 2.2-1 4.3-3.2 4.8-.3-.1-.6 0-.8 0-1.9 0-3.6-1.4-4-3.3zm1.4-.3c.3 1.4 1.6 2.4 3.1 2.1 1.4-.3 2.4-1.7 2.1-3.1-.3-1.2-1.4-2.1-2.6-2.1h-.5c-.7.1-1.3.5-1.7 1.1-.4.6-.5 1.3-.4 2zm-18.9-5.5c-.1-.2-.1-.4 0-.5.3-.7.9-1.3 1.6-1.5-.3-.7-.3-1.4-.1-2.2l2.7-6.4c.3-.7.9-1.3 1.6-1.5v-.1c-.3-.7-.3-1.4 0-2.1.2-.4.6-.5.9-.4l3.7 1.6c.2.1.3.2.4.4.1.2.1.4 0 .5-.2.7-.8 1.3-1.6 1.6.3.7.3 1.4.1 2.1l-1.3 3c0 .1-.1.3-.2.4l-.8 2c0 .2-.1.3-.2.5l-.2.5c-.3.8-.9 1.3-1.5 1.5v.1c.3.7.3 1.4 0 2.1-.2.4-.4.5-.7.5-.1 0-.2 0-.3-.1l-3.7-1.6c-.2-.1-.3-.2-.4-.4zm7.1-13c0 .1 0 .2.1.3.1.2.2.4.4.6h.2c.1 0 .2.1.3.2.4.1.8 0 1.1-.2l-2.1-.9zm-1.8 3.8l1.9 2.3.9-2.1c.3-.7 0-1.5-.7-1.7-.1-.1-.3-.1-.5-.1-.5 0-1 .3-1.2.8l-.4.8zm-1.1 2.4l1.9 2.3.4-.9-1.9-2.3-.4.9zm-.9 4.7c.1 0 .2.1.3.1.1 0 .2.1.3.2.6.1 1.2-.2 1.4-.8l.2-.5-1.9-2.3-.7 1.7c-.2.7-.1 1.3.4 1.6zm-1.5 1.6l2.1.9c0-.1 0-.2-.1-.3-.1-.3-.3-.5-.6-.6-.1 0-.1 0-.2-.1h-.1c-.4-.2-.8-.1-1.1.1zm32.6.6v-2.1h-2.1v2.1h2.1zm-4.2-6.2h-2.1v2.1h2.1v2h2.1v-2h4.2v-2.1h-2.1v-2.1h-2.1v2.1h-2.1zm-4.1-14.5v-2.1h-2.1v2.1h2.1zm2 2.1v2h-4.1v2.1h2.1v2.1h2v2.1h2.1v2h2.1v-2.1h-2.1v-2h-2v-2.1h4.1v-2.1h-2.1v-2h-2.1l.1-2.1h-2.1v2.1h2zm-6.1-8.3h-2.1v2.1h2v2h2.1v-2h4.2V88h-2.1v-2.1h-2.1V88h-2zm-.1-4.1v2h2.1v-2.1h-2v-2h-2.1v2.1h2zm-4.1-6.3h-2.1v2.1h2.1v2.1h2.1v-2.1h4.1v-2.1h-2v-2h-2.1v2h-2.1zm2.1-2v-2.1h-2.1v2.1h2.1zm-6.2-12.4v2h2v2.1H234v2.1h2.1v2.1h2v2h2.1v-2.1h-2v-2h4.1v-2.1h-2.1v-2.1h-2v-2.1h-2.1v-2H234v2.1h2.1zm27.9 64.1h1.1v2.1H238.7v1.9h4.5c.4 0 .7.3.7.7v2.1c0 .4-.4.7-.7.7h-1.8v7.5c0 .4-.4.7-.8.7h-15.4c-.4 0-.7-.3-.7-.7v-7.5h-1.8c-.4 0-.7-.3-.7-.7V132c0-.4.3-.7.7-.7h4.5v-1.9h-26.3v-2.1h2v-2.1h2.1v-2h2.1v2.1H205v2h55.9v-2h-2.1v-2.1h-2v-2.1h-2.1V119h4.1v-2h-2v-2.1h2.1v2.1h2v2h2.1v2.1h-4.1v2.1h2v2h2.1v2.1h1zm-35.4 4h8.7v-1.9h-8.7v1.9zm11.3 3.5h-14v6.8h14v-6.8zm-16.5-2v.6h19.1v-.6h-19.1zm-14.2-11.7h2V119h-4.1v-2H205v2h-2.1v2.1h4.2v2.1h2.1v-2.1zm0-6.2h2v-2.1h-2.1v2.1h-2v2.1h2.1v-2.1zm4.1-4.1h2.1v-2.1h-4.2v-2.1h-2.1v2.1h-2v2.1h4.1v2h2.1v-2zm0-6.2h2.1v-2.1h-2.1v2.1l-2.1-.1v2.1h2.1v-2zm4.2-4.2h2v-2.1h-4.1v-2h-2.1v2h-2.1v2.1h4.2v2.1h2.1v-2.1zm0-6.2h2v-2.1h-2.1l.1 2.1h-2.1v2.1h2.1v-2.1zm4.1-4.1h2.1V88h-4.2v-2.1h-2.1V88h-2v2.1h4.1v2h2.1v-2zm0-6.2h2.1v-2.1h2v-2.1h2.1v-2.1h-4.1v-2h2v-2.1h-2.1v2.1h-2v2h-2.1v2.1h4.1v2.1h-2v2h-2.1v2.1h2.1v-2zm6.2-12.4h2.1v-2.1h2v-2.1h-4.1v-2.1h-2.1v2.1h-2.1v2.1h4.2v2.1l-2.1-.1v2.1h2.1v-2zm2.1-8.3h2v-2.1h-2.1v2h-2v2.1h2.1v-2zm4.1-2.1h-2.1V60l-4.2 2-1.2-.9.7-5.8-4-4.2.5-1.4 5.7-1.1 2.8-5.1h1.5l2.8 5.1 5.7 1.1.5 1.4-4 4.2.7 5.8-1.2.9-4.2-2v1.1zm-.7-3.4l4.3 2-.6-4.6.2-.7 3.2-3.4-4.6-.9-.6-.4-2.3-4.1-2.3 4.1-.6.4-4.5.9 3.2 3.4.2.7-.6 4.6 4.3-2h.7z"/></svg>