<svg id="Layer_1" xmlns="http://www.w3.org/2000/svg" viewBox="0 0 310 155"><style>.st0{fill:#231f20}</style><path class="st0" d="M106.6 59.9h2v2h-2v-2zm2 0h2v-2h-2v2zm2-2h2v-2h-2v2zm2-2h2v-2h-2v2zm4-4h-2v2h2v-2zm-76.2 76.2h2v-2h-2v2zm2-2h2v-2h-2v2zm2-2h2v-2h-2v2zm2-2h2v-2h-2v2zm2-2h2v-2h-2v2zm58.2-2v2h2v-2h-2zm2 2v2h2v-2h-2zm2 2v2h2v-2h-2zm2 2v2h2v-2h-2zm2 4h2v-2h-2v2zM40.4 51.9v2h2v-2h-2zm2 2v2h2v-2h-2zm2 2v2h2v-2h-2zm2 2v2h2v-2h-2zm4 4v-2h-2v2h2zM115 74.5l1.9.7.7-1.9-1.9-.7-.7 1.9zm5.3-2.2l-1.9-.7-.7 1.9 1.9.7.7-1.9zm2.6-1.1l-1.9-.7-.7 1.9 1.9.7.7-1.9zm2.7-1.1l-1.9-.7-.7 1.9 1.9.7.7-1.9zm2.6-1.1l-1.9-.8-.8 1.9 1.9.8.8-1.9zm-99.4 42.1l1.9.7.7-1.9-1.9-.7-.7 1.9zm2.6-1.1l1.9.8.8-1.9-1.9-.8-.8 1.9zm2.7-1.2l1.9.7.7-1.9-1.9-.7-.7 1.9zm2.6-1.1l1.9.7.7-1.9-1.9-.7-.7 1.9zm5.2-2.2l-1.9-.7-.7 1.9 1.9.7.7-1.9zm54 21.8l-1.9-.7-.7 1.9 1.9.7.7-1.9zm1.1 2.6l-1.9-.7-.7 1.9 1.9.7.7-1.9zm1.1 2.7l-1.9-.7-.7 1.9 1.9.7.7-1.9zm1.1 2.6l-1.9-.8-.8 1.9 1.9.8.8-1.9zm-1.5 3.7l1.9.8.8-1.9-1.9-.8-.8 1.9zM59.3 41.1l-1.9-.8-.8 1.9 1.9.8.8-1.9zm-1.5 3.8l1.9.7.7-1.9-1.8-.7-.8 1.9zm3.7 1.5l-1.9-.7-.7 1.9 1.9.7.7-1.9zm1.1 2.6l-1.9-.8-.7 1.9 1.9.8.7-1.9zm1.1 2.6l-1.9-.8-.8 1.9 1.9.8.8-1.9zm51.7 52.9l.8 1.8 1.8-.8-.8-1.8-1.8.8zm2.6 1.1l.8 1.8 1.8-.8-.8-1.8-1.8.8zm4.6.3l-1.8.8.8 1.8 1.8-.8-.8-1.8zm.8 1.9l.8 1.8 1.8-.8-.8-1.8-1.8.8zm2.6.9l.8 1.8 1.8-.8-.8-1.8-1.8.8zM29.1 72l1.8-.8-.8-1.8-1.8.8.8 1.8zm1.9-.7l.8 1.8 1.8-.8-.8-1.8-1.8.8zm4.4.3l-1.8.8.8 1.8 1.8-.8-.8-1.8zm3.5 2.8l-.8-1.8-1.8.8.8 1.8 1.8-.8zm2.6 1.1l-.8-1.8-1.8.8.8 1.8 1.8-.8zM63.9 127l-1.8.8.8 1.8-1.8.8.8 1.8 1.8-.8-.8-1.8 1.8-.8-.8-1.8zm-2.1 5.3l-1.8.8.8 1.8-1.8.8.8 1.8 1.8-.8-.8-1.8 1.8-.8-.8-1.8zm-3.8 6.1l.8 1.8 1.8-.8-.8-1.8-1.8.8zm40.3-98.5l-1.8.8.8 1.8 1.8-.8-.8-1.8zm-1.1 2.6l-1.8.8.8 1.8-1.8.8.8 1.8 1.8-.8-.8-1.8 1.8-.8-.8-1.8zm-2.3 9.7l-.8-1.8 1.8-.8-.8-1.8-1.8.8.8 1.8-1.8.8.8 1.8 1.8-.8zM21.5 17.4v.8h.8v-.8h-.8zm.8 3.2h.8v-.8h1.6V19h-1.6v-.8h-.8v.8h-1.6v.8h1.6v.8zm-.8.8h.8v-.8h-.8v.8zm2.4 0v-.8h-.8v.8h.8zm0-4h-.8v.8h.8v-.8zm10.4 3.2V19h-.8v1.6h.8zm.8 1.6h.8v-5.6h-.8v1.6h-.8v.8h.8v3.2zM32.7 19h.8v-.8h-.8v-1.6h-.8v5.6h.8V19zm8.8 2.4h-3.2v-1.6h2.4V19h-2.4v-1.6h3.2v-.8h-4v5.6h4v-.8zm4.8 0v-.8h-.8v.8h.8zm.8.8v-.8h-.8v.8h.8zm0-3.2v-1.6h-.8V19h.8zm-3.2.8h.8v.8h.8v-.8h.8V19h-2.4v-1.6h2.4v-.8h-3.2v5.6h.8v-2.4zm4.8-3.2v5.6h.8v-2.4h.8v.8h.8v-.8h.8V19h-2.4v-1.6h2.4v-.8h-3.2zm4 5.6v-.8h-.8v.8h.8zm0-3.2v-1.6h-.8V19h.8zm-.8 2.4v-.8h-.8v.8h.8zm6.4-4.8h-.8v1.6h.8v-1.6zM55.9 19v-.8h-.8v.8h.8zm.8 3.2V19h-.8v3.2h.8zm.8-4h-.8v.8h.8v-.8zm-3.2-1.6v1.6h.8v-1.6h-.8zm11.2 4.8h.8v-4h-.8v4zm3.2-4.8h-2.4v.8h2.4v-.8zm.8 1.6v-.8h-.8v.8h.8zm-.8 4v-.8h-2.4v.8h2.4zm.8-1.6h-.8v.8h.8v-.8zm1.6-4v5.6h.8v-2.4h2.4v2.4h.8v-5.6h-.8V19h-2.4v-2.4h-.8zm5.6 0v5.6h.8v-2.4h.8v.8h.8v-.8h.8V19h-2.4v-1.6h2.4v-.8h-3.2zm4 5.6v-.8h-.8v.8h.8zm0-3.2v-1.6h-.8V19h.8zm-.8 2.4v-.8h-.8v.8h.8zm6.4-4v-.8h-4v.8h1.6v4h-1.6v.8h4v-.8h-1.6v-4h1.6zm5.6 4v-1.6h-.8v1.6h.8zm0-4.8h-3.2v.8h3.2v-.8zm-4 2.4h.8v-1.6h-.8V19zm0 3.2h3.2v-.8h-3.2v.8zm3.2-2.4V19h-2.4v.8h2.4zm2.4-2.4h1.6v4.8h.8v-4.8h1.6v-.8h-4v.8zm5.6-.8v5.6h.8V19h.8v-.8h-.8v-1.6h-.8zm3.2 5.6h.8v-5.6h-.8v1.6h-.8v.8h.8v3.2zm-.8-1.6V19h-.8v1.6h.8zm6.4-4h-2.4v.8h2.4v-.8zm-3.2 5.6h.8v-2.4h2.4v2.4h.8v-4.8h-.8V19h-2.4v-1.6h-.8v4.8zm9.6-.8v-1.6h-.8v1.6h.8zm0-4.8h-3.2v.8h3.2v-.8zm-4 5.6h3.2v-.8h-3.2v.8zm3.2-2.4V19h-2.4v.8h2.4zm-3.2-.8h.8v-1.6h-.8V19zm6.4-2.4h-.8v4h.8v-4zm-.8 5.6h.8v-.8h-.8v.8zm3.2-5.6h-.8v4h.8v-4zm-.8 5.6h.8v-.8h-.8v.8zm11.2-.8v-.8h-.8v.8h.8zm0-4h-.8v.8h.8v-.8zm-2.4 4h.8v-.8h-.8v.8zm.8-.8h.8v-.8h1.6V19h-1.6v-.8h-.8v.8h-1.6v.8h1.6v.8zm-.8-3.2v.8h.8v-.8h-.8zm-10.4 11.3h-1.4v1.4h1.4v-1.4zm-79.4 0h-1.4v1.4h1.4v-1.4zm36.9 1.4v-1.4h-1.4v1.4h1.4zm-2.9-1.4h-1.4v1.4h1.4v-1.4zm-42.5 0h-1.4v1.4h1.4v-1.4zm22.7 0h-1.4v1.4h1.4v-1.4zm-7.1 0v1.4h1.4v-1.4h-1.4zm4.3 0h-1.4v1.4h1.4v-1.4zm-17.8 1.4h.7v-1.4h-1.4v1.4h.7zm8.5 0h.7v-1.4h-1.4v1.4h.7zm-4.9-1.4h-1.4v1.4h1.4v-1.4zm8.5 0h-1.4v1.4H43v-1.4zm61.6 1.4h.7v-1.4h-1.4v1.4h.7zm-14.8 0h1.4v-1.4h-1.4v1.4zm-7.1-1.4h-1.4v1.4h1.4v-1.4zm17 0h-1.4v1.4h1.4v-1.4zm13.4 1.4h.7v-1.4h-1.4v1.4h.7zm-6.3-1.4v1.4h1.4v-1.4h-1.4zm-29.8 0h-1.4v1.4H77v-1.4zm8.5 1.4v-1.4h-1.4v1.4h1.4zm-19.8-1.4h-1.4v1.4h1.4v-1.4zm-5.7 0h-1.4v1.4H60v-1.4zm8.5 1.4v-1.4h-1.4v1.4h1.4zm-12.7-1.4v1.4h1.4v-1.4h-1.4zm7 0h-1.4v1.4h1.4v-1.4zm34 1.4v-1.4h-1.4v1.4h1.4zm22.7-1.4h-1.4v1.4h1.4v-1.4zm-8.5 0h-1.4v1.4h1.4v-1.4zm-31.2 0h-1.4v1.4h1.4v-1.4zm14.2 0h-1.4v1.4H94v-1.4zm31.2 0h-1.4v1.4h1.4v-1.4zm-24.1 1.4h1.4v-1.4h-1.4v1.4zm-46.8-1.4h-1.4v1.4h1.4v-1.4zm67.3 1.4h.7v-1.4h-1.4v1.4h.7zm-34 0h.7v-1.4h-1.4v1.4h.7zM62.8 10.4V9h-1.4v1.5c1.4 0 0 0 1.4-.1zm45.4 0V9h-1.4v1.5c1.4 0 0 0 1.4-.1zm-62.4 0V9h-1.4v1.5c1.4 0 0 0 1.4-.1zm22.7 0V9h-1.4v1.5c1.4 0 0 0 1.4-.1zm-8.5 0V9h-1.4v1.5c1.4 0 0 0 1.4-.1zm-8.5 0V9h-1.4v1.5c1.4 0 0 0 1.4-.1zm5.7 0V9h-1.4v1.5c1.4 0 0 0 1.4-.1zm-2.9 0V9h-1.4v1.5c1.4 0 0 0 1.4-.1zm-5.6 0V9h-1.4v1.5c1.4 0 0 0 1.4-.1zm68 0V9h-1.4v1.5c1.4 0 0 0 1.4-.1zm-51 0V9h-1.4v1.5c1.4 0 0 0 1.4-.1zm34 0V9h-1.4v1.5c1.4 0 0 0 1.4-.1zm-17 0V9h-1.4v1.5c1.4 0 0 0 1.4-.1zm5.6 0V9h-1.4v1.5c1.5 0 0 0 1.4-.1zm22.7 0V9h-1.4v1.5c1.4 0 0 0 1.4-.1zm-8.5 0V9h-1.4v1.5c1.4 0 0 0 1.4-.1zm19.8 0V9h-1.4v1.5c1.5 0 0 0 1.4-.1zm-2.8 0V9h-1.4v1.5c1.4 0 0 0 1.4-.1zm5.7 0V9h-1.4v1.5c1.4 0 0 0 1.4-.1zm-39.7 0V9h-1.4v1.5c1.4 0 0 0 1.4-.1zm5.7 0V9h-1.4v1.5c1.4 0 0 0 1.4-.1zm5.6 0V9h-1.4v1.5c1.5 0 0 0 1.4-.1zm-2.8 0V9h-1.4v1.5c1.4 0 0 0 1.4-.1zm11.3 0V9h-1.4v1.5c1.5 0 0 0 1.4-.1zm8.5 0V9h-1.4v1.5c1.5 0 0 0 1.4-.1zm-82.2 0V9h-1.4v1.5c1.5 0 0 0 1.4-.1zm45.4 0V9h-1.4v1.5c1.4 0 0 0 1.4-.1zm2.8 0V9h-1.4v1.5c1.4 0 0 0 1.4-.1zm-5.6 0V9h-1.4v1.5c1.4 0 0 0 1.4-.1zm-2.9 0V9h-1.4v1.5c1.4 0 0 0 1.4-.1zm-42.5 0V9h-1.4v1.5c1.4 0 0 0 1.4-.1zm5.7 0V9h-1.4v1.5c1.4 0 0 0 1.4-.1zm2.8 0V9h-1.4v1.5c1.4 0 0 0 1.4-.1zm5.7 0V9h-1.4v1.5c1.4 0 0 0 1.4-.1zm-2.9 0V9h-1.4v1.5c1.5 0 0 0 1.4-.1zm-29 121.5v2h2v-2h-2zm2 4h2v-2h-2v2zm4 2v-2h-2v2h2zm-2-4h2v-2h-2v2zm-4 4h2v-2h-2v2zm7.5 3h2v-2h-2v2zm2.1 2h2v-2h-2v2zm2 2.1h2v-2h-2v2zm0-4.1h2v-2h-2v2zm-4.1 4.1h2v-2h-2v2zm125.3-6.6v-2h-2v2h2zm-4-2h2v-2h-2v2zm-2-4v2h2v-2h-2zm0 6h2v-2h-2v2zm4-4h2v-2h-2v2zm-7.6 11.6h2v-2h-2v2zm0-2.1v-2h-2v2h2zm-4-4v2h2v-2h-2zm0 6.1h2v-2h-2v2zm4.1-4.1h2v-2h-2v2zm7.5-85.9h2v-2h-2v2zm-2-4v2h2v-2h-2zm-2-2v2h2v-2h-2zm0 6h2v-2h-2v2zm4-4.1h2v-2h-2v2zm-5.6-3v-2h-2v2h2zm-2-2v-2h-2v2h2zm-4-4v2h2v-2h-2zm0 6h2v-2h-2v2zm4.1-4h2v-2h-2v2zM11.1 49.4v2h2v-2h-2zm2 4h2v-2h-2v2zm4 2v-2h-2v2h2zm-2-4h2v-2h-2v2zm-2 2.1h-2v2h2v-2zm7.6-11.6h-2v2h2v-2zm2 4v-2h-2v2h2zm2 2v-2h-2v2h2zm0-6h-2v2h2v-2zM18.6 48h2v-2h-2v2zm76.2 48.1L104 115l-.9 1-18.9-9.3-.4-.6v-3.6l-5.5 25.1-.7-.1-.7.1-5.4-24.7v3.3l-.4.6-19 9.2-.9-.9 9.3-18.9.6-.4h3.6l-25.2-5.5.1-.7-.1-.7 24.8-5.5h-3.2l-.6-.4-9.3-18.9.9-.9L71 72.5l.4.6v3.6l5.5-25.2.7.1.7-.1 5.4 24.7V73l.4-.6 18.9-9.3.9.9-9.2 19-.6.4h-3.6l25.2 5.5-.1.7.1.7L91 95.7h3.2l.6.4zm14.1-5.8H79.3l5.3 5.3 24.3-5.3zm-38.3-6.7l-24.4 5.3h29.7l-5.3-5.3zm38.4 5.3l-24.3-5.3-5.4 5.3H109zM85.1 82h8.5l8.2-16.7-16.7 8.2V82zm-6.8-23.8v29.7l5.3-5.3-5.3-24.4zm-1.5 0l-5.3 24.2 5.3 5.3V58.2zM61.6 82h8.5v-8.5l-16.7-8.2L61.6 82zm-15.4 8.3l24.3 5.3 5.3-5.3H46.2zm23.9 6.8h-8.5l-8.2 16.7 16.7-8.2v-8.5zm6.7 23.8V91.4l-5.3 5.3 5.3 24.2zm6.8-24.2l-5.3-5.4V121l5.3-24.3zm18.2 17.1l-8.2-16.7h-8.5v8.5l16.7 8.2zM87 101.1h2v-2h-2v2zm4.1 4.1h2v-2h-2v2zm6 2h-2v2h2v-2zm-29-8.1h-2v2h2v-2zm-4 4.1h-2v2h2v-2zm-6 6h2v-2h-2v2zm28.9-29h2v-2h-2v2zm4.1-4h2v-2h-2v2zm6-6h-2v2h2v-2zm-31 10h2v-2h-2v2zm-4-4h2v-2h-2v2zm-4-4h2v-2h-2v2zm215.5-22.3h-2v2h2v-2zm-10 10h2v-2h-2v2zm2-2h2v-2h-2v2zm2-2h2v-2h-2v2zm4-4h-2v2h2v-2zm-195-14.3v10.1h2V35.6h-2v2zm0 94.4v10h2v-12h-2v2zm49.5-43.2h-8v2h12v-2h-4zm-94.4 0h-8v2h12.1v-2h-4.1zm199.9-53.2v10h2V33.7h-2v1.9zm0 98.4v10h2v-12h-2v2zm53.5-45.2h-10v2h12v-2h-2zm-99.3 0h-9.1v2h12.1v-2h-3zm9.6 39.3h2v-2h-2v2zm2-2h2v-2h-2v2zm2-2h2v-2h-2v2zm2-2h2v-2h-2v2zm-8 8.1h2v-2h-2v2zm78.2-.1h2v-2h-2v2zm-8-10v2h2v-2h-2zm2 2v2h2v-2h-2zm2 2v2h2v-2h-2zm2 2v2h2v-2h-2zm-74.2-74.2v2h2v-2h-2zm2 2v2h2v-2h-2zm2 2v2h2v-2h-2zm4 4v-2h-2v2h2zm-10-10v2h2v-2h-2zm79.3 23.5l1.9.7.7-1.9-1.9-.7-.7 1.9zm5.2-2.2l-1.9-.7-.7 1.9 1.9.7.7-1.9zm2.7-1.1l-1.9-.7-.7 1.9 1.9.7.7-1.9zm2.6-1.1l1.8.7.7-1.9-1.9-.7-.6 1.9-1.8-.8-.8 1.9 1.9.8.7-1.9zm-99.4 42.1l1.9.7.7-1.9-1.9-.7-.7 1.9zm2.6-1.1l1.9.8.8-1.9-1.9-.8-.8 1.9zm2.7-1.2l1.9.7.7-1.9-1.9-.7-.7 1.9zm5.2-2.2l-1.9-.7-.7 1.9 1.9.7.7-1.9zm-13 5.6l1.9.7.7-1.9-1.9-.7-.7 1.9zm70.7 17.7l-1.9-.7-.7 1.9 1.9.7.7-1.9zm1.1 2.6l-1.9-.7-.7 1.9 1.9.7.7-1.9zm1.1 2.7l-1.9-.8-.8 1.9 1.9.8.8-1.9zm1.1 2.6l-1.9-.8-.8 1.9 1.8.7-.7 1.8 1.9.7.7-1.9-1.8-.7.8-1.7zm-41-96.7l-1.9-.8-.8 1.9 1.9.8.8-1.9zm-1.5 3.8l1.9.7.7-1.9-1.9-.7-.7 1.9zm3.7 1.5l-1.9-.7-.7 1.9 1.9.7.7-1.9zm1.1 2.6l-1.9-.8-.8 1.9 1.9.8.8-1.9zm-5.1-8.6l.8-1.9-1.9-.8-.8 1.9 1.9.8zm73 68.6l-1.8.8.8 1.8 1.8-.8-.8-1.8zm-12.5-3.4l.8 1.8 1.8-.8-.8-1.8-1.8.8zm2.8 1.1l.8 1.8 1.8-.8-.8-1.8-1.8.8zm2.6 1.1l.8 1.8 1.8-.8-.8-1.8-1.8.8zm2.6.9l.8 1.8 1.8-.8-.8-1.8-1.8.8zM184.1 72l1.8-.8-.8-1.8-1.8.8.8 1.8zm1.9-.7l.8 1.8 1.8-.8-.8-1.8-1.8.8zm5.2 2.1l-.8-1.8-1.8.8.8 1.8 1.8-.8zm2.7 1l-.8-1.8-1.8.8.8 1.8 1.8-.8zm-10.6-4.1l-.8-1.8-1.8.8.8 1.8 1.8-.8zm28.6 70.7l.8 1.8 1.8-.8-.8-1.8-1.8.8zm4.2-10.6l.8 1.8 1.8-.8-.8-1.8-1.8.8zm.7 1.9l-1.8.8.8 1.8-1.8.8.8 1.8 1.8-.8-.8-1.8 1.8-.8-.8-1.8zm-3.8 6.1l.8 1.8 1.8-.8-.8-1.8-1.8.8zm40.3-98.5l-1.8.8.8 1.8 1.8-.8-.8-1.8zm-1.1 2.6l-1.8.8.8 1.8-1.8.8.8 1.8 1.8-.8-.8-1.8 1.8-.8-.8-1.8zm-3.9 6.1l.8 1.8 1.8-.8-.8-1.8-1.8.8zm6-11.4l-1.8.8.8 1.8 1.8-.8-.8-1.8zm-77.8-19.8v.8h.8v-.8h-.8zm2.4 0h-.8v.8h.8v-.8zm0 4v-.8h-.8v.8h.8zm-1.6-.8h.8v-.8h1.6V19h-1.6v-.8h-.8v.8h-1.6v.8h1.6v.8zm-.8.8h.8v-.8h-.8v.8zm13.6.8h.8v-5.6h-.8v1.6h-.8v.8h.8v3.2zm-.8-1.6V19h-.8v1.6h.8zm-1.6-1.6h.8v-.8h-.8v-1.6h-.8v5.6h.8V19zm8.8 2.4h-3.2v-1.6h2.4V19h-2.4v-1.6h3.2v-.8h-4v5.6h4v-.8zm5.6.8v-.8h-.8v.8h.8zm-.8-.8v-.8h-.8v.8h.8zm-2.4-1.6h.8v.8h.8v-.8h.8V19h-2.4v-1.6h2.4v-.8h-3.2v5.6h.8v-2.4zm3.2-.8v-1.6h-.8V19h.8zm5.6 3.2v-.8h-.8v.8h.8zm-4-5.6v5.6h.8v-2.4h.8v.8h.8v-.8h.8V19h-2.4v-1.6h2.4v-.8h-3.2zm3.2 4.8v-.8h-.8v.8h.8zm.8-2.4v-1.6h-.8V19h.8zm3.2 0v-.8h-.8v.8h.8zm.8 3.2V19h-.8v3.2h.8zm.8-4h-.8v.8h.8v-.8zm-3.2-1.6v1.6h.8v-1.6h-.8zm4 0h-.8v1.6h.8v-1.6zm10.4 5.6v-.8h-2.4v.8h2.4zm0-5.6h-2.4v.8h2.4v-.8zm.8 1.6v-.8h-.8v.8h.8zm0 2.4h-.8v.8h.8v-.8zm-4 .8h.8v-4h-.8v4zm5.6-4.8v5.6h.8v-2.4h2.4v2.4h.8v-5.6h-.8V19h-2.4v-2.4h-.8zm9.6 2.4v-1.6h-.8V19h.8zm0 3.2v-.8h-.8v.8h.8zm-4-5.6v5.6h.8v-2.4h.8v.8h.8v-.8h.8V19h-2.4v-1.6h2.4v-.8h-3.2zm3.2 4.8v-.8h-.8v.8h.8zm6.4-4v-.8h-4v.8h1.6v4h-1.6v.8h4v-.8h-1.6v-4h1.6zm1.6 1.6h.8v-1.6h-.8V19zm3.2.8V19h-2.4v.8h2.4zm.8-3.2h-3.2v.8h3.2v-.8zm-4 5.6h3.2v-.8h-3.2v.8zm4-.8v-1.6h-.8v1.6h.8zm1.6-4h1.6v4.8h.8v-4.8h1.6v-.8h-4v.8zm8 3.2V19h-.8v1.6h.8zm.8 1.6h.8v-5.6h-.8v1.6h-.8v.8h.8v3.2zm-3.2-5.6v5.6h.8V19h.8v-.8h-.8v-1.6h-.8zm8.8 0h-2.4v.8h2.4v-.8zm-3.2 5.6h.8v-2.4h2.4v2.4h.8v-4.8h-.8V19h-2.4v-1.6h-.8v4.8zm5.6-3.2h.8v-1.6h-.8V19zm0 3.2h3.2v-.8h-3.2v.8zm3.2-2.4V19h-2.4v.8h2.4zm.8 1.6v-1.6h-.8v1.6h.8zm0-4.8h-3.2v.8h3.2v-.8zm1.6 5.6h.8v-.8h-.8v.8zm.8-5.6h-.8v4h.8v-4zm1.6 5.6h.8v-.8h-.8v.8zm.8-5.6h-.8v4h.8v-4zm10.4.8h-.8v.8h.8v-.8zm0 4v-.8h-.8v.8h.8zm-1.6-.8h.8v-.8h1.6V19h-1.6v-.8h-.8v.8h-1.6v.8h1.6v.8zm-.8.8h.8v-.8h-.8v.8zm0-4v.8h.8v-.8h-.8zm-14 12.7h.7v-1.4h-1.4v1.4h.7zm-78.6-1.4h-1.4v1.4h1.4v-1.4zm2.8 0h-1.4v1.4h1.4v-1.4zm79.4 0h-1.4v1.4h1.4v-1.4zm-5.7 0h-1.4v1.4h1.4v-1.4zm-36.8 1.4v-1.4h-1.4v1.4h1.4zm2.8-1.4h-1.4v1.4h1.4v-1.4zm2.8 0h-1.4v1.4h1.4v-1.4zm-51 0h-1.4v1.4h1.4v-1.4zm65.2 0h-1.4v1.4h1.4v-1.4zm-11.3 0h-1.4v1.4h1.4v-1.4zm17 0h-1.4v1.4h1.4v-1.4zm1.4 1.4h1.4v-1.4h-1.4v1.4zM198 28.7h-1.4v1.4h1.4v-1.4zm63.8 1.4h1.4v-1.4h-1.4v1.4zm-2.2 0h.7v-1.4h-1.4v1.4h.7zm-7.8 0v-1.4h-1.4v1.4h1.4zm-9.2 0h.7v-1.4h-1.4v1.4h.7zm2.2 0h1.4v-1.4h-1.4v1.4zm-58.9 0h.7v-1.4h-1.4v1.4h.7zm54.6 0v-1.4h-1.4v1.4h1.4zm-41.1-1.4v1.4h1.4v-1.4h-1.4zm-4.3 1.4v-1.4h-1.4v1.4h1.4zm31.2-1.4h-1.4v1.4h1.4v-1.4zm50.3 1.4h.7v-1.4h-1.4v1.4h.7zm-58.8-1.4h-1.4v1.4h1.4v-1.4zm56.7 0h-1.4v1.4h1.4v-1.4zm-65.2 0h-1.4v1.4h1.4v-1.4zm2.9 0h-1.4v1.4h1.4v-1.4zm2.8 0h-1.4v1.4h1.4v-1.4zm-9.9 1.4h1.4v-1.4h-1.4v1.4zm18.4 0v-1.4h-1.4v1.4h1.4zm-19.8-1.4h-1.4v1.4h1.4v-1.4zm76.5 0h-1.4v1.4h1.4v-1.4zm-59.5 0h-1.4v1.4h1.4v-1.4zm51-18.3V9h-1.4v1.5c1.4 0 0 0 1.4-.1zm-5.7 0V9h-1.4v1.5c1.4 0 0 0 1.4-.1zm-11.3 0V9h-1.4v1.5c1.4 0 0 0 1.4-.1zm-2.9 0V9h-1.4v1.5c1.5 0 0 0 1.4-.1zm-2.8 0V9h-1.4v1.5c1.4 0 0 0 1.4-.1zm-2.8 0V9h-1.4v1.5c1.4 0 0 0 1.4-.1zm-56.7 0V9h-1.4v1.5c1.4 0 0 0 1.4-.1zm68 0V9h-1.4v1.5c1.4 0 0 0 1.4-.1zm-53.8 0V9h-1.4v1.5c1.4 0 0 0 1.4-.1zm56.6 0V9h-1.4v1.5c1.5 0 0 0 1.4-.1zm2.9 0V9h-1.4v1.5c1.4 0 0 0 1.4-.1zm-68.1 0V9h-1.4v1.5c1.5 0 0 0 1.4-.1zm85.1 0V9h-1.4v1.5c1.4 0 0 0 1.4-.1zm-70.9 0V9h-1.4v1.5c1.4 0 0 0 1.4-.1zm-2.8 0V9h-1.4v1.5c1.4 0 0 0 1.4-.1zm62.3 0V9h-1.4v1.5c1.5 0 0 0 1.4-.1zm-70.8 0V9h-1.4v1.5c1.4 0 0 0 1.4-.1zm-5.7 0V9h-1.4v1.5c1.4 0 0 0 1.4-.1zm-5.7 0V9h-1.4v1.5c1.5 0 0 0 1.4-.1zm42.6 0V9h-1.4v1.5c1.4 0 0 0 1.4-.1zm5.6 0V9h-1.4v1.5c1.4 0 0 0 1.4-.1zm-2.8 0V9h-1.4v1.5c1.4 0 0 0 1.4-.1zm42.5 0V9h-1.4v1.5c1.4 0 0 0 1.4-.1zm-59.5 0V9h-1.4v1.5c1.4 0 0 0 1.4-.1zm8.5 0V9h-1.4v1.5c1.4 0 0 0 1.4-.1zm-2.8 0V9h-1.4v1.5c1.4 0 0 0 1.4-.1zm-8.5 0V9h-1.4v1.5c1.4 0 0 0 1.4-.1zm-11.4 0V9h-1.4v1.5c1.4 0 0 0 1.4-.1zm25.5 0V9h-1.4v1.5c1.4 0 0 0 1.4-.1zm-8.5 0V9h-1.4v1.5c1.4 0 0 0 1.4-.1zm19.9 0V9h-1.4v1.5c1.4 0 0 0 1.4-.1zm2.8 0V9h-1.4v1.5c1.4 0 0 0 1.4-.1zm36.8 0V9h-1.4v1.5c1.5 0 0 0 1.4-.1zm-34 0V9h-1.4v1.5c1.5 0 0 0 1.4-.1zm-59.5 0V9h-1.4v1.5c1.4 0 0 0 1.4-.1zm-17.7 121.5v2h2v-2h-2zm2 4h2v-2h-2v2zm4 2v-2h-2v2h2zm-2-4h2v-2h-2v2zm-4 4h2v-2h-2v2zm7.5 3h2v-2h-2v2zm2.1 2h2v-2h-2v2zm2 2.1h2v-2h-2v2zm0-4.1h2v-2h-2v2zm-4.1 4.1h2v-2h-2v2zm125.3-6.6v-2h-2v2h2zm-4-2h2v-2h-2v2zm-2-4v2h2v-2h-2zm0 6h2v-2h-2v2zm4-4h2v-2h-2v2zm-7.6 11.6h2v-2h-2v2zm0-2.1v-2h-2v2h2zm-4-4v2h2v-2h-2zm0 6.1h2v-2h-2v2zm4.1-4.1h2v-2h-2v2zm7.5-85.9h2v-2h-2v2zm-2-4v2h2v-2h-2zm-2-2v2h2v-2h-2zm0 6h2v-2h-2v2zm4-6.1v2h2v-2h-2zm-5.6-1v-2h-2v2h2zm-2-2v-2h-2v2h2zm-4-4v2h2v-2h-2zm0 6h2v-2h-2v2zm4.1-4h2v-2h-2v2zm-123.3 4.5v2h2v-2h-2zm2 4h2v-2h-2v2zm4 2v-2h-2v2h2zm-2-4h2v-2h-2v2zm-2 2.1h-2v2h2v-2zm7.6-11.6h-2v2h2v-2zm2 4v-2h-2v2h2zm2 2v-2h-2v2h2zm0-6h-2v2h2v-2zm-6.1 6.1h2v-2h-2v2zm76.2 48.1L259 115l-.9 1-18.9-9.3-.4-.6v-3.6l-5.5 25.1-.7-.1-.7.1-5.4-24.7v3.3l-.4.6-19 9.2-.9-.9 9.3-18.9.6-.4h3.6l-25.2-5.5.1-.7-.1-.7 25.2-5.5h-3.6l-.6-.4-9.3-18.9.9-.9 18.9 9.3.4.6v3.6l5.5-25.2.7.1.7-.1 5.4 24.7V73l.4-.6 18.9-9.3.9.9-9.2 19-.6.4h-3.6l25.2 5.5-.1.7.1.7-24.7 5.4h3.2l.6.4zm14.1-5.8h-29.6l2.5 2.5 2.8 2.8 24.3-5.3zm-38.3-6.7l-24.4 5.3h29.7l-5.3-5.3zm38.4 5.3l-24.3-5.3-5.4 5.3H264zM240.1 82h8.5l8.2-16.7-16.7 8.2V82zm-6.8-23.8v29.7l5.3-5.3-5.3-24.4zm-1.5 0l-5.3 24.3 5.3 5.3V58.2zM216.6 82h8.5v-8.5l-16.7-8.2 8.2 16.7zm-15.4 8.3l24.3 5.3 5.3-5.3h-29.6zm23.9 6.8h-8.5l-8.2 16.7 16.7-8.2v-8.5zm6.7 23.8V91.4l-5.3 5.3 5.3 24.2zm6.8-24.2l-5.3-5.4V121l5.3-24.3zm18.2 17.1l-8.2-16.7h-8.5v8.5l16.7 8.2zM244 103.1h2v-2h-2v2zm4.1 4.1h2v-2h-2v2zm-27-6.1h-2v2h2v-2zm-6 6.1h2v-2h-2v2zm28.9-29h2v-2h-2v2zm6.1-6h-2v2h2v-2zm-31 6h2v-2h-2v2zm-4-4h2v-2h-2v2z"/></svg>