<svg id="Layer_1" xmlns="http://www.w3.org/2000/svg" viewBox="0 0 310 155" width="310" height="155"><style>.st0{fill:#231f20}</style><path class="st0" d="M131.3 132.2h2v2.1h-2v2.1h-2.1v-2.1h2l.1-2.1-2.1.1v2h-2.1v-2.1h2.1v-2h2.1v2zm13.8-112.8H143v2.1h2.1v-2.1zm-2.1 6.3h2.1v-2.1H143v2.1zm2.1-2.1h2.1v-2.1h-2.1v2.1zm-4.2-2.1v2.1h2.1v-2.1h-2.1zM11.6 23.6h2.1v-2.1h-2.1v2.1zm-2-2.1h2v-2.1H9.5l.1 2.1H7.5v2.1h2v2.1h2.1v-2.1h-2v-2.1zm15.9 108.7h-2.1v2h-2.1v2.1h2.1v-2h2.1v2h2.1v-2.1h-2.1v-2zm-2.1 6.2h2.1v-2.1h-2.1v2.1zM133.8 31H21.2l-.7-1 2.9-7.9-2.9-7.9.7-1h112.5l.7 1-2.9 7.9 2.9 7.9-.6 1zm-1.1-1.4l-2.6-7.2v-.5l2.6-7.2H22.2l2.6 7.2v.5l-2.6 7.2h110.5zM16.2 141.7h1.4v-1.4h-1.4v1.4zm15 0h1.4v-1.4h-1.4v1.4zm-12 0h1.4v-1.4h-1.4v1.4zm3 0h1.4v-1.4h-1.4v1.4zm3 0h1.4v-1.4h-1.4v1.4zm3 0h1.4v-1.4h-1.4v1.4zm93.9 0h1.4v-1.4h-1.4v1.4zm11.3 0h1.4v-1.4h-1.4v1.4zm2.9 0h1.4v-1.4h-1.4v1.4zm-17 0h1.4v-1.4h-1.4v1.4zm5.6 0h1.4v-1.4h-1.4v1.4zm5.7 0h1.4v-1.4h-1.4v1.4zm-2.8 0h1.4v-1.4h-1.4v1.4zm11.3 0h1.4v-1.4h-1.4v1.4zm1.8-127.4h-1.4v1.4h1.4v-1.4zm7.1 1.4h1.4v-1.4H148v1.4zm-4.3-1.4h-1.4v1.4h1.4v-1.4zm2.8 0h-1.4v1.4h1.4v-1.4zm-136.6 0H8.5v1.4h1.4v-1.4zm2.8 0h-1.4v1.4h1.4v-1.4zm-7.1 1.4H7v-1.4H5.6v1.4zm8.5 0h1.4v-1.4h-1.4v1.4zM142.3 30h1.4v-1.4h-1.4V30zm-2.8 0h1.4v-1.4h-1.4V30zm8.5 0h1.4v-1.4H148V30zm-2.9 0h1.4v-1.4h-1.4V30zM5.6 30H7v-1.4H5.6V30zm5.7 0h1.4v-1.4h-1.4V30zm-2.8 0h1.4v-1.4H8.5V30zm5.6 0h1.4v-1.4h-1.4V30zm24.2-7.6h-2.4V20h-.8v5.6h.8v-2.4h2.4v2.4h.8V20h-.8v2.4zm6-2.4h-2.4v.8h2.4V20zm0 2.4h-2.4v-1.6h-.8v4.8h.8v-2.4h2.4v2.4h.8v-4.8h-.8v1.6zm3.6-1.6h2.4V20h-3.2v5.6h.8v-2.4h2.4v-.8h-2.4v-1.6zm2.4 1.6h.8v-1.6h-.8v1.6zm3.6-1.6h2.4V20h-3.2v5.6h.8v-2.4h2.4v-.8h-2.4v-1.6zm2.4 1.6h.8v-1.6h-.8v1.6zm6-.8h.8V20h-.8v1.6zm-.8.8h.8v-.8h-.8v.8zm-1.6-.8v.8h.8v-.8h-.8zm-.8-1.6v1.6h.8V20h-.8zm1.6 5.6h.8v-3.2h-.8v3.2zm12-3.2v.8h.8v-.8h-.8zm1.6.8h-.8v.8h.8v1.6h.8V20h-.8v3.2zm-2.4-1.6V20h-.8v5.6h.8v-3.2h.8v-.8h-.8zm5.2 4h4v-.8h-3.2v-1.6h2.4v-.8h-2.4v-1.6h3.2V20h-4v5.6zm9.2-.8h.8V20h-.8v4.8zM83.1 20v4.8h.8V20h-.8zm1.6 1.6v3.2h.8v-3.2h-.8zm.8 4h.8v-.8h-.8v.8zm-1.6 0h.8v-.8h-.8v.8zm12-4v.8h.8v-.8h-.8zm1.6.8h.8v-.8h-.8v.8zm.8-.8h.8V20h-.8v1.6zm-1.6 4h.8v-3.2h-.8v3.2zM95.1 20v1.6h.8V20h-.8zm6 5.6h4v-.8h-3.2v-1.6h2.4v-.8h-2.4v-1.6h3.2V20h-4v5.6zm9.2-5.6h-2.4v.8h2.4V20zm0 2.4h-2.4v-1.6h-.8v4.8h.8v-2.4h2.4v2.4h.8v-4.8h-.8v1.6zm3.6-1.6h2.4V20h-3.2v5.6h.8v-2.4h.8v.8h.8v-.8h.8v-.8h-2.4v-1.6zm2.4 4V24h-.8v.8h.8zm0-2.4h.8v-1.6h-.8v1.6zm.8 3.2v-.8h-.8v.8h.8zm2 0h.8v-.8h-.8v.8zm0-1.6h.8v-4h-.8v4zm20.7 42.8h-1.4v1.4h1.4v-1.4zm0 39.7h-1.4v1.4h1.4v-1.4zm0-34h-1.4v1.4h1.4v-1.4zm0 31.1h-1.4v1.4h1.4v-1.4zm0-5.6h-1.4v1.4h1.4V98zm0-28.4h-1.4V71h1.4v-1.4zm0 31.2h-1.4v1.4h1.4v-1.4zm0-25.5h-1.4v1.4h1.4v-1.4zm0 19.8h-1.4v1.4h1.4v-1.4zm0-11.3h-1.4v1.4h1.4v-1.4zm0-5.7h-1.4v1.4h1.4v-1.4zm0 2.9h-1.4v1.4h1.4V81zm0 11.3h-1.4v1.4h1.4v-1.4zm0-2.8h-1.4v1.4h1.4v-1.4zm0-2.9h-1.4V88h1.4v-1.4zm4.5 28.7h1.4V59.2h-1.4v56.1zm-127.6-36h.7v-1.4H16v1.4h.7zm0-2.8h.7v-1.4H16v1.4h.7zm0 25.5h.7v-1.4H16v1.4h.7zm0-28.3h.7v-1.4H16v1.4h.7zm0 11.3h.7v-1.4H16V85h.7zm0-17h.7v-1.4H16V68h.7zm0 2.8h.7v-1.4H16v1.4h.7zm0 11.4h.7v-1.4H16v1.4h.7zm0 17h.7v-1.4H16v1.4h.7zm0 5.6h.7v-1.4H16v1.4h.7zm0-8.5h.7v-1.4H16v1.4h.7zm0 11.4h.7v-1.4H16v1.4h.7zm0-14.2h.7v-1.4H16v1.4h.7zm0-2.8h.7v-1.4H16v1.4h.7zm0-2.9h.7v-1.4H16v1.4h.7zm-6.3 27.5h1.4V59.2h-1.4v56.1zm13.2-16.5V75.6h-1.4v23.2h1.4zm109 0h1.4V75.6h-1.4v23.2zM40.3 83.4v2.7H43v-2.7h-2.7zm54.2 0h2.7v-2.7h-2.7v2.7zm-8.1 8.1h-2.7v2.7h8.2v-2.7h-2.8v-2.7h5.4v-5.4h-2.7v2.7h-5.4v5.4zm8.2 5.5h2.6v5.4h-5.3v-2.7h-5.4v2.7h-2.7v2.7h-2.7v2.7h-2.7v10.9h2.7v8.1h-2.7v-8h-2.7v-11h-2.8v19h-2.7v-4.4-14.6h-2.7v2.7h-2.7v2.7h-2.7v2.7h-2.7v-2.7h-2.8v2.7h-2.7v10.9h-2.7v-13.6h2.7v-10.8h-2.7v2.7h-2.7V126.8h-2.7v-5.4-19h2.7v-2.7h-2.7v-5.5H43v-8.1h5.5v-2.7H62v-2.7h5.4V78h2.7v-2.7h2.7v-2.8h-5.4v-2.7h5.4v-5.4h-2.7v-2.7h2.7V59h2.7v2.7h2.7v2.7h-2.7v5.4h2.7v2.7h-2.7v2.8h2.7v5.4h2.7v5.4h-5.4v-2.7h-2.7v2.7h-2.7V97H91.9v-2.8h2.7V97zm-35.4 8.1h-2.6v2.7h2.6v-2.7zm0-5.4h-2.6v2.7h2.6v-2.7zm8.2-5.5h-8.1V97h8.1v-2.8zm-10.8 24.5v8.1h2.7v-10.9h-2.7v2.8zm27.1-35.3v2.7h2.7v-5.4h2.7V78h-2.7v-2.7h-2.7V78h-2.8v2.7h2.8v2.7zm-2.8-16.3h-2.7v2.7h2.7v-2.7zm2.7-2.7h-2.7v2.7h2.7v-2.7zm-16.2 0v-2.7h-2.7v8.1h2.7v-5.4zm2.7-5.4h-2.7v2.7h2.7V59zM62 59v2.7h2.7V59H62zm52.7 46.1h2.8v-2.7h-2.8v2.7zm-11.2 19h2.8v-2.7h-2.8v2.7zm16.8-5.4h-2.8v-2.8h-2.8v-2.7h-2.8v-2.7h2.8v2.7h5.6v-2.7h-2.8v-2.7h-2.8v-2.6h-2.8v-2.8h2.8v-2.7h-2.8v-8.2h-2.8v8.2h-2.9v2.7h2.9v5.4h-8.5v5.4h2.8v-2.7h5.7v2.7h-2.9v2.7h2.9v2.8h-2.8V116h-2.8v2.7h2.7v2.7h2.9v5.4h2.8v-8.2h2.8v2.8h5.6v-2.7zm-19.7 0h-2.8v2.7h5.6v-2.7h-2.8zM40.8 46.5h-2.1v2.1h2.1v-2.1zm2 2.1h-2v2.1h2.1v-2.1h2v-2.1h-2v-2.1h-2.1v2.1h2v2.1zm-10 5.9h2v-2.1h-2.1l.1 2.1h-2.1v2.1h2v2.1h2.1v-2.1h-2v-2.1zm2 2.1h2.1v-2.1h-2.1v2.1zm77.5-5.9v-2.1h2v-2.1h-2v-2.1h-2.1v2.1h2v2.1h-2v2.1h2.1zm-4.2-4.2v2.1h2.1v-2.1h-2.1zm12.2 12.2v-2.1h2v-2.1h-2v-2.1h-2.1v2.1h2v2.1h-2v2.1h2.1zm-4.2-4.2v2.1h2.1v-2.1h-2.1zm170.2 75.7h-2.1v2h-2.1v2.1h2.1v-2h2v2h-2v2.1h2.1v-2.1h2v-2.1h-2v-2zm13.8-110.8H298v2.1h2.1v-2.1zm-2.1 6.3h2.1v-2.1H298v2.1zm2.1-2.1h2.1v-2.1h-2.1v2.1zm-4.2-2.1v2.1h2.1v-2.1h-2.1zm-129.3 2.1h2.1v-2.1h-2.1v2.1zm-2-2.1h2v-2.1h-2.1v2.1h-2v2.1h2v2.1h2.1v-2.1h-2v-2.1zm15.9 108.7h-2.1v2h-2.1v2.1h2.1v-2h2.1v2h2.1v-2.1h-2.1v-2zm-2.1 6.2h2.1v-2.1h-2.1v2.1zM288.8 31H176.2l-.7-1 2.9-7.9-2.9-7.9.7-1h112.5l.7 1-2.9 7.9 2.9 7.9-.6 1zm-1.1-1.4l-2.6-7.2v-.5l2.6-7.2H177.2l2.6 7.2v.5l-2.6 7.2h110.5zM183.2 141.7h1.4v-1.4h-1.4v1.4zm3 0h1.4v-1.4h-1.4v1.4zm-15 0h1.4v-1.4h-1.4v1.4zm6 0h1.4v-1.4h-1.4v1.4zm-3 0h1.4v-1.4h-1.4v1.4zm6 0h1.4v-1.4h-1.4v1.4zm94.1 0h1.4v-1.4h-1.4v1.4zm8.5 0h1.4v-1.4h-1.4v1.4zm2.8 0h1.4v-1.4h-1.4v1.4zm-8.5 0h1.4v-1.4h-1.4v1.4zm11.3 0h1.4v-1.4h-1.4v1.4zm-8.5 0h1.4v-1.4h-1.4v1.4zm11.4 0h1.4v-1.4h-1.4v1.4zm2.8 0h1.4v-1.4h-1.4v1.4zm7.4-127.4h-1.4v1.4h1.4v-1.4zm-2.8 0h-1.4v1.4h1.4v-1.4zm4.3 0v1.4h1.4v-1.4H303zm-7.1 0h-1.4v1.4h1.4v-1.4zm-126.8 1.4h1.4v-1.4h-1.4v1.4zm-8.5 0h1.4v-1.4h-1.4v1.4zm4.3-1.4h-1.4v1.4h1.4v-1.4zm2.8 0h-1.4v1.4h1.4v-1.4zM297.3 30h1.4v-1.4h-1.4V30zm-2.8 0h1.4v-1.4h-1.4V30zm5.6 0h1.4v-1.4h-1.4V30zm2.9 0h1.4v-1.4H303V30zm-139.5 0h1.4v-1.4h-1.4V30zm2.8 0h1.4v-1.4h-1.4V30zm2.8 0h1.4v-1.4h-1.4V30zm-8.5 0h1.4v-1.4h-1.4V30zm32.7-7.6h-2.4V20h-.8v5.6h.8v-2.4h2.4v2.4h.8V20h-.8v2.4zm6 0h-2.4v-1.6h-.8v4.8h.8v-2.4h2.4v2.4h.8v-4.8h-.8v1.6zm0-2.4h-2.4v.8h2.4V20zm6 2.4h.8v-1.6h-.8v1.6zm-2.4-1.6h2.4V20h-3.2v5.6h.8v-2.4h2.4v-.8h-2.4v-1.6zm8.4 1.6h.8v-1.6h-.8v1.6zm-2.4-1.6h2.4V20h-3.2v5.6h.8v-2.4h2.4v-.8h-2.4v-1.6zm5.2-.8v1.6h.8V20h-.8zm3.2 1.6h.8V20h-.8v1.6zm-2.4 0v.8h.8v-.8h-.8zm1.6.8h.8v-.8h-.8v.8zm-.8 3.2h.8v-3.2h-.8v3.2zm12-3.2v.8h.8v-.8h-.8zm1.6.8h-.8v.8h.8v1.6h.8V20h-.8v3.2zm-2.4-1.6V20h-.8v5.6h.8v-3.2h.8v-.8h-.8zm5.2 4h4v-.8h-3.2v-1.6h2.4v-.8h-2.4v-1.6h3.2V20h-4v5.6zm9.2-.8h.8V20h-.8v4.8zm-1.6-3.2v3.2h.8v-3.2h-.8zm-1.6-1.6v4.8h.8V20h-.8zm2.4 5.6h.8v-.8h-.8v.8zm-1.6 0h.8v-.8h-.8v.8zm12.8 0h.8v-3.2h-.8v3.2zm.8-3.2h.8v-.8h-.8v.8zm-1.6-.8v.8h.8v-.8h-.8zm2.4 0h.8V20h-.8v1.6zm-3.2-1.6v1.6h.8V20h-.8zm6 5.6h4v-.8h-3.2v-1.6h2.4v-.8h-2.4v-1.6h3.2V20h-4v5.6zm9.2-5.6h-2.4v.8h2.4V20zm0 2.4h-2.4v-1.6h-.8v4.8h.8v-2.4h2.4v2.4h.8v-4.8h-.8v1.6zm6-1.6h.8v1.6h-.8v.8h-.8v.8h-.8v-.8h-.8v2.4h-.8V20h3.2v.8zm0 0h-2.4v1.6h2.4v-1.6zm0 4V24h-.8v.8h.8zm.8.8v-.8h-.8v.8h.8zm2-1.6h.8v-4h-.8v4zm0 1.6h.8v-.8h-.8v.8zm20.7 66.7h-1.4v1.4h1.4v-1.4zm0 11.3h-1.4v1.4h1.4v-1.4zm0-14.1h-1.4v1.4h1.4v-1.4zm0 8.5h-1.4v1.4h1.4V98zm0 2.8h-1.4v1.4h1.4v-1.4zm0-31.2h-1.4V71h1.4v-1.4zm0 25.5h-1.4v1.4h1.4v-1.4zm0-17h-1.4v1.4h1.4v-1.4zm0 5.7h-1.4v1.4h1.4v-1.4zm0-2.8h-1.4v1.4h1.4V81zm0 5.6h-1.4V88h1.4v-1.4zm0-11.3h-1.4v1.4h1.4v-1.4zm0-2.8h-1.4v1.4h1.4v-1.4zm0 34h-1.4v1.4h1.4v-1.4zm0-39.7h-1.4v1.4h1.4v-1.4zm4.5 48.5h1.4V59.2h-1.4v56.1zM171.7 93.5h.7v-1.4H171v1.4h.7zm0-2.8h.7v-1.4H171v1.4h.7zm0-2.9h.7v-1.4H171v1.4h.7zm0-5.6h.7v-1.4H171v1.4h.7zm0 2.8h.7v-1.4H171V85h.7zm0 17h.7v-1.4H171v1.4h.7zm0-5.7h.7v-1.4H171v1.4h.7zm0 8.5h.7v-1.4H171v1.4h.7zm0 2.9h.7v-1.4H171v1.4h.7zm0-8.5h.7v-1.4H171v1.4h.7zm0-19.9h.7v-1.4H171v1.4h.7zm0-2.8h.7v-1.4H171v1.4h.7zm0-8.5h.7v-1.4H171V68h.7zm0 2.8h.7v-1.4H171v1.4h.7zm0 2.9h.7v-1.4H171v1.4h.7zm-6.3 41.6h1.4V59.2h-1.4v56.1zm13.2-16.5V75.6h-1.4v23.2h1.4zm109 0h1.4V75.6h-1.4v23.2zm-43.5-15.4v-2.7h-2.7V78h-2.7v2.7h-2.8v2.7h2.8v5.4h2.7v-5.4h2.7zm2.7 2.7h2.7v5.4h-5.4v2.8h2.8V97h2.7v2.7h2.6v5.4h-5.3v-2.7h-2.7v-2.7h2.7V97h-2.7v2.7h-2.7v5.4h-5.4v2.7h-2.7v10.8h2.7v8.2h-2.7v-8.2h-2.7v-10.8h-2.8v19h-2.7v-4.4-14.6h-2.7v2.7h-2.7v2.7h-2.7v2.7h-2.7v-2.7h-2.8v-5.4h2.6v-2.7h-5.3v8.1h2.7v2.7h-2.7v10.9h-2.7v-5.4-19h-2.7v24.4h-2.7v-6.1-21H198v-5.5h-2.7V83.4h2.7v2.7h2.8v-2.7h13.4v-2.7h5.5V78h5.4v-2.8h-5.4v-2.7h5.4v-5.4h-2.7v-2.7h2.7v-2.7h2.7v2.7h2.7v2.7h-2.7v5.4h2.7v2.7h-2.7V78h2.7v5.4h2.7v5.4h-5.4v-2.7h-5.4v5.4h2.7V97h16.3v-2.8h-2.7v-2.7h2.7v-2.7h5.4v-2.7zm-24.4 8.1h-10.8v5.5h-2.7v2.7h5.4-.1V97h8.2v-2.8zm27.1-8.1h2.7v-2.7h-2.7v2.7zm-37.9 32.5v8.2h2.7v-10.9h-2.7v2.7zm21.6-48.8h-2.7v2.7h2.7v-2.7zm2.7-2.7h-2.7v2.7h2.7v-2.7zm-16.2-2.7H217v8.1h2.7V64.4zm2.7-2.7h-2.7v2.7h2.7v-2.7zm-5.5 2.7v-2.7h-2.7v2.7h2.7zm52.8 40.7h2.8v-2.7h-2.8v2.7zm-11.2 19h2.8v-2.7h-2.8v2.7zm16.8-2.7v-2.7h-2.8v-2.8h-2.8v-2.7h-2.8v-2.7h2.8v2.7h5.6v-2.7h-2.8v-2.7h-2.8v-2.6h-2.8v-2.8h2.8v-2.7h-2.8v-8.2h-2.8v8.2h-2.9v2.7h2.9v5.4h-8.5v5.4h2.8v-2.7h5.7v2.7h-2.9v2.7h2.9v2.8h-2.8V116h-2.8v2.7h2.7v2.7h2.9v5.4h2.8v-8.2h2.8v2.8h5.6zm-22.5 0h5.6v-2.7h-5.6v2.7zm-57-74.9h-2.1v2.1h2.1v-2.1zm2 2.1h-2v2.1h2.1v-2.1h2v-2.1h-2v-2.1h-2.1v2.1h2v2.1zm-10 5.9h2v-2.1h-2.1l.1 2.1h-2.1v2.1h2v2.1h2.1v-2.1h-2v-2.1zm2 2.1h2.1v-2.1h-2.1v2.1zm77.5-5.9v-2.1h2v-2.1h-2v-2.1h-2.1v2.1h2v2.1h-2v2.1h2.1zm-4.2-4.2v2.1h2.1v-2.1h-2.1zm12.2 12.2v-2.1h2v-2.1h-2v-2.1h-2.1v2.1h2v2.1h-2v2.1h2.1zm-4.2-4.2v2.1h2.1v-2.1h-2.1z"/></svg>