<svg id="Layer_1" xmlns="http://www.w3.org/2000/svg" viewBox="0 0 310 155" width="310" height="155"><style>.st0{fill:#231f20}</style><path class="st0" d="M138.3 96.7h1.4v1.4h-1.4v-1.4zm-2.8 1.4h1.4v-1.4h-1.4v1.4zm-7 0v-1.4h-1.4v1.4h1.4zm2.8 0v-1.4h-1.4v1.4h1.4zm2.8 0v-1.4h-1.4v1.4h1.4zM141 91h-15.2v1.4H141V91zM21.6 98.1v-1.4h-1.4v1.4h1.4zm2.8 0v-1.4H23v1.4h1.4zm-7 0h1.4v-1.4h-1.4v1.4zm9.8 0v-1.4h-1.4v1.4h1.4zm-12.6 0H16v-1.4h-1.4v1.4zM28.5 91H13.3v1.4h15.2V91zM31 17.2h-.8v2.4h-2.4v-2.4H27v5.6h.8v-2.4h2.4v2.4h.8v-5.6zm5.2 0h-2.4v.8h2.4v-.8zM33 22.8h.8v-2.4h2.4v2.4h.8V18h-.8v1.6h-2.4V18H33v4.8zm6.8-4.8h2.4v-.8H39v5.6h.8v-2.4h2.4v-.8h-2.4V18zm3.2 0h-.8v1.6h.8V18zm6 1.6V18h-.8v1.6h.8zm-3.2.8h2.4v-.8h-2.4V18h2.4v-.8H45v5.6h.8v-2.4zm6-3.2H51v1.6h.8v-1.6zm3.2 0h-.8v1.6h.8v-1.6zm-2.4 2.4v-.8h-.8v.8h.8zm1.6-.8h-.8v.8h.8v-.8zm-.8 4v-3.2h-.8v3.2h.8zm10.4-5.6H63v4h.8v-4zm3.2 0h-.8v4h.8v-4zm-.8 4h-.8v.8h.8v-.8zm-.8 1.6V22h-.8v.8h.8zm-.8-.8v-.8h-.8v.8h.8zm5.2-2.4V18H69v4.8h.8v-2.4h2.4v2.4h.8V18h-.8v1.6h-2.4zm0-2.4v.8h2.4v-.8h-2.4zm6 0H75v5.6h4V22h-3.2v-4.8zm5.2 5.6h4V22h-3.2v-1.6h2.4v-.8h-2.4V18H85v-.8h-4v5.6zm9.2-1.6v1.6h.8v-5.6h-.8v3.2h-.8v.8h.8zm-3.2-4v5.6h.8v-3.2h.8v.8h.8v-.8h-.8v-.8h-.8v-1.6H87zm10 0h-4v.8h1.6v4.8h.8V18H97v-.8zm6 4.8h-1.6v-4h1.6v-.8h-4v.8h1.6v4H99v.8h4V22zm5.2-.8v1.6h.8v-5.6h-.8v3.2h-.8v.8h.8zm-2.4-1.6h.8v-.8h-.8v-1.6h-.8v5.6h.8v-3.2zm1.6.8v-.8h-.8v.8h.8zM115 22h-3.2v-1.6h2.4v-.8h-2.4V18h3.2v-.8h-4v5.6h4V22zm2.8-2.4h-.8v.8h.8v-.8zm.8-2.4H117v.8h.8v1.6h.8v-2.4zm2 .8v1.6h.8V18h-.8zm3.2 2.4v-.8h-2.4v.8h2.4zm.8-3.2h-3.2v.8h3.2v-.8zm0 4.8v-1.6h-.8V22h.8zm-4 .8h3.2V22h-3.2v.8zm6-1.6h.8v-4h-.8v4zm0 1.6h.8V22h-.8v.8zm-89.4 115h1.4v-1.4h-1.4v1.4zm-2.8 0h1.4v-1.4h-1.4v1.4zm-2.9 0H33v-1.4h-1.5v1.4zm8.5 0h1.4v-1.4H40v1.4zm-11.3 0h1.4v-1.4h-1.4v1.4zm-5.7 0h1.4v-1.4H23v1.4zm-2.8 0h1.4v-1.4h-1.4v1.4zm5.7 0h1.4v-1.4h-1.4v1.4zm93.5 0h1.4v-1.4h-1.4v1.4zm-2.9 0h1.4v-1.4h-1.4v1.4zm5.7 0h1.4v-1.4h-1.4v1.4zm-8.5 0h1.4v-1.4h-1.4v1.4zm17 0h1.4v-1.4h-1.4v1.4zm-5.7 0h1.4v-1.4H125v1.4zm2.9 0h1.4v-1.4h-1.4v1.4zm5.6 0h1.4v-1.4h-1.4v1.4zm9.3 3.1h2.1v-2.1h-2.1v2.1zm2.1-6.2h-2.1v2h-2.1v2.1h2.1v-2h2.1v2h2.1v-2.1h-2.1v-2zm-134.1 6.2h2.1v-2.1h-2.1v2.1zm2.1-6.2h-2.1v2H8.7v2.1h2.1v-2h2.1v2H15v-2.1h-2.1v-2zm120.1-6l-2.9 2.9-2.9-2.9-2.9 2.9-1.8-1.9-1-1-2.9 2.9-2.9-2.9-1 1 3.9 3.9 2.9-2.9 2.8 2.9 2.9-2.9 2.9 2.9 3.9-3.9-1-1zm-93.5 0l-2.9 2.9-1.9-1.9-1-1-1 1-1.8 1.9-2.9-2.9-2.9 2.9-2.8-2.9-1 1 3.8 3.9 2.9-2.9 2.9 2.9 2.8-2.9 2.9 2.9 3.9-3.9-1-1zM115.7 9.2h-1.4v1.4h1.4V9.2zm-36.9 0h-1.4v1.4h1.4V9.2zm-2.8 0h-1.4v1.4H76V9.2zm5.7 0h-1.4v1.4h1.4V9.2zm30.4 1.4h.7V9.2h-1.4v1.4h.7zM19.3 9.2h-1.4v1.4h1.4V9.2zm-2.8 0h-1.4v1.4h1.4V9.2zm34 0h-1.4v1.4h1.4V9.2zm11.3 0h-1.4v1.4h1.4V9.2zm-2.8 0h-1.4v1.4H59V9.2zm59.5 0h-1.4v1.4h1.4V9.2zm-45.3 0h-1.4v1.4h1.4V9.2zm48.2 0H120v1.4h1.4V9.2zm-56.7 0h-1.4v1.4h1.4V9.2zm5.6 0h-1.4v1.4h1.4V9.2zm-2.8 0h-1.4v1.4h1.4V9.2zm-11.3 0h-1.4v1.4h1.4V9.2zm-2.9 0h-1.4v1.4h1.4V9.2zM42 9.2h-1.4v1.4H42V9.2zm44.6 1.4h.7V9.2h-1.4v1.4h.7zM36.3 9.2h-1.4v1.4h1.4V9.2zm62.4 0h-1.4v1.4h1.4V9.2zm2.8 0h-1.4v1.4h1.4V9.2zm-63.1 1.4h.7V9.2h-1.4v1.4h.7zm-17 0h.7V9.2h-1.4v1.4h.7zM93 9.2h-1.4v1.4H93V9.2zm-48.2 0h-1.4v1.4h1.4V9.2zm50.3 1.4h.7V9.2h-1.4v1.4h.7zM33.5 9.2h-1.4v1.4h1.4V9.2zm14.2 0h-1.4v1.4h1.4V9.2zm76.5 0h-1.4v1.4h1.4V9.2zm-17 0h-1.4v1.4h1.4V9.2zm-3.6 1.4h.7V9.2h-1.4v1.4h.7zM25 9.2h-1.4v1.4H25V9.2zm59.5 0h-1.4v1.4h1.4V9.2zm-54.6 1.4h.7V9.2h-1.4v1.4h.7zm-2.1-1.4h-1.4v1.4h1.4V9.2zm62.4 0h-1.4v1.4h1.4V9.2zm19.8 0h-1.4v1.4h1.4V9.2zm19.9 0h-1.4v1.4h1.4V9.2zm-2.9 0h-1.4v1.4h1.4V9.2zm8.5 0h-1.4v1.4h1.4V9.2zm-2.8 0h-1.4v1.4h1.4V9.2zm5.7 0H137v1.4h1.4V9.2zM56.2 27.9h-1.4v1.4h1.4v-1.4zm30.4 1.4h.7v-1.4h-1.4v1.4h.7zm-7.8-1.4h-1.4v1.4h1.4v-1.4zm-53.8 0h-1.4v1.4H25v-1.4zm-3.6 1.4h.7v-1.4h-1.4v1.4h.7zm24.9 0h1.4v-1.4h-1.4v1.4zm-29.8-1.4h-1.4v1.4h1.4v-1.4zm76.5 0h-1.4v1.4H93v-1.4zm-39.7 0h-1.4v1.4h1.4v-1.4zm35.5 1.4h1.4v-1.4h-1.4v1.4zm-55.3-1.4h-1.4v1.4h1.4v-1.4zm17 0h-1.4v1.4h1.4v-1.4zm-12.1 1.4h.7v-1.4h-1.4v1.4h.7zm-9.2 0h1.4v-1.4h-1.4v1.4zm-9.9-1.4h-1.4v1.4h1.4v-1.4zm48.2 0h-1.4v1.4h1.4v-1.4zm15.6 1.4h1.4v-1.4h-1.4v1.4zm43.9-1.4h-1.4v1.4h1.4v-1.4zm-45.3 0h-1.4v1.4h1.4v-1.4zm-53.9 0h-1.4v1.4h1.4v-1.4zm95 1.4h1.4v-1.4h-1.4v1.4zm-51 0h1.4v-1.4h-1.4v1.4zM59 27.9h-1.4v1.4H59v-1.4zm-18.4 1.4H42v-1.4h-1.4v1.4zm22.7 0h1.4v-1.4h-1.4v1.4zm7-1.4h-1.4v1.4h1.4v-1.4zm59.6 0h-1.4v1.4h1.4v-1.4zm-68.1 0h-1.4v1.4h1.4v-1.4zm50.3 1.4h.7v-1.4h-1.4v1.4h.7zm9.3-1.4H120v1.4h1.4v-1.4zm11.3 0h-1.4v1.4h1.4v-1.4zm-15.6 1.4h1.4v-1.4h-1.4v1.4zm-2.8 0h1.4v-1.4h-1.4v1.4zm-5.7 0h1.4v-1.4h-1.4v1.4zm26.9-1.4h-1.4v1.4h1.4v-1.4zm-36.8 0h-1.4v1.4h1.4v-1.4zm2.8 1.4v-1.4h-1.4v1.4h1.4zm-7.1 0h1.4v-1.4h-1.4v1.4zM76 27.9h-1.4v1.4H76v-1.4zm26.9 1.4h1.4v-1.4h-1.4v1.4zm-68 0h1.4v-1.4h-1.4v1.4zm103.5-1.4H137v1.4h1.4v-1.4zm-32.6 1.4h1.4v-1.4h-1.4v1.4zm-61-1.4h-1.4v1.4h1.4v-1.4zm91.6-11.1h11.5v-1.4h-11.5v1.4zM17.8 15.4H7.1v1.4h10.7v-1.4zm118.6 8.4h11.5v-1.4h-11.5v1.4zM17.8 22.4H7.1v1.4h10.7v-1.4zm83.1 37.2h-2.6v5.2h2.6v-5.2zm5.2 0V57h-5.2v2.6h5.2zm2.6 2.6v-2.6h-2.6v2.6h2.6zm5.2-2.6V57h-5.2v2.6h5.2zm0 5.2h2.6v-5.2h-2.6v5.2zm0 0h-2.6v2.6h2.6v-2.6zm-5.2 5.2h2.6v-2.6h-2.6V70zm-2.6 2.6h2.6V70h-2.6v2.6zm-2.6-5.2V70h2.6v-2.6h-2.6zm-2.6-2.6v2.6h2.6v-2.6h-2.6zm-55.5 44.9h-2.6v5.2h2.6v-5.2zm5.1 0v2.6h2.6v-2.6h-2.6l.1-2.6h-5.2v2.6h5.1zm7.8 0v-2.6h-5.2v2.6h5.2zm0 2.6v2.6h2.6v-5.2h-2.6v2.6zm-2.6 5.2h2.6v-2.6h-2.6v2.6zm-2.6 2.6h2.6v-2.6h-2.6v2.6zm-2.5-2.6H48v2.6h2.5v2.6h2.6v-2.6h-2.5v-2.6zm-5.2-2.6v2.6H48v-2.6h-2.6zm21.5-10.2h2.7V102h-2.7v2.7zm2.7-2.8h2.7v-2.7h-2.7v2.7zm2.7-2.7H75v-2.7h-2.7v2.7zm2.8-5.4v2.7h2.7v-2.7h-2.7zm5.4-2.7h-2.7v2.7h2.7v-2.7zm0-.1h2.7v-2.7h-2.7V91zm2.7-2.7h2.7v-2.7h-2.7v2.7zm2.8-5.4v2.7h2.7v-2.7H86zm2.7-9.2v9.1h2.7V71.9h-2.7v1.8zM86 71.9h2.7v-2.7H86v2.7zm-2.8-2.7h2.7v-2.7h-2.7v2.7zm-2.7-5.4h-5.4v2.7h8.1v-2.7h-2.7zm0 8.1h-2.7v2.7h2.7v2.8h2.7v2.7h2.7v-5.4h-2.7v-2.8h-2.7zm-13.7 30v-2.7h-2.7v2.7h2.7zm-5.4-5.4v2.7h2.7v-2.7h-2.7zm-2.7-2.7v2.7h2.7v-2.7h-2.7zm-.1-2.7h-2.7v2.7h2.7v-2.7zm-2.7-.1v-2.7h-2.7V91h2.7zm-5.4-5.4v2.7h2.7v-2.7h-2.7zm-2.8 0h2.7v-2.7h-2.7v2.7zM75 88.3h2.8v-2.7h2.7v-2.7h-5.4v2.7h-11v-2.7h-8.2v2.7h2.8v2.7h2.7V91h2.7v2.8h2.8v2.7h2.7v-2.7h2.7V91H75v-2.7zm-27.3-8.2v-8.2H45v10.9h2.7v-2.7zm2.8-10.9h-2.7v2.7h2.7v-2.7zm2.7-2.7h-2.7v2.7h2.7v-2.7zm4.5 0h3.7v-2.7h-8.2v2.7h4.5zm14.6 2.7H75v-2.7h-2.7v2.7zm-2.7 2.7h2.7v-2.7h-2.7v2.7zm-2.7 2.7h2.7v-2.7h-2.7v2.7zm-.1-2.7v-2.7h-2.7v2.7h2.7zm-2.7-2.7v-2.7h-2.7v2.7h2.7zm30 41h-2.7v2.7h2.7v-2.7zm2.8-2.8h-2.7v2.7h2.7v-2.7zm0 0h2.7v-2.7h-2.7v2.7zm2.7-2.7h2.7V102h-2.7v2.7zm2.8-2.8h2.7v-2.7h-2.7v2.7zm2.7-2.7h2.7v-2.7h-2.7v2.7zm2.7-9.1v6.4h2.7v-8.2h-2.7v1.8zm-2.7-4.5v2.7h2.7v-2.7h-2.7zm-1.8-2.7h-6.4v2.7h8.2v-2.7h-1.8zm1.8 8.2h-2.7v2.7h2.7v-2.7zm-2.8-2.8h-2.7V91h2.7v-2.7zm-10.9 19.1h-2.7v2.7h2.7v-2.7zm-2.7-2.7H86v2.7h2.7v-2.7zm-2.8-2.7h-2.7v2.7h2.7V102zm-2.7-.1v-2.7h-2.7v2.7h2.7zm-5.4-5.4v2.7h2.7v-2.7h-2.7zm16.3 0h-5.4v-2.7h-5.5v2.7H86v2.7h2.7v2.7h2.7v2.8h2.7v-2.8h2.8v-2.7h-2.8v-2.7zm.1-8.2h2.7v-2.7h-2.7v2.7zM91.4 91h2.7v-2.7h-2.7V91zm-2.7-5.4v2.7h2.7v-2.7h-2.7zm.3-37.1h1.4v-1.4H89v1.4zm-28.3 0h1.4v-1.4h-1.4v1.4zm2.8 0h1.4v-1.4h-1.4v1.4zm8.5 0h1.4v-1.4H72v1.4zm14.2-1.4v1.4h1.4v-1.4h-1.4zm-9.9 0h-1.4v1.4h1.4v-1.4zm7.1 1.4h1.4v-1.4h-1.4v1.4zm-5.7 0h1.4v-1.4h-1.4v1.4zm-11.3 0h1.4v-1.4h-1.4v1.4zm2.8 0h1.4v-1.4h-1.4v1.4zm11.3-1.4v1.4h1.4v-1.4h-1.4zM26 46.9h2.1v-2.1H26v2.1zm-2.1-2.1H26v-2h2.1v2h2.1v-2.1h-2.1v-2H26v2h-2.1v2.1zM18 54.9h2.1v-2.1H18v2.1zm0-6.2v2h-2.1v2.1H18v-2h2.1v2h2.1v-2.1h-2.1v-2H18zm109.9-1.8h2.1v-2.1h-2.1v2.1zm-2.1-2.1h2.1v-2h2.1v2h2.1v-2.1H130v-2h-2.1v2h-2.1v2.1zm10.1 10.1h2.1v-2.1h-2v-2h2v2h2.1v-2.1H138v-2h-2.1v2h-2v2.1h2v2.1zm-51.6 90.9h1.4v-1.4h-1.4v1.4zm-2.9 0h1.4v-1.4h-1.4v1.4zm-2.8 0H80v-1.4h-1.4v1.4zm-11.3 0h1.4v-1.4h-1.4v1.4zm-2.9 0h1.4v-1.4h-1.4v1.4zm-2.8 0H63v-1.4h-1.4v1.4zm-8.5 0h1.4v-1.4h-1.4v1.4zm22.7 0h1.4v-1.4h-1.4v1.4zm-5.7 0h1.4v-1.4h-1.4v1.4zm17 0h1.4v-1.4h-1.4v1.4zm-14.2 0h1.4v-1.4h-1.4v1.4zm22.7 0H97v-1.4h-1.4v1.4zm2.9 0h1.4v-1.4h-1.4v1.4zm-8.6 0h1.4v-1.4h-1.4v1.4zm2.9 0h1.4v-1.4h-1.4v1.4zm8.5 0h1.4v-1.4h-1.4v1.4zm-42.5 0h1.4v-1.4h-1.4v1.4zm-2.9 0h1.4v-1.4h-1.4v1.4zm31.9-7.3l-1.9-1.9-1-1-1 1-1.9 1.9-1.8-1.9-1.1-1-1 1-1.8 1.9-1.9-1.9-1-1-1 1-1.9 1.9-2.8-2.9-1 1 3.8 3.9 2.9-2.9 2.9 2.9 2.9-2.9 2.8 2.9 2.9-2.9 2.9 2.9 3.8-3.9-1-1-2.8 2.9zm205.5-40.4h1.4v-1.4h-1.4v1.4zm-2.8 0h1.4v-1.4h-1.4v1.4zm-7 0v-1.4h-1.4v1.4h1.4zm5.6 0v-1.4h-1.4v1.4h1.4zm-2.8 0v-1.4h-1.4v1.4h1.4zM296 91h-15.2v1.4H296V91zm-116.6 7.1v-1.4H178v1.4h1.4zm-7 0h1.4v-1.4h-1.4v1.4zm4.2 0v-1.4h-1.4v1.4h1.4zm5.6 0v-1.4h-1.4v1.4h1.4zm-12.6 0h1.4v-1.4h-1.4v1.4zm13.9-7.1h-15.2v1.4h15.2V91zm2.5-73.8h-.8v2.4h-2.4v-2.4h-.8v5.6h.8v-2.4h2.4v2.4h.8v-5.6zm5.2 0h-2.4v.8h2.4v-.8zm-3.2 5.6h.8v-2.4h2.4v2.4h.8V18h-.8v1.6h-2.4V18h-.8v4.8zm6.8-4.8h2.4v-.8H194v5.6h.8v-2.4h2.4v-.8h-2.4V18zm3.2 0h-.8v1.6h.8V18zm6 1.6V18h-.8v1.6h.8zm-3.2.8h2.4v-.8h-2.4V18h2.4v-.8H200v5.6h.8v-2.4zm6-3.2h-.8v1.6h.8v-1.6zm1.6 5.6v-3.2h-.8v3.2h.8zm1.6-5.6h-.8v1.6h.8v-1.6zm-2.4 2.4v-.8h-.8v.8h.8zm1.6-.8h-.8v.8h.8v-.8zm11.2 4V22h-.8v.8h.8zm-1.6-5.6h-.8v4h.8v-4zm.8 4.8v-.8h-.8v.8h.8zm1.6-.8h-.8v.8h.8v-.8zm.8-4h-.8v4h.8v-4zm2.8 2.4V18h-.8v4.8h.8v-2.4h2.4v2.4h.8V18h-.8v1.6h-2.4zm0-2.4v.8h2.4v-.8h-2.4zm6 0h-.8v5.6h4V22h-3.2v-4.8zm5.2 5.6h4V22h-3.2v-1.6h2.4v-.8h-2.4V18h3.2v-.8h-4v5.6zm8.4-2.4v-.8h-.8v.8h.8zm.8.8v1.6h.8v-5.6h-.8v3.2h-.8v.8h.8zm-3.2-4v5.6h.8v-3.2h.8v-.8h-.8v-1.6h-.8zm6 .8h1.6v4.8h.8V18h1.6v-.8h-4v.8zm10 4h-1.6v-4h1.6v-.8h-4v.8h1.6v4H254v.8h4V22zm4.4-1.6v-.8h-.8v.8h.8zm.8.8v1.6h.8v-5.6h-.8v3.2h-.8v.8h.8zm-2.4-1.6h.8v-.8h-.8v-1.6h-.8v5.6h.8v-3.2zM270 22h-3.2v-1.6h2.4v-.8h-2.4V18h3.2v-.8h-4v5.6h4V22zm2.8-2.4h.8v-2.4H272v.8h.8v1.6h-.8v.8h.8v-.8zm6 .8v-.8h-2.4v.8h2.4zm-3.2 2.4h3.2V22h-3.2v.8zm4-.8v-1.6h-.8V22h.8zm0-4.8h-3.2v.8h3.2v-.8zm-4 .8v1.6h.8V18h-.8zm6 4.8h.8V22h-.8v.8zm0-1.6h.8v-4h-.8v4zM180.9 137.8h1.4v-1.4h-1.4v1.4zm-5.7 0h1.4v-1.4h-1.4v1.4zm14.2 0h1.4v-1.4h-1.4v1.4zm5.6 0h1.4v-1.4H195v1.4zm-2.8 0h1.4v-1.4h-1.4v1.4zm-8.5 0h1.4v-1.4h-1.4v1.4zm-5.7 0h1.4v-1.4H178v1.4zm8.5 0h1.4v-1.4h-1.4v1.4zm87.9 0h1.4v-1.4h-1.4v1.4zm11.3 0h1.4v-1.4h-1.4v1.4zm2.8 0h1.4v-1.4h-1.4v1.4zm-11.3 0h1.4v-1.4h-1.4v1.4zm5.7 0h1.4v-1.4h-1.4v1.4zm-11.4 0h1.4v-1.4h-1.4v1.4zm8.5 0h1.4v-1.4H280v1.4zm-11.3 0h1.4v-1.4h-1.4v1.4zm31.2-3.1h-2.1v2h-2.1v2.1h2.1v2.1h2.1v-2.1h-2.1v-2h2.1v2h2.1v-2.1h-2.1v-2zm-134.1 6.2h2.1v-2.1h-2.1v2.1zm2.1-6.2h-2.1v2h-2.1v2.1h2.1v-2h2.1v2h2.1v-2.1h-2.1v-2zm120.1-6l-2.9 2.9-2.9-2.9-2.9 2.9-1.8-1.9-1-1-1 1-1.9 1.9-2.9-2.9-1 1 3.9 3.9 2.9-2.9 2.8 2.9 2.9-2.9 2.9 2.9 3.9-3.9-1-1zm-93.5 0l-2.9 2.9-2.9-2.9-1 1-1.8 1.9-2.9-2.9-1 1-1.9 1.9-2.8-2.9-1 1 3.8 3.9 2.9-2.9 2.9 2.9 2.8-2.9 2.9 2.9 3.9-3.9-1-1zm55.6-118.1h.7V9.2h-1.4v1.4h.7zm6.4-1.4h-1.4v1.4h1.4V9.2zm-2.8 0h-1.4v1.4h1.4V9.2zm11.3 0h-1.4v1.4h1.4V9.2zm-65.2 0h-1.4v1.4h1.4V9.2zm62.4 0h-1.4v1.4h1.4V9.2zm-59.5 0h-1.4v1.4h1.4V9.2zm55.9 1.4h.7V9.2h-1.4v1.4h.7zm-53.1-1.4h-1.4v1.4h1.4V9.2zm2.8 0h-1.4v1.4h1.4V9.2zm22.7 0h-1.4v1.4h1.4V9.2zm5.7 0h-1.4v1.4h1.4V9.2zm-17 0h-1.4v1.4h1.4V9.2zm21.9 1.4h.7V9.2h-1.4v1.4h.7zm-13.4-1.4h-1.4v1.4h1.4V9.2zm-2.9 0h-1.4v1.4h1.4V9.2zm-2.8 0h-1.4v1.4h1.4V9.2zm-8.5 0h-1.4v1.4h1.4V9.2zm-17 0h-1.4v1.4h1.4V9.2zm42.5 0h-1.4v1.4h1.4V9.2zm-5.7 0h-1.4v1.4h1.4V9.2zm11.4 0h-1.4v1.4h1.4V9.2zm-28.4 0h-1.4v1.4h1.4V9.2zm31.2 0h-1.4v1.4h1.4V9.2zm-36.8 0h-1.4v1.4h1.4V9.2zm62.3 0h-1.4v1.4h1.4V9.2zm-97.1 1.4h.7V9.2h-1.4v1.4h.7zm117-1.4H292v1.4h1.4V9.2zm-14.2 0h-1.4v1.4h1.4V9.2zm-104.9 0h-1.4v1.4h1.4V9.2zm8.5 0h-1.4v1.4h1.4V9.2zm-2.8 0h-1.4v1.4h1.4V9.2zm96.4 0H275v1.4h1.4V9.2zm11.3 0h-1.4v1.4h1.4V9.2zm-2.8 0h-1.4v1.4h1.4V9.2zm5.6 0h-1.4v1.4h1.4V9.2zm-119 0h-1.4v1.4h1.4V9.2zm110.5 0h-1.4v1.4h1.4V9.2zm-93.5 0h-1.4v1.4h1.4V9.2zm82.2 0h-1.4v1.4h1.4V9.2zm-77.3 1.4h.7V9.2h-1.4v1.4h.7zm-2.1-1.4h-1.4v1.4h1.4V9.2zm-6.4 1.4h.7V9.2h-1.4v1.4h.7zm82.2 0h.7V9.2h-1.4v1.4h.7zm-29 18.7h1.4v-1.4h-1.4v1.4zm52.4-1.4h-1.4v1.4h1.4v-1.4zm-8.5 0h-1.4v1.4h1.4v-1.4zm-63.7 1.4h1.4v-1.4h-1.4v1.4zm8.5 0h1.4v-1.4h-1.4v1.4zm24 0v-1.4h-1.4v1.4h1.4zm-17-1.4h-1.4v1.4h1.4v-1.4zm22.7 0h-1.4v1.4h1.4v-1.4zm-19.8 0h-1.4v1.4h1.4v-1.4zm51 0h-1.4v1.4h1.4v-1.4zm-34 0h-1.4v1.4h1.4v-1.4zm31.2 0h-1.4v1.4h1.4v-1.4zm-8.5 0H275v1.4h1.4v-1.4zm-17.8 1.4h.7v-1.4h-1.4v1.4h.7zm3.6-1.4h-1.4v1.4h1.4v-1.4zm2.8 0h-1.4v1.4h1.4v-1.4zm-21.2 1.4h1.4v-1.4h-1.4v1.4zm28.3 0h1.4v-1.4h-1.4v1.4zm21.3-1.4H292v1.4h1.4v-1.4zm-25.6 1.4v-1.4h-1.4v1.4h1.4zm1.5-1.4v1.4h1.4v-1.4h-1.4zm8.5 1.4h1.4v-1.4h-1.4v1.4zm-66.6-1.4h-1.4v1.4h1.4v-1.4zm36.8 0h-1.4v1.4h1.4v-1.4zm-6.4 1.4h.7v-1.4h-1.4v1.4h.7zm-53.1-1.4h-1.4v1.4h1.4v-1.4zm-4.3 1.4h1.4v-1.4h-1.4v1.4zm15.6-1.4h-1.4v1.4h1.4v-1.4zm-25.5 0h-1.4v1.4h1.4v-1.4zm32.6 1.4h1.4v-1.4h-1.4v1.4zm-24.1-1.4h-1.4v1.4h1.4v-1.4zm31.2 0h-1.4v1.4h1.4v-1.4zm-8.5 0h-1.4v1.4h1.4v-1.4zm-29.1 1.4h.7v-1.4h-1.4v1.4h.7zm46.1-1.4h-1.4v1.4h1.4v-1.4zm-42.5 0h-1.4v1.4h1.4v-1.4zm-8.5 0h-1.4v1.4h1.4v-1.4zm59.5 0h-1.4v1.4h1.4v-1.4zm-28.3 1.4v-1.4h-1.4v1.4h1.4zm-9.3 0h.7v-1.4h-1.4v1.4h.7zm23.4-1.4h-1.4v1.4h1.4v-1.4zm-21.2 1.4h1.4v-1.4h-1.4v1.4zm29.7-1.4h-1.4v1.4h1.4v-1.4zm-35.4 1.4h1.4v-1.4h-1.4v1.4zm101.5-13.9v1.4h11.5v-1.4h-11.5zm-118.6 0h-10.7v1.4h10.7v-1.4zm118.6 8.4h11.5v-1.4h-11.5v1.4zm-118.6-1.4h-10.7v1.4h10.7v-1.4zM244 48.5h1.4v-1.4H244v1.4zm-28.3 0h1.4v-1.4h-1.4v1.4zm9.9-1.4h-1.4v1.4h1.4v-1.4zm12.8 1.4h1.4v-1.4h-1.4v1.4zm-7.1-1.4h-1.4v1.4h1.4v-1.4zm5.6 0h-1.4v1.4h1.4v-1.4zm-4.2 1.4h1.4v-1.4h-1.4v1.4zm-5.7 0h1.4v-1.4H227v1.4zm-5.6 0h1.4v-1.4h-1.4v1.4zm19.8-1.4v1.4h1.4v-1.4h-1.4zm-22.7 1.4h1.4v-1.4h-1.4v1.4zM181 46.9h2.1v-2.1H181v2.1zm-2.1-2.1h2.1v-2h2.1v2h2.1v-2.1h-2.1v-2H181v2h-2.1v2.1zM173 54.9h2.1v-2.1H173v2.1zm0-6.2v2h-2.1v2.1h2.1v-2h2.1v2h2.1v-2.1h-2.1v-2H173zm109.9-1.8h2.1v-2.1h-2.1v2.1zm-2.1-2.1h2.1v-2h2.1v2h2.1v-2.1H285v-2h-2.1v2h-2.1v2.1zm10.1 10.1h2.1v-2.1h-2v-2h2v2h2.1v-2.1H293v-2h-2.1v2h-2v2.1h2v2.1zm-46 90.9h1.4v-1.4h-1.4v1.4zm-2.8 0h1.4v-1.4h-1.4v1.4zm5.7 0h1.4v-1.4h-1.4v1.4zm-11.4 0h1.4v-1.4h-1.4v1.4zm-19.8 0h1.4v-1.4h-1.4v1.4zm2.8 0h1.4v-1.4h-1.4v1.4zm-5.6 0h1.4v-1.4h-1.4v1.4zm8.5 0h1.4v-1.4h-1.4v1.4zm-14.2 0h1.4v-1.4h-1.4v1.4zm17 0h1.4v-1.4h-1.4v1.4zm14.2 0h1.4v-1.4h-1.4v1.4zm11.3 0h1.4v-1.4h-1.4v1.4zm-17 0h1.4v-1.4h-1.4v1.4zm-5.7 0h1.4v-1.4h-1.4v1.4zm2.9 0h1.4v-1.4h-1.4v1.4zm-19.9 0h1.4v-1.4h-1.4v1.4zm45.4 0h1.4v-1.4h-1.4v1.4zm-2.8 0h1.4v-1.4h-1.4v1.4zm-10.7-7.3l-1.9-1.9-1-1-1 1-1.9 1.9-1.8-1.9-1.1-1-1 1-1.8 1.9-1.9-1.9-1-1-1 1-1.9 1.9-2.8-2.9-1 1 3.8 3.9 2.9-2.9 2.9 2.9 2.9-2.9 2.8 2.9 2.9-2.9 2.9 2.9 3.8-3.9-1-1-2.8 2.9zm3.7-25.9h-2.7v2.7h2.7v-2.7zm-2.7-2.8h-2.7v2.7h2.7v-2.7zm-5.4 0h2.7v-2.7h-2.7v2.7zm-.1-5.4h-2.7v2.7h2.7v-2.7zm-2.7-.1v-2.7h-2.7v2.7h2.7zm-5.4-5.4v2.7h2.7v-2.7h-2.7zm0-2.7h-2.7v2.7h2.7v-2.7zm19.1 19.1h2.7v-2.7h-2.7v2.7zm5.4-5.5H252v2.7h2.7v-2.7zm.1 0h2.7v-2.7h-2.7v2.7zm2.7-2.7h2.7v-2.7h-2.7v2.7zm2.7-2.8h2.7v-2.7h-2.7v2.7zm2.8-2.7h2.7v-2.7H263v2.7zm2.7-2.7h2.7v-2.7h-2.7v2.7zm5.4-4.5v-9.1h-2.7v10.8h2.7v-1.7zm-2.7-9.2v-2.7h-2.7v2.7h2.7zm-5.4-5.4v2.7h2.7v-2.7H263zm-2.8 0h2.7v-2.7h-8.1v2.7h5.4zm-19.1 0v-5.5h-2.7v8.2h5.4v-2.7h-2.7zm2.7 5.4h2.7v-2.7h-2.7v2.7zm5.5.1h-2.7V88h2.7v-2.7zm0-.1h2.7v-2.7h-2.7v2.7zm5.4-5.4H252v2.7h2.7v-2.7zm-8.1 38.2h2.7v-2.7h-2.7v2.7zM222 98.9h2.7v-2.7H222v2.7zm0-5.5h-2.7v2.7h2.7v-2.7zm-5.5 0h2.7v-2.7h-2.7v2.7zm-2.7-5.4v2.7h2.7V88h-2.7zm-2.7-2.7V88h2.7v-2.7h-2.7zm-.1-.1v-2.7h-2.7v2.7h2.7zm-2.7-5.4v-5.5h-2.7v8.2h2.7v-2.7zm2.7-8.2h-2.7v2.7h2.7v-2.7zm13.7 24.5h2.7v-2.7h-2.7v2.7zm2.8-2.7h2.7v-2.7h-2.7v2.7zm2.7-2.7h2.7V88h-2.7v2.7zm5.4-5.4h-2.7V88h2.7v-2.7zm.1-.1h2.7v-2.7h-2.7v2.7zm-19.2-13.6h2.7v-2.7h-8.1v2.7h5.4zm19.1 2.7h2.7v-2.7h-2.7v2.7zm0-5.4h-8.1v2.7h8.1v-2.7zm-16.3 2.7v2.7h2.7v-2.7h-2.7zm5.4 5.4v-2.7H222V77h2.7zm2.7-5.4h-2.7v2.7h2.7v-2.7zm2.8 2.8v2.7h2.7v-2.7h-2.7zm5.4 2.7h-2.7v2.7h2.7v-2.7zm-8.1 8.2h2.8v-2.7h-8.2V79.8h-8.2v2.7h2.8v2.8h2.7V88h2.7v2.7h2.7V88h2.7v-2.7zm38.2 8v-5.5h-2.8v-2.7h-5.4v2.7h2.8v2.7h2.7v2.8h2.7zm-5.6 5.6v-2.7h-16.3v2.7h-5.4v2.7h2.7v2.7h2.8v2.8h2.7v2.7h2.7v-2.7h2.7v-2.8h2.7v-2.7h2.8v-2.7h-.1 2.7zm-59.7 10.8h-2.6v5.2h2.6v-5.2zm5.1 0v2.6h2.6v-2.6h-2.5v-2.6h-5.2v2.6h5.1zm7.8 0v-2.6h-5.2v2.6h5.2zm0 2.6v2.6h2.6v-5.2h-2.6v2.6zm-2.6 5.2h2.6v-2.6h-2.6v2.6zm-2.6 2.6h2.6v-2.6h-2.6v2.6zm-2.5-2.6H203v2.6h2.5v2.6h2.6v-2.6h-2.5v-2.6zm-5.2-2.6v2.6h2.6v-2.6h-2.6zm55.5-55.3h-2.6v5.2h2.6v-5.2zm5.2 0V57h-5.2v2.6h5.2zm2.6 2.6v-2.6h-2.6v2.6h2.6zm2.6-2.6h2.6V57h-5.2v2.6h2.6zm2.6 5.2h2.6v-5.2h-2.6v5.2zm0 0h-2.6v2.6h-2.6V70h2.6v-2.6h2.6v-2.6zm-7.8 7.8h2.6V70h-2.6v2.6zm-2.6-5.2V70h2.6v-2.6h-2.6zm-2.6-2.6v2.6h2.6v-2.6h-2.6z"/></svg>