<svg id="Layer_1" xmlns="http://www.w3.org/2000/svg" viewBox="0 0 310 155" width="310" height="155"><style>.st0{fill:#231f20}</style><path class="st0" d="M21 111.5h-1.4V77.2H21v34.3zm-7.1-7.5h1.4v-1.4h-1.4v1.4zm0-17h1.4v-1.4h-1.4V87zm0 5.6h1.4v-1.4h-1.4v1.4zm0-2.8h1.4v-1.4h-1.4v1.4zm0 11.3h1.4v-1.4h-1.4v1.4zm0-5.6c1.4 0 0 0 1.4-.1V94h-1.4v1.5zm0 2.8h1.4v-1.4h-1.4v1.4zm118.4 13.2h1.4V77.2h-1.4v34.3zm5.7-8.4h1.4v-1.4H138v1.4zm0-11.3h1.4v-1.4H138v1.4zm0 2.8h1.4v-1.4H138v1.4zm0-5.6h1.4v-1.4H138V89zm0 8.5h1.4v-1.4H138v1.4zm0 2.8h1.4v-1.4H138v1.4zm0-14.2h1.4v-1.4H138v1.4zM62.3 14.2v5.9h1.1v-2.4h2.1v2.4h1.1v-5.9h-1.1v2.4h-2.1v-2.4h-1.1zm9.5 0v.8h.8v5.1h-1.1v-2.4h-2.1v2.4h-1.1V15h.8v-.8h2.7zm-2.4 2.4h2.1v-1.3h-2.1v1.3zm8.4-2.4v.8h.8v1.9h-.8v.8h-2.4v2.4h-1.1v-5.9h3.5zm-.3 1.1h-2.1v1.3h2.1v-1.3zm3.9 4.8h-1.1v-5.9h3.5v.8h.8v1.9h-.8v.8h-2.4v2.4zm2.1-4.8h-2.1v1.3h2.1v-1.3zm3.7 1.6h.8v3.2h1v-3.2h.9v-.8h.8v-1.9h-1.1v1.6h-.8v.8h-.5v-.8h-.8v-1.6h-1.1v1.9h.8v.8zm-54.9 6.4v-1.1H28v1.1h1.6V27H28v1.1h4.3V27h-1.6v-3.7h1.6zm1.7-1.1v5.9h1v-3.2h.5v.8h.8v.8h.8v1.6h1.1v-5.9h-1.1v3.2h-.5v-.8h-.8v-.8H35v-1.6h-1zm9.4 5.9H40v-5.9h3.5v.8h.8v4.3h-.8l-.1.8zm-.3-4.8H41V27h2.1v-3.7zm7.2 0v-1.1H46v5.9h4.2V27H47v-1.3h2.4v-1.1H47v-1.3h3.3zm5.2-1.1v.8h.8v1.9h-.8v.8H53v2.4h-1v-5.9h3.5zm-.4 1.1H53v1.3h2.1v-1.3zm7.2 0v-1.1H58v5.9h4.2V27H59v-1.3h2.4v-1.1H59v-1.3h3.3zm3.5 1.3v-.8H65v-1.6h-1v5.9h1v-3.2h.5v.8h.8v.8h.8v1.6h1.1v-5.9h-1.1v3.2h-.5v-.8h-.8zm7.7-2.4v.8h.8v4.3h-.8v.8H70v-5.9h3.5zm-.4 1.1H71V27h2.1v-3.7zm7.2 0v-1.1H76v5.9h4.2V27H77v-1.3h2.4v-1.1H77v-1.3h3.3zm4.8 2.1h-.5v-.8h-.8v-.8H83v-1.6h-1v5.9h1v-3.2h.5v.8h.8v.8h.8v1.6h1.1v-5.9h-1.1v3.2zm7.2-1.3V23h-.8v-.8h-2.7v.8H88v4.3h.7v.8h2.7v-.8h.8v-1.1h-1.1v.8H89v-3.7h2.2v.8h1.1zm6-.8v-1.1H94v5.9h4.2V27H95v-1.3h2.4v-1.1H95v-1.3h3.3zm11.2-1.1v.8h.8v4.3h-.8v.8H106v-5.9h3.5zm-.4 1.1H107V27h2.1v-3.7zm6 4.8v-2.4H113v2.4h-1V23h.8v-.8h2.7v.8h.8v5.1H115.1zm-2.1-3.5h2.1v-1.3H113v1.3zm5-2.4v1.9h.7v.8h.8v3.2H120.7v-3.2h.8v-.8h.8v-1.9h-1.1v1.6h-.8v.8h-.5v-.8h-.8v-1.6H118zm7.1 0H124v4.3h1.1v-4.3zm-1.1 5.9h1.1V27H124v1.1zM85 143.2h1.4v-1.4H85v1.4zm2.8 0h1.4v-1.4h-1.4v1.4zm-5.6 0h1.4v-1.4h-1.4v1.4zm17 0h1.4v-1.4h-1.4v1.4zm-8.5 0h1.4v-1.4h-1.4v1.4zm5.6 0h1.4v-1.4h-1.4v1.4zm-2.8 0h1.4v-1.4h-1.4v1.4zm-34 0h1.4v-1.4h-1.4v1.4zm-2.8 0h1.4v-1.4h-1.4v1.4zm8.5 0h1.4v-1.4h-1.4v1.4zm2.8 0h1.4v-1.4H68v1.4zm-14.2 0h1.4v-1.4h-1.4v1.4zm8.5 0h1.4v-1.4h-1.4v1.4zm17 0h1.4v-1.4h-1.4v1.4zm-8.5 0h1.4v-1.4h-1.4v1.4zm2.9 0h1.4v-1.4h-1.4v1.4zm2.8 0h1.4v-1.4h-1.4v1.4zm-55.6-5.6l1.5 1.5-1.5 1.5-1.5-1.5-1.4 1.4-1.5-1.5 1.5-1.5-1.5-1.5 1.5-1.5 1.5 1.5 1.4-1.4 1.5 1.5-1.5 1.5zm-1.5-1.5l-1.4 1.4 1.5 1.5 1.4-1.4-1.5-1.5zM16 126l1.5-1.5L19 126l1.5-1.5L19 123l-1.5 1.5L16 123l-1.5 1.5L13 123l-1.5 1.5L13 126l1.5-1.5L16 126l-1.5 1.5L16 129l1.5-1.5L16 126zm1.4-4.5L16 120l-1.5 1.5L16 123l1.4-1.5zm17 20l-1.5-1.5-1.4 1.4L30 140l-1.5 1.5L30 143l1.4-1.4 1.5 1.5-1.5 1.5 1.5 1.5 1.5-1.5-1.5-1.5 1.5-1.6 1.5 1.5 1.5-1.5-1.5-1.5-1.5 1.5zm-3-3l1.5 1.5 1.5-1.5-1.5-1.5-1.5 1.5zm104.8-.9l1.5 1.5-1.5 1.5-1.4-1.4-1.5 1.5-1.5-1.5 1.4-1.4-1.5-1.5 1.5-1.5 1.4 1.4 1.5-1.5 1.5 1.5-1.4 1.4zm-1.5-1.4l-1.4 1.4 1.4 1.4 1.4-1.4-1.4-1.4zm4.8-11.7L138 123l-1.5 1.5-1.4-1.4-1.5 1.5 1.5 1.5 1.5-1.5 1.4 1.4-1.4 1.4 1.5 1.5 1.5-1.5-1.5-1.5 1.4-1.4zm0 .1l1.5 1.5 1.5-1.5-1.5-1.5-1.5 1.5zM138 123l1.5-1.5-1.5-1.5-1.5 1.5 1.5 1.5zm-21.4 18.5l1.5 1.5 1.5-1.5-1.5-1.5-1.5 1.5zm5.9 0l-1.4-1.4-1.5 1.5 1.5 1.4-1.5 1.5 1.5 1.5 1.5-1.5-1.5-1.4 1.4-1.6 1.5 1.5 1.5-1.5-1.5-1.5-1.5 1.5zm.1-2.9l-1.5-1.5-1.5 1.5 1.5 1.5 1.5-1.5zm-1.9-45.1l.1-.7-1.4-.2-.1.7-.1.7 1.4.2.1-.7zM83.3 46l.7.1.7.1.2-1.4-.7-.1-.7-.1-.2 1.4zm34.8 53.4c1.3.4 0 0 1.4.4l.4-1.4-1.4-.4-.4 1.4zm-7.6 14.7l1.1.9.9-1.1-1.1-.9-.9 1.1zm-32-68.5c.7.1 0 0 .7 0v-1.4h-1.4v1.4h.7zm28.7 72.1l-.5.5 1 1 .5-.5.5-.5-1-1-.5.5zm10.2-12.5l.3-.7.3-.6-1.3-.5-.5 1.3c1.3.5 0 0 1.2.5zM114 109l-.4.6c1.3.7 0 0 1.1.7l.4-.6.4-.6-1.2-.7-.3.6zM88.7 47.1l.7.2.7.2.4-1.4-.7-.2-.7-.2-.4 1.4zM66.8 47l1.4-.3-.3-1.4-1.4.3.3 1.4zm-19 10.9l1-1-1-1-1 1 1 1zm4.2-3.6l1-.9-.8-1.1-1.1.8.9 1.2zm4.6-3.1l1.2-.7-.7-1.2-1.2.7.7 1.2zM43 61.2l1.1.9.9-1.1-1.2-.9-.4.6-.4.5zm71.9 7.1l1.2-.7-.3-.6-.3-.6-1.2.7.3.6c.4.7 0 0 .3.6zm3.1 3.3l-1.3.5.2.7c.3.6 0 0 .3.7l1.3-.5-.3-.7-.2-.7zm1.4 11.2l.1.7.1.7 1.4-.1-.2-1.4-1.4.1zm1.7 5v-.7h-1.4v1.4h1.4v-.7zM72.2 46l1.5-.2-.2-1.4-1.4.1.1 1.5zm47.6 31.1l-1.4.3.2.7c.1.7 0 0 .2.7l1.4-.3-.2-.7-.2-.7zM61.5 48.7l1.3-.5-.5-1.3-1.3.5c.5 1.4 0 0 .5 1.3zm-11.5 73l.6.4c.6.4 0 0 .5.5l.9-1.1-1.1-.9-.9 1.1zm-10.8-13.2l.3.6.4.6 1.2-.7-.7-1.2-1.2.7zm63.9 12.9l-.6.4c.8 1.1 0 0 .9 1.1l.6-.4.6-.4-.9-1.1-.6.4zm-4.1 2.7l-1.2.7.7 1.2 1.2-.7-.7-1.2zm-53.1-6.3l.5.5.5.5 1-1-1-1-1 1zm-3.7-4.5l.4.6c.5.6 0 0 .5.5l1.1-.8-.9-1.1-1.1.8zm13.3 10.4l-.7 1.2.6.4c.6.4 0 0 .6.3l.7-1.2-1.2-.7zm32 5.1l.4 1.4.7-.2.7-.2-.4-1.4-1.4.4zm-22.3.8l.7.2.7.2.4-1.4-1.4-.4-.4 1.4zm16.8.1l.2 1.4.7-.1.7-.1-.2-1.4-1.4.2zm-5.5 1.7h1.4V130h-1.4v1.4zm17.6-4.8l-1.3.5.5 1.3 1.3-.5-.5-1.3zm-23.3 4.3l.7.1.7.1.2-1.4-1.4-.2-.2 1.4zM33.9 87.8c1.5.1 0 0 1.4 0v-1.4h-1.4v1.4zm1.6 11.4l1.4-.3-.2-.7-.2-.7-1.4.3.2.7c.1.7 0 0 .2.7zm0-7.2l-1.4.2.1.7.1.7 1.4-.2-.2-1.4zm.3-16.9l-.4 1.4 1.4.4.4-1.4-1.4-.4zm-1.5 7l1.4.2.2-1.4-1.4-.2-.2 1.4zm77.8-18.6l1.1-.8-.8-1.1-1.1.8.4.6c.4.6 0 0 .4.5zM41 66.7l.7-1.3-1.2-.7-.7 1.2 1.2.8zm-4.3 36.5l.3.7c.3.7 0 0 .2.6l1.3-.5-.5-1.3-1.3.5zm1.2-33.4l-.6 1.3c1.3.5 0 0 1.3.6l.6-1.3-1.3-.6zm71.7-11.5l-1-1-1 1 .5.5.5.5 1-1zm-14.3-8.7l.6-1.3-.7-.3-.6-.3L94 49l.6.2c.7.3 0 0 .7.4zm9.4 5.8l.9-1.1-.6-.4-.5-.4-.9 1.1.5.4c.5.5 0 0 .6.4zm-3.9-4.4l-.6-.4-.6-.4-.7 1.2.6.4.6.4.7-1.2zm-40.9 76.6l.6.3.6.3.6-1.3-1.3-.6-.5 1.3zM21.5 53.5h2v-2h-2v2zm-2-4v2h2v-2h-2zm-2-2v2h2v-2h-2zm0 6h2v-2h-2v2zm4-4.1h2v-2h-2v2zM14 61h2v-2h-2v2zm-.1-4h-2v2h2v-2zm-4-2v2h2v-2h-2zm2 4h-2v2h2v-2zm4.1-4.1h-2v2h2v-2zm122.3 6h2v-2h-2v2zm4-2v-2h-2v2h2zm2-4h-2v2h2v-2zm-6 0v2h2v-2h-2zm4.1 6.1h2v-2h-2v2zm-11.6-7.6h2v-2h-2v2zm4-2v-2h-2v2h2zm2-4h-2v2h2v-2zm-6 0v2h2v-2h-2zm4 4.1v2h2v-2h-2zM39.3 9.1H23.1v1.4h16.2V9.1zm46 0h-44v1.4h44V9.1zm54.1 0h-18.1v1.4h18.1V9.1zm-21 0h-31v1.4h31V9.1zm29.8 0h-6v1.4h4.8l-1.5 2.8h-11.3v1.4h10.5l-1.2 2.3h-6.3v1.4h5.5l-1.3 2.4h-2.8v1.4h2.8l1.5 2.7h-5.6v1.4h6.4l1.2 2.3h-10.6V30h11.4l1.4 2.6H92.6V34h55.6l.6-1.1-6.1-11.3 6.1-11.4-.6-1.1zM90.9 32.6h-7.8V34h7.8v-1.4zm-9.5 0H35.8V34h45.6v-1.4zm-48.1 0H8L9.4 30h11.7v-1.4H10.2l1.3-2.3h6.6v-1.4h-5.8l1.5-2.7h2.9v-1.4h-2.9l-1.4-2.4H18V17h-6.4l-1.3-2.3H21v-1.4H9.6L8 10.5h11.3V9.1H6.8l-.6 1.1 6.4 11.3-6.4 11.4.6 1.1h26.5v-1.4zm62.4 31.3v41.6c0 .6-.5 1.1-1.2 1.1h-8.7c-.7 7.3-7.6 11.4-7.9 11.6 0 .1-.1.2-.3.2h-.1c-.1 0-.2 0-.3-.1-.1 0-.2-.1-.2-.1-.3-.2-7.3-4.3-7.9-11.6h-8.5c-.6 0-1.1-.5-1.1-1.1V63.9c0-.4.2-.8.6-1 .4-.2.8-.2 1.2.1 10.7 7.6 9.2 24.8 9.1 25.5 0 .3-.2.6-.4.8-.1.3-.4.6-.8.6-1.4.3-2.6 1.5-2.7 3 0 .1.1.2.1.4v.4c.3 1.6 1.6 2.8 3.2 2.8.7 0 1.3-.2 1.9-.6.2-.5.5-.9.7-1.4 1.8-3.5 3.4-6.7 3.4-10.4 0-4.4-.7-9.1-1.3-13.2-.4-3.1-.8-5.7-.8-7.6 0-4.7 3-7.1 3.1-7.2h.1c.1 0 .1-.1.2-.1s.1-.1.2-.1h.4c.1 0 .1 0 .2.1.1 0 .1.1.2.1h.1c.1.1 3.1 2.4 3.1 7.2 0 1.9-.4 4.5-.8 7.6-.6 4.1-1.3 8.8-1.3 13.2 0 3.7 1.7 7 3.4 10.4.2.5.5.9.7 1.4.6.4 1.2.6 1.9.6 1.8 0 3.3-1.5 3.3-3.3 0-1.6-1.1-2.9-2.7-3.3-.6-.1-1-.7-.9-1.3v-.1c-.1-.7-1.6-18 9.1-25.5.3-.2.8-.3 1.2-.1.3.2.5.6.5 1zm-5.2 28.3h2.9V66.3c-7 6.9-6.6 19.4-6.4 21.7 1.8.6 3.2 2.2 3.5 4.2zm-8.6 6c-1.2.3-3.2 1.1-3.2 3.2v3h5.1c-.2-2.1-1-4.2-1.9-6.2zm-6-34.9c0 1.7.4 4.3.8 7.2.2 1.6.5 3.4.7 5.2.2-1.8.5-3.5.7-5.2.4-3 .8-5.5.8-7.2 0-2.3-.9-3.8-1.5-4.6-.6.8-1.5 2.3-1.5 4.6zM74 96.1c1.2.4 2.5 1.1 3.4 2.2.9-1.1 2.2-1.8 3.4-2.2-.1-.2-.2-.4-.3-.5-1.2-2.4-2.4-4.8-3.1-7.3-.7 2.6-1.9 5-3.1 7.3-.1.2-.2.4-.3.5zm-2.7 8.3h5v-3-.4c-.3-1.8-2-2.5-3.1-2.8-.9 2-1.7 4.1-1.9 6.2zm-9.6-38.1v25.9h2.6c.4-2.1 1.9-3.7 3.8-4.3.2-2.5.6-14.8-6.4-21.6zm0 38.1H69c.2-2 .7-3.8 1.4-5.6h-.6c-2.7 0-4.9-1.9-5.5-4.4h-2.6v10zm14.7 10.7c0-2.1 0-5.5-.1-8.5h-5.1c.5 4 3.3 6.9 5.2 8.5zm7.4-8.5h-5.1v8.4c1.8-1.6 4.7-4.5 5.1-8.4zm9.6-2.2v-10h-2.9c-.5 2.5-2.8 4.4-5.5 4.4h-.6c.8 1.8 1.3 3.7 1.4 5.6h7.6zm22.8-16.6c.1 21.4-17.3 38.7-38.7 38.7s-38.7-17.4-38.7-38.7c0-21.4 17.4-38.7 38.7-38.7 21.4 0 38.7 17.4 38.7 38.7zm-1.4 0c0-20.6-16.7-37.3-37.3-37.3S40.2 67.2 40.2 87.8c0 20.6 16.7 37.3 37.3 37.3s37.3-16.7 37.3-37.3zM176 77.2h-1.4v34.3h1.4V77.2zm-7.1 12.6h1.4v-1.4h-1.4v1.4zm0 2.8h1.4v-1.4h-1.4v1.4zm0 5.7h1.4v-1.4h-1.4v1.4zm0-11.3h1.4v-1.4h-1.4V87zm0 8.5c1.4 0 0 0 1.4-.1V94h-1.4v1.5zm0 5.6h1.4v-1.4h-1.4v1.4zm0 2.9h1.4v-1.4h-1.4v1.4zm118.4 7.5h1.4V77.2h-1.4v34.3zm5.7-11.2h1.4v-1.4H293v1.4zm0-14.2h1.4v-1.4H293v1.4zm0 8.5h1.4v-1.4H293v1.4zm0 2.9h1.4v-1.4H293v1.4zm0-5.7h1.4v-1.4H293v1.4zm0-2.8h1.4v-1.4H293V89zm0 14.1h1.4v-1.4H293v1.4zm-75.7-88.9v5.9h1.1v-2.4h2.1v2.4h1.1v-5.9h-1.1v2.4h-2.1v-2.4h-1.1zm9.5 0v.8h.8v5.1h-1.1v-2.4h-2.1v2.4h-1.1V15h.8v-.8h2.7zm-2.4 2.4h2.1v-1.3h-2.1v1.3zm8.4-2.4v.8h.8v1.9h-.8v.8h-2.4v2.4h-1.1v-5.9h3.5zm-.3 1.1h-2.1v1.3h2.1v-1.3zm6.3-1.1v.8h.8v1.9h-.8v.8h-2.4v2.4h-1.1v-5.9h3.5zm-.3 1.1h-2.1v1.3h2.1v-1.3zm3.7 1.6h.8v3.2h1v-3.2h.9v-.8h.8v-1.9h-1.1v1.6h-.8v.8h-.5v-.8h-.8v-1.6h-1.1v1.9h.8v.8zm-54.9 6.4v-1.1H183v1.1h1.6V27H183v1.1h4.3V27h-1.6v-3.7h1.6zm1.7-1.1v5.9h1v-3.2h.5v.8h.8v.8h.8v1.6H193.3v-5.9h-1.1v3.2h-.5v-.8h-.8v-.8h-.8v-1.6H189zm9.4 5.9H195v-5.9h3.5v.8h.8v4.3h-.8l-.1.8zm-.3-4.8H196V27h2.1v-3.7zm7.2 0v-1.1H201v5.9h4.2V27H202v-1.3h2.4v-1.1H202v-1.3h3.3zm5.2-1.1v.8h.8v1.9h-.8v.8H208v2.4h-1v-5.9h3.5zm-.4 1.1H208v1.3h2.1v-1.3zm7.2 0v-1.1H213v5.9h4.2V27H214v-1.3h2.4v-1.1H214v-1.3h3.3zm3.6 1.3v-.8h-.8v-1.6H219v5.9h1v-3.2h.5v.8h.8v.8h.8v1.6H223.3v-5.9h-1.1v3.2h-.5v-.8h-.8zm7.6-2.4v.8h.8v4.3h-.8v.8H225v-5.9h3.5zm-.4 1.1H226V27h2.1v-3.7zm7.2 0v-1.1H231v5.9h4.2V27H232v-1.3h2.4v-1.1H232v-1.3h3.3zm4.9 2.1h-.5v-.8h-.8v-.8h-.8v-1.6H237v5.9h1v-3.2h.5v.8h.8v.8h.8v1.6H241.3v-5.9h-1.1v3.2zm6.2 1.9h.8v-1.1h-1.1v.8H244v-3.7h2.2v.8h1.1V23h-.8v-.8h-2.7v.8h-.8v4.3h.7v.8h2.7v-.8zm6.9-4v-1.1H249v5.9h4.2V27H250v-1.3h2.4v-1.1H250v-1.3h3.3zm11.2-1.1v.8h.8v4.3h-.8v.8H261v-5.9h3.5zm-.4 4.8v-3.7H262V27h2.1zm6 1.1v-2.4H268v2.4h-1V23h.8v-.8h2.7v.8h.8v5.1H270.1zm-2.1-3.5h2.1v-1.3H268v1.3zm5-2.4v1.9h.7v.8h.8v3.2H275.7v-3.2h.8v-.8h.8v-1.9h-1.1v1.6h-.8v.8h-.5v-.8h-.8v-1.6H273zm7.1 0H279v4.3h1.1v-4.3zm-1.1 5.9h1.1V27H279v1.1zm-24.8 115.1h1.4v-1.4h-1.4v1.4zm-5.7 0h1.4v-1.4h-1.4v1.4zm2.8 0h1.4v-1.4h-1.4v1.4zm-25.5 0h1.4v-1.4h-1.4v1.4zm-5.6 0h1.4v-1.4h-1.4v1.4zm-11.4 0h1.4v-1.4h-1.4v1.4zm14.2 0h1.4v-1.4H223v1.4zm22.7 0h1.4v-1.4h-1.4v1.4zm-11.4 0h1.4v-1.4h-1.4v1.4zm-17 0h1.4v-1.4h-1.4v1.4zm-2.8 0h1.4v-1.4h-1.4v1.4zm17 0h1.4v-1.4h-1.4v1.4zm-19.8 0h1.4v-1.4h-1.4v1.4zm31.1 0h1.4v-1.4h-1.4v1.4zm-14.1 0h1.4v-1.4h-1.4v1.4zm11.3 0h1.4v-1.4H240v1.4zm-2.8 0h1.4v-1.4h-1.4v1.4zm-61.3-5.6l1.5 1.5-1.5 1.5-1.5-1.5-1.4 1.4-1.5-1.5 1.5-1.5-1.5-1.5 1.5-1.5 1.5 1.5 1.4-1.4 1.5 1.5-1.5 1.5zm-1.5-1.5l-1.4 1.4 1.5 1.5 1.4-1.4-1.5-1.5zM171 126l1.5-1.5 1.5 1.5 1.5-1.5-1.5-1.5-1.5 1.5-1.5-1.5-1.5 1.5-1.5-1.5-1.5 1.5 1.5 1.5 1.5-1.5 1.5 1.5-1.5 1.5 1.5 1.5 1.5-1.5-1.5-1.5zm1.5-4.5L171 120l-1.5 1.5 1.5 1.5 1.5-1.5zm16.9 20l-1.5-1.5-1.4 1.4-1.4-1.4-1.5 1.5 1.5 1.5 1.4-1.4 1.4 1.4 1.5-1.5 1.5 1.5 1.5-1.5-1.5-1.5-1.5 1.5zm-2.9 3l1.5 1.5 1.5-1.5-1.5-1.5-1.5 1.5zm2.9-6l-1.5-1.5-1.5 1.5 1.5 1.5 1.5-1.5zm101.8-.9l1.5 1.5-1.5 1.5-1.4-1.4-1.5 1.5-1.5-1.5 1.4-1.4-1.5-1.5 1.5-1.5 1.4 1.4 1.5-1.5 1.5 1.5-1.4 1.4zm-1.5-1.4l-1.4 1.4 1.4 1.4 1.4-1.4-1.4-1.4zm4.8-11.7L293 123l-1.5 1.5-1.4-1.4-1.5 1.5 1.5 1.5 1.5-1.5 1.4 1.4-1.4 1.4 1.5 1.5 1.5-1.5-1.5-1.5 1.4-1.4zm0 .1l1.5 1.5 1.5-1.5-1.5-1.5-1.5 1.5zM293 123l1.5-1.5-1.5-1.5-1.5 1.5 1.5 1.5zm-21.4 18.5l1.5 1.5 1.5-1.5-1.5-1.5-1.5 1.5zm5.9 0l-1.4-1.4-1.5 1.5 1.5 1.4-1.5 1.5 1.5 1.5 1.5-1.5-1.5-1.4 1.4-1.6 1.4 1.5 1.5-1.5-1.5-1.5-1.4 1.5zm.1-2.9l-1.5-1.5-1.5 1.5 1.5 1.5 1.5-1.5zm-80.8-28.5l-1.2.8.4.6.4.6 1.2-.8-.8-1.2zm51-61.7l.5-1.3-.7-.2-.7-.2-.5 1.3.7.2c.6.3 0 0 .7.2zm-13.6 81.5l.1 1.4h.7c.7 0 0 0 .7-.1l-.1-1.4-1.4.1zm-11.3.4l.7.2.7.1.3-1.4-1.4-.3-.3 1.4zM189 90.7c1.5-.1 0 0 1.4-.1l-.1-1.4-1.4.1.1 1.4zm63.7-39.9l.7-1.3-.6-.3-.6-.3-.7 1.3.6.3c.7.3 0 0 .6.3zM230 45.7h.7l.7-.1-.1-1.4-1.4.1.1 1.4zm-1.4 85.5l.7.1h.7l.1-1.4-1.4-.1-.1 1.4zm-25.7-11.5l.5.5.5.5 1-1.1-1.1-1-.9 1.1zm-4-4.1l.5.5c.5.6 0 0 .4.6l1.1-.9-.9-1.1-1.1.9zm59.4-63l-.6-.4-.6-.4-.8 1.2.6.4c.5.4 0 0 .6.4l.8-1.2zm5.8 63.2l-.5.5 1.1.9.5-.5.5-.5-1.1-.9-.5.5zm-8.9 7.6l.8 1.2 1.2-.8-.8-1.2-1.2.8zm4.9-3.8l-.5.5c1 1.1 0 0 .9 1.1l.5-.5.5-.5-.9-1.1-.5.5zm-20.3 9.7c.2 1.4 0 0 .3 1.3l.7-.1.7-.1-.3-1.4-1.4.3zm-38.9-69.2l1-1.1-1.1-1-1 1c1.1.9 0 0 1.1 1.1zm66.2 51.8l1.2.8.8-1.2-1.2-.8-.8 1.2zm5.7-36.5l.2.7 1.4-.4-.2-.7-.2-.7-1.4.4.2.7zM214 49.9l1.3-.6-.6-1.3-1.3.6.6 1.3zm32.8 79l-.4-1.3-1.3.4c.5 1.4 0 0 .3 1.3l.7-.2.7-.2zm4.8-3.5l-1.3.6.6 1.3 1.3-.6-.6-1.3zm-32.4-77.7l1.3-.4-.4-1.3-1.4.4c.5 1.4 0 0 .5 1.3zm5.4-1.3l1.4-.2-.3-1.4-1.4.2c.2 1.4 0 0 .3 1.4zm16.5.1l.7.2c.6.1 0 0 .7.2l.3-1.4-.7-.2-.7-.2-.3 1.4zM275.9 85v-.7l-1.4.1.1 1.4c1.5-.1 0 0 1.3-.1V85zm.1 5.7V90l-1.4-.1v1.4l1.4.1v-.7zm-2-10.6l.1.7.1.7 1.4-.2-.2-1.4-1.4.2zm-80.5 27.2l1.3-.6-.6-1.3-1.3.6.3.6c.3.6 0 0 .3.7zm1.3-38.2l.6-1.3-1.3-.6-.6 1.3c1.2.6 0 0 1.3.6zm13.3 53.1l-.8 1.2.6.4.6.4.8-1.2-1.2-.8zm65.5-19.5l.2-.7.2-.7-1.3-.5-.5 1.3c1.3.5 0 0 1.4.6zM237 45.9l.1-1.4-.7-.1-.7-.1-.1 1.4.7.1.7.1zm34.6 61.3l.3-.6-1.3-.6-.3.6-.3.6c1.2.6 0 0 1.3.6l.3-.6zm2.1-10.4l1.4.3.3-1.4-1.4-.3-.3 1.4zM271.9 69l-1.3.6.3.6c.3.7 0 0 .3.6l1.3-.6-.3-.6-.3-.6zm-75.2-6.1l-.4.6 1.2.8.8-1.2-1.2-.8-.4.6zm8.1-6.9l1.1-.9-.9-1.1-1.1.9.9 1.1zm-14.7 21.9l-.3 1.4 1.4.3.3-1.4-1.4-.3zm.4 5.8l-1.4-.1-.1 1.4 1.4.1.1-1.4zm26.9 45l.7.2c.7.3 0 0 .6.3l.5-1.3-1.3-.5-.5 1.3zm43.8-71.8c.5.4 0 0 .5.5l1-1-1-1-1 1 .5.5zm-69.4 15.5l-.5 1.3 1.3.5.5-1.3-1.3-.5zm-.8 22.3l-1.4.3.1.7c.1.7 0 0 .2.7l1.4-.3-.3-1.4zm1.5 6.1l-.2-.7-1.4.4.2.7.2.7 1.4-.4-.2-.7zm76.1-34.9l1.2-.7-.4-.6-.4-.6-1.2.8.4.6c.4.6 0 0 .4.5zm-4-5.5l.4.5c.4.5 0 0 .5.6l1.1-.9-.9-1.1-1.1.9zm-52.4 66l.6.3.7.3.6-1.3-1.3-.6-.6 1.3zm-2.9-73.8l1.2-.8-.8-1.2-1.2.8c.7 1.2 0 0 .8 1.2zm-32.8.9h2v-2h-2v2zm-2-4v2h2v-2h-2zm-2-2v2h2v-2h-2zm0 6h2v-2h-2v2zm4-4.1h2v-2h-2v2zM169 61h2v-2h-2v2zm-.1-4h-2v2h2v-2zm-4-2v2h2v-2h-2zm2 4h-2v2h2v-2zm4.1-4.1h-2v2h2v-2zm122.3 6h2v-2h-2v2zm4-2v-2h-2v2h2zm2-4h-2v2h2v-2zm-6 0v2h2v-2h-2zm4.1 6.1h2v-2h-2v2zm-11.6-7.6h2v-2h-2v2zm4-2v-2h-2v2h2zm2-4h-2v2h2v-2zm-6 0v2h2v-2h-2zm4 4.1v2h2v-2h-2zM194.3 9.1h-16.2v1.4h16.2V9.1zm46 0h-44v1.4h44V9.1zm54.1 0h-18.1v1.4h18.1V9.1zm-21 0h-31v1.4h31V9.1zm30.4 1.1l-.6-1.1h-6v1.4h4.8l-1.5 2.8h-11.3v1.4h10.5l-1.2 2.3h-6.3v1.4h5.5l-1.3 2.4h-2.8v1.4h2.8l1.5 2.7h-5.6v1.4h6.4l1.2 2.3h-10.6V30h11.4l1.4 2.6h-54.4V34h55.6l.6-1.1-6.1-11.3 6-11.4zm-57.9 22.4h-7.8V34h7.8v-1.4zm-9.5 0h-45.6V34h45.6v-1.4zm-48.1 0H163l1.4-2.6h11.7v-1.4h-10.9l1.3-2.3h6.6v-1.4h-5.8l1.5-2.7h2.9v-1.4h-2.9l-1.4-2.4h5.6V17h-6.4l-1.3-2.3H176v-1.4h-11.5l-1.6-2.8h11.3V9.1h-12.5l-.6 1.1 6.4 11.3-6.4 11.4.6 1.1h26.5v-1.4zm44.2 93.9c-21.4 0-38.7-17.4-38.7-38.7 0-21.4 17.4-38.7 38.7-38.7 21.4 0 38.7 17.4 38.7 38.7.1 21.4-17.3 38.7-38.7 38.7zm0-1.4c20.6 0 37.3-16.7 37.3-37.3 0-20.6-16.7-37.3-37.3-37.3-20.6 0-37.3 16.7-37.3 37.3 0 20.6 16.7 37.3 37.3 37.3zm-38.9-75.6c1.4 0 0 0 1.4-.1V48h-1.4v1.5zm0 2.9h1.4V51h-1.4v1.4zm0 2.9h1.4v-1.4h-1.4v1.4zm0 2.7h1.4v-1.4h-1.4V58zm0-11.4h1.4v-1.4h-1.4v1.4zm0-2.8h1.4v-1.4h-1.4v1.4zm1.4-4.4V38h-1.4v1.5c1.4 0 0 0 1.4-.1zm1.4 10.1v1.4h1.4v-1.4h-1.4zm2.8 1.4h-1.4v1.4h1.4v-1.4zm.7-1.4h.7v-1.4h-1.4v1.4h.7zm3.6-1.4h-1.4v1.4h1.4v-1.4zm-7.1-.1h1.4v-1.4h-1.4V48zm2.8-2.7h1.4v-1.4h-1.4v1.4l-1.4-.1v1.4h1.4v-1.3zm3.4-2.8h.7v-1.4h-1.4v1.4h.7zM192.2 48v-1.4h-1.4V48h1.4zm-2.8-2.8v1.4h1.4v-1.4h-1.4zm-1.5 0h1.4v-1.4h-1.4v1.4zm-2.8-2.8h1.4V41h-1.4v1.4zm7.1 7.1h-1.4v1.4h1.4v-1.4zm-2.8 2.8h1.4v-1.4h-1.4v1.4zm-1.5 1.5h-1.4v1.4h1.4v-1.4zm0-4.3h1.4v-1.4h-1.4v1.4zm-2.8 0h1.4v-1.4h-1.4v1.4zm84.8 0c1.4 0 0 0 1.4-.1V48h-1.4v1.5zm0 2.9h1.4V51h-1.4v1.4zm0 2.9h1.4v-1.4h-1.4v1.4zm0 2.7h1.4v-1.4h-1.4V58zm0-11.4h1.4v-1.4h-1.4v1.4zm0-2.8h1.4v-1.4h-1.4v1.4zm0-4.3c1.4 0 0 0 1.4-.1V38h-1.4v1.5zm-1.4 10h-1.4v1.4h1.4v-1.4zm-1.4 1.4h-1.4v1.4h1.4v-1.4zm-2.9-1.4h1.4v-1.4h-1.4v1.4zm-2.8 0h1.4v-1.4h-1.4v1.4zm7.1-1.5v-1.4h-1.4V48h1.4zm-4.2-4.1v1.4h1.4v1.3h1.4v-1.4h-1.4v-1.3h-1.4zm-1.4-2.8h-1.4v1.4h1.4v-1.4zm9.8 6.9h1.4v-1.4h-1.4V48zm1.4-1.4h1.4v-1.4h-1.4v1.4zm1.4-1.4h1.4v-1.4h-1.4v1.4zm4.2-2.8V41h-1.4v1.4h1.4zm-7 8.5h1.4v-1.4h-1.4v1.4zm2.8 1.4v-1.4h-1.4v1.4h1.4zm1.4 2.9h1.4v-1.4h-1.4v1.4zm-.7-5.7h.7v-1.4h-1.4v1.4h.7zm2.1 0h1.4v-1.4h-1.4v1.4zm-4.3 72.1h-1.4v1.4h1.4v-1.4zm-4.3 1.4h1.4v-1.4h-1.4v1.4zm-2.8 0h1.4v-1.4h-1.4v1.4zm8.6 0h1.4v-1.4h-1.4v1.4zm4.2-1.4h-1.4v1.4h1.4v-1.4zm2.9 1.4h1.4v-1.4h-1.4v1.4zm-10.1-2.8v-1.4h-1.4v1.4h1.4zm-2.8-2.8v1.4h1.4v-1.4h-1.4zm2.8 0h1.4V116h-1.4v1.4zm1.4-4.3h-1.4v1.4h1.4v-1.4zm.1 7.1h1.4v-1.4H274v1.4zm2.8-2.8h-1.4v1.4h1.4v-1.4zm1.4-1.4h1.4v-1.4h-1.4v1.4zm1.5 2.8h1.4v-1.4h-1.4v1.4zm-4.3 5.6H274v1.4h1.4v-1.4zm1.4 2.8v-1.4h-1.4v1.4h1.4zm1.4 2.1v.7h1.4v-1.4h-1.4v.7zm1.5-2.8v.7h1.4v-1.4h-1.4v.7zm-7.2-2.1h-1.4v1.4h1.4v-1.4zm-2.8 2.1v.7h1.4v-1.4h-1.4v.7zm-2.8 3.6h1.4v-1.4h-1.4v1.4zm7.1-2.8h-1.4v1.4h1.4v-1.4zm0 2.8h-1.4v1.4h1.4v-1.4zm-81.7-8.5h-1.4v1.4h1.4v-1.4zm1.5 1.4h1.4v-1.4h-1.4v1.4zm2.8 0h1.4v-1.4h-1.4v1.4zm-8.6 0h1.4v-1.4H188v1.4zm-1.4-1.4h-1.4v1.4h1.4v-1.4zm-5.7 1.4h1.4v-1.4h-1.4v1.4zm11.5-2.8h1.4v-1.4h-1.4v1.4zm1.4-1.4h1.4v-1.4h-1.4v1.4zm-1.4-2.8H191v1.4h1.4V116zm0-2.9H191v1.4h1.4v-1.4zm-1.5 7.1v-1.4h-1.4v1.4h1.4zm-2.8-2.8v1.4h1.4v-1.4h-1.4zm-2.8-1.4h1.4v-1.4h-1.4v1.4zm-.1 1.4h-1.4v1.4h1.4v-1.4zm5.7 7h-1.4v1.4h1.4v-1.4zm-1.4 1.4h-1.4v1.4h1.4v-1.4zm-2.8 3.6v-.7h-1.4v1.4h1.4v-.7zm-2.9-2.1h1.4v-.7-.7h-1.4v1.4zm10-2.9h-1.4v1.4h1.4v-1.4zm0 2.9h1.4v-.7-.7h-1.4v1.4zm2.8 2.8h1.4v-1.4h-1.4v1.4zm-4.3-2.8h-1.4v1.4h1.4v-1.4zm0 2.8h-1.4v1.4h1.4v-1.4zm58.4-66.2v41.6c0 .6-.5 1.1-1.2 1.1h-8.7c-.7 7.3-7.6 11.4-7.9 11.6 0 .1-.1.2-.3.2h-.1c-.1 0-.2 0-.3-.1-.1 0-.2-.1-.2-.1-.3-.2-7.3-4.3-7.9-11.6h-8.5c-.6 0-1.1-.5-1.1-1.1V63.9c0-.4.2-.8.6-1 .4-.2.8-.2 1.2.1 10.7 7.6 9.2 24.8 9.1 25.5 0 .3-.2.6-.4.8-.1.3-.4.6-.8.6-1.4.3-2.6 1.5-2.7 3 0 .1.1.2.1.4v.4c.3 1.6 1.6 2.8 3.2 2.8.7 0 1.3-.2 1.9-.6.2-.5.5-.9.7-1.4 1.8-3.5 3.4-6.7 3.4-10.4 0-4.4-.7-9.1-1.3-13.2-.4-3.1-.8-5.7-.8-7.6 0-4.7 3-7.1 3.1-7.2h.1c.1 0 .1-.1.2-.1s.1-.1.2-.1h.4c.1 0 .1 0 .2.1.1 0 .1.1.2.1h.1c.1.1 3.1 2.4 3.1 7.2 0 1.9-.4 4.5-.8 7.6-.6 4.1-1.3 8.8-1.3 13.2 0 3.7 1.7 7 3.4 10.4.2.5.5.9.7 1.4.6.4 1.2.6 1.9.6 1.8 0 3.3-1.5 3.3-3.3 0-1.6-1.1-2.9-2.7-3.3-.6-.1-1-.7-.9-1.3v-.1c-.1-.7-1.6-18 9.1-25.5.3-.2.8-.3 1.2-.1.3.2.5.6.5 1zm-5.2 28.3h2.9V66.3c-7 6.9-6.6 19.4-6.4 21.7 1.8.6 3.2 2.2 3.5 4.2zm-8.6 6c-1.2.3-3.2 1.1-3.2 3.2v3h5.1c-.2-2.1-1-4.2-1.9-6.2zm-6-34.9c0 1.7.4 4.3.8 7.2.2 1.6.5 3.4.7 5.2.2-1.8.5-3.5.7-5.2.4-3 .8-5.5.8-7.2 0-2.3-.9-3.8-1.5-4.6-.6.8-1.5 2.3-1.5 4.6zM229 96.1c1.2.4 2.5 1.1 3.4 2.2.9-1.1 2.2-1.8 3.4-2.2-.1-.2-.2-.4-.3-.5-1.2-2.4-2.4-4.8-3.1-7.3-.7 2.6-1.9 5-3.1 7.3-.1.2-.2.4-.3.5zm-2.7 8.3h5v-3-.4c-.3-1.8-2-2.5-3.1-2.8-.9 2-1.7 4.1-1.9 6.2zm-9.6-38.1v25.9h2.6c.4-2.1 1.9-3.7 3.8-4.3.2-2.5.6-14.8-6.4-21.6zm0 38.1h7.3c.2-2 .7-3.8 1.4-5.6h-.6c-2.7 0-4.9-1.9-5.5-4.4h-2.6v10zm14.7 10.7c0-2.1 0-5.5-.1-8.5h-5.1c.5 4 3.3 6.9 5.2 8.5zm7.4-8.5h-5.1v8.4c1.8-1.6 4.7-4.5 5.1-8.4zm9.6-2.2v-10h-2.9c-.5 2.5-2.8 4.4-5.5 4.4h-.6c.8 1.8 1.3 3.7 1.4 5.6h7.6z"/></svg>