<svg id="Layer_1" xmlns="http://www.w3.org/2000/svg" viewBox="0 0 310 155" width="310" height="155"><style>.st0{fill:#231f20}</style><path class="st0" d="M113.6 130.6l1 1-1 1-1-1 1-1zm2.4-88l-1 1 1 1 1-1-1-1zm-3-3l-1-1-1 1 1 1 1-1zm1 1l-1 1 1 1 1-1-1-1zm-3-3l-1-1-1 1 1 1 1-1zm-4-2l1 1 1-1-1-1-1 1zm3.4-15.6H109v1.4h1.4V20zM271.9 8.9h-2.4v.8h2.4v-.8zM120.6 123.6l1 1 1-1-1-1-1 1zm5-3l1-1-1-1-1 1c1.1 1 0 0 1 1zm-1.6-70l-1 1 1 1 1-1-1-1zm-1.4 71l1 1 1-1-1-1-1 1zm-8 8l1 1 1-1-1-1-1 1zM128 54.7l-1 1 1 1 1-1-1-1zm-2-2.1l-1 1c1 1.1 0 0 1 1l1-1-1-1zm-9.4 75l1 1 1-1-1-1-1 1zm1.4-83l-1 1 1 1 1-1-1-1zm.6 81l1 1 1-1-1-1-1 1zm3.4-77l-1 1 1 1 1-1-1-1zm-2-2l-1 1 1 1 1-1-1-1zm6.7 71l1 1 1-1-1-1-1 1zm157.9-65.5l1-1-18.2-18.2-1 1 18.2 18.2zM166.5 29.5h-2.1v2.1h2.1v-2.1zm-2.9 68.9h1.4V80.1h-1.4v18.3zm.8-62.7h2.1v-2h2.1v-2.1h-2.1v2h-2.1v-2h-2.1v2.1h2.1v2zm33.2-1.7l-1-1-18.2 18.2 1 1L197.6 34zm-8.9-21.9h2.4v2.4h.8V9.7h-.8v1.6h-2.4V9.7h-.8v4.8h.8v-2.4zm91.9 108.5l1-1-1-1-1 1c1.1 1 0 0 1 1zM191.1 8.9h-2.4v.8h2.4v-.8zm-.5 12.5h1.4V20h-1.4v1.4zM126.5 8.9h-.8v4h.8v-4zm56.2 3.2h2.4v2.4h.8V8.9h-.8v2.4h-2.4V8.9h-.8v5.6h.8v-2.4zm-59-3.2h-.8v1.6h.8V8.9zm2.8 4.8h-.8v.8h.8v-.8zm-9.6-4.8h-2.4v.8h2.4v-.8zm4.4 2.4v-.8h-.8v.8h.8zM116 21.4V20h-1.4v1.4h1.4zm-1.5-9.3h2.4v2.4h.8V9.7h-.8v1.6h-2.4V9.7h-.8v4.8h.8v-2.4zm155 0h2.4v2.4h.8V9.7h-.8v1.6h-2.4V9.7h-.8v4.8h.8v-2.4zm-74.8 0h2.4v-.8h-2.4V9.7h2.4v-.8h-3.2v5.6h.8v-2.4zm-72.6 2.4v-3.2h-.8v3.2h.8zM271 21.4V20h-1.4v1.4h1.4zM129.6 52.1l1-1-18.2-18.2-1 1 18.2 18.2zm-6.7-41.6h-.8v.8h.8v-.8zm-2.4-1.6h-.8v1.6h.8V8.9zM76.5 20h-1.4v1.4h1.4V20zm1.6-5.5h.8V8.9h-.8v1.6h-.8v.8h.8v3.2zm6.8-.8h-3.2v-1.6h2.4v-.8h-2.4V9.7h3.2v-.8h-4v5.6h4v-.8zm-21.1 7.7h1.4V20h-1.4v1.4zm18.3 0V20h-1.4v1.4h1.4zM70.9 20h-1.4v1.4h1.4V20zm11.8 73.2c-1 0-2-.2-3.1-.5-.1 0-.2-.1-.3-.2-.1-.1-.1-.2-.2-.3 0-.1-1.4-6 3.6-11.4 2.3-2.5 5.8-4.8 11.4-6.5h.4c.2.1.3.2.4.4.8 2-.4 8.7-3.6 13.3-2.3 3.4-5.3 5.2-8.6 5.2zm7.5-6c2.7-3.9 3.8-9.3 3.6-11.4-5 1.6-8.1 3.8-10.1 6-3.9 4.2-3.5 8.5-3.3 9.7 3.9 1 7.2-.5 9.8-4.3zm-2.4 9.9c.4 0 .7-.3.7-.6l.3-4.8c-.3.3-.8.7-1.3 1l-.3 3.7c0 .4.3.7.6.7zm-8.6-29.6c.1.2.3.4.6.4h.3c.2-.1 4.7-2 5.5-7.9 0-.4-.2-.8-.6-.8s-.8.2-.8.6c-.6 5.1-4.4 6.7-4.6 6.8-.4.2-.5.6-.4.9zm2.2-23.3c.1.1 2.1 2.7 3.6 5.5 3.5 6.5 3.4 9.6 3.4 9.7.1 7.1-5.3 12.7-12.1 13.1v20.4c-.1.4-.4.7-.7.7-.4 0-.7-.3-.7-.7V72.5c-6.9-.4-12.3-6-12.3-13v-.2-.9-.3c.7-6.5 6.9-13.7 7.1-14l.5-.6 2.5 3.3 2.5-3.3L78 47l2.9-3.5.5.7zm2.5 6.2c-1-1.9-2.3-3.7-2.9-4.7l-2.8 3.5-2.8-3.5-2.6 3.3-2.5-3.3c-1.5 1.9-5.7 7.6-6.3 12.6v1.2c0 6.4 5.1 11.6 11.5 11.6s11.6-5.2 11.6-11.6c0 0 0-2.9-3.2-9.1zm197.6-36.7h-.8v.8h.8v-.8zM94.4 68.6h.4c.1 0 3.9-1.6 4.5-6.5 0-.4-.2-.8-.6-.8s-.8.2-.8.6c-.5 4-3.6 5.3-3.7 5.4-.4.2-.5.6-.4.9.1.2.3.4.6.4zM63.7 8.9h-.8v4.8h.8V8.9zm6 .8h-.8v4h.8v-4zm211.8-.8h-.8v4h.8v-4zm-214.6 0h-.8v4.8h.8V8.9zm-1.6 1.6h-.8v3.2h.8v-3.2zm10.4.8h.8v-.8h-.8V8.9h-.8v5.6h.8v-3.2zm-6 3.2h2.4v-.8h-2.4v.8zm7.6-1.6v-1.6h-.8v1.6h.8zm-5.2-4h-2.4v.8h2.4v-.8zm.8 4.8v-4h-.8v4h.8zM107 33.6l-1-1-1 1 1 1 1-1zm170.9-23.1h-.8v.8h.8v-.8zM95.7 9.7v1.6h.8V9.7h-.8zm.8 1.6v.8h2.4v-.8h-2.4zm8.2 8.7h-1.4v1.4h1.4V20zm-5-7.9h-.8v1.6h.8v-1.6zm0-3.2h-3.2v.8h3.2v-.8zm176.6 2.4v-.8h-.8v.8h.8zm-164.6 2.4v-4h-.8v4h.8zm165.4.8v-3.2h-.8v3.2h.8zm-166.2-.8h-2.4v-4h2.4v-.8h-3.2v5.6h3.2v-.8zm19.8 101.9l-1-1-1 1 1 1 1-1zM93.7 8.9h-.8v2.4h.8V8.9zm-3.6 4v1.6h.8V8.9h-.8v3.2h-.8v.8h.8zm185.4-4h-.8v1.6h.8V8.9zM89.3 12.1v-.8h-.8v.8h.8zm9.6 1.6h-3.2v.8h3.2v-.8zm-11.2-2.4h.8v-.8h-.8V8.9h-.8v5.6h.8v-3.2zm.1 8.7h-1.4v1.4h1.4V20zM278.7 8.9h-.8v1.6h.8V8.9zm-181 12.5h1.4V20h-1.4v1.4zM86.6 48.6l2 3.1 2.5-2.8 2.2 3.3 2.7-2.9c.6.9 1.5 2.5 2.3 4.2 2.5 5.6 2.3 8.2 2.3 8.2-.4 5.6-5.3 9.9-10.9 9.5-1.8-.1-3.4-.7-4.9-1.6-.3.3-.7.6-1.1.9 1.5 1.1 3.3 1.8 5.2 2l-.2 3c.4-.2.9-.4 1.4-.6l.2-2.2h.2c6 0 11.1-4.7 11.5-10.8 0-.1.3-2.9-2.4-8.9-1.2-2.6-2.8-5-2.8-5.1l-.5-.7-2.8 2.9-2.3-3.3-2.5 2.7-2-3-.6.6c-.1.1-.5.5-1.1 1.2.3.3.5.7.7 1.1.4-.3.7-.6.9-.8zM93.4 20H92v1.4h1.4V20zm144.2 73.8c-1-.1-2-.5-3-.9-.1 0-.2-.1-.3-.2-.1-.1-.1-.2-.2-.3 0-.1-.6-6.1 5.1-10.8 2.6-2.2 6.4-4 12.2-4.9.1 0 .3 0 .4.1.2.1.3.2.3.5.5 2.1-1.6 8.6-5.4 12.7-2.6 2.8-5.8 4.2-9.1 3.8zm8.3-5c3.2-3.5 5.1-8.7 5.1-10.8-5.2.9-8.5 2.6-10.8 4.5-4.4 3.6-4.6 7.9-4.6 9.1 3.7 1.7 7.2.7 10.3-2.8zM66.1 14.5v-.8h-.8v.8h.8zm168.1 53c.1.2.3.4.6.4h.3c.2-.1 4.7-2 5.5-7.9 0-.4-.2-.8-.6-.8-.4 0-.8.2-.8.6-.6 5.1-4.4 6.7-4.6 6.8-.4.2-.5.6-.4.9zm15.2 1.1h.4c.1 0 3.9-1.6 4.5-6.5 0-.4-.2-.8-.6-.8s-.8.2-.8.6c-.5 4-3.6 5.3-3.7 5.4-.4.2-.5.6-.4.9.1.2.3.4.6.4zm-30.6-47.2h1.4V20h-1.4v1.4zm17.6 22.8c.1.1 2.1 2.7 3.6 5.5 3.5 6.5 3.4 9.6 3.4 9.7.1 7.1-5.3 12.7-12.1 13.1v20.4c-.1.4-.4.7-.7.7-.4 0-.7-.3-.7-.7V72.5c-6.9-.4-12.3-6-12.3-13v-.2-.9-.3c.7-6.5 6.9-13.7 7.1-14l.5-.6 2.5 3.3 2.5-3.3L233 47l2.9-3.5.5.7zm2.5 6.2c-1-1.9-2.3-3.7-2.9-4.7l-2.8 3.5-2.8-3.5-2.6 3.3-2.5-3.3c-1.5 1.9-5.7 7.6-6.3 12.6v1.2c0 6.4 5.1 11.6 11.5 11.6s11.6-5.2 11.6-11.6c0 0 0-2.9-3.2-9.1zm34.1-5.8l-1 1 1 1 1-1-1-1zM242.8 20h-1.4v1.4h1.4V20zm-.1-8.7h.8v-.8h-.8V8.9h-.8v5.6h.8v-3.2zm.1 85.8c.4 0 .7-.3.7-.6l.2-2.9-1.3.6-.2 2.2c0 .4.3.7.6.7zm-1.2-48.5l2 3.1 2.5-2.8 2.2 3.3 2.7-2.9c.6.9 1.5 2.5 2.3 4.2 2.5 5.6 2.3 8.2 2.3 8.2-.4 5.6-5.3 9.9-10.9 9.5-1.8-.1-3.4-.7-4.9-1.6-.3.3-.7.6-1.1.9 1.5 1.1 3.3 1.8 5.2 2l-.3 5.3c.4-.2.9-.4 1.4-.6l.3-4.5h.2c5.5 0 10.2-3.9 11.3-9.3h3.9v-1.3H257v-.2c0-.1.3-2.9-2.4-8.9-1.2-2.6-2.8-5-2.8-5.1l-.5-.7-2.8 2.9-2.3-3.3-2.5 2.7-2-3-.6.6c-.1.1-.5.5-1.1 1.2.3.3.5.7.7 1.1.4-.3.7-.6.9-.8zm32 77l1 1 1-1-1-1-1 1zM239.9 13.7h-3.2v-1.6h2.4v-.8h-2.4V9.7h3.2v-.8h-4v5.6h4v-.8zm-7.6-.8v-1.6h-.8v1.6h.8zm-1.6-1.6h.8v-.8h-.8V8.9h-.8v5.6h.8v-3.2zm-3.6 2.4h-2.4v.8h2.4v-.8h.8v-4h-.8v-.8h-2.4v.8h2.4v4zm-8.4-4.8h-.8v4.8h.8V8.9zm6 .8h-.8v4h.8v-4zm48.9 117.9l-1-1-1 1 1 1 1-1zM225.9 20h-1.4v1.4h1.4V20zm5.6 0h-1.4v1.4h1.4V20zm4.9 1.4h.7V20h-1.4v1.4h.7zm-3.3-6.9h.8V8.9h-.8v1.6h-.8v.8h.8v3.2zm11.2-2.4v-.8h-.8v.8h.8zm4.1 7.9H247v1.4h1.4V20zm37.3 95.6l-1-1-1 1 1 1 1-1zm-4 2l1 1 1-1-1-1-1 1zm-15-103.9v-4h-.8v4h.8zm8.3 32.9l-1 1 1 1 1-1-1-1zm-9.1-32.9h-2.4v-4h2.4v-.8h-3.2v5.6h3.2v-.8zm17.1 41l-1 1 1 1 1-1-1-1zm-7.4 68.9l1 1 1-1-1-1-1 1zm5.4-71l-1 1c1 1.1 0 0 1 1l1-1-1-1zm-4-4l-1 1 1 1 1-1-1-1zm.6 73l1 1 1-1-1-1-1 1zm1.4-71l-1 1 1 1 1-1-1-1zm-25.1-36.9h-3.2v.8h3.2v-.8zm-1.2 7.7h1.4V20h-1.4v1.4zm-7.6-8.5v1.6h.8V8.9h-.8v3.2h-.8v.8h.8zm-24.8-2.4h-.8v3.2h.8v-3.2zm28.4-1.6h-.8v2.4h.8V8.9zm6 3.2h-.8v1.6h.8v-1.6zm-4-2.4v1.6h.8V9.7h-.8zm9 10.3h-1.4v1.4h1.4V20zm-8.2-8.7v.8h2.4v-.8h-2.4zM262 33.6l-1-1-1 1 1 1 1-1zm-7.3-24.7h-3.2v.8h3.2v-.8zm-54 3.2h2.4v-.8h-2.4V9.7h2.4v-.8h-3.2v5.6h.8v-2.4zM268 39.6l-1-1-1 1 1 1 1-1zM265.4 20H264v1.4h1.4V20zM221.9 8.9h-.8v4.8h.8V8.9zM186.5 49l1 1 1-1-1-1-1 1zm8.1-6l-1-1-1 1 1 1 1-1zm-4.2 82l-1-1-1 1 1 1 1-1zm-2-2l-1-1-1 1 1 1 1-1zm-1.9-72l-1-1-1 1 1 1 1-1zm2-4l1 1 1-1-1-1-1 1zm3.1-3l-1 1 1 1 1-1-1-1zm78 87.6l-1-1-1 1 1 1 1-1zm-77.2-4.6l-1-1-1 1 1 1 1-1zm3.9-107v1.4h1.4V20h-1.4zm-.7 21.9l1-1-1-1-1 1c1 1.1 0 0 1 1zm5-5l-1-1-1 1 1 1 1-1zm-2.7-25.6V9.7h-.8v1.6h.8zM265 38.6l1-1-1-1-1 1 1 1zm-68.4.3l1 1 1-1-1-1-1 1zm1.9 94.1l-1-1-1 1 1 1 1-1zm4.8-113h-1.4v1.4h1.4V20zm-6.8 111l-1-1-1 1 1 1 1-1zm5.1-97.1l-1 1 1 1 1-1-1-1zM186.4 121l-1-1-1 1 1 1 1-1zM206.7 8.9h-.8v1.6h.8V8.9zm3.2 0h-.8v1.6h.8V8.9zM272 43.6l-1-1-1 1 1 1 1-1zm-62.9-33.1h-.8v.8h.8v-.8zm61.5 120.1l1-1-1-1-1 1 1 1zM184.5 53l-1-1-1 1 1 1 1-1zm23.8-38.5v-3.2h-.8v3.2h.8zm12.8 0v-.8h-.8v.8h.8zm-6.5 5.5h-1.4v1.4h1.4V20zm-5.4 40.4l.1 1.1c.3 2 1.2 3.9 2.5 5.3v3.4h1.3V68c1.8 1.5 4.2 2.4 6.7 2.4.4 0 .7 0 1.1-.1l3.3 20.4c.1.3.3.6.7.6h.1c.4-.1.6-.4.6-.8l-3.2-20.1c-.9-.3-1.4-.8-1.9-1.4h-.8c-4.6 0-8.4-3.3-9.1-7.8v-.9c-.2-3.9 2.2-8.8 3.2-10.7l2.5 2.3 1.6-3 1.6 1.5c.2-.4.5-.8.7-1.2l-2.7-2.4-1.6 3-2.4-2.3-.4.7c-.2.3-4.2 6.9-3.9 12.2zm-.3-39V20h-1.4v1.4h1.4zm10.6-6.9v-.8h-.8v.8h.8zm-37.1 102.4l-1-1-1 1 1 1 1-1zM178.5 57l1 1 1-1-1-1-1 1zm4-2l-1-1-1 1 1 1 1-1zm10.9 75l1-1-1-1-1 1c1.1 1 0 0 1 1zm-10-10.1l1-1-1-1-1 1c1 1.1 0 0 1 1zm20.9-41.2c0-.3.2-.7.7-.7 7.9-.9 12.1 1.4 14.2 3.5 2.3 2.3 2.8 4.9 2.8 5 0 .2-.1.4-.3.6-1.1 1-2.2 1.6-3.3 1.9-2.5.6-5.3-.1-8.1-2.2-3.4-2.5-6-6.3-6-8.1zm1.4.6c.6 1.5 2.6 4.4 5.3 6.5 1.7 1.2 4.3 2.6 6.9 2 .9-.2 1.7-.6 2.5-1.3-.3-1.7-2.8-8.3-14.7-7.2zM264 35.6l-1-1-1 1 1 1 1-1zm-56.5-24.3v-.8h-.8v.8h.8zm-3.6 0V9.7h-.8v1.6h.8zM269 40.6l-1 1 1 1 1-1-1-1zM72.8 115v2.1h2.1V115h-2.1zm95.3-25.8h1.4v-1.4h-1.4v1.4zm0-2.8h1.4V85h-1.4v1.4zm0 25.5h1.4v-1.4h-1.4v1.4zm0-17h1.4v-1.4h-1.4v1.4zm0-14.2h1.4v-1.4h-1.4v1.4zm0 2.9h1.4v-1.4h-1.4v1.4zm0 17h1.4v-1.4h-1.4v1.4zm0 5.7h1.4v-1.4h-1.4v1.4zm0 2.8h1.4v-1.4h-1.4v1.4zm0-11.4h1.4v-1.4h-1.4v1.4zm0 5.7h1.4V102h-1.4v1.4zm0-25.5h1.4v-1.4h-1.4v1.4zm0 14.2h1.4v-1.4h-1.4v1.4zm10.3 29.4l18.2 18.2 1-1-18.2-18.2-1 1zm-10.3-46.4h1.4v-1.4h-1.4v1.4zm33.4 60.9l-1 1 1 1 1-1-1-1zm-27-114.5h-2.1v2.1h2.1v-2.1zm25 112.5l-1 1 1 1 1-1-1-1zm-25-108.4h-2.1v-2h-2.1v2.1h2.1v2h2.1v-2h2.1v-2.1h-2.1v2zm-6.4 46.6h1.4v-1.4h-1.4v1.4zm0-2.8h1.4V68h-1.4v1.4zm6.4 74.6h-2.1v-2h-2.1v2.1h2.1v2h2.1V144l2.1.1V142h-2.1v2zm-1.7-63.9v18.3h1.4V80.1h-1.4zm1.7 59.8h-2.1v2.1h2.1v-2.1zM141.6 72h1.4v-1.4h-1.4V72zm0 5.7h1.4v-1.4h-1.4v1.4zm0-2.9h1.4v-1.4h-1.4v1.4zm0 5.7h1.4v-1.4h-1.4v1.4zm1.4-12.7h-1.4v1.4h1.4v-1.4zm-1.4 18.4h1.4v-1.4h-1.4v1.4zm0-2.9h1.4v-1.4h-1.4v1.4zM137 98.2h1.4V79.9H137v18.3zm4.6-9.2h1.4v-1.4h-1.4V89zm60.9 50l1 1 1-1-1-1-1 1zM134.8 25.6h-2.1v-2h-2.1v2.1h2.1v2h2.1v-2h2.1v-2.1h-2.1v2zm6 108.4h2v-2.1h-2.1l.1 2.1h-2.1v2.1h2v2h2.1V136h-2v-2zm2 2l2.1.1V134h-2.1v2zm-1.2-44.2h1.4v-1.4h-1.4v1.4zm0 17h1.4v-1.4h-1.4v1.4zm0 2.9h1.4v-1.4h-1.4v1.4zm1.2-78.1h-2v-2h2v-2.1h-2.1v2.1h-2v2.1h2v2h2.1v-2h2.1v-2.1h-2.1v2zm23.7 98.3h-2.1v2.1h2.1v-2.1zm-20.2-33.7h1.4V79.9h-1.4v18.3zm-4.7 7.8h1.4v-1.4h-1.4v1.4zm0-8.5h1.4v-1.4h-1.4v1.4zm0-2.8h1.4v-1.4h-1.4v1.4zm24.9 41.3h-2.1v-2h-2.1v2.1h2.1v2h2.1V136l2.1.1V134h-2.1v2zm-24.9-35.7h1.4v-1.4h-1.4v1.4zm0 2.9h1.4v-1.4h-1.4v1.4zm98.8 3.5v-2.1h-2.1v6.3h2.1v-4.2zm56.2-29h1.4v-1.4h-1.4v1.4zm0-5.7h1.4v-1.4h-1.4V72zm1.4-4.2h-1.4v1.4h1.4v-1.4zm-1.4 7h1.4v-1.4h-1.4v1.4zm0 5.7h1.4v-1.4h-1.4v1.4zm0 2.8h1.4v-1.4h-1.4v1.4zm-6.8 60.7h-2.1v-2h-2.1v2.1h2.1v2h2.1V144l2.1.1V142h-2.1v2zm0-4.1h-2.1v2.1h2.1v-2.1zm6.8-53.7h1.4v-1.4h-1.4v1.4zm-4.6 12h1.4V79.9H292v18.3zm-2.2-72.6h-2.1v-2h-2.1v2.1h2.1v2h2.1v-2h2.1v-2.1h-2.1v2zm8 110.4h-2v-2h2v-2.1h-2.1v2.1h-2v2.1h2v2h2.1V136l2.1.1V134h-2.1v2zm-8-114.5h-2.1v2.1h2.1v-2.1zm6.8 87.3h1.4v-1.4h-1.4v1.4zm0 2.9h1.4v-1.4h-1.4v1.4zm0-5.7h1.4v-1.4h-1.4v1.4zm1.2-72.4h-2v-2h2v-2.1h-2.1v2.1h-2v2.1h2v2h2.1v-2h2.1v-2.1h-2.1v2zm3.5 46.3v18.3h1.4V79.9h-1.4zm-4.7 17.6h1.4v-1.4h-1.4v1.4zm0-2.8h1.4v-1.4h-1.4v1.4zm0-2.9h1.4v-1.4h-1.4v1.4zm0-2.8h1.4v-1.4h-1.4V89zm0 14.2h1.4v-1.4h-1.4v1.4zm0-2.9h1.4v-1.4h-1.4v1.4zm-11.9 20.3l-18.2 18.2 1 1 18.2-18.2-1-1zm-61 13.1h2v2.1h12.5v-2.1h-12.4v-6.2h-2.1V133.7zm-2.1-6.2h2.1v-6.2h-2.1V127.5zm20.7-27v2.1h4.1v6.2h2.1v-8.3H242.3zm-2-2.1h-4.2v-2h-6.2v2.1h6.2v2h6.2v-2.1h-2zm-12.5-4.1h-4.1v-2h-6.2v-2h-6.2v6.2h2v6.1h2.1v-2.1h4.1v-2.1h-4.1v-2h-2v-4h4.1v2h6.2v2h6.2v-2.1h-2.1zm-12.4 14.6h2.1v6.2h2v6.2h2.1V115h-2v-6.2h-2.1v-6.2h-2.1V108.9zm24.9 22.8v-4.2h2v-6.2h-2.1v6.2h-2v6.2h2.1v-2zm-8.3-24.9v-2.1h-2.1v2.1h2.1zm-6.3-2.1h4.2v-2.1h-6.2v2.1h2zm-4.1-2.1h2.1v-2.1h-4.2v2.1h2.1zm22.8 16.6v-2.1h-2.1v4.2h2.1v-2.1zm-10.3 6.3v-2.1H232v2.1h2.1zm27.5 12.1l1 1 1-1-1-1-1 1zm.7-58.7c-3.8.1-7 .6-9.6 1.8-.3.1-.5.5-.4.8.1.3.5.5.8.4 2.4-1 5.1-1.5 8.3-1.7-.5 2.2-3.3 7.4-7.3 9.8-2.4 1.4-4.7 1.6-7 .6-.1.2-.4.6-.9 1.1.7.3 1.4.6 2.1.7 2.2.5 4.4 0 6.6-1.2 4.9-2.9 8.2-9.5 8-11.7.1-.3-.2-.6-.6-.6zm-24 32H232v2.1h6.3v-2.1zm25.3 24.7l1 1 1-1-1-1-1 1zm4-2l-1-1-1 1 1 1 1-1zM227.8 115v2.1h2.1V115h-2.1zm-93-93.5h-2.1v2.1h2.1v-2.1zm103.5 95.7v2.1h2.1v-6.2h-2.1v4.1zm-6.3-.1h-2.1v6.3h2.1V117.1zm8.4-6.2v2.1h6.2v-2.1H240.4zm-10.5 18.7v-4.2h-2.1v-6.2h-2V115h-2.1v4.2h2v6.3h2.1v4.1h2.1zm-100.2-9l-18.2 18.2 1 1 18.2-18.2-1-1zM11.5 29.5H9.4v2.1h2.1v-2.1zm16.2-17.4h2.4v2.4h.8V8.9h-.8v2.4h-2.4V8.9h-.8v5.6h.8v-2.4zM9.4 134H7.3v2.1h2.1v2h2.1V136H9.4v-2zM42.6 34l-1-1-18.2 18.2 1 1L42.6 34zm-34 64.4H10V80.1H8.6v18.3zm2.9 33.5H9.4v2.1h2.1v-2.1zM9.4 35.7h2.1v-2h2.1v-2.1h-2.1v2H9.4v-2H7.3v2.1h2.1v2zm26.2-14.3H37V20h-1.4v1.4zm4.1-9.3h2.4v-.8h-2.4V9.7h2.4v-.8h-3.2v5.6h.8v-2.4zm1.6 9.3h1.4V20h-1.4v1.4zm1.3 16.5l-1 1 1 1 1-1-1-1zm-8.9-25.8h2.4v2.4h.8V9.7h-.8v1.6h-2.4V9.7h-.8v4.8h.8v-2.4zm2.4-3.2h-2.4v.8h2.4v-.8zm6.8 2.4V9.7h-.8v1.6h.8zM11.5 136l2.1.1V134h-2.1v2zm1.6-41.1h1.4v-1.4h-1.4v1.4zm0-5.7h1.4v-1.4h-1.4v1.4zm0-5.6h1.4v-1.4h-1.4v1.4zm0 14.1h1.4v-1.4h-1.4v1.4zm0-17h1.4v-1.4h-1.4v1.4zm0 11.4h1.4v-1.4h-1.4v1.4zm0 8.5h1.4v-1.4h-1.4v1.4zm0 8.5h1.4v-1.4h-1.4v1.4zm0 2.8h1.4v-1.4h-1.4v1.4zm0-8.5h1.4V102h-1.4v1.4zm0 2.9h1.4v-1.4h-1.4v1.4zm0-19.9h1.4V85h-1.4v1.4zM38.4 130l1-1-1-1-1 1c1.1 1 0 0 1 1zm-11-13.1l-1-1-1 1 1 1 1-1zm1 3l1-1-1-1-1 1c1 1.1 0 0 1 1zM27.5 55l-1-1-1 1 1 1 1-1zm-4 2l1 1 1-1-1-1-1 1zm22.1-22.1l1 1 1-1-1-1-1 1zm0 2l-1-1-1 1 1 1 1-1zm8.6 23.5l.1 1.1c.8 5.2 5.3 8.9 10.5 8.9.4 0 .7 0 1.1-.1l3.3 20.4c.1.3.3.6.7.6h.1c.4-.1.6-.4.6-.8l-3.2-20.1c-.9-.3-1.4-.8-1.9-1.4h-.8c-4.6 0-8.4-3.3-9.1-7.8v-.9c-.2-3.9 2.2-8.8 3.2-10.7l2.5 2.3 1.6-3 1.6 1.5c.2-.4.5-.8.7-1.2l-2.7-2.4-1.6 3-2.4-2.3-.4.7c-.2.3-4.2 6.9-3.9 12.2zM59.6 20h-1.4v1.4h1.4V20zm-13.9-7.9h2.4v-.8h-2.4V9.7h2.4v-.8h-3.2v5.6h.8v-2.4zm3.2-.8V9.7h-.8v1.6h.8zm-.6 8.7h-1.4v1.4h1.4V20zM35.5 47l-1-1-1 1 1 1 1-1zm2.1-2l-1-1-1 1 1 1 1-1zm-.2 82l-1-1-1 1 1 1 1-1zm-7.9-74l-1-1-1 1 1 1 1-1zm14 80l-1-1-1 1 1 1 1-1zm-2.9-91.1l1-1-1-1-1 1c1 1.1 0 0 1 1zm.9 89.1l-1-1-1 1 1 1 1-1zm-2.9-89l-1 1 1 1 1-1-1-1zm-3.2 83l-1-1-1 1 1 1 1-1zm-4-4l-1-1-1 1 1 1 1-1zm.1-70l-1-1-1 1 1 1 1-1zm1.9 72l-1-1-1 1 1 1 1-1zm.1-74l-1-1-1 1 1 1 1-1zm-16.1 93h-2.1v2.1h2.1v2h2.1V144h-2.1v-2zm51.3-8.3h2v2.1h12.5v-2.1H70.8v-6.2h-2.1V133.7zm-2.1-6.2h2.1v-6.2h-2.1V127.5zm-6.2-18.6h2.1v6.2h2v6.2h2.1V115h-2v-6.2h-2.1v-6.2h-2.1V108.9zm12.4-14.6h-4.1v-2h-6.2v-2h-6.2v6.2h2v6.1h2.1v-2.1h4.1v-2.1h-4.1v-2h-2v-4h4.1v2h6.2v2h6.2v-2.1h-2.1zm14.5 6.2v2.1h4.1v6.2h2.1v-8.3H87.3zm-2-2.1h-4.2v-2h-6.2v2.1h6.2v2h6.2v-2.1h-2zm-18.7 4.2h2.1v-2.1h-4.2v2.1h2.1zm4.1 2.1h4.2v-2.1h-6.2v2.1h2zm14.6 27v-4.2h2v-6.2h-2.1v6.2h-2v6.2h2.1v-2zm6.2-18.7v-4.1h-2.1v6.2h2.1V113zm-2.1 6.2v-4.1h-2.1v6.2h2.1v-2.1zm19.2 16.4l1 1 1-1-1-1-1 1zM77 117.1h-2.1v6.3H77V117.1zM64.5 14.5v-.8h-.8v.8h.8zm70.3 125.4h-2.1v2.1h2.1v-2.1zm-121.7-62h1.4v-1.4h-1.4v1.4zM134.8 144l2.1.1V142h-2.1v2zm-22.2-10.4l-1-1-1 1 1 1 1-1zm-33.5-8.1v-2.1H77v2.1h2.1zM77 106.8v-2.1h-2.1v2.1H77zm-2.1 22.8v-4.2h-2.1v-6.2h-2V115h-2.1v4.2h2v6.3h2.1v4.1h2.1zm31.7 8l1 1 1-1-1-1-1 1zm-1.3-62.4c-3.7.9-6.7 2.1-9 3.8-.3.2-.4.6-.2.9.2.3.6.4.9.2 2.1-1.5 4.7-2.6 7.8-3.4 0 2.3-1.7 7.9-5.1 11.1-2.4 2.2-5.1 2.8-8 1.7-.4-.1-.8.1-.9.4-.1.4.1.8.4.9 1.1.4 2.2.6 3.3.6 2.2 0 4.3-.9 6.2-2.6 4.2-3.9 6-11 5.4-13.1-.1-.4-.4-.6-.8-.5zm27.4 66.8h-2.1v2.1h2.1v2h2.1V144h-2.1v-2zm-85.2-3l1 1 1-1-1-1-1 1zm-28-113.4h-2.1v-2h-2.1v2.1h2.1v2h2.1v-2h2.1v-2.1h-2.1v2zm3.9 95.9l18.2 18.2 1-1-18.2-18.2-1 1zM44.5 134l-1 1 1 1 1-1-1-1zm2 2l-1 1 1 1 1-1-1-1zm-27-114.5h-2.1v2.1h2.1v-2.1zm-6.4 47.9h1.4V68h-1.4v1.4zm6.4 70.5h-2.1v2.1h2.1v-2.1zm0 4.1l2.1.1V142h-2.1v2zm-6.4-68.9h1.4v-1.4h-1.4v1.4zm0-2.9h1.4v-1.4h-1.4v1.4zm4.7 7.9v18.3h1.4V80.1h-1.4zm36.3-69.6h-.8v.8h.8v-.8zm-1.6 10.9h1.4V20h-1.4v1.4zm.8-6.9v-3.2h-.8v3.2h.8zm2.4 69.3c-2.6-3.2-4.2-7.6-3.8-9.3.1-.3.4-.6.8-.5 7.9 1.1 11.4 4.4 12.9 6.9 1.7 2.8 1.5 5.4 1.5 5.5 0 .2-.2.4-.4.5-1.3.7-2.5 1-3.7 1-2.6 0-5.1-1.4-7.3-4.1zm1-.8c1.3 1.6 3.5 3.6 6.2 3.6.9 0 1.8-.2 2.7-.6.1-1.7-.7-8.7-12.4-10.6.2 1.6 1.4 4.9 3.5 7.6zm-4.2-71.7v-.8h-.8v.8h.8zm2.4-2.4h-.8v1.6h.8V8.9zm-4 0v1.6h.8V8.9h-.8zm156.2 63.6h3.7v-1.3h-3.7v1.3zm10.7 0v-1.3h-3.7v1.3h3.7zm-6 4.7h1.3v-3.7h-1.3v3.7zm-25 8.2h2.4v-1.3h-2.4v1.3zm8.4-1.3h-2.5v1.3h2.5v-1.3zm-4.9 4.9h1.3v-2.5h-1.3V89zm0-6h1.3v-2.5h-1.3V83zm72.5 21.8h3.7v-1.3h-3.7v1.3zm10.7-1.3h-3.7v1.3h3.7v-1.3zm-4.7 2.3h-1.3v3.6h1.3v-3.6zm0-3.3v-3.7h-1.3v3.7h1.3zm-66.6 9.1h-4.9v1.3h4.9v-1.3zm3.3 1.3h4.9v-1.3h-4.9v1.3zm-2.3 5.8h1.3v-4.8h-1.3v4.8zm0-8.1h1.3v-4.9h-1.3v4.9zm65.7-48.5H264v1.3h4.9v-1.3zm-7.2 7.1h1.3v-4.8h-1.3v4.8zm1.3-13h-1.3v4.9h1.3v-4.9z"/></svg>