<svg id="Layer_1" xmlns="http://www.w3.org/2000/svg" viewBox="0 0 310 155" width="310" height="155"><style>.st0{fill:#231f20}</style><path class="st0" d="M65.7 23.3h-3.2v-5.6h3.2v.8h-2.4v1.6h2.4v.8h-2.4v1.6h2.4v.8zm.8-.8v-1.6h-.8v1.6h.8zm0-2.4v-1.6h-.8v1.6h.8zm2-2.4v5.6h4v-.8h-3.2v-4.8h-.8zm9.2 2.4h-2.4v-1.6h-.8v4.8h.8v-2.4h2.4v2.4h.8v-4.8h-.8v1.6zm0-2.4h-2.4v.8h2.4v-.8zm3.6 1.6v-1.6h-.8v5.6h.8v-3.2h.8v-.8h-.8zm2.4 1.6h-.8v.8h.8v1.6h.8v-5.6h-.8v3.2zm-1.6-.8v.8h.8v-.8h-.8zm7.6-.8h.8v-.8h-.8v.8zm-3.2 3.2h.8v-4h-.8v4zm3.2.8v-.8h-2.4v.8h2.4zm-2.4-5.6v.8h2.4v-.8h-2.4zm3.2 4h-.8v.8h.8v-.8zm-15.2 5.2h-1.4v1.4h1.4v-1.4zm-2.8 0h-1.4v1.4h1.4v-1.4zm-17 0h-1.4v1.4h1.4v-1.4zm5.7 0h-1.4v1.4h1.4v-1.4zm8.5 0h-1.4v1.4h1.4v-1.4zm-18.4 1.4h1.4v-1.4h-1.4v1.4zM64 26.9h-1.4v1.4H64v-1.4zm2.8 0h-1.4v1.4h1.4v-1.4zm-8.5 0h-1.4v1.4h1.4v-1.4zm22.7 0h-1.4v1.4H81v-1.4zm17 0h-1.4v1.4H98v-1.4zm-6.4 1.4h.7v-1.4h-1.4v1.4h.7zm3.6-1.4h-1.4v1.4h1.4v-1.4zm4.9 1.4h.7v-1.4h-1.4v1.4h.7zm2.2 0h1.4v-1.4h-1.4v1.4zm-19.2 0h.7v-1.4h-1.4v1.4h.7zm-4.9-1.4h-1.4v1.4h1.4v-1.4zm8.5 0h-1.4v1.4h1.4v-1.4zm2.8 0h-1.4v1.4h1.4v-1.4zm12.8-14.3h1.4v-1.4h-1.4v1.4zm-2.2 0h.7v-1.4h-1.4v1.4h.7zm-33.3-1.4h-1.4v1.4h1.4v-1.4zm22.7 0h-1.4v1.4h1.4v-1.4zm-17 0h-1.4v1.4h1.4v-1.4zm14.2 0h-1.4v1.4h1.4v-1.4zm-31.2 0h-1.4v1.4h1.4v-1.4zm-4.2 1.4h1.4v-1.4h-1.4v1.4zm24-1.4h-1.4v1.4h1.4v-1.4zm5.7 0h-1.4v1.4H81v-1.4zm-2.8 0h-1.4v1.4h1.4v-1.4zm4.9 1.4h.7v-1.4h-1.4v1.4h.7zm-21.9-1.4h-1.4v1.4h1.4v-1.4zm8.5 0h-1.4v1.4h1.4v-1.4zm-5.7 0h-1.4v1.4H64v-1.4zm27.6 1.4h.7v-1.4h-1.4v1.4h.7zm3.6-1.4h-1.4v1.4h1.4v-1.4zm2.8 0h-1.4v1.4H98v-1.4zm-39.7 0h-1.4v1.4h1.4v-1.4zm29.9 131.6h1.4v-1.4h-1.4v1.4zm2.8 0h1.4v-1.4H91v1.4zm2.9 0h1.4v-1.4h-1.4v1.4zm-8.5 0h1.4v-1.4h-1.4v1.4zm-28.4 0h1.4v-1.4H57v1.4zm11.4 0h1.4v-1.4h-1.4v1.4zm-14.2 0h1.4v-1.4h-1.4v1.4zm11.3 0h1.4v-1.4h-1.4v1.4zm5.7 0h1.4v-1.4h-1.4v1.4zm-8.5 0h1.4v-1.4h-1.4v1.4zm-2.8 0h1.4v-1.4h-1.4v1.4zm17 0h1.4v-1.4h-1.4v1.4zm-2.9 0h1.4v-1.4H74v1.4zm5.7 0h1.4v-1.4h-1.4v1.4zm2.8 0H84v-1.4h-1.5v1.4zm14.2 0h1.4v-1.4h-1.4v1.4zm2.8 0h1.4v-1.4h-1.4v1.4zM12.1 132v2h2v-2h-2zm2 4h2v-2h-2v2zm4 2v-2h-2v2h2zm-2-4h2v-2h-2v2zm-4 4.1h2v-2h-2v2zm7.6 1v2h2v-2h-2zm2 4h2v-2h-2v2zm4 2v-2h-2v2h2zm-2-4h2v-2h-2v2zm-4.1 4.1h2v-2h-2v2zm123.3-6.6h2v-2h-2v2zm-2-4v2h2v-2h-2zm-2-2v2h2v-2h-2zm0 6h2v-2h-2v2zm4-4.1h2v-2h-2v2zm-7.6 11.6h2v-2h-2v2zm-2-4v2h2v-2h-2zm-2-2v2h2v-2h-2zm0 6h2v-2h-2v2zm4.1-4.1h2v-2h-2v2zm.3-111.6h2v-2h-2v2zm-.1-4h-2v2h2v-2zm-4-2v2h2v-2h-2zm2 4h-2v2h2v-2zm2.1-2h2v-2h-2v2zm0-11.4h2v-2h-2v2zm-.1-4h-2v2h2v-2zm-2-2.1h-2v2h2v-2zm0 4.1h-2v2h2v-2zm2.1-2.1h2v-2h-2v2zm8.3 11.9h2v-2h-2v2zm-2-4v2h2v-2h-2zm-2-2v2h2v-2h-2zm0 6h2v-2h-2v2zm4.1-4.1h2v-2h-2v2zM17.3 30.4h2v-2h-2v2zm4-4h-2v2h2v-2zm2.1-2h-2v2h2v-2zm0 4h-2v2h2v-2zm-6.1-4v2h2v-2h-2zm2-11.4h-2v2h2v-2zm2-2h-2v2h2v-2zm2.1-2.1h-2v2h2v-2zm0 4.1h-2v2h2v-2zm-4.1-4.1h-2v2h2v-2zM9 22.8h2v-2H9v2zm4-4h-2v2h2v-2zm2-2h-2v2h2v-2zm0 6v-2h-2v2h2zm-4.1-6.1h-2v2h2v-2zm210.6 3.4v-1.6h-.8v1.6h.8zm-.8 2.4h-2.4v-1.6h2.4v-.8h-2.4v-1.6h2.4v-.8h-3.2v5.6h3.2v-.8zm.8 0v-1.6h-.8v1.6h.8zm6 0h-3.2v-4.8h-.8v5.6h4v-.8zm5.2-4.8h-2.4v.8h2.4v-.8zm.8 5.6v-4.8h-.8v1.6h-2.4v-1.6h-.8v4.8h.8v-2.4h2.4v2.4h.8zm5.2-1.6v1.6h.8v-5.6h-.8v3.2h-.8v.8h.8zm-3.2-4v5.6h.8v-3.2h.8v-.8h-.8v-1.6h-.8zm2.4 3.2v-.8h-.8v.8h.8zm6.8 2.4v-.8h-2.4v.8h2.4zm-2.4-5.6v.8h2.4v-.8h-2.4zm-.8 4.8h.8v-4h-.8v4zm4-.8h-.8v.8h.8v-.8zm-.8-2.4h.8v-.8h-.8v.8zm-14.4 7.6h-1.4v1.4h1.4v-1.4zm14.2 0h-1.4v1.4h1.4v-1.4zm-8.5 0h-1.4v1.4h1.4v-1.4zm14.2 0h-1.4v1.4h1.4v-1.4zm2.8 0h-1.4v1.4h1.4v-1.4zm2.1 1.4h.7v-1.4h-1.4v1.4h.7zm-34.7 0h1.4v-1.4h-1.4v1.4zm7.1 0v-1.4h-1.4v1.4h1.4zm29.8 0h1.4v-1.4h-1.4v1.4zm-41.1-1.4h-1.4v1.4h1.4v-1.4zm17 0h-1.4v1.4h1.4v-1.4zm-8.5 0h-1.4v1.4h1.4v-1.4zm-11.4 0h-1.4v1.4h1.4v-1.4zm-2.8 0h-1.4v1.4h1.4v-1.4zm26.9 1.4h1.4v-1.4h-1.4v1.4zm4.3-1.4h-1.4v1.4h1.4v-1.4zm4.9 1.4h.7v-1.4h-1.4v1.4h.7zm-38.9-1.4h-1.4v1.4h1.4v-1.4zm11.3 0h-1.4v1.4h1.4v-1.4zm0-15.7h-1.4v1.4h1.4v-1.4zm11.3 0h-1.4v1.4h1.4v-1.4zm2.9 0h-1.4v1.4h1.4v-1.4zm-25.5 0h-1.4v1.4h1.4v-1.4zm2.8 0h-1.4v1.4h1.4v-1.4zm14.2 0h-1.4v1.4h1.4v-1.4zm-11.4 0h-1.4v1.4h1.4v-1.4zm24.8 1.4h.7v-1.4h-1.4v1.4h.7zm-21.9-1.4h-1.4v1.4h1.4v-1.4zm19.8 0h-1.4v1.4h1.4v-1.4zm-14.2 0h-1.4v1.4h1.4v-1.4zm35.5 1.4h1.4v-1.4h-1.4v1.4zm-7.1-1.4h-1.4v1.4h1.4v-1.4zm4.9 1.4h.7v-1.4h-1.4v1.4h.7zm-8.5 0h.7v-1.4h-1.4v1.4h.7zm6.4-1.4h-1.4v1.4h1.4v-1.4zm-11.3 0h-1.4v1.4h1.4v-1.4zm-14.2 0h-1.4v1.4h1.4v-1.4zm17 0h-1.4v1.4h1.4v-1.4zm-35.3 131.6h1.4v-1.4h-1.4v1.4zm17 0h1.4v-1.4h-1.4v1.4zm-2.8 0h1.4v-1.4h-1.4v1.4zm-2.9 0h1.4v-1.4h-1.4v1.4zm11.4 0h1.4v-1.4h-1.4v1.4zm-2.9 0h1.4v-1.4H229v1.4zm-11.3 0h1.4v-1.4h-1.4v1.4zm-5.7 0h1.4v-1.4H212v1.4zm2.9 0h1.4v-1.4h-1.4v1.4zm39.6 0h1.4v-1.4h-1.4v1.4zm-8.5 0h1.4v-1.4H246v1.4zm2.9 0h1.4v-1.4h-1.4v1.4zm2.8 0h1.4v-1.4h-1.4v1.4zm-17 0h1.4v-1.4h-1.4v1.4zm8.5 0h1.4v-1.4h-1.4v1.4zm-5.7 0h1.4v-1.4h-1.4v1.4zm2.9 0h1.4v-1.4h-1.4v1.4zM167.1 132v2h2v-2h-2zm2 4h2v-2h-2v2zm4 2v-2h-2v2h2zm-2-4h2v-2h-2v2zm-4 4.1h2v-2h-2v2zm7.6 1v2h2v-2h-2zm2 4h2v-2h-2v2zm4 2v-2h-2v2h2zm-2-4h2v-2h-2v2zm-4.1 4.1h2v-2h-2v2zm123.3-6.6h2v-2h-2v2zm-2-4v2h2v-2h-2zm-2-2v2h2v-2h-2zm0 6h2v-2h-2v2zm4-4.1h2v-2h-2v2zm-7.6 11.6h2v-2h-2v2zm-2-4v2h2v-2h-2zm-2-2v2h2v-2h-2zm0 6h2v-2h-2v2zm4.1-4.1h2v-2h-2v2zm.3-111.6h2v-2h-2v2zm-.1-4h-2v2h2v-2zm-4-2v2h2v-2h-2zm2 4h-2v2h2v-2zm2.1-2h2v-2h-2v2zm0-11.4h2v-2h-2v2zm-.1-4h-2v2h2v-2zm-2-2.1h-2v2h2v-2zm0 4.1h-2v2h2v-2zm2.1-2.1h2v-2h-2v2zm8.3 11.9h2v-2h-2v2zm-2-4v2h2v-2h-2zm-2-2v2h2v-2h-2zm0 6h2v-2h-2v2zm4.1-6.1v2h2v-2h-2zM172.3 30.4h2v-2h-2v2zm4-4h-2v2h2v-2zm2.1-2h-2v2h2v-2zm0 4h-2v2h2v-2zm-6.1-4v2h2v-2h-2zm2-11.4h-2v2h2v-2zm2-2h-2v2h2v-2zm2.1-2.1h-2v2h2v-2zm0 4.1h-2v2h2v-2zm-4.1-4.1h-2v2h2v-2zM164 22.8h2v-2h-2v2zm4-4h-2v2h2v-2zm2-2h-2v2h2v-2zm0 6v-2h-2v2h2zm-4.1-6.1h-2v2h2v-2zm56.4 46.6h-2.2v6.5h2.2v-6.5zm0 6.5V72h6.6v-2.2h-6.6zm6.6-6.5v-2.2h-6.6v2.2h6.6zm0 6.5h2.2v-6.5h-2.2v6.5zm6.6-8.7h-2.2v8.7h2.2v-8.7zm8.8 0h-2.2v8.7h2.2v-8.7zM242.1 72v-2.2h-6.6V72h6.6zm-33-6.6h2.2v-2.2h-2.1v-2.1H207v2.2h2.1v2.1zm8.9-4.3h-2.2v2.2h2.2v-2.2zm-4.4 4.3h2.1v-2.2h-2.2l.1 2.2h-2.2V72h2.2v-6.6zm35.1 6.6h-2.2V61.1h8.8v2.1h2.2v4.5h-2.2v2.1h-6.6V72zm0-4.4h6.6v-4.3h-6.6v4.3zm8.8 4.4v-2.2h-2.2V72h2.2zm-14.9 30.6h2.2v-2.2h-2.2v2.2zm0-4.3h2.2v-4.4h-2.2v4.4zm-8.8-6.6v11h2.2v-2.2h6.6v-2.2H236v-4.4h6.6v-2.2h-8.8zm2-6.6h2.2v-2.2h-2.2v2.2zm-2.3-6.6h2.2v-2.2h-2.2v2.2zm11-2.2h-2.2v2.2h2.2v-2.2zm-4.4 4.4H238v-2.2h-2.2v2.2h2.1v2.2h2.2v-2.2zm-4.4 4.4h-2.2v2.2h2.2v-2.2zm4.4-2.2v2.2h2.2v-2.2h-2.2zm4.4 4.4v-2.2h-2.2v2.2h2.2zm-4.4-6.6h2.2v-2.2h-2.2v2.2zm-28.6 6.6h2.2v-8.8h4.4v-2.2h-11v2.2h4.4v8.8zm4.6 6.7v2.2h-6.6v-4.4h-2.2v11h2.2v-4.4h6.6v4.4h2.2v-11h-2.2V94zm35-6.7h2.2v-8.8h4.4v-2.2h-11v2.2h4.4v8.8zm-19.8 0v-2.2h-8.7v-2.2h6.6v-2.2h-6.6v-2.2h8.7v-2.2h-10.9v11h10.9zm-10.7 4.4v11h10.9v-2.2h-8.7v-2.2h6.6v-2.2h-6.6v-2.2h8.7v-2.2H220.6zm37.4 2.2v-2.2h-10.9v11H258v-2.2h-8.7v-2.2h6.6v-2.2h-6.6v-2.2h8.7z"/></svg>