<svg xmlns="http://www.w3.org/2000/svg" viewBox="0 0 310 155" width="310" height="155"><path d="M140.1 75.4h2.1v2.1h-2.1v-2.1zm2.1-4.1h-2.1v2H138v2.1h2.1v-2h2.1v2h2.1v-2.1h-2.1v-2zm-11 11.6h2.1V85h-2.1v-2.1zm6.2 2.1v-2.1h-2.1V85h-2v2.1h2v2.1h2.1v-2.1h-2V85h2zm-6.3 2.1h2.1v2.1h-2.1v-2.1zm.1-28.2h2.1V61h-2.1v-2.1zm6.2 2.1v-2.1h-2.1V61h-2v2.1h2v2h2.1V63h-2v-2h2zm-6.3 2.1h2.1v2.1h-2.1v-2.1zM17 72.7h-2.1v2h-2v-2h2v-2.1h-2.1v2.1h-2v2.1h2v2h2.1v-2H17v-2.1zM19.7 61v-2h-2.1v2.1l2.1-.1v2.1h2v2.1h2.1v-2.1h-2V61h-2.1zm-2.1 2.1h2.1v2.1h-2.1v-2.1zm4.2-4.2h2.1V61h-2.1v-2.1zM19.7 85v-2h-2.1v2.1l2.1-.1v2.1h2v2.1h2.1v-2.1h-2V85h-2.1zm-2.1 2.1h2.1v2.1h-2.1v-2.1zm4.2-4.2h2.1V85h-2.1v-2.1zm27.1-61.2h.8v1.6h-.8v-1.6zm0 2.4h.8v1.6h-.8v-1.6zm-2.4-.8v-1.6h2.4v-.8h-3.2v5.6h3.2v-.8h-2.4v-1.6h2.4v-.8h-2.4zm9.2-1.6v-.8h-4v5.6h4v-.8h-3.2v-1.6h2.4v-.8h-2.4v-1.6h3.2zm2.8 1.6h2.4v.8h-2.4v-.8zm0-2.4h3.2v.8h-3.2v-.8zm-.8.8h.8v1.6h-.8v-1.6zm0 4h3.2v.8h-3.2v-.8zm3.2-1.6h.8v1.6h-.8v-1.6zm5.2 2.4v-4.8h1.6v-.8h-4v.8h1.6v4.8h.8zm10.4-.8h.8v.8h-.8v-.8zm-.8-4.8h.8v4.8h-.8v-4.8zm2.4 4.8h.8v.8h-.8v-.8zm-.8-3.2h.8v3.2h-.8v-3.2zm1.6-1.6h.8v4.8h-.8v-4.8zm6.8.8v-.8h-4v.8h1.6v4h-1.6v.8h4v-.8h-1.6v-4h1.6zm2 4h3.2v.8h-3.2v-.8zm.8-2.4h2.4v.8h-2.4v-.8zm-.8-1.6h.8v1.6h-.8v-1.6zm.8-.8h3.2v.8h-3.2v-.8zm2.4 3.2h.8v1.6h-.8v-1.6zm6.8 2.4v-5.6h-.8v2.4h-2.4v-2.4h-.8v5.6h.8v-2.4h2.4v2.4h.8zm6-4.8v-.8h-4v5.6h4v-.8h-3.2v-1.6h2.4v-.8h-2.4v-1.6h3.2zm2 0h.8v1.6h-.8v-1.6zm0 4h3.2v.8h-3.2v-.8zm3.2-1.6h.8v1.6h-.8v-1.6zm-2.4-.8h2.4v.8h-2.4v-.8zm0-2.4h3.2v.8h-3.2v-.8zm-29 39.8c-19.2 0-34.9 15.7-34.9 34.9s15.7 34.9 34.9 34.9 34.9-15.7 34.9-34.9-15.7-34.9-34.9-34.9zm0 68.4c-18.5 0-33.5-15-33.5-33.5s15-33.5 33.5-33.5 33.5 15 33.5 33.5-15 33.5-33.5 33.5zm38.8-32.8h1.4V94.7h-1.4v1.6zm-77.1-6.8l-1.4-.2-.2 1.4 1.4.2.2-1.4zm5.2-14.2l.8-1.2-1.2-.8-.8 1.2 1.2.8zm2.2 46.2l.5.5c.5.5 0 0 .4.6l1.1-.9-.9-1.1-1.1.9zm4.1 4l.5.5c.5.5 0 0 .6.4l.9-1.1-1.1-.9-.9 1.1zm-7.4-8.7l.4.6.4.6 1.2-.8-.8-1.2-1.2.8zm11.9 12.3l.6.4.6.4.8-1.2-1.2-.8-.8 1.2zm4.9 2.8l.7.3c.7.3 0 0 .6.3l.6-1.3-1.3-.6-.6 1.3zM40.9 79l-.3.6c1.3.6 0 0 1.3.7l.6-1.3-1.3-.6-.3.6zm-.8 26.9l-1.4.4.2.7.2.7 1.4-.4-.2-.7-.2-.7zm-1.4-10.2V95h-1.4v1.4h1.4v-.7zm.3 4.8l-1.4.2.1.7.1.7 1.4-.2-.2-1.4zm32.3 33.4l-.2 1.4.7.1.7.1.2-1.4-.7-.1-.7-.1zm-30.7-22.2l.3.7.3.6 1.3-.6-.6-1.3-1.3.6zm-1.7-27.4l-.2.7 1.3.4.3-.7.2-.7-1.4-.4-.2.7zm37.9 51.5h1.4v-1.4h-1.4v1.4zm39-34l1.4.2.1-.7.1-.7-1.4-.2-.2 1.4zM113 80l1.3-.7-.6-1.3-1.3.6.3.7.3.7zm1.5 27.2l1.4.4.4-1.4-1.4-.4-.4 1.4zm-7.6 13.8l-.5.5c1 1 0 0 1.1.9l.5-.5.5-.5-1.1-.9-.5.5zm5.6-8.6l1.3.6.6-1.3-1.3-.6-.6 1.3zm-2.7 4.8c1.2.7 0 0 1.2.8l.8-1.2-1.2-.8-.8 1.2zm-7.4 8.2l.9 1.1 1.1-.9-.9-1.1-1.1.9zm-20 8.7l.2 1.4.7-.1.7-.1-.2-1.4-1.4.2zm5.4-1.1l.4 1.4 1.4-.4-.4-1.4-1.4.4zm10.1-4.4l.8 1.2 1.2-.8-.8-1.2-1.2.8zm-4.3 2.3l-.6.3.6 1.3.6-.3.7-.3-.6-1.3-.7.3zM65.5 134l.7.2.7.2.4-1.4-1.4-.4-.4 1.4zM47.7 70.8l.9-1.1-1.1-.9-.9 1.1c1 .9 0 0 1.1.9zm58.5-1.2l.5.5.5.5 1.1-.9-.5-.5-.5-.5-1.1.9zm-3.9-3.9l.5.5.5.5.9-1.1-.5-.5-.5-.5-.9 1.1zm-8.8-5.5c.6.3 0 0 .7.3l.6-1.3-1.3-.6-.6 1.3.6.3zm-5.9-2.1l.7.2.7.2.4-1.4-.7-.2-.7-.2-.4 1.4zm22.5 16.4l.4.6 1.2-.8-.8-1.2-1.2.8.4.6zm5.9 16.1l1.4-.2-.1-.7-.1-.7-1.4.2.1.7.1.7zm-.1-7.2l-1.4.4.2.7.2.7 1.4-.4-.2-.7-.2-.7zM98.4 62.9l.6.4.8-1.2-1.2-.8-.8 1.2.6.4zm-16.2-5.8l.7.1.7.1.2-1.4-.7-.1-.7-.1-.2 1.4zm-16.4 1.5l.7-.2.7-.2-.4-1.4-1.4.4.4 1.4zm-5.3 2.1l1.3-.6-.6-1.3-.6.3-.6.3c.6 1.2 0 0 .5 1.3zm-4.6 2.7l1.2-.8-.8-1.2-1.2.8c.7 1.2 0 0 .8 1.2zm22.2-6.6v-1.4h-1.4v1.4h1.4zm-6.9.5l1.4-.2-.2-1.4-1.4.2.2 1.4zm-19.8 9.5l1.1-.9-.9-1.1-1.1.9c1 1.1 0 0 .9 1.1zm5.7 28.5v-6.7h-1.7V97h1.7v-1.7zm0 5.1h1.7V97h-1.7v3.4zm1.7 0h1.7v1.7h-1.7v-1.7zm3.4 1.7h-1.7v1.7h3.4v-1.7h-1.7zm5.1 8.6v-6.9h-3.4v1.7h1.7v10.3h1.7v-1.7H69v-1.7h-1.7v-1.7zm1.7 0h1.7v1.7H69v-1.7zm1.7-1.7h1.7v1.7h-1.7V109zm1.7-1.7h1.7v1.7h-1.7v-1.7zm1.7-1.8h1.7v1.7h-1.7v-1.7zm6.8 0H86v-1.7H75.8v1.7h5.1zM67.3 81.8H86v-1.7H63.9v1.7h3.4zm22.1 22v-1.7H86v1.7h3.4zm-1.7-20.3h1.7v-1.7H86v1.7h1.7zm1.7 16.9h1.7v1.7h-1.7v-1.7zm0-16.9h1.7v1.7h-1.7v-1.7zm1.7 4.4v.7h1.7v-3.4h-1.7v2.7zm1.7 4.1v5h-1.7v3.4h1.7v-3.3h1.7v-8.5h-1.7V92zm-28.9-8.5v-1.7h-3.4v1.7h3.4zm-5.1 0h1.7v1.7h-1.7v-1.7zm0 4.4v-2.7h-1.7v3.4h1.7v-.7zm40.9 14.2v1.7h1.7v-3.4h-1.7v1.7zm-1.7 1.7h1.7v1.7H98v-1.7zm-3.5 1.7v1.7h3.4v-1.7h-3.4zm-3.4 1.7v5.1h-1.7v1.7h1.7v1.7h1.7v-6.8h1.7v-1.7h-3.4zm-3.4 3.4h1.7v1.7h-1.7v-1.7zm-1.7-1.7h1.7v1.7H86v-1.7zm0-1.7h-6.8v1.7H86v-1.7zm8.5-22.1v1.7h3.4v-1.7h-3.4zm3.5 1.7h1.7v1.7H98v-1.7zm3.4 1.8h-1.7V92h1.7v-3.4zm0 6.8v5h1.7V92h-1.7v3.4zm-27.3-5.2v-1.7h-3.4v1.7h3.4zm0 0h1.7v1.7h-1.7v-1.7zm5.1 0v-1.7h-3.4v1.7h3.4zm0 1.7v1.7h1.7v-3.4h-1.7v1.7zm-1.7 1.7h1.7v1.7h-1.7v-1.7zm-1.7 1.7h1.7V97h-1.7v-1.7zM74.1 97h1.7v1.7h-1.7V97zm-1.7-1.7h1.7V97h-1.7v-1.7zm-1.7-1.7h1.7v1.7h-1.7v-1.7zm0-2.7v-.7H69v3.4h1.7v-2.7zm-42.1 51H30v-1.4h-1.4v1.4zm-6 0H24v-1.4h-1.4v1.4zm9 0H33v-1.4h-1.4v1.4zm-12 0H21v-1.4h-1.4v1.4zm6 0H27v-1.4h-1.4v1.4zm-9 0H18v-1.4h-1.4v1.4zm105.9 0h1.4v-1.4h-1.4v1.4zm2.8 0h1.4v-1.4h-1.4v1.4zm2.9 0h1.4v-1.4h-1.4v1.4zm2.8 0h1.4v-1.4H131v1.4zm-11.3 0h1.4v-1.4h-1.4v1.4zm14.1 0h1.4v-1.4h-1.4v1.4zm5.7 0h1.4v-1.4h-1.4v1.4zm-2.8 0h1.4v-1.4h-1.4v1.4zm-.3-11l-2.9 2.9-2.9-2.9-2.9 2.9-2.9-2.9-1 1 3.9 3.9 2.9-2.9 2.8 2.9h.1l3.9-3.9-1-1zm-105.8 0l-2.9 2.9-2.9-2.9-2.9 2.9-2.9-2.9-1 1 3.9 3.9h.1l2.8-2.9 2.9 2.9h.1l3.8-3.9-1-1zM41.2 13.1h76.1v1.4H41.2v-1.4zm81.8 6h11.5v1.4H123v-1.4zm0 7.1h11.5v1.4H123v-1.4zm1.5-3.4h17.4v1.4h-17.4v-1.4zM22.6 19.1h11.5v1.4H22.6v-1.4zm0 7.1h11.5v1.4H22.6v-1.4zm-7.3-3.4h17.4v1.4H15.3v-1.4zm25.9 8.8h76.1V33H41.2v-1.4zm256 41.7v-2h-2.1v2H293v2.1h2.1v-2l2.1-.1v2.1h2.1v-2.1h-2.1zm-2.1 2.1h2.1v2.1h-2.1v-2.1zm-2.7 9.6v-2.1h-2.1V85h-2v-2.1h-2.1V85h2.1v2.1h2v2.1h2.1v-2.1h-2V85h2zm-6.3 2.1h2.1v2.1h-2.1v-2.1zm6.3-26.1v-2.1h-2.1V61h-2v-2.1h-2.1V61h2.1v2.1h2v2h2.1V63h-2v-2h2zm-6.3 2.1h2.1v2.1h-2.1v-2.1zM172 72.7h-2.1v2h-2v-2h2v-2.1h-2.1v2.1h-2v2.1h2v2h2.1v-2h2.1v-2.1zm2.7-11.7v-2h-2.1v2.1l2.1-.1v2.1h2v2.1h2.1v-2.1h-2V61h-2.1zm-2.1 2.1h2.1v2.1h-2.1v-2.1zm4.2-4.2h2.1V61h-2.1v-2.1zM174.7 85v-2h-2.1v2.1l2.1-.1v2.1h2v2.1h2.1v-2.1h-2V85h-2.1zm-2.1 2.1h2.1v2.1h-2.1v-2.1zm4.2-4.2h2.1V85h-2.1v-2.1zm27.1-58.8h.8v1.6h-.8v-1.6zm-2.4-.8v-1.6h2.4v-.8h-3.2v5.6h3.2v-.8h-2.4v-1.6h2.4v-.8h-2.4zm2.4-1.6h.8v1.6h-.8v-1.6zm6.8 0v-.8h-4v5.6h4v-.8h-3.2v-1.6h2.4v-.8h-2.4v-1.6h3.2zm5.2 2.4h.8v1.6h-.8v-1.6zm-3.2 1.6h3.2v.8h-3.2v-.8zm.8-2.4h2.4v.8h-2.4v-.8zm0-2.4h3.2v.8h-3.2v-.8zm-.8.8h.8v1.6h-.8v-1.6zm8.4 4.8v-4.8h1.6v-.8h-4v.8h1.6v4.8h.8zm9.6-5.6h.8v4.8h-.8v-4.8zm.8 4.8h.8v.8h-.8v-.8zm.8-3.2h.8v3.2h-.8v-3.2zm.8 3.2h.8v.8h-.8v-.8zm.8-4.8h.8v4.8h-.8v-4.8zm6.8.8v-.8h-4v.8h1.6v4h-1.6v.8h4v-.8h-1.6v-4h1.6zm5.2 2.4h.8v1.6h-.8v-1.6zm-2.4-3.2h3.2v.8h-3.2v-.8zm0 2.4h2.4v.8h-2.4v-.8zm-.8 2.4h3.2v.8h-3.2v-.8zm0-4h.8v1.6h-.8v-1.6zm10 4.8v-5.6h-.8v2.4h-2.4v-2.4h-.8v5.6h.8v-2.4h2.4v2.4h.8zm6-4.8v-.8h-4v5.6h4v-.8h-3.2v-1.6h2.4v-.8h-2.4v-1.6h3.2zm2.8 1.6h2.4v.8h-2.4v-.8zm0-2.4h3.2v.8h-3.2v-.8zm-.8 4.8h3.2v.8h-3.2v-.8zm3.2-1.6h.8v1.6h-.8v-1.6zm-3.2-2.4h.8v1.6h-.8v-1.6zm6.7 73.9c0-19.2-15.7-34.9-34.9-34.9s-34.9 15.7-34.9 34.9 15.7 34.9 34.9 34.9 34.9-15.7 34.9-34.9zm-34.9 33.5c-18.5 0-33.5-15-33.5-33.5s15-33.5 33.5-33.5 33.5 15 33.5 33.5-15 33.5-33.5 33.5zM201 73l.7-1.2-1.1-.8-.8 1.1 1.2.9zm-5.2 9.8l.5-1.3-1.3-.5-.5 1.3c1.4.5 0 0 1.3.5zm-2 10.1v-.7l-1.4-.1v.7l-.1.7 1.4.1.1-.7zm.5-4.8l.3-1.4-1.4-.3-.1.7-.1.7c1.4.3 0 0 1.3.3zm78.3 4l-1.4.1.1 1.4 1.4-.1-.1-.7v-.7zm-59.4-30.3l.6-.3.6-.3-.7-1.2-1.2.7c.7 1.2 0 0 .7 1.1zm-5.4 2.1c.8 1.1 0 0 1 1.1l1.1-.8-.9-1.1-.6.4-.6.4zm10.4-4.4l1.3-.5-.5-1.3-1.3.5.5 1.3zm-13.7 9.2l1-1-1-1-1 1 1 1zm-6.5 8.9l.7-1.2-1.2-.7-.7 1.3c1.3.7 0 0 1.2.6zm.1 36l-1.2.7.3.6.3.6 1.2-.7-.3-.6-.3-.6zm1.8 5.5l.4.6c.4.6 0 0 .4.5l1.1-.8-.8-1.1-1.1.8zm-5.3-15.2l-.2-.7-1.4.3.2.7.2.7 1.4-.3-.2-.7zm0 5.1l.2.7c.3.7 0 0 .3.6l1.3-.5-.5-1.3-1.3.5zm9 14.6l.5.5.5.5 1-1-1-1-1 1zm19.7 11.1l.7.2c.7.2 0 0 .7.1l.3-1.4-1.4-.3-.3 1.4zm-15.5-7.3l.6.4c.6.4 0 0 .5.4l.8-1.1-1.1-.8-.8 1.1zm21.1 8.2l.7.1c.8.1 0 0 .7 0l.1-1.4-1.4-.1-.1 1.4zm42.3-36.5l1.4.1.1-1.4-1.4-.1-.1 1.4zm-53.4 34l.7.2c.6.2 0 0 .6.3l.5-1.3-1.3-.5-.5 1.3zm-5.2-2.5l.6.3c.7.4 0 0 .6.4l.7-1.2-1.2-.7-.7 1.2zm53.9-16.4l-.3.6 1.3.7.3-.6.3-.6-1.3-.7-.3.6zm.3-36.7l1.2-.7-.3-.6-.3-.6-1.2.7.3.6c.4.6 0 0 .3.6zm2.1 5.1l1.3-.5-.2-.7-.2-.7-1.3.5.3.7c.3.7 0 0 .1.7zm-75.2 15.1l-1.4.1.1 1.4 1.4-.1-.1-1.4zm69.4 21.7c1.2.9 0 0 1.1.9l.8-1.1-1.1-.9-.8 1.1zm7.5-31.3c1.4-.3 0 0 1.4-.2v-.2l-.3-1.4-1.4.3.3 1.5zm-.3 16.5l1.4.3.3-1.4-1.4-.3-.3 1.4zm-1.7 5.3c1.3.4 0 0 1.3.5l.5-1.3-1.3-.5-.5 1.3zm-9.2 13.7l1 1 1-1-1-1-1 1zm-19.3 10.1l.3 1.4.7-.2.7-.1-.3-1.4-1.4.3zm-4.8.5l-.7.1.1 1.4h.7c.7 0 0 0 .7-.2l-.1-1.4-.7.1zm10.1-2c.5 1.3 0 0 .4 1.2l.7-.2.7-.2-.5-1.3-1.3.5zm5.1-2.2c.7 1.3 0 0 .7 1.2l1.2-.7-.7-1.2-1.2.7zm5.3-3.3l-.6.4.8 1.1.6-.4.6-.4-.8-1.1-.6.4zm4.1-58.6l.5.5 1-1-1-1-1 1 .5.5zm-29.7-12.7l-.7.1-.7.1.1 1.4.7-.1c.8-.1 0 0 .7-.1l-.1-1.4zm33.3 16.9c.4.5 0 0 .5.5l1.1-.8-.9-1.1-1.1.8.4.6zm-29-15.4h.7c.7 0 0 0 .7.1l.1-1.4h-.7l-.7-.1-.1 1.4zm-11 1l1.4-.3-.3-1.4-1.4.3.3 1.4zm17.2-.2c.6.1 0 0 .7.1l.3-1.4-1.4-.3-.3 1.4.7.2zm14.4 6.4l.6.4c.5.4 0 0 .6.4l.8-1.1-.6-.4-.6-.4-.8 1.1zm-4.7-2.9l.6.3c.6.3 0 0 .6.4l.7-1.3-.6-.3-.6-.3-.7 1.2zm-4.4-2l.6.3.5-1.3-1.3-.5-.5 1.3.7.2zm-32.2 39.5V97h-1.7v3.4h1.7v-1.7zm0 1.7h1.7v1.7h-1.7v-1.7zm3.4 1.7h-1.7v1.7h3.4v-1.7h-1.7zm1.7 1.7h1.7v1.7h-1.7v-1.7zm3.4 6.9v-6.9h-1.7v12h1.7v-1.7h1.7v-1.7h-1.7v-1.7zm1.7 0h1.7v1.7H224v-1.7zm1.7-1.7h1.7v1.7h-1.7V109zm1.7-1.7h1.7v1.7h-1.7v-1.7zm1.7-1.8h1.7v1.7h-1.7v-1.7zm6.8 0h5.1v-1.7h-10.2v1.7h5.1zM224 80.1h17v-1.7h-22.1v1.7h5.1zm20.4 23.7v-1.7H241v1.7h3.4zm-1.7-22h1.7v-1.7H241v1.7h1.7zm1.7 18.6h1.7v1.7h-1.7v-1.7zm0-18.6h1.7v1.7h-1.7v-1.7zm3.4 16.9v-1.6h1.7V86.9h-1.7V97h-1.7v3.4h1.7v-1.7zm0-13.5v-1.7h-1.7v3.4h1.7v-1.7zm-32.3-5.1v1.7h3.4v-1.7h-3.4zm-1.7 1.7h1.7v1.7h-1.7v-1.7zm-1.7 3.4v1.7h1.7v-3.4h-1.7v1.7zm-1.7 3.4V97h1.7V86.9h-1.7v1.7zm44.3 13.5v1.7h1.7v-3.4h-1.7v1.7zm-1.7 1.7h1.7v1.7H253v-1.7zm-3.5 1.7v1.7h3.4v-1.7h-3.4zm-3.4 1.7v5.1h-1.7v1.7h1.7v1.7h1.7v-6.8h1.7v-1.7h-3.4zm-3.4 3.4h1.7v1.7h-1.7v-1.7zm-1.7-1.7h1.7v1.7H241v-1.7zm0-1.7h-6.8v1.7h6.8v-1.7zm10.2-22.1h1.7v1.7h-1.7v-1.7zm1.8 1.7h1.7v1.7H253v-1.7zm3.4 1.8h-1.7V92h1.7v-3.4zm0 3.4v8.4h1.7V92h-1.7zm-34.1-1.8v1.7h1.7v-3.4h-1.7v1.7zm3.4-5.1v1.7h3.4v-1.7h-3.4zm-1.7 1.7h1.7v1.7H224v-1.7zm5.1 0h1.7v1.7h-1.7v-1.7zm3.4-1.7h-1.7v1.7h3.4v-1.7h-1.7zm1.7 1.7h1.7v1.7h-1.7v-1.7zm1.7 5.1h1.7v-3.4h-1.7v3.4zm-1.7 0h1.7v1.7h-1.7v-1.7zm-1.7 1.7h1.7v1.7h-1.7v-1.7zm-1.7 1.7h1.7V97h-1.7v-1.7zm-1.7 1.7h1.7v1.7h-1.7V97zm-1.7-1.7h1.7V97h-1.7v-1.7zm-1.7-1.7h1.7v1.7h-1.7v-1.7zm-1.7-1.7h1.7v1.7H224v-1.7zm-37.4 50h1.4v-1.4h-1.4v1.4zm-3 0h1.4v-1.4h-1.4v1.4zm-9 0h1.4v-1.4h-1.4v1.4zm3 0h1.4v-1.4h-1.4v1.4zm3 0h1.4v-1.4h-1.4v1.4zm-9 0h1.4v-1.4h-1.4v1.4zm105.9 0h1.4v-1.4h-1.4v1.4zm5.7 0h1.4v-1.4h-1.4v1.4zm11.3 0h1.4v-1.4h-1.4v1.4zm-14.2 0h1.4v-1.4h-1.4v1.4zm-5.6 0h1.4v-1.4h-1.4v1.4zm11.3 0h1.4v-1.4H286v1.4zm5.7 0h1.4v-1.4h-1.4v1.4zm-2.9 0h1.4v-1.4h-1.4v1.4zm2.5-10.9l-2.8 2.8-2.9-2.9-2.9 2.9-2.9-2.9-1 1 3.9 3.9 2.9-2.9 1.9 1.9-.1.1 1 1 3.9-3.9-1-1zm-105.7-.1l-2.9 2.9-2.9-2.9-2.9 2.9-2.9-2.8-1 .9 3.9 3.9h.1l2.8-2.9 2.9 2.9 3.9-3.9-1-1zm10.6-117.8h76.1v1.4h-76.1v-1.4zm81.8 6h11.5v1.4H278v-1.4zm0 7.1h11.5v1.4H278v-1.4zm1.5-3.4h17.4v1.4h-17.4v-1.4zm-101.9-3.7h11.5v1.4h-11.5v-1.4zm0 7.1h11.5v1.4h-11.5v-1.4zm-7.3-3.4h17.4v1.4h-17.4v-1.4zm25.9 8.8h76.1V33h-76.1v-1.4z"/></svg>