<svg id="Layer_1" xmlns="http://www.w3.org/2000/svg" viewBox="0 0 310 155" width="310" height="155"><style>.st0{fill:#231f20}</style><path class="st0" d="M137.1 97.3v-1.4h1.4v1.4h-1.4zm-2.8 0v-1.4h1.4v1.4h-1.4zm-2.8 0v-1.4h1.4v1.4h-1.4zm-2.8 0v-1.4h1.4v1.4h-1.4zm-2.8 0v-1.4h1.4v1.4h-1.4zm-1.3-7.1h15.2v1.4h-15.2v-1.4zm-100 7.1v-1.4H26v1.4h-1.4zm-2.8 0v-1.4h1.4v1.4h-1.4zm-2.8 0v-1.4h1.4v1.4H19zm-2.9 0v-1.4h1.4v1.4h-1.4zm-2.8 0v-1.4h1.4v1.4h-1.4zm-1.2-7.1h15.2v1.4H12.1v-1.4zM35 16.3h.8v2.4h2.4v-2.4h.8v5.6h-.8v-2.4h-2.4v2.4H35v-5.6zm6 .8h.8v-.8h2.4v.8h.8v4.8h-.8v-2.4h-2.4v2.4H41v-4.8zm.8 1.6h2.4v-1.6h-2.4v1.6zm5.2-2.4h3.2v.8h.8v1.6h-.8v.8h-2.4v2.4H47v-5.6zm.8.8v1.6h2.4v-1.6h-2.4zm5.2-.8h3.2v.8h.8v1.6h-.8v.8h-2.4v2.4H53v-5.6zm.8.8v1.6h2.4v-1.6h-2.4zm5.2-.8h.8v1.6h.8v.8h.8v-.8h.8v-1.6h.8v1.6h-.8v.8h-.8v3.2h-.8v-3.2h-.8v-.8H59v-1.6zm12 0h3.2v.8h.8v1.6h-.8v.8h.8v1.6h-.8v.8H71v-5.6zm.8 2.4h2.4v-1.6h-2.4v1.6zm0 2.4h2.4v-1.6h-2.4v1.6zm5.2-4.8h4v.8h-1.6v4H81v.8h-4v-.8h1.6v-4H77v-.8zm6 0h3.2v.8h.8v1.6h-.8v.8h-.8v.8h.8v.8h.8v.8h-.8v-.8h-.8v-.8h-.8v-.8h-.8v2.4H83v-5.6zm.8 2.4h2.4v-1.6h-2.4v1.6zm5.2-2.4h4v.8h-1.6v4.8h-.8v-4.8H89v-.8zm6 0h.8v2.4h2.4v-2.4h.8v5.6h-.8v-2.4h-2.4v2.4H95v-5.6zm6 0h3.2v.8h.8v4h-.8v.8H101v-5.6zm.8 4.8h2.4v-4h-2.4v4zm5.2-4h.8v-.8h2.4v.8h.8v4.8h-.8v-2.4h-2.4v2.4h-.8v-4.8zm.8 1.6h2.4v-1.6h-2.4v1.6zm5.2-2.4h.8v1.6h.8v.8h.8v-.8h.8v-1.6h.8v1.6h-.8v.8h-.8v3.2h-.8v-3.2h-.8v-.8h-.8v-1.6zm11.6 39.2h2.1v2.1h-2.1v-2.1zm0 4.1h2.1v2.1h-2.1v-2.1zm2-2.1h2.1v2.1h-2.1v-2.1zm-4.1 0h2.1v2.1h-2.1v-2.1zm10.1-10h2.1v2.1h-2.1v-2.1zm0 4.1h2.1v2.1h-2.1v-2.1zm2.1-2.1h2.1v2.1h-2.1v-2.1zm-4.2 0h2.1v2.1h-2.1v-2.1zm-106 6h2.1v2.1h-2.1v-2.1zm0 4.1h2.1v2.1h-2.1v-2.1zm-2-2.1h2.1v2.1h-2.1v-2.1zm4.1 0h2.1v2.1h-2.1v-2.1zm-10.1-10h2.1v2.1h-2.1v-2.1zm0 4.1h2.1v2.1h-2.1v-2.1zm-2-2.1h2.1v2.1h-2.1v-2.1zm4.1 0h2.1v2.1h-2.1v-2.1zm79.8 92.2v-1.4h1.4v1.4h-1.4zm-2.8 0v-1.4H97v1.4h-1.4zm-2.9 0v-1.4h1.4v1.4h-1.4zm-2.8 0v-1.4h1.4v1.4h-1.4zm-2.8 0v-1.4h1.4v1.4h-1.4zm-2.9 0v-1.4h1.4v1.4h-1.4zm-2.8 0v-1.4h1.4v1.4h-1.4zm-2.8 0v-1.4H80v1.4h-1.4zm-2.9 0v-1.4h1.4v1.4h-1.4zm-2.8 0v-1.4h1.4v1.4h-1.4zm-2.8 0v-1.4h1.4v1.4h-1.4zm-2.9 0v-1.4h1.4v1.4h-1.4zm-2.8 0v-1.4h1.4v1.4h-1.4zm-2.8 0v-1.4H63v1.4h-1.4zm-2.9 0v-1.4h1.4v1.4h-1.4zm-2.8 0v-1.4h1.4v1.4h-1.4zm-2.8 0v-1.4h1.4v1.4h-1.4zm-2.9 0v-1.4h1.4v1.4h-1.4zm-9.3 3.5h71v1.4h-71v-1.4zm87.7-15.3h2.1v2.1h-2.1v-2.1zm0-4.1h2.1v2.1h-2.1v-2.1zm2 2.1h2.1v2.1h-2.1v-2.1zm-4.1 0h2.1v2.1h-2.1v-2.1zm10.1 10.1h2.1v2.1h-2.1V138zm0-4.2h2.1v2.1h-2.1v-2.1zm2.1 2.1h2.1v2.1h-2.1v-2.1zm-4.2 0h2.1v2.1h-2.1v-2.1zm-111.9-6h2.1v2.1h-2.1v-2.1zm0-4.1h2.1v2.1h-2.1v-2.1zm-2.1 2.1h2.1v2.1h-2.1v-2.1zm4.2 0h2.1v2.1h-2.1v-2.1zM14.6 138h2.1v2.1h-2.1V138zm0-4.2h2.1v2.1h-2.1v-2.1zm-2.1 2.1h2.1v2.1h-2.1v-2.1zm4.2 0h2.1v2.1h-2.1v-2.1zm72.1-3.4l-1-1-2.9 2.9-2.9-2.9-2.9 2.9-1.8-1.9-1-1-1 1-1.9 1.9-2.9-2.9-1 1-1.8 1.9-2.9-2.9-1 1 3.9 3.9 2.8-2.9 2.9 2.9 2.9-2.9 2.8 2.9 2.9-2.9 2.9 2.9 3.9-3.9zM146.2 9.8V8.3h1.4v1.4c-1.4.1.1.1-1.4.1zm-2.8 0V8.3h1.4v1.4c-1.4.1 0 .1-1.4.1zm-2.8 0V8.3h1.4v1.4c-1.4.1 0 .1-1.4.1zm-2.9 0V8.3h1.4v1.4c-1.4.1.1.1-1.4.1zm-2.8 0V8.3h1.4v1.4c-1.4.1 0 .1-1.4.1zm-2.8 0V8.3h1.4v1.4c-1.4.1 0 .1-1.4.1zm-2.9 0V8.3h1.4v1.4c-1.4.1 0 .1-1.4.1zm-2.8 0V8.3h1.4v1.4c-1.4.1 0 .1-1.4.1zm-2.8 0V8.3h1.4v1.4c-1.4.1 0 .1-1.4.1zm-2.9 0V8.3h1.4v1.4c-1.4.1 0 .1-1.4.1zm-2.8 0V8.3h1.4v1.4c-1.4.1 0 .1-1.4.1zm-2.8 0V8.3h1.4v1.4c-1.4.1 0 .1-1.4.1zm-2.9 0V8.3h1.4v1.4c-1.4.1 0 .1-1.4.1zm-2.8 0V8.3h1.4v1.4c-1.4.1 0 .1-1.4.1zm-2.8 0V8.3h1.4v1.4c-1.4.1 0 .1-1.4.1zm-2.9 0V8.3h1.4v1.4c-1.4.1 0 .1-1.4.1zm-2.8 0V8.3h1.4v1.4c-1.4.1 0 .1-1.4.1zm-2.8 0V8.3h1.4v1.4c-1.4.1 0 .1-1.4.1zm-2.9 0V8.3h1.4v1.4c-1.4.1 0 .1-1.4.1zm-2.8 0V8.3h1.4v1.4c-1.4.1 0 .1-1.4.1zm-2.9 0V8.3H91v1.4c-1.5.1 0 .1-1.5.1zm-2.8 0V8.3h1.4v1.4c-1.4.1 0 .1-1.4.1zm-2.8 0V8.3h1.4v1.4c-1.4.1 0 .1-1.4.1zm-2.9 0V8.3h1.4v1.4c-1.4.1.1.1-1.4.1zm-2.8 0V8.3h1.4v1.4c-1.4.1 0 .1-1.4.1zm-2.8 0V8.3h1.4v1.4c-1.4.1 0 .1-1.4.1zm-2.9 0V8.3H74v1.4c-1.5.1 0 .1-1.5.1zm-2.8 0V8.3h1.4v1.4c-1.4.1 0 .1-1.4.1zm-2.8 0V8.3h1.4v1.4c-1.4.1 0 .1-1.4.1zm-2.9 0V8.3h1.4v1.4c-1.4.1.1.1-1.4.1zm-2.8 0V8.3h1.4v1.4c-1.4.1 0 .1-1.4.1zm-2.8 0V8.3h1.4v1.4c-1.4.1 0 .1-1.4.1zm-2.9 0V8.3h1.4v1.4c-1.4.1 0 .1-1.4.1zm-2.8 0V8.3h1.4v1.4c-1.4.1 0 .1-1.4.1zm-2.8 0V8.3h1.4v1.4c-1.4.1 0 .1-1.4.1zm-2.9 0V8.3h1.4v1.4c-1.4.1 0 .1-1.4.1zm-2.8 0V8.3h1.4v1.4c-1.4.1 0 .1-1.4.1zm-2.8 0V8.3h1.4v1.4c-1.4.1 0 .1-1.4.1zm-2.9 0V8.3h1.4v1.4c-1.4.1 0 .1-1.4.1zm-2.8 0V8.3h1.4v1.4c-1.4.1 0 .1-1.4.1zm-2.8 0V8.3h1.4v1.4c-1.4.1 0 .1-1.4.1zm-2.9 0V8.3h1.4v1.4c-1.4.1 0 .1-1.4.1zm-2.8 0V8.3h1.4v1.4c-1.4.1 0 .1-1.4.1zm-2.8 0V8.3h1.4v1.4c-1.4.1 0 .1-1.4.1zm-2.9 0V8.3h1.4v1.4c-1.4.1 0 .1-1.4.1zm-2.8 0V8.3h1.4v1.4c-1.4.1 0 .1-1.4.1zm-2.9 0V8.3h1.4v1.4c-1.4.1.1.1-1.4.1zm-2.8 0V8.3h1.4v1.4c-1.4.1 0 .1-1.4.1zm-2.8 0V8.3h1.4v1.4c-1.4.1 0 .1-1.4.1zm-2.9 0V8.3h1.4v1.4c-1.4.1.1.1-1.4.1zm138.9 18.6V27h1.4v1.4h-1.4zm-2.8 0V27h1.4v1.4h-1.4zm-2.8 0V27h1.4v1.4h-1.4zm-2.9 0V27h1.4v1.4h-1.4zm-2.8 0V27h1.4v1.4h-1.4zm-2.8 0V27h1.4v1.4h-1.4zm-2.9 0V27h1.4v1.4h-1.4zm-2.8 0V27h1.4v1.4h-1.4zm-2.8 0V27h1.4v1.4h-1.4zm-2.9 0V27h1.4v1.4h-1.4zm-2.8 0V27h1.4v1.4h-1.4zm-2.8 0V27h1.4v1.4h-1.4zm-2.9 0V27h1.4v1.4h-1.4zm-2.8 0V27h1.4v1.4h-1.4zm-2.8 0V27h1.4v1.4h-1.4zm-2.9 0V27h1.4v1.4h-1.4zm-2.8 0V27h1.4v1.4h-1.4zm-2.8 0V27h1.4v1.4h-1.4zm-2.9 0V27h1.4v1.4h-1.4zm-2.8 0V27h1.4v1.4h-1.4zm-2.9 0V27H91v1.4h-1.5zm-2.8 0V27h1.4v1.4h-1.4zm-2.8 0V27h1.4v1.4h-1.4zm-2.9 0V27h1.4v1.4H81zm-2.8 0V27h1.4v1.4h-1.4zm-2.8 0V27h1.4v1.4h-1.4zm-2.9 0V27H74v1.4h-1.5zm-2.8 0V27h1.4v1.4h-1.4zm-2.8 0V27h1.4v1.4h-1.4zm-2.9 0V27h1.4v1.4H64zm-2.8 0V27h1.4v1.4h-1.4zm-2.8 0V27h1.4v1.4h-1.4zm-2.9 0V27h1.4v1.4h-1.4zm-2.8 0V27h1.4v1.4h-1.4zm-2.8 0V27h1.4v1.4h-1.4zm-2.9 0V27h1.4v1.4H47zm-2.8 0V27h1.4v1.4h-1.4zm-2.8 0V27h1.4v1.4h-1.4zm-2.9 0V27h1.4v1.4h-1.4zm-2.8 0V27h1.4v1.4h-1.4zm-2.8 0V27h1.4v1.4h-1.4zm-2.9 0V27h1.4v1.4H30zm-2.8 0V27h1.4v1.4h-1.4zm-2.8 0V27h1.4v1.4h-1.4zm-2.9 0V27h1.4v1.4h-1.4zm-2.8 0V27h1.4v1.4h-1.4zm-2.9 0V27h1.4v1.4h-1.4zm-2.8 0V27h1.4v1.4H13zm-2.8 0V27h1.4v1.4h-1.4zm-2.9 0V27h1.4v1.4H7.3zm118.2-13.9h16.2v1.4h-16.2v-1.4zm-113 0h16.2v1.4H12.5v-1.4zm113 7.1h16.2V23h-16.2v-1.4zm-113 0h16.2V23H12.5v-1.4zM61.4 116H59v2.4h7.1V116h-4.7zm-4.8 0v-2.3H59v-2.4h-2.4v-4.8H59v-2.3h7.1v-2.4H59v2.3h-2.4v-4.7H59V97h-2.4v-2.3h-2.4v26H59v-2.4h-2.4V116zm9.5-37.9v-2.3h2.4V71h-2.4v4.7h-2.4v4.8h2.4v-2.4zm4.8-9.4h2v8H75V60.1h-2.1v6.2h-2.1l.1 2.4-2.4-.1V71h2.4v-2.3zm23.6 7v-2.3h-2.3V71h-2.4v2.4h2.3v2.4l2.4-.1v7.1h-2.4v2.4H85v2.3h-7.1v2.4h-4.7v2.4H78v-2.4h7.1v-2.3h7.1v-2.4h2.3v4.7h-2.4v2.4H85v2.3h-7.1V97h-4.7v2.4H78V97h7.1v-2.3h7.1v-2.4h2.3V97h-2.4v2.4H85v2.4h-7.1v2.4h-4.7v2.3h-7.1v2.4h7.1v-2.3H78v-2.4h7.1v-2.4h7.1v-2.4h2.3v4.8h-2.4v2.3H85v2.4h-7.1v2.4h-4.7v2.3h-7.1v2.4h7.1v-2.3H78v-2.4h7.1v-2.4h7.1v-2.3h4.7V82.7v-7h-2.4zm-33.1 33.2H59v2.4h7.1v-2.4h-4.7zm9.4-9.5h-4.7v2.4h7.1v-2.4h-2.4zM59 97h7.1v-2.3h7.1v-2.4h-7.1v2.3H59V90h2.4v-4.8h2.3v-4.7h-2.4v4.7H59v4.7h-2.4v4.8H59V97zm22.2-39h2.1v2.1h-2.1V58zm-4.1 0h4.1v-2.1h-4.1v-2.1H75v-4.1h-2.1v4.2H75v2h2l.1 2.1H75v2.1h2.1V58zm6.2 4.2v14.5h2.1v-8h2V71h2.4v-2.4h-2.4v-2.3h-2v-6.2h-2.1v2.1zm-4.2 14.5H75v2.1h8.3v-2.1h-4.2zm-2-29.1v-2h2v2h2.1v-2.1h-2.1v-2H77v2h-2v4.2h2.1v-2.1zm2-6.2h2.1v2.1h-2.1v-2.1zm2.1 6.2h2.1v2.1h-2.1v-2.1zm2.1 6.2h-2.1v2.1h2.1v-2.1l2.1.1v-4.2h-2.1v4.1zm208.8 43.5v-1.4h1.4v1.4h-1.4zm-2.8 0v-1.4h1.4v1.4h-1.4zm-2.8 0v-1.4h1.4v1.4h-1.4zm-2.8 0v-1.4h1.4v1.4h-1.4zm-2.8 0v-1.4h1.4v1.4h-1.4zm-1.3-7.1h15.2v1.4h-15.2v-1.4zm-100 7.1v-1.4h1.4v1.4h-1.4zm-2.8 0v-1.4h1.4v1.4h-1.4zm-2.8 0v-1.4h1.4v1.4H174zm-2.9 0v-1.4h1.4v1.4h-1.4zm-2.8 0v-1.4h1.4v1.4h-1.4zm-1.2-7.1h15.2v1.4h-15.2v-1.4zM190 16.3h.8v2.4h2.4v-2.4h.8v5.6h-.8v-2.4h-2.4v2.4h-.8v-5.6zm6 .8h.8v-.8h2.4v.8h.8v4.8h-.8v-2.4h-2.4v2.4h-.8v-4.8zm.8 1.6h2.4v-1.6h-2.4v1.6zm5.2-2.4h3.2v.8h.8v1.6h-.8v.8h-2.4v2.4h-.8v-5.6zm.8.8v1.6h2.4v-1.6h-2.4zm5.2-.8h3.2v.8h.8v1.6h-.8v.8h-2.4v2.4h-.8v-5.6zm.8.8v1.6h2.4v-1.6h-2.4zm5.2-.8h.8v1.6h.8v.8h.8v-.8h.8v-1.6h.8v1.6h-.8v.8h-.8v3.2h-.8v-3.2h-.8v-.8h-.8v-1.6zm12 0h3.2v.8h.8v1.6h-.8v.8h.8v1.6h-.8v.8H226v-5.6zm.8 2.4h2.4v-1.6h-2.4v1.6zm0 2.4h2.4v-1.6h-2.4v1.6zm5.2-4.8h4v.8h-1.6v4h1.6v.8h-4v-.8h1.6v-4H232v-.8zm6 0h3.2v.8h.8v1.6h-.8v.8h-.8v.8h.8v.8h.8v.8h-.8v-.8h-.8v-.8h-.8v-.8h-.8v2.4h-.8v-5.6zm.8 2.4h2.4v-1.6h-2.4v1.6zm5.2-2.4h4v.8h-1.6v4.8h-.8v-4.8H244v-.8zm6 0h.8v2.4h2.4v-2.4h.8v5.6h-.8v-2.4h-2.4v2.4h-.8v-5.6zm6 0h3.2v.8h.8v4h-.8v.8H256v-5.6zm.8 4.8h2.4v-4h-2.4v4zm5.2-4h.8v-.8h2.4v.8h.8v4.8h-.8v-2.4h-2.4v2.4h-.8v-4.8zm.8 1.6h2.4v-1.6h-2.4v1.6zm5.2-2.4h.8v1.6h.8v.8h.8v-.8h.8v-1.6h.8v1.6h-.8v.8h-.8v3.2h-.8v-3.2h-.8v-.8h-.8v-1.6zm9.5 41.2h2.1v2.1h-2.1v-2.1zm0 4.2h2.1v2.1h-2.1v-2.1zm2.1-2.1h2.1v2.1h-2.1v-2.1zm-4.2 0h2.1v2.1h-2.1v-2.1zm10.1-10.1h2.1v2.1h-2.1v-2.1zm0 4.2h2.1v2.1h-2.1v-2.1zm2.1-2.1h2.1v2.1h-2.1v-2.1zm-4.2 0h2.1v2.1h-2.1v-2.1zm-101.8 5.9h2.1v2.1h-2.1v-2.1zm0 4.2h2.1v2.1h-2.1v-2.1zm-2.1-2.1h2.1v2.1h-2.1v-2.1zm4.2 0h2.1v2.1h-2.1v-2.1zm-10.1-10.1h2.1v2.1h-2.1v-2.1zm0 4.2h2.1v2.1h-2.1v-2.1zm-2.1-2.1h2.1v2.1h-2.1v-2.1zm4.2 0h2.1v2.1h-2.1v-2.1zm77.7 90.1v-1.4h1.4v1.4h-1.4zm-2.8 0v-1.4h1.4v1.4h-1.4zm-2.9 0v-1.4h1.4v1.4h-1.4zm-2.8 0v-1.4h1.4v1.4h-1.4zm-2.8 0v-1.4h1.4v1.4h-1.4zm-2.9 0v-1.4h1.4v1.4h-1.4zm-2.8 0v-1.4h1.4v1.4h-1.4zm-2.8 0v-1.4h1.4v1.4h-1.4zm-2.9 0v-1.4h1.4v1.4h-1.4zm-2.8 0v-1.4h1.4v1.4h-1.4zm-2.8 0v-1.4h1.4v1.4h-1.4zm-2.9 0v-1.4h1.4v1.4h-1.4zm-2.8 0v-1.4h1.4v1.4h-1.4zm-2.8 0v-1.4h1.4v1.4h-1.4zm-2.9 0v-1.4h1.4v1.4h-1.4zm-2.8 0v-1.4h1.4v1.4h-1.4zm-2.8 0v-1.4h1.4v1.4h-1.4zm-2.9 0v-1.4h1.4v1.4h-1.4zm-9.3 3.5h71v1.4h-71v-1.4zm85.6-17.3h2.1v2.1h-2.1v-2.1zm0-4.2h2.1v2.1h-2.1v-2.1zm2.1 2.1h2.1v2.1h-2.1v-2.1zm-4.2 0h2.1v2.1h-2.1v-2.1zm10.1 10.1h2.1v2.1h-2.1v-2.1zm0-4.1h2.1v2.1h-2.1v-2.1zm2.1 2h2.1v2.1h-2.1v-2.1zm-4.1 0h2.1v2.1h-2.1v-2.1zm-107.8-5.9h2.1v2.1h-2.1v-2.1zm0-4.2h2.1v2.1h-2.1v-2.1zm-2.1 2.1h2.1v2.1h-2.1v-2.1zm4.1 0h2.1v2.1h-2.1v-2.1zm-10 10.1h2.1v2.1h-2.1v-2.1zm0-4.1h2.1v2.1h-2.1v-2.1zm-2.1 2h2.1v2.1h-2.1v-2.1zm4.1 0h2.1v2.1h-2.1v-2.1zm70.1-1.3l-1-1-2.9 2.9-2.9-2.9-1 1-1.9 1.9-1.8-1.9-1-1-1 1-1.9 1.9-2.9-2.9-1 1-1.8 1.9-2.9-2.9-1 1 3.9 3.9 2.8-2.9 2.9 2.9 2.9-2.9 2.8 2.9 2.9-2.9 2.9 2.9 3.9-3.9zM301.2 9.8V8.3h1.4v1.4c-1.4.1.1.1-1.4.1zm-2.8 0V8.3h1.4v1.4c-1.4.1 0 .1-1.4.1zm-2.8 0V8.3h1.4v1.4c-1.4.1 0 .1-1.4.1zm-2.9 0V8.3h1.4v1.4c-1.4.1.1.1-1.4.1zm-2.8 0V8.3h1.4v1.4c-1.4.1 0 .1-1.4.1zm-2.8 0V8.3h1.4v1.4c-1.4.1 0 .1-1.4.1zm-2.9 0V8.3h1.4v1.4c-1.4.1 0 .1-1.4.1zm-2.8 0V8.3h1.4v1.4c-1.4.1 0 .1-1.4.1zm-2.8 0V8.3h1.4v1.4c-1.4.1 0 .1-1.4.1zm-2.9 0V8.3h1.4v1.4c-1.4.1 0 .1-1.4.1zm-2.8 0V8.3h1.4v1.4c-1.4.1 0 .1-1.4.1zm-2.8 0V8.3h1.4v1.4c-1.4.1 0 .1-1.4.1zm-2.9 0V8.3h1.4v1.4c-1.4.1 0 .1-1.4.1zm-2.8 0V8.3h1.4v1.4c-1.4.1 0 .1-1.4.1zm-2.8 0V8.3h1.4v1.4c-1.4.1 0 .1-1.4.1zm-2.9 0V8.3h1.4v1.4c-1.4.1 0 .1-1.4.1zm-2.8 0V8.3h1.4v1.4c-1.4.1 0 .1-1.4.1zm-2.8 0V8.3h1.4v1.4c-1.4.1 0 .1-1.4.1zm-2.9 0V8.3h1.4v1.4c-1.4.1 0 .1-1.4.1zm-2.8 0V8.3h1.4v1.4c-1.4.1 0 .1-1.4.1zm-2.9 0V8.3h1.4v1.4c-1.4.1.1.1-1.4.1zm-2.8 0V8.3h1.4v1.4c-1.4.1 0 .1-1.4.1zm-2.8 0V8.3h1.4v1.4c-1.4.1 0 .1-1.4.1zm-2.9 0V8.3h1.4v1.4c-1.4.1.1.1-1.4.1zm-2.8 0V8.3h1.4v1.4c-1.4.1 0 .1-1.4.1zm-2.8 0V8.3h1.4v1.4c-1.4.1 0 .1-1.4.1zm-2.9 0V8.3h1.4v1.4c-1.4.1.1.1-1.4.1zm-2.8 0V8.3h1.4v1.4c-1.4.1 0 .1-1.4.1zm-2.8 0V8.3h1.4v1.4c-1.4.1 0 .1-1.4.1zm-2.9 0V8.3h1.4v1.4c-1.4.1.1.1-1.4.1zm-2.8 0V8.3h1.4v1.4c-1.4.1 0 .1-1.4.1zm-2.8 0V8.3h1.4v1.4c-1.4.1 0 .1-1.4.1zm-2.9 0V8.3h1.4v1.4c-1.4.1 0 .1-1.4.1zm-2.8 0V8.3h1.4v1.4c-1.4.1 0 .1-1.4.1zm-2.8 0V8.3h1.4v1.4c-1.4.1 0 .1-1.4.1zm-2.9 0V8.3h1.4v1.4c-1.4.1 0 .1-1.4.1zm-2.8 0V8.3h1.4v1.4c-1.4.1 0 .1-1.4.1zm-2.8 0V8.3h1.4v1.4c-1.4.1 0 .1-1.4.1zm-2.9 0V8.3h1.4v1.4c-1.4.1 0 .1-1.4.1zm-2.8 0V8.3h1.4v1.4c-1.4.1 0 .1-1.4.1zm-2.8 0V8.3h1.4v1.4c-1.4.1 0 .1-1.4.1zm-2.9 0V8.3h1.4v1.4c-1.4.1 0 .1-1.4.1zm-2.8 0V8.3h1.4v1.4c-1.4.1 0 .1-1.4.1zm-2.8 0V8.3h1.4v1.4c-1.4.1 0 .1-1.4.1zm-2.9 0V8.3h1.4v1.4c-1.4.1 0 .1-1.4.1zm-2.8 0V8.3h1.4v1.4c-1.4.1 0 .1-1.4.1zm-2.9 0V8.3h1.4v1.4c-1.4.1.1.1-1.4.1zm-2.8 0V8.3h1.4v1.4c-1.4.1 0 .1-1.4.1zm-2.8 0V8.3h1.4v1.4c-1.4.1 0 .1-1.4.1zm-2.9 0V8.3h1.4v1.4c-1.4.1.1.1-1.4.1zm138.9 18.6V27h1.4v1.4h-1.4zm-2.8 0V27h1.4v1.4h-1.4zm-2.8 0V27h1.4v1.4h-1.4zm-2.9 0V27h1.4v1.4h-1.4zm-2.8 0V27h1.4v1.4h-1.4zm-2.8 0V27h1.4v1.4h-1.4zm-2.9 0V27h1.4v1.4h-1.4zm-2.8 0V27h1.4v1.4h-1.4zm-2.8 0V27h1.4v1.4h-1.4zm-2.9 0V27h1.4v1.4h-1.4zm-2.8 0V27h1.4v1.4h-1.4zm-2.8 0V27h1.4v1.4h-1.4zm-2.9 0V27h1.4v1.4h-1.4zm-2.8 0V27h1.4v1.4h-1.4zm-2.8 0V27h1.4v1.4h-1.4zm-2.9 0V27h1.4v1.4h-1.4zm-2.8 0V27h1.4v1.4h-1.4zm-2.8 0V27h1.4v1.4h-1.4zm-2.9 0V27h1.4v1.4h-1.4zm-2.8 0V27h1.4v1.4h-1.4zm-2.9 0V27h1.4v1.4h-1.4zm-2.8 0V27h1.4v1.4h-1.4zm-2.8 0V27h1.4v1.4h-1.4zm-2.9 0V27h1.4v1.4H236zm-2.8 0V27h1.4v1.4h-1.4zm-2.8 0V27h1.4v1.4h-1.4zm-2.9 0V27h1.4v1.4h-1.4zm-2.8 0V27h1.4v1.4h-1.4zm-2.8 0V27h1.4v1.4h-1.4zm-2.9 0V27h1.4v1.4H219zm-2.8 0V27h1.4v1.4h-1.4zm-2.8 0V27h1.4v1.4h-1.4zm-2.9 0V27h1.4v1.4h-1.4zm-2.8 0V27h1.4v1.4h-1.4zm-2.8 0V27h1.4v1.4h-1.4zm-2.9 0V27h1.4v1.4H202zm-2.8 0V27h1.4v1.4h-1.4zm-2.8 0V27h1.4v1.4h-1.4zm-2.9 0V27h1.4v1.4h-1.4zm-2.8 0V27h1.4v1.4h-1.4zm-2.8 0V27h1.4v1.4h-1.4zm-2.9 0V27h1.4v1.4H185zm-2.8 0V27h1.4v1.4h-1.4zm-2.8 0V27h1.4v1.4h-1.4zm-2.9 0V27h1.4v1.4h-1.4zm-2.8 0V27h1.4v1.4h-1.4zm-2.9 0V27h1.4v1.4h-1.4zm-2.8 0V27h1.4v1.4H168zm-2.8 0V27h1.4v1.4h-1.4zm-2.9 0V27h1.4v1.4h-1.4zm118.2-13.9h16.2v1.4h-16.2v-1.4zm-113 0h16.2v1.4h-16.2v-1.4zm113 7.1h16.2V23h-16.2v-1.4zm-113 0h16.2V23h-16.2v-1.4zm48.9 96.8h4.7V116H214v2.4h2.4zm-.1-35.6v2.4H214v4.7h-2.4v4.8h2.4V97h7.1v-2.4H214V90h2.4v-4.8h2.3v-4.7h-2.4v2.3zm2.4-4.7v2.4h2.4v-4.8h-2.4v2.4zm2.4-4.7v2.4h2.4V71h-2.4v2.4zm28.4 2.3v-2.3h-2.3V71h-2.4v2.4h2.3v2.4l2.4-.1v7.1h-2.4v2.4H240v2.3h-7.1v2.4h-4.7v2.4h4.8v-2.4h7.1v-2.3h7.1v-2.4h2.3v4.7h-2.4v2.4H240v2.3h-7.1V97h-4.7v2.4h4.8V97h7.1v-2.3h7.1v-2.4h2.3V97h-2.4v2.4H240v2.4h-7.1v2.4h-4.7v2.3h-7.1v2.4h7.1v-2.3h4.8v-2.4h7.1v-2.4h7.1v-2.4h2.3v4.8h-2.4v2.3H240v2.4h-7.1v2.4h-4.7v2.3h-7.1v2.4h7.1v-2.3h4.8v-2.4h7.1v-2.4h7.1v-2.3h4.7V82.7v-7h-2.4zm-7.1-7.1v-2.3h-2v-6.2h-2.1v16.6h2.1v-8l2-.1V71h2.4v-2.4h-2.4zm-30.8 26.1h-2.4v26h4.8v-2.4h-2.4v-4.7h2.4v-2.4h-2.4v-4.8h2.4v-2.3h7.1v-2.4H214v2.3h-2.4v-4.7h2.4V97h-2.4v-2.3zm4.8 16.6h4.7v-2.4H214v2.4h2.4zm9.4-11.9h-4.7v2.4h7.1v-2.4h-2.4zm0-7.1h-4.7v2.4h7.1v-2.4h-2.4zM236.2 58h2.1v2.1h-2.1V58zm-4.1 0h4.1v-2.1h-4.1v-2.1H230v-4.1h-2.1v4.2h2.1v2h2V58h-2v2.1h2.1V58zM230 72.5V60.1h-2.1v6.2h-2.1v2.3h-2.3V71h2.4v-2.3h2v8h2.1v-4.2zm4.1 4.2H230v2.1h8.3v-2.1h-4.2zm4.2-22.9h-2.1v2.1h2.1v-2.1l2.1.1v-4.2h-2.1v4.1zM232 41.4h2.1v2.1H232v-2.1zm.1 6.2h2v-2h2.1v4.1h2.1v-4.2h-2.1v-2h-2.1v2H232v2.1h-2v2.1h2.1v-2.1z"/></svg>