<svg id="Layer_1" xmlns="http://www.w3.org/2000/svg" viewBox="0 0 310 155" width="310" height="155"><style>.st0{fill:#231f20}</style><path class="st0" d="M35.7 18.5h-2.4v4h2.4v-.8h.8v.8h-.8v.8h-2.4v-.8h-.8v-4h.8v-.8h2.4v.8h.8v.8h-.8v-.8zm2.8 0h.8v-.8h2.4v.8h.8v4h-.8v.8h-2.4v-.8h-.8v-4zm.8 4h2.4v-4h-2.4v4zm5.2-4.8h.8v1.6h.8v.8h.8v.8h.8v-3.2h.8v5.6h-.8v-1.6h-.8v-.8h-.8v-.8h-.8v3.2h-.8v-5.6zm6 .8h.8v-.8h2.4v.8h.8v.8h-.8v-.8h-2.4v4h2.4v-.8h-.8v-.8h1.6v1.6h-.8v.8h-2.4v-.8h-.8v-4zm6-.8h3.2v.8h.8v1.6h-.8v.8h-.8v.8h.8v.8h.8v.8h-.8v-.8h-.8v-.8h-.8v-.8h-.8v2.4h-.8v-5.6zm.8 2.4h2.4v-1.6h-2.4v1.6zm5.2-1.6h.8v-.8h2.4v.8h.8v4.8h-.8v-2.4h-2.4v2.4h-.8v-4.8zm.8 1.6h2.4v-1.6h-2.4v1.6zm5.2-2.4h4v.8h-1.6v4.8h-.8v-4.8h-1.6v-.8zm6 0h.8v4.8h2.4v-4.8h.8v4.8h-.8v.8h-2.4v-.8h-.8v-4.8zm6 0h.8v4.8h3.2v.8h-4v-5.6zm6 .8h.8v-.8h2.4v.8h.8v4.8h-.8v-2.4h-2.4v2.4h-.8v-4.8zm.8 1.6h2.4v-1.6h-2.4v1.6zm5.2-2.4h4v.8h-1.6v4.8h-.8v-4.8h-1.6v-.8zm6 0h4v.8h-1.6v4h1.6v.8h-4v-.8h1.6v-4h-1.6v-.8zm6 .8h.8v-.8h2.4v.8h.8v4h-.8v.8h-2.4v-.8h-.8v-4zm.8 4h2.4v-4h-2.4v4zm5.2-4.8h.8v1.6h.8v.8h.8v.8h.8v-3.2h.8v5.6h-.8v-1.6h-.8v-.8h-.8v-.8h-.8v3.2h-.8v-5.6zm6 .8h.8v-.8h3.2v.8h-3.2v1.6h2.4v.8h.8v1.6h-.8v.8h-3.2v-.8h3.2v-1.6h-2.4v-.8h-.8v-1.6zm-.6 9.8v-1.4h1.4v1.4h-1.4zm-2.8 0v-1.4h1.4v1.4h-1.4zm-2.8 0v-1.4h1.4v1.4h-1.4zm-2.9 0v-1.4h1.4v1.4h-1.4zm-2.8 0v-1.4h1.4v1.4h-1.4zm-2.8 0v-1.4h1.4v1.4h-1.4zm-2.9 0v-1.4h1.4v1.4h-1.4zm-2.8 0v-1.4h1.4v1.4h-1.4zm-2.8 0v-1.4h1.4v1.4h-1.4zm-2.9 0v-1.4h1.4v1.4h-1.4zm-2.8 0v-1.4H89v1.4h-1.4zm-2.8 0v-1.4h1.4v1.4h-1.4zm-2.9 0v-1.4h1.4v1.4h-1.4zm-2.8 0v-1.4h1.4v1.4h-1.4zm-2.8 0v-1.4h1.4v1.4h-1.4zm-2.9 0v-1.4h1.4v1.4h-1.4zm-2.8 0v-1.4H72v1.4h-1.4zm-2.8 0v-1.4h1.4v1.4h-1.4zm-2.9 0v-1.4h1.4v1.4h-1.4zm-2.8 0v-1.4h1.4v1.4h-1.4zm-2.8 0v-1.4h1.4v1.4h-1.4zm-2.9 0v-1.4h1.4v1.4h-1.4zm-2.8 0v-1.4H55v1.4h-1.4zm-2.8 0v-1.4h1.4v1.4h-1.4zm-2.9 0v-1.4h1.4v1.4h-1.4zm-2.8 0v-1.4h1.4v1.4h-1.4zm-2.9 0v-1.4h1.4v1.4h-1.4zm-2.8 0v-1.4h1.4v1.4h-1.4zm-2.8 0v-1.4H38v1.4h-1.4zm79.3-15.7v-1.4h1.4v1.4h-1.4zm-2.8 0v-1.4h1.4v1.4h-1.4zm-2.8 0v-1.4h1.4v1.4h-1.4zm-2.9 0v-1.4h1.4v1.4h-1.4zm-2.8 0v-1.4h1.4v1.4h-1.4zm-2.8 0v-1.4h1.4v1.4h-1.4zm-2.9 0v-1.4h1.4v1.4h-1.4zm-2.8 0v-1.4h1.4v1.4h-1.4zm-2.8 0v-1.4h1.4v1.4h-1.4zm-2.9 0v-1.4h1.4v1.4h-1.4zm-2.8 0v-1.4H89v1.4h-1.4zm-2.8 0v-1.4h1.4v1.4h-1.4zm-2.9 0v-1.4h1.4v1.4h-1.4zm-2.8 0v-1.4h1.4v1.4h-1.4zm-2.8 0v-1.4h1.4v1.4h-1.4zm-2.9 0v-1.4h1.4v1.4h-1.4zm-2.8 0v-1.4H72v1.4h-1.4zm-2.8 0v-1.4h1.4v1.4h-1.4zm-2.9 0v-1.4h1.4v1.4h-1.4zm-2.8 0v-1.4h1.4v1.4h-1.4zm-2.8 0v-1.4h1.4v1.4h-1.4zm-2.9 0v-1.4h1.4v1.4h-1.4zm-2.8 0v-1.4H55v1.4h-1.4zm-2.8 0v-1.4h1.4v1.4h-1.4zm-2.9 0v-1.4h1.4v1.4h-1.4zm-2.8 0v-1.4h1.4v1.4h-1.4zm-2.9 0v-1.4h1.4v1.4h-1.4zm-2.8 0v-1.4h1.4v1.4h-1.4zm-2.8 0v-1.4H38v1.4h-1.4zm97.8 96.5v-1.4h1.4v1.4h-1.4zm0-2.9v-1.4h1.4v1.4h-1.4zm0-2.8V102h1.4v1.4h-1.4zm0-2.8v-1.4h1.4v1.4h-1.4zm0-2.9v-1.4h1.4v1.4h-1.4zm0-2.8v-1.4h1.4v1.4h-1.4zm0-2.8v-1.4h1.4v1.4h-1.4zm0-2.9v-1.4h1.4v1.4h-1.4zm0-2.8V85h1.4v1.4h-1.4zm0-2.9v-1.4h1.4v1.4h-1.4zm0-2.8v-1.4h1.4v1.4h-1.4zm0-2.8v-1.4h1.4v1.4h-1.4zm0-2.9v-1.4h1.4V75h-1.4zm0-2.8v-1.4h1.4v1.4h-1.4zm-34.9 70.6v-1.4h1.4v1.4h-1.4zm-2.8 0v-1.4h1.4v1.4h-1.4zm-2.8 0v-1.4h1.4v1.4h-1.4zm-2.9 0v-1.4h1.4v1.4H91zm-2.8 0v-1.4h1.4v1.4h-1.4zm-2.8 0v-1.4h1.4v1.4h-1.4zm-2.9 0v-1.4H84v1.4h-1.5zm-2.8 0v-1.4h1.4v1.4h-1.4zm-2.8 0v-1.4h1.4v1.4h-1.4zm-2.9 0v-1.4h1.4v1.4H74zm-2.8 0v-1.4h1.4v1.4h-1.4zm-2.8 0v-1.4h1.4v1.4h-1.4zm-2.9 0v-1.4h1.4v1.4h-1.4zm-2.8 0v-1.4h1.4v1.4h-1.4zm-2.8 0v-1.4h1.4v1.4h-1.4zm-2.9 0v-1.4h1.4v1.4H57zm-2.8 0v-1.4h1.4v1.4h-1.4zM130.4 81h1.4v16.2h-1.4V81zm8.1 0h1.4v16.2h-1.4V81zM21.9 109.3v-1.4h1.4v1.4h-1.4zm0-2.9V105h1.4v1.4h-1.4zm0-2.8v-1.4h1.4v1.4h-1.4zm0-2.8v-1.4h1.4v1.4h-1.4zm0-2.9v-1.4h1.4v1.4h-1.4zm0-2.8v-1.4h1.4v1.4h-1.4zm0-2.8v-1.4h1.4v1.4h-1.4zm0-2.9V88h1.4v1.4h-1.4zm0-2.8v-1.4h1.4v1.4h-1.4zm0-2.8v-1.4h1.4v1.4h-1.4zm0-2.9v-1.4h1.4v1.4h-1.4zm0-2.8v-1.4h1.4v1.4h-1.4zm0-2.8v-1.4h1.4v1.4h-1.4zm0-2.9V71h1.4v1.4h-1.4zm-4 8.8h1.4v16.2h-1.4V81.2zm8.1 0h1.4v16.2H26V81.2zm67.2-13.5v-4.3H91v-2.2h-2.2V59h-4.3v-2.2H71.3V59h-4.4v2.2h-2.2v2.2h-2.1v4.3h-2.2v15.4h2.2v2.1h2.1v4.4h2.2v2.2h21.9v-2.2H91v-4.4h2.2v-2.1h2.2V67.7h-2.2zm-6.6 19.7v2.2H69.1v-2.2h-2.2v-4.3h2.2v-2.2h4.4v4.3h2.2v-4.3h4.4v4.3h2.2v-4.3h4.3v2.2h2.2v4.3h-2.2zm6.6-15.3v8.8h-4.4v-2.2H66.9v2.2h-4.3v-11h2.2v-4.3h2.1v-2.2h2.2v-2.2h4.4V59h8.8v2.2h4.3v2.2h2.2v2.2H91v4.3h2.2v2.2zm-21.9 24h-2.2v2.2h4.4v-2.2h-2.2zm8.8 0h-2.2v2.2h4.4v-2.2h-2.2zm-6.6 2.2v8.8h4.4v-8.8h-4.4zm2.2 13.1h-4.4v2.2h8.8v-2.2h-4.4zm-8.8-10.9v6.6h-2.1v-11h-11v6.6H56v4.4h-2.2v6.5H67v-4.3h2.1v2.1h2.2v-2.2h-2.2V98.3h-2.2v2.2zm-4.3 10.9H56v-2.1h2.2v-8.8H56v-2.2h6.6v11h2.2v2.1h-2.2zM91 100.5v4.4h4.4v-4.4H91zm8.8-2.2v-2.2H84.5v2.2h-2.2v10.9h-2.2v2.2h2.2v-2.1h2.2v4.3h8.7v-4.3h6.6v-2.2h2.2v-8.8h-2.2zm-2.2 6.6v2.2H91v4.3h-4.3V98.3h10.9v2.2h2.2v4.4h-2.2zM12.1 132h2v2h-2v-2zm2 2h2v2h-2v-2zm2 2h2v2h-2v-2zm0-4h2v2h-2v-2zm-4 4.1h2v2h-2v-2zm7.6 3h2v2h-2v-2zm2 2h2v2h-2v-2zm2 2h2v2h-2v-2zm0-4h2v2h-2v-2zm-4.1 4.1h2v2h-2v-2zm123.3-6.6h2v2h-2v-2zm-2-2h2v2h-2v-2zm-2-2h2v2h-2v-2zm0 4h2v2h-2v-2zm4-4.1h2v2h-2v-2zm-7.6 11.6h2v2h-2v-2zm-2-2h2v2h-2v-2zm-2-2h2v2h-2v-2zm0 4h2v2h-2v-2zm4.1-4.1h2v2h-2v-2zm.3-111.6h2v2h-2v-2zm-2.1-2h2v2h-2v-2zm-2-2h2v2h-2v-2zm0 4h2v2h-2v-2zm4.1-4h2v2h-2v-2zm0-11.4h2v2h-2v-2zm-2.1-2h2v2h-2v-2zm-2-2.1h2v2h-2v-2zm0 4.1h2v2h-2v-2zm4.1-4.1h2v2h-2v-2zm8.3 11.9h2v2h-2v-2zm-2-2h2v2h-2v-2zm-2-2h2v2h-2v-2zm0 4h2v2h-2v-2zm4.1-4.1h2v2h-2v-2zM17.3 28.4h2v2h-2v-2zm2-2h2v2h-2v-2zm2.1-2h2v2h-2v-2zm0 4h2v2h-2v-2zm-4.1-4h2v2h-2v-2zm0-11.4h2v2h-2v-2zm2-2h2v2h-2v-2zm2.1-2.1h2v2h-2v-2zm0 4.1h2v2h-2v-2zm-4.1-4.1h2v2h-2v-2zM9 20.8h2v2H9v-2zm2-2h2v2h-2v-2zm2-2h2v2h-2v-2zm0 4h2v2h-2v-2zm-4.1-4.1h2v2h-2v-2zM31.3 66l1-1 1 1-1 1-1-1zm2-2l1-1 1 1-1 1-1-1zm2-2l1-1 1 1-1 1-1-1zm2-2l1-1 1 1-1 1-1-1zm2-2l1-1 1 1-1 1-1-1zm2-2l1-1 1 1-1 1-1-1zm2-2l1-1 1 1-1 1-1-1zm2-2l1-1 1 1-1 1-1-1zm2-2l1-1 1 1-1 1-1-1zm2-2l1-1 1 1-1 1-1-1zm2-2l1-1 1 1-1 1-1-1zm2-2l1-1 1 1-1 1-1-1zm2-2l1-1 1 1-1 1-1-1zm65.9 23l1-1 1 1-1 1-1-1zm-2-2.1l1-1 1 1-1 1-1-1zm-2-2l1-1 1 1-1 1-1-1zm-2-2l1-1 1 1-1 1-1-1zm-2-2l1-1 1 1-1 1-1-1zm-2-2l1-1 1 1-1 1-1-1zm-2-2l1-1 1 1-1 1-1-1zm-2-2l1-1 1 1-1 1-1-1zm-2-2l1-1 1 1-1 1-1-1zm-2-2l1-1 1 1-1 1-1-1zm-2-2l1-1 1 1-1 1-1-1zm-2-2l1-1 1 1-1 1-1-1zm-2-2l1-1 1 1-1 1-1-1zm1.1 90.7l1-1 1 1-1 1-1-1zm2-2l1-1 1 1-1 1-1-1zm2-2l1-1 1 1-1 1-1-1zm2-2l1-1 1 1-1 1-1-1zm2-2l1-1 1 1-1 1-1-1zm2-2.1l1-1 1 1-1 1-1-1zm2-2l1-1 1 1-1 1-1-1zm2-2l1-1 1 1-1 1-1-1zm2-2l1-1 1 1-1 1-1-1zm2-2l1-1 1 1-1 1-1-1zm2-2l1-1 1 1-1 1-1-1zm2-2l1-1 1 1-1 1-1-1zm2-2l1-1 1 1-1 1-1-1zm-65.9 25.1l1-1 1 1-1 1-1-1zm-2-2l1-1 1 1-1 1-1-1zm-2-2l1-1 1 1-1 1-1-1zm-2-2l1-1 1 1-1 1-1-1zm-2-2l1-1 1 1-1 1-1-1zm-2-2l1-1 1 1-1 1-1-1zm-2-2l1-1 1 1-1 1-1-1zm-2-2l1-1 1 1-1 1-1-1zm-2-2l1-1 1 1-1 1-1-1zm-2-2l1-1 1 1-1 1-1-1zm-2-2l1-1 1 1-1 1-1-1zm-2-2l1-1 1 1-1 1-1-1zm-2.1-2l1-1 1 1-1 1c-1-1 .1 0-1-1zm14.6 25l-16.1-16.1 1-1 16.1 16.1-1 1zm62.1-.1l-1-1 16.1-16.1 1 1-16.1 16.1zM124.2 57l-16.1-16.1 1-1 16 16.1-.9 1zm-92.4-.1l-1-1 16-16.1 1 1-16 16.1zm172.7 30.4v4.4h2.2v-6.5h-2.2v2.1zm6.5-4.4h-4.3v-6.5h-2.2V83h2.1v2.1h6.6v-2.2H211zm-8.8 0h-4.3v2.2h6.5v-2.2h-2.2zm61.3-19.5h-2.2V59h-2.2v4.4h2.2v2.2h-2.2v4.3h2.2v-4.3h4.4v-2.2h-2.2zm-6.5 0h-2.2v2.2h4.3v-2.2H257zm-30.7 32.7h-2.2v2.2h4.4v-2.2h-2.2zm8.8 0h-2.2v2.2h4.4v-2.2h-2.2zm-6.6 2.2v8.8h4.4v-8.8h-4.4zm2.2 13.1h-4.4v2.2h8.8v-2.2h-4.4zm-8.8-10.9v6.6h-2.1v-11h-11v6.6h2.2v4.4h-2.2v6.5H222v-4.3h2.1v-11h-2.2v2.2zm-3.3 10.9H211v-2.1h2.2v-8.8H211v-2.2h6.6v11h2.2v2.1h-1.2zm27.4-10.9v4.4h4.4v-4.4H246zm8.8-2.2v-2.2h-15.3v2.2h-2.2v10.9h-2.2v2.2h2.2v-2.1h2.2v4.3h8.7v-4.3h6.6v-2.2h2.2v-8.8h-2.2zm-2.2 6.6v2.2H246v4.3h-4.3V98.3h10.9v2.2h2.2v4.4h-2.2zm-28.5 4.3h2.2v2.2h-2.2v-2.2zm-33.4-90.7h-2.4v4h2.4v-.8h.8v.8h-.8v.8h-2.4v-.8h-.8v-4h.8v-.8h2.4v.8h.8v.8h-.8v-.8zm2.8 0h.8v-.8h2.4v.8h.8v4h-.8v.8h-2.4v-.8h-.8v-4zm.8 4h2.4v-4h-2.4v4zm5.2-4.8h.8v1.6h.8v.8h.8v.8h.8v-3.2h.8v5.6h-.8v-1.6h-.8v-.8h-.8v-.8h-.8v3.2h-.8v-5.6zm6 .8h.8v-.8h2.4v.8h.8v.8h-.8v-.8h-2.4v4h2.4v-.8h-.8v-.8h1.6v1.6h-.8v.8h-2.4v-.8h-.8v-4zm6-.8h3.2v.8h.8v1.6h-.8v.8h-.8v.8h.8v.8h.8v.8h-.8v-.8h-.8v-.8h-.8v-.8h-.8v2.4h-.8v-5.6zm.8 2.4h2.4v-1.6h-2.4v1.6zm5.2-1.6h.8v-.8h2.4v.8h.8v4.8h-.8v-2.4h-2.4v2.4h-.8v-4.8zm.8 1.6h2.4v-1.6h-2.4v1.6zm5.2-2.4h4v.8h-1.6v4.8h-.8v-4.8h-1.6v-.8zm6 0h.8v4.8h2.4v-4.8h.8v4.8h-.8v.8h-2.4v-.8h-.8v-4.8zm6 0h.8v4.8h3.2v.8h-4v-5.6zm6 .8h.8v-.8h2.4v.8h.8v4.8h-.8v-2.4h-2.4v2.4h-.8v-4.8zm.8 1.6h2.4v-1.6h-2.4v1.6zm5.2-2.4h4v.8h-1.6v4.8h-.8v-4.8h-1.6v-.8zm6 0h4v.8h-1.6v4h1.6v.8h-4v-.8h1.6v-4h-1.6v-.8zm6 .8h.8v-.8h2.4v.8h.8v4h-.8v.8h-2.4v-.8h-.8v-4zm.8 4h2.4v-4h-2.4v4zm5.2-4.8h.8v1.6h.8v.8h.8v.8h.8v-3.2h.8v5.6h-.8v-1.6h-.8v-.8h-.8v-.8h-.8v3.2h-.8v-5.6zm6 .8h.8v-.8h3.2v.8h-3.2v1.6h2.4v.8h.8v1.6h-.8v.8h-3.2v-.8h3.2v-1.6h-2.4v-.8h-.8v-1.6zm-.6 9.8v-1.4h1.4v1.4h-1.4zm-2.8 0v-1.4h1.4v1.4h-1.4zm-2.8 0v-1.4h1.4v1.4h-1.4zm-2.9 0v-1.4h1.4v1.4h-1.4zm-2.8 0v-1.4h1.4v1.4h-1.4zm-2.8 0v-1.4h1.4v1.4h-1.4zm-2.9 0v-1.4h1.4v1.4h-1.4zm-2.8 0v-1.4h1.4v1.4h-1.4zm-2.8 0v-1.4h1.4v1.4h-1.4zm-2.9 0v-1.4h1.4v1.4h-1.4zm-2.8 0v-1.4h1.4v1.4h-1.4zm-2.8 0v-1.4h1.4v1.4h-1.4zm-2.9 0v-1.4h1.4v1.4h-1.4zm-2.8 0v-1.4h1.4v1.4h-1.4zm-2.8 0v-1.4h1.4v1.4h-1.4zm-2.9 0v-1.4h1.4v1.4h-1.4zm-2.8 0v-1.4h1.4v1.4h-1.4zm-2.8 0v-1.4h1.4v1.4h-1.4zm-2.9 0v-1.4h1.4v1.4h-1.4zm-2.8 0v-1.4h1.4v1.4h-1.4zm-2.8 0v-1.4h1.4v1.4h-1.4zm-2.9 0v-1.4h1.4v1.4h-1.4zm-2.8 0v-1.4h1.4v1.4h-1.4zm-2.8 0v-1.4h1.4v1.4h-1.4zm-2.9 0v-1.4h1.4v1.4h-1.4zm-2.8 0v-1.4h1.4v1.4h-1.4zm-2.9 0v-1.4h1.4v1.4h-1.4zm-2.8 0v-1.4h1.4v1.4h-1.4zm-2.8 0v-1.4h1.4v1.4h-1.4zm79.3-15.7v-1.4h1.4v1.4h-1.4zm-2.8 0v-1.4h1.4v1.4h-1.4zm-2.8 0v-1.4h1.4v1.4h-1.4zm-2.9 0v-1.4h1.4v1.4h-1.4zm-2.8 0v-1.4h1.4v1.4h-1.4zm-2.8 0v-1.4h1.4v1.4h-1.4zm-2.9 0v-1.4h1.4v1.4h-1.4zm-2.8 0v-1.4h1.4v1.4h-1.4zm-2.8 0v-1.4h1.4v1.4h-1.4zm-2.9 0v-1.4h1.4v1.4h-1.4zm-2.8 0v-1.4h1.4v1.4h-1.4zm-2.8 0v-1.4h1.4v1.4h-1.4zm-2.9 0v-1.4h1.4v1.4h-1.4zm-2.8 0v-1.4h1.4v1.4h-1.4zm-2.8 0v-1.4h1.4v1.4h-1.4zm-2.9 0v-1.4h1.4v1.4h-1.4zm-2.8 0v-1.4h1.4v1.4h-1.4zm-2.8 0v-1.4h1.4v1.4h-1.4zm-2.9 0v-1.4h1.4v1.4h-1.4zm-2.8 0v-1.4h1.4v1.4h-1.4zm-2.8 0v-1.4h1.4v1.4h-1.4zm-2.9 0v-1.4h1.4v1.4h-1.4zm-2.8 0v-1.4h1.4v1.4h-1.4zm-2.8 0v-1.4h1.4v1.4h-1.4zm-2.9 0v-1.4h1.4v1.4h-1.4zm-2.8 0v-1.4h1.4v1.4h-1.4zm-2.9 0v-1.4h1.4v1.4h-1.4zm-2.8 0v-1.4h1.4v1.4h-1.4zm-2.8 0v-1.4h1.4v1.4h-1.4zm97.8 96.5v-1.4h1.4v1.4h-1.4zm0-2.9v-1.4h1.4v1.4h-1.4zm0-2.8V102h1.4v1.4h-1.4zm0-2.8v-1.4h1.4v1.4h-1.4zm0-2.9v-1.4h1.4v1.4h-1.4zm0-2.8v-1.4h1.4v1.4h-1.4zm0-2.8v-1.4h1.4v1.4h-1.4zm0-2.9v-1.4h1.4v1.4h-1.4zm0-2.8V85h1.4v1.4h-1.4zm0-2.9v-1.4h1.4v1.4h-1.4zm0-2.8v-1.4h1.4v1.4h-1.4zm0-2.8v-1.4h1.4v1.4h-1.4zm0-2.9v-1.4h1.4V75h-1.4zm0-2.8v-1.4h1.4v1.4h-1.4zm-34.9 70.6v-1.4h1.4v1.4h-1.4zm-2.8 0v-1.4h1.4v1.4h-1.4zm-2.8 0v-1.4h1.4v1.4h-1.4zm-2.9 0v-1.4h1.4v1.4H246zm-2.8 0v-1.4h1.4v1.4h-1.4zm-2.8 0v-1.4h1.4v1.4h-1.4zm-2.9 0v-1.4h1.4v1.4h-1.4zm-2.8 0v-1.4h1.4v1.4h-1.4zm-2.8 0v-1.4h1.4v1.4h-1.4zm-2.9 0v-1.4h1.4v1.4H229zm-2.8 0v-1.4h1.4v1.4h-1.4zm-2.8 0v-1.4h1.4v1.4h-1.4zm-2.9 0v-1.4h1.4v1.4h-1.4zm-2.8 0v-1.4h1.4v1.4h-1.4zm-2.8 0v-1.4h1.4v1.4h-1.4zm-2.9 0v-1.4h1.4v1.4H212zm-2.8 0v-1.4h1.4v1.4h-1.4zM285.4 81h1.4v16.2h-1.4V81zm8.1 0h1.4v16.2h-1.4V81zm-116.6 28.3v-1.4h1.4v1.4h-1.4zm0-2.9V105h1.4v1.4h-1.4zm0-2.8v-1.4h1.4v1.4h-1.4zm0-2.8v-1.4h1.4v1.4h-1.4zm0-2.9v-1.4h1.4v1.4h-1.4zm0-2.8v-1.4h1.4v1.4h-1.4zm0-2.8v-1.4h1.4v1.4h-1.4zm0-2.9V88h1.4v1.4h-1.4zm0-2.8v-1.4h1.4v1.4h-1.4zm0-2.8v-1.4h1.4v1.4h-1.4zm0-2.9v-1.4h1.4v1.4h-1.4zm0-2.8v-1.4h1.4v1.4h-1.4zm0-2.8v-1.4h1.4v1.4h-1.4zm0-2.9V71h1.4v1.4h-1.4zm-4 8.8h1.4v16.2h-1.4V81.2zm8.1 0h1.4v16.2H181V81.2zm49.7-.3v-4.4h-2.2v6.6h2.2v-2.2zm6.6 0v-4.4h-2.2v6.6h2.2v-2.2zm13.1-19.8V59h-2.2v-2.2H246v-2.2h-4.3v-2.2h-17.6v2.2h-4.4v2.2h-2.2V59h-2.1v2.1h-2.2v13.2h2.2v2.2h4.3V87h2.2v2.2h4.4V87h-2.2v-2.2h-2.2v-8.3h2.2v-2.2h17.5v2.2h2.2v8.3h-2.2V87h-2.2v2.2h-13.1v2.2h13.2v-2.2h4.3V87h2.2V76.5h4.4v-2.2h2.2V61.1h-2.2zm0 9.8v1.2h-2.2v2.2h-4.4v-2.2h-21.9v2.2h-4.3v-2.2h-2.2v-8.8h2.2v-2.1h2.1V59h2.2v-2.2h4.4v-2.2h13.2v2.2h4.3V59h2.2v2.2h2.2v2.1h2.2v7.6zM167.1 132h2v2h-2v-2zm2 2h2v2h-2v-2zm2 2h2v2h-2v-2zm0-4h2v2h-2v-2zm-4 4.1h2v2h-2v-2zm7.6 3h2v2h-2v-2zm2 2h2v2h-2v-2zm2 2h2v2h-2v-2zm0-4h2v2h-2v-2zm-4.1 4.1h2v2h-2v-2zm123.3-6.6h2v2h-2v-2zm-2-2h2v2h-2v-2zm-2-2h2v2h-2v-2zm0 4h2v2h-2v-2zm4-4.1h2v2h-2v-2zm-7.6 11.6h2v2h-2v-2zm-2-2h2v2h-2v-2zm-2-2h2v2h-2v-2zm0 4h2v2h-2v-2zm4.1-4.1h2v2h-2v-2zm.3-111.6h2v2h-2v-2zm-2.1-2h2v2h-2v-2zm-2-2h2v2h-2v-2zm0 4h2v2h-2v-2zm4.1-4h2v2h-2v-2zm0-11.4h2v2h-2v-2zm-2.1-2h2v2h-2v-2zm-2-2.1h2v2h-2v-2zm0 4.1h2v2h-2v-2zm4.1-4.1h2v2h-2v-2zm8.3 11.9h2v2h-2v-2zm-2-2h2v2h-2v-2zm-2-2h2v2h-2v-2zm0 4h2v2h-2v-2zm4.1-4.1h2v2h-2v-2zM172.3 28.4h2v2h-2v-2zm2-2h2v2h-2v-2zm2.1-2h2v2h-2v-2zm0 4h2v2h-2v-2zm-4.1-4h2v2h-2v-2zm0-11.4h2v2h-2v-2zm2-2h2v2h-2v-2zm2.1-2.1h2v2h-2v-2zm0 4.1h2v2h-2v-2zm-4.1-4.1h2v2h-2v-2zM164 20.8h2v2h-2v-2zm2-2h2v2h-2v-2zm2-2h2v2h-2v-2zm0 4h2v2h-2v-2zm-4.1-4.1h2v2h-2v-2zm38 116.9l-16.1-16.1 1-1 16.1 16.1-1 1zm62.1-.1l-1-1 16.1-16.1 1 1-16.1 16.1zm15.1-76.6L263 40.8l1-1L280.1 56l-1 .9zm-92.3.1l-1-1 16-16.1 1 1-16 16.1zm-.5 9l1-1 1 1-1 1-1-1zm2-2l1-1 1 1-1 1-1-1zm2-2l1-1 1 1-1 1-1-1zm2-2l1-1 1 1-1 1-1-1zm2-2l1-1 1 1-1 1-1-1zm2-2l1-1 1 1-1 1-1-1zm2-2l1-1 1 1-1 1-1-1zm2-2l1-1 1 1-1 1-1-1zm2-2l1-1 1 1-1 1-1-1zm2-2l1-1 1 1-1 1-1-1zm2-2l1-1 1 1-1 1-1-1zm2-2l1-1 1 1-1 1-1-1zm2-2l1-1 1 1-1 1-1-1zm65.9 23l1-1 1 1-1 1-1-1zm-2-2.1l1-1 1 1-1 1-1-1zm-2-2l1-1 1 1-1 1-1-1zm-2-2l1-1 1 1-1 1-1-1zm-2-2l1-1 1 1-1 1-1-1zm-2-2l1-1 1 1-1 1-1-1zm-2-2l1-1 1 1-1 1-1-1zm-2-2l1-1 1 1-1 1-1-1zm-2-2l1-1 1 1-1 1-1-1zm-2-2l1-1 1 1-1 1-1-1zm-2-2l1-1 1 1-1 1-1-1zm-2-2l1-1 1 1-1 1-1-1zm-2-2l1-1 1 1-1 1-1-1zm1.1 90.7l1-1 1 1-1 1-1-1zm2-2l1-1 1 1-1 1-1-1zm2-2l1-1 1 1-1 1-1-1zm2-2l1-1 1 1-1 1-1-1zm2-2l1-1 1 1-1 1-1-1zm2-2.1l1-1 1 1-1 1-1-1zm2-2l1-1 1 1-1 1-1-1zm2-2l1-1 1 1-1 1-1-1zm2-2l1-1 1 1-1 1-1-1zm2-2l1-1 1 1-1 1-1-1zm2-2l1-1 1 1-1 1-1-1zm2-2l1-1 1 1-1 1-1-1zm2-2l1-1 1 1-1 1-1-1zm-65.9 25.1l1-1 1 1-1 1-1-1zm-2-2l1-1 1 1-1 1-1-1zm-2-2l1-1 1 1-1 1-1-1zm-2-2l1-1 1 1-1 1-1-1zm-2-2l1-1 1 1-1 1-1-1zm-2-2l1-1 1 1-1 1-1-1zm-2-2l1-1 1 1-1 1-1-1zm-2-2l1-1 1 1-1 1-1-1zm-2-2l1-1 1 1-1 1-1-1zm-2-2l1-1 1 1-1 1-1-1zm-2-2l1-1 1 1-1 1-1-1zm-2-2l1-1 1 1-1 1-1-1zm-2.1-2l1-1 1 1-1 1c-1-1 .1 0-1-1z"/></svg>