<svg id="Layer_1" xmlns="http://www.w3.org/2000/svg" viewBox="0 0 310 155"><style>.st0{fill:#231f20}</style><path class="st0" d="M34.8 134.6h2.1v2.1h-2.1v-2.1zm4.1 0H41v2.1h-2.1v-2.1zm-2-2H39v2.1h-2.1v-2.1zm0 4.1H39v2.1h-2.1v-2.1zm77.3-2.1h2.1v2.1h-2.1v-2.1zm4.1 0h2.1v2.1h-2.1v-2.1zm-2.1-2h2.1v2.1h-2.1v-2.1zm0 4.1h2.1v2.1h-2.1v-2.1zm21.8-2.1h2.1v2.1H138v-2.1zm4.2 0h2.1v2.1h-2.1v-2.1zm-2.1-2h2.1v2.1h-2.1v-2.1zm0 4.1h2.1v2.1h-2.1v-2.1zm-22.2-94.6h2.1v2.1h-2.1v-2.1zm4.1 0h2.1v2.1H122v-2.1zm-2-2.1h2.1v2.1H120V40zm0 4.1h2.1v2.1H120v-2.1zm-85.5-2h2.1v2.1h-2.1v-2.1zm4.1 0h2.1v2.1h-2.1v-2.1zM36.5 40h2.1v2.1h-2.1V40zm0 4.1h2.1v2.1h-2.1v-2.1zm95.5 92.3V135h1.4v1.4H132zm-2.8 0V135h1.4v1.4h-1.4zm-2.8 0V135h1.4v1.4h-1.4zm-2.9 0V135h1.4v1.4h-1.4zm16.9-8.9v-1.4h1.4v1.4h-1.4zm0-2.8v-1.4h1.4v1.4h-1.4zm0-2.8v-1.4h1.4v1.4h-1.4zm0-2.9v-1.4h1.4v1.4h-1.4zm0-2.8v-1.4h1.4v1.4h-1.4zm-11.1-1.9v-1.4h1.4v1.4h-1.4zm0-2.9V110h1.4v1.4h-1.4zm0-2.8v-1.4h1.4v1.4h-1.4zm0-2.8v-1.4h1.4v1.4h-1.4zm0-2.9v-1.4h1.4v1.4h-1.4zm0-2.8v-1.4h1.4v1.4h-1.4zm0-2.8v-1.4h1.4v1.4h-1.4zm0-2.9V93h1.4v1.4h-1.4zM24 114.3v-1.4h1.4v1.4H24zm0-2.9V110h1.4v1.4H24zm0-2.8v-1.4h1.4v1.4H24zm0-2.8v-1.4h1.4v1.4H24zm0-2.9v-1.4h1.4v1.4H24zm0-2.8v-1.4h1.4v1.4H24zm0-2.9v-1.4h1.4v1.4H24zm0-2.8V93h1.4v1.4H24zm-11.3 33.1v-1.4h1.4v1.4h-1.4zm0-2.8v-1.4h1.4v1.4h-1.4zm0-2.8v-1.4h1.4v1.4h-1.4zm0-2.9v-1.4h1.4v1.4h-1.4zm0-2.8v-1.4h1.4v1.4h-1.4zm-2.4 18.4h2.1v2.1h-2.1v-2.1zm4.2 0h2.1v2.1h-2.1v-2.1zm-2.1-2h2.1v2.1h-2.1v-2.1zm0 4.1h2.1v2.1h-2.1v-2.1zm17.6-.3V135h1.4v1.4H30zm-2.9 0V135h1.4v1.4h-1.4zm-2.8 0V135h1.4v1.4h-1.4zm-2.8 0V135h1.4v1.4h-1.4zm-5.8-116h4v.8h-3.2v1.6h2.4v.8h-2.4v1.6h3.2v.8h-4v-5.6zm6 .8h.8v-.8h2.4v.8h.8V26h-.8v-2.4h-2.4V26h-.8v-4.8zm.8 1.6h2.4v-1.6h-2.4v1.6zm5.2-2.4h3.2v.8h.8v1.6h-.8v.8h-.8v.8h.8v.8h.8v.8h-.8v-.8h-.8v-.8h-.8v-.8h-.8V26h-.8v-5.6zm.8 2.4h2.4v-1.6h-2.4v1.6zm5.2-2.4h.8V22h.8v.8h.8v.8h.8v-3.2h.8V26h-.8v-1.6h-.8v-.8h-.8v-.8h-.8V26h-.8v-5.6zm6 0h4v.8h-3.2v1.6h2.4v.8h-2.4v1.6h3.2v.8h-4v-5.6zm6 0h3.2v.8h.8v4h-.8v.8h-3.2v-5.6zm.8 4.8h2.4v-4h-2.4v4zm11.2-4.8h.8V22h.8v.8h.8V22h.8v-1.6h.8V26h-.8v-3.2h-.8v1.6h-.8v-1.6h-.8V26h-.8v-5.6zm6 0h4v.8h-3.2v1.6h2.4v.8h-2.4v1.6h3.2v.8h-4v-5.6zm6 0h3.2v.8h.8v4h-.8v.8h-3.2v-5.6zm.8 4.8h2.4v-4h-2.4v4zm5.2-4.8h4v.8h-1.6v4h1.6v.8h-4v-.8h1.6v-4h-1.6v-.8zm6 .8h.8v-.8h2.4v.8h.8V26h-.8v-2.4h-2.4V26h-.8v-4.8zm.8 1.6h2.4v-1.6h-2.4v1.6zm14.4-1.6h-2.4v4h2.4v-.8h.8v.8h-.8v.8h-2.4v-.8h-.8v-4h.8v-.8h2.4v.8h.8v.8h-.8v-.8zm2.8 0h.8v-.8h2.4v.8h.8v4h-.8v.8h-2.4v-.8h-.8v-4zm.8 4h2.4v-4h-2.4v4zm5.2-4.8h.8V22h.8v.8h.8v.8h.8v-3.2h.8V26h-.8v-1.6h-.8v-.8h-.8v-.8h-.8V26h-.8v-5.6zm6 0h4v.8h-1.6V26h-.8v-4.8h-1.6v-.8zm6 .8h.8v-.8h2.4v.8h.8V26h-.8v-2.4h-2.4V26h-.8v-4.8zm.8 1.6h2.4v-1.6h-2.4v1.6zm8.4-1.6h-2.4v4h2.4v-.8h.8v.8h-.8v.8h-2.4v-.8h-.8v-4h.8v-.8h2.4v.8h.8v.8h-.8v-.8zm2.8-.8h4v.8h-1.6V26h-.8v-4.8h-1.6v-.8zm6 .8h.8v-.8h3.2v.8h-3.2v1.6h2.4v.8h.8v1.6h-.8v.8h-3.2v-.8h3.2v-1.6h-2.4v-.8h-.8v-1.6zM58.2 135.4h3.6v-3.6h-5.4v1.8h-1.8v-1.8h1.8V130h5.4v1.8h1.8v3.6h-1.8v1.8h1.8v3.6h-1.8v1.8h-5.4v-1.8h-1.8V139h1.8v1.8h5.4v-3.6h-3.6v-1.8zm12.6 0h3.6v-3.6H69v1.8h-1.8v-1.8H69V130h5.4v1.8h1.8v3.6h-1.8v1.8h1.8v3.6h-1.8v1.8H69v-1.8h-1.8V139H69v1.8h5.4v-3.6h-3.6v-1.8zm9 0h1.8v-1.8h1.8v-1.8h1.8V130h3.6v12.6H87V139h-7.2v-3.6zm7.2-3.6h-1.8v1.8h-1.8v1.8h-1.8v1.8H87v-5.4zm5.4-1.8h9v5.4h-1.8v1.8h-1.8v5.4H96v-5.4h1.8v-1.8h1.8v-3.6h-7.2V130zM20 31.1h6.6v1.4H20v-1.4zm13.8 0h86.9v1.4H33.8v-1.4zm93.4 0h8.9v1.4h-8.9v-1.4zm22 1.4h-7.1v-1.4h5.7v-5h1.4v6.4zm0-13.2h-1.4v-5.5h-5.7v-1.4h7.1v6.9zM20 12.4h116.2v1.4H20v-1.4zM7.2 20.1H5.8v-7.7h8.4v1.4h-7v6.3zm7 12.4H5.8v-7.9h1.4v6.5h7v1.4zm82 19.3h2.3v2.3h-2.3v-2.3zm4.5 0h2.3v2.3h-2.3v-2.3zm-2.2-2.3h2.3v2.3h-2.3v-2.3zm0 4.5h2.3v2.3h-2.3V54zm-44 47.4V90.2h2.2v-2.3h-2.3v2.2h-2.2v11.4l2.3-.1-.1 2.3h2.3v-2.3h-2.2zm15.7 4.5H59v-2.2h-2.3v2.3h2.2v2.2h11.4l-.1-2.3 2.3.1v-2.3h-2.3v2.2zm4.6-15.7v11.2h-2.3v2.3h2.3v-2.2h2.3V90.1h-2.3v-2.2h-2.3v2.3h2.3zm9-11.4v-2.2h-2.2v-6.8h-2.3v-2.2h-4.5v2.2h-2.3v2.3h2.3v-2.2h4.5v6.7h2.2v4.5h2.3v-2.3zm-13.6-4.5H68v4.5h-2.3v4.6h-6.8v2.2h-2.2v2.3H59v-2.2h11.2v2.2h2.3v-2.3h-2.2v-2.2H68v-4.5h2.3v-4.5h2.2v-2.3h-2.3v2.2zm11.4-6.7h2.2v-2.3h-2.2v-2.2h2.2v-2.3h-2.3v2.3h-2.2v4.5h2.3zm4.4 0h-2.2v2.3h4.5v-2.3H86zm.1-6.8h2.2v-2.3h-4.5v2.3h2.3zm4.5 2.3h2.2v2.2h-4.5v2.3h4.6v-2.2h2.2v-2.3h-2.2v-2.3h-4.6v2.3h2.3zm-15.8 2.2v-2.2h-2.3v2.2h-2.2v-2.2H68v2.3h2.2v2.2h4.6v-2.3zM68 58.6h2.3v-4.5h2.2v4.5h2.3v4.5h2.3v-4.6h-2.3V54h-2.3v-2.2h-2.3V54H68v4.6l-2.3-.1v4.6H68v-4.5zm15.8 36v-8.9h2.3v-2.3h2.2v-2.3h-4.5v4.5h-2.3v11.3h2.3v-2.3zm20.3-9v-2.2h-2.2v-2.3h-2.3v-2.3H88.3v2.3h11.3v2.3h2.2v2.3h2.3v11.2h-2.3v2.3h-2.2v2.2H88.3v-2.2h-2.2v-2.3h-2.3v2.3H86v2.3h2.3v2.2h11.3v-2.2h2.3v-2.3h2.2v-2.3h2.3V85.6h-2.3zM55.6 66.5h2.2v2.2h2.3v-2.3h-2.2v-2.2h-2.3v2.3l-2.3-.1v2.3h2.3v-2.2zm-2.3 6.7h2.3v-2.3h-2.3v-2.2H51V71h2.3v2.2zm4.5-2.3v2.3h-2.2v2.3h2.3v-2.3h2.2V71h2.3v-2.3h-2.3v2.2h-2.3zm41.8 23.8h2.3v-2.3h-2.3v2.3zm-4.5-9h2.2v2.2h2.3v2.3h2.3v-2.3h-2.3v-2.3h-2.2v-2.2h-4.6v2.3h2.3zM68 87.9h-4.5v2.3H68v2.2h2.2v4.5h2.3v-4.5h-2.2v-2.3H68v-2.2zm66.1-27.8c1-1 2.6-2.6 2.4-4.1-.2-1.6-1.7-2.7-2.5-4-.9-1.3 1-2.8 1.7-3.8.4-.6 1-1.6.8-2.3-.1-.5-.7-.8-1.1-.5-.4.2-.2.5-.3.8-.3 1.5-1.9 2.4-2.5 3.8-.7 1.9.2 2.8 1.3 4.2.5.6 1.3 1.5 1.1 2.4-.3 1-1.2 1.7-1.8 2.5-.8 1.1-1.1 2.7-.2 3.9 1 1.2 2.7 2.6 1.7 4.2-.9 1.4-2.6 2.6-2.2 4.4.3 1.6 1.9 2.4 2.5 3.9.6 1.4-1.2 2.6-1.9 3.7-1 1.5-.7 2.8.4 4.1.6.7 1.5 1.6 1.7 2.6.1.3-.1.6.3.8.3.2.8.1 1-.2.9-1.3-1.4-3.6-2.1-4.5-.8-.9-.3-1.8.4-2.6.7-.9 1.6-1.8 1.8-3 .2-.8-.2-1.4-.6-2.1-.7-1.2-2.8-2.6-1.9-4.1.8-1.3 2.3-2.3 2.5-4 .1-1.6-1.6-3-2.5-4.2-.4-.6-.4-1.4 0-1.9zM22.1 63c0-.2.3-.5.3-.6.3-.6.3-1.1.1-1.7-.2-.7-.4-1.1-.8-1.6-.6-.7-1.7-1.7-1.7-2.7-.1-.8.6-1.6 1.1-2.2 1-1.3 1.9-2.2 1.3-4-.5-1.4-2.2-2.3-2.5-3.9-.1-.3.1-.6-.2-.8-.4-.4-1-.1-1.2.4-.2.7.3 1.7.7 2.2.6 1 2.7 2.5 1.8 3.9-.9 1.3-2.3 2.4-2.5 4-.3 1.6 1.6 3 2.4 4.2 1 1.5-.8 2.8-1.6 3.9-.4.5-.9 1.4-.8 2 0 1.1.9 2.1 1.6 2.9.7.9 1.8 1.8.8 2.9-.9 1.2-2.7 2.8-2.3 4.4.3 1.1 1.1 2.1 1.9 3 .3.4.7.7.8 1.2.2.8-.2 1-.6 1.6-.7.9-1.6 1.8-1.9 3-.1.6-.2 1.6.7 1.6.8 0 .6-1.1.9-1.6.7-1.3 2.2-2.3 2.4-3.8.2-1.8-1.6-3-2.4-4.4-.9-1.5 1-2.9 1.8-4 .8-1.2.7-2.6-.1-3.7-.6-.7-1.3-1.4-1.8-2.3-.4-.9.1-1.5.6-2.3.3-.5.7-1.1 1.2-1.6zm121.4-10.3h1.4v45h-1.4v-45zm-132.7 0h1.4v45h-1.4v-45zm123 71.6l-1-1-2.9 2.9-2.9-2.9-2.9 2.9-2.8-2.8-1 1 2.8 2.8 1 1 .1.1 1-1-.1-.1 1.9-1.9 1.9 1.9 1 1 1-1 2.9-2.9zm-99.5-.1l-1-1-2.9 2.9-2.8-2.8-2.8 2.9-2.9-2.9-1 1 2.9 2.9 1 1 .9-.9.1-.1 1.8-1.9 2.9 2.9 1-1-.1-.1 2.9-2.9zm155.5 10.4h2.1v2.1h-2.1v-2.1zm4.1 0h2.1v2.1h-2.1v-2.1zm-2-2h2.1v2.1h-2.1v-2.1zm0 4.1h2.1v2.1h-2.1v-2.1zm77.3-2.1h2.1v2.1h-2.1v-2.1zm4.1 0h2.1v2.1h-2.1v-2.1zm-2.1-2h2.1v2.1h-2.1v-2.1zm0 4.1h2.1v2.1h-2.1v-2.1zm21.8-2.1h2.1v2.1H293v-2.1zm4.2 0h2.1v2.1h-2.1v-2.1zm-2.1-2h2.1v2.1h-2.1v-2.1zm0 4.1h2.1v2.1h-2.1v-2.1zm-22.2-94.6h2.1v2.1h-2.1v-2.1zm4.1 0h2.1v2.1H277v-2.1zm-2-2.1h2.1v2.1H275V40zm0 4.1h2.1v2.1H275v-2.1zm-85.5-2h2.1v2.1h-2.1v-2.1zm4.1 0h2.1v2.1h-2.1v-2.1zm-2.1-2.1h2.1v2.1h-2.1V40zm0 4.1h2.1v2.1h-2.1v-2.1zm95.5 92.3V135h1.4v1.4H287zm-2.8 0V135h1.4v1.4h-1.4zm-2.8 0V135h1.4v1.4h-1.4zm-2.9 0V135h1.4v1.4h-1.4zm16.9-8.9v-1.4h1.4v1.4h-1.4zm0-2.8v-1.4h1.4v1.4h-1.4zm0-2.8v-1.4h1.4v1.4h-1.4zm0-2.9v-1.4h1.4v1.4h-1.4zm0-2.8v-1.4h1.4v1.4h-1.4zm-11.1-1.9v-1.4h1.4v1.4h-1.4zm0-2.9V110h1.4v1.4h-1.4zm0-2.8v-1.4h1.4v1.4h-1.4zm0-2.8v-1.4h1.4v1.4h-1.4zm0-2.9v-1.4h1.4v1.4h-1.4zm0-2.8v-1.4h1.4v1.4h-1.4zm0-2.8v-1.4h1.4v1.4h-1.4zm0-2.9V93h1.4v1.4h-1.4zM179 114.3v-1.4h1.4v1.4H179zm0-2.9V110h1.4v1.4H179zm0-2.8v-1.4h1.4v1.4H179zm0-2.8v-1.4h1.4v1.4H179zm0-2.9v-1.4h1.4v1.4H179zm0-2.8v-1.4h1.4v1.4H179zm0-2.9v-1.4h1.4v1.4H179zm0-2.8V93h1.4v1.4H179zm-11.3 33.1v-1.4h1.4v1.4h-1.4zm0-2.8v-1.4h1.4v1.4h-1.4zm0-2.8v-1.4h1.4v1.4h-1.4zm0-2.9v-1.4h1.4v1.4h-1.4zm0-2.8v-1.4h1.4v1.4h-1.4zm-2.4 18.4h2.1v2.1h-2.1v-2.1zm4.2 0h2.1v2.1h-2.1v-2.1zm-2.1-2h2.1v2.1h-2.1v-2.1zm0 4.1h2.1v2.1h-2.1v-2.1zm17.6-.3V135h1.4v1.4H185zm-2.9 0V135h1.4v1.4h-1.4zm-2.8 0V135h1.4v1.4h-1.4zm-2.8 0V135h1.4v1.4h-1.4zm-5.8-116h4v.8h-3.2v1.6h2.4v.8h-2.4v1.6h3.2v.8h-4v-5.6zm6 .8h.8v-.8h2.4v.8h.8V26h-.8v-2.4h-2.4V26h-.8v-4.8zm.8 1.6h2.4v-1.6h-2.4v1.6zm5.2-2.4h3.2v.8h.8v1.6h-.8v.8h-.8v.8h.8v.8h.8v.8h-.8v-.8h-.8v-.8h-.8v-.8h-.8V26h-.8v-5.6zm.8 2.4h2.4v-1.6h-2.4v1.6zm5.2-2.4h.8V22h.8v.8h.8v.8h.8v-3.2h.8V26h-.8v-1.6h-.8v-.8h-.8v-.8h-.8V26h-.8v-5.6zm6 0h4v.8h-3.2v1.6h2.4v.8h-2.4v1.6h3.2v.8h-4v-5.6zm6 0h3.2v.8h.8v4h-.8v.8h-3.2v-5.6zm.8 4.8h2.4v-4h-2.4v4zm11.2-4.8h.8V22h.8v.8h.8V22h.8v-1.6h.8V26h-.8v-3.2h-.8v1.6h-.8v-1.6h-.8V26h-.8v-5.6zm6 0h4v.8h-3.2v1.6h2.4v.8h-2.4v1.6h3.2v.8h-4v-5.6zm6 0h3.2v.8h.8v4h-.8v.8h-3.2v-5.6zm.8 4.8h2.4v-4h-2.4v4zm5.2-4.8h4v.8h-1.6v4h1.6v.8h-4v-.8h1.6v-4h-1.6v-.8zm6 .8h.8v-.8h2.4v.8h.8V26h-.8v-2.4h-2.4V26h-.8v-4.8zm.8 1.6h2.4v-1.6h-2.4v1.6zm14.4-1.6h-2.4v4h2.4v-.8h.8v.8h-.8v.8h-2.4v-.8h-.8v-4h.8v-.8h2.4v.8h.8v.8h-.8v-.8zm2.8 0h.8v-.8h2.4v.8h.8v4h-.8v.8h-2.4v-.8h-.8v-4zm.8 4h2.4v-4h-2.4v4zm5.2-4.8h.8V22h.8v.8h.8v.8h.8v-3.2h.8V26h-.8v-1.6h-.8v-.8h-.8v-.8h-.8V26h-.8v-5.6zm6 0h4v.8h-1.6V26h-.8v-4.8h-1.6v-.8zm6 .8h.8v-.8h2.4v.8h.8V26h-.8v-2.4h-2.4V26h-.8v-4.8zm.8 1.6h2.4v-1.6h-2.4v1.6zm8.4-1.6h-2.4v4h2.4v-.8h.8v.8h-.8v.8h-2.4v-.8h-.8v-4h.8v-.8h2.4v.8h.8v.8h-.8v-.8zm2.8-.8h4v.8h-1.6V26h-.8v-4.8h-1.6v-.8zm6 .8h.8v-.8h3.2v.8h-3.2v1.6h2.4v.8h.8v1.6h-.8v.8h-3.2v-.8h3.2v-1.6h-2.4v-.8h-.8v-1.6zm-77.5 114.2h3.6v-3.6h-5.4v1.8h-1.8v-1.8h1.8V130h5.4v1.8h1.8v3.6h-1.8v1.8h1.8v3.6h-1.8v1.8h-5.4v-1.8h-1.8V139h1.8v1.8h5.4v-3.6h-3.6v-1.8zm12.6 0h3.6v-3.6H224v1.8h-1.8v-1.8h1.8V130h5.4v1.8h1.8v3.6h-1.8v1.8h1.8v3.6h-1.8v1.8H224v-1.8h-1.8V139h1.8v1.8h5.4v-3.6h-3.6v-1.8zm9 0h1.8v-1.8h1.8v-1.8h1.8V130h3.6v12.6H242V139h-7.2v-3.6zm7.2-3.6h-1.8v1.8h-1.8v1.8h-1.8v1.8h5.4v-5.4zm5.4-1.8h9v5.4h-1.8v1.8h-1.8v5.4H251v-5.4h1.8v-1.8h1.8v-3.6h-7.2V130zM175 31.1h6.6v1.4H175v-1.4zm13.8 0h86.9v1.4h-86.9v-1.4zm93.4 0h8.9v1.4h-8.9v-1.4zm22 1.4h-7.1v-1.4h5.7v-5h1.4v6.4zm0-13.2h-1.4v-5.5h-5.7v-1.4h7.1v6.9zM175 12.4h116.2v1.4H175v-1.4zm-12.8 7.7h-1.4v-7.7h8.4v1.4h-7v6.3zm7 12.4h-8.4v-7.9h1.4v6.5h7v1.4zM249 51.8h2.3v2.3H249v-2.3zm4.5-4.6h2.3v2.3h-2.3v-2.3zm-2.3 2.3h2.3v2.3h-2.3v-2.3zm0 4.5h2.3v2.3h-2.3V54zm6.8-2.2h2.3v2.3H258v-2.3zm-2.3-2.3h2.3v2.3h-2.3v-2.3zm0 4.5h2.3v2.3h-2.3V54zm-2.2 2.3h2.3v2.3h-2.3v-2.3zm35.6 3.8c1-1 2.6-2.6 2.4-4.1-.2-1.6-1.7-2.7-2.5-4-.9-1.3 1-2.8 1.7-3.8.4-.6 1-1.6.8-2.3-.1-.5-.7-.8-1.1-.5-.4.2-.2.5-.3.8-.3 1.5-1.9 2.4-2.5 3.8-.7 1.9.2 2.8 1.3 4.2.5.6 1.3 1.5 1.1 2.4-.3 1-1.2 1.7-1.8 2.5-.8 1.1-1.1 2.7-.2 3.9 1 1.2 2.7 2.6 1.7 4.2-.9 1.4-2.6 2.6-2.2 4.4.3 1.6 1.9 2.4 2.5 3.9.6 1.4-1.2 2.6-1.9 3.7-1 1.5-.7 2.8.4 4.1.6.7 1.5 1.6 1.7 2.6.1.3-.1.6.3.8.3.2.8.1 1-.2.9-1.3-1.4-3.6-2.1-4.5-.8-.9-.3-1.8.4-2.6.7-.9 1.6-1.8 1.8-3 .2-.8-.2-1.4-.6-2.1-.7-1.2-2.8-2.6-1.9-4.1.8-1.3 2.3-2.3 2.5-4 .1-1.6-1.6-3-2.5-4.2-.4-.6-.4-1.4 0-1.9zm9.4-7.4h1.4v45h-1.4v-45zm-132.7 0h1.4v45h-1.4v-45zm123 71.6l-1-1-2.9 2.9-2.9-2.9-2.9 2.9-2.8-2.8-1 1 2.8 2.8 1 1 .1.1 1-1-.1-.1 1.9-1.9 1.9 1.9 1 1 1-1 2.9-2.9zm-99.5-.1l-1-1-2.9 2.9-2.8-2.8-2.8 2.9-2.9-2.9-1 1 2.9 2.9 1 1 .9-1 1.8-1.9 2.9 2.9 1-1-.1-.1 3-2.9zm21.3-51h2.3V71h2.2v-2.3h-2.2v-2.3h-2.3v2.3h2.2v2.2h-2.2v-2.2h-2.3V71h2.3v2.2zm28.3 23.7v-2.3h-6.8v2.3h6.8zm-11.3-2.3H223v2.3h6.8v-2.3h-2.2zm4.5-2.1v-4.6h-2.3v6.7h2.3v-2.1zm-2.3 6.7v4.5h2.3v-6.8h-2.3v2.3zm-20.4-9.1h-2.2v11.4h2.2v2.2h2.3v-2.3h-2.2V90.2h2.2v-2.3h-2.3v2.2zm4.5 15.9v2.2h11.4V106h2.2v-2.3h-2.3v2.2c-3.7 0-7.5 0-11.3.1l.1-2.3h-2.3v2.3h2.2zm22.7-24.9v-6.8h-2.3v-6.7h-4.5v2.2h-2.3v2.3h2.3v-2.2h2.2v4.5h2.3v9h2.2v2.2h-2.2v2.3h2.3v-2.2h2.2v-2.3h-2.2v-2.3zm-11.4-6.8H223v4.5h-2.3v4.6h-6.8v2.2h-2.2v2.3h2.3v-2.2h11.2v2.2h2.3v-2.3h-2.2v-2.2H223v-4.5h2.3v-4.5h2.2v-2.3h-2.3v2.2zm11.3-4.4h9.1v-2.3h-9v-4.5h6.7v-2.3h-6.8v2.3h-2.2v4.5h2.2v2.3zm9.1-4.5v2.2h2.3v-2.3h-2.3v-2.2h-2.3v2.3h2.3zm-15.8-.1v-2.2h-2.3v2.2h-2.2v-2.2H223v2.3h2.2v2.2h4.6v-2.3zm-6.8-6.7h2.3v-4.5h2.2v4.5h2.3v4.5h2.3v-4.6h-2.3V54h-2.3v-2.2h-2.3V54H223v4.6l-2.3-.1v4.6h2.3v-4.5zm24.9 22.5h-9.1v2.3h11.3v-2.3h-2.2zm-.1 22.6h-9v2.3h11.3v-2.3h-2.3zm-11.3-2.3v2.3h2.3v-2.3h-2.3zm18.1-13.5v11.3h2.3V87.9h-2.3zm-2.3 13.5h-2.2v2.3h2.3v-2.2h2.2v-2.3h-2.3v2.2zm.1-15.8v-2.2h-2.3v2.3h2.2v2.2h2.3v-2.3h-2.2zm-6.8 0v2.3h2.2v2.3h2.3v6.7h2.3v-6.8h-2.3v-2.2h-2.2v-2.3h-2.3zm-24.8 2.3h-2.3v2.3h4.5v2.2h2.3v-2.3H223v-2.2h-2.2zM177.1 63c0-.2.3-.5.3-.6.3-.6.3-1.1.1-1.7-.2-.7-.4-1.1-.8-1.6-.6-.7-1.7-1.7-1.7-2.7-.1-.8.6-1.6 1.1-2.2 1-1.3 1.9-2.2 1.3-4-.5-1.4-2.2-2.3-2.5-3.9-.1-.3.1-.6-.2-.8-.4-.4-1-.1-1.2.4-.2.7.3 1.7.7 2.2.6 1 2.7 2.5 1.8 3.9-.9 1.3-2.3 2.4-2.5 4-.3 1.6 1.6 3 2.4 4.2 1 1.5-.8 2.8-1.6 3.9-.4.5-.9 1.4-.8 2 0 1.1.9 2.1 1.6 2.9.7.9 1.8 1.8.8 2.9-.9 1.2-2.7 2.8-2.3 4.4.3 1.1 1.1 2.1 1.9 3 .3.4.7.7.8 1.2.2.8-.2 1-.6 1.6-.7.9-1.6 1.8-1.9 3-.1.6-.2 1.6.7 1.6.8 0 .6-1.1.9-1.6.7-1.3 2.2-2.3 2.4-3.8.2-1.8-1.6-3-2.4-4.4-.9-1.5 1-2.9 1.8-4 .8-1.2.7-2.6-.1-3.7-.6-.7-1.3-1.4-1.8-2.3-.4-.9.1-1.5.6-2.3.3-.5.7-1.1 1.2-1.6z"/></svg>