<svg id="Layer_1" xmlns="http://www.w3.org/2000/svg" viewBox="0 0 310 155"><style>.st0{fill:#231f20}</style><path class="st0" d="M45.2 61.3h2.1v2.1h-2.1v-2.1zm0 4.2h2.1v2.1h-2.1v-2.1zm2-2.1h2.1v2.1h-2.1v-2.1zm-4.1 0h2.1v2.1h-2.1v-2.1zm-16.4-2.1h2.1v2.1h-2.1v-2.1zm0 4.2h2.1v2.1h-2.1v-2.1zm2-2.1h2.1v2.1h-2.1v-2.1zm-4.1 0h2.1v2.1h-2.1v-2.1zm11.7 6.8h2.1v2.1h-2.1v-2.1zm0 4.1h2.1v2.1h-2.1v-2.1zm2-2h2.1v2.1h-2.1v-2.1zm-4.1 0h2.1v2.1h-2.1v-2.1zm80.6 23.3h2.1v2.1h-2.1v-2.1zm0 4.1h2.1v2.1h-2.1v-2.1zm2.1-2.1h2.1v2.1h-2.1v-2.1zm-4.1 0h2.1v2.1h-2.1v-2.1zm-6.8 6.9h2.1v2.1H106v-2.1zm0 4.1h2.1v2.1H106v-2.1zm2-2.1h2.1v2.1H108v-2.1zm-4.1 0h2.1v2.1h-2.1v-2.1zm19.9-2h2.1v2.1h-2.1v-2.1zm0 4.1h2.1v2.1h-2.1v-2.1zm2.1-2.1h2.1v2.1h-2.1v-2.1zm-4.2 0h2.1v2.1h-2.1v-2.1zm-90.1 35.3v-1.4H33v1.4h-1.4zm-3 0v-1.4H30v1.4h-1.4zm-3 0v-1.4H27v1.4h-1.4zm-3 0v-1.4H24v1.4h-1.4zm-3 0v-1.4H21v1.4h-1.4zm-3 0v-1.4H18v1.4h-1.4zm121.1 0v-1.4h1.4v1.4h-1.4zm-2.7 0v-1.4h1.4v1.4H135zm-2.7 0v-1.4h1.4v1.4h-1.4zm-2.7 0v-1.4h1.4v1.4h-1.4zm-2.7 0v-1.4h1.4v1.4h-1.4zm-2.7 0v-1.4h1.4v1.4h-1.4zm-2.6 0v-1.4h1.4v1.4h-1.4zm1.7-23.1v-1.4h1.4v1.4h-1.4zm-2.7 0v-1.4h1.4v1.4h-1.4zm-2.7 0v-1.4h1.4v1.4h-1.4zm-2.7 0v-1.4h1.4v1.4h-1.4zm-2.7 0v-1.4h1.4v1.4h-1.4zm-2.7 0v-1.4h1.4v1.4h-1.4zm-2.7 0v-1.4h1.4v1.4h-1.4zm-63.5-64v-1.4H45v1.4h-1.4zm-2.6 0v-1.4h1.4v1.4H41zm-2.7 0v-1.4h1.4v1.4h-1.4zm-2.7 0v-1.4H37v1.4h-1.4zm-2.7 0v-1.4h1.4v1.4h-1.4zm-2.7 0v-1.4h1.4v1.4h-1.4zm-2.7 0v-1.4h1.4v1.4h-1.4zM53 140.3h1.8v-1.8h5.4v-3.6h-5.4v1.8H53v-1.8h1.8v-1.8h5.4v1.8H62v3.6h-1.8v1.8h-5.4v3.6H62v1.8h-9v-5.4zm16.2-1.8h3.6v-3.6h-5.4v1.8h-1.8v-1.8h1.8v-1.8h5.4v1.8h1.8v3.6h-1.8v1.8h1.8v3.6h-1.8v1.8h-5.4v-1.8h-1.8v-1.8h1.8v1.8h5.4v-3.6h-3.6v-1.8zm9-5.4h9v1.8H80v1.8h5.4v1.8h1.8v5.4h-1.8v1.8H80v-1.8h-1.8v-1.8H80v1.8h5.4v-5.4H80v1.8h-1.8v-7.2zm12.6 5.4h1.8v-1.8h1.8v-1.8h1.8v-1.8h3.6v12.6H98v-3.6h-7.2v-3.6zm7.2-3.6h-1.8v1.8h-1.8v1.8h-1.8v1.8H98v-5.4zM62.1 97.7h1.4v1.5H65v-1.5h-1.4v-1.5h-4.5v1.5h3zm-4.5 3v-1.5h-1.5v4.4h1.5v-2.9zm7.4-.1v3h1.5v-4.4H65v1.4zm-5.9-2.9h-1.5v1.5h1.5v-1.5zm-1.5 5.9v1.5h1.5v-1.5h-1.5zm5.9 1.5h-4.4v1.5h4.5l-.1-1.5H65v-1.5h-1.5v1.5zm6-15.1v-3H68v4.5h1.5V90zm-8.9-1.5V87h-1.5v4.5h1.5v-3zm1.5-2.9h4.4V87H68v-1.5h-1.5v-1.4h-4.4v1.5l-1.5-.1V87h1.5v-1.4zm4.4 7.3h-4.4v-1.4h-1.5V93h1.5v1.4h4.4v-1.5l1.5.1v-1.5h-1.5v1.4zm7.8 2.1h1.5v-1.5h-4.4V95h2.9zm-4.4 4.4v-2.9h-1.5v4.4h1.5v-1.5zm7.4-1.4v2.9h1.5v-4.4h-1.5V98zm0-1.5V95h-1.5v1.5h1.5zM71.4 95h-1.5v1.5h1.5V95zm2.9 7.4h-2.9v1.5h4.4v-1.5h-1.5zm-4.4-1.5v1.5h1.5v-1.5h-1.5zm5.9 1.5h1.5v-1.5h-1.5v1.5zm23.3-28.5h-3v-1.4h-3v1.4h-1.4v1.5h-1.5v1.5h-1.5v1.5h-1.5v1.5h-1.5v1.4h-1.5v1.5h-1.4v1.5h-1.5v1.5h-1.5v1.4h-.6l-3.1-3.1 31-30.9h.8v1.5h1.5v-1.5H108v-1.1-.4c0-.1-.1-.2-.2-.3-.3-.3-.8-.3-1.1 0L75 83l-3.6-3.7c-.3-.3-.8-.3-1.1 0l-2 2c-1.3-.6-2.7-.9-4.1-.9-2.6 0-4.9 1-6.7 2.8-2.9 2.8-3.6 7.2-1.8 10.8-.3.2-.6.5-.9.8C53 96.6 52 99 52 101.5s1 4.9 2.8 6.7 4.2 2.8 6.7 2.8 4.9-1 6.7-2.9c.3-.3.6-.6.8-.9 1.3.7 2.7 1 4.2 1 2.6 0 4.9-1 6.7-2.8 2.8-2.9 3.5-7.2 1.8-10.8l2-2c.1-.1.2-.3.2-.5s-.1-.4-.2-.5l-2.9-2.9h.5v-1.5h1.5v-1.5h1.5v-1.5h1.4v-1.5h1.5v-1.4h1.5v-1.5h1.5v-1.5h1.5v-1.5h1.5v-1.5h1.4V74h1.5v1.4h3v-1.5l1.5.1v-3h-1.5v2.9zm-19 20.2c-.2.2-.3.6-.1.9 1.7 3.1 1.2 7-1.3 9.5-1.5 1.5-3.5 2.3-5.6 2.3-1.4 0-2.8-.4-4-1.1-.3-.2-.8-.1-1 .2-.3.5-.6.9-1 1.3-1.5 1.5-3.5 2.3-5.6 2.3s-4.1-.8-5.6-2.3-2.3-3.5-2.3-5.6.8-4.1 2.3-5.6c.4-.4.8-.7 1.3-1 .3-.2.4-.7.2-1-1.9-3.1-1.4-7 1.2-9.6 1.5-1.5 3.5-2.3 5.6-2.3 1.3 0 2.7.4 3.8 1 .3.2.7.1.9-.1l1.9-1.8 7.5 7.5 3.6 3.6-1.8 1.8zM94.6 71h1.5v-1.5h-1.5V71zm7.4-7.4h1.5v-1.5H102v1.5zm5.9-5.9h1.5v-1.5h-1.5v1.5zm-2.9-.1h-1.5v1.5h1.5v-1.5l1.5.1v-1.5H105v1.4zm-3 3h1.5v-1.5H102v1.5zm-2.9 3h1.5v-1.5h-1.5v1.5zM97.6 65h-1.5v1.5h1.5V65l1.5.1v-1.5h-1.5V65zm-3 3h1.5v-1.5h-1.5V68zm13.3-2.9V68H105v1.5h3V68h1.4v-3l-1.5.1.1-1.5h-1.5v1.5h1.4zm-4.4 1.4v-1.4h-3v1.4h-1.4V68h-1.5v3h1.5v-1.5h1.5V68h1.4v-1.4l1.5-.1V68h1.5v-1.5h-1.5zm7.4-4.4v1.5h3v-1.5h-3zm3-3v3h1.5v-3h-1.5zm-1.5-1.4v1.4h1.5v-1.5l-1.5.1v-1.5h-1.5v1.5h1.5zm-3 2.9v1.5h1.5v-1.5h-1.5zm-1.4-1.5h-1.5v1.5H105v3h1.5v-1.5h1.5v-1.5h1.4v-1.5H108zm2.9-2.9v-1.5h-1.5v1.5h1.5zM74.3 91.5h1.5V90h-2.9v-3h-1.5v4.5h2.9zm1.5-4.5h-1.5v1.5h1.5V87zm62.7 44.7l-2.8 2.9-2.9-2.9-2.9 2.9-2.8-2.9-2.9 2.9-2.9-2.9-3.9 3.9 1 1 2.9-2.9 2.9 2.9 1-1 1.9-1.9 1.8 1.9 1 1 1-1 1.9-1.9 2.9 2.9 1-1 1.8-1.9 2.9 2.9 1-1-3.9-3.9zm-105.1 0l-2.8 2.9-2.9-2.9-2.9 2.9-2.8-2.9-2.9 2.9-2.9-2.9-3.9 3.9 1 1 2.9-2.9 1.9 1.9 1 1 2.9-2.9 1.8 1.9 1 1 2.9-2.9 1.9 1.9 1 1 1-1 1.8-1.9 2.9 2.9 1-1-3.9-3.9zm86-120.4V9.9h1.4v1.4h-1.4zm-2.8 0V9.9h1.4v1.4h-1.4zm-2.9 0V9.9h1.4v1.4h-1.4zm-2.8 0V9.9h1.4v1.4h-1.4zm-2.8 0V9.9h1.4v1.4h-1.4zm-2.9 0V9.9h1.4v1.4h-1.4zm-2.8 0V9.9h1.4v1.4h-1.4zm-2.8 0V9.9h1.4v1.4h-1.4zm100.6 50h2.1v2.1h-2.1v-2.1zm0 4.2h2.1v2.1h-2.1v-2.1zm2-2.1h2.1v2.1h-2.1v-2.1zm-4.1 0h2.1v2.1h-2.1v-2.1zm-16.4-2.1h2.1v2.1h-2.1v-2.1zm0 4.2h2.1v2.1h-2.1v-2.1zm2-2.1h2.1v2.1h-2.1v-2.1zm-4.1 0h2.1v2.1h-2.1v-2.1zm11.7 6.8h2.1v2.1h-2.1v-2.1zm0 4.1h2.1v2.1h-2.1v-2.1zm2-2h2.1v2.1h-2.1v-2.1zm-4.1 0h2.1v2.1h-2.1v-2.1zm80.6 23.3h2.1v2.1h-2.1v-2.1zm0 4.1h2.1v2.1h-2.1v-2.1zm2.1-2.1h2.1v2.1h-2.1v-2.1zm-4.1 0h2.1v2.1h-2.1v-2.1zm-6.8 6.9h2.1v2.1H261v-2.1zm0 4.1h2.1v2.1H261v-2.1zm2-2.1h2.1v2.1H263v-2.1zm-4.1 0h2.1v2.1h-2.1v-2.1zm19.9-2h2.1v2.1h-2.1v-2.1zm0 4.1h2.1v2.1h-2.1v-2.1zm2.1-2.1h2.1v2.1h-2.1v-2.1zm-4.2 0h2.1v2.1h-2.1v-2.1zm-90.1 35.3v-1.4h1.4v1.4h-1.4zm-3 0v-1.4h1.4v1.4h-1.4zm-3 0v-1.4h1.4v1.4h-1.4zm-3 0v-1.4h1.4v1.4h-1.4zm-3 0v-1.4h1.4v1.4h-1.4zm-3 0v-1.4h1.4v1.4h-1.4zm121.1 0v-1.4h1.4v1.4h-1.4zm-2.7 0v-1.4h1.4v1.4H290zm-2.7 0v-1.4h1.4v1.4h-1.4zm-2.7 0v-1.4h1.4v1.4h-1.4zm-2.7 0v-1.4h1.4v1.4h-1.4zm-2.7 0v-1.4h1.4v1.4h-1.4zm-2.6 0v-1.4h1.4v1.4h-1.4zm1.7-23.1v-1.4h1.4v1.4h-1.4zm-2.7 0v-1.4h1.4v1.4h-1.4zm-2.7 0v-1.4h1.4v1.4h-1.4zm-2.7 0v-1.4h1.4v1.4h-1.4zm-2.7 0v-1.4h1.4v1.4h-1.4zm-2.7 0v-1.4h1.4v1.4h-1.4zm-2.7 0v-1.4h1.4v1.4h-1.4zm-63.5-64v-1.4h1.4v1.4h-1.4zm-2.6 0v-1.4h1.4v1.4H196zm-2.7 0v-1.4h1.4v1.4h-1.4zm-2.7 0v-1.4h1.4v1.4h-1.4zm-2.7 0v-1.4h1.4v1.4h-1.4zm-2.7 0v-1.4h1.4v1.4h-1.4zm-2.7 0v-1.4h1.4v1.4h-1.4zm25.5 85.6h1.8v-1.8h5.4v-3.6h-5.4v1.8H208v-1.8h1.8v-1.8h5.4v1.8h1.8v3.6h-1.8v1.8h-5.4v3.6h7.2v1.8h-9v-5.4zm16.2-1.8h3.6v-3.6h-5.4v1.8h-1.8v-1.8h1.8v-1.8h5.4v1.8h1.8v3.6h-1.8v1.8h1.8v3.6h-1.8v1.8h-5.4v-1.8h-1.8v-1.8h1.8v1.8h5.4v-3.6h-3.6v-1.8zm9-5.4h9v1.8H235v1.8h5.4v1.8h1.8v5.4h-1.8v1.8H235v-1.8h-1.8v-1.8h1.8v1.8h5.4v-5.4H235v1.8h-1.8v-7.2zm12.6 5.4h1.8v-1.8h1.8v-1.8h1.8v-1.8h3.6v12.6H253v-3.6h-7.2v-3.6zm7.2-3.6h-1.8v1.8h-1.8v1.8h-1.8v1.8h5.4v-5.4zm40.5-3.2l-2.8 2.9-2.9-2.9-2.9 2.9-2.8-2.9-2.9 2.9-2.9-2.9-3.9 3.9 1 1 2.9-2.9 2.9 2.9 2.9-2.9 1.8 1.9 1 1 1-1 1.9-1.9 2.9 2.9 1-1 1.8-1.9 2.9 2.9 1-1-3.9-3.9zm-105.1 0l-2.8 2.9-2.9-2.9-2.9 2.9-2.8-2.9-2.9 2.9-2.9-2.9-3.9 3.9 1 1 2.9-2.9 2.9 2.9 1-1 1.9-1.9 1.8 1.9 1 1 2.9-2.9 2.9 2.9 1-1 1.8-1.9 2.9 2.9 1-1-3.9-3.9zm86-120.4V9.9h1.4v1.4h-1.4zm-2.8 0V9.9h1.4v1.4h-1.4zm-2.9 0V9.9h1.4v1.4h-1.4zm-2.8 0V9.9h1.4v1.4h-1.4zm-2.8 0V9.9h1.4v1.4h-1.4zm-2.9 0V9.9h1.4v1.4h-1.4zm-2.8 0V9.9h1.4v1.4h-1.4zm-2.8 0V9.9h1.4v1.4h-1.4zm-3.5 68.5v1.5h3v-1.5h-3zm3-1.4v1.4h1.5v-2.9h-1.5v1.5zm-4.5-.1h-1.5v1.5h-1.4v1.5h-1.5v1.5h-1.5v1.5h-1.5v1.4h-1.5v1.5h-1.5v1.5h-1.4v1.5h-1.5v1.5h-1.5v1.4h-.6l-3-3 31-31h.8v1.5h1.5v-1.5H263V58v-.4c0-.1-.1-.2-.2-.3-.3-.3-.8-.3-1.1 0L230.1 89l-3.7-3.7c-.3-.3-.8-.3-1.1 0l-2 2c-1.3-.6-2.7-.9-4.1-.9-2.6 0-4.9 1-6.7 2.8-2.9 2.8-3.6 7.2-1.8 10.8-.3.2-.6.5-.9.8-1.8 1.8-2.8 4.2-2.8 6.7s1 4.9 2.8 6.7c1.8 1.8 4.2 2.8 6.7 2.8s4.9-1 6.7-2.9c.3-.3.6-.6.8-.9 1.3.7 2.7 1 4.2 1 2.6 0 4.9-1 6.7-2.8 2.8-2.9 3.5-7.2 1.8-10.8l2-2c.1-.1.2-.3.2-.5s-.1-.4-.2-.5l-2.9-2.9h.5v-1.5h1.5v-1.5h1.5v-1.5h1.4v-1.5h1.5v-1.5h1.5v-1.4h1.5v-1.5h1.5v-1.5h1.5v-1.5h1.4v-1.5h1.5v-1.5h-1.5zM235.1 100c-.2.2-.3.6-.1.9 1.7 3.1 1.2 7-1.3 9.5-1.5 1.5-3.5 2.3-5.6 2.3-1.4 0-2.8-.4-4-1.1-.3-.2-.8-.1-1 .2-.3.5-.6.9-1 1.3-1.5 1.5-3.5 2.3-5.6 2.3s-4.1-.8-5.6-2.3-2.3-3.5-2.3-5.6.8-4.1 2.3-5.6c.4-.4.8-.7 1.3-1 .3-.2.4-.7.2-1-1.9-3.1-1.3-7.1 1.2-9.6 1.5-1.5 3.5-2.3 5.6-2.3 1.3 0 2.7.4 3.8.9.3.2.7.1.9-.1l1.8-1.8 11.2 11.2-1.8 1.8zm14.5-23.1h1.5v-1.5h-1.5v1.5zm7.4-7.4h1.5V68H257v1.5zm5.9-5.9h1.5v-1.5h-1.5v1.5zm-2.9-.1h-1.5V65h1.5v-1.5l1.5.1v-1.5H260v1.4zm-3 3h1.5V65H257v1.5zm-2.9 3h1.5V68h-1.5v1.5zm-1.5 1.4h-1.5v1.5h1.5v-1.5l1.5.1v-1.5h-1.5v1.4zm-3 3h1.5v-1.5h-1.5v1.5zm13.3-2.9v2.9H260v1.5h3v-1.5h1.4v-3l-1.5.1.1-1.5h-1.5V71h1.4zm-4.4 1.4v1.5h1.5v-1.5h-1.5zm-1.5-1.5h-1.5v1.5h-1.4v1.5h-1.5v3h1.5v-1.5h1.5v-1.5h1.4v-1.5h1.5v-1.5H257zm8.9-2.9v1.5h3V68h-3zm3-1.5V68h1.5v-3h-1.5v1.5zm-1.5-2.9V65h1.5v-1.5l-1.5.1v-1.5h-1.5v1.5h1.5zm-3 2.9V68h1.5v-1.5h-1.5zM263 65h-1.5v1.5H260v3h1.5V68h1.5v-1.5h1.4V65H263zm2.9-2.9v-1.5h-1.5v1.5h1.5zm-48.8 41.5h1.4v1.5h1.5v-1.5h-1.4v-1.5h-4.5v1.5h3zm-4.5 3v-1.5h-1.5v4.4h1.5v-2.9zm7.4-.1v3h1.5v-4.4H220v1.4zm-5.9-2.9h-1.5v1.5h1.5v-1.5zm-1.5 5.9v1.5h1.5v-1.5h-1.5zm5.9 1.5h-4.4v1.5h4.5V111h1.4v-1.5h-1.5v1.5zm6-15.1v-3H223v4.5h1.5v-1.5zm-8.9-1.5v-1.5h-1.5v4.5h1.5v-3zm1.5-2.9h4.4v1.4h1.5v-1.5h-1.5V90h-4.4v1.5l-1.5-.1v1.5h1.5v-1.4zm4.4 7.3h-4.4v-1.4h-1.5v1.5h1.5v1.4h4.4v-1.5l1.5.1v-1.5h-1.5v1.4zm7.8 2.1h1.5v-1.5h-4.4v1.5h2.9zm-4.4 4.4v-2.9h-1.5v4.4h1.5v-1.5zm7.4-2.9v4.4h1.5v-4.4h-1.5zm0 0v-1.5h-1.5v1.5h1.5zm-5.9-1.5h-1.5v1.5h1.5v-1.5zm2.9 7.4h-2.9v1.5h4.4v-1.5h-1.5zm-4.4-1.5v1.5h1.5v-1.5h-1.5zm5.9 1.5h1.5v-1.5h-1.5v1.5zm-1.5-10.9h1.5v-1.5h-2.9v-3h-1.5v4.5h2.9zm1.5-4.5h-1.5v1.5h1.5v-1.5zm38.1-32.3v1.5h1.5v-3h-1.5v1.5zm-1.5-3v1.5h1.5v-1.5h-1.5zm-1.5-1.5v-1.4h-1.5v1.5l1.5-.1v1.5h1.5v-1.5h-1.5zm-2.9-2.9v-1.1-.4c0-.1-.1-.2-.2-.3-.3-.3-.8-.3-1.1 0L230 83.2l-3.7-3.7c-.3-.3-.8-.3-1.1 0l-2 2c-1.3-.6-2.7-.9-4.1-.9-2.5 0-4.9 1-6.7 2.8-1.5 1.5-2.4 3.4-2.6 5.4v.1c0 .4.4.8.8.8s.8-.4.8-.8v-.2c.3-1.6 1-3.1 2.1-4.3 1.5-1.5 3.5-2.3 5.6-2.3 1.4 0 2.7.3 3.9 1 .3.2.7.1.9-.1l1.8-1.8 4.7 4.7c.1.1.3.2.6.2.4 0 .8-.4.8-.8 0-.3-.1-.5-.3-.6l-.4-.4 31.1-31 .8-.1-.1 1.6h1.5v-1.5l-1.4-.1zm6 .2v-1.5h-1.5v1.5h1.5c-.1 1-.1 1.9-.1 2.9h1.5v-2.9H269zm-3-3v1.5h1.5v-1.5H266zm-1.5-1.5v1.5h1.5v-1.5h-1.5zm-1.5-1.5v-1.1-.3c0-.1-.1-.3-.2-.4-.3-.3-.8-.3-1.1 0L230 77.3l-3.6-3.6c-.3-.3-.8-.3-1.1 0l-2 2c-1.3-.6-2.7-.9-4.1-.9-2.5 0-4.9 1-6.7 2.8-1.5 1.5-2.4 3.4-2.6 5.4v.2c0 .4.4.8.8.8s.8-.4.8-.8V83c.2-1.6 1-3.1 2.1-4.4 1.5-1.5 3.5-2.3 5.6-2.3 1.4 0 2.7.3 3.9 1 .3.2.7.1.9-.1l1.8-1.8 4.7 4.7c.1.2.3.2.6.2.4 0 .8-.4.8-.8 0-.3-.1-.5-.3-.6l-.5-.5L262 47.5l1-.1v1.5h1.5v-1.5H263zM32.7 28.1v-4h-.8v4h.8zm-3.2-4.8v.8h2.4v-.8h-2.4zm-.8.8v4h.8v-4h-.8zm4 5.6v-.8h-.8v.8h.8zm-3.2-.8h2.4v-.8h-2.4v.8zm9.2-5.6h-.8v4.8h.8v-4.8zm-4 0v4.8h.8v-4.8h-.8zm3.2 5.6v-.8h-2.4v.8h2.4zm3.6-5.6v.8h2.4v-.8h-2.4zm0 2.4v-1.6h-.8v4.8h.8v-2.4h2.4v2.4h.8v-4.8h-.8v1.6h-2.4zm5.2-2.4v5.6h.8v-3.2h.8v-.8h-.8v-1.6h-.8zm3.2 4v1.6h.8v-5.6h-.8v3.2h-.8v.8h.8zm-.8-.8v-.8h-.8v.8h.8zm6 2.4v-4.8h1.6v-.8h-4v.8h1.6v4.8h.8zm3.6-.8v.8h4v-.8h-1.6v-4h1.6v-.8h-4v.8h1.6v4h-1.6zm8.4.8v-4.8h1.6v-.8h-4v.8h1.6v4.8h.8zm7.6-5.6h-.8v1.6h.8v-1.6zm-2.4 2.4v-.8h-.8v.8h.8zm1.6-.8h-.8v.8h.8v-.8zm-.8 4v-3.2h-.8v3.2h.8zm-2.4-5.6v1.6h.8v-1.6h-.8zm11.2 0v.8h2.4v-.8h-2.4zm-.8.8v4h.8v-4h-.8zm4 4v-4h-.8v4h.8zm-3.2.8h2.4v-.8h-2.4v.8zm9.2-4.8v-.8h-4v5.6h.8v-2.4h2.4v-.8h-2.4v-1.6h3.2zm6.4 4h.8v-4h-.8v4zm4-3.2v-.8h-.8v.8h.8zm0 2.4h-.8v.8h.8v-.8zm-.8 1.6v-.8h-2.4v.8h2.4zm-2.4-5.6v.8h2.4v-.8h-2.4zm9.2 4.8v-4h-.8v4h.8zm-3.2.8h2.4v-.8h-2.4v.8zm-.8-4.8v4h.8v-4h-.8zm.8-.8v.8h2.4v-.8h-2.4zm5.2 0v5.6h3.2v-.8h-2.4v-4h2.4v-.8h-3.2zm4 4.8v-4h-.8v4h.8zm6-4v-.8h-4v5.6h4v-.8h-3.2v-1.6h2.4v-.8h-2.4v-1.6h3.2zm2 0v1.6h.8v-1.6h-.8zm.8 1.6v.8h2.4v-.8h-2.4zm3.2 2.4v-1.6h-.8v1.6h.8zm-4 .8h3.2v-.8h-3.2v.8zm4-5.6h-3.2v.8h3.2v-.8zm4.6-5.7h-97V11h-1.7V9.3H8.5v1.6h1.6v1.7h1.6v-1.7H29.8v1.7h1.7v5h-5v-1.7h-1.6v1.7h-1.6v1.6H131.7v-1.6h-1.6zm0 14.7H23.4v1.6H122.1v6.6h1.6v1.7h23v-1.6H145v-1.7h-1.6v1.7h-18.1v-1.7h-1.6v-5h5v1.7h1.6v-1.7h1.6v-1.6h-1.8zM11.8 12.6v1.6h1.6v-1.6h-1.6zm1.6 6.5H15v-1.6h-1.6v1.6zm1.6-1.6h1.6v-1.6H15v1.6zm0-1.7v-1.6h-1.6v1.6H15zm-1.7 3.4h-1.6v1.6h1.6v-1.6zm8.3 1.7v1.6h-9.9v-1.7h-1.6v1.7H8.5v1.6h13.1v8.2h1.6V19.2h-1.6v1.7zm4.9-6.7v1.6h1.6v-1.6h-1.6zm1.7 0h1.6v-1.6h-1.6v1.6zm116.7 16.4V29h1.6v-1.6h-13.2v-8.2h-1.6v13.1h1.6V29h10v1.6h1.6zm-3.3 6.7v1.6h1.6v-1.6h-1.6zm0-5H140v1.6h1.6v-1.6zm-3.3 3.3h1.6V34h-1.6v1.6zm1.7 1.6h1.6v-1.6H140v1.6zm3.2-6.5h-1.6v1.6h1.6v-1.6zm-16.4 6.5h1.6v-1.6h-1.6v1.6zm-1.6 1.7h1.6v-1.6h-1.6v1.6zm62.5-10.8v-4h-.8v4h.8zm-3.2-4.8v.8h2.4v-.8h-2.4zm-.8.8v4h.8v-4h-.8zm4 5.6v-.8h-.8v.8h.8zm-3.2-.8h2.4v-.8h-2.4v.8zm9.2-5.6h-.8v4.8h.8v-4.8zm-4 0v4.8h.8v-4.8h-.8zm3.2 5.6v-.8h-2.4v.8h2.4zm3.6-5.6v.8h2.4v-.8h-2.4zm0 2.4v-1.6h-.8v4.8h.8v-2.4h2.4v2.4h.8v-4.8h-.8v1.6h-2.4zm5.2-2.4v5.6h.8v-3.2h.8v-.8h-.8v-1.6h-.8zm3.2 4v1.6h.8v-5.6h-.8v3.2h-.8v.8h.8zm-.8-.8v-.8h-.8v.8h.8zm6 2.4v-4.8h1.6v-.8h-4v.8h1.6v4.8h.8zm3.6-.8v.8h4v-.8h-1.6v-4h1.6v-.8h-4v.8h1.6v4h-1.6zm8.4.8v-4.8h1.6v-.8h-4v.8h1.6v4.8h.8zm7.6-5.6h-.8v1.6h.8v-1.6zm-2.4 2.4v-.8h-.8v.8h.8zm1.6-.8h-.8v.8h.8v-.8zm-.8 4v-3.2h-.8v3.2h.8zm-2.4-5.6v1.6h.8v-1.6h-.8zm11.2 0v.8h2.4v-.8h-2.4zm-.8.8v4h.8v-4h-.8zm4 4v-4h-.8v4h.8zm-3.2.8h2.4v-.8h-2.4v.8zm9.2-4.8v-.8h-4v5.6h.8v-2.4h2.4v-.8h-2.4v-1.6h3.2zm6.4 4h.8v-4h-.8v4zm4-3.2v-.8h-.8v.8h.8zm0 2.4h-.8v.8h.8v-.8zm-.8 1.6v-.8h-2.4v.8h2.4zm-2.4-5.6v.8h2.4v-.8h-2.4zm9.2 4.8v-4h-.8v4h.8zm-3.2.8h2.4v-.8h-2.4v.8zm-.8-4.8v4h.8v-4h-.8zm.8-.8v.8h2.4v-.8h-2.4zm5.2 0v5.6h3.2v-.8h-2.4v-4h2.4v-.8h-3.2zm4 4.8v-4h-.8v4h.8zm6-4v-.8h-4v5.6h4v-.8h-3.2v-1.6h2.4v-.8h-2.4v-1.6h3.2zm2 0v1.6h.8v-1.6h-.8zm.8 1.6v.8h2.4v-.8h-2.4zm3.2 2.4v-1.6h-.8v1.6h.8zm-4 .8h3.2v-.8h-3.2v.8zm4-5.6h-3.2v.8h3.2v-.8zm4.6-5.7h-97V11h-1.7V9.3h-22.9v1.6h1.6v1.7h1.6v-1.7H184.8v1.7h1.7v5h-5v-1.7h-1.6v1.7h-1.6v1.6H286.7v-1.6h-1.6zm0 14.7H178.4v1.6H277.1v6.6h1.6v1.7h23v-1.6H300v-1.7h-1.6v1.7h-18.1v-1.7h-1.6v-5h5v1.7h1.6v-1.7h1.6v-1.6h-1.8zM166.8 12.6v1.6h1.6v-1.6h-1.6zm1.6 6.5h1.6v-1.6h-1.6v1.6zm1.6-1.6h1.6v-1.6H170v1.6zm0-1.7v-1.6h-1.6v1.6h1.6zm-1.7 3.4h-1.6v1.6h1.6v-1.6zm8.3 1.7v1.6h-9.9v-1.7h-1.6v1.7h-1.6v1.6h13.1v8.2h1.6V19.2h-1.6v1.7zm4.9-6.7v1.6h1.6v-1.6h-1.6zm1.7 0h1.6v-1.6h-1.6v1.6zm116.7 16.4V29h1.6v-1.6h-13.2v-8.2h-1.6v13.1h1.6V29h10v1.6h1.6zm-3.3 6.7v1.6h1.6v-1.6h-1.6zm0-5H295v1.6h1.6v-1.6zm-3.3 3.3h1.6V34h-1.6v1.6zm1.7 1.6h1.6v-1.6H295v1.6zm3.2-6.5h-1.6v1.6h1.6v-1.6zm-16.4 6.5h1.6v-1.6h-1.6v1.6zm-1.6 1.7h1.6v-1.6h-1.6v1.6z"/></svg>