<svg id="Layer_1" xmlns="http://www.w3.org/2000/svg" viewBox="0 0 310 155"><style>.st0{fill:#231f20}</style><path class="st0" d="M75.6 51.8h2.1v2.1h-2.1v-2.1zm0-4.1h2.1v2.1h-2.1v-2.1zm-2 2.1h2.1v2.1h-2.1v-2.1zm4.1 0h2.1v2.1h-2.1v-2.1zm-26.7 2h2.1v2.1H51v-2.1zm0-4.1h2.1v2.1H51v-2.1zm-2.1 2.1H51v2.1h-2.1v-2.1zm4.1 0h2.1v2.1H53v-2.1zm76.2 76.4h2.1v2.1h-2.1v-2.1zm0 4.1h2.1v2.1h-2.1v-2.1zm2-2h2.1v2.1h-2.1v-2.1zm-4.1 0h2.1v2.1h-2.1v-2.1zM143 15.5h2.1v2.1H143v-2.1zm0 4.1h2.1v2.1H143v-2.1zm2.1-2.1h2.1v2.1h-2.1v-2.1zm-4.2 0h2.1v2.1h-2.1v-2.1zm-131.4-2h2.1v2.1H9.5v-2.1zm0 4.1h2.1v2.1H9.5v-2.1zm2.1-2.1h2.1v2.1h-2.1v-2.1zm-4.1 0h2.1v2.1H7.5v-2.1zm15.9 108.7h2.1v2.1h-2.1v-2.1zm0 4.1h2.1v2.1h-2.1v-2.1zm2.1-2h2.1v2.1h-2.1v-2.1zm-4.2 0h2.1v2.1h-2.1v-2.1zm81.1-76.5h2.1v2.1h-2.1v-2.1zm0-4.1h2.1v2.1h-2.1v-2.1zm-2.1 2.1h2.1v2.1h-2.1v-2.1zm4.1 0h2.1v2.1h-2.1v-2.1zm-38.3-8.9h2.1V43h-2.1v-2.1zm-2.1 2h2.1V45H64v-2.1zM61.9 45H64v2.1h-2.1V45zm4.2 0h2.1v2.1h-2.1V45zm-4.2-4.2H64v2.1h-2.1v-2.1zm28.2.1h2.1V43h-2.1v-2.1zm-2.1 2h2.1V45H88v-2.1zM85.9 45H88v2.1h-2.1V45zm4.2 0h2.1v2.1h-2.1V45zm-4.2-4.2H88v2.1h-2.1v-2.1zm47.9-13.7H21.2l-.7-1 2.9-7.9-2.9-7.9.7-1h112.5l.7 1-2.9 7.9 2.9 7.9-.6 1zM22.2 25.7h110.5l-2.6-7.2V18l2.6-7.2H22.2l2.6 7.2v.5l-2.6 7.2zm9 112v-1.4h1.4v1.4h-1.4zm-3 0v-1.4h1.4v1.4h-1.4zm-3 0v-1.4h1.4v1.4h-1.4zm-3 0v-1.4h1.4v1.4h-1.4zm-3 0v-1.4h1.4v1.4h-1.4zm-3 0v-1.4h1.4v1.4h-1.4zm122.9 0v-1.4h1.4v1.4h-1.4zm-2.8 0v-1.4h1.4v1.4h-1.4zm-2.9 0v-1.4h1.4v1.4h-1.4zm-2.8 0v-1.4h1.4v1.4h-1.4zm-2.8 0v-1.4h1.4v1.4h-1.4zm-2.9 0v-1.4h1.4v1.4h-1.4zm-2.8 0v-1.4h1.4v1.4h-1.4zm-2.8 0v-1.4h1.4v1.4h-1.4zm28.7-126v-1.4h1.4v1.4H148zm-2.9 0v-1.4h1.4v1.4h-1.4zm-2.8 0v-1.4h1.4v1.4h-1.4zm-2.8 0v-1.4h1.4v1.4h-1.4zm-125.4 0v-1.4h1.4v1.4h-1.4zm-2.8 0v-1.4h1.4v1.4h-1.4zm-2.8 0v-1.4h1.4v1.4H8.5zm-2.9 0v-1.4H7v1.4H5.6zM148 26.1v-1.4h1.4v1.4H148zm-2.9 0v-1.4h1.4v1.4h-1.4zm-2.8 0v-1.4h1.4v1.4h-1.4zm-2.8 0v-1.4h1.4v1.4h-1.4zm-125.4 0v-1.4h1.4v1.4h-1.4zm-2.8 0v-1.4h1.4v1.4h-1.4zm-2.8 0v-1.4h1.4v1.4H8.5zm-2.9 0v-1.4H7v1.4H5.6zm39.9-10h.8v4h.8v.8h.8v-.8h.8v-4h.8v4h-.8v.8h-.8v.8h-.8v-.8h-.8v-.8h-.8v-4zm6 0h4v.8h-1.6v4h1.6v.8h-4v-.8h1.6v-4h-1.6v-.8zm6 0h3.2v.8h.8v4h-.8v.8h-3.2v-5.6zm.8 4.8h2.4v-4h-2.4v4zm5.2-4.8h4v.8h-3.2v1.6h2.4v.8h-2.4v1.6h3.2v.8h-4v-5.6zm6 .8h.8v-.8h2.4v.8h.8v4h-.8v.8h-2.4v-.8h-.8v-4zm.8 4h2.4v-4h-2.4v4zm11.2-4.8h.8v4h.8v.8h.8v-.8h.8v-4h.8v4h-.8v.8h-.8v.8h-.8v-.8h-.8v-.8h-.8v-4zm6 0h4v.8h-1.6v4h1.6v.8h-4v-.8h1.6v-4h-1.6v-.8zm6 0h4v.8h-3.2v1.6h2.4v.8h-2.4v1.6h3.2v.8h-4v-5.6zm6 0h.8v4.8h.8v-3.2h.8v3.2h.8v-4.8h.8v4.8h-.8v.8h-.8v-.8h-.8v.8h-.8v-.8h-.8v-4.8zm6 .8h.8v-.8h3.2v.8h-3.2v1.6h2.4v.8h.8v1.6h-.8v.8h-3.2v-.8h3.2v-1.6h-2.4v-.8h-.8v-1.6zM53.6 140.3h1.8v-1.8h5.4v-3.6h-5.4v1.8h-1.8v-1.8h1.8v-1.8h5.4v1.8h1.8v3.6h-1.8v1.8h-5.4v3.6h7.2v1.8h-9v-5.4zm12.6-5.4H68v-1.8h5.4v1.8h1.8v9h-1.8v1.8H68v-1.8h-1.8v-1.8H68v1.8h5.4v-3.6H68v-1.8h-1.8v-3.6zm1.8 3.6h5.4v-3.6H68v3.6zm10.8 0h1.8v-1.8h1.8v-1.8h1.8v-1.8h3.6v12.6H86v-3.6h-7.2v-3.6zm7.2-3.6h-1.8v1.8h-1.8v1.8h-1.8v1.8H86v-5.4zm5.4 0h1.8v-1.8h5.4v1.8h1.8v1.8h-1.8v-1.8h-5.4v3.6h5.4v1.8h1.8v3.6h-1.8v1.8h-5.4v-1.8h-1.8v-9zm1.8 5.4v3.6h5.4v-3.6h-5.4zm45.2-36.4v-1.4h1.4v1.4h-1.4zm0-2.8v-1.4h1.4v1.4h-1.4zm0-2.9v-1.4h1.4v1.4h-1.4zm0-2.8V94h1.4v1.4h-1.4zm0-2.8v-1.4h1.4v1.4h-1.4zm0-2.9v-1.4h1.4v1.4h-1.4zm0-2.8v-1.4h1.4v1.4h-1.4zm0-2.8v-1.4h1.4v1.4h-1.4zm0-2.9v-1.4h1.4v1.4h-1.4zm0-2.8V77h1.4v1.4h-1.4zm0-2.8v-1.4h1.4v1.4h-1.4zm0-2.9v-1.4h1.4v1.4h-1.4zm0-2.8v-1.4h1.4v1.4h-1.4zm0-2.8v-1.4h1.4v1.4h-1.4zm0-2.9v-1.4h1.4v1.4h-1.4zm5.9-9h1.4v56.1h-1.4V55.2zM16 103.7v-1.4h1.4v1.4H16zm0-2.8v-1.4h1.4v1.4H16zm0-2.9v-1.4h1.4V98H16zm0-2.8v-1.4h1.4v1.4H16zm0-2.8V91h1.4v1.4H16zm0-2.9v-1.4h1.4v1.4H16zm0-2.8v-1.4h1.4v1.4H16zm0-2.8v-1.4h1.4v1.4H16zm0-2.9v-1.4h1.4V81H16zm0-2.8v-1.4h1.4v1.4H16zm0-2.8V74h1.4v1.4H16zm0-2.9v-1.4h1.4v1.4H16zm0-2.8v-1.4h1.4v1.4H16zm0-2.8v-1.4h1.4v1.4H16zm0-2.9v-1.4h1.4V64H16zm-5.6-8.8h1.4v56.1h-1.4V55.2zm11.8 16.5h1.4v23.2h-1.4V71.7zm110.4 0h1.4v23.2h-1.4V71.7zM78.4 88.3h1.5v-1.5h-1.5v1.5zm-3 0v1.5h3v-1.5h-3zm4.5-1.5h1.5v-1.5h-1.5v1.5zm-4.5 0v-9h-1.5v10.5h1.5v-1.5zm6-1.5h1.5v-1.5h-1.5v1.5zm3-1.5v-1.5h-1.5v1.5h1.5zm-1.5-1.5v-1.5h-1.5v1.5h1.5zm-1.5-1.5v-1.5h-1.5v1.5h1.5zm-1.5-1.5v-1.5h-1.5v1.5h1.5zm-1.5-1.5v-1.5h-3v1.5h3zm23.7-11.7H41.5v1.4h60.6v-1.4zm13.1 0h-9.4v1.4h9.4v-1.4zm-60.6 34.4h60.6v-1.4H54.6v1.4zm-3.7-1.4h-9.4v1.4h9.4v-1.4zm10.4-28.5v24.2h34.2V70.6H61.3zm32.8 22.8H62.8V72.1h31.3v21.3zm4.6 1.4h16.5V70.6H98.7v24.2zm10.7-12.2c0 5.3-4.2 9.6-9.3 9.9v-5.3h.1c2.4 0 4.4-2 4.5-4.7 0-2.5-2-4.5-4.5-4.5h-.1v-5.2c5.2.3 9.3 4.6 9.3 9.8zm-9.3-3h.1c1.7 0 3 1.4 3 3 0 1.7-1.4 3-3 3h-.1v-6zm13.7 13.8h-10.4c4.4-1.6 7.5-5.8 7.5-10.8 0-4.7-2.9-8.8-7-10.5h9.9v21.3zM58.2 70.6H41.7v24.2h16.5V70.6zM47.4 82.7c0-5.2 4.2-9.5 9.4-9.8v5.3h-.1c-2.5 0-4.5 2-4.5 4.5s2 4.5 4.5 4.5h.1v5.4c-5.3-.3-9.4-4.7-9.4-9.9zm9.4 3.1s-.1 0 0 0c-1.8 0-3.1-1.4-3.1-3 0-1.7 1.4-3 3-3h.1v6zM43.1 72.1h10c-4.2 1.7-7.2 5.8-7.2 10.6 0 4.9 3.1 9.1 7.5 10.7H43.1V72.1zm74.4-10.9H39.3v1.4h78.2v-1.4zm-78.2 49.7h78.2v-1.4H39.3v1.4zM118.9 64v40.6H38h-.1V64h-1.4v44.1h1.4v-1.9H118.9v1.9h1.4V64h-1.4zm0 0v-1.4h-1.4V64h1.4zm-79.6-1.4h-1.4V64h1.4v-1.4zm78.2 46.9h1.4v-1.4h-1.4v1.4zm-79.6-1.4v1.4h1.4v-1.4h-1.4zm192.7-67.3h2.1v2.1h-2.1v-2.1zm0 4.2h2.1v2.1h-2.1V45zm-2-2.1h2.1V45h-2.1v-2.1zm4.1 0h2.1V45h-2.1v-2.1zM206 40.8h2.1v2.1H206v-2.1zm0 4.2h2.1v2.1H206V45zm-2.1-2.1h2.1V45h-2.1v-2.1zm4.1 0h2.1V45H208v-2.1zm76.2 83.3h2.1v2.1h-2.1v-2.1zm0 4.1h2.1v2.1h-2.1v-2.1zm2-2h2.1v2.1h-2.1v-2.1zm-4.1 0h2.1v2.1h-2.1v-2.1zM298 15.5h2.1v2.1H298v-2.1zm0 4.1h2.1v2.1H298v-2.1zm2.1-2.1h2.1v2.1h-2.1v-2.1zm-4.2 0h2.1v2.1h-2.1v-2.1zm-131.4-2h2.1v2.1h-2.1v-2.1zm0 4.1h2.1v2.1h-2.1v-2.1zm2.1-2.1h2.1v2.1h-2.1v-2.1zm-4.1 0h2.1v2.1h-2.1v-2.1zm15.9 108.7h2.1v2.1h-2.1v-2.1zm0 4.1h2.1v2.1h-2.1v-2.1zm2.1-2h2.1v2.1h-2.1v-2.1zm-4.2 0h2.1v2.1h-2.1v-2.1zm81.1-87.5h2.1v2.1h-2.1v-2.1zm0 4.2h2.1v2.1h-2.1V45zm-2.1-2.1h2.1V45h-2.1v-2.1zm4.1 0h2.1V45h-2.1v-2.1zm-38.3 8.9h2.1v2.1h-2.1v-2.1zm-2.1-2.1h2.1v2.1H219v-2.1zm-2.1-2.1h2.1v2.1h-2.1v-2.1zm4.2 0h2.1v2.1h-2.1v-2.1zm-4.2 4.2h2.1v2.1h-2.1v-2.1zm28.2 0h2.1v2.1h-2.1v-2.1zm-2.1-2.1h2.1v2.1H243v-2.1zm-2.1-2.1h2.1v2.1h-2.1v-2.1zm4.2 0h2.1v2.1h-2.1v-2.1zm-4.2 4.2h2.1v2.1h-2.1v-2.1zm47.9-24.7H176.2l-.7-1 2.9-7.9-2.9-7.9.7-1h112.5l.7 1-2.9 7.9 2.9 7.9-.6 1zm-111.6-1.4h110.5l-2.6-7.2V18l2.6-7.2H177.2l2.6 7.2v.5l-2.6 7.2zm9 112v-1.4h1.4v1.4h-1.4zm-3 0v-1.4h1.4v1.4h-1.4zm-3 0v-1.4h1.4v1.4h-1.4zm-3 0v-1.4h1.4v1.4h-1.4zm-3 0v-1.4h1.4v1.4h-1.4zm-3 0v-1.4h1.4v1.4h-1.4zm122.9 0v-1.4h1.4v1.4h-1.4zm-2.8 0v-1.4h1.4v1.4h-1.4zm-2.9 0v-1.4h1.4v1.4h-1.4zm-2.8 0v-1.4h1.4v1.4h-1.4zm-2.8 0v-1.4h1.4v1.4h-1.4zm-2.9 0v-1.4h1.4v1.4h-1.4zm-2.8 0v-1.4h1.4v1.4h-1.4zm-2.8 0v-1.4h1.4v1.4h-1.4zm28.7-126v-1.4h1.4v1.4H303zm-2.9 0v-1.4h1.4v1.4h-1.4zm-2.8 0v-1.4h1.4v1.4h-1.4zm-2.8 0v-1.4h1.4v1.4h-1.4zm-125.4 0v-1.4h1.4v1.4h-1.4zm-2.8 0v-1.4h1.4v1.4h-1.4zm-2.8 0v-1.4h1.4v1.4h-1.4zm-2.9 0v-1.4h1.4v1.4h-1.4zM303 26.1v-1.4h1.4v1.4H303zm-2.9 0v-1.4h1.4v1.4h-1.4zm-2.8 0v-1.4h1.4v1.4h-1.4zm-2.8 0v-1.4h1.4v1.4h-1.4zm-125.4 0v-1.4h1.4v1.4h-1.4zm-2.8 0v-1.4h1.4v1.4h-1.4zm-2.8 0v-1.4h1.4v1.4h-1.4zm-2.9 0v-1.4h1.4v1.4h-1.4zm39.9-10h.8v4h.8v.8h.8v-.8h.8v-4h.8v4h-.8v.8h-.8v.8h-.8v-.8h-.8v-.8h-.8v-4zm6 0h4v.8h-1.6v4h1.6v.8h-4v-.8h1.6v-4h-1.6v-.8zm6 0h3.2v.8h.8v4h-.8v.8h-3.2v-5.6zm.8 4.8h2.4v-4h-2.4v4zm5.2-4.8h4v.8h-3.2v1.6h2.4v.8h-2.4v1.6h3.2v.8h-4v-5.6zm6 .8h.8v-.8h2.4v.8h.8v4h-.8v.8h-2.4v-.8h-.8v-4zm.8 4h2.4v-4h-2.4v4zm11.2-4.8h.8v4h.8v.8h.8v-.8h.8v-4h.8v4h-.8v.8h-.8v.8h-.8v-.8h-.8v-.8h-.8v-4zm6 0h4v.8h-1.6v4h1.6v.8h-4v-.8h1.6v-4h-1.6v-.8zm6 0h4v.8h-3.2v1.6h2.4v.8h-2.4v1.6h3.2v.8h-4v-5.6zm6 0h.8v4.8h.8v-3.2h.8v3.2h.8v-4.8h.8v4.8h-.8v.8h-.8v-.8h-.8v.8h-.8v-.8h-.8v-4.8zm6 .8h.8v-.8h3.2v.8h-3.2v1.6h2.4v.8h.8v1.6h-.8v.8h-3.2v-.8h3.2v-1.6h-2.4v-.8h-.8v-1.6zm-51.9 123.4h1.8v-1.8h5.4v-3.6h-5.4v1.8h-1.8v-1.8h1.8v-1.8h5.4v1.8h1.8v3.6h-1.8v1.8h-5.4v3.6h7.2v1.8h-9v-5.4zm12.6-5.4h1.8v-1.8h5.4v1.8h1.8v9h-1.8v1.8H223v-1.8h-1.8v-1.8h1.8v1.8h5.4v-3.6H223v-1.8h-1.8v-3.6zm1.8 3.6h5.4v-3.6H223v3.6zm10.8 0h1.8v-1.8h1.8v-1.8h1.8v-1.8h3.6v12.6H241v-3.6h-7.2v-3.6zm7.2-3.6h-1.8v1.8h-1.8v1.8h-1.8v1.8h5.4v-5.4zm5.4 0h1.8v-1.8h5.4v1.8h1.8v1.8h-1.8v-1.8h-5.4v3.6h5.4v1.8h1.8v3.6h-1.8v1.8h-5.4v-1.8h-1.8v-9zm1.8 5.4v3.6h5.4v-3.6h-5.4zm45.2-36.4v-1.4h1.4v1.4h-1.4zm0-2.8v-1.4h1.4v1.4h-1.4zm0-2.9v-1.4h1.4v1.4h-1.4zm0-2.8V94h1.4v1.4h-1.4zm0-2.8v-1.4h1.4v1.4h-1.4zm0-2.9v-1.4h1.4v1.4h-1.4zm0-2.8v-1.4h1.4v1.4h-1.4zm0-2.8v-1.4h1.4v1.4h-1.4zm0-2.9v-1.4h1.4v1.4h-1.4zm0-2.8V77h1.4v1.4h-1.4zm0-2.8v-1.4h1.4v1.4h-1.4zm0-2.9v-1.4h1.4v1.4h-1.4zm0-2.8v-1.4h1.4v1.4h-1.4zm0-2.8v-1.4h1.4v1.4h-1.4zm0-2.9v-1.4h1.4v1.4h-1.4zm5.9-9h1.4v56.1h-1.4V55.2zM171 103.7v-1.4h1.4v1.4H171zm0-2.8v-1.4h1.4v1.4H171zm0-2.9v-1.4h1.4V98H171zm0-2.8v-1.4h1.4v1.4H171zm0-2.8V91h1.4v1.4H171zm0-2.9v-1.4h1.4v1.4H171zm0-2.8v-1.4h1.4v1.4H171zm0-2.8v-1.4h1.4v1.4H171zm0-2.9v-1.4h1.4V81H171zm0-2.8v-1.4h1.4v1.4H171zm0-2.8V74h1.4v1.4H171zm0-2.9v-1.4h1.4v1.4H171zm0-2.8v-1.4h1.4v1.4H171zm0-2.8v-1.4h1.4v1.4H171zm0-2.9v-1.4h1.4V64H171zm-5.6-8.8h1.4v56.1h-1.4V55.2zm11.8 16.5h1.4v23.2h-1.4V71.7zm110.4 0h1.4v23.2h-1.4V71.7zm-51.2 15.1v-9h-1.5v10.5h1.5v-1.5zm4.6 0v-9h-1.5v10.5h1.5v-1.5zm-1.6-9v-1.5h-3v1.5h3zm-1.5 12h1.5v-1.5h-3v1.5h1.5zm-10.4-3v-9H226v10.5h1.5v-1.5zm3-6v7.5h1.5V77.8h-1.5v3zm0-3v-1.5h-3v1.5h3zm-3 10.5v1.5h3v-1.5h-3zm29.6-22.2h-60.6v1.4h60.6v-1.4zm13.1 0h-9.4v1.4h9.4v-1.4zm-60.6 34.4h60.6v-1.4h-60.6v1.4zm-3.7-1.4h-9.4v1.4h9.4v-1.4zm10.4-28.5v24.2h34.2V70.6h-34.2zm32.8 22.8h-31.3V72.1h31.3v21.3zm4.6 1.4h16.5V70.6h-16.5v24.2zm10.7-12.2c0 5.3-4.2 9.6-9.3 9.9v-1.8c4.2-.2 7.6-3.7 7.6-8 0-.5-.4-.8-.8-.8s-.8.4-.8.8c0 3.4-2.6 6.1-6 6.4v-1.9h.1c2.4 0 4.4-2 4.5-4.7 0-2.5-2-4.5-4.5-4.5h-.1v-5.2c5.2.3 9.3 4.6 9.3 9.8zm-9.3-3s.1 0 0 0c1.8 0 3.1 1.4 3.1 3 0 1.7-1.4 3-3 3h-.1v-6zm13.7 13.8h-10.4c4.4-1.6 7.5-5.8 7.5-10.8 0-4.7-2.9-8.8-7-10.5h9.9v21.3zm-55.6-22.8h-16.5v24.2h16.5V70.6zm-10.8 12.1c0-5.2 4.2-9.5 9.4-9.8v1.7c-2 0-3.9.8-5.3 2.2-1.5 1.5-2.4 3.5-2.4 5.7 0 .5.3.8.8.8.4 0 .8-.4.8-.8 0-1.7.7-3.3 1.9-4.5 1.1-1.1 2.6-1.7 4.1-1.8v2h-.1c-2.5 0-4.5 2-4.5 4.5s2 4.5 4.5 4.5h.1v5.4c-5.2-.3-9.3-4.7-9.3-9.9zm9.4 3.1s-.1 0 0 0c-1.8 0-3.1-1.4-3.1-3 0-1.7 1.4-3 3-3h.1v6zm-13.7-13.7h10c-4.2 1.7-7.2 5.8-7.2 10.6 0 4.9 3.1 9.1 7.5 10.7h-10.3V72.1zm74.4-10.9h-78.2v1.4h78.2v-1.4zm-78.2 49.7h78.2v-1.4h-78.2v1.4zM273.9 64v40.6H193h-.1V64h-1.4v44.1h1.4v-1.9H273.9v1.9h1.4V64h-1.4zm0 0v-1.4h-1.4V64h1.4zm-79.6-1.4h-1.4V64h1.4v-1.4zm78.2 46.9h1.4v-1.4h-1.4v1.4zm-79.6-1.4v1.4h1.4v-1.4h-1.4z"/></svg>