<svg id="Layer_1" xmlns="http://www.w3.org/2000/svg" viewBox="0 0 310 155" width="310" height="155"><style>.st0{fill:#231f20}</style><path class="st0" d="M21.4 108.5H20V74.2h1.4v34.3zm-7.2-18.8h1.4v-1.4h-1.4v1.4zm0 2.8h1.4v-1.4h-1.4v1.4zm1.4-7.1h-1.4v1.4h1.4v-1.4zm-1.4 9.9h1.4v-1.4h-1.4v1.4zm0 2.9h1.4v-1.4h-1.4v1.4zm0 2.8h1.4v-1.4h-1.4v1.4zm0-17h1.4v-1.4h-1.4V84zm118.4-9.8v34.3h1.4V74.2h-1.4zm5.8 20.3h1.4v-1.4h-1.4v1.4zm0 5.7h1.4v-1.4h-1.4v1.4zm0-2.9h1.4v-1.4h-1.4v1.4zm0-5.6h1.4v-1.4h-1.4v1.4zm0-5.7h1.4v-1.4h-1.4V86zm0 2.8h1.4v-1.4h-1.4v1.4zm1.4-7h-1.4v1.4h1.4v-1.4zM35.9 28.1h-2.4v-1.6h-.8v4.8h.8v-2.4h2.4v2.4h.8v-4.8h-.8v1.6zm0-2.4h-2.4v.8h2.4v-.8zm2.8.8h1.6v4h-1.6v.8h4v-.8h-1.6v-4h1.6v-.8h-4v.8zm6.8.8v-1.6h-.8v5.6h.8v-3.2h.8v-.8h-.8zm.8 2.4h.8v-1.6h-.8v1.6zm1.6-2.4h-.8v.8h.8v3.2h.8v-5.6h-.8v1.6zm6-.8h.8v1.6h-.8v.8h.8v1.6h-.8v.8h-3.2v-5.6h3.2v.8zm-.1 2.4h-2.4v1.6h2.4v-1.6zm0-2.4h-2.4v1.6h2.4v-1.6zm2.8-.8v4.8h.8v-4.8h-.8zm3.2 4.8h.8v-4.8h-.8v4.8zm-2.4.8h2.4v-.8h-2.4v.8zm6-5.6h-.8v5.6h4v-.8h-3.2v-4.8zm8.4 0h-2.4v.8h2.4v-.8zm0 2.4h-2.4v-1.6h-.8v4.8h.8v-2.4h2.4v2.4h.8v-4.8h-.8v1.6zm3.6-.8v-1.6h-.8v5.6h.8v-3.2h.8v-.8h-.8zm.8.8v.8h.8v-.8h-.8zm1.6.8H77v.8h.8v1.6h.8v-5.6h-.8v3.2zm2.8 1.6h.8v-4h-.8v4zm3.2.8v-.8h-2.4v.8h2.4zm0-4h.8v-.8h-.8v.8zm-2.4-1.6v.8h2.4v-.8h-2.4zm3.2 4h-.8v.8h.8v-.8zm2 1.6h4v-.8h-3.2v-1.6h2.4v-.8h-2.4v-1.6h3.2v-.8h-4v5.6zm12.8-4v-1.6h-.8v5.6h.8v-3.2h.8v-.8h-.8zm2.4 1.6h-.8v.8h.8v1.6h.8v-5.6h-.8v3.2zm-1.6-.8v.8h.8v-.8h-.8zm4.4 3.2h4v-.8h-3.2v-1.6h2.4v-.8h-2.4v-1.6h3.2v-.8h-4v5.6zm7.6-4v3.2h.8v-3.2h-.8zm-1.6-1.6v4.8h.8v-4.8h-.8zm.8 5.6h.8v-.8h-.8v.8zm2.4-.8h.8v-4.8h-.8v4.8zm-.8.8h.8v-.8h-.8v.8zm7.6-5.6h-3.2v.8h3.2v-.8zm-3.2 2.4v.8h2.4v-.8h-2.4zm2.4 2.4h.8v-1.6h-.8v1.6zm-3.2.8h3.2v-.8h-3.2v.8zm0-4.8v1.6h.8v-1.6h-.8zM65.7 140.3h1.4v-1.4h-1.4v1.4zm-2.9 0h1.4v-1.4h-1.4v1.4zm5.7 0h1.4v-1.4h-1.4v1.4zm2.8 0h1.4v-1.4h-1.4v1.4zm2.9 0h1.4v-1.4h-1.4v1.4zm-22.7 0h1.4v-1.4h-1.4v1.4zm25.5 0h1.4v-1.4H77v1.4zm-28.3 0h1.4v-1.4h-1.4v1.4zm8.5 0h1.4v-1.4h-1.4v1.4zm2.8 0h1.4v-1.4H60v1.4zm-5.7 0h1.4v-1.4h-1.4v1.4zm25.5 0h1.4v-1.4h-1.4v1.4zm25.5 0h1.4v-1.4h-1.4v1.4zm-5.6 0h1.4v-1.4h-1.4v1.4zm-2.9 0h1.4v-1.4h-1.4v1.4zm-2.8 0h1.4v-1.4H94v1.4zm-2.8 0h1.4v-1.4h-1.4v1.4zm11.3 0h1.4v-1.4h-1.4v1.4zm-17 0h1.4v-1.4h-1.4v1.4zm-2.8 0h1.4v-1.4h-1.4v1.4zm5.6 0h1.4v-1.4h-1.4v1.4zm2.8-128.2h-1.4v1.4h1.4v-1.4zm-2.8 0h-1.4v1.4h1.4v-1.4zm5.6 0h-1.4v1.4h1.4v-1.4zm5.7 0h-1.4v1.4h1.4v-1.4zm2.8 0H101v1.4h1.4v-1.4zm-5.6 0h-1.4v1.4h1.4v-1.4zm-11.4 0H84v1.4h1.4v-1.4zm-19.8 0h-1.4v1.4h1.4v-1.4zm-2.9 0h-1.4v1.4h1.4v-1.4zm65.2 0h-1.4v1.4h1.4v-1.4zm-68 0h-1.4v1.4h1.4v-1.4zm8.5 0H67v1.4h1.4v-1.4zm14.2 0h-1.4v1.4h1.4v-1.4zm-2.8 0h-1.4v1.4h1.4v-1.4zm-5.7 0h-1.4v1.4h1.4v-1.4zm2.8 0h-1.4v1.4h1.4v-1.4zm-5.6 0h-1.4v1.4h1.4v-1.4zm48.1 0H118v1.4h1.4v-1.4zm2.9 0h-1.4v1.4h1.4v-1.4zm-5.7 0h-1.4v1.4h1.4v-1.4zm-11.3 0h-1.4v1.4h1.4v-1.4zm8.5 0h-1.4v1.4h1.4v-1.4zm11.3 0h-1.4v1.4h1.4v-1.4zm5.7 0h-1.4v1.4h1.4v-1.4zm-22.7 0h-1.4v1.4h1.4v-1.4zm2.8 0h-1.4v1.4h1.4v-1.4zm28.4 0h-1.4v1.4h1.4v-1.4zm-5.7 0h-1.4v1.4h1.4v-1.4zm2.8 0H135v1.4h1.4v-1.4zm-47.2 64h-2.3v1.2h2.3v-1.1h2.3V75h-2.3v1.1zm4.6-2.3h-2.3V75h2.3v-1.1h2.3v-1.2h-2.3v1.1zm8.1 9.3h1.1v-2.4h-1.1v-2.3h-1.2v-2.3h-1.1v-2.3h-1.2v-2.3h-2.3v1.2h1.1v1.2h1.2v2.3h1.1v2.3h1.2v2.3h1.1c0 .7 0 1.5.1 2.3l-1.2-.1v1.2h1.2v-1.1zm-10.4 6.8v-1.1h-2.3V90c.8 0 1.5 0 2.3-.1v1.2h2.3v-1.2h-2.3zm2.3-2.2h2.3v-1.2h2.3v-1.1h2.3v-1.2h-2.3v1.1h-2.3v1.2h-2.3v1.1h-2.3v1.2h2.3v-1.1zm-10.4 12.6v15H71.9v-15h-3.5v1.2h2.3v13.9h1.2v1.1h11.5v-1.1h1.2v-13.9h2.3v-1.2h-3.5zm7 2.3h-1.2v-1.1h-2.3v1.2h2.3v1.1h2.3v-1.2h-1.1zm4.6 2.3h-1.2v-1.1h-2.3v1.2h2.3v1.1h2.3v-1.2H95zm4.6-1.1v-1.1h1.1v-2.3h1.2v-2.3h1.1v-2.4h-1.1v-1.1h-1.2v1.2h1.1V98h-1.1v2.3h-1.2v2.3h-1.1v2.3h-1.2v1.2h-1.1v1.2h2.3V105h1.2v-1.2zm-5.8-12.7v1.2h2.3v-1.2h-2.3zm4.6 2.3v-1.1h-2.3v1.2h1.1c.4 0 .8 0 1.2-.1v1.2h2.3v-1.2h-2.3zm-32.3 8.1v1.1h-2.3v1.2h2.3v-1.1h2.3v-1.2h-2.3zm-4.6 2.3v1.1h-2.3v1.2h2.3V105h2.3v-1.2h-2.3zm-8.1-8.1h-1.2v2.4h1.2v2.3h1.2v2.3h1.1v2.3h1.2v2.3h2.3v-1.2h-1.1v-1.2h-1.2v-2.3h-1.1v-2.3h-1.2V98h-1.2v-2.3l1.2.1v-1.2h-1.2v1.1zm8.1-5.8v1.2h2.3V90h2.3v-1.2h-2.3v1.1h-2.3zm-2.3 2.4h2.3v-1.2h-2.3v1.2zm-2.3 1.1h-2.3v1.2h2.3v-1.2c.8.1 1.5.1 2.3.1v-1.2h-2.3v1.1zm27.7-30h-1.2v-1.1H71.9v1.1h-1.2v13.9h-2.3v1.2h3.5v-15h11.5v15h3.5v-1.2h-2.3V63.4zM66.1 76.1V75h-2.3v1.2h2.3v1.1h2.3v-1.2h-2.3zm-4.6-2.3v-1.1h-2.3v1.2h2.3V75h2.3v-1.2h-2.3zm0 13.9v1.1h2.3v-1.2h-2.3v-1.1h-2.3v1.2h2.3zm-4.6-2.3v1.1h2.3v-1.2h-2.3v-1.1h-2.3v1.2h2.3zm0-13.9v2.3h-1.2v2.3h-1.1v2.3h-1.2v2.3h-1.2v2.4l1.2-.1v-2.2h1.2v-2.3h1.2v-2.3h1.1v-2.3h1.2v-1.2h1.1v-1.2h-2.3zm-2.3 12.7V83h-1.2v1.2h1.2zm-33.4 50.4zm0-3l-1.5 1.5-1.5-1.5-1.5 1.5 1.5 1.5-1.5 1.5 1.5 1.5 1.5-1.5 1.5 1.5 1.5-1.5-1.5-1.5-1.5 1.5-1.5-1.5 1.5-1.5 1.5 1.5 1.5-1.5-1.5-1.5zm-3.4-10.2l1.5 1.5 1.5-1.5-1.5-1.5-1.5 1.5zm-1.4 1.6l-1.5 1.5 1.5 1.5 1.5-1.5-1.5-1.5zm0-3l-1.5 1.5-1.5-1.4-1.5 1.4 1.5 1.5 1.5-1.4 1.5 1.4 1.4-1.5-1.4-1.5zm-1.5-1.5l1.5 1.5 1.5-1.5-1.5-1.5-1.5 1.5zm18.4 24.4l1.5-1.4-1.5-1.5-1.5 1.5 1.5 1.4zm-4.4-4.4l1.5 1.5 1.4-1.5-1.4-1.5-1.5 1.5zm5.9 0l1.4 1.5 1.5-1.5-1.5-1.5-1.4 1.5zm-3 0l1.5 1.5 1.5-1.5-1.5-1.5-1.5 1.5zm3.1-3l-1.5-1.5-1.5 1.5 1.5 1.5 1.5-1.5zm101.6-1l1.5 1.5-1.5 1.5-1.4-1.4-1.5 1.5-1.5-1.5 1.4-1.4-1.5-1.5 1.5-1.5 1.4 1.4 1.5-1.5 1.5 1.5-1.4 1.4zm-.1.1l-1.4-1.4-1.4 1.4 1.4 1.4 1.4-1.4zm.5-13.1l-1.5-1.5-1.5 1.5 1.5 1.5 1.5-1.5zm3 0l-1.5-1.4-1.5 1.5 1.5 1.4-1.4 1.5 1.5 1.5 1.4-1.5-1.4-1.5 1.4-1.5 1.4 1.5 1.5-1.4-1.5-1.5-1.4 1.4zm0-2.9l-1.5-1.5-1.5 1.5 1.5 1.5 1.5-1.5zm-17 19.9l-1.5-1.4-1.4 1.4-1.5-1.4-1.5 1.5 1.5 1.5 1.5-1.5 1.4 1.4-1.4 1.5 1.5 1.4 1.4-1.4-1.4-1.5 1.4-1.5 1.4 1.5 1.5-1.5-1.5-1.4-1.4 1.4zm0-2.9l-1.5-1.5-1.5 1.5 1.5 1.5 1.5-1.5zm-79.3-26.7l-.4-.6-1.2.7.3.6.4.6 1.2-.7-.3-.6zm74.4-14l.1-.7-1.4-.2-.2 1.4 1.4.2.1-.7zm-75.7 11.6l-.3-.6-1.3.6.3.6.3.6 1.3-.6-.3-.6zm73.7-8.3c1.4.3 0 0 1.5.3l.1-.7.1-.7-1.4-.3-.3 1.4zM70.7 48.9l-1.4.3.3 1.4 1.4-.3-.3-1.4zm3.1 1.1l-.2-1.4-1.4.2.2 1.4.7-.1.7-.1zm-29.1 60.7l-1.2.8.4.6.4.6 1.2-.8-.8-1.2zm31.9-60.9l-.1-1.4-1.4.1c0 1.4 0 0 .1 1.4l1.4-.1zm-35.8 53.5l-1.3.5.3.7c.3.6 0 0 .2.6l1.3-.5-.5-1.3zM39.2 98l-1.4.3.2.7c.2.7 0 0 .1.7l1.4-.3-.3-1.4zm77.7-11.2c.1.7 0 0 0 .7l1.4-.1V86l-1.4.1v.7zm1.5 2.4v-.7H117v1.4h1.4v-.7zm-.1 2.9v-.7l-1.4-.1-.1 1.4 1.5.1v-.7zm-78.2 9.2l-.2-.7-1.3.4.2.7c.2.7 0 0 .1.7l1.4-.4-.2-.7zm28.2-50.4l-.4-1.4-1.4.4.4 1.4.7-.2.7-.2zm-18.4 66.3l-1 1 .5.5c.6.4 0 0 .5.5l1-1-.5-.5-.5-.5zm46-64.5l-.6-.3-.6-.3-.6 1.3.6.3.7.3.5-1.3zm-16.6-4.3h-1.4v1.4h1.4v-1.4zm14.1 3.2l-.7-.3-.7-.3-.5 1.3.7.3c.6.3 0 0 .7.3l.5-1.3zm-3.1.3l.4-1.4-1.4-.4-.4 1.4.7.2c.6.2 0 0 .7.2zm-26.1.2l1.4-.5-.5-1.3-1.3.5c.5 1.3 0 0 .4 1.3zm36 4.8l.8-1.2-1.2-.8-.8 1.2.6.4c.5.4 0 0 .6.4zm-2.4-1.6l.7-1.2-1.2-.7-.7 1.2.6.4c.6.4 0 0 .6.3zm4.5 3.3l.9-1.1-1.1-.9-.9 1.1.6.4c.6.5 0 0 .5.5zm-56.9 5.6l1.1.9.9-1.1-1.1-.9-.9 1.1zm13.7-9.8l1.3-.6-.6-1.3-1.3.6c.7 1.3 0 0 .6 1.3zm-10.6 61.2l-.5-.5-1.1 1 .5.5.5.5 1.1-1-.5-.5zm14.5-63l-.6-1.3-1.3.6.6 1.3 1.3-.6zM87.6 51l.3-1.4-1.4-.3-.3 1.4.7.2c.7.2 0 0 .7.1zm-40.9 62.5l-.4-.6-1.1.9.4.6c.4.5 0 0 .4.6l1.1-.9-.4-.6zm4.3 6.6l.6.5c.5.4 0 0 .6.4l.9-1.1-1.1-.9-1 1.1zM36.9 87.5v.7l1.4.1v-1.4l-1.4-.1v.7zm.1-2.1c1.4.1 0 0 1.4.2l.2-1.4-1.4-.2-.2 1.4zm1.6 8.5l-.1-.7-.1-.7-1.4.1.1.7v.7l1.5-.1zm-1.7-3.5v.7h1.4v-1.4h-1.4v.7zm67.5-29.9l1-1.1-.5-.5-.5-.5-1 1 .5.5c.6.5 0 0 .5.6zM37.5 96.8l1.4-.2-.2-1.4-1.4.2.1.7c.2.7 0 0 .1.7zm15.9-38.5l-.9-1.1-.6.4-.5.4c.9 1.1 0 0 .9 1.2l1.1-.9zM39.7 74.2l1.3.5.6-1.3-1.3-.5-.6 1.3zm78.3 8.9l-1.4.2.1.7c0 .7 0 0 .1.7l1.4-.2-.1-.7-.1-.7zM40.8 71.5c1.3.7 0 0 1.3.6l.6-1.3-1.3-.6-.6 1.3zm2.9-5l1.2.8.8-1.2-1.2-.8-.8 1.2zM38 79.7l1.3.3.5-1.3-1.4-.4-.4 1.4zm-.6 2.8c1.4.3 0 0 1.3.3l.3-1.4-1.4-.3-.2 1.4zm74.5-15.4l-1.2.7.4.6c.3.6 0 0 .4.7l1.2-.8-.4-.6-.4-.6zm-73 9.1l-.2.7c1.4.4 0 0 1.3.3l.4-1.3-1.3-.4-.2.7zm3.7-7.8l-.4.6c1.2.7 0 0 1.3.7l.7-1.2-1.2-.7-.4.6zm72.1 3.7l-1.3.6.3.6.3.7 1.3-.7-.3-.6-.3-.6zm-.2 3.1l.2.7c.2.7 0 0 .3.6l1.3-.5-.5-1.3-1.3.5zm-2.3-5l.3.6c.3.7 0 0 .4.6l1.2-.7-.7-1.2-1.2.7zm3.1 7.7l.2.7.2.7 1.4-.4-.4-1.4-1.4.4zm2.2 2.4l-1.4.3.1.7.1.7 1.4-.3-.1-.7-.1-.7zM85.1 49.1l-1.4-.2-.2 1.4.7.1.7.1.2-1.4zm-3 .9l.1-1.4-1.4-.1-.1 1.4.7.1c.7.1 0 0 .7 0zm-27.2 5.4l-.6.4-.6.4c.8 1.1 0 0 .8 1.2l1.2-.8-.8-1.2zM48.2 63l1-1-1-1-1 1c1.1.9 0 0 1 1zm59.1.4l.5.5c.5.6 0 0 .4.6l1.1-.9-.9-1.1-1.1.9zm-50.6-7.5l.6-.4.6-.4-.7-1.2-1.2.7c.8 1.2 0 0 .7 1.3zm48.8 5.4l.5.5c.4.6 0 0 .5.5l1-1-1-1-1 1zm3.6 4.2l.4.6c.4.6 0 0 .5.5l1.1-.8-.8-1.1-1.2.8zm-57.9-5.6l-1-1-1 1 1 1 1-1zM88.5 127l.4 1.4.7-.2.7-.2-.4-1.4-1.4.4zm5.8-2.2l-.6.3.6 1.3.6-.3.6-.3-.6-1.3-.6.3zm17.9-16.9l-.3.6c1.3.7 0 0 1.1.7l.7-1.2-1.2-.7-.3.6zm1-1.9c1.3.6 0 0 1.3.5l.3-.6.3-.6-1.3-.6-.6 1.3zm-15.1 18.4l-.7-1.2-1.2.7.7 1.2 1.2-.7zm17.5-25l-.4 1.4 1.4.4.4-1.4-1.4-.4zm-24.4 26.8l.5 1.3 1.3-.5-.5-1.3-1.3.5zm23.1-22.7l1.3.5.5-1.3-1.3-.5-.5 1.3zm-13.7 19.4l-.8-1.2-1.2.8.8 1.2.6-.4.6-.4zm5.1-6.1l-.5.5 1 1 .5-.5.5-.5-1-1-.5.5zm3.2-3.7l1.1.9.5-.5.4-.6-1.1-.9-.9 1.1zm-1.3 1.7l-.5.5c1.1.9 0 0 1.2 1l.9-1.1-1.1-.9-.5.5zm-4.5 4.4l.9 1.1 1.1-.9-.9-1.1-1.1.9zm-1 .9l-.6.4-.6.4.9 1.1.6-.4.6-.4-.9-1.1zm-36 8.2l.7.2.7.2.4-1.4-1.4-.4-.4 1.4zm-2.7-.8l.7.2c.7.2 0 0 .6.3l.5-1.3-1.3-.5-.5 1.3zM69 129l.6.2c.7.1 0 0 .8.1l.3-1.4-1.4-.3-.3 1.4zm41.9-18.7l-.4.6c1.2.7 0 0 1.2.8l.8-1.2-1.2-.8-.4.6zm-39.1 19.2l.7.1.7.1.2-1.4-1.4-.2-.2 1.4zm-12.3-5.4l-.6-.3-.7 1.3.6.3.6.3.7-1.3-.6-.3zm-5.1-1.4l.8-1.1-1.1-.8-.8 1.1.6.4c.6.5 0 0 .5.4zm6.4 3.6l.6.3.7.3.6-1.3-1.3-.6-.6 1.3zm13.9 3.6h.7c.7 0 0 0 .7.1l.1-1.4-1.4-.1-.1 1.4zM57.6 123l-1.2-.7-.7 1.2.6.4c.6.4 0 0 .5.3l.8-1.2zm22.7 5.5c.1 1.4 0 0 .1 1.5l.7-.1.7-.1-.1-1.4-1.4.1zm2.8-.3l.2 1.4 1.4-.2-.2-1.4-1.4.2zm-5.6 1v.7h1.4v-1.4h-1.4v.7zm8.3-1.5c.3 1.4 0 0 .3 1.5l.7-.2.7-.2-.3-1.4-1.4.3zm47.4-75.8h-2v2h2v-2zm0 2.1v2h2v-2h-2zm4 2h-2v2h2v-2zm0-4.1h-2v2h2v-2zm-4.1 4.1h-2v2h2v-2zm5.6-11.6v2h2v-2h-2zm2 4h2v-2h-2v2zm4 2v-2h-2v2h2zm-2-4h2v-2h-2v2zm-2.1 2.1h-2v2h2v-2zm-126.2-2h2v-2h-2v2zm-.1 0h-2v2h2v-2zm-2 2h-2v2h2v-2zm2.1 2h2v-2h-2v2zm-2.1-6.1h-2v2h2v-2zm9.6 9.6h2v-2h-2v2zm-2 2h2v-2h-2v2zm-2 2h2v-2h-2v2zm6 0v-2h-2v2h2zm-4.1-6.1h-2v2h2v-2zm103.7-13.2h3v-1.5H122v1.5h1.5zm3.1 0v1.5h15.1v-1.5h-1.6v-1.5h-1.5v-1.5h-1.5v1.5h1.5v1.5h-12zm9-4.5v1.5h1.5v-1.5h-1.5zm3-1.5h-1.5v1.5h1.5v-1.5zm1.5-1.5h1.6v-1.5h-12.1v-7.6h-1.5v12.1h1.5v-3h9v1.5h1.5v-1.5zM29.8 17.6h-3v1.5h4.6v-1.5h-1.6zm-16.6 1.5h1.5v-1.6h12.1V16H11.7v1.5h1.5v1.6zm3 1.5v-1.5h-1.5v1.5h1.5zm1.6 1.5v-1.5h-1.5v1.5h1.5zm-1.6 0h-1.5v1.5h1.5v-1.5zm9.1 0h-1.5v3h-9.1v-1.5h-1.5v1.5h-1.5v1.5h12.1v7.6h1.5v-2.1-10zm0 12.1v1.5h95.2v1.5h1.5v-1.5h6.1v-1.5s-102.7-.1-102.8 0zm102.8-12.1c.1-.1 0-.4 0-.5v-1H32.9v-1.5h-1.5v1.5h-6.1v1.5c1 0 102.7.1 102.8 0zm48.3 52.1H175v34.3h1.4V74.2zm-7.2 26.8h1.4v-1.4h-1.4v1.4zm0-8.5h1.4v-1.4h-1.4v1.4zm0 5.7h1.4v-1.4h-1.4v1.4zm0-8.5h1.4v-1.4h-1.4v1.4zm1.4-4.3h-1.4v1.4h1.4v-1.4zm-1.4-1.4h1.4v-1.4h-1.4V84zm0 11.3h1.4v-1.4h-1.4v1.4zm118.4-21.1v34.3h1.4V74.2h-1.4zm5.8 26h1.4v-1.4h-1.4v1.4zm0-14.2h1.4v-1.4h-1.4V86zm0 2.8h1.4v-1.4h-1.4v1.4zm1.4-7h-1.4v1.4h1.4v-1.4zm-1.4 15.5h1.4v-1.4h-1.4v1.4zm0-2.8h1.4v-1.4h-1.4v1.4zm0-2.8h1.4v-1.4h-1.4v1.4zm-41.6 48.6h1.4v-1.4h-1.4v1.4zm2.9 0h1.4v-1.4h-1.4v1.4zm-5.7 0h1.4v-1.4H249v1.4zm-2.8 0h1.4v-1.4h-1.4v1.4zm14.1 0h1.4v-1.4h-1.4v1.4zm-2.8 0h1.4v-1.4h-1.4v1.4zm-36.8 0h1.4v-1.4h-1.4v1.4zm-14.2 0h1.4v-1.4h-1.4v1.4zm34 0h1.4v-1.4h-1.4v1.4zm-22.7 0h1.4v-1.4h-1.4v1.4zm-14.1 0h1.4v-1.4h-1.4v1.4zm11.3 0h1.4v-1.4H215v1.4zm8.5 0h1.4v-1.4h-1.4v1.4zm2.8 0h1.4v-1.4h-1.4v1.4zm2.9 0h1.4v-1.4h-1.4v1.4zm8.5 0h1.4v-1.4h-1.4v1.4zm-2.9 0h1.4v-1.4h-1.4v1.4zm-2.8 0h1.4v-1.4H232v1.4zm-22.7 0h1.4v-1.4h-1.4v1.4zm2.9 0h1.4v-1.4h-1.4v1.4zm31.1 0h1.4v-1.4h-1.4v1.4zM229.1 12.1h-1.4v1.4h1.4v-1.4zm-2.8 0h-1.4v1.4h1.4v-1.4zm5.6 0h-1.4v1.4h1.4v-1.4zm-8.5 0H222v1.4h1.4v-1.4zm-5.7 0h-1.4v1.4h1.4v-1.4zm76.6 0h-1.4v1.4h1.4v-1.4zm-28.4 0h-1.4v1.4h1.4v-1.4zm-45.3 0h-1.4v1.4h1.4v-1.4zm28.3 0h-1.4v1.4h1.4v-1.4zm2.9 0h-1.4v1.4h1.4v-1.4zm-8.5 0h-1.4v1.4h1.4v-1.4zm-8.5 0h-1.4v1.4h1.4v-1.4zm5.6 0H239v1.4h1.4v-1.4zm5.7 0h-1.4v1.4h1.4v-1.4zm8.5 0h-1.4v1.4h1.4v-1.4zm2.8 0H256v1.4h1.4v-1.4zm5.7 0h-1.4v1.4h1.4v-1.4zm-25.5 0h-1.4v1.4h1.4v-1.4zm22.7 0h-1.4v1.4h1.4v-1.4zm11.3 0h-1.4v1.4h1.4v-1.4zm17 0h-1.4v1.4h1.4v-1.4zm-19.8 0h-1.4v1.4h1.4v-1.4zm-53.9 0h-1.4v1.4h1.4v-1.4zm68 0h-1.4v1.4h1.4v-1.4zm-2.8 0h-1.4v1.4h1.4v-1.4zm-2.8 0h-1.4v1.4h1.4v-1.4zm14.1 0H290v1.4h1.4v-1.4zm-17 0H273v1.4h1.4v-1.4zm11.4 0h-1.4v1.4h1.4v-1.4zM176.2 134.6zm0-3l-1.5 1.5-1.5-1.5-1.5 1.5 1.5 1.5-1.5 1.5 1.5 1.5 1.5-1.5 1.5 1.5 1.5-1.5-1.5-1.5-1.5 1.5-1.5-1.5 1.5-1.5 1.5 1.5 1.5-1.5-1.5-1.5zm-2-8.6l1.5-1.5-1.5-1.5-1.5 1.5-1.4-1.5-1.5 1.5 1.5 1.5 1.4-1.5 1.5 1.5zm-2.8 0l-1.5 1.5 1.5 1.5 1.5-1.5-1.5-1.5zm-4.5-1.5l1.5 1.5 1.5-1.5-1.5-1.4-1.5 1.4zm3-3l1.5 1.5 1.5-1.5-1.5-1.5-1.5 1.5zm18.4 24.4l1.5-1.4-1.5-1.5-1.5 1.5 1.5 1.4zm-1.5-4.4l1.5 1.5 1.5-1.5-1.5-1.5-1.5 1.5zm3 0l1.5 1.5 1.4-1.5-1.4-1.5-1.5 1.5zm-5.9 0l1.5 1.5 1.4-1.5-1.4-1.5-1.5 1.5zm5.8-3l-1.5-1.5-1.5 1.5 1.5 1.5 1.5-1.5zm101.8-1l1.5 1.5-1.5 1.5-1.4-1.4-1.5 1.5-1.5-1.5 1.4-1.4-1.5-1.5 1.5-1.5 1.4 1.4 1.5-1.5 1.5 1.5-1.4 1.4zm-.1.1l-1.4-1.4-1.4 1.4 1.4 1.4 1.4-1.4zm.5-13.1l-1.5-1.5-1.5 1.5 1.5 1.5 1.5-1.5zm3 0l-1.5-1.4-1.5 1.5 1.5 1.4-1.4 1.5 1.5 1.5 1.5-1.5-1.5-1.5 1.4-1.5 1.4 1.5 1.5-1.4-1.5-1.5-1.4 1.4zm0-2.9l-1.5-1.5-1.5 1.5 1.5 1.5 1.5-1.5zm-17 19.9l-1.5-1.4-1.5 1.4-1.4-1.4-1.5 1.5 1.5 1.5 1.5-1.5 1.4 1.4-1.4 1.5 1.5 1.4 1.4-1.4-1.4-1.5 1.4-1.5 1.4 1.5 1.5-1.5-1.5-1.5-1.4 1.5zm0-2.9l-1.5-1.5-1.5 1.5 1.5 1.5 1.5-1.5zm-78.7-25.5l-.4-.6-1.2.7.4.6c.4.6 0 0 .4.7l1.2-.8-.4-.6zm-2.6-5.1l-.3-.6-1.3.6.3.7.3.6 1.3-.6-.3-.7zm1 2l-1.3.7.3.6c.3.6 0 0 .4.6l1.3-.7-.7-1.2zm4.4 7l-1.1.9.5.5c.5.6 0 0 .4.6l1.1-.9-.9-1.1zm-1.3-1.6l-.4-.6-1.1.8.4.6c.5.5 0 0 .4.6l1.1-.8-.4-.6zm-8.5-28.6l1.4.2.2-1.4-1.4-.2-.2 1.4zm3.1 18l-1.3.5.2.7c.3.7 0 0 .3.6l1.3-.5-.5-1.3zm46.3-52.4l-1.4-.3-.3 1.4.7.1.7.2.3-1.4zm-5.8.6l.1-1.4-1.4-.1-.1 1.4h.7c.7 0 0 0 .7.1zm-41.7 47.2l-.1-.7-1.4.3.1.7c.1.6 0 0 .1.7l1.4-.3-.1-.7zm.5 2l-1.4.4.2.7c.2.6 0 0 .2.7l1.4-.4-.4-1.4zm29.5 28.3l-1.4-.3-.3 1.4.7.2c.7.2 0 0 .7.1l.3-1.4zM243 49.7l-.4 1.4.7.2.7.2.4-1.4-.7-.2-.7-.2zm-10-1.3h-1.4v1.4h1.4v-1.4zm5.8.4l-1.4-.2-.2 1.4.7.1.7.1.2-1.4zm9.2 4.1l.6.3c.6.3 0 0 .7.3l.6-1.3-1.3-.6-.6 1.3zm-43.2 64.2l-.5-.5-.5-.5-1 1 .5.5.5.5 1-1zm41.9-64.8l.5-1.3-.7-.2-.7-.2-.5 1.3.7.2c.6.3 0 0 .7.2zm-19.8 75.8l-1.4-.2-.2 1.4.7.1.7.1.2-1.4zm-34.6-32.8l1.4-.2-.2-1.4-1.4.2.1.7.1.7zm-.4-8.6l1.4.1.1-1.4-1.4-.1-.1 1.4zm1.4 5V91l-1.4.1v.7l.1.7c1.4-.1 0 0 1.3-.1v-.7zm28.4-41.8l-1.4.4.4 1.4 1.4-.4-.4-1.4zm-25.2 20.2c1.3.7 0 0 1.2.7l.7-1.2-1.2-.7-.7 1.2zm1.5-2.5l1.2.8.8-1.2-1.2-.8-.8 1.2zm-3.8 7.8l1.3.5.5-1.3-1.3-.5-.5 1.3zm1.4-3.3l-.3.6c1.3.6 0 0 1.3.7l.6-1.3-1.3-.6-.3.6zm5.8-9.1c1 .9 0 0 1.1.9l.9-1.1-1.1-.9-.9 1.1zm4.8-3.2l1.1-.9-.9-1.1-.5.5-.5.5c.9 1.1 0 0 .8 1zm-6.6 5.4l1.1.9.8-1.1-1.1-.9-.8 1.1zm-6.3 13l1.4.4.4-1.4-1.4-.4-.4 1.4zm10.5-17.9l-.5.5 1 1 1-1-1-1-.5.5zm8.1-4.6l-.8-1.2-1.2.8.8 1.2 1.2-.8zm11.4-4.7l.7-.2.7-.2-.3-1.4-1.4.3c.4 1.4 0 0 .3 1.5zm-31.5 38.6h1.4v-1.4h-1.4v1.4zM208.4 58l.6-.4.6-.4-.9-1.1-1.1.9c.8 1.1 0 0 .8 1zm5.2-4.9l-1.2.7.6 1.2 1.3-.7-.7-1.2zm16 75.3l-1.4-.1-.1 1.4.7.1h.7l.1-1.4zm2.8 1.5v-1.4H231v1.4h.7c.7.1 0 0 .7 0zm2.9-.1l-.1-1.4-1.4.1.1 1.4h.7c.7 0 0 0 .7-.1zm-8-81l-1.4.2c.2 1.3 0 0 .2 1.4l1.4-.2-.2-1.4zm-34.5 31.5l-.1.7c1.3.3 0 0 1.4.3l.3-1.4-1.4-.3-.2.7zm23.4-28.5l-1.3.6.6 1.3 1.3-.6-.6-1.3zm1.7.8l.7-.3.7-.2-.5-1.3-1.3.5c.5 1.3 0 0 .4 1.3zm12-2.7h.3l-.1-1.4-1.4.1.1 1.4.7-.1h.4zm43.5 38v-.7H272v1.4c1.4-.1 0 0 1.4 0v-.7zm-.6-6.1l-1.4.2.1.7.1.7 1.4-.2-.1-.7-.1-.7zm.3 2.5l-1.4.1.1 1.4 1.5-.1-.1-.7-.1-.7zm.2 7.2v-1.4l-1.4-.1v1.4c1.5 0 0 0 1.4.1zm-.1 2.1l.1-.7-1.4-.2-.2 1.4 1.4.2.1-.7zm-.3 2.1l-1.4-.2-.3 1.4c1.4.3 0 0 1.4.2l.3-1.4zm-.8-16.7l-1.4.3.2.7.2.7 1.4-.3-.2-.7-.2-.7zm-4.3-7.4l.3.6c.3.6 0 0 .3.7l1.3-.6-.6-1.3-1.3.6zm-6.7 44.8l1 1 1-1-1-1-1 1zm10.3-40.2l-1.4.4.2.7.2.7 1.4-.4-.2-.7-.2-.7zM269 74l.2.7c.3.7 0 0 .3.6l1.3-.5-.5-1.3-1.3.5zm-25.5 53l-1.4.4c.3 1.4 0 0 .4 1.4l1.4-.4-.4-1.4zm-34.1-4.3l.6.4.6.4.8-1.2-1.2-.8-.8 1.2zm2.4 1.6l.6.3c.7.4 0 0 .6.4l.7-1.2-1.2-.7-.7 1.2zm36.9.8l-1.3.6.5 1.3.7-.3.6-.3-.5-1.3zm2.5-1.2l-1.3.7.6 1.2 1.3-.6-.6-1.3zm12.1-10.1l-.4.5c1.1.9 0 0 1.1 1l.4-.5.4-.6-1.1-.9-.4.5zm-10.8-60.3l-1.3-.7-.7 1.3.6.3c.6.3 0 0 .7.4l.7-1.3zm.5 69.4l-.6.4.7 1.2.6-.4.6-.4-.7-1.2-.6.4zm-37.3 3.3l.6-1.3-1.3-.6-.6 1.3.6.3c.6.4 0 0 .7.3zm45.4-7.9l-1-1-.5.5-.5.5c.9 1.1 0 0 1 1l.5-.5.5-.5zm-6.4 3.5c.8 1.1 0 0 .8 1.2l1.2-.8-.8-1.2-1.2.8zm2.3-1.7l.8 1.1.6-.4.6-.5-.9-1.1-1.1.9zm13.6-20.5l1.4.4.4-1.5-1.4-.3-.4 1.4zm-13.1-41l.5.5c.5.4 0 0 .6.4l.9-1.1-1.1-.9-.9 1.1zm-1.1-.9l.8-1.1-.6-.4-.6-.4-.8 1.1.6.4c.6.5 0 0 .6.4zm8.6 9l.4.6.4.6 1.2-.8-.8-1.2-1.2.8zm-.5-3.1l-1.1.9.4.6c.4.5 0 0 .4.6l1.1-.9-.4-.6-.4-.6zm-5-3.2l.5.5c.6.5 0 0 .5.5l1-1-1-1-1 1zM246 126.1l-1.3.5c.5 1.4 0 0 .4 1.3l.7-.2.7-.2-.5-1.4zm8.2-70l.7-1.2-1.2-.7-.8 1.2.6.4c.6.4 0 0 .7.3zm-16.2 72l-1.4.2c.1 1.5 0 0 .2 1.4l1.4-.2-.2-1.4zm2.7-.4l-1.4.3c.3 1.4 0 0 .3 1.3l.7-.1.7-.1-.3-1.4zm24.3-16.2l-.4.6 1.2.8.8-1.2-1.2-.8-.4.6zm1.2-1.7c1.2.7 0 0 1.1.7l.4-.6.4-.6-1.2-.7-.7 1.2zm3.6-7.5c1.3.4 0 0 1.4.5l.2-.7.2-.7-1.4-.4-.4 1.3zm-48.3 24.6l-1.4-.4-.4 1.4.7.2c.6.2 0 0 .7.2l.4-1.4zm-2.7-.8l-.7-.3-.7-.3-.5 1.3.7.3.7.3.5-1.3zm-12.5-7.6l-.5-.5-.9 1.1.5.5.6.4.8-1-.5-.5zm1.6 1.4l-.9 1.1.6.4.6.4.9-1.1-.6-.4-.6-.4zm59.7-51.5l-1.2.7.4.6c.4.6 0 0 .3.6l1.2-.7-.4-.6-.3-.6zm-6.1-6l.5.5c.4.6 0 0 .5.6l1-.9-.9-1.1-1.1.9zm7.5 41.8l-.3.7c1.3.5 0 0 1.4.4l.5-1.3-1.3-.5-.3.7zm-1.2 2.6l-.3.6c1.3.6 0 0 1.3.7l.6-1.3-1.3-.6-.3.6zm20.4-54.9h-2v2h2v-2zm0 2.1v2h2v-2h-2zm4 2h-2v2h2v-2zm0-4.1h-2v2h2v-2zm-4.1 4.1h-2v2h2v-2zm5.6-11.6v2h2v-2h-2zm2 2v2h2v-2h-2zm4 4v-2h-2v2h2zm0-6h-2v2h2v-2zm-4.1 4.1h-2v2h2v-2zm-126.2-2h2v-2h-2v2zm-.1 0h-2v2h2v-2zm-2 2h-2v2h2v-2zm2.1 2h2v-2h-2v2zm-2.1-6.1h-2v2h2v-2zm9.6 9.6h2v-2h-2v2zm-2 2h2v-2h-2v2zm-2 2h2v-2h-2v2zm6 0v-2h-2v2h2zm-4.1-6.1h-2v2h2v-2zm16.1-23.8h-2.4v-1.6h-.8v4.8h.8v-2.4h2.4v2.4h.8v-4.8h-.8v1.6zm0-2.4h-2.4v.8h2.4v-.8zm2.8.8h1.6v4h-1.6v.8h4v-.8h-1.6v-4h1.6v-.8h-4v.8zm9.2.8h-.8v.8h.8v3.2h.8v-5.6h-.8v1.6zm-1.6 2.4h.8v-1.6h-.8v1.6zm-.8-2.4v-1.6h-.8v5.6h.8v-3.2h.8v-.8h-.8zm8.4-.8h.8v1.6h-.8v.8h.8v1.6h-.8v.8h-3.2v-5.6h3.2v.8zm-.1 2.4h-2.4v1.6h2.4v-1.6zm0-2.4h-2.4v1.6h2.4v-1.6zm2.8-.8v4.8h.8v-4.8h-.8zm3.2 4.8h.8v-4.8h-.8v4.8zm-2.4.8h2.4v-.8h-2.4v.8zm6-5.6h-.8v5.6h4v-.8h-3.2v-4.8zm8.4 2.4h-2.4v-1.6h-.8v4.8h.8v-2.4h2.4v2.4h.8v-4.8h-.8v1.6zm0-2.4h-2.4v.8h2.4v-.8zm6 3.2h-.8v.8h.8v1.6h.8v-5.6h-.8v3.2zm-1.6-.8v.8h.8v-.8h-.8zm-.8-.8v-1.6h-.8v5.6h.8v-3.2h.8v-.8h-.8zm8.4 0h.8v-.8h-.8v.8zm.8 2.4h-.8v.8h.8v-.8zm-.8 1.6v-.8h-2.4v.8h2.4zm-2.4-5.6v.8h2.4v-.8h-2.4zm-.8 4.8h.8v-4h-.8v4zm6 .8h4v-.8h-3.2v-1.6h2.4v-.8h-2.4v-1.6h3.2v-.8h-4v5.6zm12.8-4v-1.6h-.8v5.6h.8v-3.2h.8v-.8h-.8zm.8.8v.8h.8v-.8h-.8zm1.6.8h-.8v.8h.8v1.6h.8v-5.6h-.8v3.2zm2.8 2.4h4v-.8h-3.2v-1.6h2.4v-.8h-2.4v-1.6h3.2v-.8h-4v5.6zm9.2-.8h.8v-4.8h-.8v4.8zm-.8.8h.8v-.8h-.8v.8zm-1.6 0h.8v-.8h-.8v.8zm.8-4v3.2h.8v-3.2h-.8zm-1.6-1.6v4.8h.8v-4.8h-.8zm6 2.4h.8v-1.6h-.8v1.6zm.8-1.6h3.2v-.8h-3.2v.8zm2.4 2.4v-.8h-2.4v.8h2.4zm-3.2 1.6v.8h3.2v-.8h.8v-1.6h-.8v1.6h-3.2zm-27.4 45.6h-2.3v1.2h2.3v-1.1h2.3V75h-2.3v1.1zm12.7 7h1.1v-2.4h-1.1v-2.3h-1.2v-2.3h-1.1v-2.3h-1.2v-2.3h-2.3v1.2h-2.3v1.1h-2.3V75h2.3v-1.1h2.3v-1.2h1.1v1.2h1.2v2.3h1.1v2.3h1.2v2.3h1.1V83h-1.1v1.2h1.2v-1.1zm-17.3-19.7h-1.2v-1.1h-11.5v1.1h-1.2v13.9h-2.3v1.2h3.5v-15h11.5v15h3.5v-1.2h-2.3V63.4zm6.9 26.5v-1.1h-2.3V90c.8 0 1.5 0 2.3-.1v1.2h2.3v-1.2h-2.3zm2.3-2.2h2.3v-1.2h2.3v-1.1h2.3v-1.2h-2.3v1.1h-2.3v1.2h-2.3v1.1h-2.3v1.2h2.3v-1.1zm-10.4 12.6v15h-11.5v-15h-3.5v1.2h2.3v13.9h1.2v1.1h11.5v-1.1h1.2v-13.9h2.3v-1.2h-3.5zm5.8 2.3v-1.1h-2.3v1.2h2.3v1.1h2.3v-1.2h-2.3zm2.3 1.2v1.2c.8 0 1.5 0 2.3-.1v-1.1h-2.3zm11.5-8.1h-1.1v-1.1h-1.2v1.2h1.1V98h-1.1v2.3h-1.2v2.3h-1.1v2.3h-1.2v1.2h-1.1v-1.2h-2.3v1.2h2.3v1.2h2.3V105h1.2v-2.3h1.1v-2.3h1.2v-2.3h1.1v-2.4zm-9.2-4.6v1.2h2.3v-1.2h-2.3zm5.8 2.3h-1.2v-1.1h-2.3v1.2h2.3v1.1h2.3v-1.2h-1.1zm-33.5 9.2h-2.3v1.2h2.3v-1.1h2.3v-1.2h-2.3v1.1zm-4.6 2.4h2.3v-1.2h-2.3v1.2zm-2.3 1.1h2.3V105c-.8-.1-1.5-.1-2.3-.1v1.2zm-1.1-1.2h-1.2v-2.3h-1.1v-2.3h-1.2v2.4h1.1v2.3h1.2v2.3h2.3v-1.2h-1.1v-1.2zm3.4-15v1.2h2.3V90h2.3v-1.2h-2.3v1.1h-2.3zm-2.3 2.4h2.3v-1.2h-2.3v1.2zm-2.3 1.1h-2.3v1.2h2.3v-1.2c.8.1 1.5.1 2.3.1v-1.2h-2.3v1.1zm-4.7 4.7h1.2v2.3h1.2V98h-1.2v-2.3h-1.2v2.4zm1.2-2.4l1.2.1v-1.2h-1.2v1.1zm12.7-19.6V75h-2.3v1.2h2.3v1.1h2.3v-1.2h-2.3zm-4.6-2.3v-1.1h-2.3v1.2h2.3V75h2.3v-1.2h-2.3zm-4.6-2.3v2.3h-1.2v2.3h-1.1v2.3h-1.2v2.3l1.2.1v-2.3h1.2v-2.3h1.1v-2.3h1.2v-1.2h1.1v-1.2h-2.3zm-4.7 11.6h1.2v1.1h1.2V83h-1.2v-2.3h-1.2v2.4zm9.3 4.6v1.1h2.3v-1.2h-2.3v-1.1h-2.3v1.2h2.3zm-2.3-1.2v-1.2h-2.3v1.2h2.3zm-2.3-1.2v-1.1h-2.3v1.2c.8 0 1.5 0 2.3-.1zm66.6-46.6h3v-1.5H277v1.5h1.5zm3.1 0v1.5h15.1v-1.5h-1.6v-1.5h-1.5v1.5h-12zm10.5-3v1.5h1.5v-1.5h-1.5zm-1.5-1.5v1.5h1.5v-1.5h-1.5zm3-1.5h-1.5v1.5h1.5v-1.5zm1.5-1.5h1.6v-1.5h-12.1v-7.6h-1.5v12.1h1.5v-3h9v1.5h1.5v-1.5zM181.8 17.6v1.5h4.6v-1.5h-4.6zm-13.6 1.5h1.5v-1.6h12.1V16h-15.1v1.5h1.5v1.6zm3 1.5v-1.5h-1.5v1.5h1.5zm1.6 1.5v-1.5h-1.5v1.5h1.5zm-1.6 0h-1.5v1.5h1.5v-1.5zm7.6 0v3h-9.1v-1.5h-1.5v1.5h-1.5v1.5h12.1v7.6h1.5V22.1h-1.5zm1.5 13.6h95.2v1.5h1.5v-1.5h6.1v-1.5H180.3v1.5zm102.8-15.1h-95.2v-1.5h-1.5v1.5h-6.1v1.5h102.8v-1.5zM243 64.7h3.5v-1.2H243v1.2zm6.9 0h3.5v-1.2h-3.5v1.2zm-2.3 4.6h1.2v-3.5h-1.2v3.5zm0-6.9h1.2v-1.2-2.3h-1.2v3.5zm-44.1 22.5h-1.2v3.4h-3.4v1.2h3.4V93h1.2v-3.5h-1.1v-1.1h1.1v1.1h3.5v-1.2h-3.5v-3.4zm61 14.4v-3.5h-1.1v-1.1h1.1v1.1h3.5v-1.2h-3.5v-3.4h-1.2v3.4h-3.4v1.2h3.4v3.5h1.2zM220 114.2v1.1h-1.1v-1.1h1.1v-2.3h-1.2v2.3h-2.3v1.2h2.3v2.3h1.2v-2.3h2.3v-1.2H220z"/></svg>