<?xml version="1.0" encoding="utf-8"?>
<svg xmlns="http://www.w3.org/2000/svg"
	xmlns:xlink="http://www.w3.org/1999/xlink"
	width="146px" height="16px" viewBox="0 0 146 16">
<path fillRule="evenodd" d="M 145.99 10.15C 145.99 10.15 143.83 13.85 143.83 13.85 143.83 13.85 140.06 11.7 140.06 11.7 140.06 11.7 140.06 16 140.06 16 140.06 16 135.73 16 135.73 16 135.73 16 135.73 11.7 135.73 11.7 135.73 11.7 131.96 13.85 131.96 13.85 131.96 13.85 129.8 10.15 129.8 10.15 129.8 10.15 133.57 8 133.57 8 133.57 8 129.8 5.84 129.8 5.84 129.8 5.84 131.96 2.15 131.96 2.15 131.96 2.15 135.74 4.3 135.74 4.3 135.74 4.3 135.74-0.01 135.74-0.01 135.74-0.01 140.06-0.01 140.06-0.01 140.06-0.01 140.06 4.3 140.06 4.3 140.06 4.3 143.83 2.15 143.83 2.15 143.83 2.15 145.99 5.84 145.99 5.84 145.99 5.84 142.22 8 142.22 8 142.22 8 145.99 10.15 145.99 10.15ZM 117.86 13.98C 117.58 13.42 117.29 12.86 117.01 12.3 116.95 12.17 116.87 12.13 116.73 12.13 114.58 12.13 112.44 12.13 110.3 12.13 110.16 12.13 110.09 12.17 110.03 12.29 109.75 12.86 109.46 13.42 109.17 13.98 109.14 14.05 109.07 14.13 109.02 14.13 108.41 14.14 107.8 14.14 107.16 14.14 107.2 14.05 107.23 13.99 107.26 13.92 108.28 11.91 109.3 9.9 110.31 7.89 111.29 5.94 112.27 4 113.25 2.05 113.32 1.91 113.4 1.88 113.55 1.87 113.73 1.86 113.76 1.98 113.81 2.09 115.79 6.03 117.77 9.97 119.75 13.91 119.79 13.98 119.81 14.05 119.86 14.14 119.26 14.14 118.69 14.14 118.13 14.14 117.99 14.15 117.92 14.1 117.86 13.98ZM 114.87 7.85C 114.49 7.02 114.1 6.19 113.71 5.36 113.68 5.28 113.59 5.19 113.53 5.19 113.47 5.19 113.38 5.28 113.35 5.36 112.58 7 111.81 8.66 111.04 10.31 111 10.41 110.94 10.51 110.88 10.63 112.65 10.63 114.4 10.63 116.15 10.63 115.72 9.7 115.3 8.78 114.87 7.85ZM 103.93 1.89C 104.5 1.89 105.05 1.89 105.6 1.89 105.6 5.98 105.6 10.05 105.6 14.13 105.04 14.13 104.5 14.13 103.93 14.13 103.93 10.04 103.93 5.96 103.93 1.89ZM 99.3 5.56C 99.22 5.64 99.17 5.7 99.12 5.75 97.82 7.11 96.53 8.47 95.23 9.83 95.03 10.04 94.72 10.04 94.52 9.83 93.51 8.76 92.5 7.7 91.49 6.63 91.15 6.28 90.82 5.92 90.44 5.52 90.44 8.44 90.44 11.28 90.44 14.12 89.86 14.12 89.31 14.12 88.76 14.12 88.76 10.04 88.76 5.97 88.76 1.83 88.96 1.88 89.19 1.88 89.3 1.99 90.81 3.53 92.3 5.09 93.8 6.64 94.15 7.01 94.51 7.38 94.89 7.77 94.95 7.69 95.01 7.62 95.07 7.56 96.82 5.73 98.58 3.91 100.32 2.07 100.53 1.86 100.74 1.85 100.99 1.9 100.99 5.98 100.99 10.05 100.99 14.13 100.43 14.13 99.88 14.13 99.3 14.13 99.3 11.28 99.3 8.44 99.3 5.56ZM 80.18 14.16C 79.16 14.16 78.18 14.01 77.26 13.55 76.09 12.96 75.44 11.72 75.58 10.44 75.72 9.21 76.42 8.45 77.54 8.01 77.64 7.97 77.73 7.89 77.83 7.83 77.74 7.77 77.65 7.69 77.54 7.64 76.46 7.12 75.98 6.25 75.98 5.09 75.98 3.67 76.78 2.6 78.2 2.15 78.68 2 79.19 1.95 79.7 1.85 79.75 1.84 79.8 1.83 79.85 1.81 81.92 1.81 83.99 1.81 86.06 1.81 86.07 1.89 86.08 1.96 86.08 2.04 86.08 6 86.08 9.96 86.08 13.91 86.08 13.99 86.08 14.06 86.08 14.17 86 14.17 85.93 14.17 85.87 14.17 83.97 14.17 82.07 14.17 80.18 14.16ZM 84.37 3.37C 84.29 3.36 84.22 3.36 84.15 3.36 82.78 3.36 81.4 3.35 80.03 3.39 79.41 3.4 78.81 3.54 78.32 3.96 77.59 4.57 77.51 6.08 78.57 6.71 79.08 7.01 79.63 7.16 80.23 7.17 81.57 7.18 82.91 7.18 84.25 7.19 84.28 7.19 84.31 7.18 84.37 7.18 84.37 5.9 84.37 4.64 84.37 3.37ZM 84.37 8.68C 84.3 8.68 84.22 8.67 84.15 8.67 82.81 8.67 81.48 8.66 80.15 8.67 79.4 8.68 78.68 8.8 78.06 9.25 77.03 10 77.15 11.55 78.27 12.17 78.87 12.51 79.53 12.62 80.21 12.62 81.55 12.63 82.89 12.63 84.23 12.63 84.27 12.63 84.31 12.62 84.37 12.61 84.37 11.3 84.37 10 84.37 8.68ZM 70.41 13.96C 69.12 14.53 67.78 14.59 66.42 14.27 65.02 13.93 63.96 13.14 63.29 11.87 62.81 10.95 62.64 9.97 62.64 8.95 62.63 6.57 62.63 4.19 62.63 1.81 63.2 1.81 63.77 1.81 64.34 1.81 64.35 1.9 64.36 1.99 64.36 2.08 64.36 4.31 64.36 6.55 64.36 8.78 64.36 9.33 64.39 9.87 64.55 10.39 64.87 11.46 65.51 12.24 66.61 12.61 67.28 12.84 67.98 12.87 68.68 12.77 69.65 12.63 70.44 12.18 70.97 11.34 71.44 10.62 71.59 9.81 71.59 8.97 71.6 6.59 71.6 4.2 71.6 1.81 72.17 1.81 72.74 1.81 73.3 1.81 73.3 4.17 73.3 6.53 73.3 8.89 73.3 9.59 73.22 10.28 73.01 10.96 72.58 12.33 71.75 13.36 70.41 13.96ZM 59.54 14.17C 56.6 14.17 54.6 14.17 51.66 14.17 51.66 13.66 51.66 13.16 51.66 12.63 54.05 12.63 55.47 12.63 57.86 12.63 57.86 12.51 57.86 12.42 57.86 12.34 57.86 8.93 57.86 5.52 57.86 2.11 57.86 2.02 57.87 1.92 57.87 1.83 58.43 1.83 58.99 1.83 59.54 1.83 59.55 1.85 59.58 1.87 59.58 1.89 59.58 2.1 59.58 2.3 59.58 2.51 59.58 6.33 59.58 10.16 59.58 13.99 59.58 14.05 59.55 14.11 59.54 14.17ZM 47.73 12.32C 47.68 12.2 47.61 12.15 47.47 12.15 45.31 12.16 43.14 12.16 40.98 12.15 40.84 12.15 40.77 12.19 40.71 12.31 40.43 12.88 40.14 13.45 39.85 14.02 39.83 14.07 39.81 14.12 39.8 14.17 39.14 14.17 38.49 14.17 37.84 14.17 38.1 13.63 38.36 13.09 38.63 12.55 40.44 8.98 42.24 5.4 44.04 1.83 44.17 1.83 44.29 1.83 44.42 1.83 44.44 1.89 44.46 1.96 44.49 2.02 46.39 5.79 48.29 9.57 50.18 13.34 50.32 13.62 50.45 13.89 50.58 14.17 49.94 14.17 49.31 14.17 48.67 14.17 48.36 13.55 48.04 12.94 47.73 12.32ZM 44.41 5.32C 44.38 5.25 44.29 5.17 44.23 5.17 44.17 5.17 44.08 5.26 44.05 5.32 43.28 6.98 42.51 8.63 41.74 10.29 41.69 10.4 41.63 10.51 41.56 10.64 43.34 10.64 45.09 10.64 46.86 10.64 46.04 8.86 45.23 7.09 44.41 5.32ZM 34.33 5.4C 34.3 5.38 34.28 5.36 34.25 5.34 34.21 5.41 34.19 5.49 34.13 5.54 31.31 8.36 28.48 11.18 25.67 14.02 25.45 14.24 25.23 14.27 24.96 14.22 24.96 10.1 24.96 5.98 24.96 1.87 25.54 1.87 26.1 1.87 26.68 1.87 26.68 4.78 26.68 7.69 26.68 10.64 26.76 10.56 26.81 10.52 26.86 10.47 29.69 7.67 32.52 4.87 35.34 2.06 35.56 1.85 35.77 1.83 36.03 1.87 36.03 5.99 36.03 10.11 36.03 14.22 35.46 14.22 34.91 14.22 34.33 14.22 34.33 11.27 34.33 8.34 34.33 5.4ZM 20.89 12.42C 19.91 13.51 18.68 14.16 17.24 14.41 16.94 14.46 16.63 14.49 16.33 14.53 16.01 14.53 15.69 14.53 15.37 14.53 15.33 14.52 15.3 14.5 15.26 14.49 14.46 14.44 13.7 14.24 12.97 13.91 12.45 13.67 11.98 13.37 11.57 12.96 11.9 12.51 12.22 12.08 12.55 11.65 14.59 13.4 17.54 13.34 19.37 11.52 21.12 9.77 21.25 6.61 19.44 4.66 17.87 2.98 14.83 2.54 12.54 4.46 12.22 4.03 11.89 3.59 11.56 3.15 11.66 3.07 11.74 2.98 11.83 2.91 12.04 2.76 12.24 2.6 12.46 2.47 14.1 1.53 15.85 1.39 17.66 1.79 19.07 2.11 20.24 2.83 21.12 3.97 22.37 5.57 22.71 7.41 22.37 9.37 22.18 10.52 21.68 11.54 20.89 12.42ZM 9.24 14.17C 6.16 14.17 3.08 14.17-0 14.17-0 13.66-0 13.15-0 12.62 2.53 12.62 5.04 12.62 7.55 12.62 7.55 11.35 7.55 10.1 7.55 8.82 5.36 8.82 3.18 8.82 1 8.82 1 8.31 1 7.83 1 7.32 3.19 7.32 5.36 7.32 7.55 7.32 7.55 6 7.55 4.69 7.55 3.37 5.02 3.37 2.51 3.37-0 3.37-0 2.84-0 2.33-0 1.83 3.08 1.83 6.16 1.83 9.24 1.83 9.26 1.85 9.28 1.87 9.28 1.89 9.29 2.1 9.29 2.3 9.29 2.51 9.29 6.33 9.29 10.16 9.29 13.99 9.29 14.05 9.26 14.11 9.24 14.17Z" fill="rgb(0,0,0)"/></svg>