<?xml version="1.0" encoding="utf-8"?>
<svg xmlns="http://www.w3.org/2000/svg"
	xmlns:xlink="http://www.w3.org/1999/xlink"
	width="66px" height="42px" viewBox="0 0 66 42">
<path fillRule="evenodd" d="M 0 36C 0 36 3 36 3 36 3 36 3 39 3 39 3 39 0 39 0 39 0 39 0 36 0 36ZM 0 33C 0 33 3 33 3 33 3 33 3 36 3 36 3 36 0 36 0 36 0 36 0 33 0 33ZM 0 30C 0 30 3 30 3 30 3 30 3 33 3 33 3 33 0 33 0 33 0 33 0 30 0 30ZM 0 27C 0 27 3 27 3 27 3 27 3 30 3 30 3 30 0 30 0 30 0 30 0 27 0 27ZM 0 24C 0 24 3 24 3 24 3 24 3 27 3 27 3 27 0 27 0 27 0 27 0 24 0 24ZM 0 21C 0 21 3 21 3 21 3 21 3 24 3 24 3 24 0 24 0 24 0 24 0 21 0 21ZM 0 18C 0 18 3 18 3 18 3 18 3 21 3 21 3 21 0 21 0 21 0 21 0 18 0 18ZM 0 15C 0 15 3 15 3 15 3 15 3 18 3 18 3 18 0 18 0 18 0 18 0 15 0 15ZM 0 12C 0 12 3 12 3 12 3 12 3 15 3 15 3 15 0 15 0 15 0 15 0 12 0 12ZM 0 9C 0 9 3 9 3 9 3 9 3 12 3 12 3 12 0 12 0 12 0 12 0 9 0 9ZM 0 6C 0 6 3 6 3 6 3 6 3 9 3 9 3 9 0 9 0 9 0 9 0 6 0 6ZM 0 3C 0 3 3 3 3 3 3 3 3 6 3 6 3 6 0 6 0 6 0 6 0 3 0 3ZM 0 0C 0 0 3 0 3 0 3 0 3 3 3 3 3 3 0 3 0 3 0 3 0 0 0 0ZM 63 36C 63 36 66 36 66 36 66 36 66 39 66 39 66 39 63 39 63 39 63 39 63 36 63 36ZM 60 36C 60 36 63 36 63 36 63 36 63 39 63 39 63 39 60 39 60 39 60 39 60 36 60 36ZM 57 36C 57 36 60 36 60 36 60 36 60 39 60 39 60 39 57 39 57 39 57 39 57 36 57 36ZM 54 36C 54 36 57 36 57 36 57 36 57 39 57 39 57 39 54 39 54 39 54 39 54 36 54 36ZM 51 36C 51 36 54 36 54 36 54 36 54 39 54 39 54 39 51 39 51 39 51 39 51 36 51 36ZM 48 36C 48 36 51 36 51 36 51 36 51 39 51 39 51 39 48 39 48 39 48 39 48 36 48 36ZM 45 36C 45 36 48 36 48 36 48 36 48 39 48 39 48 39 45 39 45 39 45 39 45 36 45 36ZM 42 36C 42 36 45 36 45 36 45 36 45 39 45 39 45 39 42 39 42 39 42 39 42 36 42 36ZM 39 36C 39 36 42 36 42 36 42 36 42 39 42 39 42 39 39 39 39 39 39 39 39 36 39 36ZM 36 36C 36 36 39 36 39 36 39 36 39 39 39 39 39 39 36 39 36 39 36 39 36 36 36 36ZM 33 36C 33 36 36 36 36 36 36 36 36 39 36 39 36 39 33 39 33 39 33 39 33 36 33 36ZM 30 36C 30 36 33 36 33 36 33 36 33 39 33 39 33 39 30 39 30 39 30 39 30 36 30 36ZM 27 36C 27 36 30 36 30 36 30 36 30 39 30 39 30 39 27 39 27 39 27 39 27 36 27 36ZM 24 36C 24 36 27 36 27 36 27 36 27 39 27 39 27 39 24 39 24 39 24 39 24 36 24 36ZM 21 36C 21 36 24 36 24 36 24 36 24 39 24 39 24 39 21 39 21 39 21 39 21 36 21 36ZM 18 36C 18 36 21 36 21 36 21 36 21 39 21 39 21 39 18 39 18 39 18 39 18 36 18 36ZM 15 36C 15 36 18 36 18 36 18 36 18 39 18 39 18 39 15 39 15 39 15 39 15 36 15 36ZM 12 36C 12 36 15 36 15 36 15 36 15 39 15 39 15 39 12 39 12 39 12 39 12 36 12 36ZM 9 36C 9 36 12 36 12 36 12 36 12 39 12 39 12 39 9 39 9 39 9 39 9 36 9 36ZM 6 36C 6 36 9 36 9 36 9 36 9 39 9 39 9 39 6 39 6 39 6 39 6 36 6 36ZM 3 36C 3 36 6 36 6 36 6 36 6 39 6 39 6 39 3 39 3 39 3 39 3 36 3 36ZM 15 9C 15 9 18 9 18 9 18 9 18 12 18 12 18 12 15 12 15 12 15 12 15 9 15 9ZM 12 9C 12 9 15 9 15 9 15 9 15 12 15 12 15 12 12 12 12 12 12 12 12 9 12 9ZM 51 9C 51 9 54 9 54 9 54 9 54 12 54 12 54 12 51 12 51 12 51 12 51 9 51 9ZM 48 9C 48 9 51 9 51 9 51 9 51 12 51 12 51 12 48 12 48 12 48 12 48 9 48 9ZM 39 18C 39 18 42 18 42 18 42 18 42 21 42 21 42 21 39 21 39 21 39 21 39 18 39 18ZM 36 18C 36 18 39 18 39 18 39 18 39 21 39 21 39 21 36 21 36 21 36 21 36 18 36 18ZM 33 18C 33 18 36 18 36 18 36 18 36 21 36 21 36 21 33 21 33 21 33 21 33 18 33 18ZM 30 18C 30 18 33 18 33 18 33 18 33 21 33 21 33 21 30 21 30 21 30 21 30 18 30 18ZM 27 18C 27 18 30 18 30 18 30 18 30 21 30 21 30 21 27 21 27 21 27 21 27 18 27 18ZM 24 18C 24 18 27 18 27 18 27 18 27 21 27 21 27 21 24 21 24 21 24 21 24 18 24 18ZM 21 18C 21 18 24 18 24 18 24 18 24 21 24 21 24 21 21 21 21 21 21 21 21 18 21 18ZM 9 39C 9 39 12 39 12 39 12 39 12 42 12 42 12 42 9 42 9 42 9 42 9 39 9 39ZM 54 39C 54 39 57 39 57 39 57 39 57 42 57 42 57 42 54 42 54 42 54 42 54 39 54 39ZM 63 33C 63 33 66 33 66 33 66 33 66 36 66 36 66 36 63 36 63 36 63 36 63 33 63 33ZM 63 30C 63 30 66 30 66 30 66 30 66 33 66 33 66 33 63 33 63 33 63 33 63 30 63 30ZM 63 27C 63 27 66 27 66 27 66 27 66 30 66 30 66 30 63 30 63 30 63 30 63 27 63 27ZM 63 24C 63 24 66 24 66 24 66 24 66 27 66 27 66 27 63 27 63 27 63 27 63 24 63 24ZM 63 21C 63 21 66 21 66 21 66 21 66 24 66 24 66 24 63 24 63 24 63 24 63 21 63 21ZM 63 18C 63 18 66 18 66 18 66 18 66 21 66 21 66 21 63 21 63 21 63 21 63 18 63 18ZM 63 15C 63 15 66 15 66 15 66 15 66 18 66 18 66 18 63 18 63 18 63 18 63 15 63 15ZM 63 12C 63 12 66 12 66 12 66 12 66 15 66 15 66 15 63 15 63 15 63 15 63 12 63 12ZM 63 9C 63 9 66 9 66 9 66 9 66 12 66 12 66 12 63 12 63 12 63 12 63 9 63 9ZM 63 6C 63 6 66 6 66 6 66 6 66 9 66 9 66 9 63 9 63 9 63 9 63 6 63 6ZM 63 3C 63 3 66 3 66 3 66 3 66 6 66 6 66 6 63 6 63 6 63 6 63 3 63 3ZM 63 0C 63 0 66 0 66 0 66 0 66 3 66 3 66 3 63 3 63 3 63 3 63 0 63 0ZM 39 3C 39 3 39 0 39 0 39 0 42 0 42 0 42 0 42 3 42 3 42 3 39 3 39 3ZM 42 3C 42 3 42 0 42 0 42 0 45 0 45 0 45 0 45 3 45 3 45 3 42 3 42 3ZM 45 3C 45 3 45 0 45 0 45 0 48 0 48 0 48 0 48 3 48 3 48 3 45 3 45 3ZM 48 3C 48 3 48 0 48 0 48 0 51 0 51 0 51 0 51 3 51 3 51 3 48 3 48 3ZM 51 3C 51 3 51 0 51 0 51 0 54 0 54 0 54 0 54 3 54 3 54 3 51 3 51 3ZM 54 3C 54 3 54 0 54 0 54 0 57 0 57 0 57 0 57 3 57 3 57 3 54 3 54 3ZM 57 3C 57 3 57 0 57 0 57 0 60 0 60 0 60 0 60 3 60 3 60 3 57 3 57 3ZM 60 3C 60 3 60 0 60 0 60 0 63 0 63 0 63 0 63 3 63 3 63 3 60 3 60 3ZM 63 3C 63 3 63 0 63 0 63 0 66 0 66 0 66 0 66 3 66 3 66 3 63 3 63 3ZM 36 3C 36 3 36 0 36 0 36 0 39 0 39 0 39 0 39 3 39 3 39 3 36 3 36 3ZM 33 3C 33 3 33 0 33 0 33 0 36 0 36 0 36 0 36 3 36 3 36 3 33 3 33 3ZM 30 3C 30 3 30 0 30 0 30 0 33 0 33 0 33 0 33 3 33 3 33 3 30 3 30 3ZM 27 3C 27 3 27 0 27 0 27 0 30 0 30 0 30 0 30 3 30 3 30 3 27 3 27 3ZM 24 3C 24 3 24 0 24 0 24 0 27 0 27 0 27 0 27 3 27 3 27 3 24 3 24 3ZM 21 3C 21 3 21 0 21 0 21 0 24 0 24 0 24 0 24 3 24 3 24 3 21 3 21 3ZM 18 3C 18 3 18 0 18 0 18 0 21 0 21 0 21 0 21 3 21 3 21 3 18 3 18 3ZM 15 3C 15 3 15 0 15 0 15 0 18 0 18 0 18 0 18 3 18 3 18 3 15 3 15 3ZM 12 3C 12 3 12 0 12 0 12 0 15 0 15 0 15 0 15 3 15 3 15 3 12 3 12 3ZM 9 3C 9 3 9 0 9 0 9 0 12 0 12 0 12 0 12 3 12 3 12 3 9 3 9 3ZM 6 3C 6 3 6 0 6 0 6 0 9 0 9 0 9 0 9 3 9 3 9 3 6 3 6 3ZM 3 3C 3 3 3 0 3 0 3 0 6 0 6 0 6 0 6 3 6 3 6 3 3 3 3 3ZM 36 21C 36 21 39 21 39 21 39 21 39 24 39 24 39 24 36 24 36 24 36 24 36 21 36 21ZM 42 18C 42 18 45 18 45 18 45 18 45 21 45 21 45 21 42 21 42 21 42 21 42 18 42 18ZM 45 18C 45 18 48 18 48 18 48 18 48 21 48 21 48 21 45 21 45 21 45 21 45 18 45 18ZM 18 18C 18 18 21 18 21 18 21 18 21 21 21 21 21 21 18 21 18 21 18 21 18 18 18 18ZM 39 24C 39 24 42 24 42 24 42 24 42 27 42 27 42 27 39 27 39 27 39 27 39 24 39 24ZM 45 21C 45 21 48 21 48 21 48 21 48 24 48 24 48 24 45 24 45 24 45 24 45 21 45 21ZM 42 24C 42 24 45 24 45 24 45 24 45 27 45 27 45 27 42 27 42 27 42 27 42 24 42 24ZM 48 18C 48 18 51 18 51 18 51 18 51 21 51 21 51 21 48 21 48 21 48 21 48 18 48 18ZM 15 18C 15 18 18 18 18 18 18 18 18 21 18 21 18 21 15 21 15 21 15 21 15 18 15 18Z" fill="rgb(0,0,0)"/></svg>