<?xml version="1.0" encoding="utf-8"?>
<svg xmlns="http://www.w3.org/2000/svg"
	xmlns:xlink="http://www.w3.org/1999/xlink"
	width="10px" height="10px" viewBox="0 0 10 10">
<path fillRule="evenodd" d="M 9.99 1.67C 9.99 1.67 6.65 5.02 6.65 5.02 6.65 5.02 9.9 8.26 9.9 8.26 9.9 8.26 8.26 9.9 8.26 9.9 8.26 9.9 5.02 6.65 5.02 6.65 5.02 6.65 1.67 9.99 1.67 9.99 1.67 9.99 0.01 8.33 0.01 8.33 0.01 8.33 3.35 4.98 3.35 4.98 3.35 4.98 0.1 1.74 0.1 1.74 0.1 1.74 1.74 0.1 1.74 0.1 1.74 0.1 4.98 3.35 4.98 3.35 4.98 3.35 8.33 0.01 8.33 0.01 8.33 0.01 9.99 1.67 9.99 1.67Z" fill="rgb(255,255,255)"/></svg>